<?xml version="1.0" encoding="utf-8" standalone="no"?>
<!DOCTYPE svg PUBLIC "-//W3C//DTD SVG 1.1//EN"
  "http://www.w3.org/Graphics/SVG/1.1/DTD/svg11.dtd">
<!-- Created with matplotlib (https://matplotlib.org/) -->
<svg height="216pt" version="1.1" viewBox="0 0 576 216" width="576pt" xmlns="http://www.w3.org/2000/svg" xmlns:xlink="http://www.w3.org/1999/xlink">
 <metadata>
  <rdf:RDF xmlns:cc="http://creativecommons.org/ns#" xmlns:dc="http://purl.org/dc/elements/1.1/" xmlns:rdf="http://www.w3.org/1999/02/22-rdf-syntax-ns#">
   <cc:Work>
    <dc:type rdf:resource="http://purl.org/dc/dcmitype/StillImage"/>
    <dc:date>2020-11-03T11:27:04.235648</dc:date>
    <dc:format>image/svg+xml</dc:format>
    <dc:creator>
     <cc:Agent>
      <dc:title>Matplotlib v3.3.2, https://matplotlib.org/</dc:title>
     </cc:Agent>
    </dc:creator>
   </cc:Work>
  </rdf:RDF>
 </metadata>
 <defs>
  <style type="text/css">*{stroke-linecap:butt;stroke-linejoin:round;}</style>
 </defs>
 <g id="figure_1">
  <g id="patch_1">
   <path d="M 0 216
L 576 216
L 576 0
L 0 0
z
" style="fill:none;"/>
  </g>
  <g id="axes_1">
   <g id="patch_2">
    <path d="M 72 189
L 518.4 189
L 518.4 25.92
L 72 25.92
z
" style="fill:none;"/>
   </g>
   <g id="line2d_1">
    <path clip-path="url(#p0e4227c7d9)" d="M 92.290909 33.332727
L 498.109091 33.332727
L 498.109091 33.332727
" style="fill:none;stroke:#1f77b4;stroke-linecap:square;stroke-width:0.8;"/>
   </g>
   <g id="line2d_2">
    <path clip-path="url(#p0e4227c7d9)" d="M 92.290909 33.332727
L 498.109091 33.332727
L 498.109091 33.332727
" style="fill:none;stroke:#ff7f0e;stroke-linecap:square;stroke-width:0.8;"/>
   </g>
   <g id="matplotlib.axis_1">
    <g id="xtick_1">
     <g id="line2d_3">
      <defs>
       <path d="M 0 0
L 0 1.5
" id="m8b5d10caff" style="stroke:#696969;stroke-width:0.8;"/>
      </defs>
      <g>
       <use style="fill:#696969;stroke:#696969;stroke-width:0.8;" x="92.290909" xlink:href="#m8b5d10caff" y="189"/>
      </g>
     </g>
     <g id="text_1">
      <!-- 147 -->
      <g style="fill:#696969;" transform="translate(82.747159 201.598437)scale(0.1 -0.1)">
       <defs>
        <path d="M 12.40625 8.296875
L 28.515625 8.296875
L 28.515625 63.921875
L 10.984375 60.40625
L 10.984375 69.390625
L 28.421875 72.90625
L 38.28125 72.90625
L 38.28125 8.296875
L 54.390625 8.296875
L 54.390625 0
L 12.40625 0
z
" id="DejaVuSans-49"/>
        <path d="M 37.796875 64.3125
L 12.890625 25.390625
L 37.796875 25.390625
z
M 35.203125 72.90625
L 47.609375 72.90625
L 47.609375 25.390625
L 58.015625 25.390625
L 58.015625 17.1875
L 47.609375 17.1875
L 47.609375 0
L 37.796875 0
L 37.796875 17.1875
L 4.890625 17.1875
L 4.890625 26.703125
z
" id="DejaVuSans-52"/>
        <path d="M 8.203125 72.90625
L 55.078125 72.90625
L 55.078125 68.703125
L 28.609375 0
L 18.3125 0
L 43.21875 64.59375
L 8.203125 64.59375
z
" id="DejaVuSans-55"/>
       </defs>
       <use xlink:href="#DejaVuSans-49"/>
       <use x="63.623047" xlink:href="#DejaVuSans-52"/>
       <use x="127.246094" xlink:href="#DejaVuSans-55"/>
      </g>
     </g>
    </g>
    <g id="xtick_2">
     <g id="line2d_4">
      <g>
       <use style="fill:#696969;stroke:#696969;stroke-width:0.8;" x="227.631578" xlink:href="#m8b5d10caff" y="189"/>
      </g>
     </g>
     <g id="text_2">
      <!-- 174 -->
      <g style="fill:#696969;" transform="translate(218.087828 201.598437)scale(0.1 -0.1)">
       <use xlink:href="#DejaVuSans-49"/>
       <use x="63.623047" xlink:href="#DejaVuSans-55"/>
       <use x="127.246094" xlink:href="#DejaVuSans-52"/>
      </g>
     </g>
    </g>
    <g id="xtick_3">
     <g id="line2d_5">
      <g>
       <use style="fill:#696969;stroke:#696969;stroke-width:0.8;" x="362.972248" xlink:href="#m8b5d10caff" y="189"/>
      </g>
     </g>
     <g id="text_3">
      <!-- 202 -->
      <g style="fill:#696969;" transform="translate(353.428498 201.598437)scale(0.1 -0.1)">
       <defs>
        <path d="M 19.1875 8.296875
L 53.609375 8.296875
L 53.609375 0
L 7.328125 0
L 7.328125 8.296875
Q 12.9375 14.109375 22.625 23.890625
Q 32.328125 33.6875 34.8125 36.53125
Q 39.546875 41.84375 41.421875 45.53125
Q 43.3125 49.21875 43.3125 52.78125
Q 43.3125 58.59375 39.234375 62.25
Q 35.15625 65.921875 28.609375 65.921875
Q 23.96875 65.921875 18.8125 64.3125
Q 13.671875 62.703125 7.8125 59.421875
L 7.8125 69.390625
Q 13.765625 71.78125 18.9375 73
Q 24.125 74.21875 28.421875 74.21875
Q 39.75 74.21875 46.484375 68.546875
Q 53.21875 62.890625 53.21875 53.421875
Q 53.21875 48.921875 51.53125 44.890625
Q 49.859375 40.875 45.40625 35.40625
Q 44.1875 33.984375 37.640625 27.21875
Q 31.109375 20.453125 19.1875 8.296875
z
" id="DejaVuSans-50"/>
        <path d="M 31.78125 66.40625
Q 24.171875 66.40625 20.328125 58.90625
Q 16.5 51.421875 16.5 36.375
Q 16.5 21.390625 20.328125 13.890625
Q 24.171875 6.390625 31.78125 6.390625
Q 39.453125 6.390625 43.28125 13.890625
Q 47.125 21.390625 47.125 36.375
Q 47.125 51.421875 43.28125 58.90625
Q 39.453125 66.40625 31.78125 66.40625
z
M 31.78125 74.21875
Q 44.046875 74.21875 50.515625 64.515625
Q 56.984375 54.828125 56.984375 36.375
Q 56.984375 17.96875 50.515625 8.265625
Q 44.046875 -1.421875 31.78125 -1.421875
Q 19.53125 -1.421875 13.0625 8.265625
Q 6.59375 17.96875 6.59375 36.375
Q 6.59375 54.828125 13.0625 64.515625
Q 19.53125 74.21875 31.78125 74.21875
z
" id="DejaVuSans-48"/>
       </defs>
       <use xlink:href="#DejaVuSans-50"/>
       <use x="63.623047" xlink:href="#DejaVuSans-48"/>
       <use x="127.246094" xlink:href="#DejaVuSans-50"/>
      </g>
     </g>
    </g>
    <g id="xtick_4">
     <g id="line2d_6">
      <g>
       <use style="fill:#696969;stroke:#696969;stroke-width:0.8;" x="498.312917" xlink:href="#m8b5d10caff" y="189"/>
      </g>
     </g>
     <g id="text_4">
      <!-- 230 -->
      <g style="fill:#696969;" transform="translate(488.769167 201.598437)scale(0.1 -0.1)">
       <defs>
        <path d="M 40.578125 39.3125
Q 47.65625 37.796875 51.625 33
Q 55.609375 28.21875 55.609375 21.1875
Q 55.609375 10.40625 48.1875 4.484375
Q 40.765625 -1.421875 27.09375 -1.421875
Q 22.515625 -1.421875 17.65625 -0.515625
Q 12.796875 0.390625 7.625 2.203125
L 7.625 11.71875
Q 11.71875 9.328125 16.59375 8.109375
Q 21.484375 6.890625 26.8125 6.890625
Q 36.078125 6.890625 40.9375 10.546875
Q 45.796875 14.203125 45.796875 21.1875
Q 45.796875 27.640625 41.28125 31.265625
Q 36.765625 34.90625 28.71875 34.90625
L 20.21875 34.90625
L 20.21875 43.015625
L 29.109375 43.015625
Q 36.375 43.015625 40.234375 45.921875
Q 44.09375 48.828125 44.09375 54.296875
Q 44.09375 59.90625 40.109375 62.90625
Q 36.140625 65.921875 28.71875 65.921875
Q 24.65625 65.921875 20.015625 65.03125
Q 15.375 64.15625 9.8125 62.3125
L 9.8125 71.09375
Q 15.4375 72.65625 20.34375 73.4375
Q 25.25 74.21875 29.59375 74.21875
Q 40.828125 74.21875 47.359375 69.109375
Q 53.90625 64.015625 53.90625 55.328125
Q 53.90625 49.265625 50.4375 45.09375
Q 46.96875 40.921875 40.578125 39.3125
z
" id="DejaVuSans-51"/>
       </defs>
       <use xlink:href="#DejaVuSans-50"/>
       <use x="63.623047" xlink:href="#DejaVuSans-51"/>
       <use x="127.246094" xlink:href="#DejaVuSans-48"/>
      </g>
     </g>
    </g>
    <g id="text_5">
     <!-- Days -->
     <g style="fill:#696969;" transform="translate(282.721875 215.276563)scale(0.1 -0.1)">
      <defs>
       <path d="M 19.671875 64.796875
L 19.671875 8.109375
L 31.59375 8.109375
Q 46.6875 8.109375 53.6875 14.9375
Q 60.6875 21.78125 60.6875 36.53125
Q 60.6875 51.171875 53.6875 57.984375
Q 46.6875 64.796875 31.59375 64.796875
z
M 9.8125 72.90625
L 30.078125 72.90625
Q 51.265625 72.90625 61.171875 64.09375
Q 71.09375 55.28125 71.09375 36.53125
Q 71.09375 17.671875 61.125 8.828125
Q 51.171875 0 30.078125 0
L 9.8125 0
z
" id="DejaVuSans-68"/>
       <path d="M 34.28125 27.484375
Q 23.390625 27.484375 19.1875 25
Q 14.984375 22.515625 14.984375 16.5
Q 14.984375 11.71875 18.140625 8.90625
Q 21.296875 6.109375 26.703125 6.109375
Q 34.1875 6.109375 38.703125 11.40625
Q 43.21875 16.703125 43.21875 25.484375
L 43.21875 27.484375
z
M 52.203125 31.203125
L 52.203125 0
L 43.21875 0
L 43.21875 8.296875
Q 40.140625 3.328125 35.546875 0.953125
Q 30.953125 -1.421875 24.3125 -1.421875
Q 15.921875 -1.421875 10.953125 3.296875
Q 6 8.015625 6 15.921875
Q 6 25.140625 12.171875 29.828125
Q 18.359375 34.515625 30.609375 34.515625
L 43.21875 34.515625
L 43.21875 35.40625
Q 43.21875 41.609375 39.140625 45
Q 35.0625 48.390625 27.6875 48.390625
Q 23 48.390625 18.546875 47.265625
Q 14.109375 46.140625 10.015625 43.890625
L 10.015625 52.203125
Q 14.9375 54.109375 19.578125 55.046875
Q 24.21875 56 28.609375 56
Q 40.484375 56 46.34375 49.84375
Q 52.203125 43.703125 52.203125 31.203125
z
" id="DejaVuSans-97"/>
       <path d="M 32.171875 -5.078125
Q 28.375 -14.84375 24.75 -17.8125
Q 21.140625 -20.796875 15.09375 -20.796875
L 7.90625 -20.796875
L 7.90625 -13.28125
L 13.1875 -13.28125
Q 16.890625 -13.28125 18.9375 -11.515625
Q 21 -9.765625 23.484375 -3.21875
L 25.09375 0.875
L 2.984375 54.6875
L 12.5 54.6875
L 29.59375 11.921875
L 46.6875 54.6875
L 56.203125 54.6875
z
" id="DejaVuSans-121"/>
       <path d="M 44.28125 53.078125
L 44.28125 44.578125
Q 40.484375 46.53125 36.375 47.5
Q 32.28125 48.484375 27.875 48.484375
Q 21.1875 48.484375 17.84375 46.4375
Q 14.5 44.390625 14.5 40.28125
Q 14.5 37.15625 16.890625 35.375
Q 19.28125 33.59375 26.515625 31.984375
L 29.59375 31.296875
Q 39.15625 29.25 43.1875 25.515625
Q 47.21875 21.78125 47.21875 15.09375
Q 47.21875 7.46875 41.1875 3.015625
Q 35.15625 -1.421875 24.609375 -1.421875
Q 20.21875 -1.421875 15.453125 -0.5625
Q 10.6875 0.296875 5.421875 2
L 5.421875 11.28125
Q 10.40625 8.6875 15.234375 7.390625
Q 20.0625 6.109375 24.8125 6.109375
Q 31.15625 6.109375 34.5625 8.28125
Q 37.984375 10.453125 37.984375 14.40625
Q 37.984375 18.0625 35.515625 20.015625
Q 33.0625 21.96875 24.703125 23.78125
L 21.578125 24.515625
Q 13.234375 26.265625 9.515625 29.90625
Q 5.8125 33.546875 5.8125 39.890625
Q 5.8125 47.609375 11.28125 51.796875
Q 16.75 56 26.8125 56
Q 31.78125 56 36.171875 55.265625
Q 40.578125 54.546875 44.28125 53.078125
z
" id="DejaVuSans-115"/>
      </defs>
      <use xlink:href="#DejaVuSans-68"/>
      <use x="77.001953" xlink:href="#DejaVuSans-97"/>
      <use x="138.28125" xlink:href="#DejaVuSans-121"/>
      <use x="197.460938" xlink:href="#DejaVuSans-115"/>
     </g>
    </g>
   </g>
   <g id="matplotlib.axis_2">
    <g id="ytick_1">
     <g id="line2d_7">
      <path clip-path="url(#p0e4227c7d9)" d="M 72 174.567421
L 518.4 174.567421
" style="fill:none;stroke:#b0b0b0;stroke-linecap:square;stroke-width:0.8;"/>
     </g>
     <g id="line2d_8">
      <defs>
       <path d="M 0 0
L -1 0
" id="m46c7e1c28c" style="stroke:#696969;stroke-width:0.2;"/>
      </defs>
      <g>
       <use style="fill:#696969;stroke:#696969;stroke-width:0.2;" x="72" xlink:href="#m46c7e1c28c" y="174.567421"/>
      </g>
     </g>
     <g id="text_6">
      <!-- 0.80 -->
      <g style="fill:#696969;" transform="translate(45.234375 178.36664)scale(0.1 -0.1)">
       <defs>
        <path d="M 10.6875 12.40625
L 21 12.40625
L 21 0
L 10.6875 0
z
" id="DejaVuSans-46"/>
        <path d="M 31.78125 34.625
Q 24.75 34.625 20.71875 30.859375
Q 16.703125 27.09375 16.703125 20.515625
Q 16.703125 13.921875 20.71875 10.15625
Q 24.75 6.390625 31.78125 6.390625
Q 38.8125 6.390625 42.859375 10.171875
Q 46.921875 13.96875 46.921875 20.515625
Q 46.921875 27.09375 42.890625 30.859375
Q 38.875 34.625 31.78125 34.625
z
M 21.921875 38.8125
Q 15.578125 40.375 12.03125 44.71875
Q 8.5 49.078125 8.5 55.328125
Q 8.5 64.0625 14.71875 69.140625
Q 20.953125 74.21875 31.78125 74.21875
Q 42.671875 74.21875 48.875 69.140625
Q 55.078125 64.0625 55.078125 55.328125
Q 55.078125 49.078125 51.53125 44.71875
Q 48 40.375 41.703125 38.8125
Q 48.828125 37.15625 52.796875 32.3125
Q 56.78125 27.484375 56.78125 20.515625
Q 56.78125 9.90625 50.3125 4.234375
Q 43.84375 -1.421875 31.78125 -1.421875
Q 19.734375 -1.421875 13.25 4.234375
Q 6.78125 9.90625 6.78125 20.515625
Q 6.78125 27.484375 10.78125 32.3125
Q 14.796875 37.15625 21.921875 38.8125
z
M 18.3125 54.390625
Q 18.3125 48.734375 21.84375 45.5625
Q 25.390625 42.390625 31.78125 42.390625
Q 38.140625 42.390625 41.71875 45.5625
Q 45.3125 48.734375 45.3125 54.390625
Q 45.3125 60.0625 41.71875 63.234375
Q 38.140625 66.40625 31.78125 66.40625
Q 25.390625 66.40625 21.84375 63.234375
Q 18.3125 60.0625 18.3125 54.390625
z
" id="DejaVuSans-56"/>
       </defs>
       <use xlink:href="#DejaVuSans-48"/>
       <use x="63.623047" xlink:href="#DejaVuSans-46"/>
       <use x="95.410156" xlink:href="#DejaVuSans-56"/>
       <use x="159.033203" xlink:href="#DejaVuSans-48"/>
      </g>
     </g>
    </g>
    <g id="ytick_2">
     <g id="line2d_9">
      <path clip-path="url(#p0e4227c7d9)" d="M 72 139.258748
L 518.4 139.258748
" style="fill:none;stroke:#b0b0b0;stroke-linecap:square;stroke-width:0.8;"/>
     </g>
     <g id="line2d_10">
      <g>
       <use style="fill:#696969;stroke:#696969;stroke-width:0.2;" x="72" xlink:href="#m46c7e1c28c" y="139.258748"/>
      </g>
     </g>
     <g id="text_7">
      <!-- 0.85 -->
      <g style="fill:#696969;" transform="translate(45.234375 143.057966)scale(0.1 -0.1)">
       <defs>
        <path d="M 10.796875 72.90625
L 49.515625 72.90625
L 49.515625 64.59375
L 19.828125 64.59375
L 19.828125 46.734375
Q 21.96875 47.46875 24.109375 47.828125
Q 26.265625 48.1875 28.421875 48.1875
Q 40.625 48.1875 47.75 41.5
Q 54.890625 34.8125 54.890625 23.390625
Q 54.890625 11.625 47.5625 5.09375
Q 40.234375 -1.421875 26.90625 -1.421875
Q 22.3125 -1.421875 17.546875 -0.640625
Q 12.796875 0.140625 7.71875 1.703125
L 7.71875 11.625
Q 12.109375 9.234375 16.796875 8.0625
Q 21.484375 6.890625 26.703125 6.890625
Q 35.15625 6.890625 40.078125 11.328125
Q 45.015625 15.765625 45.015625 23.390625
Q 45.015625 31 40.078125 35.4375
Q 35.15625 39.890625 26.703125 39.890625
Q 22.75 39.890625 18.8125 39.015625
Q 14.890625 38.140625 10.796875 36.28125
z
" id="DejaVuSans-53"/>
       </defs>
       <use xlink:href="#DejaVuSans-48"/>
       <use x="63.623047" xlink:href="#DejaVuSans-46"/>
       <use x="95.410156" xlink:href="#DejaVuSans-56"/>
       <use x="159.033203" xlink:href="#DejaVuSans-53"/>
      </g>
     </g>
    </g>
    <g id="ytick_3">
     <g id="line2d_11">
      <path clip-path="url(#p0e4227c7d9)" d="M 72 103.950074
L 518.4 103.950074
" style="fill:none;stroke:#b0b0b0;stroke-linecap:square;stroke-width:0.8;"/>
     </g>
     <g id="line2d_12">
      <g>
       <use style="fill:#696969;stroke:#696969;stroke-width:0.2;" x="72" xlink:href="#m46c7e1c28c" y="103.950074"/>
      </g>
     </g>
     <g id="text_8">
      <!-- 0.90 -->
      <g style="fill:#696969;" transform="translate(45.234375 107.749293)scale(0.1 -0.1)">
       <defs>
        <path d="M 10.984375 1.515625
L 10.984375 10.5
Q 14.703125 8.734375 18.5 7.8125
Q 22.3125 6.890625 25.984375 6.890625
Q 35.75 6.890625 40.890625 13.453125
Q 46.046875 20.015625 46.78125 33.40625
Q 43.953125 29.203125 39.59375 26.953125
Q 35.25 24.703125 29.984375 24.703125
Q 19.046875 24.703125 12.671875 31.3125
Q 6.296875 37.9375 6.296875 49.421875
Q 6.296875 60.640625 12.9375 67.421875
Q 19.578125 74.21875 30.609375 74.21875
Q 43.265625 74.21875 49.921875 64.515625
Q 56.59375 54.828125 56.59375 36.375
Q 56.59375 19.140625 48.40625 8.859375
Q 40.234375 -1.421875 26.421875 -1.421875
Q 22.703125 -1.421875 18.890625 -0.6875
Q 15.09375 0.046875 10.984375 1.515625
z
M 30.609375 32.421875
Q 37.25 32.421875 41.125 36.953125
Q 45.015625 41.5 45.015625 49.421875
Q 45.015625 57.28125 41.125 61.84375
Q 37.25 66.40625 30.609375 66.40625
Q 23.96875 66.40625 20.09375 61.84375
Q 16.21875 57.28125 16.21875 49.421875
Q 16.21875 41.5 20.09375 36.953125
Q 23.96875 32.421875 30.609375 32.421875
z
" id="DejaVuSans-57"/>
       </defs>
       <use xlink:href="#DejaVuSans-48"/>
       <use x="63.623047" xlink:href="#DejaVuSans-46"/>
       <use x="95.410156" xlink:href="#DejaVuSans-57"/>
       <use x="159.033203" xlink:href="#DejaVuSans-48"/>
      </g>
     </g>
    </g>
    <g id="ytick_4">
     <g id="line2d_13">
      <path clip-path="url(#p0e4227c7d9)" d="M 72 68.641401
L 518.4 68.641401
" style="fill:none;stroke:#b0b0b0;stroke-linecap:square;stroke-width:0.8;"/>
     </g>
     <g id="line2d_14">
      <g>
       <use style="fill:#696969;stroke:#696969;stroke-width:0.2;" x="72" xlink:href="#m46c7e1c28c" y="68.641401"/>
      </g>
     </g>
     <g id="text_9">
      <!-- 0.95 -->
      <g style="fill:#696969;" transform="translate(45.234375 72.440619)scale(0.1 -0.1)">
       <use xlink:href="#DejaVuSans-48"/>
       <use x="63.623047" xlink:href="#DejaVuSans-46"/>
       <use x="95.410156" xlink:href="#DejaVuSans-57"/>
       <use x="159.033203" xlink:href="#DejaVuSans-53"/>
      </g>
     </g>
    </g>
    <g id="ytick_5">
     <g id="line2d_15">
      <path clip-path="url(#p0e4227c7d9)" d="M 72 33.332727
L 518.4 33.332727
" style="fill:none;stroke:#b0b0b0;stroke-linecap:square;stroke-width:0.8;"/>
     </g>
     <g id="line2d_16">
      <g>
       <use style="fill:#696969;stroke:#696969;stroke-width:0.2;" x="72" xlink:href="#m46c7e1c28c" y="33.332727"/>
      </g>
     </g>
     <g id="text_10">
      <!-- 1.00 -->
      <g style="fill:#696969;" transform="translate(45.234375 37.131946)scale(0.1 -0.1)">
       <use xlink:href="#DejaVuSans-49"/>
       <use x="63.623047" xlink:href="#DejaVuSans-46"/>
       <use x="95.410156" xlink:href="#DejaVuSans-48"/>
       <use x="159.033203" xlink:href="#DejaVuSans-48"/>
      </g>
     </g>
    </g>
    <g id="text_11">
     <!-- fO3_d () -->
     <g style="fill:#696969;" transform="translate(38.876562 127.502187)rotate(-90)scale(0.1 -0.1)">
      <defs>
       <path d="M 37.109375 75.984375
L 37.109375 68.5
L 28.515625 68.5
Q 23.6875 68.5 21.796875 66.546875
Q 19.921875 64.59375 19.921875 59.515625
L 19.921875 54.6875
L 34.71875 54.6875
L 34.71875 47.703125
L 19.921875 47.703125
L 19.921875 0
L 10.890625 0
L 10.890625 47.703125
L 2.296875 47.703125
L 2.296875 54.6875
L 10.890625 54.6875
L 10.890625 58.5
Q 10.890625 67.625 15.140625 71.796875
Q 19.390625 75.984375 28.609375 75.984375
z
" id="DejaVuSans-102"/>
       <path d="M 39.40625 66.21875
Q 28.65625 66.21875 22.328125 58.203125
Q 16.015625 50.203125 16.015625 36.375
Q 16.015625 22.609375 22.328125 14.59375
Q 28.65625 6.59375 39.40625 6.59375
Q 50.140625 6.59375 56.421875 14.59375
Q 62.703125 22.609375 62.703125 36.375
Q 62.703125 50.203125 56.421875 58.203125
Q 50.140625 66.21875 39.40625 66.21875
z
M 39.40625 74.21875
Q 54.734375 74.21875 63.90625 63.9375
Q 73.09375 53.65625 73.09375 36.375
Q 73.09375 19.140625 63.90625 8.859375
Q 54.734375 -1.421875 39.40625 -1.421875
Q 24.03125 -1.421875 14.8125 8.828125
Q 5.609375 19.09375 5.609375 36.375
Q 5.609375 53.65625 14.8125 63.9375
Q 24.03125 74.21875 39.40625 74.21875
z
" id="DejaVuSans-79"/>
       <path d="M 50.984375 -16.609375
L 50.984375 -23.578125
L -0.984375 -23.578125
L -0.984375 -16.609375
z
" id="DejaVuSans-95"/>
       <path d="M 45.40625 46.390625
L 45.40625 75.984375
L 54.390625 75.984375
L 54.390625 0
L 45.40625 0
L 45.40625 8.203125
Q 42.578125 3.328125 38.25 0.953125
Q 33.9375 -1.421875 27.875 -1.421875
Q 17.96875 -1.421875 11.734375 6.484375
Q 5.515625 14.40625 5.515625 27.296875
Q 5.515625 40.1875 11.734375 48.09375
Q 17.96875 56 27.875 56
Q 33.9375 56 38.25 53.625
Q 42.578125 51.265625 45.40625 46.390625
z
M 14.796875 27.296875
Q 14.796875 17.390625 18.875 11.75
Q 22.953125 6.109375 30.078125 6.109375
Q 37.203125 6.109375 41.296875 11.75
Q 45.40625 17.390625 45.40625 27.296875
Q 45.40625 37.203125 41.296875 42.84375
Q 37.203125 48.484375 30.078125 48.484375
Q 22.953125 48.484375 18.875 42.84375
Q 14.796875 37.203125 14.796875 27.296875
z
" id="DejaVuSans-100"/>
       <path id="DejaVuSans-32"/>
       <path d="M 31 75.875
Q 24.46875 64.65625 21.28125 53.65625
Q 18.109375 42.671875 18.109375 31.390625
Q 18.109375 20.125 21.3125 9.0625
Q 24.515625 -2 31 -13.1875
L 23.1875 -13.1875
Q 15.875 -1.703125 12.234375 9.375
Q 8.59375 20.453125 8.59375 31.390625
Q 8.59375 42.28125 12.203125 53.3125
Q 15.828125 64.359375 23.1875 75.875
z
" id="DejaVuSans-40"/>
       <path d="M 8.015625 75.875
L 15.828125 75.875
Q 23.140625 64.359375 26.78125 53.3125
Q 30.421875 42.28125 30.421875 31.390625
Q 30.421875 20.453125 26.78125 9.375
Q 23.140625 -1.703125 15.828125 -13.1875
L 8.015625 -13.1875
Q 14.5 -2 17.703125 9.0625
Q 20.90625 20.125 20.90625 31.390625
Q 20.90625 42.671875 17.703125 53.65625
Q 14.5 64.65625 8.015625 75.875
z
" id="DejaVuSans-41"/>
      </defs>
      <use xlink:href="#DejaVuSans-102"/>
      <use x="35.205078" xlink:href="#DejaVuSans-79"/>
      <use x="113.916016" xlink:href="#DejaVuSans-51"/>
      <use x="177.539062" xlink:href="#DejaVuSans-95"/>
      <use x="227.539062" xlink:href="#DejaVuSans-100"/>
      <use x="291.015625" xlink:href="#DejaVuSans-32"/>
      <use x="322.802734" xlink:href="#DejaVuSans-40"/>
      <use x="361.816406" xlink:href="#DejaVuSans-41"/>
     </g>
    </g>
   </g>
   <g id="line2d_17">
    <path clip-path="url(#p0e4227c7d9)" d="M 92.290909 33.332727
L 498.109091 33.332727
L 498.109091 33.332727
" style="fill:none;stroke:#2ca02c;stroke-linecap:square;stroke-width:0.8;"/>
   </g>
   <g id="patch_3">
    <path d="M 72 189
L 72 25.92
" style="fill:none;"/>
   </g>
   <g id="patch_4">
    <path d="M 518.4 189
L 518.4 25.92
" style="fill:none;"/>
   </g>
   <g id="patch_5">
    <path d="M 72 189
L 518.4 189
" style="fill:none;"/>
   </g>
   <g id="patch_6">
    <path d="M 72 25.92
L 518.4 25.92
" style="fill:none;"/>
   </g>
   <g id="line2d_18">
    <path clip-path="url(#p0e4227c7d9)" d="M 92.290909 33.332727
L 93.717693 33.332727
L 94.329172 33.970795
L 94.532998 34.593047
L 94.940651 37.046852
L 95.55213 43.315047
L 95.959783 48.36439
L 98.609525 48.36439
L 99.221004 47.726323
L 100.851614 43.518625
L 103.705182 43.521964
L 103.909009 43.813948
L 104.112835 44.56915
L 104.520488 48.323276
L 104.92814 54.370081
L 105.743446 69.390287
L 108.597014 69.386947
L 108.80084 69.094964
L 109.004666 68.339761
L 109.412319 64.743894
L 110.635277 48.376169
L 110.839103 48.539164
L 113.488845 48.539164
L 113.692672 48.817935
L 113.896498 49.317423
L 114.30415 51.359175
L 115.119456 55.949076
L 115.323282 56.185051
L 115.730935 55.828321
L 118.380677 55.828321
L 118.584503 55.54955
L 118.992156 54.265711
L 119.603635 52.051577
L 120.41894 49.871261
L 120.622766 53.328574
L 123.883987 53.277956
L 124.087813 53.01464
L 124.29164 52.155437
L 124.699292 48.510979
L 125.514598 36.81132
L 128.571992 36.81132
L 128.775818 36.645859
L 130.406429 33.332727
L 132.852345 33.332727
L 133.056171 33.447298
L 133.259997 34.005654
L 133.66765 36.656395
L 134.279129 43.565416
L 135.094434 56.270718
L 135.29826 59.660099
L 137.744176 59.660099
L 137.948002 59.545528
L 138.151829 58.987172
L 138.559481 56.536202
L 140.190092 43.15362
L 143.04366 43.221128
L 143.247486 43.360288
L 144.062792 44.509525
L 144.266618 44.555778
L 144.470444 44.437598
L 145.081923 43.524008
L 148.139318 43.564005
L 148.343144 43.34971
L 148.750797 42.373741
L 149.158449 40.831201
L 149.973755 36.672047
L 152.623497 36.672047
L 153.234976 36.187469
L 154.865586 33.7015
L 158.330633 33.61955
L 158.738286 33.611793
L 160.368896 33.777879
L 163.630117 33.703687
L 164.853075 33.332727
L 181.974485 33.332727
L 182.993617 34.369452
L 184.216575 35.728259
L 184.828054 35.785779
L 186.866317 35.786313
L 188.089274 35.197716
L 189.312232 34.74616
L 191.961974 34.686507
L 192.369627 34.487248
L 194.204064 33.346178
L 196.649979 33.332737
L 197.057632 33.601543
L 197.261458 34.093376
L 197.872937 36.91834
L 198.28059 39.691958
L 198.892069 44.67026
L 199.095895 45.30757
L 199.503548 45.64633
L 200.318853 45.709056
L 201.541811 45.712313
L 201.949463 45.446627
L 202.15329 45.09903
L 202.764769 43.019599
L 203.172421 40.743003
L 203.7839 36.510233
L 203.987727 35.984146
L 204.395379 35.717442
L 205.414511 35.673029
L 206.841295 35.66955
L 207.248948 35.277166
L 208.879558 33.427734
L 209.694863 33.34068
L 218.867047 33.332728
L 222.739747 33.39013
L 223.962705 33.648047
L 227.0201 33.911874
L 229.262189 34.573647
L 231.300452 34.714734
L 232.52341 34.318836
L 233.542541 33.794151
L 234.561673 33.630059
L 238.434373 33.424494
L 244.549162 33.365326
L 297.747829 33.356952
L 498.109091 33.356952
L 498.109091 33.356952
" style="fill:none;stroke:#d62728;stroke-linecap:square;stroke-width:0.8;"/>
   </g>
   <g id="line2d_19">
    <path clip-path="url(#p0e4227c7d9)" d="M 92.290909 33.332727
L 93.717693 33.332727
L 93.92152 35.520163
L 94.329172 44.699846
L 94.736825 61.64917
L 95.348304 99.542651
L 95.959783 148.245866
L 96.163609 149.180862
L 98.609525 149.180862
L 99.221004 146.477144
L 100.036309 140.31724
L 100.851614 136.291837
L 101.05544 135.959946
L 103.29753 135.959946
L 103.501356 136.520387
L 103.909009 138.790681
L 104.316661 144.950099
L 105.947272 178.039508
L 108.189361 178.039508
L 108.393188 177.479067
L 108.80084 173.987442
L 109.208493 166.974027
L 110.431451 140.053922
L 110.635277 137.983698
L 110.839103 138.835161
L 113.081193 138.835161
L 113.285019 139.084301
L 113.488845 140.093569
L 113.896498 144.049224
L 115.119456 159.204631
L 115.527108 160.490928
L 115.730935 159.528197
L 117.973024 159.528197
L 118.17685 159.351798
L 118.380677 158.723792
L 118.788329 155.595318
L 119.399808 149.413292
L 120.011287 145.660646
L 120.41894 143.619775
L 120.622766 160.561997
L 123.068682 160.489256
L 123.883987 155.721968
L 124.087813 154.242183
L 124.495466 148.496751
L 125.310771 131.222765
L 125.514598 126.48144
L 127.960513 126.48144
L 128.16434 126.264988
L 128.368166 124.681961
L 128.571992 121.820658
L 128.979645 110.438752
L 129.591124 83.342463
L 130.406429 33.332727
L 132.648518 33.332727
L 132.852345 33.873059
L 133.056171 36.371339
L 133.463824 48.537842
L 133.871476 69.300497
L 134.482955 111.177331
L 135.29826 181.587273
L 137.54035 181.587273
L 137.744176 181.046941
L 137.948002 179.368637
L 138.355655 173.202455
L 139.374787 155.049497
L 140.190092 144.457191
L 142.636007 144.457191
L 142.839834 144.809343
L 143.247486 146.517391
L 144.062792 150.89906
L 144.470444 151.836023
L 144.674271 151.948637
L 144.878097 151.898809
L 145.081923 151.719577
L 147.527839 151.719577
L 147.935492 152.584242
L 148.139318 152.587787
L 148.343144 152.255981
L 148.54697 151.632533
L 148.954623 149.261584
L 149.566102 144.243079
L 149.973755 140.417806
L 152.41967 140.417806
L 152.623497 139.636276
L 153.031149 136.061078
L 153.846454 126.684976
L 154.254107 120.00464
L 154.865586 106.334286
L 157.311502 106.334286
L 157.719154 105.296224
L 157.922981 104.443237
L 158.53446 99.985892
L 158.738286 99.584001
L 158.942112 99.652752
L 159.145939 100.530781
L 159.961244 105.567574
L 162.203333 105.567574
L 162.407159 106.47453
L 162.814812 109.853924
L 163.426291 115.745324
L 163.630117 116.441301
L 163.833944 116.624053
L 164.03777 116.371275
L 164.445423 115.155314
L 164.649249 114.315112
L 167.095165 114.315112
L 167.298991 113.304667
L 167.706644 108.793322
L 168.725775 94.413639
L 169.54108 86.712606
L 171.375517 86.725834
L 171.986996 86.725834
L 172.190822 87.200886
L 172.598475 89.450991
L 174.025259 102.215381
L 174.432912 106.484005
L 174.636738 107.200087
L 175.248217 107.253899
L 177.28648 107.319069
L 177.490306 107.500337
L 177.897959 108.513211
L 178.305612 109.866998
L 178.917091 112.83202
L 179.528569 116.666816
L 179.732396 116.841336
L 180.751527 116.873266
L 181.770659 116.873275
L 181.974485 117.848203
L 182.585964 124.225092
L 183.197443 130.191518
L 183.808922 133.583644
L 184.624227 136.282114
L 185.03188 136.379237
L 186.66249 136.386295
L 186.866317 136.102695
L 187.477796 134.922677
L 187.681622 134.732967
L 187.885448 134.709666
L 188.089274 134.835637
L 188.90458 135.965462
L 189.108406 135.923938
L 189.516059 137.095931
L 189.923711 137.272273
L 191.554322 137.295409
L 191.758148 136.449069
L 192.165801 131.271071
L 193.184932 113.483255
L 194.000237 103.223579
L 194.40789 103.567006
L 194.815543 103.752136
L 196.038501 103.796137
L 196.446153 103.796761
L 196.649979 104.551016
L 196.853806 106.749526
L 197.261458 114.950817
L 198.892069 159.748712
L 199.299721 163.667007
L 199.707374 164.44248
L 200.115027 164.606318
L 201.337985 164.655163
L 201.541811 164.492705
L 201.949463 163.47099
L 202.357116 161.283815
L 202.968595 156.578369
L 203.580074 149.557663
L 203.7839 147.03197
L 203.987727 146.929163
L 204.599206 147.781264
L 205.006858 147.978947
L 205.822163 148.065934
L 206.229816 148.08035
L 206.433642 147.782422
L 206.637469 146.690403
L 207.045121 141.982914
L 208.675732 119.735534
L 208.879558 119.364742
L 209.89869 120.376261
L 210.510168 120.529161
L 211.121647 120.584869
L 211.325474 119.876349
L 211.733126 117.906034
L 212.344605 116.302234
L 212.752258 114.751214
L 213.159911 111.035597
L 213.567563 105.900756
L 213.771389 105.166364
L 213.975216 105.106412
L 214.994347 105.813726
L 216.013479 106.169597
L 216.217305 107.421092
L 216.624958 111.661482
L 216.828784 112.648424
L 217.236437 113.141936
L 217.644089 114.238249
L 218.051742 117.856457
L 218.663221 125.488813
L 219.070873 128.292156
L 219.478526 129.75431
L 219.886179 130.572399
L 220.293831 131.010198
L 220.701484 131.275332
L 221.312963 131.19455
L 221.516789 131.687485
L 221.720615 132.97172
L 222.535921 140.181073
L 224.370358 154.168629
L 224.981836 156.265776
L 225.593315 157.432441
L 226.816273 159.797997
L 227.631578 162.336653
L 228.243057 163.982595
L 229.058363 170.066807
L 229.873668 175.22941
L 230.892799 179.647098
L 231.300452 180.472255
L 231.504278 180.283058
L 231.708105 179.64959
L 232.115757 177.145539
L 232.52341 172.691119
L 233.338715 161.249144
L 233.542541 160.463075
L 233.746368 160.367038
L 233.950194 160.705054
L 234.357847 162.083436
L 235.580805 167.967933
L 235.784631 167.798014
L 236.192283 164.702471
L 236.599936 158.872473
L 237.211415 145.739585
L 238.638199 109.800393
L 239.249678 104.028508
L 239.657331 101.693046
L 240.26881 99.58308
L 241.084115 96.85304
L 241.491767 94.438776
L 242.510899 86.83799
L 243.733857 76.875083
L 244.345336 74.227026
L 244.956815 72.525961
L 248.218036 65.209255
L 248.829515 64.670569
L 249.64482 64.258101
L 253.313693 63.22932
L 498.109091 63.22932
L 498.109091 63.22932
" style="fill:none;stroke:#9467bd;stroke-linecap:square;stroke-width:0.8;"/>
   </g>
   <g id="legend_1">
    <g id="patch_7">
     <path d="M 450.810937 184
L 511.4 184
Q 513.4 184 513.4 182
L 513.4 109.609375
Q 513.4 107.609375 511.4 107.609375
L 450.810937 107.609375
Q 448.810937 107.609375 448.810937 109.609375
L 448.810937 182
Q 448.810937 184 450.810937 184
z
" style="fill:#ffffff;opacity:0.8;stroke:#cccccc;stroke-linejoin:miter;"/>
    </g>
    <g id="line2d_20">
     <path d="M 452.810937 115.707813
L 472.810937 115.707813
" style="fill:none;stroke:#1f77b4;stroke-linecap:square;stroke-width:0.8;"/>
    </g>
    <g id="line2d_21"/>
    <g id="text_12">
     <!-- 0% -->
     <g style="fill:#696969;" transform="translate(480.810937 119.207813)scale(0.1 -0.1)">
      <defs>
       <path d="M 72.703125 32.078125
Q 68.453125 32.078125 66.03125 28.46875
Q 63.625 24.859375 63.625 18.40625
Q 63.625 12.0625 66.03125 8.421875
Q 68.453125 4.78125 72.703125 4.78125
Q 76.859375 4.78125 79.265625 8.421875
Q 81.6875 12.0625 81.6875 18.40625
Q 81.6875 24.8125 79.265625 28.4375
Q 76.859375 32.078125 72.703125 32.078125
z
M 72.703125 38.28125
Q 80.421875 38.28125 84.953125 32.90625
Q 89.5 27.546875 89.5 18.40625
Q 89.5 9.28125 84.9375 3.921875
Q 80.375 -1.421875 72.703125 -1.421875
Q 64.890625 -1.421875 60.34375 3.921875
Q 55.8125 9.28125 55.8125 18.40625
Q 55.8125 27.59375 60.375 32.9375
Q 64.9375 38.28125 72.703125 38.28125
z
M 22.3125 68.015625
Q 18.109375 68.015625 15.6875 64.375
Q 13.28125 60.75 13.28125 54.390625
Q 13.28125 47.953125 15.671875 44.328125
Q 18.0625 40.71875 22.3125 40.71875
Q 26.5625 40.71875 28.96875 44.328125
Q 31.390625 47.953125 31.390625 54.390625
Q 31.390625 60.6875 28.953125 64.34375
Q 26.515625 68.015625 22.3125 68.015625
z
M 66.40625 74.21875
L 74.21875 74.21875
L 28.609375 -1.421875
L 20.796875 -1.421875
z
M 22.3125 74.21875
Q 30.03125 74.21875 34.609375 68.875
Q 39.203125 63.53125 39.203125 54.390625
Q 39.203125 45.171875 34.640625 39.84375
Q 30.078125 34.515625 22.3125 34.515625
Q 14.546875 34.515625 10.03125 39.859375
Q 5.515625 45.21875 5.515625 54.390625
Q 5.515625 63.484375 10.046875 68.84375
Q 14.59375 74.21875 22.3125 74.21875
z
" id="DejaVuSans-37"/>
      </defs>
      <use xlink:href="#DejaVuSans-48"/>
      <use x="63.623047" xlink:href="#DejaVuSans-37"/>
     </g>
    </g>
    <g id="line2d_22">
     <path d="M 452.810937 130.385938
L 472.810937 130.385938
" style="fill:none;stroke:#ff7f0e;stroke-linecap:square;stroke-width:0.8;"/>
    </g>
    <g id="line2d_23"/>
    <g id="text_13">
     <!-- 10% -->
     <g style="fill:#696969;" transform="translate(480.810937 133.885938)scale(0.1 -0.1)">
      <use xlink:href="#DejaVuSans-49"/>
      <use x="63.623047" xlink:href="#DejaVuSans-48"/>
      <use x="127.246094" xlink:href="#DejaVuSans-37"/>
     </g>
    </g>
    <g id="line2d_24">
     <path d="M 452.810937 145.064063
L 472.810937 145.064063
" style="fill:none;stroke:#2ca02c;stroke-linecap:square;stroke-width:0.8;"/>
    </g>
    <g id="line2d_25"/>
    <g id="text_14">
     <!-- 60% -->
     <g style="fill:#696969;" transform="translate(480.810937 148.564063)scale(0.1 -0.1)">
      <defs>
       <path d="M 33.015625 40.375
Q 26.375 40.375 22.484375 35.828125
Q 18.609375 31.296875 18.609375 23.390625
Q 18.609375 15.53125 22.484375 10.953125
Q 26.375 6.390625 33.015625 6.390625
Q 39.65625 6.390625 43.53125 10.953125
Q 47.40625 15.53125 47.40625 23.390625
Q 47.40625 31.296875 43.53125 35.828125
Q 39.65625 40.375 33.015625 40.375
z
M 52.59375 71.296875
L 52.59375 62.3125
Q 48.875 64.0625 45.09375 64.984375
Q 41.3125 65.921875 37.59375 65.921875
Q 27.828125 65.921875 22.671875 59.328125
Q 17.53125 52.734375 16.796875 39.40625
Q 19.671875 43.65625 24.015625 45.921875
Q 28.375 48.1875 33.59375 48.1875
Q 44.578125 48.1875 50.953125 41.515625
Q 57.328125 34.859375 57.328125 23.390625
Q 57.328125 12.15625 50.6875 5.359375
Q 44.046875 -1.421875 33.015625 -1.421875
Q 20.359375 -1.421875 13.671875 8.265625
Q 6.984375 17.96875 6.984375 36.375
Q 6.984375 53.65625 15.1875 63.9375
Q 23.390625 74.21875 37.203125 74.21875
Q 40.921875 74.21875 44.703125 73.484375
Q 48.484375 72.75 52.59375 71.296875
z
" id="DejaVuSans-54"/>
      </defs>
      <use xlink:href="#DejaVuSans-54"/>
      <use x="63.623047" xlink:href="#DejaVuSans-48"/>
      <use x="127.246094" xlink:href="#DejaVuSans-37"/>
     </g>
    </g>
    <g id="line2d_26">
     <path d="M 452.810937 159.742188
L 472.810937 159.742188
" style="fill:none;stroke:#d62728;stroke-linecap:square;stroke-width:0.8;"/>
    </g>
    <g id="line2d_27"/>
    <g id="text_15">
     <!-- 100% -->
     <g style="fill:#696969;" transform="translate(480.810937 163.242188)scale(0.1 -0.1)">
      <use xlink:href="#DejaVuSans-49"/>
      <use x="63.623047" xlink:href="#DejaVuSans-48"/>
      <use x="127.246094" xlink:href="#DejaVuSans-48"/>
      <use x="190.869141" xlink:href="#DejaVuSans-37"/>
     </g>
    </g>
    <g id="line2d_28">
     <path d="M 452.810937 174.420313
L 472.810937 174.420313
" style="fill:none;stroke:#9467bd;stroke-linecap:square;stroke-width:0.8;"/>
    </g>
    <g id="line2d_29"/>
    <g id="text_16">
     <!-- 200% -->
     <g style="fill:#696969;" transform="translate(480.810937 177.920313)scale(0.1 -0.1)">
      <use xlink:href="#DejaVuSans-50"/>
      <use x="63.623047" xlink:href="#DejaVuSans-48"/>
      <use x="127.246094" xlink:href="#DejaVuSans-48"/>
      <use x="190.869141" xlink:href="#DejaVuSans-37"/>
     </g>
    </g>
   </g>
  </g>
  <g id="text_17">
   <!-- fO3_d -->
   <g style="fill:#696969;" transform="translate(270.538125 13.438125)scale(0.12 -0.12)">
    <use xlink:href="#DejaVuSans-102"/>
    <use x="35.205078" xlink:href="#DejaVuSans-79"/>
    <use x="113.916016" xlink:href="#DejaVuSans-51"/>
    <use x="177.539062" xlink:href="#DejaVuSans-95"/>
    <use x="227.539062" xlink:href="#DejaVuSans-100"/>
   </g>
  </g>
 </g>
 <defs>
  <clipPath id="p0e4227c7d9">
   <rect height="163.08" width="446.4" x="72" y="25.92"/>
  </clipPath>
 </defs>
</svg>
