<?xml version="1.0" encoding="utf-8" standalone="no"?>
<!DOCTYPE svg PUBLIC "-//W3C//DTD SVG 1.1//EN"
  "http://www.w3.org/Graphics/SVG/1.1/DTD/svg11.dtd">
<!-- Created with matplotlib (https://matplotlib.org/) -->
<svg height="216pt" version="1.1" viewBox="0 0 576 216" width="576pt" xmlns="http://www.w3.org/2000/svg" xmlns:xlink="http://www.w3.org/1999/xlink">
 <metadata>
  <rdf:RDF xmlns:cc="http://creativecommons.org/ns#" xmlns:dc="http://purl.org/dc/elements/1.1/" xmlns:rdf="http://www.w3.org/1999/02/22-rdf-syntax-ns#">
   <cc:Work>
    <dc:type rdf:resource="http://purl.org/dc/dcmitype/StillImage"/>
    <dc:date>2020-11-03T11:27:04.042658</dc:date>
    <dc:format>image/svg+xml</dc:format>
    <dc:creator>
     <cc:Agent>
      <dc:title>Matplotlib v3.3.2, https://matplotlib.org/</dc:title>
     </cc:Agent>
    </dc:creator>
   </cc:Work>
  </rdf:RDF>
 </metadata>
 <defs>
  <style type="text/css">*{stroke-linecap:butt;stroke-linejoin:round;}</style>
 </defs>
 <g id="figure_1">
  <g id="patch_1">
   <path d="M 0 216
L 576 216
L 576 0
L 0 0
z
" style="fill:none;"/>
  </g>
  <g id="axes_1">
   <g id="patch_2">
    <path d="M 72 189
L 518.4 189
L 518.4 25.92
L 72 25.92
z
" style="fill:none;"/>
   </g>
   <g id="line2d_1">
    <path clip-path="url(#p39cb4644a1)" d="M 92.290909 181.587273
L 498.109091 181.587273
L 498.109091 181.587273
" style="fill:none;stroke:#1f77b4;stroke-linecap:square;stroke-width:0.8;"/>
   </g>
   <g id="line2d_2">
    <path clip-path="url(#p39cb4644a1)" d="M 92.290909 180.635538
L 93.310041 180.641601
L 93.513867 180.506985
L 95.959783 175.356701
L 96.571262 175.300391
L 98.405698 175.382714
L 99.017177 175.543333
L 99.42483 175.686898
L 99.832483 175.629029
L 100.443961 175.624902
L 101.666919 175.731095
L 103.093703 175.65843
L 103.501356 175.45252
L 103.909009 175.202108
L 104.92814 174.387449
L 105.539619 174.285465
L 105.947272 174.185108
L 107.577882 174.243051
L 107.985535 174.3039
L 109.819972 175.587343
L 110.635277 174.956658
L 112.265887 174.84311
L 112.877366 174.791131
L 113.896498 174.293102
L 114.507977 174.174546
L 114.711803 174.187542
L 115.527108 174.6817
L 117.157719 174.733084
L 118.17685 174.813528
L 118.992156 175.099151
L 119.807461 175.019008
L 122.661029 175.114151
L 123.068682 175.391909
L 123.883987 175.492334
L 124.903119 176.274906
L 125.310771 176.424563
L 127.756687 176.513779
L 128.16434 177.061938
L 128.979645 178.592336
L 130.202603 180.63711
L 130.814082 180.708631
L 132.240866 180.58223
L 132.444692 180.526098
L 132.852345 179.856066
L 134.686781 175.592683
L 135.094434 174.950613
L 135.502087 174.883993
L 137.336523 175.006369
L 137.948002 175.37723
L 138.355655 175.625611
L 138.763308 175.706822
L 144.266618 175.55838
L 145.081923 175.683907
L 147.935492 175.755552
L 150.177581 176.176471
L 152.215844 176.195139
L 153.031149 176.494686
L 153.642628 176.645453
L 154.050281 176.855327
L 154.457933 177.091685
L 157.922981 177.271397
L 158.126807 177.334784
L 159.553591 176.77288
L 161.795681 176.773661
L 162.814812 176.385822
L 163.018638 176.366887
L 164.03777 176.767753
L 164.853075 176.853469
L 166.687512 177.008439
L 167.502817 177.475703
L 167.91047 177.605635
L 174.840564 176.903568
L 176.878827 176.866092
L 178.101785 176.749538
L 181.15918 176.384074
L 181.770659 176.257024
L 182.178311 176.082607
L 182.78979 176.055832
L 184.216575 176.238923
L 190.53519 176.370503
L 191.350495 176.508998
L 192.573453 177.049761
L 193.388759 177.034729
L 193.592585 177.023643
L 194.000237 176.825835
L 196.446153 176.526454
L 197.261458 175.798264
L 197.872937 175.665472
L 198.484416 175.355677
L 198.892069 175.540958
L 202.357116 175.933638
L 203.172421 176.213832
L 203.580074 176.285123
L 206.433642 176.417462
L 207.045121 176.693149
L 207.860426 176.787381
L 210.306342 176.726424
L 211.121647 176.739385
L 211.325474 176.804751
L 211.936953 176.730263
L 212.548432 176.784893
L 213.159911 177.10998
L 216.013479 176.88122
L 216.217305 176.731753
L 217.236437 176.964327
L 217.644089 176.798479
L 218.051742 176.548123
L 221.312963 176.638163
L 221.924442 176.426928
L 222.943573 176.386235
L 223.758879 176.320341
L 231.708105 176.243016
L 234.969326 176.563686
L 236.803762 176.773326
L 237.822894 176.940545
L 240.064983 176.877999
L 240.26881 176.780474
L 242.307073 177.616817
L 243.122378 177.641269
L 244.752988 177.670422
L 244.956815 177.699935
L 245.568294 178.156653
L 246.791252 179.027016
L 247.810383 179.755825
L 250.867778 179.937816
L 253.109867 180.518304
L 264.52414 180.598316
L 265.950925 180.573171
L 268.600667 180.685159
L 270.63893 180.796138
L 273.288672 180.625005
L 275.530761 180.565137
L 280.422593 180.712029
L 288.983298 180.541289
L 290.817734 180.532027
L 293.875129 180.344797
L 296.117218 180.301175
L 298.76696 180.412955
L 301.00905 180.42862
L 308.550623 180.553897
L 312.423323 180.57499
L 315.073065 180.488224
L 319.557244 180.639869
L 328.729428 180.983008
L 331.175344 181.002655
L 335.455696 180.886128
L 348.908233 181.097763
L 357.87659 181.061689
L 361.137811 181.151114
L 365.214337 181.193987
L 418.820657 181.571657
L 498.109091 181.574687
L 498.109091 181.574687
" style="fill:none;stroke:#ff7f0e;stroke-linecap:square;stroke-width:0.8;"/>
   </g>
   <g id="matplotlib.axis_1">
    <g id="xtick_1">
     <g id="line2d_3">
      <defs>
       <path d="M 0 0
L 0 1.5
" id="m6fa638154c" style="stroke:#696969;stroke-width:0.8;"/>
      </defs>
      <g>
       <use style="fill:#696969;stroke:#696969;stroke-width:0.8;" x="92.290909" xlink:href="#m6fa638154c" y="189"/>
      </g>
     </g>
     <g id="text_1">
      <!-- 147 -->
      <g style="fill:#696969;" transform="translate(82.747159 201.598437)scale(0.1 -0.1)">
       <defs>
        <path d="M 12.40625 8.296875
L 28.515625 8.296875
L 28.515625 63.921875
L 10.984375 60.40625
L 10.984375 69.390625
L 28.421875 72.90625
L 38.28125 72.90625
L 38.28125 8.296875
L 54.390625 8.296875
L 54.390625 0
L 12.40625 0
z
" id="DejaVuSans-49"/>
        <path d="M 37.796875 64.3125
L 12.890625 25.390625
L 37.796875 25.390625
z
M 35.203125 72.90625
L 47.609375 72.90625
L 47.609375 25.390625
L 58.015625 25.390625
L 58.015625 17.1875
L 47.609375 17.1875
L 47.609375 0
L 37.796875 0
L 37.796875 17.1875
L 4.890625 17.1875
L 4.890625 26.703125
z
" id="DejaVuSans-52"/>
        <path d="M 8.203125 72.90625
L 55.078125 72.90625
L 55.078125 68.703125
L 28.609375 0
L 18.3125 0
L 43.21875 64.59375
L 8.203125 64.59375
z
" id="DejaVuSans-55"/>
       </defs>
       <use xlink:href="#DejaVuSans-49"/>
       <use x="63.623047" xlink:href="#DejaVuSans-52"/>
       <use x="127.246094" xlink:href="#DejaVuSans-55"/>
      </g>
     </g>
    </g>
    <g id="xtick_2">
     <g id="line2d_4">
      <g>
       <use style="fill:#696969;stroke:#696969;stroke-width:0.8;" x="227.631578" xlink:href="#m6fa638154c" y="189"/>
      </g>
     </g>
     <g id="text_2">
      <!-- 174 -->
      <g style="fill:#696969;" transform="translate(218.087828 201.598437)scale(0.1 -0.1)">
       <use xlink:href="#DejaVuSans-49"/>
       <use x="63.623047" xlink:href="#DejaVuSans-55"/>
       <use x="127.246094" xlink:href="#DejaVuSans-52"/>
      </g>
     </g>
    </g>
    <g id="xtick_3">
     <g id="line2d_5">
      <g>
       <use style="fill:#696969;stroke:#696969;stroke-width:0.8;" x="362.972248" xlink:href="#m6fa638154c" y="189"/>
      </g>
     </g>
     <g id="text_3">
      <!-- 202 -->
      <g style="fill:#696969;" transform="translate(353.428498 201.598437)scale(0.1 -0.1)">
       <defs>
        <path d="M 19.1875 8.296875
L 53.609375 8.296875
L 53.609375 0
L 7.328125 0
L 7.328125 8.296875
Q 12.9375 14.109375 22.625 23.890625
Q 32.328125 33.6875 34.8125 36.53125
Q 39.546875 41.84375 41.421875 45.53125
Q 43.3125 49.21875 43.3125 52.78125
Q 43.3125 58.59375 39.234375 62.25
Q 35.15625 65.921875 28.609375 65.921875
Q 23.96875 65.921875 18.8125 64.3125
Q 13.671875 62.703125 7.8125 59.421875
L 7.8125 69.390625
Q 13.765625 71.78125 18.9375 73
Q 24.125 74.21875 28.421875 74.21875
Q 39.75 74.21875 46.484375 68.546875
Q 53.21875 62.890625 53.21875 53.421875
Q 53.21875 48.921875 51.53125 44.890625
Q 49.859375 40.875 45.40625 35.40625
Q 44.1875 33.984375 37.640625 27.21875
Q 31.109375 20.453125 19.1875 8.296875
z
" id="DejaVuSans-50"/>
        <path d="M 31.78125 66.40625
Q 24.171875 66.40625 20.328125 58.90625
Q 16.5 51.421875 16.5 36.375
Q 16.5 21.390625 20.328125 13.890625
Q 24.171875 6.390625 31.78125 6.390625
Q 39.453125 6.390625 43.28125 13.890625
Q 47.125 21.390625 47.125 36.375
Q 47.125 51.421875 43.28125 58.90625
Q 39.453125 66.40625 31.78125 66.40625
z
M 31.78125 74.21875
Q 44.046875 74.21875 50.515625 64.515625
Q 56.984375 54.828125 56.984375 36.375
Q 56.984375 17.96875 50.515625 8.265625
Q 44.046875 -1.421875 31.78125 -1.421875
Q 19.53125 -1.421875 13.0625 8.265625
Q 6.59375 17.96875 6.59375 36.375
Q 6.59375 54.828125 13.0625 64.515625
Q 19.53125 74.21875 31.78125 74.21875
z
" id="DejaVuSans-48"/>
       </defs>
       <use xlink:href="#DejaVuSans-50"/>
       <use x="63.623047" xlink:href="#DejaVuSans-48"/>
       <use x="127.246094" xlink:href="#DejaVuSans-50"/>
      </g>
     </g>
    </g>
    <g id="xtick_4">
     <g id="line2d_6">
      <g>
       <use style="fill:#696969;stroke:#696969;stroke-width:0.8;" x="498.312917" xlink:href="#m6fa638154c" y="189"/>
      </g>
     </g>
     <g id="text_4">
      <!-- 230 -->
      <g style="fill:#696969;" transform="translate(488.769167 201.598437)scale(0.1 -0.1)">
       <defs>
        <path d="M 40.578125 39.3125
Q 47.65625 37.796875 51.625 33
Q 55.609375 28.21875 55.609375 21.1875
Q 55.609375 10.40625 48.1875 4.484375
Q 40.765625 -1.421875 27.09375 -1.421875
Q 22.515625 -1.421875 17.65625 -0.515625
Q 12.796875 0.390625 7.625 2.203125
L 7.625 11.71875
Q 11.71875 9.328125 16.59375 8.109375
Q 21.484375 6.890625 26.8125 6.890625
Q 36.078125 6.890625 40.9375 10.546875
Q 45.796875 14.203125 45.796875 21.1875
Q 45.796875 27.640625 41.28125 31.265625
Q 36.765625 34.90625 28.71875 34.90625
L 20.21875 34.90625
L 20.21875 43.015625
L 29.109375 43.015625
Q 36.375 43.015625 40.234375 45.921875
Q 44.09375 48.828125 44.09375 54.296875
Q 44.09375 59.90625 40.109375 62.90625
Q 36.140625 65.921875 28.71875 65.921875
Q 24.65625 65.921875 20.015625 65.03125
Q 15.375 64.15625 9.8125 62.3125
L 9.8125 71.09375
Q 15.4375 72.65625 20.34375 73.4375
Q 25.25 74.21875 29.59375 74.21875
Q 40.828125 74.21875 47.359375 69.109375
Q 53.90625 64.015625 53.90625 55.328125
Q 53.90625 49.265625 50.4375 45.09375
Q 46.96875 40.921875 40.578125 39.3125
z
" id="DejaVuSans-51"/>
       </defs>
       <use xlink:href="#DejaVuSans-50"/>
       <use x="63.623047" xlink:href="#DejaVuSans-51"/>
       <use x="127.246094" xlink:href="#DejaVuSans-48"/>
      </g>
     </g>
    </g>
    <g id="text_5">
     <!-- Days -->
     <g style="fill:#696969;" transform="translate(282.721875 215.276563)scale(0.1 -0.1)">
      <defs>
       <path d="M 19.671875 64.796875
L 19.671875 8.109375
L 31.59375 8.109375
Q 46.6875 8.109375 53.6875 14.9375
Q 60.6875 21.78125 60.6875 36.53125
Q 60.6875 51.171875 53.6875 57.984375
Q 46.6875 64.796875 31.59375 64.796875
z
M 9.8125 72.90625
L 30.078125 72.90625
Q 51.265625 72.90625 61.171875 64.09375
Q 71.09375 55.28125 71.09375 36.53125
Q 71.09375 17.671875 61.125 8.828125
Q 51.171875 0 30.078125 0
L 9.8125 0
z
" id="DejaVuSans-68"/>
       <path d="M 34.28125 27.484375
Q 23.390625 27.484375 19.1875 25
Q 14.984375 22.515625 14.984375 16.5
Q 14.984375 11.71875 18.140625 8.90625
Q 21.296875 6.109375 26.703125 6.109375
Q 34.1875 6.109375 38.703125 11.40625
Q 43.21875 16.703125 43.21875 25.484375
L 43.21875 27.484375
z
M 52.203125 31.203125
L 52.203125 0
L 43.21875 0
L 43.21875 8.296875
Q 40.140625 3.328125 35.546875 0.953125
Q 30.953125 -1.421875 24.3125 -1.421875
Q 15.921875 -1.421875 10.953125 3.296875
Q 6 8.015625 6 15.921875
Q 6 25.140625 12.171875 29.828125
Q 18.359375 34.515625 30.609375 34.515625
L 43.21875 34.515625
L 43.21875 35.40625
Q 43.21875 41.609375 39.140625 45
Q 35.0625 48.390625 27.6875 48.390625
Q 23 48.390625 18.546875 47.265625
Q 14.109375 46.140625 10.015625 43.890625
L 10.015625 52.203125
Q 14.9375 54.109375 19.578125 55.046875
Q 24.21875 56 28.609375 56
Q 40.484375 56 46.34375 49.84375
Q 52.203125 43.703125 52.203125 31.203125
z
" id="DejaVuSans-97"/>
       <path d="M 32.171875 -5.078125
Q 28.375 -14.84375 24.75 -17.8125
Q 21.140625 -20.796875 15.09375 -20.796875
L 7.90625 -20.796875
L 7.90625 -13.28125
L 13.1875 -13.28125
Q 16.890625 -13.28125 18.9375 -11.515625
Q 21 -9.765625 23.484375 -3.21875
L 25.09375 0.875
L 2.984375 54.6875
L 12.5 54.6875
L 29.59375 11.921875
L 46.6875 54.6875
L 56.203125 54.6875
z
" id="DejaVuSans-121"/>
       <path d="M 44.28125 53.078125
L 44.28125 44.578125
Q 40.484375 46.53125 36.375 47.5
Q 32.28125 48.484375 27.875 48.484375
Q 21.1875 48.484375 17.84375 46.4375
Q 14.5 44.390625 14.5 40.28125
Q 14.5 37.15625 16.890625 35.375
Q 19.28125 33.59375 26.515625 31.984375
L 29.59375 31.296875
Q 39.15625 29.25 43.1875 25.515625
Q 47.21875 21.78125 47.21875 15.09375
Q 47.21875 7.46875 41.1875 3.015625
Q 35.15625 -1.421875 24.609375 -1.421875
Q 20.21875 -1.421875 15.453125 -0.5625
Q 10.6875 0.296875 5.421875 2
L 5.421875 11.28125
Q 10.40625 8.6875 15.234375 7.390625
Q 20.0625 6.109375 24.8125 6.109375
Q 31.15625 6.109375 34.5625 8.28125
Q 37.984375 10.453125 37.984375 14.40625
Q 37.984375 18.0625 35.515625 20.015625
Q 33.0625 21.96875 24.703125 23.78125
L 21.578125 24.515625
Q 13.234375 26.265625 9.515625 29.90625
Q 5.8125 33.546875 5.8125 39.890625
Q 5.8125 47.609375 11.28125 51.796875
Q 16.75 56 26.8125 56
Q 31.78125 56 36.171875 55.265625
Q 40.578125 54.546875 44.28125 53.078125
z
" id="DejaVuSans-115"/>
      </defs>
      <use xlink:href="#DejaVuSans-68"/>
      <use x="77.001953" xlink:href="#DejaVuSans-97"/>
      <use x="138.28125" xlink:href="#DejaVuSans-121"/>
      <use x="197.460938" xlink:href="#DejaVuSans-115"/>
     </g>
    </g>
   </g>
   <g id="matplotlib.axis_2">
    <g id="ytick_1">
     <g id="line2d_7">
      <path clip-path="url(#p39cb4644a1)" d="M 72 181.587273
L 518.4 181.587273
" style="fill:none;stroke:#b0b0b0;stroke-linecap:square;stroke-width:0.8;"/>
     </g>
     <g id="line2d_8">
      <defs>
       <path d="M 0 0
L -1 0
" id="md2c1e50a9e" style="stroke:#696969;stroke-width:0.2;"/>
      </defs>
      <g>
       <use style="fill:#696969;stroke:#696969;stroke-width:0.2;" x="72" xlink:href="#md2c1e50a9e" y="181.587273"/>
      </g>
     </g>
     <g id="text_6">
      <!-- 0 -->
      <g style="fill:#696969;" transform="translate(61.1375 185.386491)scale(0.1 -0.1)">
       <use xlink:href="#DejaVuSans-48"/>
      </g>
     </g>
    </g>
    <g id="ytick_2">
     <g id="line2d_9">
      <path clip-path="url(#p39cb4644a1)" d="M 72 143.053677
L 518.4 143.053677
" style="fill:none;stroke:#b0b0b0;stroke-linecap:square;stroke-width:0.8;"/>
     </g>
     <g id="line2d_10">
      <g>
       <use style="fill:#696969;stroke:#696969;stroke-width:0.2;" x="72" xlink:href="#md2c1e50a9e" y="143.053677"/>
      </g>
     </g>
     <g id="text_7">
      <!-- 5 -->
      <g style="fill:#696969;" transform="translate(61.1375 146.852896)scale(0.1 -0.1)">
       <defs>
        <path d="M 10.796875 72.90625
L 49.515625 72.90625
L 49.515625 64.59375
L 19.828125 64.59375
L 19.828125 46.734375
Q 21.96875 47.46875 24.109375 47.828125
Q 26.265625 48.1875 28.421875 48.1875
Q 40.625 48.1875 47.75 41.5
Q 54.890625 34.8125 54.890625 23.390625
Q 54.890625 11.625 47.5625 5.09375
Q 40.234375 -1.421875 26.90625 -1.421875
Q 22.3125 -1.421875 17.546875 -0.640625
Q 12.796875 0.140625 7.71875 1.703125
L 7.71875 11.625
Q 12.109375 9.234375 16.796875 8.0625
Q 21.484375 6.890625 26.703125 6.890625
Q 35.15625 6.890625 40.078125 11.328125
Q 45.015625 15.765625 45.015625 23.390625
Q 45.015625 31 40.078125 35.4375
Q 35.15625 39.890625 26.703125 39.890625
Q 22.75 39.890625 18.8125 39.015625
Q 14.890625 38.140625 10.796875 36.28125
z
" id="DejaVuSans-53"/>
       </defs>
       <use xlink:href="#DejaVuSans-53"/>
      </g>
     </g>
    </g>
    <g id="ytick_3">
     <g id="line2d_11">
      <path clip-path="url(#p39cb4644a1)" d="M 72 104.520082
L 518.4 104.520082
" style="fill:none;stroke:#b0b0b0;stroke-linecap:square;stroke-width:0.8;"/>
     </g>
     <g id="line2d_12">
      <g>
       <use style="fill:#696969;stroke:#696969;stroke-width:0.2;" x="72" xlink:href="#md2c1e50a9e" y="104.520082"/>
      </g>
     </g>
     <g id="text_8">
      <!-- 10 -->
      <g style="fill:#696969;" transform="translate(54.775 108.319301)scale(0.1 -0.1)">
       <use xlink:href="#DejaVuSans-49"/>
       <use x="63.623047" xlink:href="#DejaVuSans-48"/>
      </g>
     </g>
    </g>
    <g id="ytick_4">
     <g id="line2d_13">
      <path clip-path="url(#p39cb4644a1)" d="M 72 65.986487
L 518.4 65.986487
" style="fill:none;stroke:#b0b0b0;stroke-linecap:square;stroke-width:0.8;"/>
     </g>
     <g id="line2d_14">
      <g>
       <use style="fill:#696969;stroke:#696969;stroke-width:0.2;" x="72" xlink:href="#md2c1e50a9e" y="65.986487"/>
      </g>
     </g>
     <g id="text_9">
      <!-- 15 -->
      <g style="fill:#696969;" transform="translate(54.775 69.785705)scale(0.1 -0.1)">
       <use xlink:href="#DejaVuSans-49"/>
       <use x="63.623047" xlink:href="#DejaVuSans-53"/>
      </g>
     </g>
    </g>
    <g id="ytick_5">
     <g id="line2d_15">
      <path clip-path="url(#p39cb4644a1)" d="M 72 27.452891
L 518.4 27.452891
" style="fill:none;stroke:#b0b0b0;stroke-linecap:square;stroke-width:0.8;"/>
     </g>
     <g id="line2d_16">
      <g>
       <use style="fill:#696969;stroke:#696969;stroke-width:0.2;" x="72" xlink:href="#md2c1e50a9e" y="27.452891"/>
      </g>
     </g>
     <g id="text_10">
      <!-- 20 -->
      <g style="fill:#696969;" transform="translate(54.775 31.25211)scale(0.1 -0.1)">
       <use xlink:href="#DejaVuSans-50"/>
       <use x="63.623047" xlink:href="#DejaVuSans-48"/>
      </g>
     </g>
    </g>
    <g id="text_11">
     <!-- Fst (nmol/m^2/s) -->
     <g style="fill:#696969;" transform="translate(48.695312 151.093594)rotate(-90)scale(0.1 -0.1)">
      <defs>
       <path d="M 9.8125 72.90625
L 51.703125 72.90625
L 51.703125 64.59375
L 19.671875 64.59375
L 19.671875 43.109375
L 48.578125 43.109375
L 48.578125 34.8125
L 19.671875 34.8125
L 19.671875 0
L 9.8125 0
z
" id="DejaVuSans-70"/>
       <path d="M 18.3125 70.21875
L 18.3125 54.6875
L 36.8125 54.6875
L 36.8125 47.703125
L 18.3125 47.703125
L 18.3125 18.015625
Q 18.3125 11.328125 20.140625 9.421875
Q 21.96875 7.515625 27.59375 7.515625
L 36.8125 7.515625
L 36.8125 0
L 27.59375 0
Q 17.1875 0 13.234375 3.875
Q 9.28125 7.765625 9.28125 18.015625
L 9.28125 47.703125
L 2.6875 47.703125
L 2.6875 54.6875
L 9.28125 54.6875
L 9.28125 70.21875
z
" id="DejaVuSans-116"/>
       <path id="DejaVuSans-32"/>
       <path d="M 31 75.875
Q 24.46875 64.65625 21.28125 53.65625
Q 18.109375 42.671875 18.109375 31.390625
Q 18.109375 20.125 21.3125 9.0625
Q 24.515625 -2 31 -13.1875
L 23.1875 -13.1875
Q 15.875 -1.703125 12.234375 9.375
Q 8.59375 20.453125 8.59375 31.390625
Q 8.59375 42.28125 12.203125 53.3125
Q 15.828125 64.359375 23.1875 75.875
z
" id="DejaVuSans-40"/>
       <path d="M 54.890625 33.015625
L 54.890625 0
L 45.90625 0
L 45.90625 32.71875
Q 45.90625 40.484375 42.875 44.328125
Q 39.84375 48.1875 33.796875 48.1875
Q 26.515625 48.1875 22.3125 43.546875
Q 18.109375 38.921875 18.109375 30.90625
L 18.109375 0
L 9.078125 0
L 9.078125 54.6875
L 18.109375 54.6875
L 18.109375 46.1875
Q 21.34375 51.125 25.703125 53.5625
Q 30.078125 56 35.796875 56
Q 45.21875 56 50.046875 50.171875
Q 54.890625 44.34375 54.890625 33.015625
z
" id="DejaVuSans-110"/>
       <path d="M 52 44.1875
Q 55.375 50.25 60.0625 53.125
Q 64.75 56 71.09375 56
Q 79.640625 56 84.28125 50.015625
Q 88.921875 44.046875 88.921875 33.015625
L 88.921875 0
L 79.890625 0
L 79.890625 32.71875
Q 79.890625 40.578125 77.09375 44.375
Q 74.3125 48.1875 68.609375 48.1875
Q 61.625 48.1875 57.5625 43.546875
Q 53.515625 38.921875 53.515625 30.90625
L 53.515625 0
L 44.484375 0
L 44.484375 32.71875
Q 44.484375 40.625 41.703125 44.40625
Q 38.921875 48.1875 33.109375 48.1875
Q 26.21875 48.1875 22.15625 43.53125
Q 18.109375 38.875 18.109375 30.90625
L 18.109375 0
L 9.078125 0
L 9.078125 54.6875
L 18.109375 54.6875
L 18.109375 46.1875
Q 21.1875 51.21875 25.484375 53.609375
Q 29.78125 56 35.6875 56
Q 41.65625 56 45.828125 52.96875
Q 50 49.953125 52 44.1875
z
" id="DejaVuSans-109"/>
       <path d="M 30.609375 48.390625
Q 23.390625 48.390625 19.1875 42.75
Q 14.984375 37.109375 14.984375 27.296875
Q 14.984375 17.484375 19.15625 11.84375
Q 23.34375 6.203125 30.609375 6.203125
Q 37.796875 6.203125 41.984375 11.859375
Q 46.1875 17.53125 46.1875 27.296875
Q 46.1875 37.015625 41.984375 42.703125
Q 37.796875 48.390625 30.609375 48.390625
z
M 30.609375 56
Q 42.328125 56 49.015625 48.375
Q 55.71875 40.765625 55.71875 27.296875
Q 55.71875 13.875 49.015625 6.21875
Q 42.328125 -1.421875 30.609375 -1.421875
Q 18.84375 -1.421875 12.171875 6.21875
Q 5.515625 13.875 5.515625 27.296875
Q 5.515625 40.765625 12.171875 48.375
Q 18.84375 56 30.609375 56
z
" id="DejaVuSans-111"/>
       <path d="M 9.421875 75.984375
L 18.40625 75.984375
L 18.40625 0
L 9.421875 0
z
" id="DejaVuSans-108"/>
       <path d="M 25.390625 72.90625
L 33.6875 72.90625
L 8.296875 -9.28125
L 0 -9.28125
z
" id="DejaVuSans-47"/>
       <path d="M 46.6875 72.90625
L 73.1875 45.703125
L 63.375 45.703125
L 41.890625 64.984375
L 20.40625 45.703125
L 10.59375 45.703125
L 37.109375 72.90625
z
" id="DejaVuSans-94"/>
       <path d="M 8.015625 75.875
L 15.828125 75.875
Q 23.140625 64.359375 26.78125 53.3125
Q 30.421875 42.28125 30.421875 31.390625
Q 30.421875 20.453125 26.78125 9.375
Q 23.140625 -1.703125 15.828125 -13.1875
L 8.015625 -13.1875
Q 14.5 -2 17.703125 9.0625
Q 20.90625 20.125 20.90625 31.390625
Q 20.90625 42.671875 17.703125 53.65625
Q 14.5 64.65625 8.015625 75.875
z
" id="DejaVuSans-41"/>
      </defs>
      <use xlink:href="#DejaVuSans-70"/>
      <use x="57.519531" xlink:href="#DejaVuSans-115"/>
      <use x="109.619141" xlink:href="#DejaVuSans-116"/>
      <use x="148.828125" xlink:href="#DejaVuSans-32"/>
      <use x="180.615234" xlink:href="#DejaVuSans-40"/>
      <use x="219.628906" xlink:href="#DejaVuSans-110"/>
      <use x="283.007812" xlink:href="#DejaVuSans-109"/>
      <use x="380.419922" xlink:href="#DejaVuSans-111"/>
      <use x="441.601562" xlink:href="#DejaVuSans-108"/>
      <use x="469.384766" xlink:href="#DejaVuSans-47"/>
      <use x="503.076172" xlink:href="#DejaVuSans-109"/>
      <use x="600.488281" xlink:href="#DejaVuSans-94"/>
      <use x="684.277344" xlink:href="#DejaVuSans-50"/>
      <use x="747.900391" xlink:href="#DejaVuSans-47"/>
      <use x="781.591797" xlink:href="#DejaVuSans-115"/>
      <use x="833.691406" xlink:href="#DejaVuSans-41"/>
     </g>
    </g>
   </g>
   <g id="line2d_17">
    <path clip-path="url(#p39cb4644a1)" d="M 92.290909 175.876862
L 93.310041 175.913242
L 93.513867 175.105544
L 95.959783 144.203841
L 96.163609 143.928722
L 96.978914 143.881214
L 98.201872 144.034654
L 98.405698 144.359921
L 98.609525 144.92571
L 98.813351 144.939623
L 99.42483 146.185024
L 99.628656 145.769056
L 99.832483 145.83781
L 100.240135 145.634766
L 101.259267 146.380041
L 102.074572 146.467377
L 102.686051 146.301702
L 103.093703 146.014215
L 103.29753 145.042374
L 103.705182 144.348497
L 104.92814 138.388331
L 105.131967 138.342833
L 105.947272 137.174285
L 106.558751 137.156497
L 107.374056 137.395
L 107.985535 137.887034
L 108.393188 139.453386
L 108.80084 140.943587
L 109.616145 145.171555
L 109.819972 145.587694
L 110.635277 141.803586
L 111.04293 141.567423
L 112.877366 140.810421
L 113.488845 138.970223
L 114.100324 137.46545
L 114.30415 137.168297
L 114.507977 137.11091
L 114.711803 137.188885
L 115.527108 140.153837
L 115.934761 140.315901
L 117.157719 140.462143
L 117.973024 140.608136
L 118.380677 141.450195
L 118.788329 142.469648
L 118.992156 142.658543
L 119.399808 142.23423
L 119.807461 142.177685
L 120.826592 142.287464
L 122.253377 142.503389
L 122.661029 142.748542
L 123.068682 144.415093
L 123.272508 144.598169
L 123.680161 144.705261
L 123.883987 145.017642
L 124.699292 148.980124
L 125.106945 150.304403
L 125.310771 150.611017
L 125.718424 150.683445
L 126.533729 150.783877
L 127.756687 151.14631
L 127.960513 152.382094
L 128.979645 163.617649
L 129.998776 174.312798
L 130.202603 175.886299
L 130.406429 176.26158
L 130.814082 176.31542
L 131.42556 176.106019
L 132.240866 175.557019
L 132.444692 175.220225
L 132.648518 173.7295
L 133.259997 165.171467
L 134.279129 151.153255
L 134.890608 143.350396
L 135.094434 141.767317
L 135.29826 141.352422
L 136.113566 141.48646
L 137.132697 141.921349
L 137.336523 142.101848
L 137.744176 143.523833
L 138.355655 145.8173
L 138.559481 146.275506
L 139.17096 146.30926
L 139.374787 146.277939
L 139.782439 146.427142
L 139.986265 146.175767
L 140.597744 146.059802
L 142.432181 145.870929
L 143.451313 144.712589
L 143.655139 144.758188
L 145.081923 146.167077
L 146.91636 146.145547
L 147.120186 146.177996
L 147.324013 146.601948
L 147.527839 146.316645
L 147.731665 146.235414
L 149.362276 148.97302
L 149.566102 149.222587
L 150.381407 149.072769
L 151.604365 148.899358
L 152.012018 149.044669
L 152.215844 149.234468
L 152.827323 150.86407
L 153.438802 151.50377
L 153.846454 152.338666
L 154.457933 154.613749
L 156.29237 154.765016
L 156.903849 154.626917
L 157.107675 154.527806
L 157.515328 154.994396
L 157.719154 155.183084
L 158.126807 156.072338
L 158.738286 154.472757
L 159.145939 153.033915
L 159.349765 152.544063
L 159.757417 152.728458
L 161.388028 152.859112
L 161.795681 152.705605
L 162.610986 150.708248
L 162.814812 150.378567
L 163.018638 150.264956
L 163.833944 152.40256
L 164.445423 153.073504
L 165.056902 153.216697
L 166.076033 153.549195
L 166.483686 153.807397
L 166.687512 154.11427
L 167.298991 156.450796
L 167.91047 157.697448
L 169.948733 156.434605
L 171.171691 155.997996
L 171.579343 155.731868
L 171.986996 155.149683
L 172.598475 154.148985
L 173.006128 153.918409
L 173.209954 154.041058
L 173.41378 153.963038
L 173.821433 153.407907
L 174.025259 153.257186
L 175.859696 153.688758
L 176.471175 153.638151
L 176.675001 153.272645
L 177.28648 153.132268
L 177.694133 152.745826
L 177.897959 152.768472
L 178.305612 152.373057
L 178.509438 152.326521
L 178.917091 151.834007
L 179.324743 151.242905
L 181.363006 150.282934
L 181.566833 150.315096
L 182.178311 148.559278
L 182.382138 148.360584
L 182.78979 148.398628
L 183.808922 149.472624
L 186.254838 149.537838
L 186.458664 149.490898
L 186.866317 149.868124
L 187.681622 149.508194
L 188.293101 149.120701
L 188.496927 149.112998
L 188.700753 149.218916
L 189.108406 149.680319
L 190.331364 150.190337
L 191.146669 150.660964
L 191.554322 151.733432
L 192.165801 154.287299
L 192.369627 154.700904
L 192.77728 154.189391
L 192.981106 154.006727
L 193.184932 153.986019
L 193.388759 154.272012
L 193.592585 154.205495
L 194.000237 153.018646
L 194.611716 152.814445
L 195.834674 152.517635
L 196.038501 152.375554
L 196.446153 151.222359
L 197.261458 146.853221
L 197.465285 146.732432
L 198.076764 145.477947
L 198.484416 144.197698
L 198.892069 145.309385
L 199.707374 145.655816
L 200.930332 145.897998
L 201.134158 146.266388
L 201.541811 146.580016
L 201.949463 147.082409
L 202.357116 147.665465
L 202.764769 148.266665
L 203.376248 149.77819
L 206.02599 149.737258
L 206.229816 149.959126
L 207.045121 152.222532
L 207.452774 152.650545
L 207.860426 152.787924
L 208.268079 152.807776
L 208.675732 152.696784
L 209.694863 152.600985
L 210.510168 152.349373
L 210.713995 152.227133
L 210.917821 151.970836
L 211.325474 152.89214
L 211.733126 152.37821
L 212.344605 152.652462
L 212.548432 152.772993
L 213.159911 154.723517
L 213.975216 154.57429
L 215.402 154.51126
L 215.605826 154.524876
L 215.809653 154.135889
L 216.217305 152.454152
L 216.624958 153.475495
L 216.828784 154.072535
L 217.03261 154.028271
L 217.440263 153.657216
L 218.051742 151.352376
L 218.663221 151.373009
L 219.682352 151.52116
L 220.497658 151.771541
L 220.701484 152.304059
L 221.109137 152.315817
L 221.516789 151.223516
L 221.720615 150.560437
L 222.332094 150.668336
L 223.758879 149.985684
L 226.000968 149.728396
L 226.204794 149.816993
L 226.816273 149.370847
L 227.835405 149.246277
L 228.243057 148.989956
L 230.28132 148.758364
L 231.300452 149.177928
L 232.727236 150.646347
L 233.134889 151.125951
L 234.15402 151.319845
L 235.173152 151.518248
L 235.376978 151.572592
L 235.784631 152.366316
L 236.599936 152.940286
L 237.007589 153.552256
L 237.415241 154.146525
L 238.02672 154.354248
L 238.842025 154.377798
L 239.861157 154.08793
L 240.064983 153.964848
L 240.26881 153.579429
L 240.880289 155.557279
L 241.491767 158.077453
L 242.714725 160.938249
L 243.122378 160.730412
L 243.733857 160.661046
L 244.549162 160.817527
L 244.956815 161.082408
L 245.364467 162.721091
L 246.587425 166.873439
L 247.810383 171.495047
L 249.033341 171.616458
L 250.052472 171.402644
L 250.663951 172.057061
L 251.683083 173.587283
L 252.702215 175.130973
L 254.332825 175.387441
L 256.167262 175.871519
L 257.39022 175.940718
L 258.613177 176.029299
L 259.428483 176.308121
L 260.039962 176.489612
L 262.89353 176.341683
L 263.912662 175.988557
L 264.931793 175.558704
L 266.970056 175.598554
L 268.193014 175.963179
L 270.231277 176.825644
L 270.842756 176.810751
L 271.454235 176.602052
L 273.084845 175.877441
L 274.919282 175.333277
L 275.938414 175.584779
L 276.957545 176.078146
L 277.772851 176.333065
L 279.199635 176.468525
L 282.868508 176.009332
L 284.295292 175.617071
L 285.110598 175.437509
L 288.779471 175.27183
L 289.798603 175.35893
L 291.429213 175.149057
L 292.855997 174.623714
L 294.486608 173.955167
L 296.117218 173.870688
L 297.13635 173.946133
L 298.155481 174.29269
L 299.174613 174.627395
L 301.824355 174.625222
L 303.454966 174.719662
L 306.308534 174.88502
L 309.162102 175.553871
L 310.181234 175.858474
L 310.996539 175.94351
L 312.219497 175.598671
L 313.850107 174.999313
L 314.869239 174.978564
L 316.296023 175.156152
L 318.334286 175.651249
L 319.557244 175.902852
L 321.799333 176.358608
L 323.022291 176.612249
L 324.245249 176.675034
L 325.264381 176.730312
L 326.079686 177.04761
L 327.098817 177.446064
L 329.544733 178.18804
L 330.360038 178.285722
L 331.175344 178.079569
L 332.805954 177.657844
L 335.455696 177.380404
L 337.493959 177.600292
L 338.920743 177.545531
L 340.347528 177.731731
L 345.035533 178.450858
L 346.25849 178.40993
L 349.315885 178.673976
L 350.538843 178.653819
L 351.965627 178.479875
L 359.507201 178.562417
L 362.768422 179.174762
L 367.048774 179.408104
L 368.679385 179.579044
L 369.902342 179.573092
L 373.163563 179.400622
L 375.201826 179.588305
L 376.628611 179.814754
L 378.8707 180.052233
L 381.724268 180.381798
L 384.577837 180.574336
L 390.4888 180.730727
L 397.418894 181.036674
L 401.49542 181.337253
L 412.909694 181.505952
L 498.109091 181.511757
L 498.109091 181.511757
" style="fill:none;stroke:#2ca02c;stroke-linecap:square;stroke-width:0.8;"/>
   </g>
   <g id="patch_3">
    <path d="M 72 189
L 72 25.92
" style="fill:none;"/>
   </g>
   <g id="patch_4">
    <path d="M 518.4 189
L 518.4 25.92
" style="fill:none;"/>
   </g>
   <g id="patch_5">
    <path d="M 72 189
L 518.4 189
" style="fill:none;"/>
   </g>
   <g id="patch_6">
    <path d="M 72 25.92
L 518.4 25.92
" style="fill:none;"/>
   </g>
   <g id="line2d_18">
    <path clip-path="url(#p39cb4644a1)" d="M 92.290909 172.069921
L 93.106214 172.256192
L 93.310041 172.130554
L 93.513867 170.784392
L 95.959783 119.281553
L 96.163609 118.823022
L 96.775088 118.724602
L 97.998046 118.908094
L 98.201872 118.999575
L 98.405698 119.541687
L 98.609525 120.484668
L 98.813351 120.507857
L 99.42483 122.583525
L 99.628656 121.890244
L 99.832483 122.004835
L 100.240135 121.666429
L 101.05544 122.795991
L 101.666919 123.0255
L 102.278398 123.007283
L 102.889877 122.59767
L 103.093703 122.298843
L 103.29753 120.679108
L 103.501356 120.239745
L 103.705182 119.522647
L 104.92814 109.589037
L 105.131967 109.513206
L 105.947272 107.565626
L 106.558751 107.53598
L 107.17023 107.775911
L 107.577882 108.145058
L 107.985535 108.753541
L 108.393188 111.364128
L 108.80084 113.847797
L 109.616145 120.894408
L 109.819972 121.587973
L 110.635277 115.281127
L 111.04293 114.887522
L 112.877366 113.625852
L 113.488845 110.558855
L 114.100324 108.0509
L 114.30415 107.555645
L 114.507977 107.460002
L 114.711803 107.589961
L 115.527108 112.531547
L 115.934761 112.801654
L 116.750066 112.992755
L 117.769198 113.074811
L 117.973024 113.288712
L 118.380677 114.692143
L 118.788329 116.391232
L 118.992156 116.706056
L 119.399808 115.998868
L 119.603635 115.874595
L 121.845724 116.308265
L 122.457203 116.565212
L 122.661029 116.856054
L 123.068682 119.633639
L 123.272508 119.938767
L 123.680161 120.117253
L 123.883987 120.637888
L 124.699292 127.242025
L 125.106945 129.449156
L 125.310771 129.960179
L 125.718424 130.080893
L 126.126076 130.141709
L 127.145208 130.463141
L 127.552861 130.516039
L 127.756687 130.852334
L 127.960513 132.911974
L 128.979645 151.637901
L 129.998776 169.463149
L 130.202603 172.085649
L 130.406429 172.711118
L 130.814082 172.800851
L 131.221734 172.597754
L 131.629387 172.216836
L 132.240866 171.53685
L 132.444692 170.975526
L 132.648518 168.490985
L 133.259997 154.227596
L 134.279129 130.86391
L 134.890608 117.859144
L 135.094434 115.22068
L 135.29826 114.529188
L 135.909739 114.669098
L 136.521218 115.02212
L 137.132697 115.477399
L 137.336523 115.778232
L 137.744176 118.148207
L 138.355655 121.970652
L 138.559481 122.734328
L 138.763308 122.782766
L 138.967134 122.706602
L 139.17096 122.790585
L 139.374787 122.738383
L 139.578613 122.942403
L 139.782439 122.987056
L 139.986265 122.568097
L 140.393918 122.403254
L 141.616876 122.340932
L 142.228355 122.261459
L 142.432181 122.060033
L 143.451313 120.129466
L 143.655139 120.205465
L 145.081923 122.553614
L 146.304881 122.504263
L 147.120186 122.571811
L 147.324013 123.278399
L 147.527839 122.802893
L 147.731665 122.667508
L 149.362276 127.230185
L 149.566102 127.646129
L 150.177581 127.479255
L 151.196712 127.145718
L 151.808191 127.155157
L 152.215844 127.665931
L 152.827323 130.381934
L 153.234976 130.869905
L 153.846454 132.839596
L 154.457933 136.6314
L 156.088544 136.884908
L 156.700023 136.798099
L 157.107675 136.488162
L 157.515328 137.265811
L 157.719154 137.580291
L 158.126807 139.062382
L 158.738286 136.396413
L 159.145939 133.998343
L 159.349765 133.181923
L 159.553591 133.443343
L 161.184202 133.72472
L 161.591854 133.668974
L 161.795681 133.451159
L 162.610986 130.122232
L 162.814812 129.572763
L 163.018638 129.383411
L 163.833944 132.946085
L 164.445423 134.064324
L 164.853075 134.249239
L 165.66838 134.55957
L 166.279859 135.04517
L 166.483686 135.28748
L 166.687512 135.798935
L 167.298991 139.693144
L 167.91047 141.770898
L 168.114296 141.539856
L 168.521949 140.873886
L 169.133428 140.379861
L 169.54108 139.858245
L 170.967864 139.082906
L 171.375517 138.767949
L 171.78317 138.100668
L 172.598475 135.856793
L 173.006128 135.4725
L 173.209954 135.676914
L 173.41378 135.546882
L 173.821433 134.621664
L 174.025259 134.370461
L 175.65587 135.045391
L 176.267349 135.10819
L 176.471175 135.005403
L 176.675001 134.396227
L 177.082654 134.336207
L 177.490306 133.877189
L 177.694133 133.518194
L 177.897959 133.555938
L 178.305612 132.896914
L 178.509438 132.819353
L 178.917091 131.998497
L 179.324743 131.013326
L 181.15918 129.555288
L 181.363006 129.413375
L 181.566833 129.466977
L 182.178311 126.540614
L 182.382138 126.209457
L 182.78979 126.272866
L 183.605096 127.813497
L 183.808922 128.062859
L 184.828054 128.082787
L 186.051011 128.122743
L 186.254838 128.171548
L 186.458664 128.093315
L 186.866317 128.722024
L 187.477796 128.380494
L 188.293101 127.476321
L 188.496927 127.463482
L 188.700753 127.640012
L 188.90458 128.182942
L 189.312232 128.52351
L 190.739016 129.587427
L 191.146669 130.043426
L 191.554322 131.830872
L 192.165801 136.087316
L 192.369627 136.776659
L 192.77728 135.924136
L 192.981106 135.619696
L 193.184932 135.585183
L 193.388759 136.061838
L 193.592585 135.950976
L 194.000237 133.972896
L 194.40789 133.70322
L 195.834674 133.137876
L 196.038501 132.901076
L 196.446153 130.979083
L 197.261458 123.697187
L 197.465285 123.495872
L 198.076764 121.405063
L 198.484416 119.271314
L 198.892069 121.124126
L 199.707374 121.701512
L 200.930332 122.105148
L 201.134158 122.719132
L 201.541811 123.241844
L 201.745637 123.55439
L 202.968595 126.970789
L 203.376248 128.572135
L 204.599206 128.444929
L 205.618337 128.362625
L 206.02599 128.503916
L 206.229816 128.873695
L 207.045121 132.646038
L 207.452774 133.359393
L 207.860426 133.588358
L 208.268079 133.621445
L 208.675732 133.436458
L 209.491037 133.347058
L 210.306342 132.978784
L 210.713995 132.653707
L 210.917821 132.226545
L 211.325474 133.762051
L 211.733126 132.905502
L 212.344605 133.362588
L 212.548432 133.563473
L 213.159911 136.814347
L 213.771389 136.590402
L 215.402 136.460586
L 215.605826 136.483279
L 215.809653 135.834967
L 216.217305 133.032071
L 216.624958 134.73431
L 216.828784 135.729376
L 217.03261 135.655603
L 217.440263 135.037178
L 218.051742 131.195778
L 218.459395 131.243043
L 219.070873 131.277521
L 219.886179 131.562311
L 220.497658 131.894386
L 220.701484 132.781917
L 221.109137 132.801514
L 221.312963 132.096176
L 221.720615 129.87588
L 222.128268 130.036174
L 222.332094 130.055712
L 222.943573 129.576892
L 223.1474 129.165484
L 223.555052 128.97862
L 224.77801 128.710642
L 226.000968 128.489145
L 226.204794 128.636807
L 226.816273 127.893231
L 227.835405 127.685613
L 228.243057 127.258412
L 229.466015 127.054431
L 230.688973 126.96579
L 230.892799 127.216725
L 231.096626 127.180211
L 231.708105 128.144705
L 232.319584 129.049135
L 233.134889 130.818405
L 233.950194 131.103055
L 234.969326 131.351411
L 235.376978 131.562807
L 235.988457 133.970755
L 237.007589 137.388927
L 237.415241 139.042508
L 238.02672 139.388714
L 238.638199 139.465313
L 239.249678 139.280623
L 239.861157 138.944851
L 240.064983 138.739715
L 240.26881 138.288618
L 240.880289 141.267277
L 241.491767 145.05746
L 242.714725 149.876324
L 243.122378 149.52993
L 243.733857 149.414319
L 244.345336 149.557283
L 244.752988 149.821457
L 244.956815 150.116588
L 245.364467 152.543191
L 246.587425 158.633794
L 247.810383 165.605926
L 248.829515 165.823943
L 249.237167 165.749413
L 250.052472 165.426795
L 250.460125 165.995221
L 251.27543 167.660234
L 252.702215 170.826774
L 254.128999 171.155477
L 256.167262 172.061017
L 256.982567 172.171225
L 258.613177 172.323983
L 259.224656 172.623749
L 259.836135 173.096043
L 262.485877 172.932909
L 263.097356 172.758491
L 263.912662 172.25608
L 264.931793 171.539659
L 266.562404 171.513163
L 267.581535 171.816508
L 268.39684 172.374144
L 269.619798 173.526154
L 270.63893 173.675929
L 271.250409 173.435731
L 274.103977 171.36559
L 274.51163 171.176239
L 275.123109 171.211708
L 275.734587 171.473378
L 276.346066 171.867547
L 277.569024 172.768603
L 278.791982 173.056599
L 279.607287 173.031791
L 280.218766 172.913823
L 281.237898 172.605683
L 283.683814 171.957936
L 285.314424 171.315538
L 286.945034 171.237915
L 288.779471 171.061535
L 289.594776 171.228248
L 291.021561 170.981572
L 291.836866 170.65101
L 292.855997 169.981342
L 294.282782 168.929796
L 295.098087 168.781091
L 296.321045 168.729638
L 297.340176 168.936729
L 298.970787 169.954048
L 299.786092 169.981232
L 302.435834 169.948168
L 303.047313 170.099301
L 305.085576 170.280457
L 305.900881 170.325619
L 306.920013 170.627817
L 308.75445 171.320628
L 310.588886 172.151193
L 310.996539 172.181001
L 312.015671 171.72682
L 312.830976 171.159617
L 313.442455 170.740223
L 314.25776 170.531891
L 315.684544 170.653812
L 316.296023 170.868738
L 317.315155 171.2639
L 318.741939 171.828885
L 319.76107 172.165462
L 321.391681 172.682278
L 322.818465 173.249509
L 324.041423 173.415437
L 325.060554 173.432704
L 325.672033 173.694007
L 326.894991 174.562828
L 328.729428 175.544628
L 329.952386 176.047867
L 330.360038 176.084688
L 330.971517 175.857783
L 332.398301 175.164268
L 334.028912 174.665215
L 335.659522 174.624423
L 337.290133 174.952253
L 339.328396 174.9186
L 342.181964 175.642841
L 343.608748 176.142949
L 344.220227 176.350771
L 345.035533 176.359916
L 346.054664 176.257761
L 349.723538 176.764379
L 350.538843 176.698183
L 351.761801 176.414813
L 353.596238 176.464695
L 357.265111 176.401703
L 358.488069 176.315386
L 359.507201 176.545847
L 362.564595 177.546591
L 363.583727 177.553976
L 365.010511 177.633464
L 366.844948 177.907398
L 368.679385 178.240225
L 369.698516 178.25545
L 372.959737 177.927386
L 374.998 178.189488
L 376.628611 178.633075
L 378.463047 178.916255
L 380.705137 179.435335
L 384.170184 179.876365
L 385.393142 179.873655
L 387.023752 179.876854
L 392.527063 180.187606
L 394.769152 180.342057
L 402.106899 181.201933
L 408.833167 181.43284
L 438.387982 181.481902
L 454.286434 181.490921
L 490.363691 181.456196
L 498.109091 181.461413
L 498.109091 181.461413
" style="fill:none;stroke:#d62728;stroke-linecap:square;stroke-width:0.8;"/>
   </g>
   <g id="line2d_19">
    <path clip-path="url(#p39cb4644a1)" d="M 92.290909 162.55257
L 93.106214 162.925111
L 93.310041 162.673836
L 93.513867 159.981511
L 95.959783 56.975831
L 96.163609 56.058769
L 96.571262 55.84964
L 97.386567 55.998948
L 98.201872 56.411876
L 98.405698 57.496101
L 98.609525 59.382062
L 98.813351 59.428439
L 99.42483 63.579775
L 99.628656 62.193215
L 99.832483 62.422395
L 100.240135 61.745584
L 101.05544 64.004709
L 101.463093 64.386687
L 102.074572 64.520954
L 102.482225 64.228631
L 102.889877 63.608068
L 103.093703 63.010415
L 103.29753 59.770944
L 103.501356 58.892218
L 103.705182 57.458022
L 104.92814 37.590801
L 105.131967 37.43914
L 105.947272 33.54398
L 106.354924 33.439686
L 106.762577 33.596368
L 107.17023 33.964549
L 107.577882 34.702844
L 107.985535 35.91981
L 108.393188 41.140983
L 108.80084 46.108321
L 109.616145 60.20154
L 109.819972 61.588666
L 110.635277 48.974975
L 111.04293 48.187763
L 112.877366 45.664425
L 113.488845 39.53043
L 114.100324 34.51452
L 114.30415 33.524013
L 114.507977 33.332727
L 114.711803 33.592648
L 115.527108 43.475822
L 115.730935 43.866188
L 116.54624 44.364429
L 117.769198 44.56235
L 117.973024 44.990151
L 118.380677 47.797013
L 118.788329 51.195191
L 118.992156 51.824839
L 119.399808 50.410464
L 119.603635 50.161918
L 120.011287 50.368781
L 120.41894 50.561217
L 120.826592 50.58791
L 121.641898 50.916355
L 122.253377 51.30766
L 122.457203 51.543151
L 122.661029 52.124836
L 123.068682 57.680005
L 123.272508 58.290261
L 123.476334 58.401717
L 123.680161 58.647234
L 123.883987 59.688503
L 124.699292 72.896777
L 125.106945 77.31104
L 125.310771 78.333085
L 125.514598 78.581279
L 125.92225 78.590676
L 127.552861 79.444804
L 127.756687 80.117394
L 127.960513 84.236674
L 128.979645 121.688527
L 129.998776 157.339023
L 130.202603 162.584026
L 130.406429 163.834964
L 130.814082 164.014429
L 131.221734 163.608235
L 131.629387 162.846398
L 132.240866 161.486428
L 132.444692 160.36378
L 132.648518 155.394698
L 133.259997 126.867919
L 134.279129 80.140547
L 134.890608 54.131016
L 135.094434 48.854087
L 135.29826 47.471103
L 135.705913 47.625903
L 136.113566 47.917898
L 136.928871 49.07418
L 137.132697 49.367526
L 137.336523 49.969192
L 137.744176 54.709141
L 138.355655 62.354031
L 138.559481 63.881384
L 138.763308 63.97826
L 138.967134 63.82593
L 139.17096 63.993897
L 139.374787 63.889493
L 139.578613 64.297533
L 139.782439 64.386839
L 139.986265 63.548922
L 140.393918 63.219235
L 141.209223 63.105965
L 142.024529 63.063338
L 142.228355 62.935646
L 142.432181 62.532793
L 143.451313 58.67166
L 143.655139 58.823657
L 144.470444 61.962087
L 144.878097 63.397685
L 145.081923 63.519955
L 145.897228 63.413991
L 146.91636 63.448186
L 147.120186 63.55635
L 147.324013 64.969525
L 147.527839 64.018512
L 147.731665 63.747743
L 149.362276 72.873097
L 149.566102 73.704987
L 149.973755 73.543542
L 150.992886 72.796175
L 151.604365 72.627557
L 151.808191 72.723042
L 152.012018 73.111929
L 152.215844 73.74459
L 152.827323 79.176597
L 153.234976 80.152539
L 153.846454 84.091919
L 154.457933 91.675528
L 155.680891 92.12336
L 156.29237 92.179752
L 156.700023 92.008926
L 157.107675 91.389051
L 157.515328 92.944351
L 157.719154 93.57331
L 158.126807 96.537491
L 158.738286 91.205554
L 159.145939 86.409414
L 159.349765 84.776573
L 159.553591 85.299413
L 160.980375 85.864615
L 161.591854 85.750675
L 161.795681 85.315047
L 162.610986 78.657192
L 162.814812 77.558255
L 163.018638 77.179551
L 163.833944 84.304898
L 164.445423 86.541377
L 164.649249 86.832163
L 165.260728 87.169077
L 165.872207 87.790681
L 166.483686 88.987689
L 166.687512 90.010599
L 167.298991 97.799017
L 167.91047 101.954525
L 168.114296 101.49244
L 168.521949 100.1605
L 169.133428 99.17245
L 169.54108 98.129218
L 170.764038 96.86936
L 171.375517 95.948625
L 171.78317 94.614064
L 172.598475 90.126313
L 173.006128 89.357729
L 173.209954 89.766556
L 173.41378 89.506491
L 173.821433 87.656056
L 174.025259 87.15365
L 175.452043 88.383116
L 176.063522 88.644995
L 176.267349 88.629108
L 176.471175 88.423533
L 176.675001 87.205181
L 177.082654 87.085143
L 177.28648 86.737258
L 177.694133 85.449117
L 177.897959 85.524604
L 178.305612 84.206556
L 178.509438 84.051434
L 178.917091 82.409723
L 179.324743 80.439381
L 180.955354 77.752397
L 181.363006 77.239479
L 181.566833 77.346683
L 182.178311 71.493957
L 182.382138 70.831643
L 182.78979 70.95846
L 183.605096 74.039722
L 183.808922 74.538446
L 184.624227 74.608673
L 185.439532 74.564334
L 186.458664 74.599358
L 186.866317 75.856777
L 187.477796 75.173716
L 188.293101 73.36537
L 188.496927 73.339692
L 188.700753 73.692753
L 188.90458 74.778612
L 189.312232 75.459748
L 190.53519 77.251876
L 190.942843 77.914446
L 191.146669 78.49958
L 191.554322 82.074473
L 192.165801 90.58736
L 192.369627 91.966046
L 192.77728 90.261
L 192.981106 89.65212
L 193.184932 89.583094
L 193.388759 90.536404
L 193.592585 90.31468
L 194.000237 86.358517
L 194.40789 85.819166
L 195.630848 84.891608
L 195.834674 84.688477
L 196.038501 84.214877
L 196.446153 80.370891
L 197.261458 65.8071
L 197.465285 65.404469
L 198.076764 61.222851
L 198.484416 56.955354
L 198.892069 60.660978
L 199.503548 61.598597
L 200.318853 62.329087
L 200.930332 62.623021
L 201.134158 63.850991
L 201.337985 64.250668
L 201.745637 65.521506
L 202.968595 72.354305
L 203.376248 75.556996
L 203.580074 75.544282
L 203.7839 75.674802
L 204.191553 75.536407
L 205.006858 75.145758
L 205.414511 75.09599
L 205.822163 75.245162
L 206.02599 75.420558
L 206.229816 76.160117
L 207.045121 83.704803
L 207.452774 85.131512
L 207.6566 85.484379
L 208.064253 85.662219
L 208.268079 85.655616
L 208.471905 85.354867
L 209.89869 84.807842
L 210.510168 84.127607
L 210.713995 83.720143
L 210.917821 82.865819
L 211.325474 85.936832
L 211.733126 84.223733
L 212.140779 84.591781
L 212.548432 85.539675
L 213.159911 92.041422
L 213.567563 91.62783
L 214.382868 91.395947
L 214.994347 91.268989
L 215.605826 91.379284
L 215.809653 90.082661
L 216.217305 84.476869
L 216.624958 87.881347
L 216.828784 89.871479
L 217.03261 89.723931
L 217.440263 88.487081
L 218.051742 80.804282
L 218.255568 80.940221
L 218.867047 80.907059
L 219.478526 81.203648
L 220.293831 81.862007
L 220.497658 82.2015
L 220.701484 83.976561
L 221.109137 84.015755
L 221.312963 82.605078
L 221.720615 78.164486
L 222.128268 78.485075
L 222.332094 78.524149
L 222.943573 77.56651
L 223.1474 76.743694
L 223.555052 76.369966
L 224.370358 75.979869
L 226.000968 75.391017
L 226.204794 75.68634
L 226.612447 74.582078
L 226.816273 74.199187
L 227.223926 74.16227
L 227.631578 74.448518
L 227.835405 74.231251
L 228.039231 73.607998
L 228.446884 73.276905
L 229.262189 72.99169
L 229.873668 72.850041
L 230.28132 72.60487
L 230.485147 72.809016
L 230.688973 72.791604
L 230.892799 73.613673
L 231.096626 73.954153
L 232.115757 81.570915
L 232.727236 87.302779
L 233.134889 88.901463
L 233.746368 89.371817
L 234.969326 89.967476
L 235.376978 90.390267
L 235.988457 98.287241
L 236.803762 106.271885
L 237.415241 111.58145
L 237.822894 113.721405
L 238.842025 113.846981
L 239.453504 113.370461
L 239.861157 112.880755
L 240.064983 112.470482
L 240.26881 112.322837
L 240.880289 116.638151
L 241.287941 120.721702
L 241.695594 122.933485
L 242.103246 124.76641
L 242.510899 126.775618
L 242.714725 128.866929
L 243.122378 128.174141
L 243.530031 127.9524
L 243.937683 127.999689
L 244.345336 128.228848
L 244.752988 128.757194
L 244.956815 129.386648
L 245.364467 133.02399
L 246.587425 141.831392
L 247.810383 152.762427
L 248.625688 153.143065
L 249.033341 153.16713
L 249.440994 152.841409
L 249.848646 152.403962
L 250.052472 152.271219
L 250.460125 153.061115
L 251.27543 155.424788
L 252.702215 160.066275
L 253.925172 160.558477
L 254.536651 161.143197
L 255.14813 161.744457
L 256.574914 162.689423
L 257.39022 162.765423
L 258.205525 162.868828
L 258.817004 163.223464
L 259.428483 163.9901
L 259.836135 164.604813
L 261.874398 164.425655
L 262.89353 164.101972
L 263.505009 163.518351
L 264.116488 162.606772
L 264.727967 161.46744
L 265.135619 161.470668
L 265.747098 161.291247
L 266.562404 161.439054
L 267.173882 161.774704
L 267.785361 162.268385
L 268.39684 163.161016
L 269.619798 165.465035
L 270.63893 165.764585
L 271.046582 165.508311
L 271.454235 164.96987
L 272.677193 162.988448
L 273.492498 162.057655
L 274.307803 160.891433
L 274.715456 160.732561
L 275.123109 160.836143
L 275.530761 161.144551
L 276.346066 162.147822
L 277.365198 163.778689
L 277.976677 164.168207
L 279.199635 164.524781
L 279.607287 164.47631
L 280.01494 164.379218
L 281.441724 163.534897
L 283.276161 162.70937
L 284.295292 161.686599
L 284.702945 161.27691
L 285.314424 161.043802
L 286.537382 160.989349
L 287.556513 160.656898
L 288.371819 160.457118
L 288.779471 160.535797
L 289.39095 160.889051
L 290.206255 160.712641
L 291.225387 160.262899
L 291.63304 159.919257
L 292.448345 158.978631
L 293.26365 157.710193
L 294.078955 156.470231
L 294.486608 156.146919
L 295.301913 155.930541
L 296.321045 155.872004
L 297.13635 156.116807
L 297.747829 156.73818
L 299.174613 158.387681
L 299.786092 158.375191
L 300.805224 158.390312
L 301.620529 158.403971
L 302.435834 158.309063
L 302.843487 158.549166
L 303.658792 158.713777
L 304.066444 158.821348
L 304.677923 158.96264
L 306.104708 159.1424
L 306.920013 159.668361
L 308.142971 160.585805
L 309.569755 161.928431
L 310.38506 162.635634
L 310.996539 162.774729
L 311.608018 162.299692
L 312.627149 161.058667
L 313.442455 159.893173
L 314.25776 159.476509
L 315.276891 159.64483
L 315.88837 159.798353
L 318.334286 161.800527
L 318.741939 162.070497
L 319.557244 162.639203
L 320.984028 163.467144
L 321.799333 164.158391
L 322.614639 164.814842
L 323.63377 165.244712
L 324.245249 165.213143
L 324.856728 165.199499
L 325.264381 165.397403
L 325.672033 165.800742
L 326.691165 167.313813
L 329.340907 170.087878
L 329.952386 170.508461
L 330.360038 170.582104
L 330.767691 170.331408
L 332.602128 168.596825
L 333.621259 167.960789
L 334.028912 167.743157
L 335.455696 167.564378
L 337.290133 168.317234
L 337.901612 168.152185
L 338.309264 168.06993
L 339.12457 168.152049
L 342.589617 169.938421
L 343.404922 170.485049
L 344.016401 171.021108
L 344.62788 171.182215
L 345.239359 171.070039
L 345.647012 170.917719
L 346.054664 170.92825
L 347.685275 171.581829
L 348.092927 171.729624
L 350.335017 171.891989
L 350.946496 171.549063
L 351.557975 171.273937
L 352.37328 171.228794
L 355.226848 171.38782
L 356.24598 171.479876
L 357.468937 171.155523
L 358.488069 171.0435
L 359.099548 171.259296
L 359.914853 171.802769
L 361.341637 173.014219
L 362.360769 173.491662
L 363.991379 173.500236
L 364.806685 173.615207
L 369.290863 174.964547
L 370.106169 174.815481
L 371.940605 174.192258
L 372.552084 174.19061
L 374.794174 174.689925
L 375.609479 175.21438
L 376.424784 175.614156
L 377.036263 175.739761
L 377.851568 175.902745
L 380.705137 177.283398
L 383.151052 177.962588
L 384.985489 178.205319
L 386.412273 178.140627
L 387.635231 178.275806
L 391.507931 178.813937
L 394.565326 179.0484
L 398.234199 180.023781
L 400.272462 180.585769
L 405.164294 181.313897
L 418.413004 181.272897
L 462.23566 181.347074
L 468.758102 181.296116
L 474.465239 181.293626
L 480.987681 181.319645
L 498.109091 181.335553
L 498.109091 181.335553
" style="fill:none;stroke:#9467bd;stroke-linecap:square;stroke-width:0.8;"/>
   </g>
   <g id="legend_1">
    <g id="patch_7">
     <path d="M 450.810937 107.310625
L 511.4 107.310625
Q 513.4 107.310625 513.4 105.310625
L 513.4 32.92
Q 513.4 30.92 511.4 30.92
L 450.810937 30.92
Q 448.810937 30.92 448.810937 32.92
L 448.810937 105.310625
Q 448.810937 107.310625 450.810937 107.310625
z
" style="fill:#ffffff;opacity:0.8;stroke:#cccccc;stroke-linejoin:miter;"/>
    </g>
    <g id="line2d_20">
     <path d="M 452.810937 39.018438
L 472.810937 39.018438
" style="fill:none;stroke:#1f77b4;stroke-linecap:square;stroke-width:0.8;"/>
    </g>
    <g id="line2d_21"/>
    <g id="text_12">
     <!-- 0% -->
     <g style="fill:#696969;" transform="translate(480.810937 42.518438)scale(0.1 -0.1)">
      <defs>
       <path d="M 72.703125 32.078125
Q 68.453125 32.078125 66.03125 28.46875
Q 63.625 24.859375 63.625 18.40625
Q 63.625 12.0625 66.03125 8.421875
Q 68.453125 4.78125 72.703125 4.78125
Q 76.859375 4.78125 79.265625 8.421875
Q 81.6875 12.0625 81.6875 18.40625
Q 81.6875 24.8125 79.265625 28.4375
Q 76.859375 32.078125 72.703125 32.078125
z
M 72.703125 38.28125
Q 80.421875 38.28125 84.953125 32.90625
Q 89.5 27.546875 89.5 18.40625
Q 89.5 9.28125 84.9375 3.921875
Q 80.375 -1.421875 72.703125 -1.421875
Q 64.890625 -1.421875 60.34375 3.921875
Q 55.8125 9.28125 55.8125 18.40625
Q 55.8125 27.59375 60.375 32.9375
Q 64.9375 38.28125 72.703125 38.28125
z
M 22.3125 68.015625
Q 18.109375 68.015625 15.6875 64.375
Q 13.28125 60.75 13.28125 54.390625
Q 13.28125 47.953125 15.671875 44.328125
Q 18.0625 40.71875 22.3125 40.71875
Q 26.5625 40.71875 28.96875 44.328125
Q 31.390625 47.953125 31.390625 54.390625
Q 31.390625 60.6875 28.953125 64.34375
Q 26.515625 68.015625 22.3125 68.015625
z
M 66.40625 74.21875
L 74.21875 74.21875
L 28.609375 -1.421875
L 20.796875 -1.421875
z
M 22.3125 74.21875
Q 30.03125 74.21875 34.609375 68.875
Q 39.203125 63.53125 39.203125 54.390625
Q 39.203125 45.171875 34.640625 39.84375
Q 30.078125 34.515625 22.3125 34.515625
Q 14.546875 34.515625 10.03125 39.859375
Q 5.515625 45.21875 5.515625 54.390625
Q 5.515625 63.484375 10.046875 68.84375
Q 14.59375 74.21875 22.3125 74.21875
z
" id="DejaVuSans-37"/>
      </defs>
      <use xlink:href="#DejaVuSans-48"/>
      <use x="63.623047" xlink:href="#DejaVuSans-37"/>
     </g>
    </g>
    <g id="line2d_22">
     <path d="M 452.810937 53.696562
L 472.810937 53.696562
" style="fill:none;stroke:#ff7f0e;stroke-linecap:square;stroke-width:0.8;"/>
    </g>
    <g id="line2d_23"/>
    <g id="text_13">
     <!-- 10% -->
     <g style="fill:#696969;" transform="translate(480.810937 57.196562)scale(0.1 -0.1)">
      <use xlink:href="#DejaVuSans-49"/>
      <use x="63.623047" xlink:href="#DejaVuSans-48"/>
      <use x="127.246094" xlink:href="#DejaVuSans-37"/>
     </g>
    </g>
    <g id="line2d_24">
     <path d="M 452.810937 68.374687
L 472.810937 68.374687
" style="fill:none;stroke:#2ca02c;stroke-linecap:square;stroke-width:0.8;"/>
    </g>
    <g id="line2d_25"/>
    <g id="text_14">
     <!-- 60% -->
     <g style="fill:#696969;" transform="translate(480.810937 71.874687)scale(0.1 -0.1)">
      <defs>
       <path d="M 33.015625 40.375
Q 26.375 40.375 22.484375 35.828125
Q 18.609375 31.296875 18.609375 23.390625
Q 18.609375 15.53125 22.484375 10.953125
Q 26.375 6.390625 33.015625 6.390625
Q 39.65625 6.390625 43.53125 10.953125
Q 47.40625 15.53125 47.40625 23.390625
Q 47.40625 31.296875 43.53125 35.828125
Q 39.65625 40.375 33.015625 40.375
z
M 52.59375 71.296875
L 52.59375 62.3125
Q 48.875 64.0625 45.09375 64.984375
Q 41.3125 65.921875 37.59375 65.921875
Q 27.828125 65.921875 22.671875 59.328125
Q 17.53125 52.734375 16.796875 39.40625
Q 19.671875 43.65625 24.015625 45.921875
Q 28.375 48.1875 33.59375 48.1875
Q 44.578125 48.1875 50.953125 41.515625
Q 57.328125 34.859375 57.328125 23.390625
Q 57.328125 12.15625 50.6875 5.359375
Q 44.046875 -1.421875 33.015625 -1.421875
Q 20.359375 -1.421875 13.671875 8.265625
Q 6.984375 17.96875 6.984375 36.375
Q 6.984375 53.65625 15.1875 63.9375
Q 23.390625 74.21875 37.203125 74.21875
Q 40.921875 74.21875 44.703125 73.484375
Q 48.484375 72.75 52.59375 71.296875
z
" id="DejaVuSans-54"/>
      </defs>
      <use xlink:href="#DejaVuSans-54"/>
      <use x="63.623047" xlink:href="#DejaVuSans-48"/>
      <use x="127.246094" xlink:href="#DejaVuSans-37"/>
     </g>
    </g>
    <g id="line2d_26">
     <path d="M 452.810937 83.052813
L 472.810937 83.052813
" style="fill:none;stroke:#d62728;stroke-linecap:square;stroke-width:0.8;"/>
    </g>
    <g id="line2d_27"/>
    <g id="text_15">
     <!-- 100% -->
     <g style="fill:#696969;" transform="translate(480.810937 86.552813)scale(0.1 -0.1)">
      <use xlink:href="#DejaVuSans-49"/>
      <use x="63.623047" xlink:href="#DejaVuSans-48"/>
      <use x="127.246094" xlink:href="#DejaVuSans-48"/>
      <use x="190.869141" xlink:href="#DejaVuSans-37"/>
     </g>
    </g>
    <g id="line2d_28">
     <path d="M 452.810937 97.730938
L 472.810937 97.730938
" style="fill:none;stroke:#9467bd;stroke-linecap:square;stroke-width:0.8;"/>
    </g>
    <g id="line2d_29"/>
    <g id="text_16">
     <!-- 200% -->
     <g style="fill:#696969;" transform="translate(480.810937 101.230938)scale(0.1 -0.1)">
      <use xlink:href="#DejaVuSans-50"/>
      <use x="63.623047" xlink:href="#DejaVuSans-48"/>
      <use x="127.246094" xlink:href="#DejaVuSans-48"/>
      <use x="190.869141" xlink:href="#DejaVuSans-37"/>
     </g>
    </g>
   </g>
  </g>
  <g id="text_17">
   <!-- fst -->
   <g style="fill:#696969;" transform="translate(280.41 13.438125)scale(0.12 -0.12)">
    <defs>
     <path d="M 37.109375 75.984375
L 37.109375 68.5
L 28.515625 68.5
Q 23.6875 68.5 21.796875 66.546875
Q 19.921875 64.59375 19.921875 59.515625
L 19.921875 54.6875
L 34.71875 54.6875
L 34.71875 47.703125
L 19.921875 47.703125
L 19.921875 0
L 10.890625 0
L 10.890625 47.703125
L 2.296875 47.703125
L 2.296875 54.6875
L 10.890625 54.6875
L 10.890625 58.5
Q 10.890625 67.625 15.140625 71.796875
Q 19.390625 75.984375 28.609375 75.984375
z
" id="DejaVuSans-102"/>
    </defs>
    <use xlink:href="#DejaVuSans-102"/>
    <use x="35.205078" xlink:href="#DejaVuSans-115"/>
    <use x="87.304688" xlink:href="#DejaVuSans-116"/>
   </g>
  </g>
 </g>
 <defs>
  <clipPath id="p39cb4644a1">
   <rect height="163.08" width="446.4" x="72" y="25.92"/>
  </clipPath>
 </defs>
</svg>
