<?xml version="1.0" encoding="utf-8" standalone="no"?>
<!DOCTYPE svg PUBLIC "-//W3C//DTD SVG 1.1//EN"
  "http://www.w3.org/Graphics/SVG/1.1/DTD/svg11.dtd">
<!-- Created with matplotlib (https://matplotlib.org/) -->
<svg height="216pt" version="1.1" viewBox="0 0 576 216" width="576pt" xmlns="http://www.w3.org/2000/svg" xmlns:xlink="http://www.w3.org/1999/xlink">
 <metadata>
  <rdf:RDF xmlns:cc="http://creativecommons.org/ns#" xmlns:dc="http://purl.org/dc/elements/1.1/" xmlns:rdf="http://www.w3.org/1999/02/22-rdf-syntax-ns#">
   <cc:Work>
    <dc:type rdf:resource="http://purl.org/dc/dcmitype/StillImage"/>
    <dc:date>2020-11-03T11:27:03.584647</dc:date>
    <dc:format>image/svg+xml</dc:format>
    <dc:creator>
     <cc:Agent>
      <dc:title>Matplotlib v3.3.2, https://matplotlib.org/</dc:title>
     </cc:Agent>
    </dc:creator>
   </cc:Work>
  </rdf:RDF>
 </metadata>
 <defs>
  <style type="text/css">*{stroke-linecap:butt;stroke-linejoin:round;}</style>
 </defs>
 <g id="figure_1">
  <g id="patch_1">
   <path d="M 0 216
L 576 216
L 576 0
L 0 0
z
" style="fill:none;"/>
  </g>
  <g id="axes_1">
   <g id="patch_2">
    <path d="M 72 189
L 518.4 189
L 518.4 25.92
L 72 25.92
z
" style="fill:none;"/>
   </g>
   <g id="line2d_1">
    <path clip-path="url(#pf14eb7a0c7)" d="M 92.290909 177.609922
L 93.106214 177.640795
L 93.310041 177.176922
L 93.513867 172.170912
L 94.532998 120.001031
L 95.959783 66.843485
L 96.163609 66.219593
L 96.978914 66.358861
L 98.201872 66.337383
L 98.609525 69.381274
L 98.813351 71.924181
L 99.017177 72.826614
L 99.42483 75.284042
L 99.628656 73.860272
L 99.832483 74.070649
L 100.647788 71.471174
L 100.851614 70.569949
L 101.05544 70.346315
L 102.686051 70.857563
L 103.093703 71.024105
L 103.29753 70.26406
L 103.705182 73.308574
L 104.92814 60.796164
L 105.131967 61.179689
L 105.335793 60.946882
L 105.539619 61.079562
L 105.743446 60.058409
L 105.947272 59.807318
L 107.781709 59.545872
L 107.985535 59.305657
L 108.189361 58.262558
L 108.597014 50.699475
L 109.208493 47.957755
L 109.819972 53.233813
L 110.227624 47.794757
L 110.431451 45.910379
L 110.635277 46.031404
L 112.67354 45.831465
L 112.877366 45.808847
L 113.081193 45.044685
L 113.488845 45.463216
L 113.692672 45.115198
L 114.100324 43.939898
L 114.711803 39.241168
L 114.915629 40.370634
L 115.323282 41.155326
L 115.527108 42.001732
L 116.342414 41.948646
L 117.565371 41.935445
L 117.769198 41.871445
L 118.380677 43.608422
L 118.992156 47.438083
L 120.215113 45.827796
L 120.622766 45.537286
L 122.457203 45.589991
L 122.661029 45.519426
L 122.864855 44.867173
L 123.068682 43.587194
L 123.272508 43.572704
L 123.476334 43.824824
L 123.680161 43.56068
L 123.883987 43.714816
L 125.106945 61.312702
L 125.310771 62.417147
L 125.514598 62.672248
L 127.349034 62.684628
L 127.552861 63.455045
L 127.756687 70.000814
L 128.775818 125.574297
L 130.202603 177.823584
L 130.406429 178.90362
L 132.037039 178.849456
L 132.240866 178.822764
L 132.444692 177.918019
L 132.648518 171.709127
L 133.463824 121.261383
L 134.482955 63.639859
L 134.890608 42.087851
L 135.094434 35.113297
L 135.29826 33.335794
L 136.725045 33.423806
L 137.336523 33.581791
L 137.744176 34.161308
L 137.948002 34.261692
L 138.355655 37.976323
L 138.559481 39.742873
L 138.763308 39.504028
L 138.967134 38.996453
L 139.17096 38.878145
L 139.374787 38.213806
L 139.782439 38.383228
L 139.986265 37.862003
L 140.801571 37.979196
L 142.228355 38.076908
L 142.432181 37.994956
L 142.636007 38.339499
L 142.839834 39.097224
L 143.247486 38.123146
L 143.451313 38.021696
L 143.655139 38.582988
L 144.266618 42.43884
L 144.878097 46.586086
L 145.081923 46.731001
L 147.120186 46.171787
L 147.324013 47.344776
L 147.527839 47.281566
L 147.731665 48.082938
L 149.158449 68.537601
L 149.566102 73.986036
L 149.769928 75.107094
L 149.973755 75.473494
L 151.400539 75.55974
L 151.808191 75.590536
L 152.012018 75.851272
L 152.215844 77.152613
L 152.827323 84.880515
L 153.438802 90.205514
L 153.846454 95.133539
L 154.457933 105.684339
L 154.66176 105.930218
L 156.903849 106.435705
L 157.107675 106.109897
L 157.311502 106.529105
L 157.515328 106.579635
L 157.719154 107.398479
L 158.126807 110.661676
L 158.738286 103.74215
L 159.349765 93.374106
L 160.776549 93.140566
L 161.591854 93.13951
L 161.795681 92.89096
L 161.999507 91.648568
L 163.018638 77.850169
L 164.241596 80.125821
L 164.445423 79.83032
L 165.056902 79.799759
L 166.687512 79.574953
L 167.502817 82.434707
L 167.91047 85.282749
L 168.318122 86.142748
L 168.725775 89.004664
L 169.133428 91.969761
L 169.337254 92.881241
L 169.744907 92.973568
L 171.579343 93.01728
L 171.78317 93.400159
L 172.394649 95.616326
L 172.598475 95.615491
L 172.802301 95.840468
L 173.006128 95.669383
L 173.209954 95.900995
L 173.41378 95.10344
L 174.025259 89.515263
L 174.229085 88.664798
L 174.432912 88.438487
L 175.859696 88.73102
L 176.471175 88.796085
L 176.878827 86.970576
L 177.694133 81.25109
L 177.897959 81.151501
L 178.101785 80.49436
L 178.305612 80.314807
L 178.713264 81.606014
L 179.120917 82.483938
L 179.324743 82.617036
L 180.547701 82.355444
L 181.363006 82.248915
L 181.974485 86.13785
L 182.78979 92.163711
L 183.197443 94.202231
L 184.012748 95.512764
L 186.254838 95.551905
L 186.866317 94.020761
L 187.273969 92.100498
L 188.90458 86.039017
L 189.312232 85.82162
L 191.146669 85.552583
L 191.350495 85.637131
L 191.554322 85.363841
L 191.758148 84.73937
L 191.961974 84.809652
L 192.369627 85.336657
L 192.573453 83.712557
L 192.981106 82.316701
L 193.388759 82.294494
L 193.592585 83.312607
L 194.000237 82.349815
L 195.019369 82.493985
L 196.038501 82.679052
L 196.853806 77.956952
L 197.261458 73.731545
L 197.465285 74.128522
L 197.872937 72.66904
L 198.484416 65.988607
L 198.688243 66.687829
L 199.095895 66.848892
L 200.930332 66.953819
L 201.337985 68.889362
L 202.15329 74.314577
L 202.764769 76.674273
L 203.376248 81.744889
L 203.580074 81.634894
L 203.7839 81.769104
L 206.02599 81.62175
L 206.433642 81.29909
L 206.841295 82.763784
L 207.248948 84.770405
L 208.064253 88.458367
L 208.268079 89.107295
L 208.675732 89.364012
L 210.713995 89.604262
L 210.917821 89.92402
L 211.325474 97.089199
L 211.936953 94.478788
L 212.548432 91.510107
L 213.159911 96.353541
L 213.363737 95.726043
L 213.567563 95.473721
L 215.605826 95.369678
L 215.809653 93.79607
L 216.217305 85.108306
L 216.828784 92.246004
L 217.03261 91.536923
L 217.440263 89.222756
L 218.051742 79.073914
L 219.682352 78.641244
L 220.497658 78.567265
L 220.701484 79.499477
L 220.90531 79.497537
L 221.109137 79.8479
L 221.516789 75.156134
L 221.720615 72.970065
L 223.1474 82.045886
L 223.351226 82.297817
L 225.797142 82.484994
L 226.000968 82.472494
L 226.204794 83.237271
L 226.612447 83.691079
L 227.223926 85.147874
L 227.631578 86.319905
L 227.835405 86.737263
L 228.446884 86.972848
L 230.28132 87.212794
L 230.688973 89.770494
L 230.892799 91.834723
L 231.096626 92.344935
L 231.504278 95.468588
L 232.52341 98.807741
L 232.931063 99.459662
L 233.338715 99.535645
L 235.173152 99.540309
L 235.580805 98.271414
L 235.988457 96.868315
L 237.007589 92.994421
L 237.619068 89.809804
L 237.822894 89.165199
L 238.02672 88.897027
L 240.064983 88.855927
L 240.26881 88.0301
L 240.880289 99.617532
L 241.287941 105.2613
L 241.89942 109.723297
L 242.307073 114.286231
L 242.714725 116.472025
L 243.122378 116.217145
L 244.549162 115.797384
L 244.956815 115.757396
L 246.587425 143.55538
L 247.606557 160.34953
L 247.810383 160.938467
L 248.829515 161.068202
L 249.64482 161.217891
L 249.848646 161.744609
L 252.906041 178.106215
L 256.778741 178.06529
L 259.224656 178.0588
L 260.243788 178.139514
L 261.874398 178.342626
L 263.097356 178.49339
L 265.135619 178.841953
L 266.562404 178.784228
L 274.307803 178.737856
L 276.14224 178.610402
L 280.626419 178.727506
L 283.683814 178.881627
L 285.722077 178.910224
L 290.002429 179.42029
L 292.040692 179.620866
L 300.601397 179.592388
L 302.028181 179.70638
L 303.251139 179.921238
L 304.270271 180.08185
L 309.365928 179.559977
L 310.181234 179.633339
L 311.608018 179.814942
L 314.053934 179.724215
L 316.703676 180.062217
L 319.149591 180.502145
L 322.00316 180.382922
L 325.468207 180.349241
L 326.283512 180.505309
L 327.50647 180.967233
L 328.729428 181.309791
L 330.360038 181.405763
L 331.37917 181.290769
L 335.048043 180.584947
L 338.105438 179.989904
L 340.347528 180.026907
L 342.589617 180.055819
L 343.608748 179.943103
L 344.62788 180.005598
L 346.054664 180.090514
L 348.704406 180.14045
L 350.335017 180.203371
L 354.00389 180.085293
L 361.545464 180.674723
L 362.768422 180.934612
L 363.3799 180.858121
L 364.602858 180.733653
L 367.2526 180.968704
L 368.883211 181.268711
L 369.698516 181.228441
L 370.513821 181.159437
L 373.163563 181.090182
L 374.590347 181.035806
L 375.405653 180.974835
L 376.832437 180.640984
L 377.647742 180.49546
L 379.278353 180.596381
L 384.781663 181.238182
L 386.004621 180.974604
L 387.431405 180.740922
L 392.11941 180.864445
L 396.807415 180.295224
L 398.234199 180.434835
L 402.922204 180.802387
L 414.336478 181.235369
L 418.820657 180.815006
L 420.85892 180.862661
L 425.343098 180.86703
L 426.769883 180.961482
L 428.604319 180.761057
L 429.623451 180.731492
L 432.477019 180.821187
L 434.311456 180.686755
L 436.553546 180.278097
L 438.999461 179.773172
L 442.056856 179.442238
L 446.337208 179.341579
L 448.375471 179.882519
L 449.394603 180.435079
L 450.821387 181.191165
L 451.840519 181.383931
L 453.471129 181.576074
L 456.936176 180.799125
L 458.97444 180.388541
L 460.401224 180.213684
L 461.420355 180.086368
L 462.439487 180.152648
L 463.662445 180.055496
L 465.700708 179.816251
L 468.758102 180.167457
L 470.796365 180.583722
L 472.22315 180.782354
L 474.669065 180.983225
L 479.764723 181.021865
L 483.841249 181.019468
L 485.879512 181.076947
L 488.936907 180.661048
L 490.159865 180.519763
L 493.217259 180.695233
L 495.255523 180.943546
L 498.109091 181.095893
L 498.109091 181.095893
" style="fill:none;stroke:#1f77b4;stroke-linecap:square;stroke-width:0.8;"/>
   </g>
   <g id="line2d_2">
    <path clip-path="url(#pf14eb7a0c7)" d="M 92.290909 177.609922
L 93.106214 177.640795
L 93.310041 177.176922
L 93.513867 172.170912
L 94.532998 120.001031
L 95.959783 66.843485
L 96.163609 66.219593
L 96.978914 66.358861
L 98.201872 66.337383
L 98.609525 69.381274
L 98.813351 71.924181
L 99.017177 72.826614
L 99.42483 75.284042
L 99.628656 73.860272
L 99.832483 74.070649
L 100.647788 71.471174
L 100.851614 70.569949
L 101.05544 70.346315
L 102.686051 70.857563
L 103.093703 71.024105
L 103.29753 70.26406
L 103.705182 73.308574
L 104.92814 60.796164
L 105.131967 61.179689
L 105.335793 60.946882
L 105.539619 61.079562
L 105.743446 60.058409
L 105.947272 59.807318
L 107.781709 59.545872
L 107.985535 59.305657
L 108.189361 58.262558
L 108.597014 50.699475
L 109.208493 47.957755
L 109.819972 53.233813
L 110.227624 47.794757
L 110.431451 45.910379
L 110.635277 46.031404
L 112.67354 45.831465
L 112.877366 45.808847
L 113.081193 45.044685
L 113.488845 45.463216
L 113.692672 45.115198
L 114.100324 43.939898
L 114.711803 39.241168
L 114.915629 40.370634
L 115.323282 41.155326
L 115.527108 42.001732
L 116.342414 41.948646
L 117.565371 41.935445
L 117.769198 41.871445
L 118.380677 43.608422
L 118.992156 47.438083
L 120.215113 45.827796
L 120.622766 45.537286
L 122.457203 45.589991
L 122.661029 45.519426
L 122.864855 44.867173
L 123.068682 43.587194
L 123.272508 43.572704
L 123.476334 43.824824
L 123.680161 43.56068
L 123.883987 43.714816
L 125.106945 61.312702
L 125.310771 62.417147
L 125.514598 62.672248
L 127.349034 62.684628
L 127.552861 63.455045
L 127.756687 70.000814
L 128.775818 125.574297
L 130.202603 177.823584
L 130.406429 178.90362
L 132.037039 178.849456
L 132.240866 178.822764
L 132.444692 177.918019
L 132.648518 171.709127
L 133.463824 121.261383
L 134.482955 63.639859
L 134.890608 42.087851
L 135.094434 35.113297
L 135.29826 33.335794
L 136.725045 33.423806
L 137.336523 33.581791
L 137.744176 34.161308
L 137.948002 34.261692
L 138.355655 37.976323
L 138.559481 39.742873
L 138.763308 39.504028
L 138.967134 38.996453
L 139.17096 38.878145
L 139.374787 38.213806
L 139.782439 38.383228
L 139.986265 37.862003
L 140.801571 37.979196
L 142.228355 38.076908
L 142.432181 37.994956
L 142.636007 38.339499
L 142.839834 39.097224
L 143.247486 38.123146
L 143.451313 38.021696
L 143.655139 38.582988
L 144.266618 42.43884
L 144.878097 46.586086
L 145.081923 46.731001
L 147.120186 46.171787
L 147.324013 47.344776
L 147.527839 47.281566
L 147.731665 48.082938
L 149.158449 68.537601
L 149.566102 73.986036
L 149.769928 75.107094
L 149.973755 75.473494
L 151.400539 75.55974
L 151.808191 75.590536
L 152.012018 75.851272
L 152.215844 77.152613
L 152.827323 84.880515
L 153.438802 90.205514
L 153.846454 95.133539
L 154.457933 105.684339
L 154.66176 105.930218
L 156.903849 106.435705
L 157.107675 106.109897
L 157.311502 106.529105
L 157.515328 106.579635
L 157.719154 107.398479
L 158.126807 110.661676
L 158.738286 103.74215
L 159.349765 93.374106
L 160.776549 93.140566
L 161.591854 93.13951
L 161.795681 92.89096
L 161.999507 91.648568
L 163.018638 77.850169
L 164.241596 80.125821
L 164.445423 79.83032
L 165.056902 79.799759
L 166.687512 79.574953
L 167.502817 82.434707
L 167.91047 85.282749
L 168.318122 86.142748
L 168.725775 89.004664
L 169.133428 91.969761
L 169.337254 92.881241
L 169.744907 92.973568
L 171.579343 93.01728
L 171.78317 93.400159
L 172.394649 95.616326
L 172.598475 95.615491
L 172.802301 95.840468
L 173.006128 95.669383
L 173.209954 95.900995
L 173.41378 95.10344
L 174.025259 89.515263
L 174.229085 88.664798
L 174.432912 88.438487
L 175.859696 88.73102
L 176.471175 88.796085
L 176.878827 86.970576
L 177.694133 81.25109
L 177.897959 81.151501
L 178.101785 80.49436
L 178.305612 80.314807
L 178.713264 81.606014
L 179.120917 82.483938
L 179.324743 82.617036
L 180.547701 82.355444
L 181.363006 82.248915
L 181.974485 86.13785
L 182.78979 92.163711
L 183.197443 94.202231
L 184.012748 95.512764
L 186.254838 95.551905
L 186.866317 94.020761
L 187.273969 92.100498
L 188.90458 86.039017
L 189.312232 85.82162
L 191.146669 85.552583
L 191.350495 85.637131
L 191.554322 85.363841
L 191.758148 84.73937
L 191.961974 84.809652
L 192.369627 85.336657
L 192.573453 83.712557
L 192.981106 82.316701
L 193.388759 82.294494
L 193.592585 83.312607
L 194.000237 82.349815
L 195.019369 82.493985
L 196.038501 82.679052
L 196.853806 77.956952
L 197.261458 73.731545
L 197.465285 74.128522
L 197.872937 72.66904
L 198.484416 65.988607
L 198.688243 66.687829
L 199.095895 66.848892
L 200.930332 66.953819
L 201.337985 68.889362
L 202.15329 74.314577
L 202.764769 76.674273
L 203.376248 81.744889
L 203.580074 81.634894
L 203.7839 81.769104
L 206.02599 81.62175
L 206.433642 81.29909
L 206.841295 82.763784
L 207.248948 84.770405
L 208.064253 88.458367
L 208.268079 89.107295
L 208.675732 89.364012
L 210.713995 89.604262
L 210.917821 89.92402
L 211.325474 97.089199
L 211.936953 94.478788
L 212.548432 91.510107
L 213.159911 96.353541
L 213.363737 95.726043
L 213.567563 95.473721
L 215.605826 95.369678
L 215.809653 93.79607
L 216.217305 85.108306
L 216.828784 92.246004
L 217.03261 91.536923
L 217.440263 89.222756
L 218.051742 79.073914
L 219.682352 78.641244
L 220.497658 78.567265
L 220.701484 79.499477
L 220.90531 79.497537
L 221.109137 79.8479
L 221.516789 75.156134
L 221.720615 72.970065
L 223.1474 82.045886
L 223.351226 82.297817
L 225.797142 82.484994
L 226.000968 82.472494
L 226.204794 83.237271
L 226.612447 83.69108
L 227.223926 85.147874
L 227.631578 86.319905
L 227.835405 86.737263
L 228.446884 86.972848
L 230.28132 87.212794
L 230.688973 89.770495
L 230.892799 91.834724
L 231.096626 92.344935
L 231.504278 95.468588
L 232.52341 98.807741
L 232.931063 99.459662
L 233.338715 99.535645
L 235.173152 99.540309
L 235.580805 98.271414
L 235.988457 96.868315
L 237.007589 92.99442
L 237.619068 89.809803
L 237.822894 89.165199
L 238.02672 88.897026
L 240.064983 88.855926
L 240.26881 88.260941
L 240.880289 100.498181
L 241.287941 106.585002
L 241.89942 111.695239
L 242.307073 116.690633
L 242.714725 119.308158
L 243.122378 119.053277
L 244.549162 118.633517
L 244.956815 118.593529
L 246.587425 145.074127
L 247.606557 161.0736
L 247.810383 161.719514
L 248.829515 161.849248
L 249.64482 161.998937
L 249.848646 162.525655
L 252.906041 178.106215
L 256.778741 178.06529
L 259.224656 178.0588
L 260.243788 178.139514
L 261.874398 178.342626
L 263.097356 178.49339
L 265.135619 178.841953
L 266.562404 178.784228
L 274.307803 178.737856
L 276.14224 178.610402
L 280.626419 178.727506
L 283.683814 178.881627
L 285.722077 178.910224
L 290.002429 179.42029
L 292.040692 179.620866
L 300.601397 179.592388
L 302.028181 179.70638
L 303.251139 179.921238
L 304.270271 180.08185
L 309.365928 179.559977
L 310.181234 179.633339
L 311.608018 179.814942
L 314.053934 179.724215
L 316.703676 180.062217
L 319.149591 180.502145
L 322.00316 180.382922
L 325.468207 180.349241
L 326.283512 180.505309
L 327.50647 180.967233
L 328.729428 181.309791
L 330.360038 181.405763
L 331.37917 181.290769
L 335.048043 180.584947
L 338.105438 179.989904
L 340.347528 180.026907
L 342.589617 180.055819
L 343.608748 179.943103
L 344.62788 180.005598
L 346.054664 180.090514
L 348.704406 180.14045
L 350.335017 180.203371
L 354.00389 180.085293
L 361.545464 180.674723
L 362.768422 180.934612
L 363.3799 180.858121
L 364.602858 180.733653
L 367.2526 180.968704
L 368.883211 181.268711
L 369.698516 181.228441
L 370.513821 181.159437
L 373.163563 181.090182
L 374.590347 181.035806
L 375.405653 180.974835
L 376.832437 180.640984
L 377.647742 180.49546
L 379.278353 180.596381
L 384.781663 181.238182
L 386.004621 180.974604
L 387.431405 180.740922
L 392.11941 180.864445
L 396.807415 180.295224
L 398.234199 180.434835
L 402.922204 180.802387
L 414.336478 181.235369
L 418.820657 180.815006
L 420.85892 180.862661
L 425.343098 180.86703
L 426.769883 180.961482
L 428.604319 180.761057
L 429.623451 180.731492
L 432.477019 180.821187
L 434.311456 180.686755
L 436.553546 180.278097
L 438.999461 179.773172
L 442.056856 179.442238
L 446.337208 179.341579
L 448.375471 179.882519
L 449.394603 180.435079
L 450.821387 181.191165
L 451.840519 181.383931
L 453.471129 181.576074
L 456.936176 180.799125
L 458.97444 180.388541
L 460.401224 180.213684
L 461.420355 180.086368
L 462.439487 180.152648
L 463.662445 180.055496
L 465.700708 179.816251
L 468.758102 180.167457
L 470.796365 180.583722
L 472.22315 180.782354
L 474.669065 180.983225
L 479.764723 181.021865
L 483.841249 181.019468
L 485.879512 181.076947
L 488.936907 180.661048
L 490.159865 180.519763
L 493.217259 180.695233
L 495.255523 180.943546
L 498.109091 181.095893
L 498.109091 181.095893
" style="fill:none;stroke:#ff7f0e;stroke-linecap:square;stroke-width:0.8;"/>
   </g>
   <g id="matplotlib.axis_1">
    <g id="xtick_1">
     <g id="line2d_3">
      <defs>
       <path d="M 0 0
L 0 1.5
" id="m4f1bb8ef8e" style="stroke:#696969;stroke-width:0.8;"/>
      </defs>
      <g>
       <use style="fill:#696969;stroke:#696969;stroke-width:0.8;" x="92.290909" xlink:href="#m4f1bb8ef8e" y="189"/>
      </g>
     </g>
     <g id="text_1">
      <!-- 147 -->
      <g style="fill:#696969;" transform="translate(82.747159 201.598437)scale(0.1 -0.1)">
       <defs>
        <path d="M 12.40625 8.296875
L 28.515625 8.296875
L 28.515625 63.921875
L 10.984375 60.40625
L 10.984375 69.390625
L 28.421875 72.90625
L 38.28125 72.90625
L 38.28125 8.296875
L 54.390625 8.296875
L 54.390625 0
L 12.40625 0
z
" id="DejaVuSans-49"/>
        <path d="M 37.796875 64.3125
L 12.890625 25.390625
L 37.796875 25.390625
z
M 35.203125 72.90625
L 47.609375 72.90625
L 47.609375 25.390625
L 58.015625 25.390625
L 58.015625 17.1875
L 47.609375 17.1875
L 47.609375 0
L 37.796875 0
L 37.796875 17.1875
L 4.890625 17.1875
L 4.890625 26.703125
z
" id="DejaVuSans-52"/>
        <path d="M 8.203125 72.90625
L 55.078125 72.90625
L 55.078125 68.703125
L 28.609375 0
L 18.3125 0
L 43.21875 64.59375
L 8.203125 64.59375
z
" id="DejaVuSans-55"/>
       </defs>
       <use xlink:href="#DejaVuSans-49"/>
       <use x="63.623047" xlink:href="#DejaVuSans-52"/>
       <use x="127.246094" xlink:href="#DejaVuSans-55"/>
      </g>
     </g>
    </g>
    <g id="xtick_2">
     <g id="line2d_4">
      <g>
       <use style="fill:#696969;stroke:#696969;stroke-width:0.8;" x="227.631578" xlink:href="#m4f1bb8ef8e" y="189"/>
      </g>
     </g>
     <g id="text_2">
      <!-- 174 -->
      <g style="fill:#696969;" transform="translate(218.087828 201.598437)scale(0.1 -0.1)">
       <use xlink:href="#DejaVuSans-49"/>
       <use x="63.623047" xlink:href="#DejaVuSans-55"/>
       <use x="127.246094" xlink:href="#DejaVuSans-52"/>
      </g>
     </g>
    </g>
    <g id="xtick_3">
     <g id="line2d_5">
      <g>
       <use style="fill:#696969;stroke:#696969;stroke-width:0.8;" x="362.972248" xlink:href="#m4f1bb8ef8e" y="189"/>
      </g>
     </g>
     <g id="text_3">
      <!-- 202 -->
      <g style="fill:#696969;" transform="translate(353.428498 201.598437)scale(0.1 -0.1)">
       <defs>
        <path d="M 19.1875 8.296875
L 53.609375 8.296875
L 53.609375 0
L 7.328125 0
L 7.328125 8.296875
Q 12.9375 14.109375 22.625 23.890625
Q 32.328125 33.6875 34.8125 36.53125
Q 39.546875 41.84375 41.421875 45.53125
Q 43.3125 49.21875 43.3125 52.78125
Q 43.3125 58.59375 39.234375 62.25
Q 35.15625 65.921875 28.609375 65.921875
Q 23.96875 65.921875 18.8125 64.3125
Q 13.671875 62.703125 7.8125 59.421875
L 7.8125 69.390625
Q 13.765625 71.78125 18.9375 73
Q 24.125 74.21875 28.421875 74.21875
Q 39.75 74.21875 46.484375 68.546875
Q 53.21875 62.890625 53.21875 53.421875
Q 53.21875 48.921875 51.53125 44.890625
Q 49.859375 40.875 45.40625 35.40625
Q 44.1875 33.984375 37.640625 27.21875
Q 31.109375 20.453125 19.1875 8.296875
z
" id="DejaVuSans-50"/>
        <path d="M 31.78125 66.40625
Q 24.171875 66.40625 20.328125 58.90625
Q 16.5 51.421875 16.5 36.375
Q 16.5 21.390625 20.328125 13.890625
Q 24.171875 6.390625 31.78125 6.390625
Q 39.453125 6.390625 43.28125 13.890625
Q 47.125 21.390625 47.125 36.375
Q 47.125 51.421875 43.28125 58.90625
Q 39.453125 66.40625 31.78125 66.40625
z
M 31.78125 74.21875
Q 44.046875 74.21875 50.515625 64.515625
Q 56.984375 54.828125 56.984375 36.375
Q 56.984375 17.96875 50.515625 8.265625
Q 44.046875 -1.421875 31.78125 -1.421875
Q 19.53125 -1.421875 13.0625 8.265625
Q 6.59375 17.96875 6.59375 36.375
Q 6.59375 54.828125 13.0625 64.515625
Q 19.53125 74.21875 31.78125 74.21875
z
" id="DejaVuSans-48"/>
       </defs>
       <use xlink:href="#DejaVuSans-50"/>
       <use x="63.623047" xlink:href="#DejaVuSans-48"/>
       <use x="127.246094" xlink:href="#DejaVuSans-50"/>
      </g>
     </g>
    </g>
    <g id="xtick_4">
     <g id="line2d_6">
      <g>
       <use style="fill:#696969;stroke:#696969;stroke-width:0.8;" x="498.312917" xlink:href="#m4f1bb8ef8e" y="189"/>
      </g>
     </g>
     <g id="text_4">
      <!-- 230 -->
      <g style="fill:#696969;" transform="translate(488.769167 201.598437)scale(0.1 -0.1)">
       <defs>
        <path d="M 40.578125 39.3125
Q 47.65625 37.796875 51.625 33
Q 55.609375 28.21875 55.609375 21.1875
Q 55.609375 10.40625 48.1875 4.484375
Q 40.765625 -1.421875 27.09375 -1.421875
Q 22.515625 -1.421875 17.65625 -0.515625
Q 12.796875 0.390625 7.625 2.203125
L 7.625 11.71875
Q 11.71875 9.328125 16.59375 8.109375
Q 21.484375 6.890625 26.8125 6.890625
Q 36.078125 6.890625 40.9375 10.546875
Q 45.796875 14.203125 45.796875 21.1875
Q 45.796875 27.640625 41.28125 31.265625
Q 36.765625 34.90625 28.71875 34.90625
L 20.21875 34.90625
L 20.21875 43.015625
L 29.109375 43.015625
Q 36.375 43.015625 40.234375 45.921875
Q 44.09375 48.828125 44.09375 54.296875
Q 44.09375 59.90625 40.109375 62.90625
Q 36.140625 65.921875 28.71875 65.921875
Q 24.65625 65.921875 20.015625 65.03125
Q 15.375 64.15625 9.8125 62.3125
L 9.8125 71.09375
Q 15.4375 72.65625 20.34375 73.4375
Q 25.25 74.21875 29.59375 74.21875
Q 40.828125 74.21875 47.359375 69.109375
Q 53.90625 64.015625 53.90625 55.328125
Q 53.90625 49.265625 50.4375 45.09375
Q 46.96875 40.921875 40.578125 39.3125
z
" id="DejaVuSans-51"/>
       </defs>
       <use xlink:href="#DejaVuSans-50"/>
       <use x="63.623047" xlink:href="#DejaVuSans-51"/>
       <use x="127.246094" xlink:href="#DejaVuSans-48"/>
      </g>
     </g>
    </g>
    <g id="text_5">
     <!-- Days -->
     <g style="fill:#696969;" transform="translate(282.721875 215.276563)scale(0.1 -0.1)">
      <defs>
       <path d="M 19.671875 64.796875
L 19.671875 8.109375
L 31.59375 8.109375
Q 46.6875 8.109375 53.6875 14.9375
Q 60.6875 21.78125 60.6875 36.53125
Q 60.6875 51.171875 53.6875 57.984375
Q 46.6875 64.796875 31.59375 64.796875
z
M 9.8125 72.90625
L 30.078125 72.90625
Q 51.265625 72.90625 61.171875 64.09375
Q 71.09375 55.28125 71.09375 36.53125
Q 71.09375 17.671875 61.125 8.828125
Q 51.171875 0 30.078125 0
L 9.8125 0
z
" id="DejaVuSans-68"/>
       <path d="M 34.28125 27.484375
Q 23.390625 27.484375 19.1875 25
Q 14.984375 22.515625 14.984375 16.5
Q 14.984375 11.71875 18.140625 8.90625
Q 21.296875 6.109375 26.703125 6.109375
Q 34.1875 6.109375 38.703125 11.40625
Q 43.21875 16.703125 43.21875 25.484375
L 43.21875 27.484375
z
M 52.203125 31.203125
L 52.203125 0
L 43.21875 0
L 43.21875 8.296875
Q 40.140625 3.328125 35.546875 0.953125
Q 30.953125 -1.421875 24.3125 -1.421875
Q 15.921875 -1.421875 10.953125 3.296875
Q 6 8.015625 6 15.921875
Q 6 25.140625 12.171875 29.828125
Q 18.359375 34.515625 30.609375 34.515625
L 43.21875 34.515625
L 43.21875 35.40625
Q 43.21875 41.609375 39.140625 45
Q 35.0625 48.390625 27.6875 48.390625
Q 23 48.390625 18.546875 47.265625
Q 14.109375 46.140625 10.015625 43.890625
L 10.015625 52.203125
Q 14.9375 54.109375 19.578125 55.046875
Q 24.21875 56 28.609375 56
Q 40.484375 56 46.34375 49.84375
Q 52.203125 43.703125 52.203125 31.203125
z
" id="DejaVuSans-97"/>
       <path d="M 32.171875 -5.078125
Q 28.375 -14.84375 24.75 -17.8125
Q 21.140625 -20.796875 15.09375 -20.796875
L 7.90625 -20.796875
L 7.90625 -13.28125
L 13.1875 -13.28125
Q 16.890625 -13.28125 18.9375 -11.515625
Q 21 -9.765625 23.484375 -3.21875
L 25.09375 0.875
L 2.984375 54.6875
L 12.5 54.6875
L 29.59375 11.921875
L 46.6875 54.6875
L 56.203125 54.6875
z
" id="DejaVuSans-121"/>
       <path d="M 44.28125 53.078125
L 44.28125 44.578125
Q 40.484375 46.53125 36.375 47.5
Q 32.28125 48.484375 27.875 48.484375
Q 21.1875 48.484375 17.84375 46.4375
Q 14.5 44.390625 14.5 40.28125
Q 14.5 37.15625 16.890625 35.375
Q 19.28125 33.59375 26.515625 31.984375
L 29.59375 31.296875
Q 39.15625 29.25 43.1875 25.515625
Q 47.21875 21.78125 47.21875 15.09375
Q 47.21875 7.46875 41.1875 3.015625
Q 35.15625 -1.421875 24.609375 -1.421875
Q 20.21875 -1.421875 15.453125 -0.5625
Q 10.6875 0.296875 5.421875 2
L 5.421875 11.28125
Q 10.40625 8.6875 15.234375 7.390625
Q 20.0625 6.109375 24.8125 6.109375
Q 31.15625 6.109375 34.5625 8.28125
Q 37.984375 10.453125 37.984375 14.40625
Q 37.984375 18.0625 35.515625 20.015625
Q 33.0625 21.96875 24.703125 23.78125
L 21.578125 24.515625
Q 13.234375 26.265625 9.515625 29.90625
Q 5.8125 33.546875 5.8125 39.890625
Q 5.8125 47.609375 11.28125 51.796875
Q 16.75 56 26.8125 56
Q 31.78125 56 36.171875 55.265625
Q 40.578125 54.546875 44.28125 53.078125
z
" id="DejaVuSans-115"/>
      </defs>
      <use xlink:href="#DejaVuSans-68"/>
      <use x="77.001953" xlink:href="#DejaVuSans-97"/>
      <use x="138.28125" xlink:href="#DejaVuSans-121"/>
      <use x="197.460938" xlink:href="#DejaVuSans-115"/>
     </g>
    </g>
   </g>
   <g id="matplotlib.axis_2">
    <g id="ytick_1">
     <g id="line2d_7">
      <path clip-path="url(#pf14eb7a0c7)" d="M 72 160.906844
L 518.4 160.906844
" style="fill:none;stroke:#b0b0b0;stroke-linecap:square;stroke-width:0.8;"/>
     </g>
     <g id="line2d_8">
      <defs>
       <path d="M 0 0
L -1 0
" id="m9afc8dcb75" style="stroke:#696969;stroke-width:0.2;"/>
      </defs>
      <g>
       <use style="fill:#696969;stroke:#696969;stroke-width:0.2;" x="72" xlink:href="#m9afc8dcb75" y="160.906844"/>
      </g>
     </g>
     <g id="text_6">
      <!-- 20 -->
      <g style="fill:#696969;" transform="translate(54.775 164.706062)scale(0.1 -0.1)">
       <use xlink:href="#DejaVuSans-50"/>
       <use x="63.623047" xlink:href="#DejaVuSans-48"/>
      </g>
     </g>
    </g>
    <g id="ytick_2">
     <g id="line2d_9">
      <path clip-path="url(#pf14eb7a0c7)" d="M 72 123.402954
L 518.4 123.402954
" style="fill:none;stroke:#b0b0b0;stroke-linecap:square;stroke-width:0.8;"/>
     </g>
     <g id="line2d_10">
      <g>
       <use style="fill:#696969;stroke:#696969;stroke-width:0.2;" x="72" xlink:href="#m9afc8dcb75" y="123.402954"/>
      </g>
     </g>
     <g id="text_7">
      <!-- 40 -->
      <g style="fill:#696969;" transform="translate(54.775 127.202173)scale(0.1 -0.1)">
       <use xlink:href="#DejaVuSans-52"/>
       <use x="63.623047" xlink:href="#DejaVuSans-48"/>
      </g>
     </g>
    </g>
    <g id="ytick_3">
     <g id="line2d_11">
      <path clip-path="url(#pf14eb7a0c7)" d="M 72 85.899065
L 518.4 85.899065
" style="fill:none;stroke:#b0b0b0;stroke-linecap:square;stroke-width:0.8;"/>
     </g>
     <g id="line2d_12">
      <g>
       <use style="fill:#696969;stroke:#696969;stroke-width:0.2;" x="72" xlink:href="#m9afc8dcb75" y="85.899065"/>
      </g>
     </g>
     <g id="text_8">
      <!-- 60 -->
      <g style="fill:#696969;" transform="translate(54.775 89.698284)scale(0.1 -0.1)">
       <defs>
        <path d="M 33.015625 40.375
Q 26.375 40.375 22.484375 35.828125
Q 18.609375 31.296875 18.609375 23.390625
Q 18.609375 15.53125 22.484375 10.953125
Q 26.375 6.390625 33.015625 6.390625
Q 39.65625 6.390625 43.53125 10.953125
Q 47.40625 15.53125 47.40625 23.390625
Q 47.40625 31.296875 43.53125 35.828125
Q 39.65625 40.375 33.015625 40.375
z
M 52.59375 71.296875
L 52.59375 62.3125
Q 48.875 64.0625 45.09375 64.984375
Q 41.3125 65.921875 37.59375 65.921875
Q 27.828125 65.921875 22.671875 59.328125
Q 17.53125 52.734375 16.796875 39.40625
Q 19.671875 43.65625 24.015625 45.921875
Q 28.375 48.1875 33.59375 48.1875
Q 44.578125 48.1875 50.953125 41.515625
Q 57.328125 34.859375 57.328125 23.390625
Q 57.328125 12.15625 50.6875 5.359375
Q 44.046875 -1.421875 33.015625 -1.421875
Q 20.359375 -1.421875 13.671875 8.265625
Q 6.984375 17.96875 6.984375 36.375
Q 6.984375 53.65625 15.1875 63.9375
Q 23.390625 74.21875 37.203125 74.21875
Q 40.921875 74.21875 44.703125 73.484375
Q 48.484375 72.75 52.59375 71.296875
z
" id="DejaVuSans-54"/>
       </defs>
       <use xlink:href="#DejaVuSans-54"/>
       <use x="63.623047" xlink:href="#DejaVuSans-48"/>
      </g>
     </g>
    </g>
    <g id="ytick_4">
     <g id="line2d_13">
      <path clip-path="url(#pf14eb7a0c7)" d="M 72 48.395176
L 518.4 48.395176
" style="fill:none;stroke:#b0b0b0;stroke-linecap:square;stroke-width:0.8;"/>
     </g>
     <g id="line2d_14">
      <g>
       <use style="fill:#696969;stroke:#696969;stroke-width:0.2;" x="72" xlink:href="#m9afc8dcb75" y="48.395176"/>
      </g>
     </g>
     <g id="text_9">
      <!-- 80 -->
      <g style="fill:#696969;" transform="translate(54.775 52.194395)scale(0.1 -0.1)">
       <defs>
        <path d="M 31.78125 34.625
Q 24.75 34.625 20.71875 30.859375
Q 16.703125 27.09375 16.703125 20.515625
Q 16.703125 13.921875 20.71875 10.15625
Q 24.75 6.390625 31.78125 6.390625
Q 38.8125 6.390625 42.859375 10.171875
Q 46.921875 13.96875 46.921875 20.515625
Q 46.921875 27.09375 42.890625 30.859375
Q 38.875 34.625 31.78125 34.625
z
M 21.921875 38.8125
Q 15.578125 40.375 12.03125 44.71875
Q 8.5 49.078125 8.5 55.328125
Q 8.5 64.0625 14.71875 69.140625
Q 20.953125 74.21875 31.78125 74.21875
Q 42.671875 74.21875 48.875 69.140625
Q 55.078125 64.0625 55.078125 55.328125
Q 55.078125 49.078125 51.53125 44.71875
Q 48 40.375 41.703125 38.8125
Q 48.828125 37.15625 52.796875 32.3125
Q 56.78125 27.484375 56.78125 20.515625
Q 56.78125 9.90625 50.3125 4.234375
Q 43.84375 -1.421875 31.78125 -1.421875
Q 19.734375 -1.421875 13.25 4.234375
Q 6.78125 9.90625 6.78125 20.515625
Q 6.78125 27.484375 10.78125 32.3125
Q 14.796875 37.15625 21.921875 38.8125
z
M 18.3125 54.390625
Q 18.3125 48.734375 21.84375 45.5625
Q 25.390625 42.390625 31.78125 42.390625
Q 38.140625 42.390625 41.71875 45.5625
Q 45.3125 48.734375 45.3125 54.390625
Q 45.3125 60.0625 41.71875 63.234375
Q 38.140625 66.40625 31.78125 66.40625
Q 25.390625 66.40625 21.84375 63.234375
Q 18.3125 60.0625 18.3125 54.390625
z
" id="DejaVuSans-56"/>
       </defs>
       <use xlink:href="#DejaVuSans-56"/>
       <use x="63.623047" xlink:href="#DejaVuSans-48"/>
      </g>
     </g>
    </g>
    <g id="text_10">
     <!-- Gsto_l (mmol/m^2/s) -->
     <g style="fill:#696969;" transform="translate(48.417187 160.742031)rotate(-90)scale(0.1 -0.1)">
      <defs>
       <path d="M 59.515625 10.40625
L 59.515625 29.984375
L 43.40625 29.984375
L 43.40625 38.09375
L 69.28125 38.09375
L 69.28125 6.78125
Q 63.578125 2.734375 56.6875 0.65625
Q 49.8125 -1.421875 42 -1.421875
Q 24.90625 -1.421875 15.25 8.5625
Q 5.609375 18.5625 5.609375 36.375
Q 5.609375 54.25 15.25 64.234375
Q 24.90625 74.21875 42 74.21875
Q 49.125 74.21875 55.546875 72.453125
Q 61.96875 70.703125 67.390625 67.28125
L 67.390625 56.78125
Q 61.921875 61.421875 55.765625 63.765625
Q 49.609375 66.109375 42.828125 66.109375
Q 29.4375 66.109375 22.71875 58.640625
Q 16.015625 51.171875 16.015625 36.375
Q 16.015625 21.625 22.71875 14.15625
Q 29.4375 6.6875 42.828125 6.6875
Q 48.046875 6.6875 52.140625 7.59375
Q 56.25 8.5 59.515625 10.40625
z
" id="DejaVuSans-71"/>
       <path d="M 18.3125 70.21875
L 18.3125 54.6875
L 36.8125 54.6875
L 36.8125 47.703125
L 18.3125 47.703125
L 18.3125 18.015625
Q 18.3125 11.328125 20.140625 9.421875
Q 21.96875 7.515625 27.59375 7.515625
L 36.8125 7.515625
L 36.8125 0
L 27.59375 0
Q 17.1875 0 13.234375 3.875
Q 9.28125 7.765625 9.28125 18.015625
L 9.28125 47.703125
L 2.6875 47.703125
L 2.6875 54.6875
L 9.28125 54.6875
L 9.28125 70.21875
z
" id="DejaVuSans-116"/>
       <path d="M 30.609375 48.390625
Q 23.390625 48.390625 19.1875 42.75
Q 14.984375 37.109375 14.984375 27.296875
Q 14.984375 17.484375 19.15625 11.84375
Q 23.34375 6.203125 30.609375 6.203125
Q 37.796875 6.203125 41.984375 11.859375
Q 46.1875 17.53125 46.1875 27.296875
Q 46.1875 37.015625 41.984375 42.703125
Q 37.796875 48.390625 30.609375 48.390625
z
M 30.609375 56
Q 42.328125 56 49.015625 48.375
Q 55.71875 40.765625 55.71875 27.296875
Q 55.71875 13.875 49.015625 6.21875
Q 42.328125 -1.421875 30.609375 -1.421875
Q 18.84375 -1.421875 12.171875 6.21875
Q 5.515625 13.875 5.515625 27.296875
Q 5.515625 40.765625 12.171875 48.375
Q 18.84375 56 30.609375 56
z
" id="DejaVuSans-111"/>
       <path d="M 50.984375 -16.609375
L 50.984375 -23.578125
L -0.984375 -23.578125
L -0.984375 -16.609375
z
" id="DejaVuSans-95"/>
       <path d="M 9.421875 75.984375
L 18.40625 75.984375
L 18.40625 0
L 9.421875 0
z
" id="DejaVuSans-108"/>
       <path id="DejaVuSans-32"/>
       <path d="M 31 75.875
Q 24.46875 64.65625 21.28125 53.65625
Q 18.109375 42.671875 18.109375 31.390625
Q 18.109375 20.125 21.3125 9.0625
Q 24.515625 -2 31 -13.1875
L 23.1875 -13.1875
Q 15.875 -1.703125 12.234375 9.375
Q 8.59375 20.453125 8.59375 31.390625
Q 8.59375 42.28125 12.203125 53.3125
Q 15.828125 64.359375 23.1875 75.875
z
" id="DejaVuSans-40"/>
       <path d="M 52 44.1875
Q 55.375 50.25 60.0625 53.125
Q 64.75 56 71.09375 56
Q 79.640625 56 84.28125 50.015625
Q 88.921875 44.046875 88.921875 33.015625
L 88.921875 0
L 79.890625 0
L 79.890625 32.71875
Q 79.890625 40.578125 77.09375 44.375
Q 74.3125 48.1875 68.609375 48.1875
Q 61.625 48.1875 57.5625 43.546875
Q 53.515625 38.921875 53.515625 30.90625
L 53.515625 0
L 44.484375 0
L 44.484375 32.71875
Q 44.484375 40.625 41.703125 44.40625
Q 38.921875 48.1875 33.109375 48.1875
Q 26.21875 48.1875 22.15625 43.53125
Q 18.109375 38.875 18.109375 30.90625
L 18.109375 0
L 9.078125 0
L 9.078125 54.6875
L 18.109375 54.6875
L 18.109375 46.1875
Q 21.1875 51.21875 25.484375 53.609375
Q 29.78125 56 35.6875 56
Q 41.65625 56 45.828125 52.96875
Q 50 49.953125 52 44.1875
z
" id="DejaVuSans-109"/>
       <path d="M 25.390625 72.90625
L 33.6875 72.90625
L 8.296875 -9.28125
L 0 -9.28125
z
" id="DejaVuSans-47"/>
       <path d="M 46.6875 72.90625
L 73.1875 45.703125
L 63.375 45.703125
L 41.890625 64.984375
L 20.40625 45.703125
L 10.59375 45.703125
L 37.109375 72.90625
z
" id="DejaVuSans-94"/>
       <path d="M 8.015625 75.875
L 15.828125 75.875
Q 23.140625 64.359375 26.78125 53.3125
Q 30.421875 42.28125 30.421875 31.390625
Q 30.421875 20.453125 26.78125 9.375
Q 23.140625 -1.703125 15.828125 -13.1875
L 8.015625 -13.1875
Q 14.5 -2 17.703125 9.0625
Q 20.90625 20.125 20.90625 31.390625
Q 20.90625 42.671875 17.703125 53.65625
Q 14.5 64.65625 8.015625 75.875
z
" id="DejaVuSans-41"/>
      </defs>
      <use xlink:href="#DejaVuSans-71"/>
      <use x="77.490234" xlink:href="#DejaVuSans-115"/>
      <use x="129.589844" xlink:href="#DejaVuSans-116"/>
      <use x="168.798828" xlink:href="#DejaVuSans-111"/>
      <use x="229.980469" xlink:href="#DejaVuSans-95"/>
      <use x="279.980469" xlink:href="#DejaVuSans-108"/>
      <use x="307.763672" xlink:href="#DejaVuSans-32"/>
      <use x="339.550781" xlink:href="#DejaVuSans-40"/>
      <use x="378.564453" xlink:href="#DejaVuSans-109"/>
      <use x="475.976562" xlink:href="#DejaVuSans-109"/>
      <use x="573.388672" xlink:href="#DejaVuSans-111"/>
      <use x="634.570312" xlink:href="#DejaVuSans-108"/>
      <use x="662.353516" xlink:href="#DejaVuSans-47"/>
      <use x="696.044922" xlink:href="#DejaVuSans-109"/>
      <use x="793.457031" xlink:href="#DejaVuSans-94"/>
      <use x="877.246094" xlink:href="#DejaVuSans-50"/>
      <use x="940.869141" xlink:href="#DejaVuSans-47"/>
      <use x="974.560547" xlink:href="#DejaVuSans-115"/>
      <use x="1026.660156" xlink:href="#DejaVuSans-41"/>
     </g>
    </g>
   </g>
   <g id="line2d_15">
    <path clip-path="url(#pf14eb7a0c7)" d="M 92.290909 177.609922
L 93.106214 177.640795
L 93.310041 177.176922
L 93.513867 172.170912
L 94.532998 120.001031
L 95.959783 66.843485
L 96.163609 66.219593
L 96.978914 66.358861
L 98.201872 66.337383
L 98.609525 69.381274
L 98.813351 71.924181
L 99.017177 72.826614
L 99.42483 75.284042
L 99.628656 73.860272
L 99.832483 74.070649
L 100.647788 71.471174
L 100.851614 70.569949
L 101.05544 70.346315
L 102.686051 70.857563
L 103.093703 71.024105
L 103.29753 70.26406
L 103.705182 73.308574
L 104.92814 60.796164
L 105.131967 61.179689
L 105.335793 60.946882
L 105.539619 61.079562
L 105.743446 60.058409
L 105.947272 59.807318
L 107.781709 59.545872
L 107.985535 59.305657
L 108.189361 58.262558
L 108.597014 50.699475
L 109.208493 47.957755
L 109.819972 53.233813
L 110.227624 47.794757
L 110.431451 45.910379
L 110.635277 46.031404
L 112.67354 45.831465
L 112.877366 45.808847
L 113.081193 45.044685
L 113.488845 45.463216
L 113.692672 45.115198
L 114.100324 43.939898
L 114.711803 39.241168
L 114.915629 40.370634
L 115.323282 41.155326
L 115.527108 42.001732
L 116.342414 41.948646
L 117.565371 41.935445
L 117.769198 41.871445
L 118.380677 43.608422
L 118.992156 47.438083
L 120.215113 45.827796
L 120.622766 45.537286
L 122.457203 45.589991
L 122.661029 45.519426
L 122.864855 44.867173
L 123.068682 43.587194
L 123.272508 43.572704
L 123.476334 43.824824
L 123.680161 43.56068
L 123.883987 43.714816
L 125.106945 61.312702
L 125.310771 62.417147
L 125.514598 62.672248
L 127.349034 62.684628
L 127.552861 63.455045
L 127.756687 70.000814
L 128.775818 125.574297
L 130.202603 177.823584
L 130.406429 178.90362
L 132.037039 178.849456
L 132.240866 178.822764
L 132.444692 177.918019
L 132.648518 171.709127
L 133.463824 121.261383
L 134.482955 63.639859
L 134.890608 42.087851
L 135.094434 35.113297
L 135.29826 33.335794
L 136.725045 33.423806
L 137.336523 33.581791
L 137.744176 34.161308
L 137.948002 34.261692
L 138.355655 37.976323
L 138.559481 39.742873
L 138.763308 39.504028
L 138.967134 38.996453
L 139.17096 38.878145
L 139.374787 38.213806
L 139.782439 38.383228
L 139.986265 37.862003
L 140.801571 37.979196
L 142.228355 38.076908
L 142.432181 37.994956
L 142.636007 38.339499
L 142.839834 39.097224
L 143.247486 38.123146
L 143.451313 38.021696
L 143.655139 38.582988
L 144.266618 42.43884
L 144.878097 46.586086
L 145.081923 46.731001
L 147.120186 46.171787
L 147.324013 47.344776
L 147.527839 47.281566
L 147.731665 48.082938
L 149.158449 68.537601
L 149.566102 73.986036
L 149.769928 75.107094
L 149.973755 75.473494
L 151.400539 75.55974
L 151.808191 75.590536
L 152.012018 75.851272
L 152.215844 77.152613
L 152.827323 84.880515
L 153.438802 90.205514
L 153.846454 95.133539
L 154.457933 105.684339
L 154.66176 105.930218
L 156.903849 106.435705
L 157.107675 106.109897
L 157.311502 106.529105
L 157.515328 106.579635
L 157.719154 107.398479
L 158.126807 110.661676
L 158.738286 103.74215
L 159.349765 93.374106
L 160.776549 93.140566
L 161.591854 93.13951
L 161.795681 92.89096
L 161.999507 91.648568
L 163.018638 77.850169
L 164.241596 80.125821
L 164.445423 79.83032
L 165.056902 79.799759
L 166.687512 79.574953
L 167.502817 82.434707
L 167.91047 85.282749
L 168.318122 86.142748
L 168.725775 89.004664
L 169.133428 91.969761
L 169.337254 92.881241
L 169.744907 92.973568
L 171.579343 93.01728
L 171.78317 93.400159
L 172.394649 95.616326
L 172.598475 95.615491
L 172.802301 95.840468
L 173.006128 95.669383
L 173.209954 95.900995
L 173.41378 95.10344
L 174.025259 89.515263
L 174.229085 88.664798
L 174.432912 88.438487
L 175.859696 88.73102
L 176.471175 88.796085
L 176.878827 86.970576
L 177.694133 81.25109
L 177.897959 81.151501
L 178.101785 80.49436
L 178.305612 80.314807
L 178.713264 81.606014
L 179.120917 82.483938
L 179.324743 82.617036
L 180.547701 82.355444
L 181.363006 82.248915
L 181.974485 86.13785
L 182.78979 92.163711
L 183.197443 94.202231
L 184.012748 95.512764
L 186.254838 95.551905
L 186.866317 94.020761
L 187.273969 92.100498
L 188.90458 86.039017
L 189.312232 85.82162
L 191.146669 85.552583
L 191.350495 85.637131
L 191.554322 85.363841
L 191.758148 84.73937
L 191.961974 84.809652
L 192.369627 85.336657
L 192.573453 83.712557
L 192.981106 82.316701
L 193.388759 82.294494
L 193.592585 83.312607
L 194.000237 82.349815
L 195.019369 82.493985
L 196.038501 82.679052
L 196.853806 77.956952
L 197.261458 73.731545
L 197.465285 74.128522
L 197.872937 72.66904
L 198.484416 65.988607
L 198.688243 66.687829
L 199.095895 66.848892
L 200.930332 66.953819
L 201.337985 68.889362
L 202.15329 74.314577
L 202.764769 76.674273
L 203.376248 81.744889
L 203.580074 81.634894
L 203.7839 81.769104
L 206.02599 81.62175
L 206.433642 81.29909
L 206.841295 82.763784
L 207.248948 84.770405
L 208.064253 88.458367
L 208.268079 89.107295
L 208.675732 89.364012
L 210.713995 89.604262
L 210.917821 89.92402
L 211.325474 97.089199
L 211.936953 94.478788
L 212.548432 91.510107
L 213.159911 96.353541
L 213.363737 95.726043
L 213.567563 95.473721
L 215.605826 95.369678
L 215.809653 93.79607
L 216.217305 85.108306
L 216.828784 92.246004
L 217.03261 91.536923
L 217.440263 89.222757
L 218.051742 79.073915
L 219.682352 78.641245
L 220.497658 78.567265
L 220.701484 79.499477
L 220.90531 79.497538
L 221.109137 79.847901
L 221.516789 75.156135
L 221.720615 72.970065
L 223.1474 82.045887
L 223.351226 82.297818
L 225.797142 82.484995
L 226.000968 82.472495
L 226.204794 83.237272
L 226.612447 83.69108
L 227.223926 85.147874
L 227.631578 86.319905
L 227.835405 86.737263
L 228.446884 86.972848
L 230.28132 87.212794
L 230.688973 89.770495
L 230.892799 91.834724
L 231.096626 92.344936
L 231.504278 95.468589
L 232.52341 98.807741
L 232.931063 99.459662
L 233.338715 99.535645
L 235.173152 99.540309
L 235.376978 98.976874
L 235.580805 98.893096
L 235.784631 99.300926
L 236.192283 98.885916
L 236.599936 97.479854
L 238.02672 92.37224
L 240.064983 92.331141
L 240.26881 92.617929
L 240.880289 105.1438
L 241.287941 112.245747
L 241.89942 119.637737
L 242.510899 128.033769
L 242.714725 130.131701
L 243.122378 129.87682
L 244.549162 129.457059
L 244.956815 129.417071
L 246.587425 150.867511
L 247.606557 163.837818
L 247.810383 164.700998
L 248.829515 164.830732
L 249.64482 164.980421
L 249.848646 165.507139
L 252.906041 178.106215
L 256.778741 178.06529
L 259.224656 178.0588
L 260.243788 178.139514
L 261.874398 178.342626
L 263.097356 178.49339
L 265.135619 178.841953
L 266.562404 178.784228
L 274.307803 178.737856
L 276.14224 178.610402
L 280.626419 178.727506
L 283.683814 178.881627
L 285.722077 178.910224
L 290.002429 179.42029
L 292.040692 179.620866
L 300.601397 179.592388
L 302.028181 179.70638
L 303.251139 179.921238
L 304.270271 180.08185
L 309.365928 179.559977
L 310.181234 179.633339
L 311.608018 179.814942
L 314.053934 179.724215
L 316.703676 180.062217
L 319.149591 180.502145
L 322.00316 180.382922
L 325.468207 180.349241
L 326.283512 180.505309
L 327.50647 180.967233
L 328.729428 181.309791
L 330.360038 181.405763
L 331.37917 181.290769
L 335.048043 180.584947
L 338.105438 179.989904
L 340.347528 180.026907
L 342.589617 180.055819
L 343.608748 179.943103
L 344.62788 180.005598
L 346.054664 180.090514
L 348.704406 180.14045
L 350.335017 180.203371
L 354.00389 180.085293
L 361.545464 180.674723
L 362.768422 180.934612
L 363.3799 180.858121
L 364.602858 180.733653
L 367.2526 180.968704
L 368.883211 181.268711
L 369.698516 181.228441
L 370.513821 181.159437
L 373.163563 181.090182
L 374.590347 181.035806
L 375.405653 180.974835
L 376.832437 180.640984
L 377.647742 180.49546
L 379.278353 180.596381
L 384.781663 181.238182
L 386.004621 180.974604
L 387.431405 180.740922
L 392.11941 180.864445
L 396.807415 180.295224
L 398.234199 180.434835
L 402.922204 180.802387
L 414.336478 181.235369
L 418.820657 180.815006
L 420.85892 180.862661
L 425.343098 180.86703
L 426.769883 180.961482
L 428.604319 180.761057
L 429.623451 180.731492
L 432.477019 180.821187
L 434.311456 180.686755
L 436.553546 180.278097
L 438.999461 179.773172
L 442.056856 179.442238
L 446.337208 179.341579
L 448.375471 179.882519
L 449.394603 180.435079
L 450.821387 181.191165
L 451.840519 181.383931
L 453.471129 181.576074
L 456.936176 180.799125
L 458.97444 180.388541
L 460.401224 180.213684
L 461.420355 180.086368
L 462.439487 180.152648
L 463.662445 180.055496
L 465.700708 179.816251
L 468.758102 180.167457
L 470.796365 180.583722
L 472.22315 180.782354
L 474.669065 180.983225
L 479.764723 181.021865
L 483.841249 181.019468
L 485.879512 181.076947
L 488.936907 180.661048
L 490.159865 180.519763
L 493.217259 180.695233
L 495.255523 180.943546
L 498.109091 181.095893
L 498.109091 181.095893
" style="fill:none;stroke:#2ca02c;stroke-linecap:square;stroke-width:0.8;"/>
   </g>
   <g id="patch_3">
    <path d="M 72 189
L 72 25.92
" style="fill:none;"/>
   </g>
   <g id="patch_4">
    <path d="M 518.4 189
L 518.4 25.92
" style="fill:none;"/>
   </g>
   <g id="patch_5">
    <path d="M 72 189
L 518.4 189
" style="fill:none;"/>
   </g>
   <g id="patch_6">
    <path d="M 72 25.92
L 518.4 25.92
" style="fill:none;"/>
   </g>
   <g id="line2d_16">
    <path clip-path="url(#pf14eb7a0c7)" d="M 92.290909 177.609922
L 93.106214 177.640795
L 93.310041 177.176922
L 93.513867 172.170912
L 94.532998 120.001031
L 95.959783 66.843485
L 96.163609 66.219593
L 96.978914 66.358861
L 98.201872 66.337384
L 98.609525 69.381274
L 98.813351 71.924181
L 99.017177 72.826614
L 99.42483 75.284042
L 99.628656 73.860272
L 99.832483 74.070649
L 100.647788 71.471174
L 100.851614 70.569949
L 101.05544 70.346315
L 102.686051 70.857563
L 103.093703 71.024105
L 103.29753 70.26406
L 103.705182 73.308574
L 104.92814 60.796164
L 105.131967 61.179689
L 105.335793 60.946882
L 105.539619 61.079562
L 105.743446 60.058409
L 105.947272 59.807318
L 107.781709 59.545872
L 107.985535 59.305657
L 108.189361 58.262558
L 108.597014 50.699475
L 109.208493 47.957755
L 109.819972 53.233808
L 110.227624 47.794753
L 110.431451 45.910375
L 110.635277 46.0314
L 112.67354 45.83146
L 112.877366 45.808842
L 113.081193 45.044681
L 113.488845 45.463211
L 113.692672 45.115193
L 114.100324 43.939893
L 114.711803 39.241168
L 114.915629 40.370634
L 115.323282 41.155326
L 115.527108 42.001732
L 116.342414 41.948646
L 117.565371 41.935445
L 117.769198 41.871445
L 118.380677 43.608422
L 118.992156 47.438083
L 120.215113 45.827796
L 120.622766 45.537286
L 122.457203 45.589991
L 122.661029 45.519426
L 122.864855 44.867173
L 123.068682 43.587194
L 123.272508 43.572704
L 123.476334 43.824824
L 123.680161 43.56068
L 123.883987 43.714816
L 125.106945 61.312703
L 125.310771 62.417147
L 125.514598 62.672248
L 127.349034 62.684628
L 127.552861 63.455045
L 127.756687 70.000814
L 128.775818 125.574297
L 130.202603 177.823584
L 130.406429 178.90362
L 132.037039 178.849456
L 132.240866 178.822764
L 132.444692 177.918019
L 132.648518 171.709127
L 133.463824 121.261383
L 134.482955 63.639859
L 134.890608 42.087851
L 135.094434 35.113297
L 135.29826 33.335794
L 136.725045 33.423806
L 137.336523 33.581791
L 137.744176 34.161308
L 137.948002 34.261692
L 138.355655 37.976323
L 138.559481 39.742873
L 138.763308 39.504028
L 138.967134 38.996453
L 139.17096 38.878145
L 139.374787 38.213806
L 139.782439 38.383228
L 139.986265 37.862003
L 140.801571 37.979196
L 142.228355 38.076908
L 142.432181 37.994956
L 142.636007 38.339499
L 142.839834 39.097224
L 143.247486 38.123146
L 143.451313 38.021696
L 143.655139 38.582988
L 144.266618 42.43884
L 144.878097 46.586086
L 145.081923 46.731001
L 147.120186 46.171787
L 147.324013 47.344776
L 147.527839 47.281566
L 147.731665 48.082938
L 149.158449 68.537601
L 149.566102 73.986036
L 149.769928 75.107094
L 149.973755 75.473494
L 151.400539 75.55974
L 151.808191 75.590536
L 152.012018 75.851272
L 152.215844 77.152613
L 152.827323 84.880516
L 153.438802 90.205515
L 153.846454 95.133539
L 154.457933 105.684339
L 154.66176 105.930218
L 156.903849 106.435705
L 157.107675 106.109897
L 157.311502 106.529105
L 157.515328 106.579635
L 157.719154 107.398479
L 158.126807 110.661676
L 158.738286 103.74215
L 159.349765 93.374106
L 160.776549 93.140566
L 161.591854 93.13951
L 161.795681 92.89096
L 161.999507 91.648568
L 163.018638 77.850169
L 164.241596 80.125821
L 164.445423 79.83032
L 165.056902 79.799759
L 166.687512 79.574953
L 167.502817 82.434707
L 167.91047 85.282749
L 168.318122 86.142748
L 168.725775 89.004664
L 169.133428 91.969761
L 169.337254 92.881241
L 169.744907 92.973568
L 171.579343 93.01728
L 171.78317 93.400159
L 172.394649 95.616326
L 172.598475 95.615491
L 172.802301 95.840468
L 173.006128 95.669383
L 173.209954 95.900995
L 173.41378 95.10344
L 174.025259 89.515263
L 174.229085 88.664798
L 174.432912 88.438487
L 175.859696 88.73102
L 176.471175 88.796085
L 176.878827 86.970576
L 177.694133 81.25109
L 177.897959 81.151501
L 178.101785 80.49436
L 178.305612 80.314807
L 178.713264 81.606014
L 179.120917 82.483938
L 179.324743 82.617036
L 180.547701 82.355444
L 181.363006 82.248915
L 181.974485 86.13785
L 182.78979 92.163711
L 183.197443 94.202231
L 184.012748 95.512764
L 186.254838 95.551905
L 186.866317 94.020761
L 187.273969 92.100498
L 188.90458 86.039017
L 189.312232 85.82162
L 191.146669 85.552583
L 191.350495 85.637131
L 191.554322 85.363841
L 191.758148 84.73937
L 191.961974 84.809652
L 192.369627 85.336657
L 192.573453 83.712557
L 192.981106 82.316701
L 193.388759 82.294494
L 193.592585 83.312607
L 194.000237 82.349815
L 195.019369 82.493985
L 196.038501 82.679052
L 196.853806 77.956952
L 197.261458 73.731545
L 197.465285 74.128522
L 197.872937 72.66904
L 198.484416 65.988607
L 198.688243 66.687829
L 199.095895 66.848892
L 200.930332 66.953819
L 201.337985 68.889363
L 202.15329 74.314578
L 202.764769 76.674273
L 203.376248 81.74489
L 203.580074 81.634894
L 203.7839 81.769104
L 206.02599 81.62175
L 206.433642 81.29909
L 206.841295 82.763784
L 207.248948 84.770405
L 208.064253 88.458367
L 208.268079 89.107295
L 208.675732 89.364012
L 210.713995 89.604262
L 210.917821 89.92402
L 211.325474 97.089199
L 211.936953 94.478788
L 212.548432 91.510108
L 213.159911 96.353541
L 213.363737 95.726043
L 213.567563 95.473721
L 215.605826 95.369679
L 215.809653 93.796071
L 216.217305 85.108306
L 216.828784 92.246004
L 217.03261 91.536924
L 217.440263 89.222757
L 218.051742 79.073915
L 219.682352 78.641245
L 220.497658 78.567265
L 220.701484 79.499477
L 220.90531 79.497538
L 221.109137 79.847901
L 221.516789 75.156135
L 221.720615 72.970065
L 223.1474 82.045887
L 223.351226 82.297818
L 225.797142 82.484995
L 226.000968 82.472495
L 226.204794 83.237272
L 226.612447 83.691081
L 227.223926 85.147874
L 227.631578 86.319906
L 227.835405 86.737264
L 228.446884 86.972849
L 230.28132 87.212794
L 230.688973 89.770495
L 230.892799 91.834724
L 231.096626 92.344936
L 231.504278 95.468588
L 232.52341 98.807745
L 232.931063 99.459666
L 233.338715 99.535649
L 235.173152 99.540313
L 235.376978 98.976878
L 236.192283 102.92301
L 236.39611 103.216975
L 236.599936 103.108135
L 237.007589 103.254937
L 237.211415 103.363642
L 237.415241 103.16016
L 237.822894 101.560702
L 238.02672 101.292529
L 240.064983 101.25143
L 240.26881 102.028322
L 240.880289 112.880873
L 241.491767 121.145773
L 242.307073 130.967894
L 242.714725 136.143992
L 243.122378 135.889112
L 244.549162 135.469351
L 244.956815 135.429363
L 246.791252 156.353146
L 247.606557 165.374662
L 247.810383 166.358426
L 248.829515 166.48816
L 249.64482 166.637849
L 250.052472 167.919665
L 251.071604 171.676686
L 252.702215 178.102525
L 254.536651 178.03449
L 256.167262 178.039089
L 259.224656 178.0588
L 260.243788 178.139514
L 261.874398 178.342626
L 263.097356 178.49339
L 265.135619 178.841953
L 266.562404 178.784228
L 274.307803 178.737856
L 276.14224 178.610402
L 280.626419 178.727506
L 283.683814 178.881627
L 285.722077 178.910224
L 290.002429 179.42029
L 292.040692 179.620866
L 300.601397 179.592388
L 302.028181 179.70638
L 303.251139 179.921238
L 304.270271 180.08185
L 309.365928 179.559977
L 310.181234 179.633339
L 311.608018 179.814942
L 314.053934 179.724215
L 316.703676 180.062217
L 319.149591 180.502145
L 322.00316 180.382922
L 325.468207 180.349241
L 326.283512 180.505309
L 327.50647 180.967233
L 328.729428 181.309791
L 330.360038 181.405763
L 331.37917 181.290769
L 335.048043 180.584947
L 338.105438 179.989904
L 340.347528 180.026907
L 342.589617 180.055819
L 343.608748 179.943103
L 344.62788 180.005598
L 346.054664 180.090514
L 348.704406 180.14045
L 350.335017 180.203371
L 354.00389 180.085293
L 361.545464 180.674723
L 362.768422 180.934612
L 363.3799 180.858121
L 364.602858 180.733653
L 367.2526 180.968704
L 368.883211 181.268711
L 369.698516 181.228441
L 370.513821 181.159437
L 373.163563 181.090182
L 374.590347 181.035806
L 375.405653 180.974835
L 376.832437 180.640984
L 377.647742 180.49546
L 379.278353 180.596381
L 384.781663 181.238182
L 386.004621 180.974604
L 387.431405 180.740922
L 392.11941 180.864445
L 396.807415 180.295224
L 398.234199 180.434835
L 402.922204 180.802387
L 414.336478 181.235369
L 418.820657 180.815006
L 420.85892 180.862661
L 425.343098 180.86703
L 426.769883 180.961482
L 428.604319 180.761057
L 429.623451 180.731492
L 432.477019 180.821187
L 434.311456 180.686755
L 436.553546 180.278097
L 438.999461 179.773172
L 442.056856 179.442238
L 446.337208 179.341579
L 448.375471 179.882519
L 449.394603 180.435079
L 450.821387 181.191165
L 451.840519 181.383931
L 453.471129 181.576074
L 456.936176 180.799125
L 458.97444 180.388541
L 460.401224 180.213684
L 461.420355 180.086368
L 462.439487 180.152648
L 463.662445 180.055496
L 465.700708 179.816251
L 468.758102 180.167457
L 470.796365 180.583722
L 472.22315 180.782354
L 474.669065 180.983225
L 479.764723 181.021865
L 483.841249 181.019468
L 485.879512 181.076947
L 488.936907 180.661048
L 490.159865 180.519763
L 493.217259 180.695233
L 495.255523 180.943546
L 498.109091 181.095893
L 498.109091 181.095893
" style="fill:none;stroke:#d62728;stroke-linecap:square;stroke-width:0.8;"/>
   </g>
   <g id="line2d_17">
    <path clip-path="url(#pf14eb7a0c7)" d="M 92.290909 177.609922
L 93.106214 177.640795
L 93.310041 177.176922
L 93.513867 172.170912
L 94.532998 120.001031
L 95.959783 66.843484
L 96.163609 66.219592
L 96.978914 66.358859
L 98.201872 66.337382
L 98.609525 69.381272
L 98.813351 71.924179
L 99.017177 72.826612
L 99.42483 75.28404
L 99.628656 73.860271
L 99.832483 74.070648
L 100.647788 71.471173
L 100.851614 70.56995
L 101.05544 70.346316
L 102.686051 70.857564
L 103.093703 71.024106
L 103.29753 70.264061
L 103.705182 73.308575
L 104.92814 60.796164
L 105.131967 61.179689
L 105.335793 60.946882
L 105.539619 61.079563
L 105.743446 60.058409
L 105.947272 59.807318
L 107.781709 59.545873
L 107.985535 59.305658
L 108.189361 58.262558
L 108.597014 50.699475
L 109.208493 47.957755
L 109.819972 53.233799
L 110.227624 47.794744
L 110.431451 45.910365
L 110.635277 46.031391
L 112.67354 45.831451
L 112.877366 45.808833
L 113.081193 45.044671
L 113.488845 45.463202
L 113.692672 45.115184
L 114.100324 43.939884
L 114.711803 39.241168
L 114.915629 40.370634
L 115.323282 41.155327
L 115.527108 42.001732
L 116.342414 41.948646
L 117.565371 41.935445
L 117.769198 41.871445
L 118.380677 43.608422
L 118.992156 47.438083
L 120.215113 45.827796
L 120.622766 45.537286
L 122.457203 45.589991
L 122.661029 45.519426
L 122.864855 44.867173
L 123.068682 43.587195
L 123.272508 43.572704
L 123.476334 43.824824
L 123.680161 43.56068
L 123.883987 43.714816
L 125.106945 61.312703
L 125.310771 62.417145
L 125.514598 62.672247
L 127.349034 62.684626
L 127.552861 63.455044
L 127.756687 70.000812
L 128.775818 125.574295
L 130.202603 177.823584
L 130.406429 178.90362
L 132.037039 178.849456
L 132.240866 178.822764
L 132.444692 177.918019
L 132.648518 171.709127
L 133.463824 121.261383
L 134.482955 63.639859
L 134.890608 42.087851
L 135.094434 35.113297
L 135.29826 33.335794
L 136.725045 33.423806
L 137.336523 33.581791
L 137.744176 34.161308
L 137.948002 34.261692
L 138.355655 37.976323
L 138.559481 39.742873
L 138.763308 39.504028
L 138.967134 38.996453
L 139.17096 38.878145
L 139.374787 38.213806
L 139.782439 38.383228
L 139.986265 37.862003
L 140.801571 37.979196
L 142.228355 38.076908
L 142.432181 37.994956
L 142.636007 38.339499
L 142.839834 39.097224
L 143.247486 38.123146
L 143.451313 38.021696
L 143.655139 38.582988
L 144.266618 42.43884
L 144.878097 46.586086
L 145.081923 46.731001
L 147.120186 46.171788
L 147.324013 47.344776
L 147.527839 47.281566
L 147.731665 48.082938
L 149.158449 68.537602
L 149.566102 73.986037
L 149.769928 75.107096
L 149.973755 75.473495
L 151.400539 75.559741
L 151.808191 75.590537
L 152.012018 75.851274
L 152.215844 77.152614
L 152.827323 84.880517
L 153.438802 90.205516
L 153.846454 95.133541
L 154.457933 105.68434
L 154.66176 105.930219
L 156.903849 106.435706
L 157.107675 106.109898
L 157.311502 106.529106
L 157.515328 106.579635
L 157.719154 107.39848
L 158.126807 110.661677
L 158.738286 103.742151
L 159.349765 93.374107
L 160.776549 93.140568
L 161.591854 93.139511
L 161.795681 92.890962
L 161.999507 91.648569
L 163.018638 77.850171
L 164.241596 80.125822
L 164.445423 79.830321
L 165.056902 79.79976
L 166.687512 79.574955
L 167.502817 82.434708
L 167.91047 85.282751
L 168.318122 86.142749
L 168.725775 89.004665
L 169.133428 91.969762
L 169.337254 92.881242
L 169.744907 92.973568
L 171.579343 93.017281
L 171.78317 93.40016
L 172.394649 95.616327
L 172.598475 95.615491
L 172.802301 95.840469
L 173.006128 95.669384
L 173.209954 95.900996
L 173.41378 95.103441
L 174.025259 89.515264
L 174.229085 88.6648
L 174.432912 88.438489
L 175.859696 88.731021
L 176.471175 88.796086
L 176.878827 86.970577
L 177.694133 81.251091
L 177.897959 81.151502
L 178.101785 80.494362
L 178.305612 80.314809
L 178.713264 81.606015
L 179.120917 82.48394
L 179.324743 82.617038
L 180.547701 82.355446
L 181.363006 82.248916
L 181.974485 86.137851
L 182.78979 92.163713
L 183.197443 94.202232
L 184.012748 95.512765
L 186.254838 95.551906
L 186.866317 94.020762
L 187.273969 92.1005
L 188.90458 86.039019
L 189.312232 85.821621
L 191.146669 85.552584
L 191.350495 85.637133
L 191.554322 85.363843
L 191.758148 84.739371
L 191.961974 84.809653
L 192.369627 85.336659
L 192.573453 83.712559
L 192.981106 82.316703
L 193.388759 82.294495
L 193.592585 83.312608
L 194.000237 82.349814
L 195.019369 82.493984
L 196.038501 82.679051
L 196.853806 77.95695
L 197.261458 73.731543
L 197.465285 74.12852
L 197.872937 72.669038
L 198.484416 65.988605
L 198.688243 66.687828
L 199.095895 66.848891
L 200.930332 66.953818
L 201.337985 68.889361
L 202.15329 74.314576
L 202.764769 76.674272
L 203.376248 81.744888
L 203.580074 81.634893
L 203.7839 81.769103
L 206.02599 81.621749
L 206.433642 81.299089
L 206.841295 82.763783
L 207.248948 84.770404
L 208.064253 88.458366
L 208.268079 89.107294
L 208.675732 89.364013
L 210.713995 89.604264
L 210.917821 89.924022
L 211.325474 97.089201
L 211.936953 94.47879
L 212.548432 91.510109
L 213.159911 96.353543
L 213.363737 95.726042
L 213.567563 95.47372
L 215.605826 95.369678
L 215.809653 93.79607
L 216.217305 85.108305
L 216.828784 92.246003
L 217.03261 91.536922
L 217.440263 89.222755
L 218.051742 79.073913
L 219.682352 78.641246
L 220.497658 78.567266
L 220.701484 79.499476
L 220.90531 79.497536
L 221.109137 79.8479
L 221.516789 75.156133
L 221.720615 72.970064
L 223.1474 82.045884
L 223.351226 82.297815
L 225.797142 82.484994
L 226.000968 82.472494
L 226.204794 83.237271
L 226.612447 83.691079
L 227.223926 85.14787
L 227.631578 86.795184
L 227.835405 87.212541
L 228.446884 87.448123
L 230.28132 87.688069
L 230.688973 90.245773
L 230.892799 92.852315
L 231.096626 93.973433
L 231.504278 98.740225
L 232.115757 104.046719
L 232.52341 107.550599
L 232.727236 108.582724
L 233.134889 108.888717
L 235.173152 108.896721
L 235.376978 108.333285
L 235.988457 116.495628
L 236.39611 119.826946
L 237.211415 122.348953
L 237.619068 122.835392
L 237.822894 122.937277
L 238.02672 122.669105
L 240.064983 122.628005
L 240.26881 124.338169
L 240.880289 131.644606
L 241.287941 135.722336
L 242.103246 141.68183
L 242.510899 144.932279
L 242.714725 147.600633
L 243.122378 147.345752
L 244.549162 146.925992
L 244.956815 146.964187
L 246.791252 161.84055
L 247.810383 169.46578
L 248.829515 169.595515
L 249.64482 169.745204
L 250.460125 171.759904
L 252.702215 178.102525
L 254.536651 178.03449
L 256.167262 178.039089
L 259.224656 178.0588
L 260.243788 178.139514
L 261.874398 178.342626
L 263.097356 178.49339
L 265.135619 178.841953
L 266.562404 178.784228
L 274.307803 178.737856
L 276.14224 178.610402
L 280.626419 178.727506
L 283.683814 178.881627
L 285.722077 178.910224
L 290.002429 179.42029
L 292.040692 179.620866
L 300.601397 179.592388
L 302.028181 179.70638
L 303.251139 179.921238
L 304.270271 180.08185
L 309.365928 179.559977
L 310.181234 179.633339
L 311.608018 179.814942
L 314.053934 179.724215
L 316.703676 180.062217
L 319.149591 180.502145
L 322.00316 180.382922
L 325.468207 180.349241
L 326.283512 180.505309
L 327.50647 180.967233
L 328.729428 181.309791
L 330.360038 181.405763
L 331.37917 181.290769
L 335.048043 180.584947
L 338.105438 179.989904
L 340.347528 180.026907
L 342.589617 180.055819
L 343.608748 179.943103
L 344.62788 180.005598
L 346.054664 180.090514
L 348.704406 180.14045
L 350.335017 180.203371
L 354.00389 180.085293
L 361.545464 180.674723
L 362.768422 180.934612
L 363.3799 180.858121
L 364.602858 180.733653
L 367.2526 180.968704
L 368.883211 181.268711
L 369.698516 181.228441
L 370.513821 181.159437
L 373.163563 181.090182
L 374.590347 181.035806
L 375.405653 180.974835
L 376.832437 180.640984
L 377.647742 180.49546
L 379.278353 180.596381
L 384.781663 181.238182
L 386.004621 180.974604
L 387.431405 180.740922
L 392.11941 180.864445
L 396.807415 180.295224
L 398.234199 180.434835
L 402.922204 180.802387
L 414.336478 181.235369
L 418.820657 180.815006
L 420.85892 180.862661
L 425.343098 180.86703
L 426.769883 180.961482
L 428.604319 180.761057
L 429.623451 180.731492
L 432.477019 180.821187
L 434.311456 180.686755
L 436.553546 180.278097
L 438.999461 179.773172
L 442.056856 179.442238
L 446.337208 179.341579
L 448.375471 179.882519
L 449.394603 180.435079
L 450.821387 181.191165
L 451.840519 181.383931
L 453.471129 181.576074
L 456.936176 180.799125
L 458.97444 180.388541
L 460.401224 180.213684
L 461.420355 180.086368
L 462.439487 180.152648
L 463.662445 180.055496
L 465.700708 179.816251
L 468.758102 180.167457
L 470.796365 180.583722
L 472.22315 180.782354
L 474.669065 180.983225
L 479.764723 181.021865
L 483.841249 181.019468
L 485.879512 181.076947
L 488.936907 180.661048
L 490.159865 180.519763
L 493.217259 180.695233
L 495.255523 180.943546
L 498.109091 181.095893
L 498.109091 181.095893
" style="fill:none;stroke:#9467bd;stroke-linecap:square;stroke-width:0.8;"/>
   </g>
   <g id="legend_1">
    <g id="patch_7">
     <path d="M 450.810937 107.310625
L 511.4 107.310625
Q 513.4 107.310625 513.4 105.310625
L 513.4 32.92
Q 513.4 30.92 511.4 30.92
L 450.810937 30.92
Q 448.810937 30.92 448.810937 32.92
L 448.810937 105.310625
Q 448.810937 107.310625 450.810937 107.310625
z
" style="fill:#ffffff;opacity:0.8;stroke:#cccccc;stroke-linejoin:miter;"/>
    </g>
    <g id="line2d_18">
     <path d="M 452.810937 39.018438
L 472.810937 39.018438
" style="fill:none;stroke:#1f77b4;stroke-linecap:square;stroke-width:0.8;"/>
    </g>
    <g id="line2d_19"/>
    <g id="text_11">
     <!-- 0% -->
     <g style="fill:#696969;" transform="translate(480.810937 42.518438)scale(0.1 -0.1)">
      <defs>
       <path d="M 72.703125 32.078125
Q 68.453125 32.078125 66.03125 28.46875
Q 63.625 24.859375 63.625 18.40625
Q 63.625 12.0625 66.03125 8.421875
Q 68.453125 4.78125 72.703125 4.78125
Q 76.859375 4.78125 79.265625 8.421875
Q 81.6875 12.0625 81.6875 18.40625
Q 81.6875 24.8125 79.265625 28.4375
Q 76.859375 32.078125 72.703125 32.078125
z
M 72.703125 38.28125
Q 80.421875 38.28125 84.953125 32.90625
Q 89.5 27.546875 89.5 18.40625
Q 89.5 9.28125 84.9375 3.921875
Q 80.375 -1.421875 72.703125 -1.421875
Q 64.890625 -1.421875 60.34375 3.921875
Q 55.8125 9.28125 55.8125 18.40625
Q 55.8125 27.59375 60.375 32.9375
Q 64.9375 38.28125 72.703125 38.28125
z
M 22.3125 68.015625
Q 18.109375 68.015625 15.6875 64.375
Q 13.28125 60.75 13.28125 54.390625
Q 13.28125 47.953125 15.671875 44.328125
Q 18.0625 40.71875 22.3125 40.71875
Q 26.5625 40.71875 28.96875 44.328125
Q 31.390625 47.953125 31.390625 54.390625
Q 31.390625 60.6875 28.953125 64.34375
Q 26.515625 68.015625 22.3125 68.015625
z
M 66.40625 74.21875
L 74.21875 74.21875
L 28.609375 -1.421875
L 20.796875 -1.421875
z
M 22.3125 74.21875
Q 30.03125 74.21875 34.609375 68.875
Q 39.203125 63.53125 39.203125 54.390625
Q 39.203125 45.171875 34.640625 39.84375
Q 30.078125 34.515625 22.3125 34.515625
Q 14.546875 34.515625 10.03125 39.859375
Q 5.515625 45.21875 5.515625 54.390625
Q 5.515625 63.484375 10.046875 68.84375
Q 14.59375 74.21875 22.3125 74.21875
z
" id="DejaVuSans-37"/>
      </defs>
      <use xlink:href="#DejaVuSans-48"/>
      <use x="63.623047" xlink:href="#DejaVuSans-37"/>
     </g>
    </g>
    <g id="line2d_20">
     <path d="M 452.810937 53.696562
L 472.810937 53.696562
" style="fill:none;stroke:#ff7f0e;stroke-linecap:square;stroke-width:0.8;"/>
    </g>
    <g id="line2d_21"/>
    <g id="text_12">
     <!-- 10% -->
     <g style="fill:#696969;" transform="translate(480.810937 57.196562)scale(0.1 -0.1)">
      <use xlink:href="#DejaVuSans-49"/>
      <use x="63.623047" xlink:href="#DejaVuSans-48"/>
      <use x="127.246094" xlink:href="#DejaVuSans-37"/>
     </g>
    </g>
    <g id="line2d_22">
     <path d="M 452.810937 68.374687
L 472.810937 68.374687
" style="fill:none;stroke:#2ca02c;stroke-linecap:square;stroke-width:0.8;"/>
    </g>
    <g id="line2d_23"/>
    <g id="text_13">
     <!-- 60% -->
     <g style="fill:#696969;" transform="translate(480.810937 71.874687)scale(0.1 -0.1)">
      <use xlink:href="#DejaVuSans-54"/>
      <use x="63.623047" xlink:href="#DejaVuSans-48"/>
      <use x="127.246094" xlink:href="#DejaVuSans-37"/>
     </g>
    </g>
    <g id="line2d_24">
     <path d="M 452.810937 83.052813
L 472.810937 83.052813
" style="fill:none;stroke:#d62728;stroke-linecap:square;stroke-width:0.8;"/>
    </g>
    <g id="line2d_25"/>
    <g id="text_14">
     <!-- 100% -->
     <g style="fill:#696969;" transform="translate(480.810937 86.552813)scale(0.1 -0.1)">
      <use xlink:href="#DejaVuSans-49"/>
      <use x="63.623047" xlink:href="#DejaVuSans-48"/>
      <use x="127.246094" xlink:href="#DejaVuSans-48"/>
      <use x="190.869141" xlink:href="#DejaVuSans-37"/>
     </g>
    </g>
    <g id="line2d_26">
     <path d="M 452.810937 97.730938
L 472.810937 97.730938
" style="fill:none;stroke:#9467bd;stroke-linecap:square;stroke-width:0.8;"/>
    </g>
    <g id="line2d_27"/>
    <g id="text_15">
     <!-- 200% -->
     <g style="fill:#696969;" transform="translate(480.810937 101.230938)scale(0.1 -0.1)">
      <use xlink:href="#DejaVuSans-50"/>
      <use x="63.623047" xlink:href="#DejaVuSans-48"/>
      <use x="127.246094" xlink:href="#DejaVuSans-48"/>
      <use x="190.869141" xlink:href="#DejaVuSans-37"/>
     </g>
    </g>
   </g>
  </g>
  <g id="text_16">
   <!-- gsto_l -->
   <g style="fill:#696969;" transform="translate(270.375 13.438125)scale(0.12 -0.12)">
    <defs>
     <path d="M 45.40625 27.984375
Q 45.40625 37.75 41.375 43.109375
Q 37.359375 48.484375 30.078125 48.484375
Q 22.859375 48.484375 18.828125 43.109375
Q 14.796875 37.75 14.796875 27.984375
Q 14.796875 18.265625 18.828125 12.890625
Q 22.859375 7.515625 30.078125 7.515625
Q 37.359375 7.515625 41.375 12.890625
Q 45.40625 18.265625 45.40625 27.984375
z
M 54.390625 6.78125
Q 54.390625 -7.171875 48.1875 -13.984375
Q 42 -20.796875 29.203125 -20.796875
Q 24.46875 -20.796875 20.265625 -20.09375
Q 16.0625 -19.390625 12.109375 -17.921875
L 12.109375 -9.1875
Q 16.0625 -11.328125 19.921875 -12.34375
Q 23.78125 -13.375 27.78125 -13.375
Q 36.625 -13.375 41.015625 -8.765625
Q 45.40625 -4.15625 45.40625 5.171875
L 45.40625 9.625
Q 42.625 4.78125 38.28125 2.390625
Q 33.9375 0 27.875 0
Q 17.828125 0 11.671875 7.65625
Q 5.515625 15.328125 5.515625 27.984375
Q 5.515625 40.671875 11.671875 48.328125
Q 17.828125 56 27.875 56
Q 33.9375 56 38.28125 53.609375
Q 42.625 51.21875 45.40625 46.390625
L 45.40625 54.6875
L 54.390625 54.6875
z
" id="DejaVuSans-103"/>
    </defs>
    <use xlink:href="#DejaVuSans-103"/>
    <use x="63.476562" xlink:href="#DejaVuSans-115"/>
    <use x="115.576172" xlink:href="#DejaVuSans-116"/>
    <use x="154.785156" xlink:href="#DejaVuSans-111"/>
    <use x="215.966797" xlink:href="#DejaVuSans-95"/>
    <use x="265.966797" xlink:href="#DejaVuSans-108"/>
   </g>
  </g>
 </g>
 <defs>
  <clipPath id="pf14eb7a0c7">
   <rect height="163.08" width="446.4" x="72" y="25.92"/>
  </clipPath>
 </defs>
</svg>
