<?xml version="1.0" encoding="utf-8" standalone="no"?>
<!DOCTYPE svg PUBLIC "-//W3C//DTD SVG 1.1//EN"
  "http://www.w3.org/Graphics/SVG/1.1/DTD/svg11.dtd">
<!-- Created with matplotlib (https://matplotlib.org/) -->
<svg height="216pt" version="1.1" viewBox="0 0 576 216" width="576pt" xmlns="http://www.w3.org/2000/svg" xmlns:xlink="http://www.w3.org/1999/xlink">
 <metadata>
  <rdf:RDF xmlns:cc="http://creativecommons.org/ns#" xmlns:dc="http://purl.org/dc/elements/1.1/" xmlns:rdf="http://www.w3.org/1999/02/22-rdf-syntax-ns#">
   <cc:Work>
    <dc:type rdf:resource="http://purl.org/dc/dcmitype/StillImage"/>
    <dc:date>2020-11-03T11:27:03.307646</dc:date>
    <dc:format>image/svg+xml</dc:format>
    <dc:creator>
     <cc:Agent>
      <dc:title>Matplotlib v3.3.2, https://matplotlib.org/</dc:title>
     </cc:Agent>
    </dc:creator>
   </cc:Work>
  </rdf:RDF>
 </metadata>
 <defs>
  <style type="text/css">*{stroke-linecap:butt;stroke-linejoin:round;}</style>
 </defs>
 <g id="figure_1">
  <g id="patch_1">
   <path d="M 0 216
L 576 216
L 576 0
L 0 0
z
" style="fill:none;"/>
  </g>
  <g id="axes_1">
   <g id="patch_2">
    <path d="M 72 189
L 518.4 189
L 518.4 25.92
L 72 25.92
z
" style="fill:none;"/>
   </g>
   <g id="line2d_1">
    <path clip-path="url(#peebbbdcd41)" d="M 92.290909 162.906318
L 93.106214 162.934045
L 93.310041 162.517446
L 93.513867 158.02161
L 94.532998 111.168475
L 95.959783 63.428331
L 96.163609 62.868021
L 96.978914 62.993095
L 98.201872 62.973807
L 98.609525 65.707488
L 98.813351 67.991241
L 99.017177 68.801705
L 99.42483 71.008692
L 99.628656 69.730021
L 99.832483 69.918958
L 100.647788 67.584402
L 100.851614 66.775022
L 101.05544 66.574179
L 102.686051 67.033325
L 103.093703 67.182894
L 103.29753 66.500307
L 103.705182 69.234548
L 104.92814 57.997305
L 105.131967 58.341744
L 105.335793 58.132663
L 105.539619 58.251822
L 105.743446 57.334736
L 105.947272 57.109235
L 107.781709 56.874433
L 107.985535 56.658699
L 108.189361 55.721904
L 108.597014 48.929591
L 109.208493 46.467286
L 109.819972 51.20565
L 110.227624 46.3209
L 110.431451 44.628563
L 110.635277 44.737255
L 112.877366 44.537378
L 113.081193 43.851094
L 113.488845 44.226971
L 113.692672 43.91442
L 114.100324 42.858898
L 114.711803 38.639026
L 114.915629 39.653386
L 115.323282 40.358108
L 115.527108 41.118254
L 116.342414 41.070579
L 117.769198 41.001245
L 118.380677 42.561203
L 118.992156 46.000575
L 120.215113 44.554396
L 120.622766 44.293493
L 122.457203 44.340827
L 122.661029 44.277453
L 122.864855 43.691672
L 123.068682 42.542139
L 123.272508 42.529125
L 123.476334 42.755552
L 123.680161 42.518327
L 123.883987 42.656755
L 125.106945 58.461202
L 125.310771 59.45309
L 125.514598 59.682194
L 127.349034 59.693311
L 127.552861 60.385214
L 127.756687 66.263889
L 128.775818 116.173757
L 130.202603 163.098205
L 130.406429 164.068173
L 132.037039 164.019528
L 132.240866 163.995556
L 132.444692 163.183016
L 132.648518 157.606886
L 133.463824 112.300382
L 134.482955 60.551193
L 134.890608 41.195598
L 135.094434 34.931835
L 135.29826 33.335481
L 136.725045 33.414524
L 137.336523 33.556409
L 137.744176 34.076866
L 137.948002 34.167019
L 138.355655 37.503084
L 138.559481 39.089601
L 138.763308 38.875097
L 138.967134 38.41925
L 139.17096 38.312999
L 139.374787 37.716365
L 139.782439 37.86852
L 139.986265 37.400415
L 140.801571 37.505664
L 142.228355 37.593418
L 142.432181 37.519818
L 142.636007 37.829248
L 142.839834 38.509751
L 143.247486 37.634944
L 143.451313 37.543833
L 143.655139 38.047922
L 144.266618 41.510816
L 144.878097 45.235407
L 145.081923 45.365554
L 147.120186 44.863331
L 147.324013 45.916777
L 147.527839 45.860009
L 147.731665 46.579712
L 149.158449 64.949795
L 149.566102 69.842968
L 149.769928 70.849777
L 149.973755 71.178836
L 151.604365 71.270426
L 151.808191 71.28395
L 152.012018 71.518114
L 152.215844 72.686832
L 152.827323 79.627168
L 153.438802 84.409485
L 153.846454 88.835283
L 154.457933 98.310828
L 154.66176 98.531649
L 156.903849 98.985621
L 157.107675 98.693017
L 157.311502 99.069502
L 157.515328 99.114882
L 157.719154 99.850277
L 158.126807 102.780914
L 158.738286 96.566572
L 159.349765 87.255158
L 160.776549 87.045419
L 161.591854 87.04447
L 161.795681 86.821251
L 161.999507 85.705473
L 163.018638 73.3133
L 164.241596 75.357034
L 164.445423 75.091649
L 165.056902 75.064202
L 166.687512 74.862307
L 167.502817 77.430617
L 167.91047 79.988409
L 168.318122 80.760763
L 168.725775 83.331015
L 169.133428 85.993933
L 169.337254 86.812522
L 169.744907 86.895439
L 171.579343 86.934697
L 171.78317 87.278556
L 172.394649 89.268869
L 172.598475 89.268118
L 172.802301 89.470167
L 173.006128 89.316519
L 173.209954 89.524526
L 173.41378 88.808251
L 174.025259 83.789578
L 174.229085 83.025786
L 174.432912 82.822539
L 176.063522 83.123562
L 176.471175 83.143693
L 176.878827 81.504225
L 177.694133 76.367625
L 177.897959 76.278185
L 178.101785 75.688015
L 178.305612 75.526761
L 178.713264 76.686378
L 179.120917 77.474831
L 179.324743 77.594365
L 180.547701 77.359432
L 181.363006 77.263759
L 181.974485 80.756364
L 182.78979 86.168117
L 183.197443 87.998887
L 184.012748 89.17586
L 186.254838 89.211013
L 186.866317 87.835911
L 187.273969 86.111346
L 188.90458 80.667604
L 189.312232 80.472362
L 191.146669 80.230743
L 191.350495 80.306675
L 191.554322 80.061237
L 191.758148 79.500406
L 191.961974 79.563526
L 192.369627 80.036823
L 192.573453 78.578239
L 192.981106 77.324638
L 193.388759 77.304693
L 193.592585 78.219048
L 194.000237 77.354377
L 195.223195 77.519755
L 196.038501 77.650061
L 196.853806 73.409199
L 197.261458 69.614413
L 197.465285 69.970933
L 197.872937 68.66019
L 198.484416 62.660575
L 198.688243 63.288538
L 199.095895 63.433187
L 200.930332 63.52742
L 201.337985 65.265708
L 202.15329 70.138028
L 202.764769 72.257241
L 203.376248 76.8111
L 203.580074 76.712314
L 203.7839 76.832847
L 206.229816 76.514951
L 206.433642 76.410733
L 206.841295 77.726157
L 207.248948 79.528279
L 208.064253 82.840393
L 208.268079 83.423187
L 208.675732 83.653741
L 210.713995 83.869507
L 210.917821 84.156678
L 211.325474 90.591638
L 211.936953 88.24726
L 212.548432 85.581124
L 213.159911 89.930952
L 213.363737 89.367404
L 213.567563 89.140796
L 215.605826 89.047357
L 215.809653 87.634119
L 216.217305 79.831743
L 216.828784 86.242023
L 217.03261 85.605206
L 217.440263 83.526881
L 218.051742 74.41233
L 219.682352 74.023754
L 220.497658 73.957314
L 220.701484 74.794522
L 220.90531 74.792781
L 221.109137 75.107438
L 221.516789 70.893819
L 221.720615 68.930537
L 223.1474 77.081422
L 223.351226 77.307677
L 225.797142 77.475779
L 226.000968 77.464553
L 226.204794 78.15139
L 226.612447 78.55895
L 227.223926 79.867279
L 227.631578 80.919866
L 227.835405 81.29469
L 228.446884 81.506266
L 230.28132 81.721759
L 230.688973 84.018798
L 230.892799 85.872657
L 231.096626 86.330872
L 231.504278 89.136187
L 232.52341 92.135039
L 232.931063 92.720522
L 233.338715 92.788761
L 235.173152 92.79295
L 235.580805 91.653371
L 235.988457 90.393264
L 237.007589 86.914168
L 237.619068 84.054102
L 237.822894 83.47519
L 238.02672 83.234348
L 240.064983 83.197436
L 240.26881 82.455771
L 240.880289 92.862303
L 241.287941 97.930902
L 241.89942 101.938167
L 242.307073 106.036083
L 242.714725 107.999118
L 243.122378 107.770213
L 244.549162 107.393231
L 244.956815 107.357318
L 246.587425 132.322348
L 247.606557 147.40497
L 247.810383 147.933888
L 248.829515 148.050401
L 249.64482 148.184834
L 249.848646 148.657874
L 252.906041 163.352033
L 256.982567 163.322847
L 258.817004 163.313499
L 260.243788 163.381938
L 262.078225 163.574085
L 263.301183 163.738669
L 264.931793 164.007634
L 268.39684 163.985334
L 270.435103 164.044086
L 272.473367 164.063894
L 278.791982 163.822141
L 281.849377 164.002578
L 283.683814 164.048421
L 285.722077 164.074103
L 290.410082 164.580863
L 292.244519 164.709352
L 300.805224 164.687808
L 302.435834 164.827532
L 304.270271 165.43169
L 309.162102 165.756612
L 312.423323 166.463246
L 314.053934 166.718521
L 316.703676 167.393016
L 319.149591 168.131637
L 323.837596 168.724119
L 325.468207 169.000928
L 326.283512 169.234773
L 327.710296 169.825011
L 329.13708 170.263739
L 330.767691 170.511808
L 333.825086 170.690505
L 337.697785 170.74308
L 348.296754 172.496892
L 350.538843 172.884199
L 354.00389 173.398756
L 361.341637 174.774365
L 363.3799 175.185828
L 365.214337 175.435993
L 368.271732 176.031323
L 369.698516 176.259329
L 371.736779 176.547407
L 375.813305 177.093652
L 379.278353 177.5547
L 386.6161 178.751718
L 391.100279 179.450187
L 397.418894 180.377706
L 405.775773 181.587273
L 498.109091 181.587273
L 498.109091 181.587273
" style="fill:none;stroke:#1f77b4;stroke-linecap:square;stroke-width:0.8;"/>
   </g>
   <g id="line2d_2">
    <path clip-path="url(#peebbbdcd41)" d="M 92.290909 162.906318
L 93.106214 162.934045
L 93.310041 162.517446
L 93.513867 158.02161
L 94.532998 111.168475
L 95.959783 63.428331
L 96.163609 62.868021
L 96.978914 62.993095
L 98.201872 62.973807
L 98.609525 65.707488
L 98.813351 67.991241
L 99.017177 68.801705
L 99.42483 71.008692
L 99.628656 69.730021
L 99.832483 69.918958
L 100.647788 67.584402
L 100.851614 66.775022
L 101.05544 66.574179
L 102.686051 67.033325
L 103.093703 67.182894
L 103.29753 66.500307
L 103.705182 69.234548
L 104.92814 57.997305
L 105.131967 58.341744
L 105.335793 58.132663
L 105.539619 58.251822
L 105.743446 57.334736
L 105.947272 57.109235
L 107.781709 56.874433
L 107.985535 56.658699
L 108.189361 55.721904
L 108.597014 48.929591
L 109.208493 46.467286
L 109.819972 51.20565
L 110.227624 46.3209
L 110.431451 44.628563
L 110.635277 44.737255
L 112.877366 44.537378
L 113.081193 43.851094
L 113.488845 44.226971
L 113.692672 43.91442
L 114.100324 42.858898
L 114.711803 38.639026
L 114.915629 39.653386
L 115.323282 40.358108
L 115.527108 41.118254
L 116.342414 41.070579
L 117.769198 41.001245
L 118.380677 42.561203
L 118.992156 46.000575
L 120.215113 44.554396
L 120.622766 44.293493
L 122.457203 44.340827
L 122.661029 44.277453
L 122.864855 43.691672
L 123.068682 42.542139
L 123.272508 42.529125
L 123.476334 42.755552
L 123.680161 42.518327
L 123.883987 42.656755
L 125.106945 58.461202
L 125.310771 59.45309
L 125.514598 59.682194
L 127.349034 59.693311
L 127.552861 60.385214
L 127.756687 66.263889
L 128.775818 116.173757
L 130.202603 163.098205
L 130.406429 164.068173
L 132.037039 164.019528
L 132.240866 163.995556
L 132.444692 163.183016
L 132.648518 157.606886
L 133.463824 112.300382
L 134.482955 60.551193
L 134.890608 41.195598
L 135.094434 34.931835
L 135.29826 33.335481
L 136.725045 33.414524
L 137.336523 33.556409
L 137.744176 34.076866
L 137.948002 34.167019
L 138.355655 37.503084
L 138.559481 39.089601
L 138.763308 38.875097
L 138.967134 38.41925
L 139.17096 38.312999
L 139.374787 37.716365
L 139.782439 37.86852
L 139.986265 37.400415
L 140.801571 37.505664
L 142.228355 37.593418
L 142.432181 37.519818
L 142.636007 37.829248
L 142.839834 38.509751
L 143.247486 37.634944
L 143.451313 37.543833
L 143.655139 38.047922
L 144.266618 41.510816
L 144.878097 45.235407
L 145.081923 45.365554
L 147.120186 44.863331
L 147.324013 45.916777
L 147.527839 45.860009
L 147.731665 46.579712
L 149.158449 64.949795
L 149.566102 69.842968
L 149.769928 70.849777
L 149.973755 71.178836
L 151.604365 71.270426
L 151.808191 71.28395
L 152.012018 71.518114
L 152.215844 72.686832
L 152.827323 79.627168
L 153.438802 84.409485
L 153.846454 88.835283
L 154.457933 98.310828
L 154.66176 98.531649
L 156.903849 98.985621
L 157.107675 98.693017
L 157.311502 99.069502
L 157.515328 99.114882
L 157.719154 99.850277
L 158.126807 102.780914
L 158.738286 96.566572
L 159.349765 87.255158
L 160.776549 87.045419
L 161.591854 87.04447
L 161.795681 86.821251
L 161.999507 85.705473
L 163.018638 73.3133
L 164.241596 75.357034
L 164.445423 75.091649
L 165.056902 75.064202
L 166.687512 74.862307
L 167.502817 77.430617
L 167.91047 79.988409
L 168.318122 80.760763
L 168.725775 83.331015
L 169.133428 85.993933
L 169.337254 86.812522
L 169.744907 86.895439
L 171.579343 86.934697
L 171.78317 87.278556
L 172.394649 89.268869
L 172.598475 89.268118
L 172.802301 89.470167
L 173.006128 89.316519
L 173.209954 89.524526
L 173.41378 88.808251
L 174.025259 83.789578
L 174.229085 83.025786
L 174.432912 82.822539
L 176.063522 83.123562
L 176.471175 83.143693
L 176.878827 81.504225
L 177.694133 76.367625
L 177.897959 76.278185
L 178.101785 75.688015
L 178.305612 75.526761
L 178.713264 76.686378
L 179.120917 77.474831
L 179.324743 77.594365
L 180.547701 77.359432
L 181.363006 77.263759
L 181.974485 80.756364
L 182.78979 86.168117
L 183.197443 87.998887
L 184.012748 89.17586
L 186.254838 89.211013
L 186.866317 87.835911
L 187.273969 86.111346
L 188.90458 80.667604
L 189.312232 80.472362
L 191.146669 80.230743
L 191.350495 80.306675
L 191.554322 80.061237
L 191.758148 79.500406
L 191.961974 79.563526
L 192.369627 80.036823
L 192.573453 78.578239
L 192.981106 77.324638
L 193.388759 77.304693
L 193.592585 78.219048
L 194.000237 77.354377
L 195.223195 77.519755
L 196.038501 77.650061
L 196.853806 73.409199
L 197.261458 69.614413
L 197.465285 69.970933
L 197.872937 68.66019
L 198.484416 62.660575
L 198.688243 63.288538
L 199.095895 63.433187
L 200.930332 63.52742
L 201.337985 65.265708
L 202.15329 70.138028
L 202.764769 72.257241
L 203.376248 76.8111
L 203.580074 76.712314
L 203.7839 76.832847
L 206.229816 76.514951
L 206.433642 76.410733
L 206.841295 77.726157
L 207.248948 79.528279
L 208.064253 82.840393
L 208.268079 83.423187
L 208.675732 83.653741
L 210.713995 83.869507
L 210.917821 84.156678
L 211.325474 90.591638
L 211.936953 88.24726
L 212.548432 85.581124
L 213.159911 89.930952
L 213.363737 89.367404
L 213.567563 89.140796
L 215.605826 89.047357
L 215.809653 87.634119
L 216.217305 79.831743
L 216.828784 86.242023
L 217.03261 85.605206
L 217.440263 83.526881
L 218.051742 74.41233
L 219.682352 74.023754
L 220.497658 73.957314
L 220.701484 74.794522
L 220.90531 74.792781
L 221.109137 75.107438
L 221.516789 70.893819
L 221.720615 68.930537
L 223.1474 77.081422
L 223.351226 77.307678
L 225.797142 77.475779
L 226.000968 77.464553
L 226.204794 78.15139
L 226.612447 78.55895
L 227.223926 79.867279
L 227.631578 80.919866
L 227.835405 81.29469
L 228.446884 81.506266
L 230.28132 81.721759
L 230.688973 84.018798
L 230.892799 85.872657
L 231.096626 86.330872
L 231.504278 89.136187
L 232.52341 92.135039
L 232.931063 92.720522
L 233.338715 92.788761
L 235.173152 92.79295
L 235.580805 91.653371
L 235.988457 90.393264
L 237.007589 86.914167
L 237.619068 84.054101
L 237.822894 83.475189
L 238.02672 83.234347
L 240.064983 83.197435
L 240.26881 82.663087
L 240.880289 93.653203
L 241.287941 99.119703
L 241.89942 103.709144
L 242.307073 108.195447
L 242.714725 110.546214
L 243.122378 110.317309
L 244.549162 109.940327
L 244.956815 109.904414
L 246.587425 133.686316
L 247.606557 148.055249
L 247.810383 148.635336
L 248.829515 148.751849
L 249.64482 148.886282
L 249.848646 149.359322
L 252.906041 163.352033
L 256.982567 163.322847
L 258.817004 163.313499
L 260.243788 163.381938
L 262.078225 163.574085
L 263.301183 163.738669
L 264.931793 164.007634
L 268.39684 163.985334
L 270.435103 164.044086
L 272.473367 164.063894
L 278.791982 163.822141
L 281.849377 164.002578
L 283.683814 164.048421
L 285.722077 164.074103
L 290.410082 164.580863
L 292.244519 164.709352
L 300.805224 164.687808
L 302.435834 164.827532
L 304.270271 165.43169
L 309.162102 165.756612
L 312.423323 166.463246
L 314.053934 166.718521
L 316.703676 167.393016
L 319.149591 168.131637
L 323.837596 168.724119
L 325.468207 169.000928
L 326.283512 169.234773
L 327.710296 169.825011
L 329.13708 170.263739
L 330.767691 170.511808
L 333.825086 170.690505
L 337.697785 170.74308
L 348.296754 172.496892
L 350.538843 172.884199
L 354.00389 173.398756
L 361.341637 174.774365
L 363.3799 175.185828
L 365.214337 175.435993
L 368.271732 176.031323
L 369.698516 176.259329
L 371.736779 176.547407
L 375.813305 177.093652
L 379.278353 177.5547
L 386.6161 178.751718
L 391.100279 179.450187
L 397.418894 180.377706
L 405.775773 181.587273
L 498.109091 181.587273
L 498.109091 181.587273
" style="fill:none;stroke:#ff7f0e;stroke-linecap:square;stroke-width:0.8;"/>
   </g>
   <g id="matplotlib.axis_1">
    <g id="xtick_1">
     <g id="line2d_3">
      <defs>
       <path d="M 0 0
L 0 1.5
" id="mf0ec40214d" style="stroke:#696969;stroke-width:0.8;"/>
      </defs>
      <g>
       <use style="fill:#696969;stroke:#696969;stroke-width:0.8;" x="92.290909" xlink:href="#mf0ec40214d" y="189"/>
      </g>
     </g>
     <g id="text_1">
      <!-- 147 -->
      <g style="fill:#696969;" transform="translate(82.747159 201.598437)scale(0.1 -0.1)">
       <defs>
        <path d="M 12.40625 8.296875
L 28.515625 8.296875
L 28.515625 63.921875
L 10.984375 60.40625
L 10.984375 69.390625
L 28.421875 72.90625
L 38.28125 72.90625
L 38.28125 8.296875
L 54.390625 8.296875
L 54.390625 0
L 12.40625 0
z
" id="DejaVuSans-49"/>
        <path d="M 37.796875 64.3125
L 12.890625 25.390625
L 37.796875 25.390625
z
M 35.203125 72.90625
L 47.609375 72.90625
L 47.609375 25.390625
L 58.015625 25.390625
L 58.015625 17.1875
L 47.609375 17.1875
L 47.609375 0
L 37.796875 0
L 37.796875 17.1875
L 4.890625 17.1875
L 4.890625 26.703125
z
" id="DejaVuSans-52"/>
        <path d="M 8.203125 72.90625
L 55.078125 72.90625
L 55.078125 68.703125
L 28.609375 0
L 18.3125 0
L 43.21875 64.59375
L 8.203125 64.59375
z
" id="DejaVuSans-55"/>
       </defs>
       <use xlink:href="#DejaVuSans-49"/>
       <use x="63.623047" xlink:href="#DejaVuSans-52"/>
       <use x="127.246094" xlink:href="#DejaVuSans-55"/>
      </g>
     </g>
    </g>
    <g id="xtick_2">
     <g id="line2d_4">
      <g>
       <use style="fill:#696969;stroke:#696969;stroke-width:0.8;" x="227.631578" xlink:href="#mf0ec40214d" y="189"/>
      </g>
     </g>
     <g id="text_2">
      <!-- 174 -->
      <g style="fill:#696969;" transform="translate(218.087828 201.598437)scale(0.1 -0.1)">
       <use xlink:href="#DejaVuSans-49"/>
       <use x="63.623047" xlink:href="#DejaVuSans-55"/>
       <use x="127.246094" xlink:href="#DejaVuSans-52"/>
      </g>
     </g>
    </g>
    <g id="xtick_3">
     <g id="line2d_5">
      <g>
       <use style="fill:#696969;stroke:#696969;stroke-width:0.8;" x="362.972248" xlink:href="#mf0ec40214d" y="189"/>
      </g>
     </g>
     <g id="text_3">
      <!-- 202 -->
      <g style="fill:#696969;" transform="translate(353.428498 201.598437)scale(0.1 -0.1)">
       <defs>
        <path d="M 19.1875 8.296875
L 53.609375 8.296875
L 53.609375 0
L 7.328125 0
L 7.328125 8.296875
Q 12.9375 14.109375 22.625 23.890625
Q 32.328125 33.6875 34.8125 36.53125
Q 39.546875 41.84375 41.421875 45.53125
Q 43.3125 49.21875 43.3125 52.78125
Q 43.3125 58.59375 39.234375 62.25
Q 35.15625 65.921875 28.609375 65.921875
Q 23.96875 65.921875 18.8125 64.3125
Q 13.671875 62.703125 7.8125 59.421875
L 7.8125 69.390625
Q 13.765625 71.78125 18.9375 73
Q 24.125 74.21875 28.421875 74.21875
Q 39.75 74.21875 46.484375 68.546875
Q 53.21875 62.890625 53.21875 53.421875
Q 53.21875 48.921875 51.53125 44.890625
Q 49.859375 40.875 45.40625 35.40625
Q 44.1875 33.984375 37.640625 27.21875
Q 31.109375 20.453125 19.1875 8.296875
z
" id="DejaVuSans-50"/>
        <path d="M 31.78125 66.40625
Q 24.171875 66.40625 20.328125 58.90625
Q 16.5 51.421875 16.5 36.375
Q 16.5 21.390625 20.328125 13.890625
Q 24.171875 6.390625 31.78125 6.390625
Q 39.453125 6.390625 43.28125 13.890625
Q 47.125 21.390625 47.125 36.375
Q 47.125 51.421875 43.28125 58.90625
Q 39.453125 66.40625 31.78125 66.40625
z
M 31.78125 74.21875
Q 44.046875 74.21875 50.515625 64.515625
Q 56.984375 54.828125 56.984375 36.375
Q 56.984375 17.96875 50.515625 8.265625
Q 44.046875 -1.421875 31.78125 -1.421875
Q 19.53125 -1.421875 13.0625 8.265625
Q 6.59375 17.96875 6.59375 36.375
Q 6.59375 54.828125 13.0625 64.515625
Q 19.53125 74.21875 31.78125 74.21875
z
" id="DejaVuSans-48"/>
       </defs>
       <use xlink:href="#DejaVuSans-50"/>
       <use x="63.623047" xlink:href="#DejaVuSans-48"/>
       <use x="127.246094" xlink:href="#DejaVuSans-50"/>
      </g>
     </g>
    </g>
    <g id="xtick_4">
     <g id="line2d_6">
      <g>
       <use style="fill:#696969;stroke:#696969;stroke-width:0.8;" x="498.312917" xlink:href="#mf0ec40214d" y="189"/>
      </g>
     </g>
     <g id="text_4">
      <!-- 230 -->
      <g style="fill:#696969;" transform="translate(488.769167 201.598437)scale(0.1 -0.1)">
       <defs>
        <path d="M 40.578125 39.3125
Q 47.65625 37.796875 51.625 33
Q 55.609375 28.21875 55.609375 21.1875
Q 55.609375 10.40625 48.1875 4.484375
Q 40.765625 -1.421875 27.09375 -1.421875
Q 22.515625 -1.421875 17.65625 -0.515625
Q 12.796875 0.390625 7.625 2.203125
L 7.625 11.71875
Q 11.71875 9.328125 16.59375 8.109375
Q 21.484375 6.890625 26.8125 6.890625
Q 36.078125 6.890625 40.9375 10.546875
Q 45.796875 14.203125 45.796875 21.1875
Q 45.796875 27.640625 41.28125 31.265625
Q 36.765625 34.90625 28.71875 34.90625
L 20.21875 34.90625
L 20.21875 43.015625
L 29.109375 43.015625
Q 36.375 43.015625 40.234375 45.921875
Q 44.09375 48.828125 44.09375 54.296875
Q 44.09375 59.90625 40.109375 62.90625
Q 36.140625 65.921875 28.71875 65.921875
Q 24.65625 65.921875 20.015625 65.03125
Q 15.375 64.15625 9.8125 62.3125
L 9.8125 71.09375
Q 15.4375 72.65625 20.34375 73.4375
Q 25.25 74.21875 29.59375 74.21875
Q 40.828125 74.21875 47.359375 69.109375
Q 53.90625 64.015625 53.90625 55.328125
Q 53.90625 49.265625 50.4375 45.09375
Q 46.96875 40.921875 40.578125 39.3125
z
" id="DejaVuSans-51"/>
       </defs>
       <use xlink:href="#DejaVuSans-50"/>
       <use x="63.623047" xlink:href="#DejaVuSans-51"/>
       <use x="127.246094" xlink:href="#DejaVuSans-48"/>
      </g>
     </g>
    </g>
    <g id="text_5">
     <!-- Days -->
     <g style="fill:#696969;" transform="translate(282.721875 215.276563)scale(0.1 -0.1)">
      <defs>
       <path d="M 19.671875 64.796875
L 19.671875 8.109375
L 31.59375 8.109375
Q 46.6875 8.109375 53.6875 14.9375
Q 60.6875 21.78125 60.6875 36.53125
Q 60.6875 51.171875 53.6875 57.984375
Q 46.6875 64.796875 31.59375 64.796875
z
M 9.8125 72.90625
L 30.078125 72.90625
Q 51.265625 72.90625 61.171875 64.09375
Q 71.09375 55.28125 71.09375 36.53125
Q 71.09375 17.671875 61.125 8.828125
Q 51.171875 0 30.078125 0
L 9.8125 0
z
" id="DejaVuSans-68"/>
       <path d="M 34.28125 27.484375
Q 23.390625 27.484375 19.1875 25
Q 14.984375 22.515625 14.984375 16.5
Q 14.984375 11.71875 18.140625 8.90625
Q 21.296875 6.109375 26.703125 6.109375
Q 34.1875 6.109375 38.703125 11.40625
Q 43.21875 16.703125 43.21875 25.484375
L 43.21875 27.484375
z
M 52.203125 31.203125
L 52.203125 0
L 43.21875 0
L 43.21875 8.296875
Q 40.140625 3.328125 35.546875 0.953125
Q 30.953125 -1.421875 24.3125 -1.421875
Q 15.921875 -1.421875 10.953125 3.296875
Q 6 8.015625 6 15.921875
Q 6 25.140625 12.171875 29.828125
Q 18.359375 34.515625 30.609375 34.515625
L 43.21875 34.515625
L 43.21875 35.40625
Q 43.21875 41.609375 39.140625 45
Q 35.0625 48.390625 27.6875 48.390625
Q 23 48.390625 18.546875 47.265625
Q 14.109375 46.140625 10.015625 43.890625
L 10.015625 52.203125
Q 14.9375 54.109375 19.578125 55.046875
Q 24.21875 56 28.609375 56
Q 40.484375 56 46.34375 49.84375
Q 52.203125 43.703125 52.203125 31.203125
z
" id="DejaVuSans-97"/>
       <path d="M 32.171875 -5.078125
Q 28.375 -14.84375 24.75 -17.8125
Q 21.140625 -20.796875 15.09375 -20.796875
L 7.90625 -20.796875
L 7.90625 -13.28125
L 13.1875 -13.28125
Q 16.890625 -13.28125 18.9375 -11.515625
Q 21 -9.765625 23.484375 -3.21875
L 25.09375 0.875
L 2.984375 54.6875
L 12.5 54.6875
L 29.59375 11.921875
L 46.6875 54.6875
L 56.203125 54.6875
z
" id="DejaVuSans-121"/>
       <path d="M 44.28125 53.078125
L 44.28125 44.578125
Q 40.484375 46.53125 36.375 47.5
Q 32.28125 48.484375 27.875 48.484375
Q 21.1875 48.484375 17.84375 46.4375
Q 14.5 44.390625 14.5 40.28125
Q 14.5 37.15625 16.890625 35.375
Q 19.28125 33.59375 26.515625 31.984375
L 29.59375 31.296875
Q 39.15625 29.25 43.1875 25.515625
Q 47.21875 21.78125 47.21875 15.09375
Q 47.21875 7.46875 41.1875 3.015625
Q 35.15625 -1.421875 24.609375 -1.421875
Q 20.21875 -1.421875 15.453125 -0.5625
Q 10.6875 0.296875 5.421875 2
L 5.421875 11.28125
Q 10.40625 8.6875 15.234375 7.390625
Q 20.0625 6.109375 24.8125 6.109375
Q 31.15625 6.109375 34.5625 8.28125
Q 37.984375 10.453125 37.984375 14.40625
Q 37.984375 18.0625 35.515625 20.015625
Q 33.0625 21.96875 24.703125 23.78125
L 21.578125 24.515625
Q 13.234375 26.265625 9.515625 29.90625
Q 5.8125 33.546875 5.8125 39.890625
Q 5.8125 47.609375 11.28125 51.796875
Q 16.75 56 26.8125 56
Q 31.78125 56 36.171875 55.265625
Q 40.578125 54.546875 44.28125 53.078125
z
" id="DejaVuSans-115"/>
      </defs>
      <use xlink:href="#DejaVuSans-68"/>
      <use x="77.001953" xlink:href="#DejaVuSans-97"/>
      <use x="138.28125" xlink:href="#DejaVuSans-121"/>
      <use x="197.460938" xlink:href="#DejaVuSans-115"/>
     </g>
    </g>
   </g>
   <g id="matplotlib.axis_2">
    <g id="ytick_1">
     <g id="line2d_7">
      <path clip-path="url(#peebbbdcd41)" d="M 72 181.587273
L 518.4 181.587273
" style="fill:none;stroke:#b0b0b0;stroke-linecap:square;stroke-width:0.8;"/>
     </g>
     <g id="line2d_8">
      <defs>
       <path d="M 0 0
L -1 0
" id="mea1669eac2" style="stroke:#696969;stroke-width:0.2;"/>
      </defs>
      <g>
       <use style="fill:#696969;stroke:#696969;stroke-width:0.2;" x="72" xlink:href="#mea1669eac2" y="181.587273"/>
      </g>
     </g>
     <g id="text_6">
      <!-- 0 -->
      <g style="fill:#696969;" transform="translate(61.1375 185.386491)scale(0.1 -0.1)">
       <use xlink:href="#DejaVuSans-48"/>
      </g>
     </g>
    </g>
    <g id="ytick_2">
     <g id="line2d_9">
      <path clip-path="url(#peebbbdcd41)" d="M 72 157.528854
L 518.4 157.528854
" style="fill:none;stroke:#b0b0b0;stroke-linecap:square;stroke-width:0.8;"/>
     </g>
     <g id="line2d_10">
      <g>
       <use style="fill:#696969;stroke:#696969;stroke-width:0.2;" x="72" xlink:href="#mea1669eac2" y="157.528854"/>
      </g>
     </g>
     <g id="text_7">
      <!-- 50 -->
      <g style="fill:#696969;" transform="translate(54.775 161.328073)scale(0.1 -0.1)">
       <defs>
        <path d="M 10.796875 72.90625
L 49.515625 72.90625
L 49.515625 64.59375
L 19.828125 64.59375
L 19.828125 46.734375
Q 21.96875 47.46875 24.109375 47.828125
Q 26.265625 48.1875 28.421875 48.1875
Q 40.625 48.1875 47.75 41.5
Q 54.890625 34.8125 54.890625 23.390625
Q 54.890625 11.625 47.5625 5.09375
Q 40.234375 -1.421875 26.90625 -1.421875
Q 22.3125 -1.421875 17.546875 -0.640625
Q 12.796875 0.140625 7.71875 1.703125
L 7.71875 11.625
Q 12.109375 9.234375 16.796875 8.0625
Q 21.484375 6.890625 26.703125 6.890625
Q 35.15625 6.890625 40.078125 11.328125
Q 45.015625 15.765625 45.015625 23.390625
Q 45.015625 31 40.078125 35.4375
Q 35.15625 39.890625 26.703125 39.890625
Q 22.75 39.890625 18.8125 39.015625
Q 14.890625 38.140625 10.796875 36.28125
z
" id="DejaVuSans-53"/>
       </defs>
       <use xlink:href="#DejaVuSans-53"/>
       <use x="63.623047" xlink:href="#DejaVuSans-48"/>
      </g>
     </g>
    </g>
    <g id="ytick_3">
     <g id="line2d_11">
      <path clip-path="url(#peebbbdcd41)" d="M 72 133.470436
L 518.4 133.470436
" style="fill:none;stroke:#b0b0b0;stroke-linecap:square;stroke-width:0.8;"/>
     </g>
     <g id="line2d_12">
      <g>
       <use style="fill:#696969;stroke:#696969;stroke-width:0.2;" x="72" xlink:href="#mea1669eac2" y="133.470436"/>
      </g>
     </g>
     <g id="text_8">
      <!-- 100 -->
      <g style="fill:#696969;" transform="translate(48.4125 137.269654)scale(0.1 -0.1)">
       <use xlink:href="#DejaVuSans-49"/>
       <use x="63.623047" xlink:href="#DejaVuSans-48"/>
       <use x="127.246094" xlink:href="#DejaVuSans-48"/>
      </g>
     </g>
    </g>
    <g id="ytick_4">
     <g id="line2d_13">
      <path clip-path="url(#peebbbdcd41)" d="M 72 109.412017
L 518.4 109.412017
" style="fill:none;stroke:#b0b0b0;stroke-linecap:square;stroke-width:0.8;"/>
     </g>
     <g id="line2d_14">
      <g>
       <use style="fill:#696969;stroke:#696969;stroke-width:0.2;" x="72" xlink:href="#mea1669eac2" y="109.412017"/>
      </g>
     </g>
     <g id="text_9">
      <!-- 150 -->
      <g style="fill:#696969;" transform="translate(48.4125 113.211236)scale(0.1 -0.1)">
       <use xlink:href="#DejaVuSans-49"/>
       <use x="63.623047" xlink:href="#DejaVuSans-53"/>
       <use x="127.246094" xlink:href="#DejaVuSans-48"/>
      </g>
     </g>
    </g>
    <g id="ytick_5">
     <g id="line2d_15">
      <path clip-path="url(#peebbbdcd41)" d="M 72 85.353599
L 518.4 85.353599
" style="fill:none;stroke:#b0b0b0;stroke-linecap:square;stroke-width:0.8;"/>
     </g>
     <g id="line2d_16">
      <g>
       <use style="fill:#696969;stroke:#696969;stroke-width:0.2;" x="72" xlink:href="#mea1669eac2" y="85.353599"/>
      </g>
     </g>
     <g id="text_10">
      <!-- 200 -->
      <g style="fill:#696969;" transform="translate(48.4125 89.152817)scale(0.1 -0.1)">
       <use xlink:href="#DejaVuSans-50"/>
       <use x="63.623047" xlink:href="#DejaVuSans-48"/>
       <use x="127.246094" xlink:href="#DejaVuSans-48"/>
      </g>
     </g>
    </g>
    <g id="ytick_6">
     <g id="line2d_17">
      <path clip-path="url(#peebbbdcd41)" d="M 72 61.29518
L 518.4 61.29518
" style="fill:none;stroke:#b0b0b0;stroke-linecap:square;stroke-width:0.8;"/>
     </g>
     <g id="line2d_18">
      <g>
       <use style="fill:#696969;stroke:#696969;stroke-width:0.2;" x="72" xlink:href="#mea1669eac2" y="61.29518"/>
      </g>
     </g>
     <g id="text_11">
      <!-- 250 -->
      <g style="fill:#696969;" transform="translate(48.4125 65.094399)scale(0.1 -0.1)">
       <use xlink:href="#DejaVuSans-50"/>
       <use x="63.623047" xlink:href="#DejaVuSans-53"/>
       <use x="127.246094" xlink:href="#DejaVuSans-48"/>
      </g>
     </g>
    </g>
    <g id="ytick_7">
     <g id="line2d_19">
      <path clip-path="url(#peebbbdcd41)" d="M 72 37.236761
L 518.4 37.236761
" style="fill:none;stroke:#b0b0b0;stroke-linecap:square;stroke-width:0.8;"/>
     </g>
     <g id="line2d_20">
      <g>
       <use style="fill:#696969;stroke:#696969;stroke-width:0.2;" x="72" xlink:href="#mea1669eac2" y="37.236761"/>
      </g>
     </g>
     <g id="text_12">
      <!-- 300 -->
      <g style="fill:#696969;" transform="translate(48.4125 41.03598)scale(0.1 -0.1)">
       <use xlink:href="#DejaVuSans-51"/>
       <use x="63.623047" xlink:href="#DejaVuSans-48"/>
       <use x="127.246094" xlink:href="#DejaVuSans-48"/>
      </g>
     </g>
    </g>
    <g id="text_13">
     <!-- Gsto (mmol/m^2/s) -->
     <g style="fill:#696969;" transform="translate(42.332812 156.852969)rotate(-90)scale(0.1 -0.1)">
      <defs>
       <path d="M 59.515625 10.40625
L 59.515625 29.984375
L 43.40625 29.984375
L 43.40625 38.09375
L 69.28125 38.09375
L 69.28125 6.78125
Q 63.578125 2.734375 56.6875 0.65625
Q 49.8125 -1.421875 42 -1.421875
Q 24.90625 -1.421875 15.25 8.5625
Q 5.609375 18.5625 5.609375 36.375
Q 5.609375 54.25 15.25 64.234375
Q 24.90625 74.21875 42 74.21875
Q 49.125 74.21875 55.546875 72.453125
Q 61.96875 70.703125 67.390625 67.28125
L 67.390625 56.78125
Q 61.921875 61.421875 55.765625 63.765625
Q 49.609375 66.109375 42.828125 66.109375
Q 29.4375 66.109375 22.71875 58.640625
Q 16.015625 51.171875 16.015625 36.375
Q 16.015625 21.625 22.71875 14.15625
Q 29.4375 6.6875 42.828125 6.6875
Q 48.046875 6.6875 52.140625 7.59375
Q 56.25 8.5 59.515625 10.40625
z
" id="DejaVuSans-71"/>
       <path d="M 18.3125 70.21875
L 18.3125 54.6875
L 36.8125 54.6875
L 36.8125 47.703125
L 18.3125 47.703125
L 18.3125 18.015625
Q 18.3125 11.328125 20.140625 9.421875
Q 21.96875 7.515625 27.59375 7.515625
L 36.8125 7.515625
L 36.8125 0
L 27.59375 0
Q 17.1875 0 13.234375 3.875
Q 9.28125 7.765625 9.28125 18.015625
L 9.28125 47.703125
L 2.6875 47.703125
L 2.6875 54.6875
L 9.28125 54.6875
L 9.28125 70.21875
z
" id="DejaVuSans-116"/>
       <path d="M 30.609375 48.390625
Q 23.390625 48.390625 19.1875 42.75
Q 14.984375 37.109375 14.984375 27.296875
Q 14.984375 17.484375 19.15625 11.84375
Q 23.34375 6.203125 30.609375 6.203125
Q 37.796875 6.203125 41.984375 11.859375
Q 46.1875 17.53125 46.1875 27.296875
Q 46.1875 37.015625 41.984375 42.703125
Q 37.796875 48.390625 30.609375 48.390625
z
M 30.609375 56
Q 42.328125 56 49.015625 48.375
Q 55.71875 40.765625 55.71875 27.296875
Q 55.71875 13.875 49.015625 6.21875
Q 42.328125 -1.421875 30.609375 -1.421875
Q 18.84375 -1.421875 12.171875 6.21875
Q 5.515625 13.875 5.515625 27.296875
Q 5.515625 40.765625 12.171875 48.375
Q 18.84375 56 30.609375 56
z
" id="DejaVuSans-111"/>
       <path id="DejaVuSans-32"/>
       <path d="M 31 75.875
Q 24.46875 64.65625 21.28125 53.65625
Q 18.109375 42.671875 18.109375 31.390625
Q 18.109375 20.125 21.3125 9.0625
Q 24.515625 -2 31 -13.1875
L 23.1875 -13.1875
Q 15.875 -1.703125 12.234375 9.375
Q 8.59375 20.453125 8.59375 31.390625
Q 8.59375 42.28125 12.203125 53.3125
Q 15.828125 64.359375 23.1875 75.875
z
" id="DejaVuSans-40"/>
       <path d="M 52 44.1875
Q 55.375 50.25 60.0625 53.125
Q 64.75 56 71.09375 56
Q 79.640625 56 84.28125 50.015625
Q 88.921875 44.046875 88.921875 33.015625
L 88.921875 0
L 79.890625 0
L 79.890625 32.71875
Q 79.890625 40.578125 77.09375 44.375
Q 74.3125 48.1875 68.609375 48.1875
Q 61.625 48.1875 57.5625 43.546875
Q 53.515625 38.921875 53.515625 30.90625
L 53.515625 0
L 44.484375 0
L 44.484375 32.71875
Q 44.484375 40.625 41.703125 44.40625
Q 38.921875 48.1875 33.109375 48.1875
Q 26.21875 48.1875 22.15625 43.53125
Q 18.109375 38.875 18.109375 30.90625
L 18.109375 0
L 9.078125 0
L 9.078125 54.6875
L 18.109375 54.6875
L 18.109375 46.1875
Q 21.1875 51.21875 25.484375 53.609375
Q 29.78125 56 35.6875 56
Q 41.65625 56 45.828125 52.96875
Q 50 49.953125 52 44.1875
z
" id="DejaVuSans-109"/>
       <path d="M 9.421875 75.984375
L 18.40625 75.984375
L 18.40625 0
L 9.421875 0
z
" id="DejaVuSans-108"/>
       <path d="M 25.390625 72.90625
L 33.6875 72.90625
L 8.296875 -9.28125
L 0 -9.28125
z
" id="DejaVuSans-47"/>
       <path d="M 46.6875 72.90625
L 73.1875 45.703125
L 63.375 45.703125
L 41.890625 64.984375
L 20.40625 45.703125
L 10.59375 45.703125
L 37.109375 72.90625
z
" id="DejaVuSans-94"/>
       <path d="M 8.015625 75.875
L 15.828125 75.875
Q 23.140625 64.359375 26.78125 53.3125
Q 30.421875 42.28125 30.421875 31.390625
Q 30.421875 20.453125 26.78125 9.375
Q 23.140625 -1.703125 15.828125 -13.1875
L 8.015625 -13.1875
Q 14.5 -2 17.703125 9.0625
Q 20.90625 20.125 20.90625 31.390625
Q 20.90625 42.671875 17.703125 53.65625
Q 14.5 64.65625 8.015625 75.875
z
" id="DejaVuSans-41"/>
      </defs>
      <use xlink:href="#DejaVuSans-71"/>
      <use x="77.490234" xlink:href="#DejaVuSans-115"/>
      <use x="129.589844" xlink:href="#DejaVuSans-116"/>
      <use x="168.798828" xlink:href="#DejaVuSans-111"/>
      <use x="229.980469" xlink:href="#DejaVuSans-32"/>
      <use x="261.767578" xlink:href="#DejaVuSans-40"/>
      <use x="300.78125" xlink:href="#DejaVuSans-109"/>
      <use x="398.193359" xlink:href="#DejaVuSans-109"/>
      <use x="495.605469" xlink:href="#DejaVuSans-111"/>
      <use x="556.787109" xlink:href="#DejaVuSans-108"/>
      <use x="584.570312" xlink:href="#DejaVuSans-47"/>
      <use x="618.261719" xlink:href="#DejaVuSans-109"/>
      <use x="715.673828" xlink:href="#DejaVuSans-94"/>
      <use x="799.462891" xlink:href="#DejaVuSans-50"/>
      <use x="863.085938" xlink:href="#DejaVuSans-47"/>
      <use x="896.777344" xlink:href="#DejaVuSans-115"/>
      <use x="948.876953" xlink:href="#DejaVuSans-41"/>
     </g>
    </g>
   </g>
   <g id="line2d_21">
    <path clip-path="url(#peebbbdcd41)" d="M 92.290909 162.906318
L 93.106214 162.934045
L 93.310041 162.517446
L 93.513867 158.02161
L 94.532998 111.168475
L 95.959783 63.428331
L 96.163609 62.868021
L 96.978914 62.993095
L 98.201872 62.973807
L 98.609525 65.707488
L 98.813351 67.991241
L 99.017177 68.801705
L 99.42483 71.008692
L 99.628656 69.730021
L 99.832483 69.918958
L 100.647788 67.584402
L 100.851614 66.775022
L 101.05544 66.574179
L 102.686051 67.033325
L 103.093703 67.182894
L 103.29753 66.500307
L 103.705182 69.234548
L 104.92814 57.997305
L 105.131967 58.341744
L 105.335793 58.132663
L 105.539619 58.251822
L 105.743446 57.334736
L 105.947272 57.109235
L 107.781709 56.874433
L 107.985535 56.658699
L 108.189361 55.721904
L 108.597014 48.929591
L 109.208493 46.467286
L 109.819972 51.20565
L 110.227624 46.3209
L 110.431451 44.628563
L 110.635277 44.737255
L 112.877366 44.537378
L 113.081193 43.851094
L 113.488845 44.226971
L 113.692672 43.91442
L 114.100324 42.858898
L 114.711803 38.639026
L 114.915629 39.653386
L 115.323282 40.358108
L 115.527108 41.118254
L 116.342414 41.070579
L 117.769198 41.001245
L 118.380677 42.561203
L 118.992156 46.000575
L 120.215113 44.554396
L 120.622766 44.293493
L 122.457203 44.340827
L 122.661029 44.277453
L 122.864855 43.691672
L 123.068682 42.542139
L 123.272508 42.529125
L 123.476334 42.755552
L 123.680161 42.518327
L 123.883987 42.656755
L 125.106945 58.461202
L 125.310771 59.45309
L 125.514598 59.682194
L 127.349034 59.693311
L 127.552861 60.385214
L 127.756687 66.263889
L 128.775818 116.173757
L 130.202603 163.098205
L 130.406429 164.068173
L 132.037039 164.019528
L 132.240866 163.995556
L 132.444692 163.183016
L 132.648518 157.606886
L 133.463824 112.300382
L 134.482955 60.551193
L 134.890608 41.195598
L 135.094434 34.931835
L 135.29826 33.335481
L 136.725045 33.414524
L 137.336523 33.556409
L 137.744176 34.076866
L 137.948002 34.167019
L 138.355655 37.503084
L 138.559481 39.089601
L 138.763308 38.875097
L 138.967134 38.41925
L 139.17096 38.312999
L 139.374787 37.716365
L 139.782439 37.86852
L 139.986265 37.400415
L 140.801571 37.505664
L 142.228355 37.593418
L 142.432181 37.519818
L 142.636007 37.829248
L 142.839834 38.509751
L 143.247486 37.634944
L 143.451313 37.543833
L 143.655139 38.047922
L 144.266618 41.510816
L 144.878097 45.235407
L 145.081923 45.365554
L 147.120186 44.863331
L 147.324013 45.916777
L 147.527839 45.860009
L 147.731665 46.579712
L 149.158449 64.949795
L 149.566102 69.842968
L 149.769928 70.849777
L 149.973755 71.178836
L 151.604365 71.270426
L 151.808191 71.28395
L 152.012018 71.518114
L 152.215844 72.686832
L 152.827323 79.627168
L 153.438802 84.409485
L 153.846454 88.835283
L 154.457933 98.310828
L 154.66176 98.531649
L 156.903849 98.985621
L 157.107675 98.693017
L 157.311502 99.069502
L 157.515328 99.114882
L 157.719154 99.850277
L 158.126807 102.780914
L 158.738286 96.566572
L 159.349765 87.255158
L 160.776549 87.045419
L 161.591854 87.04447
L 161.795681 86.821251
L 161.999507 85.705473
L 163.018638 73.3133
L 164.241596 75.357034
L 164.445423 75.091649
L 165.056902 75.064202
L 166.687512 74.862307
L 167.502817 77.430617
L 167.91047 79.988409
L 168.318122 80.760763
L 168.725775 83.331015
L 169.133428 85.993933
L 169.337254 86.812522
L 169.744907 86.895439
L 171.579343 86.934697
L 171.78317 87.278556
L 172.394649 89.268869
L 172.598475 89.268118
L 172.802301 89.470167
L 173.006128 89.316519
L 173.209954 89.524526
L 173.41378 88.808251
L 174.025259 83.789578
L 174.229085 83.025786
L 174.432912 82.822539
L 176.063522 83.123562
L 176.471175 83.143693
L 176.878827 81.504225
L 177.694133 76.367625
L 177.897959 76.278185
L 178.101785 75.688015
L 178.305612 75.526761
L 178.713264 76.686378
L 179.120917 77.474831
L 179.324743 77.594365
L 180.547701 77.359432
L 181.363006 77.263759
L 181.974485 80.756364
L 182.78979 86.168117
L 183.197443 87.998887
L 184.012748 89.17586
L 186.254838 89.211013
L 186.866317 87.835911
L 187.273969 86.111346
L 188.90458 80.667604
L 189.312232 80.472362
L 191.146669 80.230743
L 191.350495 80.306675
L 191.554322 80.061237
L 191.758148 79.500406
L 191.961974 79.563526
L 192.369627 80.036823
L 192.573453 78.578239
L 192.981106 77.324638
L 193.388759 77.304693
L 193.592585 78.219048
L 194.000237 77.354377
L 195.223195 77.519755
L 196.038501 77.650061
L 196.853806 73.409199
L 197.261458 69.614413
L 197.465285 69.970933
L 197.872937 68.66019
L 198.484416 62.660575
L 198.688243 63.288538
L 199.095895 63.433187
L 200.930332 63.52742
L 201.337985 65.265708
L 202.15329 70.138028
L 202.764769 72.257241
L 203.376248 76.8111
L 203.580074 76.712314
L 203.7839 76.832847
L 206.229816 76.514951
L 206.433642 76.410733
L 206.841295 77.726157
L 207.248948 79.528279
L 208.064253 82.840393
L 208.268079 83.423187
L 208.675732 83.653741
L 210.713995 83.869507
L 210.917821 84.156678
L 211.325474 90.591638
L 211.936953 88.24726
L 212.548432 85.581124
L 213.159911 89.930952
L 213.363737 89.367404
L 213.567563 89.140796
L 215.605826 89.047357
L 215.809653 87.634119
L 216.217305 79.831743
L 216.828784 86.242023
L 217.03261 85.605207
L 217.440263 83.526882
L 218.051742 74.412331
L 219.682352 74.023755
L 220.497658 73.957315
L 220.701484 74.794523
L 220.90531 74.792781
L 221.109137 75.107438
L 221.516789 70.89382
L 221.720615 68.930538
L 223.1474 77.081423
L 223.351226 77.307678
L 225.797142 77.47578
L 226.000968 77.464554
L 226.204794 78.151391
L 226.612447 78.558951
L 227.223926 79.867279
L 227.631578 80.919866
L 227.835405 81.294691
L 228.446884 81.506266
L 230.28132 81.721759
L 230.688973 84.018799
L 230.892799 85.872658
L 231.096626 86.330873
L 231.504278 89.136187
L 232.52341 92.135039
L 232.931063 92.720522
L 233.338715 92.788761
L 235.173152 92.79295
L 235.376978 92.286935
L 235.580805 92.211696
L 235.784631 92.577962
L 236.192283 92.205248
L 236.803762 90.265474
L 237.211415 88.945082
L 237.822894 86.596237
L 238.02672 86.355394
L 240.064983 86.318483
L 240.26881 86.576045
L 240.880289 97.825376
L 241.287941 104.203549
L 241.89942 110.842205
L 242.510899 118.382579
L 242.714725 120.266706
L 243.122378 120.0378
L 244.549162 119.660818
L 244.956815 119.624905
L 246.587425 138.889284
L 247.606557 150.537759
L 247.810383 151.31297
L 248.829515 151.429484
L 249.64482 151.563917
L 249.848646 152.036956
L 252.906041 163.352033
L 256.982567 163.322847
L 258.817004 163.313499
L 260.243788 163.381938
L 262.078225 163.574085
L 263.301183 163.738669
L 264.931793 164.007634
L 268.39684 163.985334
L 270.435103 164.044086
L 272.473367 164.063894
L 278.791982 163.822141
L 281.849377 164.002578
L 283.683814 164.048421
L 285.722077 164.074103
L 290.410082 164.580863
L 292.244519 164.709352
L 300.805224 164.687808
L 302.435834 164.827532
L 304.270271 165.43169
L 309.162102 165.756612
L 312.423323 166.463246
L 314.053934 166.718521
L 316.703676 167.393016
L 319.149591 168.131637
L 323.837596 168.724119
L 325.468207 169.000928
L 326.283512 169.234773
L 327.710296 169.825011
L 329.13708 170.263739
L 330.767691 170.511808
L 333.825086 170.690505
L 337.697785 170.74308
L 348.296754 172.496892
L 350.538843 172.884199
L 354.00389 173.398756
L 361.341637 174.774365
L 363.3799 175.185828
L 365.214337 175.435993
L 368.271732 176.031323
L 369.698516 176.259329
L 371.736779 176.547407
L 375.813305 177.093652
L 379.278353 177.5547
L 386.6161 178.751718
L 391.100279 179.450187
L 397.418894 180.377706
L 405.775773 181.587273
L 498.109091 181.587273
L 498.109091 181.587273
" style="fill:none;stroke:#2ca02c;stroke-linecap:square;stroke-width:0.8;"/>
   </g>
   <g id="patch_3">
    <path d="M 72 189
L 72 25.92
" style="fill:none;"/>
   </g>
   <g id="patch_4">
    <path d="M 518.4 189
L 518.4 25.92
" style="fill:none;"/>
   </g>
   <g id="patch_5">
    <path d="M 72 189
L 518.4 189
" style="fill:none;"/>
   </g>
   <g id="patch_6">
    <path d="M 72 25.92
L 518.4 25.92
" style="fill:none;"/>
   </g>
   <g id="line2d_22">
    <path clip-path="url(#peebbbdcd41)" d="M 92.290909 162.906318
L 93.106214 162.934045
L 93.310041 162.517446
L 93.513867 158.02161
L 94.532998 111.168475
L 95.959783 63.428331
L 96.163609 62.868021
L 96.978914 62.993096
L 98.201872 62.973807
L 98.609525 65.707488
L 98.813351 67.991242
L 99.017177 68.801706
L 99.42483 71.008692
L 99.628656 69.730022
L 99.832483 69.918958
L 100.647788 67.584402
L 100.851614 66.775022
L 101.05544 66.574179
L 102.686051 67.033325
L 103.093703 67.182894
L 103.29753 66.500307
L 103.705182 69.234549
L 104.92814 57.997305
L 105.131967 58.341744
L 105.335793 58.132663
L 105.539619 58.251822
L 105.743446 57.334737
L 105.947272 57.109235
L 107.781709 56.874434
L 107.985535 56.658699
L 108.189361 55.721904
L 108.597014 48.929592
L 109.208493 46.467286
L 109.819972 51.205646
L 110.227624 46.320896
L 110.431451 44.628559
L 110.635277 44.73725
L 112.877366 44.537374
L 113.081193 43.85109
L 113.488845 44.226967
L 113.692672 43.914416
L 114.100324 42.858894
L 114.711803 38.639026
L 114.915629 39.653386
L 115.323282 40.358108
L 115.527108 41.118254
L 116.342414 41.070579
L 117.769198 41.001245
L 118.380677 42.561203
L 118.992156 46.000575
L 120.215113 44.554396
L 120.622766 44.293493
L 122.457203 44.340827
L 122.661029 44.277453
L 122.864855 43.691672
L 123.068682 42.542139
L 123.272508 42.529125
L 123.476334 42.755552
L 123.680161 42.518327
L 123.883987 42.656755
L 125.106945 58.461202
L 125.310771 59.45309
L 125.514598 59.682194
L 127.349034 59.693311
L 127.552861 60.385214
L 127.756687 66.263889
L 128.775818 116.173757
L 130.202603 163.098205
L 130.406429 164.068173
L 132.037039 164.019528
L 132.240866 163.995556
L 132.444692 163.183016
L 132.648518 157.606886
L 133.463824 112.300382
L 134.482955 60.551193
L 134.890608 41.195598
L 135.094434 34.931835
L 135.29826 33.335481
L 136.725045 33.414524
L 137.336523 33.556409
L 137.744176 34.076866
L 137.948002 34.16702
L 138.355655 37.503084
L 138.559481 39.089601
L 138.763308 38.875097
L 138.967134 38.41925
L 139.17096 38.312999
L 139.374787 37.716365
L 139.782439 37.86852
L 139.986265 37.400415
L 140.801571 37.505664
L 142.228355 37.593418
L 142.432181 37.519818
L 142.636007 37.829248
L 142.839834 38.509751
L 143.247486 37.634944
L 143.451313 37.543833
L 143.655139 38.047922
L 144.266618 41.510816
L 144.878097 45.235407
L 145.081923 45.365554
L 147.120186 44.863331
L 147.324013 45.916778
L 147.527839 45.860009
L 147.731665 46.579712
L 149.158449 64.949795
L 149.566102 69.842968
L 149.769928 70.849777
L 149.973755 71.178836
L 151.604365 71.270426
L 151.808191 71.28395
L 152.012018 71.518114
L 152.215844 72.686832
L 152.827323 79.627168
L 153.438802 84.409485
L 153.846454 88.835284
L 154.457933 98.310828
L 154.66176 98.531649
L 156.903849 98.985621
L 157.107675 98.693017
L 157.311502 99.069502
L 157.515328 99.114882
L 157.719154 99.850277
L 158.126807 102.780914
L 158.738286 96.566572
L 159.349765 87.255158
L 160.776549 87.045419
L 161.591854 87.04447
L 161.795681 86.821251
L 161.999507 85.705473
L 163.018638 73.3133
L 164.241596 75.357034
L 164.445423 75.091649
L 165.056902 75.064202
L 166.687512 74.862307
L 167.502817 77.430617
L 167.91047 79.988409
L 168.318122 80.760763
L 168.725775 83.331015
L 169.133428 85.993933
L 169.337254 86.812522
L 169.744907 86.895439
L 171.579343 86.934697
L 171.78317 87.278556
L 172.394649 89.268869
L 172.598475 89.268118
L 172.802301 89.470167
L 173.006128 89.316519
L 173.209954 89.524526
L 173.41378 88.808251
L 174.025259 83.789578
L 174.229085 83.025786
L 174.432912 82.822539
L 176.063522 83.123562
L 176.471175 83.143693
L 176.878827 81.504225
L 177.694133 76.367625
L 177.897959 76.278185
L 178.101785 75.688015
L 178.305612 75.526761
L 178.713264 76.686378
L 179.120917 77.474831
L 179.324743 77.594365
L 180.547701 77.359432
L 181.363006 77.263759
L 181.974485 80.756364
L 182.78979 86.168117
L 183.197443 87.998887
L 184.012748 89.17586
L 186.254838 89.211013
L 186.866317 87.835911
L 187.273969 86.111346
L 188.90458 80.667604
L 189.312232 80.472362
L 191.146669 80.230743
L 191.350495 80.306675
L 191.554322 80.061237
L 191.758148 79.500406
L 191.961974 79.563526
L 192.369627 80.036823
L 192.573453 78.578239
L 192.981106 77.324638
L 193.388759 77.304693
L 193.592585 78.219048
L 194.000237 77.354377
L 195.223195 77.519755
L 196.038501 77.650061
L 196.853806 73.409199
L 197.261458 69.614413
L 197.465285 69.970933
L 197.872937 68.66019
L 198.484416 62.660575
L 198.688243 63.288538
L 199.095895 63.433187
L 200.930332 63.52742
L 201.337985 65.265708
L 202.15329 70.138028
L 202.764769 72.257241
L 203.376248 76.8111
L 203.580074 76.712315
L 203.7839 76.832847
L 206.229816 76.514951
L 206.433642 76.410733
L 206.841295 77.726157
L 207.248948 79.528279
L 208.064253 82.840393
L 208.268079 83.423187
L 208.675732 83.653741
L 210.713995 83.869507
L 210.917821 84.156678
L 211.325474 90.591638
L 211.936953 88.24726
L 212.548432 85.581124
L 213.159911 89.930952
L 213.363737 89.367404
L 213.567563 89.140797
L 215.605826 89.047358
L 215.809653 87.634119
L 216.217305 79.831744
L 216.828784 86.242024
L 217.03261 85.605207
L 217.440263 83.526882
L 218.051742 74.412331
L 219.682352 74.023755
L 220.497658 73.957315
L 220.701484 74.794523
L 220.90531 74.792781
L 221.109137 75.107438
L 221.516789 70.89382
L 221.720615 68.930538
L 223.1474 77.081423
L 223.351226 77.307679
L 225.797142 77.47578
L 226.000968 77.464554
L 226.204794 78.151391
L 226.612447 78.558951
L 227.223926 79.86728
L 227.631578 80.919867
L 227.835405 81.294691
L 228.446884 81.506267
L 230.28132 81.721759
L 230.688973 84.018799
L 230.892799 85.872658
L 231.096626 86.330872
L 231.504278 89.136187
L 232.52341 92.135043
L 232.931063 92.720525
L 233.338715 92.788765
L 235.173152 92.792954
L 235.376978 92.286939
L 236.192283 95.830912
L 236.39611 96.094919
L 236.599936 95.997171
L 237.007589 96.129012
L 237.211415 96.226639
L 237.415241 96.043894
L 237.822894 94.60744
L 238.02672 94.366597
L 240.064983 94.329686
L 240.26881 95.027404
L 240.880289 104.773948
L 241.491767 112.196554
L 242.307073 121.017681
L 242.714725 125.666272
L 243.122378 125.437367
L 244.549162 125.060385
L 244.956815 125.024472
L 246.791252 143.815866
L 247.606557 151.91798
L 247.810383 152.801486
L 248.829515 152.917999
L 249.64482 153.052433
L 250.052472 154.203616
L 251.071604 157.577751
L 252.702215 163.348718
L 254.944304 163.274287
L 256.574914 163.306106
L 259.02083 163.30822
L 260.447614 163.414889
L 261.670572 163.552074
L 263.301183 163.738669
L 264.931793 164.007634
L 268.39684 163.985334
L 270.435103 164.044086
L 272.473367 164.063894
L 278.791982 163.822141
L 281.849377 164.002578
L 283.683814 164.048421
L 285.722077 164.074103
L 290.410082 164.580863
L 292.244519 164.709352
L 300.805224 164.687808
L 302.435834 164.827532
L 304.270271 165.43169
L 309.162102 165.756612
L 312.423323 166.463246
L 314.053934 166.718521
L 316.703676 167.393016
L 319.149591 168.131637
L 323.837596 168.724119
L 325.468207 169.000928
L 326.283512 169.234773
L 327.710296 169.825011
L 329.13708 170.263739
L 330.767691 170.511808
L 333.825086 170.690505
L 337.697785 170.74308
L 348.296754 172.496892
L 350.538843 172.884199
L 354.00389 173.398756
L 361.341637 174.774365
L 363.3799 175.185828
L 365.214337 175.435993
L 368.271732 176.031323
L 369.698516 176.259329
L 371.736779 176.547407
L 375.813305 177.093652
L 379.278353 177.5547
L 386.6161 178.751718
L 391.100279 179.450187
L 397.418894 180.377706
L 405.775773 181.587273
L 498.109091 181.587273
L 498.109091 181.587273
" style="fill:none;stroke:#d62728;stroke-linecap:square;stroke-width:0.8;"/>
   </g>
   <g id="line2d_23">
    <path clip-path="url(#peebbbdcd41)" d="M 92.290909 162.906318
L 93.106214 162.934045
L 93.310041 162.517446
L 93.513867 158.02161
L 94.532998 111.168475
L 95.959783 63.428329
L 96.163609 62.868019
L 96.978914 62.993094
L 98.201872 62.973806
L 98.609525 65.707486
L 98.813351 67.99124
L 99.017177 68.801704
L 99.42483 71.00869
L 99.628656 69.73002
L 99.832483 69.918957
L 100.647788 67.5844
L 100.851614 66.775023
L 101.05544 66.57418
L 102.686051 67.033326
L 103.093703 67.182895
L 103.29753 66.500308
L 103.705182 69.234549
L 104.92814 57.997305
L 105.131967 58.341745
L 105.335793 58.132663
L 105.539619 58.251822
L 105.743446 57.334737
L 105.947272 57.109235
L 107.781709 56.874434
L 107.985535 56.6587
L 108.189361 55.721904
L 108.597014 48.929592
L 109.208493 46.467286
L 109.819972 51.205637
L 110.227624 46.320888
L 110.431451 44.628551
L 110.635277 44.737242
L 112.877366 44.537365
L 113.081193 43.851081
L 113.488845 44.226959
L 113.692672 43.914408
L 114.100324 42.858886
L 114.711803 38.639026
L 114.915629 39.653386
L 115.323282 40.358108
L 115.527108 41.118254
L 116.342414 41.070579
L 117.769198 41.001245
L 118.380677 42.561203
L 118.992156 46.000575
L 120.215113 44.554396
L 120.622766 44.293493
L 122.457203 44.340827
L 122.661029 44.277453
L 122.864855 43.691672
L 123.068682 42.542139
L 123.272508 42.529126
L 123.476334 42.755552
L 123.680161 42.518327
L 123.883987 42.656755
L 125.106945 58.461203
L 125.310771 59.453089
L 125.514598 59.682192
L 127.349034 59.69331
L 127.552861 60.385213
L 127.756687 66.263888
L 128.775818 116.173755
L 130.202603 163.098205
L 130.406429 164.068173
L 132.037039 164.019528
L 132.240866 163.995556
L 132.444692 163.183016
L 132.648518 157.606886
L 133.463824 112.300382
L 134.482955 60.551193
L 134.890608 41.195598
L 135.094434 34.931835
L 135.29826 33.335481
L 136.725045 33.414524
L 137.336523 33.556409
L 137.744176 34.076866
L 137.948002 34.16702
L 138.355655 37.503084
L 138.559481 39.089601
L 138.763308 38.875097
L 138.967134 38.419251
L 139.17096 38.312999
L 139.374787 37.716365
L 139.782439 37.868521
L 139.986265 37.400415
L 140.801571 37.505664
L 142.228355 37.593418
L 142.432181 37.519818
L 142.636007 37.829248
L 142.839834 38.509751
L 143.247486 37.634944
L 143.451313 37.543833
L 143.655139 38.047922
L 144.266618 41.510816
L 144.878097 45.235407
L 145.081923 45.365554
L 147.120186 44.863331
L 147.324013 45.916778
L 147.527839 45.86001
L 147.731665 46.579712
L 149.158449 64.949796
L 149.566102 69.842969
L 149.769928 70.849779
L 149.973755 71.178837
L 151.604365 71.270427
L 151.808191 71.283952
L 152.012018 71.518116
L 152.215844 72.686834
L 152.827323 79.627169
L 153.438802 84.409486
L 153.846454 88.835285
L 154.457933 98.310829
L 154.66176 98.53165
L 156.903849 98.985622
L 157.107675 98.693017
L 157.311502 99.069503
L 157.515328 99.114883
L 157.719154 99.850277
L 158.126807 102.780915
L 158.738286 96.566573
L 159.349765 87.255159
L 160.776549 87.04542
L 161.591854 87.044471
L 161.795681 86.821252
L 161.999507 85.705474
L 163.018638 73.313301
L 164.241596 75.357036
L 164.445423 75.09165
L 165.056902 75.064204
L 166.687512 74.862308
L 167.502817 77.430618
L 167.91047 79.98841
L 168.318122 80.760764
L 168.725775 83.331016
L 169.133428 85.993934
L 169.337254 86.812523
L 169.744907 86.89544
L 171.579343 86.934697
L 171.78317 87.278556
L 172.394649 89.268869
L 172.598475 89.268119
L 172.802301 89.470168
L 173.006128 89.316519
L 173.209954 89.524527
L 173.41378 88.808252
L 174.025259 83.789579
L 174.229085 83.025787
L 174.432912 82.82254
L 176.063522 83.123563
L 176.471175 83.143694
L 176.878827 81.504227
L 177.694133 76.367626
L 177.897959 76.278186
L 178.101785 75.688017
L 178.305612 75.526762
L 178.713264 76.686379
L 179.120917 77.474832
L 179.324743 77.594366
L 180.547701 77.359433
L 181.363006 77.263761
L 181.974485 80.756366
L 182.78979 86.168119
L 183.197443 87.998888
L 184.012748 89.175862
L 186.254838 89.211014
L 186.866317 87.835912
L 187.273969 86.111348
L 188.90458 80.667605
L 189.312232 80.472364
L 191.146669 80.230744
L 191.350495 80.306676
L 191.554322 80.061238
L 191.758148 79.500408
L 191.961974 79.563527
L 192.369627 80.036824
L 192.573453 78.57824
L 192.981106 77.324639
L 193.388759 77.304694
L 193.592585 78.219049
L 194.000237 77.354375
L 195.223195 77.519754
L 196.038501 77.650059
L 196.853806 73.409198
L 197.261458 69.614412
L 197.465285 69.970932
L 197.872937 68.660189
L 198.484416 62.660574
L 198.688243 63.288536
L 199.095895 63.433185
L 200.930332 63.527419
L 201.337985 65.265707
L 202.15329 70.138027
L 202.764769 72.25724
L 203.376248 76.811099
L 203.580074 76.712314
L 203.7839 76.832846
L 206.229816 76.51495
L 206.433642 76.410732
L 206.841295 77.726157
L 207.248948 79.528278
L 208.064253 82.840392
L 208.268079 83.423186
L 208.675732 83.653743
L 210.713995 83.869509
L 210.917821 84.15668
L 211.325474 90.591639
L 211.936953 88.247261
L 212.548432 85.581125
L 213.159911 89.930954
L 213.363737 89.367403
L 213.567563 89.140796
L 215.605826 89.047357
L 215.809653 87.634118
L 216.217305 79.831743
L 216.828784 86.242023
L 217.03261 85.605206
L 217.440263 83.526881
L 218.051742 74.412329
L 219.682352 74.023755
L 220.497658 73.957315
L 220.701484 74.794522
L 220.90531 74.79278
L 221.109137 75.107437
L 221.516789 70.893819
L 221.720615 68.930536
L 223.1474 77.08142
L 223.351226 77.307676
L 225.797142 77.475779
L 226.000968 77.464553
L 226.204794 78.15139
L 226.612447 78.558949
L 227.223926 79.867276
L 227.631578 81.346708
L 227.835405 81.721531
L 228.446884 81.933105
L 230.28132 82.148598
L 230.688973 84.445641
L 230.892799 86.786544
L 231.096626 87.793406
L 231.504278 92.074404
L 232.115757 96.840102
L 232.52341 99.986894
L 232.727236 100.913833
L 233.134889 101.188641
L 235.173152 101.195829
L 235.376978 100.689814
L 235.988457 108.020315
L 236.39611 111.012132
L 237.211415 113.277115
L 237.619068 113.71398
L 237.822894 113.805482
L 238.02672 113.564639
L 240.064983 113.527729
L 240.26881 115.063605
L 240.880289 121.625428
L 241.287941 125.287587
L 242.103246 130.639737
L 242.510899 133.558925
L 242.714725 135.955341
L 243.122378 135.726436
L 244.549162 135.349454
L 244.956815 135.383757
L 246.791252 148.744037
L 247.810383 155.592164
L 248.829515 155.708677
L 249.64482 155.84311
L 250.460125 157.652488
L 252.702215 163.348718
L 254.944304 163.274287
L 256.574914 163.306106
L 259.02083 163.30822
L 260.447614 163.414889
L 261.670572 163.552074
L 263.301183 163.738669
L 264.931793 164.007634
L 268.39684 163.985334
L 270.435103 164.044086
L 272.473367 164.063894
L 278.791982 163.822141
L 281.849377 164.002578
L 283.683814 164.048421
L 285.722077 164.074103
L 290.410082 164.580863
L 292.244519 164.709352
L 300.805224 164.687808
L 302.435834 164.827532
L 304.270271 165.43169
L 309.162102 165.756612
L 312.423323 166.463246
L 314.053934 166.718521
L 316.703676 167.393016
L 319.149591 168.131637
L 323.837596 168.724119
L 325.468207 169.000928
L 326.283512 169.234773
L 327.710296 169.825011
L 329.13708 170.263739
L 330.767691 170.511808
L 333.825086 170.690505
L 337.697785 170.74308
L 348.296754 172.496892
L 350.538843 172.884199
L 354.00389 173.398756
L 361.341637 174.774365
L 363.3799 175.185828
L 365.214337 175.435993
L 368.271732 176.031323
L 369.698516 176.259329
L 371.736779 176.547407
L 375.813305 177.093652
L 379.278353 177.5547
L 386.6161 178.751718
L 391.100279 179.450187
L 397.418894 180.377706
L 405.775773 181.587273
L 498.109091 181.587273
L 498.109091 181.587273
" style="fill:none;stroke:#9467bd;stroke-linecap:square;stroke-width:0.8;"/>
   </g>
   <g id="legend_1">
    <g id="patch_7">
     <path d="M 450.810937 107.310625
L 511.4 107.310625
Q 513.4 107.310625 513.4 105.310625
L 513.4 32.92
Q 513.4 30.92 511.4 30.92
L 450.810937 30.92
Q 448.810937 30.92 448.810937 32.92
L 448.810937 105.310625
Q 448.810937 107.310625 450.810937 107.310625
z
" style="fill:#ffffff;opacity:0.8;stroke:#cccccc;stroke-linejoin:miter;"/>
    </g>
    <g id="line2d_24">
     <path d="M 452.810937 39.018438
L 472.810937 39.018438
" style="fill:none;stroke:#1f77b4;stroke-linecap:square;stroke-width:0.8;"/>
    </g>
    <g id="line2d_25"/>
    <g id="text_14">
     <!-- 0% -->
     <g style="fill:#696969;" transform="translate(480.810937 42.518438)scale(0.1 -0.1)">
      <defs>
       <path d="M 72.703125 32.078125
Q 68.453125 32.078125 66.03125 28.46875
Q 63.625 24.859375 63.625 18.40625
Q 63.625 12.0625 66.03125 8.421875
Q 68.453125 4.78125 72.703125 4.78125
Q 76.859375 4.78125 79.265625 8.421875
Q 81.6875 12.0625 81.6875 18.40625
Q 81.6875 24.8125 79.265625 28.4375
Q 76.859375 32.078125 72.703125 32.078125
z
M 72.703125 38.28125
Q 80.421875 38.28125 84.953125 32.90625
Q 89.5 27.546875 89.5 18.40625
Q 89.5 9.28125 84.9375 3.921875
Q 80.375 -1.421875 72.703125 -1.421875
Q 64.890625 -1.421875 60.34375 3.921875
Q 55.8125 9.28125 55.8125 18.40625
Q 55.8125 27.59375 60.375 32.9375
Q 64.9375 38.28125 72.703125 38.28125
z
M 22.3125 68.015625
Q 18.109375 68.015625 15.6875 64.375
Q 13.28125 60.75 13.28125 54.390625
Q 13.28125 47.953125 15.671875 44.328125
Q 18.0625 40.71875 22.3125 40.71875
Q 26.5625 40.71875 28.96875 44.328125
Q 31.390625 47.953125 31.390625 54.390625
Q 31.390625 60.6875 28.953125 64.34375
Q 26.515625 68.015625 22.3125 68.015625
z
M 66.40625 74.21875
L 74.21875 74.21875
L 28.609375 -1.421875
L 20.796875 -1.421875
z
M 22.3125 74.21875
Q 30.03125 74.21875 34.609375 68.875
Q 39.203125 63.53125 39.203125 54.390625
Q 39.203125 45.171875 34.640625 39.84375
Q 30.078125 34.515625 22.3125 34.515625
Q 14.546875 34.515625 10.03125 39.859375
Q 5.515625 45.21875 5.515625 54.390625
Q 5.515625 63.484375 10.046875 68.84375
Q 14.59375 74.21875 22.3125 74.21875
z
" id="DejaVuSans-37"/>
      </defs>
      <use xlink:href="#DejaVuSans-48"/>
      <use x="63.623047" xlink:href="#DejaVuSans-37"/>
     </g>
    </g>
    <g id="line2d_26">
     <path d="M 452.810937 53.696562
L 472.810937 53.696562
" style="fill:none;stroke:#ff7f0e;stroke-linecap:square;stroke-width:0.8;"/>
    </g>
    <g id="line2d_27"/>
    <g id="text_15">
     <!-- 10% -->
     <g style="fill:#696969;" transform="translate(480.810937 57.196562)scale(0.1 -0.1)">
      <use xlink:href="#DejaVuSans-49"/>
      <use x="63.623047" xlink:href="#DejaVuSans-48"/>
      <use x="127.246094" xlink:href="#DejaVuSans-37"/>
     </g>
    </g>
    <g id="line2d_28">
     <path d="M 452.810937 68.374687
L 472.810937 68.374687
" style="fill:none;stroke:#2ca02c;stroke-linecap:square;stroke-width:0.8;"/>
    </g>
    <g id="line2d_29"/>
    <g id="text_16">
     <!-- 60% -->
     <g style="fill:#696969;" transform="translate(480.810937 71.874687)scale(0.1 -0.1)">
      <defs>
       <path d="M 33.015625 40.375
Q 26.375 40.375 22.484375 35.828125
Q 18.609375 31.296875 18.609375 23.390625
Q 18.609375 15.53125 22.484375 10.953125
Q 26.375 6.390625 33.015625 6.390625
Q 39.65625 6.390625 43.53125 10.953125
Q 47.40625 15.53125 47.40625 23.390625
Q 47.40625 31.296875 43.53125 35.828125
Q 39.65625 40.375 33.015625 40.375
z
M 52.59375 71.296875
L 52.59375 62.3125
Q 48.875 64.0625 45.09375 64.984375
Q 41.3125 65.921875 37.59375 65.921875
Q 27.828125 65.921875 22.671875 59.328125
Q 17.53125 52.734375 16.796875 39.40625
Q 19.671875 43.65625 24.015625 45.921875
Q 28.375 48.1875 33.59375 48.1875
Q 44.578125 48.1875 50.953125 41.515625
Q 57.328125 34.859375 57.328125 23.390625
Q 57.328125 12.15625 50.6875 5.359375
Q 44.046875 -1.421875 33.015625 -1.421875
Q 20.359375 -1.421875 13.671875 8.265625
Q 6.984375 17.96875 6.984375 36.375
Q 6.984375 53.65625 15.1875 63.9375
Q 23.390625 74.21875 37.203125 74.21875
Q 40.921875 74.21875 44.703125 73.484375
Q 48.484375 72.75 52.59375 71.296875
z
" id="DejaVuSans-54"/>
      </defs>
      <use xlink:href="#DejaVuSans-54"/>
      <use x="63.623047" xlink:href="#DejaVuSans-48"/>
      <use x="127.246094" xlink:href="#DejaVuSans-37"/>
     </g>
    </g>
    <g id="line2d_30">
     <path d="M 452.810937 83.052813
L 472.810937 83.052813
" style="fill:none;stroke:#d62728;stroke-linecap:square;stroke-width:0.8;"/>
    </g>
    <g id="line2d_31"/>
    <g id="text_17">
     <!-- 100% -->
     <g style="fill:#696969;" transform="translate(480.810937 86.552813)scale(0.1 -0.1)">
      <use xlink:href="#DejaVuSans-49"/>
      <use x="63.623047" xlink:href="#DejaVuSans-48"/>
      <use x="127.246094" xlink:href="#DejaVuSans-48"/>
      <use x="190.869141" xlink:href="#DejaVuSans-37"/>
     </g>
    </g>
    <g id="line2d_32">
     <path d="M 452.810937 97.730938
L 472.810937 97.730938
" style="fill:none;stroke:#9467bd;stroke-linecap:square;stroke-width:0.8;"/>
    </g>
    <g id="line2d_33"/>
    <g id="text_18">
     <!-- 200% -->
     <g style="fill:#696969;" transform="translate(480.810937 101.230938)scale(0.1 -0.1)">
      <use xlink:href="#DejaVuSans-50"/>
      <use x="63.623047" xlink:href="#DejaVuSans-48"/>
      <use x="127.246094" xlink:href="#DejaVuSans-48"/>
      <use x="190.869141" xlink:href="#DejaVuSans-37"/>
     </g>
    </g>
   </g>
  </g>
  <g id="text_19">
   <!-- gsto -->
   <g style="fill:#696969;" transform="translate(275.041875 13.438125)scale(0.12 -0.12)">
    <defs>
     <path d="M 45.40625 27.984375
Q 45.40625 37.75 41.375 43.109375
Q 37.359375 48.484375 30.078125 48.484375
Q 22.859375 48.484375 18.828125 43.109375
Q 14.796875 37.75 14.796875 27.984375
Q 14.796875 18.265625 18.828125 12.890625
Q 22.859375 7.515625 30.078125 7.515625
Q 37.359375 7.515625 41.375 12.890625
Q 45.40625 18.265625 45.40625 27.984375
z
M 54.390625 6.78125
Q 54.390625 -7.171875 48.1875 -13.984375
Q 42 -20.796875 29.203125 -20.796875
Q 24.46875 -20.796875 20.265625 -20.09375
Q 16.0625 -19.390625 12.109375 -17.921875
L 12.109375 -9.1875
Q 16.0625 -11.328125 19.921875 -12.34375
Q 23.78125 -13.375 27.78125 -13.375
Q 36.625 -13.375 41.015625 -8.765625
Q 45.40625 -4.15625 45.40625 5.171875
L 45.40625 9.625
Q 42.625 4.78125 38.28125 2.390625
Q 33.9375 0 27.875 0
Q 17.828125 0 11.671875 7.65625
Q 5.515625 15.328125 5.515625 27.984375
Q 5.515625 40.671875 11.671875 48.328125
Q 17.828125 56 27.875 56
Q 33.9375 56 38.28125 53.609375
Q 42.625 51.21875 45.40625 46.390625
L 45.40625 54.6875
L 54.390625 54.6875
z
" id="DejaVuSans-103"/>
    </defs>
    <use xlink:href="#DejaVuSans-103"/>
    <use x="63.476562" xlink:href="#DejaVuSans-115"/>
    <use x="115.576172" xlink:href="#DejaVuSans-116"/>
    <use x="154.785156" xlink:href="#DejaVuSans-111"/>
   </g>
  </g>
 </g>
 <defs>
  <clipPath id="peebbbdcd41">
   <rect height="163.08" width="446.4" x="72" y="25.92"/>
  </clipPath>
 </defs>
</svg>
