<?xml version="1.0" encoding="utf-8" standalone="no"?>
<!DOCTYPE svg PUBLIC "-//W3C//DTD SVG 1.1//EN"
  "http://www.w3.org/Graphics/SVG/1.1/DTD/svg11.dtd">
<!-- Created with matplotlib (https://matplotlib.org/) -->
<svg height="216pt" version="1.1" viewBox="0 0 576 216" width="576pt" xmlns="http://www.w3.org/2000/svg" xmlns:xlink="http://www.w3.org/1999/xlink">
 <metadata>
  <rdf:RDF xmlns:cc="http://creativecommons.org/ns#" xmlns:dc="http://purl.org/dc/elements/1.1/" xmlns:rdf="http://www.w3.org/1999/02/22-rdf-syntax-ns#">
   <cc:Work>
    <dc:type rdf:resource="http://purl.org/dc/dcmitype/StillImage"/>
    <dc:date>2020-11-03T11:27:03.813659</dc:date>
    <dc:format>image/svg+xml</dc:format>
    <dc:creator>
     <cc:Agent>
      <dc:title>Matplotlib v3.3.2, https://matplotlib.org/</dc:title>
     </cc:Agent>
    </dc:creator>
   </cc:Work>
  </rdf:RDF>
 </metadata>
 <defs>
  <style type="text/css">*{stroke-linecap:butt;stroke-linejoin:round;}</style>
 </defs>
 <g id="figure_1">
  <g id="patch_1">
   <path d="M 0 216
L 576 216
L 576 0
L 0 0
z
" style="fill:none;"/>
  </g>
  <g id="axes_1">
   <g id="patch_2">
    <path d="M 72 189
L 518.4 189
L 518.4 25.92
L 72 25.92
z
" style="fill:none;"/>
   </g>
   <g id="line2d_1">
    <path clip-path="url(#pa25fc9ef8c)" d="M 92.290909 172.634821
L 93.106214 172.66057
L 93.310041 172.275502
L 93.513867 166.839502
L 95.144477 81.290599
L 95.755956 50.903806
L 95.959783 44.884533
L 96.163609 44.151787
L 96.571262 44.358195
L 97.182741 44.553271
L 98.201872 44.624558
L 99.017177 46.494875
L 99.42483 48.075976
L 99.628656 48.113974
L 100.036309 50.075628
L 100.647788 56.497253
L 100.851614 57.423172
L 102.278398 57.448561
L 103.093703 57.668938
L 103.29753 58.364933
L 103.705182 64.067636
L 104.112835 64.763528
L 104.316661 65.11532
L 104.520488 64.751701
L 105.131967 61.746441
L 105.539619 60.563137
L 105.743446 59.217844
L 105.947272 58.92439
L 107.781709 58.685907
L 107.985535 58.485799
L 108.189361 57.12181
L 108.80084 49.645045
L 109.208493 47.804966
L 109.819972 53.359844
L 110.431451 47.485774
L 110.635277 47.927995
L 112.877366 47.750332
L 113.285019 47.383181
L 113.488845 47.185265
L 114.100324 43.939944
L 114.711803 36.879197
L 115.527108 34.675929
L 115.730935 34.495499
L 117.565371 34.641508
L 117.769198 34.571167
L 117.973024 34.94127
L 118.380677 36.297966
L 118.992156 41.216809
L 120.41894 42.23301
L 121.030419 42.192094
L 122.661029 42.104698
L 122.864855 42.047271
L 123.272508 40.99098
L 123.883987 36.452009
L 124.699292 41.338363
L 125.106945 42.825357
L 125.514598 43.044361
L 126.329903 43.213285
L 127.349034 43.322158
L 127.552861 43.983959
L 127.756687 49.63744
L 128.571992 94.83591
L 129.79495 157.920432
L 130.202603 173.048141
L 130.406429 174.343062
L 131.221734 174.086868
L 132.240866 173.890962
L 132.444692 173.117484
L 132.648518 167.27193
L 133.259997 133.822693
L 134.279129 80.36415
L 134.890608 50.852817
L 135.094434 44.905256
L 135.29826 43.369383
L 136.928871 43.494935
L 137.336523 43.597642
L 137.744176 44.268223
L 137.948002 44.710403
L 138.559481 49.297295
L 139.17096 46.182674
L 139.782439 42.499117
L 139.986265 41.842057
L 140.190092 41.733593
L 141.41305 41.894626
L 142.228355 41.910651
L 142.839834 41.593477
L 143.655139 35.858553
L 144.062792 34.653996
L 144.674271 34.48
L 145.693402 34.255799
L 147.324013 34.117819
L 147.731665 33.332727
L 148.954623 40.559594
L 149.566102 44.808744
L 149.973755 45.374151
L 150.585234 45.536666
L 152.012018 45.926452
L 152.215844 47.129289
L 153.031149 54.307703
L 153.234976 55.668499
L 153.846454 63.82162
L 154.457933 77.624624
L 154.66176 77.904951
L 156.903849 78.492393
L 157.107675 78.363881
L 157.515328 78.612173
L 158.126807 86.195267
L 158.738286 78.233835
L 159.349765 64.411264
L 159.961244 64.024628
L 161.591854 63.823253
L 161.795681 63.64161
L 161.999507 62.476653
L 162.407159 58.236802
L 163.018638 46.748605
L 163.630117 47.402672
L 164.03777 47.886398
L 164.241596 48.072291
L 164.649249 47.913655
L 166.279859 47.757197
L 166.687512 47.720221
L 167.095165 48.130885
L 167.298991 48.426307
L 167.706644 51.301001
L 167.91047 52.711144
L 168.318122 54.03998
L 168.725775 57.761541
L 169.133428 61.515192
L 169.337254 62.023613
L 170.356386 62.175879
L 171.579343 62.22207
L 172.190822 62.679514
L 172.394649 62.291553
L 172.802301 60.796076
L 173.209954 60.158151
L 173.41378 58.920607
L 174.025259 52.819785
L 174.229085 52.422606
L 174.636738 52.271641
L 176.471175 52.455189
L 176.675001 52.130309
L 176.878827 52.087792
L 177.082654 51.809661
L 177.694133 49.881414
L 177.897959 49.921356
L 178.101785 49.538219
L 178.305612 49.411486
L 178.713264 50.062156
L 178.917091 50.34159
L 181.363006 50.133111
L 181.566833 50.56867
L 181.770659 50.671204
L 181.974485 51.067442
L 182.585964 53.609983
L 182.78979 54.027849
L 183.197443 55.280972
L 183.401269 55.431839
L 183.808922 55.89721
L 185.439532 55.897301
L 186.254838 55.911647
L 186.866317 55.214815
L 187.681622 52.329758
L 188.700753 48.424902
L 189.108406 47.942635
L 190.331364 47.677735
L 191.146669 47.568088
L 191.758148 47.744042
L 192.369627 50.149327
L 192.573453 49.388085
L 192.77728 49.332652
L 192.981106 49.738453
L 193.388759 53.288419
L 193.592585 55.820003
L 194.40789 55.569364
L 195.427022 55.622893
L 196.038501 55.73904
L 196.242327 55.398871
L 196.446153 55.373898
L 196.649979 55.017651
L 197.261458 51.864697
L 197.465285 52.863235
L 197.669111 53.129869
L 197.872937 52.948582
L 198.28059 48.231325
L 198.484416 45.204024
L 198.688243 46.015738
L 198.892069 46.206008
L 200.522679 46.359792
L 200.930332 46.396731
L 201.745637 47.740047
L 202.15329 48.232441
L 202.764769 47.250167
L 203.376248 49.086852
L 203.580074 48.586331
L 204.191553 48.508846
L 206.02599 48.332619
L 206.433642 48.037815
L 206.637469 48.624145
L 206.841295 48.778521
L 207.045121 49.110346
L 207.860426 51.672087
L 208.268079 52.757139
L 208.675732 52.760686
L 209.89869 52.943072
L 210.713995 53.029382
L 210.917821 53.701325
L 211.325474 61.731961
L 212.548432 58.944131
L 213.159911 67.955744
L 213.567563 67.47987
L 214.382868 67.345545
L 215.605826 67.242608
L 215.809653 65.951286
L 216.217305 56.908074
L 216.828784 66.755307
L 217.440263 63.834586
L 218.051742 50.774367
L 218.459395 50.404365
L 219.886179 50.137467
L 220.497658 50.114816
L 220.701484 50.491237
L 220.90531 50.547796
L 221.109137 50.811752
L 221.720615 40.395199
L 222.943573 46.688149
L 223.351226 47.111973
L 224.574184 47.31686
L 225.389489 47.439032
L 226.000968 47.907932
L 226.408621 48.901688
L 227.0201 50.466007
L 227.835405 52.747019
L 228.243057 53.111171
L 229.262189 53.271117
L 230.28132 53.420324
L 230.688973 54.933088
L 230.892799 56.069303
L 231.096626 56.547984
L 231.504278 58.149156
L 232.52341 60.051075
L 232.931063 60.381546
L 233.950194 60.474389
L 235.173152 60.509525
L 235.580805 59.543889
L 235.988457 58.298967
L 237.007589 55.42087
L 237.619068 53.326712
L 238.02672 52.951761
L 239.045852 52.812867
L 240.064983 52.693745
L 240.26881 52.528869
L 241.287941 75.6679
L 241.89942 84.092296
L 242.307073 90.932269
L 242.714725 93.700951
L 243.122378 93.325328
L 244.752988 92.927131
L 244.956815 92.922242
L 246.179773 118.033271
L 247.606557 153.697085
L 247.810383 154.869465
L 248.421862 154.805308
L 249.440994 154.863212
L 249.64482 154.883616
L 249.848646 155.39886
L 252.702215 174.166683
L 253.925172 174.212333
L 255.963435 174.271453
L 258.001699 174.665596
L 259.836135 174.875562
L 260.243788 174.999506
L 261.26292 175.505724
L 261.874398 175.592851
L 263.708835 175.787917
L 264.52414 175.919118
L 264.931793 175.802047
L 265.339446 175.609663
L 266.562404 175.008771
L 267.173882 174.884932
L 268.39684 174.833838
L 269.823624 174.904549
L 272.26954 175.324049
L 273.696324 175.282369
L 275.530761 175.227882
L 277.161372 175.616117
L 278.588156 175.702328
L 280.626419 175.805298
L 283.276161 176.118961
L 285.51825 176.214241
L 286.741208 176.57389
L 287.76034 176.800558
L 289.594776 177.069969
L 291.429213 177.593413
L 294.894261 177.777959
L 295.913392 177.873539
L 300.601397 177.948374
L 301.620529 177.55997
L 302.232008 177.500829
L 303.454966 177.591331
L 304.270271 177.589155
L 304.88175 177.343527
L 305.900881 177.045747
L 309.162102 176.809019
L 309.569755 176.93838
L 309.773581 176.997578
L 310.38506 177.483658
L 311.608018 177.989919
L 313.442455 177.999218
L 314.053934 178.186993
L 319.149591 178.928107
L 320.168723 178.949442
L 322.818465 179.026172
L 324.449075 178.970524
L 325.672033 178.334194
L 327.50647 178.258605
L 329.544733 178.515694
L 330.156212 178.575313
L 331.37917 178.726305
L 333.417433 178.712539
L 334.028912 178.563312
L 334.640391 178.268933
L 336.067175 177.587394
L 337.697785 177.165726
L 338.309264 176.990742
L 339.328396 176.731704
L 340.143701 176.73136
L 342.181964 176.73979
L 343.404922 176.619209
L 343.812575 176.76475
L 344.220227 176.982481
L 345.850838 177.879978
L 348.908233 178.275511
L 349.927364 178.657347
L 350.742669 178.746578
L 352.780932 178.856624
L 353.596238 179.028614
L 354.00389 179.043659
L 354.819195 179.085231
L 357.87659 179.314861
L 358.488069 179.306806
L 360.730158 179.279501
L 361.74929 179.442457
L 362.564595 179.52753
L 362.972248 179.527155
L 363.583727 179.043131
L 365.418164 177.85077
L 367.2526 177.656737
L 367.660253 177.782522
L 368.067906 177.992622
L 368.883211 178.364337
L 369.698516 178.509746
L 372.144432 178.494384
L 372.755911 178.315343
L 374.794174 177.975531
L 376.832437 177.930553
L 377.647742 177.906983
L 378.259221 177.964676
L 378.8707 178.248486
L 380.297484 178.867231
L 381.724268 179.186116
L 382.539574 179.376412
L 383.762531 180.171108
L 384.781663 180.587782
L 385.393142 180.585073
L 387.023752 180.566711
L 387.635231 180.677034
L 388.858189 180.979507
L 390.284973 181.070894
L 391.711757 181.032451
L 392.934715 180.746486
L 393.546194 180.367302
L 395.176805 179.901718
L 396.807415 179.816037
L 397.826547 179.885631
L 398.641852 180.133646
L 399.457157 180.316705
L 403.329857 180.826364
L 404.348989 180.681414
L 405.775773 180.773603
L 406.998731 180.746205
L 407.61021 180.482975
L 409.24082 180.159717
L 411.890562 180.030025
L 412.298215 180.296483
L 412.705867 180.6246
L 413.724999 181.479663
L 414.132651 181.554519
L 414.74413 181.566246
L 417.190046 181.341367
L 418.413004 181.047974
L 419.228309 181.085178
L 422.285704 181.267372
L 424.120141 180.866118
L 426.566056 180.785736
L 427.177535 180.441329
L 429.011972 179.43749
L 431.86554 179.035792
L 433.699977 178.336231
L 436.757372 177.924541
L 438.591809 177.60612
L 440.833898 177.133741
L 442.668335 176.946435
L 446.337208 177.014747
L 447.560166 177.413254
L 452.248171 179.14093
L 453.674955 179.351486
L 454.897913 179.31429
L 456.528524 179.164851
L 458.362961 178.012218
L 460.60505 177.431179
L 460.808876 177.341563
L 461.012703 177.404134
L 461.420355 177.323439
L 462.031834 177.686622
L 463.254792 178.159436
L 465.089229 178.062197
L 465.496881 178.173165
L 469.777234 179.115947
L 470.592539 179.342694
L 472.019323 179.95761
L 473.038455 180.21633
L 474.669065 180.364819
L 475.280544 180.283231
L 476.911155 180.073727
L 480.783855 180.300038
L 481.395334 180.285626
L 484.248902 180.09321
L 485.879512 180.073985
L 486.898644 179.835765
L 488.529254 179.649167
L 491.994302 179.536399
L 495.663175 179.493105
L 496.886133 179.789395
L 498.109091 179.968935
L 498.109091 179.968935
" style="fill:none;stroke:#1f77b4;stroke-linecap:square;stroke-width:0.8;"/>
   </g>
   <g id="line2d_2">
    <path clip-path="url(#pa25fc9ef8c)" d="M 92.290909 172.634821
L 93.106214 172.66057
L 93.310041 172.275502
L 93.513867 166.839502
L 95.144477 81.290599
L 95.755956 50.903806
L 95.959783 44.884533
L 96.163609 44.151787
L 96.571262 44.358195
L 97.182741 44.553271
L 98.201872 44.624558
L 99.017177 46.494875
L 99.42483 48.075976
L 99.628656 48.113974
L 100.036309 50.075628
L 100.647788 56.497253
L 100.851614 57.423172
L 102.278398 57.448561
L 103.093703 57.668938
L 103.29753 58.364933
L 103.705182 64.067636
L 104.112835 64.763528
L 104.316661 65.11532
L 104.520488 64.751701
L 105.131967 61.746441
L 105.539619 60.563137
L 105.743446 59.217844
L 105.947272 58.92439
L 107.781709 58.685907
L 107.985535 58.485799
L 108.189361 57.12181
L 108.80084 49.645045
L 109.208493 47.804966
L 109.819972 53.359844
L 110.431451 47.485774
L 110.635277 47.927995
L 112.877366 47.750332
L 113.285019 47.383181
L 113.488845 47.185265
L 114.100324 43.939944
L 114.711803 36.879197
L 115.527108 34.675929
L 115.730935 34.495499
L 117.565371 34.641508
L 117.769198 34.571167
L 117.973024 34.94127
L 118.380677 36.297966
L 118.992156 41.216809
L 120.41894 42.23301
L 121.030419 42.192094
L 122.661029 42.104698
L 122.864855 42.047271
L 123.272508 40.99098
L 123.883987 36.452009
L 124.699292 41.338363
L 125.106945 42.825357
L 125.514598 43.044361
L 126.329903 43.213285
L 127.349034 43.322158
L 127.552861 43.983959
L 127.756687 49.63744
L 128.571992 94.83591
L 129.79495 157.920432
L 130.202603 173.048141
L 130.406429 174.343062
L 131.221734 174.086868
L 132.240866 173.890962
L 132.444692 173.117484
L 132.648518 167.27193
L 133.259997 133.822693
L 134.279129 80.36415
L 134.890608 50.852817
L 135.094434 44.905256
L 135.29826 43.369383
L 136.928871 43.494935
L 137.336523 43.597642
L 137.744176 44.268223
L 137.948002 44.710403
L 138.559481 49.297295
L 139.17096 46.182674
L 139.782439 42.499117
L 139.986265 41.842057
L 140.190092 41.733593
L 141.41305 41.894626
L 142.228355 41.910651
L 142.839834 41.593477
L 143.655139 35.858553
L 144.062792 34.653996
L 144.674271 34.48
L 145.693402 34.255799
L 147.324013 34.117819
L 147.731665 33.332727
L 148.954623 40.559594
L 149.566102 44.808744
L 149.973755 45.374151
L 150.585234 45.536666
L 152.012018 45.926452
L 152.215844 47.129289
L 153.031149 54.307703
L 153.234976 55.668499
L 153.846454 63.82162
L 154.457933 77.624624
L 154.66176 77.904951
L 156.903849 78.492393
L 157.107675 78.363881
L 157.515328 78.612173
L 158.126807 86.195267
L 158.738286 78.233835
L 159.349765 64.411264
L 159.961244 64.024628
L 161.591854 63.823253
L 161.795681 63.64161
L 161.999507 62.476653
L 162.407159 58.236802
L 163.018638 46.748605
L 163.630117 47.402672
L 164.03777 47.886398
L 164.241596 48.072291
L 164.649249 47.913655
L 166.279859 47.757197
L 166.687512 47.720221
L 167.095165 48.130885
L 167.298991 48.426307
L 167.706644 51.301001
L 167.91047 52.711144
L 168.318122 54.03998
L 168.725775 57.761541
L 169.133428 61.515192
L 169.337254 62.023613
L 170.356386 62.175879
L 171.579343 62.22207
L 172.190822 62.679514
L 172.394649 62.291553
L 172.802301 60.796076
L 173.209954 60.158151
L 173.41378 58.920607
L 174.025259 52.819785
L 174.229085 52.422606
L 174.636738 52.271641
L 176.471175 52.455189
L 176.675001 52.130309
L 176.878827 52.087792
L 177.082654 51.809661
L 177.694133 49.881414
L 177.897959 49.921356
L 178.101785 49.538219
L 178.305612 49.411486
L 178.713264 50.062156
L 178.917091 50.34159
L 181.363006 50.133111
L 181.566833 50.56867
L 181.770659 50.671204
L 181.974485 51.067442
L 182.585964 53.609983
L 182.78979 54.027849
L 183.197443 55.280972
L 183.401269 55.431839
L 183.808922 55.89721
L 185.439532 55.897301
L 186.254838 55.911647
L 186.866317 55.214815
L 187.681622 52.329758
L 188.700753 48.424902
L 189.108406 47.942635
L 190.331364 47.677735
L 191.146669 47.568088
L 191.758148 47.744042
L 192.369627 50.149327
L 192.573453 49.388085
L 192.77728 49.332652
L 192.981106 49.738453
L 193.388759 53.288419
L 193.592585 55.820003
L 194.40789 55.569364
L 195.427022 55.622893
L 196.038501 55.73904
L 196.242327 55.398871
L 196.446153 55.373898
L 196.649979 55.017651
L 197.261458 51.864697
L 197.465285 52.863235
L 197.669111 53.129869
L 197.872937 52.948582
L 198.28059 48.231325
L 198.484416 45.204024
L 198.688243 46.015738
L 198.892069 46.206008
L 200.522679 46.359792
L 200.930332 46.396731
L 201.745637 47.740047
L 202.15329 48.232441
L 202.764769 47.250167
L 203.376248 49.086852
L 203.580074 48.586331
L 204.191553 48.508846
L 206.02599 48.332619
L 206.433642 48.037815
L 206.637469 48.624145
L 206.841295 48.778521
L 207.045121 49.110346
L 207.860426 51.672087
L 208.268079 52.757139
L 208.675732 52.760686
L 209.89869 52.943072
L 210.713995 53.029382
L 210.917821 53.701325
L 211.325474 61.731961
L 212.548432 58.944131
L 213.159911 67.955744
L 213.567563 67.47987
L 214.382868 67.345545
L 215.605826 67.242608
L 215.809653 65.951286
L 216.217305 56.908074
L 216.828784 66.755307
L 217.440263 63.834586
L 218.051742 50.774367
L 218.459395 50.404365
L 219.886179 50.137467
L 220.497658 50.114816
L 220.701484 50.491237
L 220.90531 50.547796
L 221.109137 50.811752
L 221.720615 40.395199
L 222.943573 46.688149
L 223.351226 47.111974
L 224.574184 47.31686
L 225.389489 47.439032
L 226.000968 47.907932
L 226.408621 48.901688
L 227.0201 50.466007
L 227.835405 52.747019
L 228.243057 53.111171
L 229.262189 53.271117
L 230.28132 53.420324
L 230.688973 54.933088
L 230.892799 56.069303
L 231.096626 56.547984
L 231.504278 58.149156
L 232.52341 60.051075
L 232.931063 60.381546
L 233.950194 60.474389
L 235.173152 60.509525
L 235.580805 59.543889
L 235.988457 58.298967
L 237.007589 55.420869
L 237.619068 53.326711
L 238.02672 52.95176
L 239.045852 52.812865
L 240.26881 52.775194
L 241.491767 80.016565
L 242.510899 96.065414
L 242.714725 97.334854
L 243.122378 96.95923
L 244.752988 96.561033
L 244.956815 96.556144
L 246.179773 120.504661
L 247.606557 154.528768
L 247.810383 155.75984
L 248.421862 155.695682
L 249.440994 155.753587
L 249.64482 155.773991
L 249.848646 156.289235
L 252.702215 174.166683
L 253.925172 174.212333
L 255.963435 174.271453
L 258.001699 174.665596
L 259.836135 174.875562
L 260.243788 174.999506
L 261.26292 175.505724
L 261.874398 175.592851
L 263.708835 175.787917
L 264.52414 175.919118
L 264.931793 175.802047
L 265.339446 175.609663
L 266.562404 175.008771
L 267.173882 174.884932
L 268.39684 174.833838
L 269.823624 174.904549
L 272.26954 175.324049
L 273.696324 175.282369
L 275.530761 175.227882
L 277.161372 175.616117
L 278.588156 175.702328
L 280.626419 175.805298
L 283.276161 176.118961
L 285.51825 176.214241
L 286.741208 176.57389
L 287.76034 176.800558
L 289.594776 177.069969
L 291.429213 177.593413
L 294.894261 177.777959
L 295.913392 177.873539
L 300.601397 177.948374
L 301.620529 177.55997
L 302.232008 177.500829
L 303.454966 177.591331
L 304.270271 177.589155
L 304.88175 177.343527
L 305.900881 177.045747
L 309.162102 176.809019
L 309.569755 176.93838
L 309.773581 176.997578
L 310.38506 177.483658
L 311.608018 177.989919
L 313.442455 177.999218
L 314.053934 178.186993
L 319.149591 178.928107
L 320.168723 178.949442
L 322.818465 179.026172
L 324.449075 178.970524
L 325.672033 178.334194
L 327.50647 178.258605
L 329.544733 178.515694
L 330.156212 178.575313
L 331.37917 178.726305
L 333.417433 178.712539
L 334.028912 178.563312
L 334.640391 178.268933
L 336.067175 177.587394
L 337.697785 177.165726
L 338.309264 176.990742
L 339.328396 176.731704
L 340.143701 176.73136
L 342.181964 176.73979
L 343.404922 176.619209
L 343.812575 176.76475
L 344.220227 176.982481
L 345.850838 177.879978
L 348.908233 178.275511
L 349.927364 178.657347
L 350.742669 178.746578
L 352.780932 178.856624
L 353.596238 179.028614
L 354.00389 179.043659
L 354.819195 179.085231
L 357.87659 179.314861
L 358.488069 179.306806
L 360.730158 179.279501
L 361.74929 179.442457
L 362.564595 179.52753
L 362.972248 179.527155
L 363.583727 179.043131
L 365.418164 177.85077
L 367.2526 177.656737
L 367.660253 177.782522
L 368.067906 177.992622
L 368.883211 178.364337
L 369.698516 178.509746
L 372.144432 178.494384
L 372.755911 178.315343
L 374.794174 177.975531
L 376.832437 177.930553
L 377.647742 177.906983
L 378.259221 177.964676
L 378.8707 178.248486
L 380.297484 178.867231
L 381.724268 179.186116
L 382.539574 179.376412
L 383.762531 180.171108
L 384.781663 180.587782
L 385.393142 180.585073
L 387.023752 180.566711
L 387.635231 180.677034
L 388.858189 180.979507
L 390.284973 181.070894
L 391.711757 181.032451
L 392.934715 180.746486
L 393.546194 180.367302
L 395.176805 179.901718
L 396.807415 179.816037
L 397.826547 179.885631
L 398.641852 180.133646
L 399.457157 180.316705
L 403.329857 180.826364
L 404.348989 180.681414
L 405.775773 180.773603
L 406.998731 180.746205
L 407.61021 180.482975
L 409.24082 180.159717
L 411.890562 180.030025
L 412.298215 180.296483
L 412.705867 180.6246
L 413.724999 181.479663
L 414.132651 181.554519
L 414.74413 181.566246
L 417.190046 181.341367
L 418.413004 181.047974
L 419.228309 181.085178
L 422.285704 181.267372
L 424.120141 180.866118
L 426.566056 180.785736
L 427.177535 180.441329
L 429.011972 179.43749
L 431.86554 179.035792
L 433.699977 178.336231
L 436.757372 177.924541
L 438.591809 177.60612
L 440.833898 177.133741
L 442.668335 176.946435
L 446.337208 177.014747
L 447.560166 177.413254
L 452.248171 179.14093
L 453.674955 179.351486
L 454.897913 179.31429
L 456.528524 179.164851
L 458.362961 178.012218
L 460.60505 177.431179
L 460.808876 177.341563
L 461.012703 177.404134
L 461.420355 177.323439
L 462.031834 177.686622
L 463.254792 178.159436
L 465.089229 178.062197
L 465.496881 178.173165
L 469.777234 179.115947
L 470.592539 179.342694
L 472.019323 179.95761
L 473.038455 180.21633
L 474.669065 180.364819
L 475.280544 180.283231
L 476.911155 180.073727
L 480.783855 180.300038
L 481.395334 180.285626
L 484.248902 180.09321
L 485.879512 180.073985
L 486.898644 179.835765
L 488.529254 179.649167
L 491.994302 179.536399
L 495.663175 179.493105
L 496.886133 179.789395
L 498.109091 179.968935
L 498.109091 179.968935
" style="fill:none;stroke:#ff7f0e;stroke-linecap:square;stroke-width:0.8;"/>
   </g>
   <g id="matplotlib.axis_1">
    <g id="xtick_1">
     <g id="line2d_3">
      <defs>
       <path d="M 0 0
L 0 1.5
" id="m5a4425a6fd" style="stroke:#696969;stroke-width:0.8;"/>
      </defs>
      <g>
       <use style="fill:#696969;stroke:#696969;stroke-width:0.8;" x="92.290909" xlink:href="#m5a4425a6fd" y="189"/>
      </g>
     </g>
     <g id="text_1">
      <!-- 147 -->
      <g style="fill:#696969;" transform="translate(82.747159 201.598437)scale(0.1 -0.1)">
       <defs>
        <path d="M 12.40625 8.296875
L 28.515625 8.296875
L 28.515625 63.921875
L 10.984375 60.40625
L 10.984375 69.390625
L 28.421875 72.90625
L 38.28125 72.90625
L 38.28125 8.296875
L 54.390625 8.296875
L 54.390625 0
L 12.40625 0
z
" id="DejaVuSans-49"/>
        <path d="M 37.796875 64.3125
L 12.890625 25.390625
L 37.796875 25.390625
z
M 35.203125 72.90625
L 47.609375 72.90625
L 47.609375 25.390625
L 58.015625 25.390625
L 58.015625 17.1875
L 47.609375 17.1875
L 47.609375 0
L 37.796875 0
L 37.796875 17.1875
L 4.890625 17.1875
L 4.890625 26.703125
z
" id="DejaVuSans-52"/>
        <path d="M 8.203125 72.90625
L 55.078125 72.90625
L 55.078125 68.703125
L 28.609375 0
L 18.3125 0
L 43.21875 64.59375
L 8.203125 64.59375
z
" id="DejaVuSans-55"/>
       </defs>
       <use xlink:href="#DejaVuSans-49"/>
       <use x="63.623047" xlink:href="#DejaVuSans-52"/>
       <use x="127.246094" xlink:href="#DejaVuSans-55"/>
      </g>
     </g>
    </g>
    <g id="xtick_2">
     <g id="line2d_4">
      <g>
       <use style="fill:#696969;stroke:#696969;stroke-width:0.8;" x="227.631578" xlink:href="#m5a4425a6fd" y="189"/>
      </g>
     </g>
     <g id="text_2">
      <!-- 174 -->
      <g style="fill:#696969;" transform="translate(218.087828 201.598437)scale(0.1 -0.1)">
       <use xlink:href="#DejaVuSans-49"/>
       <use x="63.623047" xlink:href="#DejaVuSans-55"/>
       <use x="127.246094" xlink:href="#DejaVuSans-52"/>
      </g>
     </g>
    </g>
    <g id="xtick_3">
     <g id="line2d_5">
      <g>
       <use style="fill:#696969;stroke:#696969;stroke-width:0.8;" x="362.972248" xlink:href="#m5a4425a6fd" y="189"/>
      </g>
     </g>
     <g id="text_3">
      <!-- 202 -->
      <g style="fill:#696969;" transform="translate(353.428498 201.598437)scale(0.1 -0.1)">
       <defs>
        <path d="M 19.1875 8.296875
L 53.609375 8.296875
L 53.609375 0
L 7.328125 0
L 7.328125 8.296875
Q 12.9375 14.109375 22.625 23.890625
Q 32.328125 33.6875 34.8125 36.53125
Q 39.546875 41.84375 41.421875 45.53125
Q 43.3125 49.21875 43.3125 52.78125
Q 43.3125 58.59375 39.234375 62.25
Q 35.15625 65.921875 28.609375 65.921875
Q 23.96875 65.921875 18.8125 64.3125
Q 13.671875 62.703125 7.8125 59.421875
L 7.8125 69.390625
Q 13.765625 71.78125 18.9375 73
Q 24.125 74.21875 28.421875 74.21875
Q 39.75 74.21875 46.484375 68.546875
Q 53.21875 62.890625 53.21875 53.421875
Q 53.21875 48.921875 51.53125 44.890625
Q 49.859375 40.875 45.40625 35.40625
Q 44.1875 33.984375 37.640625 27.21875
Q 31.109375 20.453125 19.1875 8.296875
z
" id="DejaVuSans-50"/>
        <path d="M 31.78125 66.40625
Q 24.171875 66.40625 20.328125 58.90625
Q 16.5 51.421875 16.5 36.375
Q 16.5 21.390625 20.328125 13.890625
Q 24.171875 6.390625 31.78125 6.390625
Q 39.453125 6.390625 43.28125 13.890625
Q 47.125 21.390625 47.125 36.375
Q 47.125 51.421875 43.28125 58.90625
Q 39.453125 66.40625 31.78125 66.40625
z
M 31.78125 74.21875
Q 44.046875 74.21875 50.515625 64.515625
Q 56.984375 54.828125 56.984375 36.375
Q 56.984375 17.96875 50.515625 8.265625
Q 44.046875 -1.421875 31.78125 -1.421875
Q 19.53125 -1.421875 13.0625 8.265625
Q 6.59375 17.96875 6.59375 36.375
Q 6.59375 54.828125 13.0625 64.515625
Q 19.53125 74.21875 31.78125 74.21875
z
" id="DejaVuSans-48"/>
       </defs>
       <use xlink:href="#DejaVuSans-50"/>
       <use x="63.623047" xlink:href="#DejaVuSans-48"/>
       <use x="127.246094" xlink:href="#DejaVuSans-50"/>
      </g>
     </g>
    </g>
    <g id="xtick_4">
     <g id="line2d_6">
      <g>
       <use style="fill:#696969;stroke:#696969;stroke-width:0.8;" x="498.312917" xlink:href="#m5a4425a6fd" y="189"/>
      </g>
     </g>
     <g id="text_4">
      <!-- 230 -->
      <g style="fill:#696969;" transform="translate(488.769167 201.598437)scale(0.1 -0.1)">
       <defs>
        <path d="M 40.578125 39.3125
Q 47.65625 37.796875 51.625 33
Q 55.609375 28.21875 55.609375 21.1875
Q 55.609375 10.40625 48.1875 4.484375
Q 40.765625 -1.421875 27.09375 -1.421875
Q 22.515625 -1.421875 17.65625 -0.515625
Q 12.796875 0.390625 7.625 2.203125
L 7.625 11.71875
Q 11.71875 9.328125 16.59375 8.109375
Q 21.484375 6.890625 26.8125 6.890625
Q 36.078125 6.890625 40.9375 10.546875
Q 45.796875 14.203125 45.796875 21.1875
Q 45.796875 27.640625 41.28125 31.265625
Q 36.765625 34.90625 28.71875 34.90625
L 20.21875 34.90625
L 20.21875 43.015625
L 29.109375 43.015625
Q 36.375 43.015625 40.234375 45.921875
Q 44.09375 48.828125 44.09375 54.296875
Q 44.09375 59.90625 40.109375 62.90625
Q 36.140625 65.921875 28.71875 65.921875
Q 24.65625 65.921875 20.015625 65.03125
Q 15.375 64.15625 9.8125 62.3125
L 9.8125 71.09375
Q 15.4375 72.65625 20.34375 73.4375
Q 25.25 74.21875 29.59375 74.21875
Q 40.828125 74.21875 47.359375 69.109375
Q 53.90625 64.015625 53.90625 55.328125
Q 53.90625 49.265625 50.4375 45.09375
Q 46.96875 40.921875 40.578125 39.3125
z
" id="DejaVuSans-51"/>
       </defs>
       <use xlink:href="#DejaVuSans-50"/>
       <use x="63.623047" xlink:href="#DejaVuSans-51"/>
       <use x="127.246094" xlink:href="#DejaVuSans-48"/>
      </g>
     </g>
    </g>
    <g id="text_5">
     <!-- Days -->
     <g style="fill:#696969;" transform="translate(282.721875 215.276563)scale(0.1 -0.1)">
      <defs>
       <path d="M 19.671875 64.796875
L 19.671875 8.109375
L 31.59375 8.109375
Q 46.6875 8.109375 53.6875 14.9375
Q 60.6875 21.78125 60.6875 36.53125
Q 60.6875 51.171875 53.6875 57.984375
Q 46.6875 64.796875 31.59375 64.796875
z
M 9.8125 72.90625
L 30.078125 72.90625
Q 51.265625 72.90625 61.171875 64.09375
Q 71.09375 55.28125 71.09375 36.53125
Q 71.09375 17.671875 61.125 8.828125
Q 51.171875 0 30.078125 0
L 9.8125 0
z
" id="DejaVuSans-68"/>
       <path d="M 34.28125 27.484375
Q 23.390625 27.484375 19.1875 25
Q 14.984375 22.515625 14.984375 16.5
Q 14.984375 11.71875 18.140625 8.90625
Q 21.296875 6.109375 26.703125 6.109375
Q 34.1875 6.109375 38.703125 11.40625
Q 43.21875 16.703125 43.21875 25.484375
L 43.21875 27.484375
z
M 52.203125 31.203125
L 52.203125 0
L 43.21875 0
L 43.21875 8.296875
Q 40.140625 3.328125 35.546875 0.953125
Q 30.953125 -1.421875 24.3125 -1.421875
Q 15.921875 -1.421875 10.953125 3.296875
Q 6 8.015625 6 15.921875
Q 6 25.140625 12.171875 29.828125
Q 18.359375 34.515625 30.609375 34.515625
L 43.21875 34.515625
L 43.21875 35.40625
Q 43.21875 41.609375 39.140625 45
Q 35.0625 48.390625 27.6875 48.390625
Q 23 48.390625 18.546875 47.265625
Q 14.109375 46.140625 10.015625 43.890625
L 10.015625 52.203125
Q 14.9375 54.109375 19.578125 55.046875
Q 24.21875 56 28.609375 56
Q 40.484375 56 46.34375 49.84375
Q 52.203125 43.703125 52.203125 31.203125
z
" id="DejaVuSans-97"/>
       <path d="M 32.171875 -5.078125
Q 28.375 -14.84375 24.75 -17.8125
Q 21.140625 -20.796875 15.09375 -20.796875
L 7.90625 -20.796875
L 7.90625 -13.28125
L 13.1875 -13.28125
Q 16.890625 -13.28125 18.9375 -11.515625
Q 21 -9.765625 23.484375 -3.21875
L 25.09375 0.875
L 2.984375 54.6875
L 12.5 54.6875
L 29.59375 11.921875
L 46.6875 54.6875
L 56.203125 54.6875
z
" id="DejaVuSans-121"/>
       <path d="M 44.28125 53.078125
L 44.28125 44.578125
Q 40.484375 46.53125 36.375 47.5
Q 32.28125 48.484375 27.875 48.484375
Q 21.1875 48.484375 17.84375 46.4375
Q 14.5 44.390625 14.5 40.28125
Q 14.5 37.15625 16.890625 35.375
Q 19.28125 33.59375 26.515625 31.984375
L 29.59375 31.296875
Q 39.15625 29.25 43.1875 25.515625
Q 47.21875 21.78125 47.21875 15.09375
Q 47.21875 7.46875 41.1875 3.015625
Q 35.15625 -1.421875 24.609375 -1.421875
Q 20.21875 -1.421875 15.453125 -0.5625
Q 10.6875 0.296875 5.421875 2
L 5.421875 11.28125
Q 10.40625 8.6875 15.234375 7.390625
Q 20.0625 6.109375 24.8125 6.109375
Q 31.15625 6.109375 34.5625 8.28125
Q 37.984375 10.453125 37.984375 14.40625
Q 37.984375 18.0625 35.515625 20.015625
Q 33.0625 21.96875 24.703125 23.78125
L 21.578125 24.515625
Q 13.234375 26.265625 9.515625 29.90625
Q 5.8125 33.546875 5.8125 39.890625
Q 5.8125 47.609375 11.28125 51.796875
Q 16.75 56 26.8125 56
Q 31.78125 56 36.171875 55.265625
Q 40.578125 54.546875 44.28125 53.078125
z
" id="DejaVuSans-115"/>
      </defs>
      <use xlink:href="#DejaVuSans-68"/>
      <use x="77.001953" xlink:href="#DejaVuSans-97"/>
      <use x="138.28125" xlink:href="#DejaVuSans-121"/>
      <use x="197.460938" xlink:href="#DejaVuSans-115"/>
     </g>
    </g>
   </g>
   <g id="matplotlib.axis_2">
    <g id="ytick_1">
     <g id="line2d_7">
      <path clip-path="url(#pa25fc9ef8c)" d="M 72 169.274443
L 518.4 169.274443
" style="fill:none;stroke:#b0b0b0;stroke-linecap:square;stroke-width:0.8;"/>
     </g>
     <g id="line2d_8">
      <defs>
       <path d="M 0 0
L -1 0
" id="m9fa1efe497" style="stroke:#696969;stroke-width:0.2;"/>
      </defs>
      <g>
       <use style="fill:#696969;stroke:#696969;stroke-width:0.2;" x="72" xlink:href="#m9fa1efe497" y="169.274443"/>
      </g>
     </g>
     <g id="text_6">
      <!-- 0 -->
      <g style="fill:#696969;" transform="translate(61.1375 173.073661)scale(0.1 -0.1)">
       <use xlink:href="#DejaVuSans-48"/>
      </g>
     </g>
    </g>
    <g id="ytick_2">
     <g id="line2d_9">
      <path clip-path="url(#pa25fc9ef8c)" d="M 72 146.80205
L 518.4 146.80205
" style="fill:none;stroke:#b0b0b0;stroke-linecap:square;stroke-width:0.8;"/>
     </g>
     <g id="line2d_10">
      <g>
       <use style="fill:#696969;stroke:#696969;stroke-width:0.2;" x="72" xlink:href="#m9fa1efe497" y="146.80205"/>
      </g>
     </g>
     <g id="text_7">
      <!-- 1 -->
      <g style="fill:#696969;" transform="translate(61.1375 150.601269)scale(0.1 -0.1)">
       <use xlink:href="#DejaVuSans-49"/>
      </g>
     </g>
    </g>
    <g id="ytick_3">
     <g id="line2d_11">
      <path clip-path="url(#pa25fc9ef8c)" d="M 72 124.329657
L 518.4 124.329657
" style="fill:none;stroke:#b0b0b0;stroke-linecap:square;stroke-width:0.8;"/>
     </g>
     <g id="line2d_12">
      <g>
       <use style="fill:#696969;stroke:#696969;stroke-width:0.2;" x="72" xlink:href="#m9fa1efe497" y="124.329657"/>
      </g>
     </g>
     <g id="text_8">
      <!-- 2 -->
      <g style="fill:#696969;" transform="translate(61.1375 128.128876)scale(0.1 -0.1)">
       <use xlink:href="#DejaVuSans-50"/>
      </g>
     </g>
    </g>
    <g id="ytick_4">
     <g id="line2d_13">
      <path clip-path="url(#pa25fc9ef8c)" d="M 72 101.857265
L 518.4 101.857265
" style="fill:none;stroke:#b0b0b0;stroke-linecap:square;stroke-width:0.8;"/>
     </g>
     <g id="line2d_14">
      <g>
       <use style="fill:#696969;stroke:#696969;stroke-width:0.2;" x="72" xlink:href="#m9fa1efe497" y="101.857265"/>
      </g>
     </g>
     <g id="text_9">
      <!-- 3 -->
      <g style="fill:#696969;" transform="translate(61.1375 105.656483)scale(0.1 -0.1)">
       <use xlink:href="#DejaVuSans-51"/>
      </g>
     </g>
    </g>
    <g id="ytick_5">
     <g id="line2d_15">
      <path clip-path="url(#pa25fc9ef8c)" d="M 72 79.384872
L 518.4 79.384872
" style="fill:none;stroke:#b0b0b0;stroke-linecap:square;stroke-width:0.8;"/>
     </g>
     <g id="line2d_16">
      <g>
       <use style="fill:#696969;stroke:#696969;stroke-width:0.2;" x="72" xlink:href="#m9fa1efe497" y="79.384872"/>
      </g>
     </g>
     <g id="text_10">
      <!-- 4 -->
      <g style="fill:#696969;" transform="translate(61.1375 83.184091)scale(0.1 -0.1)">
       <use xlink:href="#DejaVuSans-52"/>
      </g>
     </g>
    </g>
    <g id="ytick_6">
     <g id="line2d_17">
      <path clip-path="url(#pa25fc9ef8c)" d="M 72 56.912479
L 518.4 56.912479
" style="fill:none;stroke:#b0b0b0;stroke-linecap:square;stroke-width:0.8;"/>
     </g>
     <g id="line2d_18">
      <g>
       <use style="fill:#696969;stroke:#696969;stroke-width:0.2;" x="72" xlink:href="#m9fa1efe497" y="56.912479"/>
      </g>
     </g>
     <g id="text_11">
      <!-- 5 -->
      <g style="fill:#696969;" transform="translate(61.1375 60.711698)scale(0.1 -0.1)">
       <defs>
        <path d="M 10.796875 72.90625
L 49.515625 72.90625
L 49.515625 64.59375
L 19.828125 64.59375
L 19.828125 46.734375
Q 21.96875 47.46875 24.109375 47.828125
Q 26.265625 48.1875 28.421875 48.1875
Q 40.625 48.1875 47.75 41.5
Q 54.890625 34.8125 54.890625 23.390625
Q 54.890625 11.625 47.5625 5.09375
Q 40.234375 -1.421875 26.90625 -1.421875
Q 22.3125 -1.421875 17.546875 -0.640625
Q 12.796875 0.140625 7.71875 1.703125
L 7.71875 11.625
Q 12.109375 9.234375 16.796875 8.0625
Q 21.484375 6.890625 26.703125 6.890625
Q 35.15625 6.890625 40.078125 11.328125
Q 45.015625 15.765625 45.015625 23.390625
Q 45.015625 31 40.078125 35.4375
Q 35.15625 39.890625 26.703125 39.890625
Q 22.75 39.890625 18.8125 39.015625
Q 14.890625 38.140625 10.796875 36.28125
z
" id="DejaVuSans-53"/>
       </defs>
       <use xlink:href="#DejaVuSans-53"/>
      </g>
     </g>
    </g>
    <g id="ytick_7">
     <g id="line2d_19">
      <path clip-path="url(#pa25fc9ef8c)" d="M 72 34.440087
L 518.4 34.440087
" style="fill:none;stroke:#b0b0b0;stroke-linecap:square;stroke-width:0.8;"/>
     </g>
     <g id="line2d_20">
      <g>
       <use style="fill:#696969;stroke:#696969;stroke-width:0.2;" x="72" xlink:href="#m9fa1efe497" y="34.440087"/>
      </g>
     </g>
     <g id="text_12">
      <!-- 6 -->
      <g style="fill:#696969;" transform="translate(61.1375 38.239305)scale(0.1 -0.1)">
       <defs>
        <path d="M 33.015625 40.375
Q 26.375 40.375 22.484375 35.828125
Q 18.609375 31.296875 18.609375 23.390625
Q 18.609375 15.53125 22.484375 10.953125
Q 26.375 6.390625 33.015625 6.390625
Q 39.65625 6.390625 43.53125 10.953125
Q 47.40625 15.53125 47.40625 23.390625
Q 47.40625 31.296875 43.53125 35.828125
Q 39.65625 40.375 33.015625 40.375
z
M 52.59375 71.296875
L 52.59375 62.3125
Q 48.875 64.0625 45.09375 64.984375
Q 41.3125 65.921875 37.59375 65.921875
Q 27.828125 65.921875 22.671875 59.328125
Q 17.53125 52.734375 16.796875 39.40625
Q 19.671875 43.65625 24.015625 45.921875
Q 28.375 48.1875 33.59375 48.1875
Q 44.578125 48.1875 50.953125 41.515625
Q 57.328125 34.859375 57.328125 23.390625
Q 57.328125 12.15625 50.6875 5.359375
Q 44.046875 -1.421875 33.015625 -1.421875
Q 20.359375 -1.421875 13.671875 8.265625
Q 6.984375 17.96875 6.984375 36.375
Q 6.984375 53.65625 15.1875 63.9375
Q 23.390625 74.21875 37.203125 74.21875
Q 40.921875 74.21875 44.703125 73.484375
Q 48.484375 72.75 52.59375 71.296875
z
" id="DejaVuSans-54"/>
       </defs>
       <use xlink:href="#DejaVuSans-54"/>
      </g>
     </g>
    </g>
    <g id="text_13">
     <!-- A_n (umol CO2 m-2 PLA s-1) -->
     <g style="fill:#696969;" transform="translate(54.779688 178.270938)rotate(-90)scale(0.1 -0.1)">
      <defs>
       <path d="M 34.1875 63.1875
L 20.796875 26.90625
L 47.609375 26.90625
z
M 28.609375 72.90625
L 39.796875 72.90625
L 67.578125 0
L 57.328125 0
L 50.6875 18.703125
L 17.828125 18.703125
L 11.1875 0
L 0.78125 0
z
" id="DejaVuSans-65"/>
       <path d="M 50.984375 -16.609375
L 50.984375 -23.578125
L -0.984375 -23.578125
L -0.984375 -16.609375
z
" id="DejaVuSans-95"/>
       <path d="M 54.890625 33.015625
L 54.890625 0
L 45.90625 0
L 45.90625 32.71875
Q 45.90625 40.484375 42.875 44.328125
Q 39.84375 48.1875 33.796875 48.1875
Q 26.515625 48.1875 22.3125 43.546875
Q 18.109375 38.921875 18.109375 30.90625
L 18.109375 0
L 9.078125 0
L 9.078125 54.6875
L 18.109375 54.6875
L 18.109375 46.1875
Q 21.34375 51.125 25.703125 53.5625
Q 30.078125 56 35.796875 56
Q 45.21875 56 50.046875 50.171875
Q 54.890625 44.34375 54.890625 33.015625
z
" id="DejaVuSans-110"/>
       <path id="DejaVuSans-32"/>
       <path d="M 31 75.875
Q 24.46875 64.65625 21.28125 53.65625
Q 18.109375 42.671875 18.109375 31.390625
Q 18.109375 20.125 21.3125 9.0625
Q 24.515625 -2 31 -13.1875
L 23.1875 -13.1875
Q 15.875 -1.703125 12.234375 9.375
Q 8.59375 20.453125 8.59375 31.390625
Q 8.59375 42.28125 12.203125 53.3125
Q 15.828125 64.359375 23.1875 75.875
z
" id="DejaVuSans-40"/>
       <path d="M 8.5 21.578125
L 8.5 54.6875
L 17.484375 54.6875
L 17.484375 21.921875
Q 17.484375 14.15625 20.5 10.265625
Q 23.53125 6.390625 29.59375 6.390625
Q 36.859375 6.390625 41.078125 11.03125
Q 45.3125 15.671875 45.3125 23.6875
L 45.3125 54.6875
L 54.296875 54.6875
L 54.296875 0
L 45.3125 0
L 45.3125 8.40625
Q 42.046875 3.421875 37.71875 1
Q 33.40625 -1.421875 27.6875 -1.421875
Q 18.265625 -1.421875 13.375 4.4375
Q 8.5 10.296875 8.5 21.578125
z
M 31.109375 56
z
" id="DejaVuSans-117"/>
       <path d="M 52 44.1875
Q 55.375 50.25 60.0625 53.125
Q 64.75 56 71.09375 56
Q 79.640625 56 84.28125 50.015625
Q 88.921875 44.046875 88.921875 33.015625
L 88.921875 0
L 79.890625 0
L 79.890625 32.71875
Q 79.890625 40.578125 77.09375 44.375
Q 74.3125 48.1875 68.609375 48.1875
Q 61.625 48.1875 57.5625 43.546875
Q 53.515625 38.921875 53.515625 30.90625
L 53.515625 0
L 44.484375 0
L 44.484375 32.71875
Q 44.484375 40.625 41.703125 44.40625
Q 38.921875 48.1875 33.109375 48.1875
Q 26.21875 48.1875 22.15625 43.53125
Q 18.109375 38.875 18.109375 30.90625
L 18.109375 0
L 9.078125 0
L 9.078125 54.6875
L 18.109375 54.6875
L 18.109375 46.1875
Q 21.1875 51.21875 25.484375 53.609375
Q 29.78125 56 35.6875 56
Q 41.65625 56 45.828125 52.96875
Q 50 49.953125 52 44.1875
z
" id="DejaVuSans-109"/>
       <path d="M 30.609375 48.390625
Q 23.390625 48.390625 19.1875 42.75
Q 14.984375 37.109375 14.984375 27.296875
Q 14.984375 17.484375 19.15625 11.84375
Q 23.34375 6.203125 30.609375 6.203125
Q 37.796875 6.203125 41.984375 11.859375
Q 46.1875 17.53125 46.1875 27.296875
Q 46.1875 37.015625 41.984375 42.703125
Q 37.796875 48.390625 30.609375 48.390625
z
M 30.609375 56
Q 42.328125 56 49.015625 48.375
Q 55.71875 40.765625 55.71875 27.296875
Q 55.71875 13.875 49.015625 6.21875
Q 42.328125 -1.421875 30.609375 -1.421875
Q 18.84375 -1.421875 12.171875 6.21875
Q 5.515625 13.875 5.515625 27.296875
Q 5.515625 40.765625 12.171875 48.375
Q 18.84375 56 30.609375 56
z
" id="DejaVuSans-111"/>
       <path d="M 9.421875 75.984375
L 18.40625 75.984375
L 18.40625 0
L 9.421875 0
z
" id="DejaVuSans-108"/>
       <path d="M 64.40625 67.28125
L 64.40625 56.890625
Q 59.421875 61.53125 53.78125 63.8125
Q 48.140625 66.109375 41.796875 66.109375
Q 29.296875 66.109375 22.65625 58.46875
Q 16.015625 50.828125 16.015625 36.375
Q 16.015625 21.96875 22.65625 14.328125
Q 29.296875 6.6875 41.796875 6.6875
Q 48.140625 6.6875 53.78125 8.984375
Q 59.421875 11.28125 64.40625 15.921875
L 64.40625 5.609375
Q 59.234375 2.09375 53.4375 0.328125
Q 47.65625 -1.421875 41.21875 -1.421875
Q 24.65625 -1.421875 15.125 8.703125
Q 5.609375 18.84375 5.609375 36.375
Q 5.609375 53.953125 15.125 64.078125
Q 24.65625 74.21875 41.21875 74.21875
Q 47.75 74.21875 53.53125 72.484375
Q 59.328125 70.75 64.40625 67.28125
z
" id="DejaVuSans-67"/>
       <path d="M 39.40625 66.21875
Q 28.65625 66.21875 22.328125 58.203125
Q 16.015625 50.203125 16.015625 36.375
Q 16.015625 22.609375 22.328125 14.59375
Q 28.65625 6.59375 39.40625 6.59375
Q 50.140625 6.59375 56.421875 14.59375
Q 62.703125 22.609375 62.703125 36.375
Q 62.703125 50.203125 56.421875 58.203125
Q 50.140625 66.21875 39.40625 66.21875
z
M 39.40625 74.21875
Q 54.734375 74.21875 63.90625 63.9375
Q 73.09375 53.65625 73.09375 36.375
Q 73.09375 19.140625 63.90625 8.859375
Q 54.734375 -1.421875 39.40625 -1.421875
Q 24.03125 -1.421875 14.8125 8.828125
Q 5.609375 19.09375 5.609375 36.375
Q 5.609375 53.65625 14.8125 63.9375
Q 24.03125 74.21875 39.40625 74.21875
z
" id="DejaVuSans-79"/>
       <path d="M 4.890625 31.390625
L 31.203125 31.390625
L 31.203125 23.390625
L 4.890625 23.390625
z
" id="DejaVuSans-45"/>
       <path d="M 19.671875 64.796875
L 19.671875 37.40625
L 32.078125 37.40625
Q 38.96875 37.40625 42.71875 40.96875
Q 46.484375 44.53125 46.484375 51.125
Q 46.484375 57.671875 42.71875 61.234375
Q 38.96875 64.796875 32.078125 64.796875
z
M 9.8125 72.90625
L 32.078125 72.90625
Q 44.34375 72.90625 50.609375 67.359375
Q 56.890625 61.8125 56.890625 51.125
Q 56.890625 40.328125 50.609375 34.8125
Q 44.34375 29.296875 32.078125 29.296875
L 19.671875 29.296875
L 19.671875 0
L 9.8125 0
z
" id="DejaVuSans-80"/>
       <path d="M 9.8125 72.90625
L 19.671875 72.90625
L 19.671875 8.296875
L 55.171875 8.296875
L 55.171875 0
L 9.8125 0
z
" id="DejaVuSans-76"/>
       <path d="M 8.015625 75.875
L 15.828125 75.875
Q 23.140625 64.359375 26.78125 53.3125
Q 30.421875 42.28125 30.421875 31.390625
Q 30.421875 20.453125 26.78125 9.375
Q 23.140625 -1.703125 15.828125 -13.1875
L 8.015625 -13.1875
Q 14.5 -2 17.703125 9.0625
Q 20.90625 20.125 20.90625 31.390625
Q 20.90625 42.671875 17.703125 53.65625
Q 14.5 64.65625 8.015625 75.875
z
" id="DejaVuSans-41"/>
      </defs>
      <use xlink:href="#DejaVuSans-65"/>
      <use x="68.408203" xlink:href="#DejaVuSans-95"/>
      <use x="118.408203" xlink:href="#DejaVuSans-110"/>
      <use x="181.787109" xlink:href="#DejaVuSans-32"/>
      <use x="213.574219" xlink:href="#DejaVuSans-40"/>
      <use x="252.587891" xlink:href="#DejaVuSans-117"/>
      <use x="315.966797" xlink:href="#DejaVuSans-109"/>
      <use x="413.378906" xlink:href="#DejaVuSans-111"/>
      <use x="474.560547" xlink:href="#DejaVuSans-108"/>
      <use x="502.34375" xlink:href="#DejaVuSans-32"/>
      <use x="534.130859" xlink:href="#DejaVuSans-67"/>
      <use x="603.955078" xlink:href="#DejaVuSans-79"/>
      <use x="682.666016" xlink:href="#DejaVuSans-50"/>
      <use x="746.289062" xlink:href="#DejaVuSans-32"/>
      <use x="778.076172" xlink:href="#DejaVuSans-109"/>
      <use x="875.488281" xlink:href="#DejaVuSans-45"/>
      <use x="911.572266" xlink:href="#DejaVuSans-50"/>
      <use x="975.195312" xlink:href="#DejaVuSans-32"/>
      <use x="1006.982422" xlink:href="#DejaVuSans-80"/>
      <use x="1067.285156" xlink:href="#DejaVuSans-76"/>
      <use x="1125.248047" xlink:href="#DejaVuSans-65"/>
      <use x="1193.65625" xlink:href="#DejaVuSans-32"/>
      <use x="1225.443359" xlink:href="#DejaVuSans-115"/>
      <use x="1277.542969" xlink:href="#DejaVuSans-45"/>
      <use x="1313.626953" xlink:href="#DejaVuSans-49"/>
      <use x="1377.25" xlink:href="#DejaVuSans-41"/>
     </g>
    </g>
   </g>
   <g id="line2d_21">
    <path clip-path="url(#pa25fc9ef8c)" d="M 92.290909 172.634821
L 93.106214 172.66057
L 93.310041 172.275502
L 93.513867 166.839502
L 95.144477 81.290599
L 95.755956 50.903806
L 95.959783 44.884533
L 96.163609 44.151787
L 96.571262 44.358195
L 97.182741 44.553271
L 98.201872 44.624558
L 99.017177 46.494875
L 99.42483 48.075976
L 99.628656 48.113974
L 100.036309 50.075628
L 100.647788 56.497253
L 100.851614 57.423172
L 102.278398 57.448561
L 103.093703 57.668938
L 103.29753 58.364933
L 103.705182 64.067636
L 104.112835 64.763528
L 104.316661 65.11532
L 104.520488 64.751701
L 105.131967 61.746441
L 105.539619 60.563137
L 105.743446 59.217844
L 105.947272 58.92439
L 107.781709 58.685907
L 107.985535 58.485799
L 108.189361 57.12181
L 108.80084 49.645045
L 109.208493 47.804966
L 109.819972 53.359844
L 110.431451 47.485774
L 110.635277 47.927995
L 112.877366 47.750332
L 113.285019 47.383181
L 113.488845 47.185265
L 114.100324 43.939944
L 114.711803 36.879197
L 115.527108 34.675929
L 115.730935 34.495499
L 117.565371 34.641508
L 117.769198 34.571167
L 117.973024 34.94127
L 118.380677 36.297966
L 118.992156 41.216809
L 120.41894 42.23301
L 121.030419 42.192094
L 122.661029 42.104698
L 122.864855 42.047271
L 123.272508 40.99098
L 123.883987 36.452009
L 124.699292 41.338363
L 125.106945 42.825357
L 125.514598 43.044361
L 126.329903 43.213285
L 127.349034 43.322158
L 127.552861 43.983959
L 127.756687 49.63744
L 128.571992 94.83591
L 129.79495 157.920432
L 130.202603 173.048141
L 130.406429 174.343062
L 131.221734 174.086868
L 132.240866 173.890962
L 132.444692 173.117484
L 132.648518 167.27193
L 133.259997 133.822693
L 134.279129 80.36415
L 134.890608 50.852817
L 135.094434 44.905256
L 135.29826 43.369383
L 136.928871 43.494935
L 137.336523 43.597642
L 137.744176 44.268223
L 137.948002 44.710403
L 138.559481 49.297295
L 139.17096 46.182674
L 139.782439 42.499117
L 139.986265 41.842057
L 140.190092 41.733593
L 141.41305 41.894626
L 142.228355 41.910651
L 142.839834 41.593477
L 143.655139 35.858553
L 144.062792 34.653996
L 144.674271 34.48
L 145.693402 34.255799
L 147.324013 34.117819
L 147.731665 33.332727
L 148.954623 40.559594
L 149.566102 44.808744
L 149.973755 45.374151
L 150.585234 45.536666
L 152.012018 45.926452
L 152.215844 47.129289
L 153.031149 54.307703
L 153.234976 55.668499
L 153.846454 63.82162
L 154.457933 77.624624
L 154.66176 77.904951
L 156.903849 78.492393
L 157.107675 78.363881
L 157.515328 78.612173
L 158.126807 86.195267
L 158.738286 78.233835
L 159.349765 64.411264
L 159.961244 64.024628
L 161.591854 63.823253
L 161.795681 63.64161
L 161.999507 62.476653
L 162.407159 58.236802
L 163.018638 46.748605
L 163.630117 47.402672
L 164.03777 47.886398
L 164.241596 48.072291
L 164.649249 47.913655
L 166.279859 47.757197
L 166.687512 47.720221
L 167.095165 48.130885
L 167.298991 48.426307
L 167.706644 51.301001
L 167.91047 52.711144
L 168.318122 54.03998
L 168.725775 57.761541
L 169.133428 61.515192
L 169.337254 62.023613
L 170.356386 62.175879
L 171.579343 62.22207
L 172.190822 62.679514
L 172.394649 62.291553
L 172.802301 60.796076
L 173.209954 60.158151
L 173.41378 58.920607
L 174.025259 52.819785
L 174.229085 52.422606
L 174.636738 52.271641
L 176.471175 52.455189
L 176.675001 52.130309
L 176.878827 52.087792
L 177.082654 51.809661
L 177.694133 49.881414
L 177.897959 49.921356
L 178.101785 49.538219
L 178.305612 49.411486
L 178.713264 50.062156
L 178.917091 50.34159
L 181.363006 50.133111
L 181.566833 50.56867
L 181.770659 50.671204
L 181.974485 51.067442
L 182.585964 53.609983
L 182.78979 54.027849
L 183.197443 55.280972
L 183.401269 55.431839
L 183.808922 55.89721
L 185.439532 55.897301
L 186.254838 55.911647
L 186.866317 55.214815
L 187.681622 52.329758
L 188.700753 48.424902
L 189.108406 47.942635
L 190.331364 47.677735
L 191.146669 47.568088
L 191.758148 47.744042
L 192.369627 50.149327
L 192.573453 49.388085
L 192.77728 49.332652
L 192.981106 49.738453
L 193.388759 53.288419
L 193.592585 55.820003
L 194.40789 55.569364
L 195.427022 55.622893
L 196.038501 55.73904
L 196.242327 55.398871
L 196.446153 55.373898
L 196.649979 55.017651
L 197.261458 51.864697
L 197.465285 52.863235
L 197.669111 53.129869
L 197.872937 52.948582
L 198.28059 48.231325
L 198.484416 45.204024
L 198.688243 46.015738
L 198.892069 46.206008
L 200.522679 46.359792
L 200.930332 46.396731
L 201.745637 47.740047
L 202.15329 48.232441
L 202.764769 47.250167
L 203.376248 49.086852
L 203.580074 48.586331
L 204.191553 48.508846
L 206.02599 48.332619
L 206.433642 48.037815
L 206.637469 48.624145
L 206.841295 48.778521
L 207.045121 49.110346
L 207.860426 51.672087
L 208.268079 52.757139
L 208.675732 52.760686
L 209.89869 52.943072
L 210.713995 53.029382
L 210.917821 53.701325
L 211.325474 61.731961
L 212.548432 58.944131
L 213.159911 67.955744
L 213.567563 67.47987
L 214.382868 67.345545
L 215.605826 67.242608
L 215.809653 65.951286
L 216.217305 56.908074
L 216.828784 66.755307
L 217.440263 63.834587
L 218.051742 50.774367
L 218.459395 50.404365
L 219.886179 50.137467
L 220.497658 50.114816
L 220.701484 50.491238
L 220.90531 50.547797
L 221.109137 50.811753
L 221.720615 40.3952
L 222.943573 46.68815
L 223.351226 47.111975
L 224.574184 47.316861
L 225.389489 47.439034
L 226.000968 47.907933
L 226.408621 48.901689
L 227.0201 50.466008
L 227.835405 52.747019
L 228.243057 53.111172
L 229.262189 53.271118
L 230.28132 53.420324
L 230.688973 54.933088
L 230.892799 56.069304
L 231.096626 56.547984
L 231.504278 58.149156
L 232.52341 60.051076
L 232.931063 60.381546
L 233.950194 60.474389
L 235.173152 60.509525
L 235.376978 60.053064
L 235.580805 60.16916
L 235.784631 60.887676
L 235.988457 60.718102
L 236.192283 60.924387
L 236.39611 60.568661
L 236.803762 59.362357
L 237.415241 58.10818
L 237.619068 57.482629
L 238.02672 57.107678
L 239.045852 56.968783
L 240.064983 56.849663
L 240.26881 57.876161
L 241.89942 96.590344
L 242.510899 109.04468
L 242.714725 111.295773
L 243.122378 110.920149
L 244.752988 110.521951
L 244.956815 110.517062
L 246.179773 129.998137
L 247.606557 157.708972
L 247.810383 159.164094
L 248.421862 159.099937
L 249.440994 159.157841
L 249.64482 159.178245
L 249.848646 159.693489
L 252.702215 174.166683
L 253.925172 174.212333
L 255.963435 174.271453
L 258.001699 174.665596
L 259.836135 174.875562
L 260.243788 174.999506
L 261.26292 175.505724
L 261.874398 175.592851
L 263.708835 175.787917
L 264.52414 175.919118
L 264.931793 175.802047
L 265.339446 175.609663
L 266.562404 175.008771
L 267.173882 174.884932
L 268.39684 174.833838
L 269.823624 174.904549
L 272.26954 175.324049
L 273.696324 175.282369
L 275.530761 175.227882
L 277.161372 175.616117
L 278.588156 175.702328
L 280.626419 175.805298
L 283.276161 176.118961
L 285.51825 176.214241
L 286.741208 176.57389
L 287.76034 176.800558
L 289.594776 177.069969
L 291.429213 177.593413
L 294.894261 177.777959
L 295.913392 177.873539
L 300.601397 177.948374
L 301.620529 177.55997
L 302.232008 177.500829
L 303.454966 177.591331
L 304.270271 177.589155
L 304.88175 177.343527
L 305.900881 177.045747
L 309.162102 176.809019
L 309.569755 176.93838
L 309.773581 176.997578
L 310.38506 177.483658
L 311.608018 177.989919
L 313.442455 177.999218
L 314.053934 178.186993
L 319.149591 178.928107
L 320.168723 178.949442
L 322.818465 179.026172
L 324.449075 178.970524
L 325.672033 178.334194
L 327.50647 178.258605
L 329.544733 178.515694
L 330.156212 178.575313
L 331.37917 178.726305
L 333.417433 178.712539
L 334.028912 178.563312
L 334.640391 178.268933
L 336.067175 177.587394
L 337.697785 177.165726
L 338.309264 176.990742
L 339.328396 176.731704
L 340.143701 176.73136
L 342.181964 176.73979
L 343.404922 176.619209
L 343.812575 176.76475
L 344.220227 176.982481
L 345.850838 177.879978
L 348.908233 178.275511
L 349.927364 178.657347
L 350.742669 178.746578
L 352.780932 178.856624
L 353.596238 179.028614
L 354.00389 179.043659
L 354.819195 179.085231
L 357.87659 179.314861
L 358.488069 179.306806
L 360.730158 179.279501
L 361.74929 179.442457
L 362.564595 179.52753
L 362.972248 179.527155
L 363.583727 179.043131
L 365.418164 177.85077
L 367.2526 177.656737
L 367.660253 177.782522
L 368.067906 177.992622
L 368.883211 178.364337
L 369.698516 178.509746
L 372.144432 178.494384
L 372.755911 178.315343
L 374.794174 177.975531
L 376.832437 177.930553
L 377.647742 177.906983
L 378.259221 177.964676
L 378.8707 178.248486
L 380.297484 178.867231
L 381.724268 179.186116
L 382.539574 179.376412
L 383.762531 180.171108
L 384.781663 180.587782
L 385.393142 180.585073
L 387.023752 180.566711
L 387.635231 180.677034
L 388.858189 180.979507
L 390.284973 181.070894
L 391.711757 181.032451
L 392.934715 180.746486
L 393.546194 180.367302
L 395.176805 179.901718
L 396.807415 179.816037
L 397.826547 179.885631
L 398.641852 180.133646
L 399.457157 180.316705
L 403.329857 180.826364
L 404.348989 180.681414
L 405.775773 180.773603
L 406.998731 180.746205
L 407.61021 180.482975
L 409.24082 180.159717
L 411.890562 180.030025
L 412.298215 180.296483
L 412.705867 180.6246
L 413.724999 181.479663
L 414.132651 181.554519
L 414.74413 181.566246
L 417.190046 181.341367
L 418.413004 181.047974
L 419.228309 181.085178
L 422.285704 181.267372
L 424.120141 180.866118
L 426.566056 180.785736
L 427.177535 180.441329
L 429.011972 179.43749
L 431.86554 179.035792
L 433.699977 178.336231
L 436.757372 177.924541
L 438.591809 177.60612
L 440.833898 177.133741
L 442.668335 176.946435
L 446.337208 177.014747
L 447.560166 177.413254
L 452.248171 179.14093
L 453.674955 179.351486
L 454.897913 179.31429
L 456.528524 179.164851
L 458.362961 178.012218
L 460.60505 177.431179
L 460.808876 177.341563
L 461.012703 177.404134
L 461.420355 177.323439
L 462.031834 177.686622
L 463.254792 178.159436
L 465.089229 178.062197
L 465.496881 178.173165
L 469.777234 179.115947
L 470.592539 179.342694
L 472.019323 179.95761
L 473.038455 180.21633
L 474.669065 180.364819
L 475.280544 180.283231
L 476.911155 180.073727
L 480.783855 180.300038
L 481.395334 180.285626
L 484.248902 180.09321
L 485.879512 180.073985
L 486.898644 179.835765
L 488.529254 179.649167
L 491.994302 179.536399
L 495.663175 179.493105
L 496.886133 179.789395
L 498.109091 179.968935
L 498.109091 179.968935
" style="fill:none;stroke:#2ca02c;stroke-linecap:square;stroke-width:0.8;"/>
   </g>
   <g id="patch_3">
    <path d="M 72 189
L 72 25.92
" style="fill:none;"/>
   </g>
   <g id="patch_4">
    <path d="M 518.4 189
L 518.4 25.92
" style="fill:none;"/>
   </g>
   <g id="patch_5">
    <path d="M 72 189
L 518.4 189
" style="fill:none;"/>
   </g>
   <g id="patch_6">
    <path d="M 72 25.92
L 518.4 25.92
" style="fill:none;"/>
   </g>
   <g id="line2d_22">
    <path clip-path="url(#pa25fc9ef8c)" d="M 92.290909 172.634821
L 93.106214 172.66057
L 93.310041 172.275502
L 93.513867 166.839502
L 95.144477 81.2906
L 95.755956 50.903806
L 95.959783 44.884533
L 96.163609 44.151787
L 96.571262 44.358196
L 97.182741 44.553271
L 98.201872 44.624558
L 99.017177 46.494875
L 99.42483 48.075976
L 99.628656 48.113974
L 100.036309 50.075628
L 100.647788 56.497253
L 100.851614 57.423172
L 102.278398 57.448561
L 103.093703 57.668938
L 103.29753 58.364933
L 103.705182 64.067636
L 104.112835 64.763528
L 104.316661 65.11532
L 104.520488 64.751701
L 105.131967 61.746441
L 105.539619 60.563137
L 105.743446 59.217844
L 105.947272 58.92439
L 107.781709 58.685907
L 107.985535 58.485799
L 108.189361 57.121811
L 108.80084 49.645045
L 109.208493 47.804966
L 109.819972 53.359839
L 110.431451 47.48577
L 110.635277 47.92799
L 112.877366 47.750328
L 113.285019 47.383177
L 113.488845 47.185261
L 114.100324 43.93994
L 114.711803 36.879197
L 115.527108 34.675929
L 115.730935 34.495499
L 117.565371 34.641508
L 117.769198 34.571167
L 117.973024 34.94127
L 118.380677 36.297966
L 118.992156 41.216809
L 120.41894 42.23301
L 121.030419 42.192094
L 122.661029 42.104698
L 122.864855 42.047271
L 123.272508 40.99098
L 123.883987 36.452009
L 124.699292 41.338363
L 125.106945 42.825357
L 125.514598 43.044361
L 126.329903 43.213285
L 127.349034 43.322158
L 127.552861 43.983959
L 127.756687 49.63744
L 128.571992 94.83591
L 129.79495 157.920432
L 130.202603 173.048141
L 130.406429 174.343062
L 131.221734 174.086868
L 132.240866 173.890962
L 132.444692 173.117484
L 132.648518 167.27193
L 133.259997 133.822693
L 134.279129 80.36415
L 134.890608 50.852817
L 135.094434 44.905256
L 135.29826 43.369383
L 136.928871 43.494935
L 137.336523 43.597642
L 137.744176 44.268223
L 137.948002 44.710403
L 138.559481 49.297295
L 139.17096 46.182674
L 139.782439 42.499117
L 139.986265 41.842057
L 140.190092 41.733593
L 141.41305 41.894626
L 142.228355 41.910651
L 142.839834 41.593477
L 143.655139 35.858553
L 144.062792 34.653996
L 144.674271 34.48
L 145.693402 34.255799
L 147.324013 34.117819
L 147.731665 33.332727
L 148.954623 40.559594
L 149.566102 44.808744
L 149.973755 45.374152
L 150.585234 45.536666
L 152.012018 45.926452
L 152.215844 47.129289
L 153.031149 54.307703
L 153.234976 55.668499
L 153.846454 63.82162
L 154.457933 77.624624
L 154.66176 77.904951
L 156.903849 78.492393
L 157.107675 78.363881
L 157.515328 78.612173
L 158.126807 86.195267
L 158.738286 78.233835
L 159.349765 64.411264
L 159.961244 64.024628
L 161.591854 63.823253
L 161.795681 63.64161
L 161.999507 62.476653
L 162.407159 58.236802
L 163.018638 46.748605
L 163.630117 47.402672
L 164.03777 47.886398
L 164.241596 48.072291
L 164.649249 47.913655
L 166.279859 47.757197
L 166.687512 47.720221
L 167.095165 48.130885
L 167.298991 48.426307
L 167.706644 51.301001
L 167.91047 52.711144
L 168.318122 54.03998
L 168.725775 57.761541
L 169.133428 61.515192
L 169.337254 62.023613
L 170.356386 62.175879
L 171.579343 62.22207
L 172.190822 62.679514
L 172.394649 62.291553
L 172.802301 60.796076
L 173.209954 60.158151
L 173.41378 58.920607
L 174.025259 52.819785
L 174.229085 52.422606
L 174.636738 52.271641
L 176.471175 52.455189
L 176.675001 52.130309
L 176.878827 52.087792
L 177.082654 51.809661
L 177.694133 49.881414
L 177.897959 49.921356
L 178.101785 49.538219
L 178.305612 49.411486
L 178.713264 50.062156
L 178.917091 50.34159
L 181.363006 50.133111
L 181.566833 50.56867
L 181.770659 50.671204
L 181.974485 51.067442
L 182.585964 53.609983
L 182.78979 54.027849
L 183.197443 55.280972
L 183.401269 55.431839
L 183.808922 55.89721
L 185.439532 55.897301
L 186.254838 55.911647
L 186.866317 55.214815
L 187.681622 52.329758
L 188.700753 48.424902
L 189.108406 47.942636
L 190.331364 47.677736
L 191.146669 47.568088
L 191.758148 47.744042
L 192.369627 50.149327
L 192.573453 49.388085
L 192.77728 49.332652
L 192.981106 49.738453
L 193.388759 53.288419
L 193.592585 55.820003
L 194.40789 55.569364
L 195.427022 55.622893
L 196.038501 55.73904
L 196.242327 55.398871
L 196.446153 55.373898
L 196.649979 55.017651
L 197.261458 51.864697
L 197.465285 52.863235
L 197.669111 53.129869
L 197.872937 52.948582
L 198.28059 48.231325
L 198.484416 45.204024
L 198.688243 46.015739
L 198.892069 46.206009
L 200.522679 46.359792
L 200.930332 46.396731
L 201.745637 47.740048
L 202.15329 48.232441
L 202.764769 47.250167
L 203.376248 49.086852
L 203.580074 48.586331
L 204.191553 48.508846
L 206.02599 48.332619
L 206.433642 48.037815
L 206.637469 48.624145
L 206.841295 48.778522
L 207.045121 49.110346
L 207.860426 51.672087
L 208.268079 52.757139
L 208.675732 52.760686
L 209.89869 52.943072
L 210.713995 53.029382
L 210.917821 53.701325
L 211.325474 61.731961
L 212.548432 58.944131
L 213.159911 67.955745
L 213.567563 67.479871
L 214.382868 67.345545
L 215.605826 67.242608
L 215.809653 65.951286
L 216.217305 56.908075
L 216.828784 66.755308
L 217.440263 63.834587
L 218.051742 50.774368
L 218.459395 50.404366
L 219.886179 50.137468
L 220.497658 50.114817
L 220.701484 50.491238
L 220.90531 50.547797
L 221.109137 50.811753
L 221.720615 40.3952
L 222.943573 46.68815
L 223.351226 47.111975
L 224.574184 47.316862
L 225.389489 47.439034
L 226.000968 47.907933
L 226.408621 48.901689
L 227.0201 50.466008
L 227.835405 52.747019
L 228.243057 53.111172
L 229.262189 53.271118
L 230.28132 53.420324
L 230.688973 54.933088
L 230.892799 56.069304
L 231.096626 56.547984
L 231.504278 58.149156
L 232.52341 60.051082
L 232.931063 60.381553
L 233.950194 60.474396
L 235.173152 60.509531
L 235.376978 60.05307
L 235.580805 61.297857
L 235.988457 64.274782
L 236.39611 66.652433
L 236.803762 67.696939
L 237.415241 70.074453
L 237.619068 69.448901
L 238.02672 69.073953
L 239.045852 68.935058
L 240.064983 68.815937
L 240.26881 70.370572
L 242.103246 108.560885
L 242.714725 119.115652
L 243.122378 118.740029
L 244.752988 118.341832
L 244.956815 118.336942
L 246.179773 135.316392
L 247.606557 159.480687
L 247.810383 161.060321
L 248.421862 160.996164
L 249.440994 161.054068
L 249.64482 161.074472
L 249.848646 161.589716
L 252.702215 174.166683
L 253.925172 174.212333
L 255.963435 174.271453
L 258.001699 174.665596
L 259.836135 174.875562
L 260.243788 174.999506
L 261.26292 175.505724
L 261.874398 175.592851
L 263.708835 175.787917
L 264.52414 175.919118
L 264.931793 175.802047
L 265.339446 175.609663
L 266.562404 175.008771
L 267.173882 174.884932
L 268.39684 174.833838
L 269.823624 174.904549
L 272.26954 175.324049
L 273.696324 175.282369
L 275.530761 175.227882
L 277.161372 175.616117
L 278.588156 175.702328
L 280.626419 175.805298
L 283.276161 176.118961
L 285.51825 176.214241
L 286.741208 176.57389
L 287.76034 176.800558
L 289.594776 177.069969
L 291.429213 177.593413
L 294.894261 177.777959
L 295.913392 177.873539
L 300.601397 177.948374
L 301.620529 177.55997
L 302.232008 177.500829
L 303.454966 177.591331
L 304.270271 177.589155
L 304.88175 177.343527
L 305.900881 177.045747
L 309.162102 176.809019
L 309.569755 176.93838
L 309.773581 176.997578
L 310.38506 177.483658
L 311.608018 177.989919
L 313.442455 177.999218
L 314.053934 178.186993
L 319.149591 178.928107
L 320.168723 178.949442
L 322.818465 179.026172
L 324.449075 178.970524
L 325.672033 178.334194
L 327.50647 178.258605
L 329.544733 178.515694
L 330.156212 178.575313
L 331.37917 178.726305
L 333.417433 178.712539
L 334.028912 178.563312
L 334.640391 178.268933
L 336.067175 177.587394
L 337.697785 177.165726
L 338.309264 176.990742
L 339.328396 176.731704
L 340.143701 176.73136
L 342.181964 176.73979
L 343.404922 176.619209
L 343.812575 176.76475
L 344.220227 176.982481
L 345.850838 177.879978
L 348.908233 178.275511
L 349.927364 178.657347
L 350.742669 178.746578
L 352.780932 178.856624
L 353.596238 179.028614
L 354.00389 179.043659
L 354.819195 179.085231
L 357.87659 179.314861
L 358.488069 179.306806
L 360.730158 179.279501
L 361.74929 179.442457
L 362.564595 179.52753
L 362.972248 179.527155
L 363.583727 179.043131
L 365.418164 177.85077
L 367.2526 177.656737
L 367.660253 177.782522
L 368.067906 177.992622
L 368.883211 178.364337
L 369.698516 178.509746
L 372.144432 178.494384
L 372.755911 178.315343
L 374.794174 177.975531
L 376.832437 177.930553
L 377.647742 177.906983
L 378.259221 177.964676
L 378.8707 178.248486
L 380.297484 178.867231
L 381.724268 179.186116
L 382.539574 179.376412
L 383.762531 180.171108
L 384.781663 180.587782
L 385.393142 180.585073
L 387.023752 180.566711
L 387.635231 180.677034
L 388.858189 180.979507
L 390.284973 181.070894
L 391.711757 181.032451
L 392.934715 180.746486
L 393.546194 180.367302
L 395.176805 179.901718
L 396.807415 179.816037
L 397.826547 179.885631
L 398.641852 180.133646
L 399.457157 180.316705
L 403.329857 180.826364
L 404.348989 180.681414
L 405.775773 180.773603
L 406.998731 180.746205
L 407.61021 180.482975
L 409.24082 180.159717
L 411.890562 180.030025
L 412.298215 180.296483
L 412.705867 180.6246
L 413.724999 181.479663
L 414.132651 181.554519
L 414.74413 181.566246
L 417.190046 181.341367
L 418.413004 181.047974
L 419.228309 181.085178
L 422.285704 181.267372
L 424.120141 180.866118
L 426.566056 180.785736
L 427.177535 180.441329
L 429.011972 179.43749
L 431.86554 179.035792
L 433.699977 178.336231
L 436.757372 177.924541
L 438.591809 177.60612
L 440.833898 177.133741
L 442.668335 176.946435
L 446.337208 177.014747
L 447.560166 177.413254
L 452.248171 179.14093
L 453.674955 179.351486
L 454.897913 179.31429
L 456.528524 179.164851
L 458.362961 178.012218
L 460.60505 177.431179
L 460.808876 177.341563
L 461.012703 177.404134
L 461.420355 177.323439
L 462.031834 177.686622
L 463.254792 178.159436
L 465.089229 178.062197
L 465.496881 178.173165
L 469.777234 179.115947
L 470.592539 179.342694
L 472.019323 179.95761
L 473.038455 180.21633
L 474.669065 180.364819
L 475.280544 180.283231
L 476.911155 180.073727
L 480.783855 180.300038
L 481.395334 180.285626
L 484.248902 180.09321
L 485.879512 180.073985
L 486.898644 179.835765
L 488.529254 179.649167
L 491.994302 179.536399
L 495.663175 179.493105
L 496.886133 179.789395
L 498.109091 179.968935
L 498.109091 179.968935
" style="fill:none;stroke:#d62728;stroke-linecap:square;stroke-width:0.8;"/>
   </g>
   <g id="line2d_23">
    <path clip-path="url(#pa25fc9ef8c)" d="M 92.290909 172.634821
L 93.106214 172.66057
L 93.310041 172.275502
L 93.513867 166.839502
L 95.144477 81.2906
L 95.755956 50.903807
L 95.959783 44.884531
L 96.163609 44.151786
L 96.571262 44.358194
L 97.182741 44.553269
L 98.201872 44.624556
L 99.017177 46.494873
L 99.42483 48.075975
L 99.628656 48.113972
L 100.036309 50.075627
L 100.647788 56.497251
L 100.851614 57.423173
L 102.278398 57.448562
L 103.093703 57.668939
L 103.29753 58.364934
L 103.705182 64.067637
L 104.112835 64.763529
L 104.316661 65.115321
L 104.520488 64.751702
L 105.131967 61.746442
L 105.539619 60.563137
L 105.743446 59.217844
L 105.947272 58.92439
L 107.781709 58.685907
L 107.985535 58.485799
L 108.189361 57.121811
L 108.80084 49.645045
L 109.208493 47.804966
L 109.819972 53.359831
L 110.431451 47.485761
L 110.635277 47.927982
L 112.877366 47.75032
L 113.285019 47.383168
L 113.488845 47.185252
L 114.100324 43.939931
L 114.711803 36.879197
L 115.527108 34.675929
L 115.730935 34.495499
L 117.565371 34.641508
L 117.769198 34.571167
L 117.973024 34.94127
L 118.380677 36.297966
L 118.992156 41.216809
L 120.41894 42.23301
L 121.030419 42.192094
L 122.661029 42.104698
L 122.864855 42.047272
L 123.272508 40.99098
L 123.883987 36.452009
L 124.699292 41.338363
L 125.106945 42.825358
L 125.514598 43.044359
L 126.329903 43.213284
L 127.349034 43.322157
L 127.552861 43.983958
L 127.756687 49.637439
L 128.571992 94.835908
L 129.79495 157.920429
L 130.202603 173.048141
L 130.406429 174.343062
L 131.221734 174.086868
L 132.240866 173.890962
L 132.444692 173.117484
L 132.648518 167.27193
L 133.259997 133.822693
L 134.279129 80.36415
L 134.890608 50.852817
L 135.094434 44.905256
L 135.29826 43.369383
L 136.928871 43.494935
L 137.336523 43.597642
L 137.744176 44.268223
L 137.948002 44.710403
L 138.559481 49.297295
L 139.17096 46.182674
L 139.782439 42.499117
L 139.986265 41.842057
L 140.190092 41.733594
L 141.41305 41.894626
L 142.228355 41.910651
L 142.839834 41.593477
L 143.655139 35.858553
L 144.062792 34.653996
L 144.674271 34.48
L 145.693402 34.255799
L 147.324013 34.117819
L 147.731665 33.332727
L 148.954623 40.559595
L 149.566102 44.808745
L 149.973755 45.374153
L 150.585234 45.536668
L 152.012018 45.926454
L 152.215844 47.129291
L 153.031149 54.307705
L 153.234976 55.668501
L 153.846454 63.821622
L 154.457933 77.624625
L 154.66176 77.904952
L 156.903849 78.492394
L 157.107675 78.363882
L 157.515328 78.612174
L 158.126807 86.195268
L 158.738286 78.233836
L 159.349765 64.411265
L 159.961244 64.02463
L 161.591854 63.823254
L 161.795681 63.641611
L 161.999507 62.476654
L 162.407159 58.236804
L 163.018638 46.748607
L 163.630117 47.402673
L 164.03777 47.8864
L 164.241596 48.072293
L 164.649249 47.913657
L 166.279859 47.757199
L 166.687512 47.720223
L 167.095165 48.130887
L 167.298991 48.426309
L 167.706644 51.301003
L 167.91047 52.711146
L 168.318122 54.039982
L 168.725775 57.761543
L 169.133428 61.515193
L 169.337254 62.023614
L 170.356386 62.17588
L 171.579343 62.222071
L 172.190822 62.679515
L 172.394649 62.291554
L 172.802301 60.796077
L 173.209954 60.158153
L 173.41378 58.920609
L 174.025259 52.819786
L 174.229085 52.422608
L 174.636738 52.271642
L 176.471175 52.455191
L 176.675001 52.13031
L 176.878827 52.087793
L 177.082654 51.809662
L 177.694133 49.881415
L 177.897959 49.921358
L 178.101785 49.538221
L 178.305612 49.411488
L 178.713264 50.062158
L 178.917091 50.341592
L 181.363006 50.133113
L 181.566833 50.568672
L 181.770659 50.671206
L 181.974485 51.067444
L 182.585964 53.609985
L 182.78979 54.027851
L 183.197443 55.280974
L 183.401269 55.431841
L 183.808922 55.897212
L 185.439532 55.897303
L 186.254838 55.911649
L 186.866317 55.214817
L 187.681622 52.32976
L 188.700753 48.424904
L 189.108406 47.942638
L 190.331364 47.677738
L 191.146669 47.568091
L 191.758148 47.744044
L 192.369627 50.149328
L 192.573453 49.388087
L 192.77728 49.332653
L 192.981106 49.738455
L 193.388759 53.288421
L 193.592585 55.820005
L 194.40789 55.569362
L 195.427022 55.622891
L 196.038501 55.739038
L 196.242327 55.398869
L 196.446153 55.373897
L 196.649979 55.017649
L 197.261458 51.864695
L 197.465285 52.863233
L 197.669111 53.129868
L 197.872937 52.94858
L 198.28059 48.231323
L 198.484416 45.204022
L 198.688243 46.015737
L 198.892069 46.206007
L 200.522679 46.359791
L 200.930332 46.39673
L 201.745637 47.740046
L 202.15329 48.23244
L 202.764769 47.250166
L 203.376248 49.086851
L 203.580074 48.58633
L 204.191553 48.508845
L 206.02599 48.332618
L 206.433642 48.037814
L 206.637469 48.624144
L 206.841295 48.778521
L 207.045121 49.110345
L 207.860426 51.672086
L 208.268079 52.757138
L 208.675732 52.760689
L 209.89869 52.943074
L 210.713995 53.029385
L 210.917821 53.701327
L 211.325474 61.731963
L 212.548432 58.944134
L 213.159911 67.955747
L 213.567563 67.47987
L 214.382868 67.345544
L 215.605826 67.242607
L 215.809653 65.951285
L 216.217305 56.908074
L 216.828784 66.755307
L 217.440263 63.834585
L 218.051742 50.774365
L 218.459395 50.404366
L 219.886179 50.137469
L 220.497658 50.114817
L 220.701484 50.491236
L 220.90531 50.547795
L 221.109137 50.811751
L 221.720615 40.395198
L 222.943573 46.688146
L 223.351226 47.111971
L 224.574184 47.316858
L 225.389489 47.43903
L 226.000968 47.907932
L 226.408621 48.901687
L 227.0201 50.466004
L 227.427752 51.967187
L 227.835405 53.439151
L 228.243057 53.8033
L 229.262189 53.963246
L 230.28132 54.112452
L 230.688973 55.62522
L 231.911931 66.402148
L 232.52341 73.400073
L 232.727236 74.628532
L 233.338715 74.768401
L 235.173152 74.838682
L 235.376978 74.38222
L 236.192283 87.413902
L 236.599936 91.463897
L 237.211415 95.875224
L 237.822894 98.495261
L 238.230547 98.287032
L 240.064983 98.075784
L 240.676462 107.158719
L 242.714725 134.14929
L 243.122378 133.773666
L 244.752988 133.375469
L 244.956815 133.449303
L 246.179773 145.560716
L 247.606557 162.804828
L 247.810383 164.611814
L 248.421862 164.547656
L 249.440994 164.605561
L 249.64482 164.625965
L 250.052472 165.697657
L 250.663951 167.476397
L 252.702215 174.166683
L 253.925172 174.212333
L 255.963435 174.271453
L 258.001699 174.665596
L 259.836135 174.875562
L 260.243788 174.999506
L 261.26292 175.505724
L 261.874398 175.592851
L 263.708835 175.787917
L 264.52414 175.919118
L 264.931793 175.802047
L 265.339446 175.609663
L 266.562404 175.008771
L 267.173882 174.884932
L 268.39684 174.833838
L 269.823624 174.904549
L 272.26954 175.324049
L 273.696324 175.282369
L 275.530761 175.227882
L 277.161372 175.616117
L 278.588156 175.702328
L 280.626419 175.805298
L 283.276161 176.118961
L 285.51825 176.214241
L 286.741208 176.57389
L 287.76034 176.800558
L 289.594776 177.069969
L 291.429213 177.593413
L 294.894261 177.777959
L 295.913392 177.873539
L 300.601397 177.948374
L 301.620529 177.55997
L 302.232008 177.500829
L 303.454966 177.591331
L 304.270271 177.589155
L 304.88175 177.343527
L 305.900881 177.045747
L 309.162102 176.809019
L 309.569755 176.93838
L 309.773581 176.997578
L 310.38506 177.483658
L 311.608018 177.989919
L 313.442455 177.999218
L 314.053934 178.186993
L 319.149591 178.928107
L 320.168723 178.949442
L 322.818465 179.026172
L 324.449075 178.970524
L 325.672033 178.334194
L 327.50647 178.258605
L 329.544733 178.515694
L 330.156212 178.575313
L 331.37917 178.726305
L 333.417433 178.712539
L 334.028912 178.563312
L 334.640391 178.268933
L 336.067175 177.587394
L 337.697785 177.165726
L 338.309264 176.990742
L 339.328396 176.731704
L 340.143701 176.73136
L 342.181964 176.73979
L 343.404922 176.619209
L 343.812575 176.76475
L 344.220227 176.982481
L 345.850838 177.879978
L 348.908233 178.275511
L 349.927364 178.657347
L 350.742669 178.746578
L 352.780932 178.856624
L 353.596238 179.028614
L 354.00389 179.043659
L 354.819195 179.085231
L 357.87659 179.314861
L 358.488069 179.306806
L 360.730158 179.279501
L 361.74929 179.442457
L 362.564595 179.52753
L 362.972248 179.527155
L 363.583727 179.043131
L 365.418164 177.85077
L 367.2526 177.656737
L 367.660253 177.782522
L 368.067906 177.992622
L 368.883211 178.364337
L 369.698516 178.509746
L 372.144432 178.494384
L 372.755911 178.315343
L 374.794174 177.975531
L 376.832437 177.930553
L 377.647742 177.906983
L 378.259221 177.964676
L 378.8707 178.248486
L 380.297484 178.867231
L 381.724268 179.186116
L 382.539574 179.376412
L 383.762531 180.171108
L 384.781663 180.587782
L 385.393142 180.585073
L 387.023752 180.566711
L 387.635231 180.677034
L 388.858189 180.979507
L 390.284973 181.070894
L 391.711757 181.032451
L 392.934715 180.746486
L 393.546194 180.367302
L 395.176805 179.901718
L 396.807415 179.816037
L 397.826547 179.885631
L 398.641852 180.133646
L 399.457157 180.316705
L 403.329857 180.826364
L 404.348989 180.681414
L 405.775773 180.773603
L 406.998731 180.746205
L 407.61021 180.482975
L 409.24082 180.159717
L 411.890562 180.030025
L 412.298215 180.296483
L 412.705867 180.6246
L 413.724999 181.479663
L 414.132651 181.554519
L 414.74413 181.566246
L 417.190046 181.341367
L 418.413004 181.047974
L 419.228309 181.085178
L 422.285704 181.267372
L 424.120141 180.866118
L 426.566056 180.785736
L 427.177535 180.441329
L 429.011972 179.43749
L 431.86554 179.035792
L 433.699977 178.336231
L 436.757372 177.924541
L 438.591809 177.60612
L 440.833898 177.133741
L 442.668335 176.946435
L 446.337208 177.014747
L 447.560166 177.413254
L 452.248171 179.14093
L 453.674955 179.351486
L 454.897913 179.31429
L 456.528524 179.164851
L 458.362961 178.012218
L 460.60505 177.431179
L 460.808876 177.341563
L 461.012703 177.404134
L 461.420355 177.323439
L 462.031834 177.686622
L 463.254792 178.159436
L 465.089229 178.062197
L 465.496881 178.173165
L 469.777234 179.115947
L 470.592539 179.342694
L 472.019323 179.95761
L 473.038455 180.21633
L 474.669065 180.364819
L 475.280544 180.283231
L 476.911155 180.073727
L 480.783855 180.300038
L 481.395334 180.285626
L 484.248902 180.09321
L 485.879512 180.073985
L 486.898644 179.835765
L 488.529254 179.649167
L 491.994302 179.536399
L 495.663175 179.493105
L 496.886133 179.789395
L 498.109091 179.968935
L 498.109091 179.968935
" style="fill:none;stroke:#9467bd;stroke-linecap:square;stroke-width:0.8;"/>
   </g>
   <g id="legend_1">
    <g id="patch_7">
     <path d="M 450.810937 107.310625
L 511.4 107.310625
Q 513.4 107.310625 513.4 105.310625
L 513.4 32.92
Q 513.4 30.92 511.4 30.92
L 450.810937 30.92
Q 448.810937 30.92 448.810937 32.92
L 448.810937 105.310625
Q 448.810937 107.310625 450.810937 107.310625
z
" style="fill:#ffffff;opacity:0.8;stroke:#cccccc;stroke-linejoin:miter;"/>
    </g>
    <g id="line2d_24">
     <path d="M 452.810937 39.018438
L 472.810937 39.018438
" style="fill:none;stroke:#1f77b4;stroke-linecap:square;stroke-width:0.8;"/>
    </g>
    <g id="line2d_25"/>
    <g id="text_14">
     <!-- 0% -->
     <g style="fill:#696969;" transform="translate(480.810937 42.518438)scale(0.1 -0.1)">
      <defs>
       <path d="M 72.703125 32.078125
Q 68.453125 32.078125 66.03125 28.46875
Q 63.625 24.859375 63.625 18.40625
Q 63.625 12.0625 66.03125 8.421875
Q 68.453125 4.78125 72.703125 4.78125
Q 76.859375 4.78125 79.265625 8.421875
Q 81.6875 12.0625 81.6875 18.40625
Q 81.6875 24.8125 79.265625 28.4375
Q 76.859375 32.078125 72.703125 32.078125
z
M 72.703125 38.28125
Q 80.421875 38.28125 84.953125 32.90625
Q 89.5 27.546875 89.5 18.40625
Q 89.5 9.28125 84.9375 3.921875
Q 80.375 -1.421875 72.703125 -1.421875
Q 64.890625 -1.421875 60.34375 3.921875
Q 55.8125 9.28125 55.8125 18.40625
Q 55.8125 27.59375 60.375 32.9375
Q 64.9375 38.28125 72.703125 38.28125
z
M 22.3125 68.015625
Q 18.109375 68.015625 15.6875 64.375
Q 13.28125 60.75 13.28125 54.390625
Q 13.28125 47.953125 15.671875 44.328125
Q 18.0625 40.71875 22.3125 40.71875
Q 26.5625 40.71875 28.96875 44.328125
Q 31.390625 47.953125 31.390625 54.390625
Q 31.390625 60.6875 28.953125 64.34375
Q 26.515625 68.015625 22.3125 68.015625
z
M 66.40625 74.21875
L 74.21875 74.21875
L 28.609375 -1.421875
L 20.796875 -1.421875
z
M 22.3125 74.21875
Q 30.03125 74.21875 34.609375 68.875
Q 39.203125 63.53125 39.203125 54.390625
Q 39.203125 45.171875 34.640625 39.84375
Q 30.078125 34.515625 22.3125 34.515625
Q 14.546875 34.515625 10.03125 39.859375
Q 5.515625 45.21875 5.515625 54.390625
Q 5.515625 63.484375 10.046875 68.84375
Q 14.59375 74.21875 22.3125 74.21875
z
" id="DejaVuSans-37"/>
      </defs>
      <use xlink:href="#DejaVuSans-48"/>
      <use x="63.623047" xlink:href="#DejaVuSans-37"/>
     </g>
    </g>
    <g id="line2d_26">
     <path d="M 452.810937 53.696562
L 472.810937 53.696562
" style="fill:none;stroke:#ff7f0e;stroke-linecap:square;stroke-width:0.8;"/>
    </g>
    <g id="line2d_27"/>
    <g id="text_15">
     <!-- 10% -->
     <g style="fill:#696969;" transform="translate(480.810937 57.196562)scale(0.1 -0.1)">
      <use xlink:href="#DejaVuSans-49"/>
      <use x="63.623047" xlink:href="#DejaVuSans-48"/>
      <use x="127.246094" xlink:href="#DejaVuSans-37"/>
     </g>
    </g>
    <g id="line2d_28">
     <path d="M 452.810937 68.374687
L 472.810937 68.374687
" style="fill:none;stroke:#2ca02c;stroke-linecap:square;stroke-width:0.8;"/>
    </g>
    <g id="line2d_29"/>
    <g id="text_16">
     <!-- 60% -->
     <g style="fill:#696969;" transform="translate(480.810937 71.874687)scale(0.1 -0.1)">
      <use xlink:href="#DejaVuSans-54"/>
      <use x="63.623047" xlink:href="#DejaVuSans-48"/>
      <use x="127.246094" xlink:href="#DejaVuSans-37"/>
     </g>
    </g>
    <g id="line2d_30">
     <path d="M 452.810937 83.052813
L 472.810937 83.052813
" style="fill:none;stroke:#d62728;stroke-linecap:square;stroke-width:0.8;"/>
    </g>
    <g id="line2d_31"/>
    <g id="text_17">
     <!-- 100% -->
     <g style="fill:#696969;" transform="translate(480.810937 86.552813)scale(0.1 -0.1)">
      <use xlink:href="#DejaVuSans-49"/>
      <use x="63.623047" xlink:href="#DejaVuSans-48"/>
      <use x="127.246094" xlink:href="#DejaVuSans-48"/>
      <use x="190.869141" xlink:href="#DejaVuSans-37"/>
     </g>
    </g>
    <g id="line2d_32">
     <path d="M 452.810937 97.730938
L 472.810937 97.730938
" style="fill:none;stroke:#9467bd;stroke-linecap:square;stroke-width:0.8;"/>
    </g>
    <g id="line2d_33"/>
    <g id="text_18">
     <!-- 200% -->
     <g style="fill:#696969;" transform="translate(480.810937 101.230938)scale(0.1 -0.1)">
      <use xlink:href="#DejaVuSans-50"/>
      <use x="63.623047" xlink:href="#DejaVuSans-48"/>
      <use x="127.246094" xlink:href="#DejaVuSans-48"/>
      <use x="190.869141" xlink:href="#DejaVuSans-37"/>
     </g>
    </g>
   </g>
  </g>
  <g id="text_19">
   <!-- A_n -->
   <g style="fill:#696969;" transform="translate(277.093125 13.104375)scale(0.12 -0.12)">
    <use xlink:href="#DejaVuSans-65"/>
    <use x="68.408203" xlink:href="#DejaVuSans-95"/>
    <use x="118.408203" xlink:href="#DejaVuSans-110"/>
   </g>
  </g>
 </g>
 <defs>
  <clipPath id="pa25fc9ef8c">
   <rect height="163.08" width="446.4" x="72" y="25.92"/>
  </clipPath>
 </defs>
</svg>
