<?xml version="1.0" encoding="utf-8" standalone="no"?>
<!DOCTYPE svg PUBLIC "-//W3C//DTD SVG 1.1//EN"
  "http://www.w3.org/Graphics/SVG/1.1/DTD/svg11.dtd">
<!-- Created with matplotlib (https://matplotlib.org/) -->
<svg height="216pt" version="1.1" viewBox="0 0 576 216" width="576pt" xmlns="http://www.w3.org/2000/svg" xmlns:xlink="http://www.w3.org/1999/xlink">
 <metadata>
  <rdf:RDF xmlns:cc="http://creativecommons.org/ns#" xmlns:dc="http://purl.org/dc/elements/1.1/" xmlns:rdf="http://www.w3.org/1999/02/22-rdf-syntax-ns#">
   <cc:Work>
    <dc:type rdf:resource="http://purl.org/dc/dcmitype/StillImage"/>
    <dc:date>2020-11-03T11:27:04.705690</dc:date>
    <dc:format>image/svg+xml</dc:format>
    <dc:creator>
     <cc:Agent>
      <dc:title>Matplotlib v3.3.2, https://matplotlib.org/</dc:title>
     </cc:Agent>
    </dc:creator>
   </cc:Work>
  </rdf:RDF>
 </metadata>
 <defs>
  <style type="text/css">*{stroke-linecap:butt;stroke-linejoin:round;}</style>
 </defs>
 <g id="figure_1">
  <g id="patch_1">
   <path d="M 0 216
L 576 216
L 576 0
L 0 0
z
" style="fill:none;"/>
  </g>
  <g id="axes_1">
   <g id="patch_2">
    <path d="M 72 189
L 518.4 189
L 518.4 25.92
L 72 25.92
z
" style="fill:none;"/>
   </g>
   <g id="line2d_1">
    <path clip-path="url(#p7c471921ab)" d="M 92.290909 180.738825
L 93.513867 180.815185
L 96.163609 181.555613
L 100.851614 181.544554
L 103.29753 181.498994
L 111.858235 181.559776
L 123.883987 181.566979
L 127.756687 181.456945
L 130.610255 180.632742
L 132.648518 180.735659
L 135.705913 181.582196
L 173.821433 181.528677
L 182.382138 181.533991
L 193.796411 181.561469
L 200.115027 181.545334
L 246.179773 181.43137
L 249.033341 181.290296
L 250.256299 181.182734
L 253.313693 180.700256
L 285.110598 180.634657
L 309.977407 180.429621
L 322.410812 180.054597
L 327.302644 179.838563
L 331.175344 179.648768
L 340.143701 179.494603
L 355.838327 178.55217
L 361.545464 177.947814
L 363.583727 177.700943
L 366.029642 177.414539
L 379.074526 175.018045
L 381.928095 173.938439
L 384.781663 172.607948
L 386.6161 171.868441
L 387.431405 171.387967
L 390.896452 168.601244
L 395.380631 163.207818
L 397.215068 156.500658
L 399.253331 147.557594
L 400.272462 143.51407
L 403.329857 74.47597
L 405.164294 33.332727
L 498.109091 33.332727
L 498.109091 33.332727
" style="fill:none;stroke:#1f77b4;stroke-linecap:square;stroke-width:0.8;"/>
   </g>
   <g id="line2d_2">
    <path clip-path="url(#p7c471921ab)" d="M 92.290909 180.738825
L 93.513867 180.815185
L 96.163609 181.555613
L 100.851614 181.544554
L 103.29753 181.498994
L 111.858235 181.559776
L 123.883987 181.566979
L 127.756687 181.456945
L 130.610255 180.632742
L 132.648518 180.735659
L 135.705913 181.582196
L 173.821433 181.528677
L 182.382138 181.533991
L 193.796411 181.561469
L 200.115027 181.545334
L 245.975946 181.441758
L 248.829515 181.28139
L 250.256299 181.172964
L 253.51752 180.700547
L 264.320314 180.643433
L 271.046582 180.633263
L 310.181234 180.421661
L 319.964897 180.103387
L 327.302644 179.838563
L 331.175344 179.648768
L 340.143701 179.494603
L 355.838327 178.55217
L 361.545464 177.947814
L 363.583727 177.700943
L 366.029642 177.414539
L 379.074526 175.018045
L 381.928095 173.938439
L 384.781663 172.607948
L 386.6161 171.868441
L 387.431405 171.387967
L 390.896452 168.601244
L 395.380631 163.207818
L 397.215068 156.500658
L 399.253331 147.557594
L 400.272462 143.51407
L 403.329857 74.47597
L 405.164294 33.332727
L 498.109091 33.332727
L 498.109091 33.332727
" style="fill:none;stroke:#ff7f0e;stroke-linecap:square;stroke-width:0.8;"/>
   </g>
   <g id="matplotlib.axis_1">
    <g id="xtick_1">
     <g id="line2d_3">
      <defs>
       <path d="M 0 0
L 0 1.5
" id="m347008e06a" style="stroke:#696969;stroke-width:0.8;"/>
      </defs>
      <g>
       <use style="fill:#696969;stroke:#696969;stroke-width:0.8;" x="92.290909" xlink:href="#m347008e06a" y="189"/>
      </g>
     </g>
     <g id="text_1">
      <!-- 147 -->
      <g style="fill:#696969;" transform="translate(82.747159 201.598437)scale(0.1 -0.1)">
       <defs>
        <path d="M 12.40625 8.296875
L 28.515625 8.296875
L 28.515625 63.921875
L 10.984375 60.40625
L 10.984375 69.390625
L 28.421875 72.90625
L 38.28125 72.90625
L 38.28125 8.296875
L 54.390625 8.296875
L 54.390625 0
L 12.40625 0
z
" id="DejaVuSans-49"/>
        <path d="M 37.796875 64.3125
L 12.890625 25.390625
L 37.796875 25.390625
z
M 35.203125 72.90625
L 47.609375 72.90625
L 47.609375 25.390625
L 58.015625 25.390625
L 58.015625 17.1875
L 47.609375 17.1875
L 47.609375 0
L 37.796875 0
L 37.796875 17.1875
L 4.890625 17.1875
L 4.890625 26.703125
z
" id="DejaVuSans-52"/>
        <path d="M 8.203125 72.90625
L 55.078125 72.90625
L 55.078125 68.703125
L 28.609375 0
L 18.3125 0
L 43.21875 64.59375
L 8.203125 64.59375
z
" id="DejaVuSans-55"/>
       </defs>
       <use xlink:href="#DejaVuSans-49"/>
       <use x="63.623047" xlink:href="#DejaVuSans-52"/>
       <use x="127.246094" xlink:href="#DejaVuSans-55"/>
      </g>
     </g>
    </g>
    <g id="xtick_2">
     <g id="line2d_4">
      <g>
       <use style="fill:#696969;stroke:#696969;stroke-width:0.8;" x="227.631578" xlink:href="#m347008e06a" y="189"/>
      </g>
     </g>
     <g id="text_2">
      <!-- 174 -->
      <g style="fill:#696969;" transform="translate(218.087828 201.598437)scale(0.1 -0.1)">
       <use xlink:href="#DejaVuSans-49"/>
       <use x="63.623047" xlink:href="#DejaVuSans-55"/>
       <use x="127.246094" xlink:href="#DejaVuSans-52"/>
      </g>
     </g>
    </g>
    <g id="xtick_3">
     <g id="line2d_5">
      <g>
       <use style="fill:#696969;stroke:#696969;stroke-width:0.8;" x="362.972248" xlink:href="#m347008e06a" y="189"/>
      </g>
     </g>
     <g id="text_3">
      <!-- 202 -->
      <g style="fill:#696969;" transform="translate(353.428498 201.598437)scale(0.1 -0.1)">
       <defs>
        <path d="M 19.1875 8.296875
L 53.609375 8.296875
L 53.609375 0
L 7.328125 0
L 7.328125 8.296875
Q 12.9375 14.109375 22.625 23.890625
Q 32.328125 33.6875 34.8125 36.53125
Q 39.546875 41.84375 41.421875 45.53125
Q 43.3125 49.21875 43.3125 52.78125
Q 43.3125 58.59375 39.234375 62.25
Q 35.15625 65.921875 28.609375 65.921875
Q 23.96875 65.921875 18.8125 64.3125
Q 13.671875 62.703125 7.8125 59.421875
L 7.8125 69.390625
Q 13.765625 71.78125 18.9375 73
Q 24.125 74.21875 28.421875 74.21875
Q 39.75 74.21875 46.484375 68.546875
Q 53.21875 62.890625 53.21875 53.421875
Q 53.21875 48.921875 51.53125 44.890625
Q 49.859375 40.875 45.40625 35.40625
Q 44.1875 33.984375 37.640625 27.21875
Q 31.109375 20.453125 19.1875 8.296875
z
" id="DejaVuSans-50"/>
        <path d="M 31.78125 66.40625
Q 24.171875 66.40625 20.328125 58.90625
Q 16.5 51.421875 16.5 36.375
Q 16.5 21.390625 20.328125 13.890625
Q 24.171875 6.390625 31.78125 6.390625
Q 39.453125 6.390625 43.28125 13.890625
Q 47.125 21.390625 47.125 36.375
Q 47.125 51.421875 43.28125 58.90625
Q 39.453125 66.40625 31.78125 66.40625
z
M 31.78125 74.21875
Q 44.046875 74.21875 50.515625 64.515625
Q 56.984375 54.828125 56.984375 36.375
Q 56.984375 17.96875 50.515625 8.265625
Q 44.046875 -1.421875 31.78125 -1.421875
Q 19.53125 -1.421875 13.0625 8.265625
Q 6.59375 17.96875 6.59375 36.375
Q 6.59375 54.828125 13.0625 64.515625
Q 19.53125 74.21875 31.78125 74.21875
z
" id="DejaVuSans-48"/>
       </defs>
       <use xlink:href="#DejaVuSans-50"/>
       <use x="63.623047" xlink:href="#DejaVuSans-48"/>
       <use x="127.246094" xlink:href="#DejaVuSans-50"/>
      </g>
     </g>
    </g>
    <g id="xtick_4">
     <g id="line2d_6">
      <g>
       <use style="fill:#696969;stroke:#696969;stroke-width:0.8;" x="498.312917" xlink:href="#m347008e06a" y="189"/>
      </g>
     </g>
     <g id="text_4">
      <!-- 230 -->
      <g style="fill:#696969;" transform="translate(488.769167 201.598437)scale(0.1 -0.1)">
       <defs>
        <path d="M 40.578125 39.3125
Q 47.65625 37.796875 51.625 33
Q 55.609375 28.21875 55.609375 21.1875
Q 55.609375 10.40625 48.1875 4.484375
Q 40.765625 -1.421875 27.09375 -1.421875
Q 22.515625 -1.421875 17.65625 -0.515625
Q 12.796875 0.390625 7.625 2.203125
L 7.625 11.71875
Q 11.71875 9.328125 16.59375 8.109375
Q 21.484375 6.890625 26.8125 6.890625
Q 36.078125 6.890625 40.9375 10.546875
Q 45.796875 14.203125 45.796875 21.1875
Q 45.796875 27.640625 41.28125 31.265625
Q 36.765625 34.90625 28.71875 34.90625
L 20.21875 34.90625
L 20.21875 43.015625
L 29.109375 43.015625
Q 36.375 43.015625 40.234375 45.921875
Q 44.09375 48.828125 44.09375 54.296875
Q 44.09375 59.90625 40.109375 62.90625
Q 36.140625 65.921875 28.71875 65.921875
Q 24.65625 65.921875 20.015625 65.03125
Q 15.375 64.15625 9.8125 62.3125
L 9.8125 71.09375
Q 15.4375 72.65625 20.34375 73.4375
Q 25.25 74.21875 29.59375 74.21875
Q 40.828125 74.21875 47.359375 69.109375
Q 53.90625 64.015625 53.90625 55.328125
Q 53.90625 49.265625 50.4375 45.09375
Q 46.96875 40.921875 40.578125 39.3125
z
" id="DejaVuSans-51"/>
       </defs>
       <use xlink:href="#DejaVuSans-50"/>
       <use x="63.623047" xlink:href="#DejaVuSans-51"/>
       <use x="127.246094" xlink:href="#DejaVuSans-48"/>
      </g>
     </g>
    </g>
    <g id="text_5">
     <!-- Days -->
     <g style="fill:#696969;" transform="translate(282.721875 215.276563)scale(0.1 -0.1)">
      <defs>
       <path d="M 19.671875 64.796875
L 19.671875 8.109375
L 31.59375 8.109375
Q 46.6875 8.109375 53.6875 14.9375
Q 60.6875 21.78125 60.6875 36.53125
Q 60.6875 51.171875 53.6875 57.984375
Q 46.6875 64.796875 31.59375 64.796875
z
M 9.8125 72.90625
L 30.078125 72.90625
Q 51.265625 72.90625 61.171875 64.09375
Q 71.09375 55.28125 71.09375 36.53125
Q 71.09375 17.671875 61.125 8.828125
Q 51.171875 0 30.078125 0
L 9.8125 0
z
" id="DejaVuSans-68"/>
       <path d="M 34.28125 27.484375
Q 23.390625 27.484375 19.1875 25
Q 14.984375 22.515625 14.984375 16.5
Q 14.984375 11.71875 18.140625 8.90625
Q 21.296875 6.109375 26.703125 6.109375
Q 34.1875 6.109375 38.703125 11.40625
Q 43.21875 16.703125 43.21875 25.484375
L 43.21875 27.484375
z
M 52.203125 31.203125
L 52.203125 0
L 43.21875 0
L 43.21875 8.296875
Q 40.140625 3.328125 35.546875 0.953125
Q 30.953125 -1.421875 24.3125 -1.421875
Q 15.921875 -1.421875 10.953125 3.296875
Q 6 8.015625 6 15.921875
Q 6 25.140625 12.171875 29.828125
Q 18.359375 34.515625 30.609375 34.515625
L 43.21875 34.515625
L 43.21875 35.40625
Q 43.21875 41.609375 39.140625 45
Q 35.0625 48.390625 27.6875 48.390625
Q 23 48.390625 18.546875 47.265625
Q 14.109375 46.140625 10.015625 43.890625
L 10.015625 52.203125
Q 14.9375 54.109375 19.578125 55.046875
Q 24.21875 56 28.609375 56
Q 40.484375 56 46.34375 49.84375
Q 52.203125 43.703125 52.203125 31.203125
z
" id="DejaVuSans-97"/>
       <path d="M 32.171875 -5.078125
Q 28.375 -14.84375 24.75 -17.8125
Q 21.140625 -20.796875 15.09375 -20.796875
L 7.90625 -20.796875
L 7.90625 -13.28125
L 13.1875 -13.28125
Q 16.890625 -13.28125 18.9375 -11.515625
Q 21 -9.765625 23.484375 -3.21875
L 25.09375 0.875
L 2.984375 54.6875
L 12.5 54.6875
L 29.59375 11.921875
L 46.6875 54.6875
L 56.203125 54.6875
z
" id="DejaVuSans-121"/>
       <path d="M 44.28125 53.078125
L 44.28125 44.578125
Q 40.484375 46.53125 36.375 47.5
Q 32.28125 48.484375 27.875 48.484375
Q 21.1875 48.484375 17.84375 46.4375
Q 14.5 44.390625 14.5 40.28125
Q 14.5 37.15625 16.890625 35.375
Q 19.28125 33.59375 26.515625 31.984375
L 29.59375 31.296875
Q 39.15625 29.25 43.1875 25.515625
Q 47.21875 21.78125 47.21875 15.09375
Q 47.21875 7.46875 41.1875 3.015625
Q 35.15625 -1.421875 24.609375 -1.421875
Q 20.21875 -1.421875 15.453125 -0.5625
Q 10.6875 0.296875 5.421875 2
L 5.421875 11.28125
Q 10.40625 8.6875 15.234375 7.390625
Q 20.0625 6.109375 24.8125 6.109375
Q 31.15625 6.109375 34.5625 8.28125
Q 37.984375 10.453125 37.984375 14.40625
Q 37.984375 18.0625 35.515625 20.015625
Q 33.0625 21.96875 24.703125 23.78125
L 21.578125 24.515625
Q 13.234375 26.265625 9.515625 29.90625
Q 5.8125 33.546875 5.8125 39.890625
Q 5.8125 47.609375 11.28125 51.796875
Q 16.75 56 26.8125 56
Q 31.78125 56 36.171875 55.265625
Q 40.578125 54.546875 44.28125 53.078125
z
" id="DejaVuSans-115"/>
      </defs>
      <use xlink:href="#DejaVuSans-68"/>
      <use x="77.001953" xlink:href="#DejaVuSans-97"/>
      <use x="138.28125" xlink:href="#DejaVuSans-121"/>
      <use x="197.460938" xlink:href="#DejaVuSans-115"/>
     </g>
    </g>
   </g>
   <g id="matplotlib.axis_2">
    <g id="ytick_1">
     <g id="line2d_7">
      <path clip-path="url(#p7c471921ab)" d="M 72 182.312113
L 518.4 182.312113
" style="fill:none;stroke:#b0b0b0;stroke-linecap:square;stroke-width:0.8;"/>
     </g>
     <g id="line2d_8">
      <defs>
       <path d="M 0 0
L -1 0
" id="m508ed98b5d" style="stroke:#696969;stroke-width:0.2;"/>
      </defs>
      <g>
       <use style="fill:#696969;stroke:#696969;stroke-width:0.2;" x="72" xlink:href="#m508ed98b5d" y="182.312113"/>
      </g>
     </g>
     <g id="text_6">
      <!-- 0 -->
      <g style="fill:#696969;" transform="translate(61.1375 186.111331)scale(0.1 -0.1)">
       <use xlink:href="#DejaVuSans-48"/>
      </g>
     </g>
    </g>
    <g id="ytick_2">
     <g id="line2d_9">
      <path clip-path="url(#p7c471921ab)" d="M 72 152.516235
L 518.4 152.516235
" style="fill:none;stroke:#b0b0b0;stroke-linecap:square;stroke-width:0.8;"/>
     </g>
     <g id="line2d_10">
      <g>
       <use style="fill:#696969;stroke:#696969;stroke-width:0.2;" x="72" xlink:href="#m508ed98b5d" y="152.516235"/>
      </g>
     </g>
     <g id="text_7">
      <!-- 20000 -->
      <g style="fill:#696969;" transform="translate(35.6875 156.315454)scale(0.1 -0.1)">
       <use xlink:href="#DejaVuSans-50"/>
       <use x="63.623047" xlink:href="#DejaVuSans-48"/>
       <use x="127.246094" xlink:href="#DejaVuSans-48"/>
       <use x="190.869141" xlink:href="#DejaVuSans-48"/>
       <use x="254.492188" xlink:href="#DejaVuSans-48"/>
      </g>
     </g>
    </g>
    <g id="ytick_3">
     <g id="line2d_11">
      <path clip-path="url(#p7c471921ab)" d="M 72 122.720358
L 518.4 122.720358
" style="fill:none;stroke:#b0b0b0;stroke-linecap:square;stroke-width:0.8;"/>
     </g>
     <g id="line2d_12">
      <g>
       <use style="fill:#696969;stroke:#696969;stroke-width:0.2;" x="72" xlink:href="#m508ed98b5d" y="122.720358"/>
      </g>
     </g>
     <g id="text_8">
      <!-- 40000 -->
      <g style="fill:#696969;" transform="translate(35.6875 126.519577)scale(0.1 -0.1)">
       <use xlink:href="#DejaVuSans-52"/>
       <use x="63.623047" xlink:href="#DejaVuSans-48"/>
       <use x="127.246094" xlink:href="#DejaVuSans-48"/>
       <use x="190.869141" xlink:href="#DejaVuSans-48"/>
       <use x="254.492188" xlink:href="#DejaVuSans-48"/>
      </g>
     </g>
    </g>
    <g id="ytick_4">
     <g id="line2d_13">
      <path clip-path="url(#p7c471921ab)" d="M 72 92.924481
L 518.4 92.924481
" style="fill:none;stroke:#b0b0b0;stroke-linecap:square;stroke-width:0.8;"/>
     </g>
     <g id="line2d_14">
      <g>
       <use style="fill:#696969;stroke:#696969;stroke-width:0.2;" x="72" xlink:href="#m508ed98b5d" y="92.924481"/>
      </g>
     </g>
     <g id="text_9">
      <!-- 60000 -->
      <g style="fill:#696969;" transform="translate(35.6875 96.7237)scale(0.1 -0.1)">
       <defs>
        <path d="M 33.015625 40.375
Q 26.375 40.375 22.484375 35.828125
Q 18.609375 31.296875 18.609375 23.390625
Q 18.609375 15.53125 22.484375 10.953125
Q 26.375 6.390625 33.015625 6.390625
Q 39.65625 6.390625 43.53125 10.953125
Q 47.40625 15.53125 47.40625 23.390625
Q 47.40625 31.296875 43.53125 35.828125
Q 39.65625 40.375 33.015625 40.375
z
M 52.59375 71.296875
L 52.59375 62.3125
Q 48.875 64.0625 45.09375 64.984375
Q 41.3125 65.921875 37.59375 65.921875
Q 27.828125 65.921875 22.671875 59.328125
Q 17.53125 52.734375 16.796875 39.40625
Q 19.671875 43.65625 24.015625 45.921875
Q 28.375 48.1875 33.59375 48.1875
Q 44.578125 48.1875 50.953125 41.515625
Q 57.328125 34.859375 57.328125 23.390625
Q 57.328125 12.15625 50.6875 5.359375
Q 44.046875 -1.421875 33.015625 -1.421875
Q 20.359375 -1.421875 13.671875 8.265625
Q 6.984375 17.96875 6.984375 36.375
Q 6.984375 53.65625 15.1875 63.9375
Q 23.390625 74.21875 37.203125 74.21875
Q 40.921875 74.21875 44.703125 73.484375
Q 48.484375 72.75 52.59375 71.296875
z
" id="DejaVuSans-54"/>
       </defs>
       <use xlink:href="#DejaVuSans-54"/>
       <use x="63.623047" xlink:href="#DejaVuSans-48"/>
       <use x="127.246094" xlink:href="#DejaVuSans-48"/>
       <use x="190.869141" xlink:href="#DejaVuSans-48"/>
       <use x="254.492188" xlink:href="#DejaVuSans-48"/>
      </g>
     </g>
    </g>
    <g id="ytick_5">
     <g id="line2d_15">
      <path clip-path="url(#p7c471921ab)" d="M 72 63.128604
L 518.4 63.128604
" style="fill:none;stroke:#b0b0b0;stroke-linecap:square;stroke-width:0.8;"/>
     </g>
     <g id="line2d_16">
      <g>
       <use style="fill:#696969;stroke:#696969;stroke-width:0.2;" x="72" xlink:href="#m508ed98b5d" y="63.128604"/>
      </g>
     </g>
     <g id="text_10">
      <!-- 80000 -->
      <g style="fill:#696969;" transform="translate(35.6875 66.927823)scale(0.1 -0.1)">
       <defs>
        <path d="M 31.78125 34.625
Q 24.75 34.625 20.71875 30.859375
Q 16.703125 27.09375 16.703125 20.515625
Q 16.703125 13.921875 20.71875 10.15625
Q 24.75 6.390625 31.78125 6.390625
Q 38.8125 6.390625 42.859375 10.171875
Q 46.921875 13.96875 46.921875 20.515625
Q 46.921875 27.09375 42.890625 30.859375
Q 38.875 34.625 31.78125 34.625
z
M 21.921875 38.8125
Q 15.578125 40.375 12.03125 44.71875
Q 8.5 49.078125 8.5 55.328125
Q 8.5 64.0625 14.71875 69.140625
Q 20.953125 74.21875 31.78125 74.21875
Q 42.671875 74.21875 48.875 69.140625
Q 55.078125 64.0625 55.078125 55.328125
Q 55.078125 49.078125 51.53125 44.71875
Q 48 40.375 41.703125 38.8125
Q 48.828125 37.15625 52.796875 32.3125
Q 56.78125 27.484375 56.78125 20.515625
Q 56.78125 9.90625 50.3125 4.234375
Q 43.84375 -1.421875 31.78125 -1.421875
Q 19.734375 -1.421875 13.25 4.234375
Q 6.78125 9.90625 6.78125 20.515625
Q 6.78125 27.484375 10.78125 32.3125
Q 14.796875 37.15625 21.921875 38.8125
z
M 18.3125 54.390625
Q 18.3125 48.734375 21.84375 45.5625
Q 25.390625 42.390625 31.78125 42.390625
Q 38.140625 42.390625 41.71875 45.5625
Q 45.3125 48.734375 45.3125 54.390625
Q 45.3125 60.0625 41.71875 63.234375
Q 38.140625 66.40625 31.78125 66.40625
Q 25.390625 66.40625 21.84375 63.234375
Q 18.3125 60.0625 18.3125 54.390625
z
" id="DejaVuSans-56"/>
       </defs>
       <use xlink:href="#DejaVuSans-56"/>
       <use x="63.623047" xlink:href="#DejaVuSans-48"/>
       <use x="127.246094" xlink:href="#DejaVuSans-48"/>
       <use x="190.869141" xlink:href="#DejaVuSans-48"/>
       <use x="254.492188" xlink:href="#DejaVuSans-48"/>
      </g>
     </g>
    </g>
    <g id="ytick_6">
     <g id="line2d_17">
      <path clip-path="url(#p7c471921ab)" d="M 72 33.332727
L 518.4 33.332727
" style="fill:none;stroke:#b0b0b0;stroke-linecap:square;stroke-width:0.8;"/>
     </g>
     <g id="line2d_18">
      <g>
       <use style="fill:#696969;stroke:#696969;stroke-width:0.2;" x="72" xlink:href="#m508ed98b5d" y="33.332727"/>
      </g>
     </g>
     <g id="text_11">
      <!-- 100000 -->
      <g style="fill:#696969;" transform="translate(29.325 37.131946)scale(0.1 -0.1)">
       <use xlink:href="#DejaVuSans-49"/>
       <use x="63.623047" xlink:href="#DejaVuSans-48"/>
       <use x="127.246094" xlink:href="#DejaVuSans-48"/>
       <use x="190.869141" xlink:href="#DejaVuSans-48"/>
       <use x="254.492188" xlink:href="#DejaVuSans-48"/>
       <use x="318.115234" xlink:href="#DejaVuSans-48"/>
      </g>
     </g>
    </g>
    <g id="text_12">
     <!-- Rsto_l (s/m) -->
     <g style="fill:#696969;" transform="translate(22.967187 137.0975)rotate(-90)scale(0.1 -0.1)">
      <defs>
       <path d="M 44.390625 34.1875
Q 47.5625 33.109375 50.5625 29.59375
Q 53.5625 26.078125 56.59375 19.921875
L 66.609375 0
L 56 0
L 46.6875 18.703125
Q 43.0625 26.03125 39.671875 28.421875
Q 36.28125 30.8125 30.421875 30.8125
L 19.671875 30.8125
L 19.671875 0
L 9.8125 0
L 9.8125 72.90625
L 32.078125 72.90625
Q 44.578125 72.90625 50.734375 67.671875
Q 56.890625 62.453125 56.890625 51.90625
Q 56.890625 45.015625 53.6875 40.46875
Q 50.484375 35.9375 44.390625 34.1875
z
M 19.671875 64.796875
L 19.671875 38.921875
L 32.078125 38.921875
Q 39.203125 38.921875 42.84375 42.21875
Q 46.484375 45.515625 46.484375 51.90625
Q 46.484375 58.296875 42.84375 61.546875
Q 39.203125 64.796875 32.078125 64.796875
z
" id="DejaVuSans-82"/>
       <path d="M 18.3125 70.21875
L 18.3125 54.6875
L 36.8125 54.6875
L 36.8125 47.703125
L 18.3125 47.703125
L 18.3125 18.015625
Q 18.3125 11.328125 20.140625 9.421875
Q 21.96875 7.515625 27.59375 7.515625
L 36.8125 7.515625
L 36.8125 0
L 27.59375 0
Q 17.1875 0 13.234375 3.875
Q 9.28125 7.765625 9.28125 18.015625
L 9.28125 47.703125
L 2.6875 47.703125
L 2.6875 54.6875
L 9.28125 54.6875
L 9.28125 70.21875
z
" id="DejaVuSans-116"/>
       <path d="M 30.609375 48.390625
Q 23.390625 48.390625 19.1875 42.75
Q 14.984375 37.109375 14.984375 27.296875
Q 14.984375 17.484375 19.15625 11.84375
Q 23.34375 6.203125 30.609375 6.203125
Q 37.796875 6.203125 41.984375 11.859375
Q 46.1875 17.53125 46.1875 27.296875
Q 46.1875 37.015625 41.984375 42.703125
Q 37.796875 48.390625 30.609375 48.390625
z
M 30.609375 56
Q 42.328125 56 49.015625 48.375
Q 55.71875 40.765625 55.71875 27.296875
Q 55.71875 13.875 49.015625 6.21875
Q 42.328125 -1.421875 30.609375 -1.421875
Q 18.84375 -1.421875 12.171875 6.21875
Q 5.515625 13.875 5.515625 27.296875
Q 5.515625 40.765625 12.171875 48.375
Q 18.84375 56 30.609375 56
z
" id="DejaVuSans-111"/>
       <path d="M 50.984375 -16.609375
L 50.984375 -23.578125
L -0.984375 -23.578125
L -0.984375 -16.609375
z
" id="DejaVuSans-95"/>
       <path d="M 9.421875 75.984375
L 18.40625 75.984375
L 18.40625 0
L 9.421875 0
z
" id="DejaVuSans-108"/>
       <path id="DejaVuSans-32"/>
       <path d="M 31 75.875
Q 24.46875 64.65625 21.28125 53.65625
Q 18.109375 42.671875 18.109375 31.390625
Q 18.109375 20.125 21.3125 9.0625
Q 24.515625 -2 31 -13.1875
L 23.1875 -13.1875
Q 15.875 -1.703125 12.234375 9.375
Q 8.59375 20.453125 8.59375 31.390625
Q 8.59375 42.28125 12.203125 53.3125
Q 15.828125 64.359375 23.1875 75.875
z
" id="DejaVuSans-40"/>
       <path d="M 25.390625 72.90625
L 33.6875 72.90625
L 8.296875 -9.28125
L 0 -9.28125
z
" id="DejaVuSans-47"/>
       <path d="M 52 44.1875
Q 55.375 50.25 60.0625 53.125
Q 64.75 56 71.09375 56
Q 79.640625 56 84.28125 50.015625
Q 88.921875 44.046875 88.921875 33.015625
L 88.921875 0
L 79.890625 0
L 79.890625 32.71875
Q 79.890625 40.578125 77.09375 44.375
Q 74.3125 48.1875 68.609375 48.1875
Q 61.625 48.1875 57.5625 43.546875
Q 53.515625 38.921875 53.515625 30.90625
L 53.515625 0
L 44.484375 0
L 44.484375 32.71875
Q 44.484375 40.625 41.703125 44.40625
Q 38.921875 48.1875 33.109375 48.1875
Q 26.21875 48.1875 22.15625 43.53125
Q 18.109375 38.875 18.109375 30.90625
L 18.109375 0
L 9.078125 0
L 9.078125 54.6875
L 18.109375 54.6875
L 18.109375 46.1875
Q 21.1875 51.21875 25.484375 53.609375
Q 29.78125 56 35.6875 56
Q 41.65625 56 45.828125 52.96875
Q 50 49.953125 52 44.1875
z
" id="DejaVuSans-109"/>
       <path d="M 8.015625 75.875
L 15.828125 75.875
Q 23.140625 64.359375 26.78125 53.3125
Q 30.421875 42.28125 30.421875 31.390625
Q 30.421875 20.453125 26.78125 9.375
Q 23.140625 -1.703125 15.828125 -13.1875
L 8.015625 -13.1875
Q 14.5 -2 17.703125 9.0625
Q 20.90625 20.125 20.90625 31.390625
Q 20.90625 42.671875 17.703125 53.65625
Q 14.5 64.65625 8.015625 75.875
z
" id="DejaVuSans-41"/>
      </defs>
      <use xlink:href="#DejaVuSans-82"/>
      <use x="69.482422" xlink:href="#DejaVuSans-115"/>
      <use x="121.582031" xlink:href="#DejaVuSans-116"/>
      <use x="160.791016" xlink:href="#DejaVuSans-111"/>
      <use x="221.972656" xlink:href="#DejaVuSans-95"/>
      <use x="271.972656" xlink:href="#DejaVuSans-108"/>
      <use x="299.755859" xlink:href="#DejaVuSans-32"/>
      <use x="331.542969" xlink:href="#DejaVuSans-40"/>
      <use x="370.556641" xlink:href="#DejaVuSans-115"/>
      <use x="422.65625" xlink:href="#DejaVuSans-47"/>
      <use x="456.347656" xlink:href="#DejaVuSans-109"/>
      <use x="553.759766" xlink:href="#DejaVuSans-41"/>
     </g>
    </g>
   </g>
   <g id="line2d_19">
    <path clip-path="url(#p7c471921ab)" d="M 92.290909 180.738825
L 93.513867 180.815185
L 96.163609 181.555613
L 100.851614 181.544554
L 103.29753 181.498994
L 111.858235 181.559776
L 123.883987 181.566979
L 127.756687 181.456945
L 130.610255 180.632742
L 132.648518 180.735659
L 135.705913 181.582196
L 173.821433 181.528677
L 182.382138 181.533991
L 193.796411 181.561469
L 200.115027 181.545334
L 245.568294 181.447258
L 248.829515 181.231184
L 250.256299 181.129838
L 253.51752 180.700547
L 264.320314 180.643433
L 271.046582 180.633263
L 310.181234 180.421661
L 319.964897 180.103387
L 327.302644 179.838563
L 331.175344 179.648768
L 340.143701 179.494603
L 355.838327 178.55217
L 361.545464 177.947814
L 363.583727 177.700943
L 366.029642 177.414539
L 379.074526 175.018045
L 381.928095 173.938439
L 384.781663 172.607948
L 386.6161 171.868441
L 387.431405 171.387967
L 390.896452 168.601244
L 395.380631 163.207818
L 397.215068 156.500658
L 399.253331 147.557594
L 400.272462 143.51407
L 403.329857 74.47597
L 405.164294 33.332727
L 498.109091 33.332727
L 498.109091 33.332727
" style="fill:none;stroke:#2ca02c;stroke-linecap:square;stroke-width:0.8;"/>
   </g>
   <g id="patch_3">
    <path d="M 72 189
L 72 25.92
" style="fill:none;"/>
   </g>
   <g id="patch_4">
    <path d="M 518.4 189
L 518.4 25.92
" style="fill:none;"/>
   </g>
   <g id="patch_5">
    <path d="M 72 189
L 518.4 189
" style="fill:none;"/>
   </g>
   <g id="patch_6">
    <path d="M 72 25.92
L 518.4 25.92
" style="fill:none;"/>
   </g>
   <g id="line2d_20">
    <path clip-path="url(#p7c471921ab)" d="M 92.290909 180.738825
L 93.513867 180.815185
L 96.163609 181.555613
L 100.851614 181.544554
L 103.29753 181.498994
L 111.858235 181.559776
L 123.883987 181.566979
L 127.756687 181.456945
L 130.610255 180.632742
L 132.648518 180.735659
L 135.705913 181.582196
L 173.821433 181.528677
L 182.382138 181.533991
L 193.796411 181.561469
L 200.115027 181.545334
L 245.364467 181.445875
L 248.829515 181.197548
L 250.460125 181.070294
L 253.313693 180.700256
L 285.110598 180.634657
L 309.977407 180.429621
L 322.410812 180.054597
L 327.302644 179.838563
L 331.175344 179.648768
L 340.143701 179.494603
L 355.838327 178.55217
L 361.545464 177.947814
L 363.583727 177.700943
L 366.029642 177.414539
L 379.074526 175.018045
L 381.928095 173.938439
L 384.781663 172.607948
L 386.6161 171.868441
L 387.431405 171.387967
L 390.896452 168.601244
L 395.380631 163.207818
L 397.215068 156.500658
L 399.253331 147.557594
L 400.272462 143.51407
L 403.329857 74.47597
L 405.164294 33.332727
L 498.109091 33.332727
L 498.109091 33.332727
" style="fill:none;stroke:#d62728;stroke-linecap:square;stroke-width:0.8;"/>
   </g>
   <g id="line2d_21">
    <path clip-path="url(#p7c471921ab)" d="M 92.290909 180.738825
L 93.513867 180.815185
L 96.163609 181.555613
L 100.851614 181.544554
L 103.29753 181.498994
L 111.858235 181.559776
L 123.883987 181.566979
L 127.756687 181.456945
L 130.610255 180.632742
L 132.648518 180.735659
L 135.705913 181.582196
L 173.821433 181.528677
L 182.382138 181.533991
L 193.796411 181.561469
L 200.115027 181.545334
L 241.491767 181.432329
L 247.606557 181.147042
L 249.033341 181.116452
L 250.460125 181.009896
L 253.51752 180.700547
L 264.320314 180.643433
L 271.046582 180.633263
L 310.181234 180.421661
L 319.964897 180.103387
L 327.302644 179.838563
L 331.175344 179.648768
L 340.143701 179.494603
L 355.838327 178.55217
L 361.545464 177.947814
L 363.583727 177.700943
L 366.029642 177.414539
L 379.074526 175.018045
L 381.928095 173.938439
L 384.781663 172.607948
L 386.6161 171.868441
L 387.431405 171.387967
L 390.896452 168.601244
L 395.380631 163.207818
L 397.215068 156.500658
L 399.253331 147.557594
L 400.272462 143.51407
L 403.329857 74.47597
L 405.164294 33.332727
L 498.109091 33.332727
L 498.109091 33.332727
" style="fill:none;stroke:#9467bd;stroke-linecap:square;stroke-width:0.8;"/>
   </g>
   <g id="legend_1">
    <g id="patch_7">
     <path d="M 79 107.310625
L 139.589063 107.310625
Q 141.589063 107.310625 141.589063 105.310625
L 141.589063 32.92
Q 141.589063 30.92 139.589063 30.92
L 79 30.92
Q 77 30.92 77 32.92
L 77 105.310625
Q 77 107.310625 79 107.310625
z
" style="fill:#ffffff;opacity:0.8;stroke:#cccccc;stroke-linejoin:miter;"/>
    </g>
    <g id="line2d_22">
     <path d="M 81 39.018438
L 101 39.018438
" style="fill:none;stroke:#1f77b4;stroke-linecap:square;stroke-width:0.8;"/>
    </g>
    <g id="line2d_23"/>
    <g id="text_13">
     <!-- 0% -->
     <g style="fill:#696969;" transform="translate(109 42.518438)scale(0.1 -0.1)">
      <defs>
       <path d="M 72.703125 32.078125
Q 68.453125 32.078125 66.03125 28.46875
Q 63.625 24.859375 63.625 18.40625
Q 63.625 12.0625 66.03125 8.421875
Q 68.453125 4.78125 72.703125 4.78125
Q 76.859375 4.78125 79.265625 8.421875
Q 81.6875 12.0625 81.6875 18.40625
Q 81.6875 24.8125 79.265625 28.4375
Q 76.859375 32.078125 72.703125 32.078125
z
M 72.703125 38.28125
Q 80.421875 38.28125 84.953125 32.90625
Q 89.5 27.546875 89.5 18.40625
Q 89.5 9.28125 84.9375 3.921875
Q 80.375 -1.421875 72.703125 -1.421875
Q 64.890625 -1.421875 60.34375 3.921875
Q 55.8125 9.28125 55.8125 18.40625
Q 55.8125 27.59375 60.375 32.9375
Q 64.9375 38.28125 72.703125 38.28125
z
M 22.3125 68.015625
Q 18.109375 68.015625 15.6875 64.375
Q 13.28125 60.75 13.28125 54.390625
Q 13.28125 47.953125 15.671875 44.328125
Q 18.0625 40.71875 22.3125 40.71875
Q 26.5625 40.71875 28.96875 44.328125
Q 31.390625 47.953125 31.390625 54.390625
Q 31.390625 60.6875 28.953125 64.34375
Q 26.515625 68.015625 22.3125 68.015625
z
M 66.40625 74.21875
L 74.21875 74.21875
L 28.609375 -1.421875
L 20.796875 -1.421875
z
M 22.3125 74.21875
Q 30.03125 74.21875 34.609375 68.875
Q 39.203125 63.53125 39.203125 54.390625
Q 39.203125 45.171875 34.640625 39.84375
Q 30.078125 34.515625 22.3125 34.515625
Q 14.546875 34.515625 10.03125 39.859375
Q 5.515625 45.21875 5.515625 54.390625
Q 5.515625 63.484375 10.046875 68.84375
Q 14.59375 74.21875 22.3125 74.21875
z
" id="DejaVuSans-37"/>
      </defs>
      <use xlink:href="#DejaVuSans-48"/>
      <use x="63.623047" xlink:href="#DejaVuSans-37"/>
     </g>
    </g>
    <g id="line2d_24">
     <path d="M 81 53.696562
L 101 53.696562
" style="fill:none;stroke:#ff7f0e;stroke-linecap:square;stroke-width:0.8;"/>
    </g>
    <g id="line2d_25"/>
    <g id="text_14">
     <!-- 10% -->
     <g style="fill:#696969;" transform="translate(109 57.196562)scale(0.1 -0.1)">
      <use xlink:href="#DejaVuSans-49"/>
      <use x="63.623047" xlink:href="#DejaVuSans-48"/>
      <use x="127.246094" xlink:href="#DejaVuSans-37"/>
     </g>
    </g>
    <g id="line2d_26">
     <path d="M 81 68.374687
L 101 68.374687
" style="fill:none;stroke:#2ca02c;stroke-linecap:square;stroke-width:0.8;"/>
    </g>
    <g id="line2d_27"/>
    <g id="text_15">
     <!-- 60% -->
     <g style="fill:#696969;" transform="translate(109 71.874687)scale(0.1 -0.1)">
      <use xlink:href="#DejaVuSans-54"/>
      <use x="63.623047" xlink:href="#DejaVuSans-48"/>
      <use x="127.246094" xlink:href="#DejaVuSans-37"/>
     </g>
    </g>
    <g id="line2d_28">
     <path d="M 81 83.052813
L 101 83.052813
" style="fill:none;stroke:#d62728;stroke-linecap:square;stroke-width:0.8;"/>
    </g>
    <g id="line2d_29"/>
    <g id="text_16">
     <!-- 100% -->
     <g style="fill:#696969;" transform="translate(109 86.552813)scale(0.1 -0.1)">
      <use xlink:href="#DejaVuSans-49"/>
      <use x="63.623047" xlink:href="#DejaVuSans-48"/>
      <use x="127.246094" xlink:href="#DejaVuSans-48"/>
      <use x="190.869141" xlink:href="#DejaVuSans-37"/>
     </g>
    </g>
    <g id="line2d_30">
     <path d="M 81 97.730938
L 101 97.730938
" style="fill:none;stroke:#9467bd;stroke-linecap:square;stroke-width:0.8;"/>
    </g>
    <g id="line2d_31"/>
    <g id="text_17">
     <!-- 200% -->
     <g style="fill:#696969;" transform="translate(109 101.230938)scale(0.1 -0.1)">
      <use xlink:href="#DejaVuSans-50"/>
      <use x="63.623047" xlink:href="#DejaVuSans-48"/>
      <use x="127.246094" xlink:href="#DejaVuSans-48"/>
      <use x="190.869141" xlink:href="#DejaVuSans-37"/>
     </g>
    </g>
   </g>
  </g>
  <g id="text_18">
   <!-- rsto_l -->
   <g style="fill:#696969;" transform="translate(271.7175 13.438125)scale(0.12 -0.12)">
    <defs>
     <path d="M 41.109375 46.296875
Q 39.59375 47.171875 37.8125 47.578125
Q 36.03125 48 33.890625 48
Q 26.265625 48 22.1875 43.046875
Q 18.109375 38.09375 18.109375 28.8125
L 18.109375 0
L 9.078125 0
L 9.078125 54.6875
L 18.109375 54.6875
L 18.109375 46.1875
Q 20.953125 51.171875 25.484375 53.578125
Q 30.03125 56 36.53125 56
Q 37.453125 56 38.578125 55.875
Q 39.703125 55.765625 41.0625 55.515625
z
" id="DejaVuSans-114"/>
    </defs>
    <use xlink:href="#DejaVuSans-114"/>
    <use x="41.113281" xlink:href="#DejaVuSans-115"/>
    <use x="93.212891" xlink:href="#DejaVuSans-116"/>
    <use x="132.421875" xlink:href="#DejaVuSans-111"/>
    <use x="193.603516" xlink:href="#DejaVuSans-95"/>
    <use x="243.603516" xlink:href="#DejaVuSans-108"/>
   </g>
  </g>
 </g>
 <defs>
  <clipPath id="p7c471921ab">
   <rect height="163.08" width="446.4" x="72" y="25.92"/>
  </clipPath>
 </defs>
</svg>
