<?xml version="1.0" encoding="utf-8" standalone="no"?>
<!DOCTYPE svg PUBLIC "-//W3C//DTD SVG 1.1//EN"
  "http://www.w3.org/Graphics/SVG/1.1/DTD/svg11.dtd">
<!-- Created with matplotlib (https://matplotlib.org/) -->
<svg height="216pt" version="1.1" viewBox="0 0 576 216" width="576pt" xmlns="http://www.w3.org/2000/svg" xmlns:xlink="http://www.w3.org/1999/xlink">
 <metadata>
  <rdf:RDF xmlns:cc="http://creativecommons.org/ns#" xmlns:dc="http://purl.org/dc/elements/1.1/" xmlns:rdf="http://www.w3.org/1999/02/22-rdf-syntax-ns#">
   <cc:Work>
    <dc:type rdf:resource="http://purl.org/dc/dcmitype/StillImage"/>
    <dc:date>2020-11-03T11:22:57.168365</dc:date>
    <dc:format>image/svg+xml</dc:format>
    <dc:creator>
     <cc:Agent>
      <dc:title>Matplotlib v3.3.2, https://matplotlib.org/</dc:title>
     </cc:Agent>
    </dc:creator>
   </cc:Work>
  </rdf:RDF>
 </metadata>
 <defs>
  <style type="text/css">*{stroke-linecap:butt;stroke-linejoin:round;}</style>
 </defs>
 <g id="figure_1">
  <g id="patch_1">
   <path d="M 0 216
L 576 216
L 576 0
L 0 0
z
" style="fill:none;"/>
  </g>
  <g id="axes_1">
   <g id="patch_2">
    <path d="M 72 189
L 518.4 189
L 518.4 25.92
L 72 25.92
z
" style="fill:none;"/>
   </g>
   <g id="line2d_1">
    <path clip-path="url(#p04a8bb5f66)" d="M 92.290909 74.841225
L 92.774314 74.04015
L 93.257718 73.771731
L 93.499421 73.846925
L 93.741123 73.050682
L 93.982825 73.185038
L 94.224528 72.923144
L 94.949635 70.753286
L 95.674741 67.671583
L 96.158146 66.056899
L 96.399848 65.199893
L 96.641551 65.512377
L 97.124955 63.580698
L 97.366658 63.672017
L 97.60836 63.406069
L 98.091765 63.161186
L 98.333467 63.702662
L 98.816872 63.970785
L 99.300276 63.896131
L 99.541978 64.462627
L 99.783681 64.663513
L 100.508788 65.567069
L 101.233895 66.253668
L 101.475597 66.44383
L 101.717299 66.355565
L 102.200704 66.456985
L 102.442406 65.911861
L 102.684109 65.784181
L 102.925811 65.341112
L 103.650918 63.177955
L 103.89262 63.114397
L 104.376025 62.321322
L 105.826239 62.315281
L 107.03475 62.454988
L 108.243262 62.532921
L 109.451773 62.400305
L 109.693476 62.655543
L 110.17688 62.898985
L 110.901987 63.882607
L 111.143689 63.713143
L 111.385392 63.819888
L 111.627094 63.602228
L 113.560713 57.601334
L 115.494331 51.217924
L 116.702843 48.387335
L 116.944545 48.919022
L 117.186247 48.796159
L 117.42795 49.202153
L 118.878163 55.4618
L 120.811782 66.317473
L 121.536889 69.468335
L 122.503698 73.595878
L 122.7454 73.743689
L 123.228805 74.734652
L 123.470507 75.250627
L 123.953912 75.894779
L 124.679019 77.824208
L 124.920721 77.95898
L 125.404126 78.804565
L 125.645828 78.651669
L 125.88753 78.855397
L 126.129233 78.763851
L 127.579447 76.582539
L 128.062851 75.088219
L 128.787958 73.385279
L 129.029661 72.875734
L 129.513065 71.308736
L 129.99647 69.46041
L 131.204981 64.764482
L 131.446684 64.396067
L 132.171791 62.188117
L 133.380302 59.403977
L 134.347111 57.964475
L 136.039028 56.357305
L 136.28073 56.149684
L 136.764134 55.967945
L 137.005837 55.870371
L 137.489241 56.099005
L 137.730944 56.381702
L 138.214348 57.6911
L 138.697753 59.271682
L 139.906265 63.726762
L 140.147967 62.958882
L 140.389669 63.114063
L 140.631371 62.778535
L 141.356478 60.689742
L 143.048395 55.780821
L 144.740311 49.2796
L 146.190525 45.205774
L 146.432227 44.714785
L 146.673929 44.789716
L 147.157334 44.458388
L 147.640739 44.742879
L 147.882441 44.869815
L 148.365845 44.765904
L 148.607548 44.770064
L 148.84925 44.41499
L 149.090952 44.319088
L 149.332655 43.604143
L 150.782869 36.444913
L 151.507976 33.534809
L 151.749678 33.71233
L 151.99138 33.41178
L 152.474785 33.340904
L 152.958189 33.562883
L 153.683296 33.332727
L 154.166701 33.466933
L 154.650106 33.606918
L 154.891808 33.782932
L 156.583724 36.693242
L 157.067129 38.193821
L 157.308831 38.868087
L 157.550533 39.135441
L 158.033938 40.040162
L 158.27564 40.021664
L 158.759045 40.189618
L 159.725854 40.083887
L 160.209259 40.152425
L 160.450961 40.346404
L 160.934366 40.402624
L 161.41777 41.372808
L 162.38458 43.259396
L 162.626282 43.414354
L 163.109687 43.961614
L 163.834793 43.467243
L 164.076496 43.530506
L 164.5599 43.390083
L 165.043305 43.738287
L 165.285007 43.825662
L 166.010114 43.620991
L 166.251817 43.305076
L 166.493519 43.262849
L 166.976923 42.501033
L 167.460328 41.514428
L 167.70203 41.429868
L 168.185435 40.926417
L 168.66884 40.626729
L 169.393947 40.19171
L 169.635649 39.965464
L 169.877351 39.936486
L 170.602458 39.558604
L 171.085863 39.58017
L 172.536077 40.665249
L 172.777779 40.314229
L 173.019481 40.278276
L 173.261184 40.085782
L 173.986291 38.542812
L 174.711397 37.321996
L 174.9531 37.574041
L 175.194802 37.650649
L 175.436504 37.945939
L 175.678207 38.004172
L 176.161611 38.455868
L 176.645016 38.528088
L 178.09523 38.301552
L 178.336932 38.219226
L 178.578634 38.716047
L 179.062039 39.29264
L 179.787146 41.238296
L 180.028848 41.630674
L 180.512253 42.58044
L 180.753955 42.207554
L 180.995658 42.079371
L 181.23736 41.706771
L 181.479062 41.693014
L 181.962467 41.201231
L 183.170978 41.337842
L 184.621192 40.970287
L 185.104597 40.695592
L 185.588002 40.367634
L 185.829704 40.483054
L 186.313108 40.411202
L 186.796513 40.765648
L 187.038215 41.029115
L 187.279918 40.916175
L 187.52162 41.040779
L 187.763322 41.037218
L 188.488429 40.245909
L 188.730132 40.225294
L 189.213536 39.916182
L 189.696941 40.520547
L 190.905452 44.718339
L 191.630559 46.924321
L 192.113964 48.076182
L 192.355666 48.122729
L 193.322475 49.048806
L 193.564178 49.176551
L 194.530987 50.986685
L 195.014392 52.210067
L 195.497796 52.942298
L 195.739499 53.426101
L 195.981201 53.158294
L 196.222903 53.273331
L 196.464606 53.197129
L 197.914819 50.016241
L 198.156522 50.439568
L 198.398224 50.313013
L 198.881629 50.473332
L 199.365033 51.16773
L 199.606736 51.021902
L 200.09014 51.004034
L 200.331843 50.833604
L 200.573545 50.416895
L 200.815247 50.367803
L 201.782056 48.889376
L 202.265461 47.745625
L 202.507163 47.579566
L 202.990568 46.904745
L 203.715675 46.472904
L 204.440782 45.35565
L 204.682484 45.104929
L 205.165889 44.328313
L 205.649293 43.901626
L 206.3744 43.032202
L 206.616103 42.713804
L 206.857805 42.742869
L 207.34121 42.282805
L 207.824614 43.191355
L 208.066317 43.652038
L 208.308019 43.824851
L 209.274828 45.411634
L 209.51653 45.708483
L 209.758233 45.616367
L 210.241637 46.010336
L 210.48334 46.103184
L 211.450149 45.972131
L 212.416958 46.114017
L 213.142065 45.065755
L 213.867172 43.12278
L 214.108874 42.825345
L 214.592279 41.866318
L 215.317386 40.910974
L 215.559088 40.973256
L 216.284195 40.689436
L 216.7676 40.929285
L 218.217814 40.698416
L 218.942921 42.069675
L 219.184623 42.468166
L 219.668028 43.608052
L 220.393134 44.756122
L 220.876539 45.945431
L 221.118241 46.382654
L 221.601646 48.253737
L 221.843348 49.179254
L 222.085051 49.415152
L 222.568455 50.723765
L 222.810158 50.78061
L 224.018669 52.154436
L 224.502074 52.977785
L 226.19399 58.820491
L 226.435692 59.18118
L 226.919097 60.132731
L 227.160799 59.358705
L 227.402501 59.28786
L 228.127608 57.97574
L 228.369311 57.454957
L 228.611013 57.325639
L 229.33612 56.488255
L 229.819525 55.980056
L 230.302929 54.976152
L 231.269738 51.791993
L 232.719952 48.622524
L 233.445059 47.885149
L 233.686762 47.994827
L 234.170166 47.852914
L 234.895273 48.560451
L 235.136975 48.616497
L 235.62038 48.974048
L 235.862082 48.648374
L 236.103785 48.524923
L 236.828892 46.698178
L 237.553999 45.245126
L 237.795701 44.806655
L 238.279106 43.594432
L 239.245915 41.515608
L 239.487617 41.752584
L 239.971022 41.468557
L 240.696129 41.664373
L 241.179533 41.694064
L 241.421236 41.717865
L 242.629747 40.885084
L 243.113152 40.603128
L 243.596556 40.343517
L 244.079961 40.431849
L 244.563366 40.569878
L 245.04677 40.915325
L 245.288473 40.632586
L 245.771877 40.563296
L 246.496984 39.900588
L 246.738686 39.85057
L 247.222091 39.56579
L 247.947198 40.591003
L 248.672305 41.891773
L 249.397412 43.37579
L 249.880817 45.159751
L 250.122519 45.85927
L 250.605923 48.443115
L 250.847626 49.75558
L 251.089328 50.143406
L 251.572733 52.243565
L 251.814435 52.217615
L 252.539542 52.8877
L 253.022947 53.19156
L 253.748053 56.210258
L 255.198267 64.410148
L 255.43997 64.834697
L 255.923374 66.245411
L 256.165077 65.519009
L 256.406779 65.505116
L 256.648481 65.141569
L 256.890184 65.419898
L 257.131886 65.027058
L 257.373588 64.974137
L 257.61529 65.976281
L 258.098695 67.240314
L 258.823802 70.712467
L 259.065504 71.258364
L 259.548909 73.548796
L 259.790611 73.476718
L 260.032314 73.894689
L 260.274016 74.061539
L 260.515718 73.508776
L 260.757421 73.271531
L 261.240825 72.337309
L 261.72423 71.284584
L 261.965932 71.936476
L 262.207634 71.914072
L 262.691039 72.54572
L 263.174444 73.572253
L 263.416146 73.090786
L 263.657848 73.169003
L 263.899551 72.950477
L 264.624658 71.158451
L 264.86636 70.883151
L 265.349764 69.69718
L 265.591467 69.554854
L 266.074871 69.039069
L 266.316574 69.230011
L 266.799978 69.285373
L 267.525085 70.124234
L 267.766788 70.033633
L 268.250192 70.148346
L 268.733597 69.441537
L 269.700406 67.794425
L 270.425513 66.331927
L 270.667215 65.998656
L 271.15062 64.824872
L 271.392322 64.822985
L 271.875727 64.37517
L 272.117429 64.118143
L 272.600834 63.84764
L 273.084238 62.990083
L 273.325941 62.608955
L 274.776155 57.063915
L 275.017857 56.842058
L 275.501262 55.956061
L 276.951475 55.193267
L 277.43488 53.917146
L 277.918285 52.342054
L 279.126796 48.338565
L 279.368499 49.035986
L 279.610201 49.177039
L 280.093606 50.764617
L 280.818712 53.635572
L 281.543819 55.86997
L 282.027224 57.137451
L 282.268926 57.237167
L 282.752331 57.797615
L 283.235736 57.923157
L 283.71914 58.124877
L 284.685949 58.516162
L 284.927652 58.560014
L 285.169354 58.064246
L 285.411056 57.949846
L 287.102973 55.472342
L 287.586377 54.99016
L 287.828079 54.739597
L 288.069782 54.69018
L 288.553186 54.369435
L 288.794889 54.616559
L 289.278293 54.827678
L 290.245103 55.882199
L 290.728507 56.37223
L 290.97021 56.278966
L 291.453614 56.360277
L 291.695316 55.91211
L 291.937019 55.768641
L 292.420423 55.054896
L 295.079149 50.753438
L 295.320851 50.950021
L 295.804256 51.106219
L 297.25447 52.355271
L 299.42979 54.287013
L 299.913195 54.483435
L 300.154897 54.47391
L 300.880004 54.766733
L 303.53873 59.975753
L 304.022134 61.047407
L 305.230646 63.75861
L 305.472348 63.82631
L 305.714051 64.168108
L 306.197455 64.095039
L 306.68086 63.879819
L 308.856181 64.541429
L 309.097883 65.152195
L 309.339585 65.434452
L 309.581288 65.891502
L 311.031501 70.174074
L 311.998311 72.512619
L 313.206822 75.367798
L 315.140441 78.952678
L 317.799166 84.87131
L 319.491082 87.709291
L 319.732785 88.044665
L 320.216189 89.11617
L 320.941296 90.851357
L 321.908105 93.108863
L 323.116617 96.436901
L 323.358319 97.567315
L 323.600022 98.051774
L 324.083426 99.580223
L 324.566831 100.286386
L 325.291938 101.186059
L 325.53364 101.428443
L 327.950663 106.447183
L 328.917473 108.284653
L 331.092793 114.686581
L 332.059603 117.040733
L 333.268114 120.043607
L 334.476626 123.540687
L 335.92684 127.04332
L 336.893649 129.360339
L 337.618756 130.708621
L 337.860458 131.099993
L 339.310672 134.621276
L 341.485993 139.530797
L 342.936207 142.30809
L 344.628123 146.459656
L 346.320039 150.618678
L 347.286848 153.767809
L 350.187276 160.944136
L 351.63749 164.256686
L 352.362597 166.404647
L 353.812811 170.254612
L 356.954941 176.972408
L 358.405155 180.337449
L 358.888559 181.587273
L 498.109091 181.587273
L 498.109091 181.587273
" style="fill:none;stroke:#1f77b4;stroke-linecap:square;stroke-width:0.8;"/>
   </g>
   <g id="line2d_2">
    <path clip-path="url(#p04a8bb5f66)" d="M 92.290909 74.841225
L 92.774314 74.04015
L 93.257718 73.771731
L 93.499421 73.846925
L 93.741123 73.050682
L 93.982825 73.185038
L 94.224528 72.923144
L 94.949635 70.753286
L 95.674741 67.671583
L 96.158146 66.056899
L 96.399848 65.199893
L 96.641551 65.512377
L 97.124955 63.580698
L 97.366658 63.672017
L 97.60836 63.406069
L 98.091765 63.161186
L 98.333467 63.702662
L 98.816872 63.970785
L 99.300276 63.896131
L 99.541978 64.462627
L 99.783681 64.663513
L 100.508788 65.567069
L 101.233895 66.253668
L 101.475597 66.44383
L 101.717299 66.355565
L 102.200704 66.456985
L 102.442406 65.911861
L 102.684109 65.784181
L 102.925811 65.341112
L 103.650918 63.177955
L 103.89262 63.114397
L 104.376025 62.321322
L 105.826239 62.315281
L 107.03475 62.454988
L 108.243262 62.532921
L 109.451773 62.400305
L 109.693476 62.655543
L 110.17688 62.898985
L 110.901987 63.882607
L 111.143689 63.713143
L 111.385392 63.819888
L 111.627094 63.602228
L 113.560713 57.601334
L 115.494331 51.217924
L 116.702843 48.387335
L 116.944545 48.919022
L 117.186247 48.796159
L 117.42795 49.202153
L 118.878163 55.4618
L 120.811782 66.317473
L 121.536889 69.468335
L 122.503698 73.595878
L 122.7454 73.743689
L 123.228805 74.734652
L 123.470507 75.250627
L 123.953912 75.894779
L 124.679019 77.824208
L 124.920721 77.95898
L 125.404126 78.804565
L 125.645828 78.651669
L 125.88753 78.855397
L 126.129233 78.763851
L 127.579447 76.582539
L 128.062851 75.088219
L 128.787958 73.385279
L 129.029661 72.875734
L 129.513065 71.308736
L 129.99647 69.46041
L 131.204981 64.764482
L 131.446684 64.396067
L 132.171791 62.188117
L 133.380302 59.403977
L 134.347111 57.964475
L 136.039028 56.357305
L 136.28073 56.149684
L 136.764134 55.967945
L 137.005837 55.870371
L 137.489241 56.099005
L 137.730944 56.381702
L 138.214348 57.6911
L 138.697753 59.271682
L 139.906265 63.726762
L 140.147967 62.958882
L 140.389669 63.114063
L 140.631371 62.778535
L 141.356478 60.689742
L 143.048395 55.780821
L 144.740311 49.2796
L 146.190525 45.205774
L 146.432227 44.714785
L 146.673929 44.789716
L 147.157334 44.458388
L 147.640739 44.742879
L 147.882441 44.869815
L 148.365845 44.765904
L 148.607548 44.770064
L 148.84925 44.41499
L 149.090952 44.319088
L 149.332655 43.604143
L 150.782869 36.444913
L 151.507976 33.534809
L 151.749678 33.71233
L 151.99138 33.41178
L 152.474785 33.340904
L 152.958189 33.562883
L 153.683296 33.332727
L 154.166701 33.466933
L 154.650106 33.606918
L 154.891808 33.782932
L 156.583724 36.693242
L 157.067129 38.193821
L 157.308831 38.868087
L 157.550533 39.135441
L 158.033938 40.040162
L 158.27564 40.021664
L 158.759045 40.189618
L 159.725854 40.083887
L 160.209259 40.152425
L 160.450961 40.346404
L 160.934366 40.402624
L 161.41777 41.372808
L 162.38458 43.259396
L 162.626282 43.414354
L 163.109687 43.961614
L 163.834793 43.467243
L 164.076496 43.530506
L 164.5599 43.390083
L 165.043305 43.738287
L 165.285007 43.825662
L 166.010114 43.620991
L 166.251817 43.305076
L 166.493519 43.262849
L 166.976923 42.501033
L 167.460328 41.514428
L 167.70203 41.429868
L 168.185435 40.926417
L 168.66884 40.626729
L 169.393947 40.19171
L 169.635649 39.965464
L 169.877351 39.936486
L 170.602458 39.558604
L 171.085863 39.58017
L 172.536077 40.665249
L 172.777779 40.314229
L 173.019481 40.278276
L 173.261184 40.085782
L 173.986291 38.542812
L 174.711397 37.321996
L 174.9531 37.574041
L 175.194802 37.650649
L 175.436504 37.945939
L 175.678207 38.004172
L 176.161611 38.455868
L 176.645016 38.528088
L 178.09523 38.301552
L 178.336932 38.219226
L 178.578634 38.716047
L 179.062039 39.29264
L 179.787146 41.238296
L 180.028848 41.630674
L 180.512253 42.58044
L 180.753955 42.207554
L 180.995658 42.079371
L 181.23736 41.706771
L 181.479062 41.693014
L 181.962467 41.201231
L 183.170978 41.337842
L 184.621192 40.970287
L 185.104597 40.695592
L 185.588002 40.367634
L 185.829704 40.483054
L 186.313108 40.411202
L 186.796513 40.765648
L 187.038215 41.029115
L 187.279918 40.916175
L 187.52162 41.040779
L 187.763322 41.037218
L 188.488429 40.245909
L 188.730132 40.225294
L 189.213536 39.916182
L 189.696941 40.520547
L 190.905452 44.718339
L 191.630559 46.924321
L 192.113964 48.076182
L 192.355666 48.122729
L 193.322475 49.048806
L 193.564178 49.176551
L 194.530987 50.986685
L 195.014392 52.210067
L 195.497796 52.942298
L 195.739499 53.426101
L 195.981201 53.158294
L 196.222903 53.273331
L 196.464606 53.197129
L 197.914819 50.016241
L 198.156522 50.439568
L 198.398224 50.313013
L 198.881629 50.473332
L 199.365033 51.16773
L 199.606736 51.021902
L 200.09014 51.004034
L 200.331843 50.833604
L 200.573545 50.416895
L 200.815247 50.367803
L 201.782056 48.889376
L 202.265461 47.745625
L 202.507163 47.579566
L 202.990568 46.904745
L 203.715675 46.472904
L 204.440782 45.35565
L 204.682484 45.104929
L 205.165889 44.328313
L 205.649293 43.901626
L 206.3744 43.032202
L 206.616103 42.713804
L 206.857805 42.742869
L 207.34121 42.282805
L 207.824614 43.191355
L 208.066317 43.652038
L 208.308019 43.824851
L 209.274828 45.411634
L 209.51653 45.708483
L 209.758233 45.616367
L 210.241637 46.010336
L 210.48334 46.103184
L 211.450149 45.972131
L 212.416958 46.114017
L 213.142065 45.065755
L 213.867172 43.12278
L 214.108874 42.825345
L 214.592279 41.866318
L 215.317386 40.910974
L 215.559088 40.973256
L 216.284195 40.689436
L 216.7676 40.929285
L 218.217814 40.698416
L 218.942921 42.069675
L 219.184623 42.468166
L 219.668028 43.608052
L 220.393134 44.756122
L 220.876539 45.945431
L 221.118241 46.382654
L 221.601646 48.253737
L 221.843348 49.179254
L 222.085051 49.415152
L 222.568455 50.723765
L 222.810158 50.78061
L 224.018669 52.154436
L 224.502074 52.977785
L 226.19399 58.820491
L 226.435692 59.18118
L 226.919097 60.132731
L 227.160799 59.358705
L 227.402501 59.28786
L 228.127608 57.97574
L 228.369311 57.454957
L 228.611013 57.325639
L 229.33612 56.488255
L 229.819525 55.980056
L 230.302929 54.976152
L 231.269738 51.791993
L 232.719952 48.622524
L 233.445059 47.885149
L 233.686762 47.994827
L 234.170166 47.852914
L 234.895273 48.560451
L 235.136975 48.616497
L 235.62038 48.974048
L 235.862082 48.648374
L 236.103785 48.524923
L 236.828892 46.698178
L 237.553999 45.245126
L 237.795701 44.806655
L 238.279106 43.594432
L 239.245915 41.515608
L 239.487617 41.752584
L 239.971022 41.468557
L 240.696129 41.664373
L 241.179533 41.694064
L 241.421236 41.717865
L 242.629747 40.885084
L 243.113152 40.603128
L 243.596556 40.343517
L 244.079961 40.431849
L 244.563366 40.569878
L 245.04677 40.915325
L 245.288473 40.632586
L 245.771877 40.563296
L 246.496984 39.900588
L 246.738686 39.85057
L 247.222091 39.56579
L 247.947198 40.591003
L 248.672305 41.891773
L 249.397412 43.37579
L 249.880817 45.159751
L 250.122519 45.85927
L 250.605923 48.443115
L 250.847626 49.75558
L 251.089328 50.143406
L 251.572733 52.243565
L 251.814435 52.217615
L 252.539542 52.8877
L 253.022947 53.19156
L 253.748053 56.210258
L 255.198267 64.410148
L 255.43997 64.834697
L 255.923374 66.245411
L 256.165077 65.519009
L 256.406779 65.505116
L 256.648481 65.141569
L 256.890184 65.419898
L 257.131886 65.027058
L 257.373588 64.974137
L 257.61529 65.976281
L 258.098695 67.240314
L 258.823802 70.712467
L 259.065504 71.258364
L 259.548909 73.548796
L 259.790611 73.476718
L 260.032314 73.894689
L 260.274016 74.061539
L 260.515718 73.508776
L 260.757421 73.271531
L 261.240825 72.337309
L 261.72423 71.284584
L 261.965932 71.936476
L 262.207634 71.914072
L 262.691039 72.54572
L 263.174444 73.572253
L 263.416146 73.090786
L 263.657848 73.169003
L 263.899551 72.950477
L 264.624658 71.158451
L 264.86636 70.883151
L 265.349764 69.69718
L 265.591467 69.554854
L 266.074871 69.039069
L 266.316574 69.230011
L 266.799978 69.285373
L 267.525085 70.124234
L 267.766788 70.033633
L 268.250192 70.148346
L 268.733597 69.441537
L 269.700406 67.794425
L 270.425513 66.331927
L 270.667215 65.998656
L 271.15062 64.824872
L 271.392322 64.822985
L 271.875727 64.37517
L 272.117429 64.118143
L 272.600834 63.84764
L 273.084238 62.990083
L 273.325941 62.608955
L 274.776155 57.063915
L 275.017857 56.842058
L 275.501262 55.956061
L 276.951475 55.193267
L 277.43488 53.917146
L 277.918285 52.342054
L 279.126796 48.338565
L 279.368499 49.035986
L 279.610201 49.177039
L 280.093606 50.764617
L 280.818712 53.635572
L 281.543819 55.86997
L 282.027224 57.137451
L 282.268926 57.237167
L 282.752331 57.797615
L 283.235736 57.923157
L 283.71914 58.124877
L 284.685949 58.516162
L 284.927652 58.560014
L 285.169354 58.064246
L 285.411056 57.949846
L 287.102973 55.472342
L 287.586377 54.99016
L 287.828079 54.739597
L 288.069782 54.69018
L 288.553186 54.369435
L 288.794889 54.616559
L 289.278293 54.827678
L 290.245103 55.882199
L 290.728507 56.37223
L 290.97021 56.278966
L 291.453614 56.360277
L 291.695316 55.91211
L 291.937019 55.768641
L 292.420423 55.054896
L 295.079149 50.753438
L 295.320851 50.966754
L 295.804256 51.158006
L 297.25447 52.504792
L 299.42979 54.622531
L 299.913195 54.857985
L 300.3966 54.995243
L 300.880004 55.226505
L 303.53873 60.416351
L 304.022134 61.484116
L 305.230646 64.185479
L 305.472348 64.252933
L 305.714051 64.59349
L 306.197455 64.520686
L 306.68086 64.306247
L 308.856181 64.965405
L 309.097883 65.573955
L 309.339585 65.855187
L 309.581288 66.310578
L 311.031501 70.577607
L 311.998311 72.907664
L 313.206822 75.75248
L 315.140441 79.323083
L 317.799166 85.220233
L 319.491082 88.047914
L 319.732785 88.38207
L 320.216189 89.449682
L 320.941296 91.178831
L 321.908105 93.427195
L 323.116617 96.741793
L 323.358319 97.868104
L 323.600022 98.350804
L 324.083426 99.873705
L 324.566831 100.577306
L 325.291938 101.473714
L 325.53364 101.715218
L 327.950663 106.715801
L 328.917473 108.546502
L 331.092793 114.925194
L 332.059603 117.27069
L 333.268114 120.262771
L 334.476626 123.745867
L 335.92684 127.235787
L 336.893649 129.544396
L 337.618756 130.887749
L 337.860458 131.277712
L 339.310672 134.787059
L 341.485993 139.68037
L 342.936207 142.447584
L 344.628123 146.584457
L 346.320039 150.72875
L 347.286848 153.866451
L 350.187276 161.017107
L 351.63749 164.317822
L 352.362597 166.457877
L 353.812811 170.293869
L 356.954941 176.988588
L 358.405155 180.341985
L 358.888559 181.587273
L 498.109091 181.587273
L 498.109091 181.587273
" style="fill:none;stroke:#ff7f0e;stroke-linecap:square;stroke-width:0.8;"/>
   </g>
   <g id="matplotlib.axis_1">
    <g id="xtick_1">
     <g id="line2d_3">
      <defs>
       <path d="M 0 0
L 0 1.5
" id="m0350593d8e" style="stroke:#696969;stroke-width:0.8;"/>
      </defs>
      <g>
       <use style="fill:#696969;stroke:#696969;stroke-width:0.8;" x="92.290909" xlink:href="#m0350593d8e" y="189"/>
      </g>
     </g>
     <g id="text_1">
      <!-- 150 -->
      <g style="fill:#696969;" transform="translate(82.747159 201.598437)scale(0.1 -0.1)">
       <defs>
        <path d="M 12.40625 8.296875
L 28.515625 8.296875
L 28.515625 63.921875
L 10.984375 60.40625
L 10.984375 69.390625
L 28.421875 72.90625
L 38.28125 72.90625
L 38.28125 8.296875
L 54.390625 8.296875
L 54.390625 0
L 12.40625 0
z
" id="DejaVuSans-49"/>
        <path d="M 10.796875 72.90625
L 49.515625 72.90625
L 49.515625 64.59375
L 19.828125 64.59375
L 19.828125 46.734375
Q 21.96875 47.46875 24.109375 47.828125
Q 26.265625 48.1875 28.421875 48.1875
Q 40.625 48.1875 47.75 41.5
Q 54.890625 34.8125 54.890625 23.390625
Q 54.890625 11.625 47.5625 5.09375
Q 40.234375 -1.421875 26.90625 -1.421875
Q 22.3125 -1.421875 17.546875 -0.640625
Q 12.796875 0.140625 7.71875 1.703125
L 7.71875 11.625
Q 12.109375 9.234375 16.796875 8.0625
Q 21.484375 6.890625 26.703125 6.890625
Q 35.15625 6.890625 40.078125 11.328125
Q 45.015625 15.765625 45.015625 23.390625
Q 45.015625 31 40.078125 35.4375
Q 35.15625 39.890625 26.703125 39.890625
Q 22.75 39.890625 18.8125 39.015625
Q 14.890625 38.140625 10.796875 36.28125
z
" id="DejaVuSans-53"/>
        <path d="M 31.78125 66.40625
Q 24.171875 66.40625 20.328125 58.90625
Q 16.5 51.421875 16.5 36.375
Q 16.5 21.390625 20.328125 13.890625
Q 24.171875 6.390625 31.78125 6.390625
Q 39.453125 6.390625 43.28125 13.890625
Q 47.125 21.390625 47.125 36.375
Q 47.125 51.421875 43.28125 58.90625
Q 39.453125 66.40625 31.78125 66.40625
z
M 31.78125 74.21875
Q 44.046875 74.21875 50.515625 64.515625
Q 56.984375 54.828125 56.984375 36.375
Q 56.984375 17.96875 50.515625 8.265625
Q 44.046875 -1.421875 31.78125 -1.421875
Q 19.53125 -1.421875 13.0625 8.265625
Q 6.59375 17.96875 6.59375 36.375
Q 6.59375 54.828125 13.0625 64.515625
Q 19.53125 74.21875 31.78125 74.21875
z
" id="DejaVuSans-48"/>
       </defs>
       <use xlink:href="#DejaVuSans-49"/>
       <use x="63.623047" xlink:href="#DejaVuSans-53"/>
       <use x="127.246094" xlink:href="#DejaVuSans-48"/>
      </g>
     </g>
    </g>
    <g id="xtick_2">
     <g id="line2d_4">
      <g>
       <use style="fill:#696969;stroke:#696969;stroke-width:0.8;" x="227.644204" xlink:href="#m0350593d8e" y="189"/>
      </g>
     </g>
     <g id="text_2">
      <!-- 173 -->
      <g style="fill:#696969;" transform="translate(218.100454 201.598437)scale(0.1 -0.1)">
       <defs>
        <path d="M 8.203125 72.90625
L 55.078125 72.90625
L 55.078125 68.703125
L 28.609375 0
L 18.3125 0
L 43.21875 64.59375
L 8.203125 64.59375
z
" id="DejaVuSans-55"/>
        <path d="M 40.578125 39.3125
Q 47.65625 37.796875 51.625 33
Q 55.609375 28.21875 55.609375 21.1875
Q 55.609375 10.40625 48.1875 4.484375
Q 40.765625 -1.421875 27.09375 -1.421875
Q 22.515625 -1.421875 17.65625 -0.515625
Q 12.796875 0.390625 7.625 2.203125
L 7.625 11.71875
Q 11.71875 9.328125 16.59375 8.109375
Q 21.484375 6.890625 26.8125 6.890625
Q 36.078125 6.890625 40.9375 10.546875
Q 45.796875 14.203125 45.796875 21.1875
Q 45.796875 27.640625 41.28125 31.265625
Q 36.765625 34.90625 28.71875 34.90625
L 20.21875 34.90625
L 20.21875 43.015625
L 29.109375 43.015625
Q 36.375 43.015625 40.234375 45.921875
Q 44.09375 48.828125 44.09375 54.296875
Q 44.09375 59.90625 40.109375 62.90625
Q 36.140625 65.921875 28.71875 65.921875
Q 24.65625 65.921875 20.015625 65.03125
Q 15.375 64.15625 9.8125 62.3125
L 9.8125 71.09375
Q 15.4375 72.65625 20.34375 73.4375
Q 25.25 74.21875 29.59375 74.21875
Q 40.828125 74.21875 47.359375 69.109375
Q 53.90625 64.015625 53.90625 55.328125
Q 53.90625 49.265625 50.4375 45.09375
Q 46.96875 40.921875 40.578125 39.3125
z
" id="DejaVuSans-51"/>
       </defs>
       <use xlink:href="#DejaVuSans-49"/>
       <use x="63.623047" xlink:href="#DejaVuSans-55"/>
       <use x="127.246094" xlink:href="#DejaVuSans-51"/>
      </g>
     </g>
    </g>
    <g id="xtick_3">
     <g id="line2d_5">
      <g>
       <use style="fill:#696969;stroke:#696969;stroke-width:0.8;" x="362.997499" xlink:href="#m0350593d8e" y="189"/>
      </g>
     </g>
     <g id="text_3">
      <!-- 196 -->
      <g style="fill:#696969;" transform="translate(353.453749 201.598437)scale(0.1 -0.1)">
       <defs>
        <path d="M 10.984375 1.515625
L 10.984375 10.5
Q 14.703125 8.734375 18.5 7.8125
Q 22.3125 6.890625 25.984375 6.890625
Q 35.75 6.890625 40.890625 13.453125
Q 46.046875 20.015625 46.78125 33.40625
Q 43.953125 29.203125 39.59375 26.953125
Q 35.25 24.703125 29.984375 24.703125
Q 19.046875 24.703125 12.671875 31.3125
Q 6.296875 37.9375 6.296875 49.421875
Q 6.296875 60.640625 12.9375 67.421875
Q 19.578125 74.21875 30.609375 74.21875
Q 43.265625 74.21875 49.921875 64.515625
Q 56.59375 54.828125 56.59375 36.375
Q 56.59375 19.140625 48.40625 8.859375
Q 40.234375 -1.421875 26.421875 -1.421875
Q 22.703125 -1.421875 18.890625 -0.6875
Q 15.09375 0.046875 10.984375 1.515625
z
M 30.609375 32.421875
Q 37.25 32.421875 41.125 36.953125
Q 45.015625 41.5 45.015625 49.421875
Q 45.015625 57.28125 41.125 61.84375
Q 37.25 66.40625 30.609375 66.40625
Q 23.96875 66.40625 20.09375 61.84375
Q 16.21875 57.28125 16.21875 49.421875
Q 16.21875 41.5 20.09375 36.953125
Q 23.96875 32.421875 30.609375 32.421875
z
" id="DejaVuSans-57"/>
        <path d="M 33.015625 40.375
Q 26.375 40.375 22.484375 35.828125
Q 18.609375 31.296875 18.609375 23.390625
Q 18.609375 15.53125 22.484375 10.953125
Q 26.375 6.390625 33.015625 6.390625
Q 39.65625 6.390625 43.53125 10.953125
Q 47.40625 15.53125 47.40625 23.390625
Q 47.40625 31.296875 43.53125 35.828125
Q 39.65625 40.375 33.015625 40.375
z
M 52.59375 71.296875
L 52.59375 62.3125
Q 48.875 64.0625 45.09375 64.984375
Q 41.3125 65.921875 37.59375 65.921875
Q 27.828125 65.921875 22.671875 59.328125
Q 17.53125 52.734375 16.796875 39.40625
Q 19.671875 43.65625 24.015625 45.921875
Q 28.375 48.1875 33.59375 48.1875
Q 44.578125 48.1875 50.953125 41.515625
Q 57.328125 34.859375 57.328125 23.390625
Q 57.328125 12.15625 50.6875 5.359375
Q 44.046875 -1.421875 33.015625 -1.421875
Q 20.359375 -1.421875 13.671875 8.265625
Q 6.984375 17.96875 6.984375 36.375
Q 6.984375 53.65625 15.1875 63.9375
Q 23.390625 74.21875 37.203125 74.21875
Q 40.921875 74.21875 44.703125 73.484375
Q 48.484375 72.75 52.59375 71.296875
z
" id="DejaVuSans-54"/>
       </defs>
       <use xlink:href="#DejaVuSans-49"/>
       <use x="63.623047" xlink:href="#DejaVuSans-57"/>
       <use x="127.246094" xlink:href="#DejaVuSans-54"/>
      </g>
     </g>
    </g>
    <g id="xtick_4">
     <g id="line2d_6">
      <g>
       <use style="fill:#696969;stroke:#696969;stroke-width:0.8;" x="498.350793" xlink:href="#m0350593d8e" y="189"/>
      </g>
     </g>
     <g id="text_4">
      <!-- 220 -->
      <g style="fill:#696969;" transform="translate(488.807043 201.598437)scale(0.1 -0.1)">
       <defs>
        <path d="M 19.1875 8.296875
L 53.609375 8.296875
L 53.609375 0
L 7.328125 0
L 7.328125 8.296875
Q 12.9375 14.109375 22.625 23.890625
Q 32.328125 33.6875 34.8125 36.53125
Q 39.546875 41.84375 41.421875 45.53125
Q 43.3125 49.21875 43.3125 52.78125
Q 43.3125 58.59375 39.234375 62.25
Q 35.15625 65.921875 28.609375 65.921875
Q 23.96875 65.921875 18.8125 64.3125
Q 13.671875 62.703125 7.8125 59.421875
L 7.8125 69.390625
Q 13.765625 71.78125 18.9375 73
Q 24.125 74.21875 28.421875 74.21875
Q 39.75 74.21875 46.484375 68.546875
Q 53.21875 62.890625 53.21875 53.421875
Q 53.21875 48.921875 51.53125 44.890625
Q 49.859375 40.875 45.40625 35.40625
Q 44.1875 33.984375 37.640625 27.21875
Q 31.109375 20.453125 19.1875 8.296875
z
" id="DejaVuSans-50"/>
       </defs>
       <use xlink:href="#DejaVuSans-50"/>
       <use x="63.623047" xlink:href="#DejaVuSans-50"/>
       <use x="127.246094" xlink:href="#DejaVuSans-48"/>
      </g>
     </g>
    </g>
    <g id="text_5">
     <!-- Days -->
     <g style="fill:#696969;" transform="translate(282.721875 215.276563)scale(0.1 -0.1)">
      <defs>
       <path d="M 19.671875 64.796875
L 19.671875 8.109375
L 31.59375 8.109375
Q 46.6875 8.109375 53.6875 14.9375
Q 60.6875 21.78125 60.6875 36.53125
Q 60.6875 51.171875 53.6875 57.984375
Q 46.6875 64.796875 31.59375 64.796875
z
M 9.8125 72.90625
L 30.078125 72.90625
Q 51.265625 72.90625 61.171875 64.09375
Q 71.09375 55.28125 71.09375 36.53125
Q 71.09375 17.671875 61.125 8.828125
Q 51.171875 0 30.078125 0
L 9.8125 0
z
" id="DejaVuSans-68"/>
       <path d="M 34.28125 27.484375
Q 23.390625 27.484375 19.1875 25
Q 14.984375 22.515625 14.984375 16.5
Q 14.984375 11.71875 18.140625 8.90625
Q 21.296875 6.109375 26.703125 6.109375
Q 34.1875 6.109375 38.703125 11.40625
Q 43.21875 16.703125 43.21875 25.484375
L 43.21875 27.484375
z
M 52.203125 31.203125
L 52.203125 0
L 43.21875 0
L 43.21875 8.296875
Q 40.140625 3.328125 35.546875 0.953125
Q 30.953125 -1.421875 24.3125 -1.421875
Q 15.921875 -1.421875 10.953125 3.296875
Q 6 8.015625 6 15.921875
Q 6 25.140625 12.171875 29.828125
Q 18.359375 34.515625 30.609375 34.515625
L 43.21875 34.515625
L 43.21875 35.40625
Q 43.21875 41.609375 39.140625 45
Q 35.0625 48.390625 27.6875 48.390625
Q 23 48.390625 18.546875 47.265625
Q 14.109375 46.140625 10.015625 43.890625
L 10.015625 52.203125
Q 14.9375 54.109375 19.578125 55.046875
Q 24.21875 56 28.609375 56
Q 40.484375 56 46.34375 49.84375
Q 52.203125 43.703125 52.203125 31.203125
z
" id="DejaVuSans-97"/>
       <path d="M 32.171875 -5.078125
Q 28.375 -14.84375 24.75 -17.8125
Q 21.140625 -20.796875 15.09375 -20.796875
L 7.90625 -20.796875
L 7.90625 -13.28125
L 13.1875 -13.28125
Q 16.890625 -13.28125 18.9375 -11.515625
Q 21 -9.765625 23.484375 -3.21875
L 25.09375 0.875
L 2.984375 54.6875
L 12.5 54.6875
L 29.59375 11.921875
L 46.6875 54.6875
L 56.203125 54.6875
z
" id="DejaVuSans-121"/>
       <path d="M 44.28125 53.078125
L 44.28125 44.578125
Q 40.484375 46.53125 36.375 47.5
Q 32.28125 48.484375 27.875 48.484375
Q 21.1875 48.484375 17.84375 46.4375
Q 14.5 44.390625 14.5 40.28125
Q 14.5 37.15625 16.890625 35.375
Q 19.28125 33.59375 26.515625 31.984375
L 29.59375 31.296875
Q 39.15625 29.25 43.1875 25.515625
Q 47.21875 21.78125 47.21875 15.09375
Q 47.21875 7.46875 41.1875 3.015625
Q 35.15625 -1.421875 24.609375 -1.421875
Q 20.21875 -1.421875 15.453125 -0.5625
Q 10.6875 0.296875 5.421875 2
L 5.421875 11.28125
Q 10.40625 8.6875 15.234375 7.390625
Q 20.0625 6.109375 24.8125 6.109375
Q 31.15625 6.109375 34.5625 8.28125
Q 37.984375 10.453125 37.984375 14.40625
Q 37.984375 18.0625 35.515625 20.015625
Q 33.0625 21.96875 24.703125 23.78125
L 21.578125 24.515625
Q 13.234375 26.265625 9.515625 29.90625
Q 5.8125 33.546875 5.8125 39.890625
Q 5.8125 47.609375 11.28125 51.796875
Q 16.75 56 26.8125 56
Q 31.78125 56 36.171875 55.265625
Q 40.578125 54.546875 44.28125 53.078125
z
" id="DejaVuSans-115"/>
      </defs>
      <use xlink:href="#DejaVuSans-68"/>
      <use x="77.001953" xlink:href="#DejaVuSans-97"/>
      <use x="138.28125" xlink:href="#DejaVuSans-121"/>
      <use x="197.460938" xlink:href="#DejaVuSans-115"/>
     </g>
    </g>
   </g>
   <g id="matplotlib.axis_2">
    <g id="ytick_1">
     <g id="line2d_7">
      <path clip-path="url(#p04a8bb5f66)" d="M 72 181.587273
L 518.4 181.587273
" style="fill:none;stroke:#b0b0b0;stroke-linecap:square;stroke-width:0.8;"/>
     </g>
     <g id="line2d_8">
      <defs>
       <path d="M 0 0
L -1 0
" id="m38d44341fe" style="stroke:#696969;stroke-width:0.2;"/>
      </defs>
      <g>
       <use style="fill:#696969;stroke:#696969;stroke-width:0.2;" x="72" xlink:href="#m38d44341fe" y="181.587273"/>
      </g>
     </g>
     <g id="text_6">
      <!-- 0 -->
      <g style="fill:#696969;" transform="translate(61.1375 185.386491)scale(0.1 -0.1)">
       <use xlink:href="#DejaVuSans-48"/>
      </g>
     </g>
    </g>
    <g id="ytick_2">
     <g id="line2d_9">
      <path clip-path="url(#p04a8bb5f66)" d="M 72 148.830929
L 518.4 148.830929
" style="fill:none;stroke:#b0b0b0;stroke-linecap:square;stroke-width:0.8;"/>
     </g>
     <g id="line2d_10">
      <g>
       <use style="fill:#696969;stroke:#696969;stroke-width:0.2;" x="72" xlink:href="#m38d44341fe" y="148.830929"/>
      </g>
     </g>
     <g id="text_7">
      <!-- 10 -->
      <g style="fill:#696969;" transform="translate(54.775 152.630148)scale(0.1 -0.1)">
       <use xlink:href="#DejaVuSans-49"/>
       <use x="63.623047" xlink:href="#DejaVuSans-48"/>
      </g>
     </g>
    </g>
    <g id="ytick_3">
     <g id="line2d_11">
      <path clip-path="url(#p04a8bb5f66)" d="M 72 116.074586
L 518.4 116.074586
" style="fill:none;stroke:#b0b0b0;stroke-linecap:square;stroke-width:0.8;"/>
     </g>
     <g id="line2d_12">
      <g>
       <use style="fill:#696969;stroke:#696969;stroke-width:0.2;" x="72" xlink:href="#m38d44341fe" y="116.074586"/>
      </g>
     </g>
     <g id="text_8">
      <!-- 20 -->
      <g style="fill:#696969;" transform="translate(54.775 119.873804)scale(0.1 -0.1)">
       <use xlink:href="#DejaVuSans-50"/>
       <use x="63.623047" xlink:href="#DejaVuSans-48"/>
      </g>
     </g>
    </g>
    <g id="ytick_4">
     <g id="line2d_13">
      <path clip-path="url(#p04a8bb5f66)" d="M 72 83.318242
L 518.4 83.318242
" style="fill:none;stroke:#b0b0b0;stroke-linecap:square;stroke-width:0.8;"/>
     </g>
     <g id="line2d_14">
      <g>
       <use style="fill:#696969;stroke:#696969;stroke-width:0.2;" x="72" xlink:href="#m38d44341fe" y="83.318242"/>
      </g>
     </g>
     <g id="text_9">
      <!-- 30 -->
      <g style="fill:#696969;" transform="translate(54.775 87.117461)scale(0.1 -0.1)">
       <use xlink:href="#DejaVuSans-51"/>
       <use x="63.623047" xlink:href="#DejaVuSans-48"/>
      </g>
     </g>
    </g>
    <g id="ytick_5">
     <g id="line2d_15">
      <path clip-path="url(#p04a8bb5f66)" d="M 72 50.561898
L 518.4 50.561898
" style="fill:none;stroke:#b0b0b0;stroke-linecap:square;stroke-width:0.8;"/>
     </g>
     <g id="line2d_16">
      <g>
       <use style="fill:#696969;stroke:#696969;stroke-width:0.2;" x="72" xlink:href="#m38d44341fe" y="50.561898"/>
      </g>
     </g>
     <g id="text_10">
      <!-- 40 -->
      <g style="fill:#696969;" transform="translate(54.775 54.361117)scale(0.1 -0.1)">
       <defs>
        <path d="M 37.796875 64.3125
L 12.890625 25.390625
L 37.796875 25.390625
z
M 35.203125 72.90625
L 47.609375 72.90625
L 47.609375 25.390625
L 58.015625 25.390625
L 58.015625 17.1875
L 47.609375 17.1875
L 47.609375 0
L 37.796875 0
L 37.796875 17.1875
L 4.890625 17.1875
L 4.890625 26.703125
z
" id="DejaVuSans-52"/>
       </defs>
       <use xlink:href="#DejaVuSans-52"/>
       <use x="63.623047" xlink:href="#DejaVuSans-48"/>
      </g>
     </g>
    </g>
    <g id="text_11">
     <!--  (Unit._unknown) -->
     <g style="fill:#696969;" transform="translate(48.417187 149.935781)rotate(-90)scale(0.1 -0.1)">
      <defs>
       <path id="DejaVuSans-32"/>
       <path d="M 31 75.875
Q 24.46875 64.65625 21.28125 53.65625
Q 18.109375 42.671875 18.109375 31.390625
Q 18.109375 20.125 21.3125 9.0625
Q 24.515625 -2 31 -13.1875
L 23.1875 -13.1875
Q 15.875 -1.703125 12.234375 9.375
Q 8.59375 20.453125 8.59375 31.390625
Q 8.59375 42.28125 12.203125 53.3125
Q 15.828125 64.359375 23.1875 75.875
z
" id="DejaVuSans-40"/>
       <path d="M 8.6875 72.90625
L 18.609375 72.90625
L 18.609375 28.609375
Q 18.609375 16.890625 22.84375 11.734375
Q 27.09375 6.59375 36.625 6.59375
Q 46.09375 6.59375 50.34375 11.734375
Q 54.59375 16.890625 54.59375 28.609375
L 54.59375 72.90625
L 64.5 72.90625
L 64.5 27.390625
Q 64.5 13.140625 57.4375 5.859375
Q 50.390625 -1.421875 36.625 -1.421875
Q 22.796875 -1.421875 15.734375 5.859375
Q 8.6875 13.140625 8.6875 27.390625
z
" id="DejaVuSans-85"/>
       <path d="M 54.890625 33.015625
L 54.890625 0
L 45.90625 0
L 45.90625 32.71875
Q 45.90625 40.484375 42.875 44.328125
Q 39.84375 48.1875 33.796875 48.1875
Q 26.515625 48.1875 22.3125 43.546875
Q 18.109375 38.921875 18.109375 30.90625
L 18.109375 0
L 9.078125 0
L 9.078125 54.6875
L 18.109375 54.6875
L 18.109375 46.1875
Q 21.34375 51.125 25.703125 53.5625
Q 30.078125 56 35.796875 56
Q 45.21875 56 50.046875 50.171875
Q 54.890625 44.34375 54.890625 33.015625
z
" id="DejaVuSans-110"/>
       <path d="M 9.421875 54.6875
L 18.40625 54.6875
L 18.40625 0
L 9.421875 0
z
M 9.421875 75.984375
L 18.40625 75.984375
L 18.40625 64.59375
L 9.421875 64.59375
z
" id="DejaVuSans-105"/>
       <path d="M 18.3125 70.21875
L 18.3125 54.6875
L 36.8125 54.6875
L 36.8125 47.703125
L 18.3125 47.703125
L 18.3125 18.015625
Q 18.3125 11.328125 20.140625 9.421875
Q 21.96875 7.515625 27.59375 7.515625
L 36.8125 7.515625
L 36.8125 0
L 27.59375 0
Q 17.1875 0 13.234375 3.875
Q 9.28125 7.765625 9.28125 18.015625
L 9.28125 47.703125
L 2.6875 47.703125
L 2.6875 54.6875
L 9.28125 54.6875
L 9.28125 70.21875
z
" id="DejaVuSans-116"/>
       <path d="M 10.6875 12.40625
L 21 12.40625
L 21 0
L 10.6875 0
z
" id="DejaVuSans-46"/>
       <path d="M 50.984375 -16.609375
L 50.984375 -23.578125
L -0.984375 -23.578125
L -0.984375 -16.609375
z
" id="DejaVuSans-95"/>
       <path d="M 8.5 21.578125
L 8.5 54.6875
L 17.484375 54.6875
L 17.484375 21.921875
Q 17.484375 14.15625 20.5 10.265625
Q 23.53125 6.390625 29.59375 6.390625
Q 36.859375 6.390625 41.078125 11.03125
Q 45.3125 15.671875 45.3125 23.6875
L 45.3125 54.6875
L 54.296875 54.6875
L 54.296875 0
L 45.3125 0
L 45.3125 8.40625
Q 42.046875 3.421875 37.71875 1
Q 33.40625 -1.421875 27.6875 -1.421875
Q 18.265625 -1.421875 13.375 4.4375
Q 8.5 10.296875 8.5 21.578125
z
M 31.109375 56
z
" id="DejaVuSans-117"/>
       <path d="M 9.078125 75.984375
L 18.109375 75.984375
L 18.109375 31.109375
L 44.921875 54.6875
L 56.390625 54.6875
L 27.390625 29.109375
L 57.625 0
L 45.90625 0
L 18.109375 26.703125
L 18.109375 0
L 9.078125 0
z
" id="DejaVuSans-107"/>
       <path d="M 30.609375 48.390625
Q 23.390625 48.390625 19.1875 42.75
Q 14.984375 37.109375 14.984375 27.296875
Q 14.984375 17.484375 19.15625 11.84375
Q 23.34375 6.203125 30.609375 6.203125
Q 37.796875 6.203125 41.984375 11.859375
Q 46.1875 17.53125 46.1875 27.296875
Q 46.1875 37.015625 41.984375 42.703125
Q 37.796875 48.390625 30.609375 48.390625
z
M 30.609375 56
Q 42.328125 56 49.015625 48.375
Q 55.71875 40.765625 55.71875 27.296875
Q 55.71875 13.875 49.015625 6.21875
Q 42.328125 -1.421875 30.609375 -1.421875
Q 18.84375 -1.421875 12.171875 6.21875
Q 5.515625 13.875 5.515625 27.296875
Q 5.515625 40.765625 12.171875 48.375
Q 18.84375 56 30.609375 56
z
" id="DejaVuSans-111"/>
       <path d="M 4.203125 54.6875
L 13.1875 54.6875
L 24.421875 12.015625
L 35.59375 54.6875
L 46.1875 54.6875
L 57.421875 12.015625
L 68.609375 54.6875
L 77.59375 54.6875
L 63.28125 0
L 52.6875 0
L 40.921875 44.828125
L 29.109375 0
L 18.5 0
z
" id="DejaVuSans-119"/>
       <path d="M 8.015625 75.875
L 15.828125 75.875
Q 23.140625 64.359375 26.78125 53.3125
Q 30.421875 42.28125 30.421875 31.390625
Q 30.421875 20.453125 26.78125 9.375
Q 23.140625 -1.703125 15.828125 -13.1875
L 8.015625 -13.1875
Q 14.5 -2 17.703125 9.0625
Q 20.90625 20.125 20.90625 31.390625
Q 20.90625 42.671875 17.703125 53.65625
Q 14.5 64.65625 8.015625 75.875
z
" id="DejaVuSans-41"/>
      </defs>
      <use xlink:href="#DejaVuSans-32"/>
      <use x="31.787109" xlink:href="#DejaVuSans-40"/>
      <use x="70.800781" xlink:href="#DejaVuSans-85"/>
      <use x="143.994141" xlink:href="#DejaVuSans-110"/>
      <use x="207.373047" xlink:href="#DejaVuSans-105"/>
      <use x="235.15625" xlink:href="#DejaVuSans-116"/>
      <use x="274.365234" xlink:href="#DejaVuSans-46"/>
      <use x="306.152344" xlink:href="#DejaVuSans-95"/>
      <use x="356.152344" xlink:href="#DejaVuSans-117"/>
      <use x="419.53125" xlink:href="#DejaVuSans-110"/>
      <use x="482.910156" xlink:href="#DejaVuSans-107"/>
      <use x="540.820312" xlink:href="#DejaVuSans-110"/>
      <use x="604.199219" xlink:href="#DejaVuSans-111"/>
      <use x="665.380859" xlink:href="#DejaVuSans-119"/>
      <use x="747.167969" xlink:href="#DejaVuSans-110"/>
      <use x="810.546875" xlink:href="#DejaVuSans-41"/>
     </g>
    </g>
   </g>
   <g id="line2d_17">
    <path clip-path="url(#p04a8bb5f66)" d="M 92.290909 74.841225
L 92.774314 74.04015
L 93.257718 73.771731
L 93.499421 73.846925
L 93.741123 73.050682
L 93.982825 73.185038
L 94.224528 72.923144
L 94.949635 70.753286
L 95.674741 67.703691
L 95.916444 67.106487
L 96.399848 65.415955
L 96.641551 65.776538
L 97.124955 63.844859
L 97.366658 63.936178
L 97.60836 63.67023
L 98.091765 63.425347
L 98.333467 63.966823
L 98.816872 64.234946
L 99.300276 64.160292
L 99.541978 64.726788
L 99.783681 64.927675
L 100.508788 65.83123
L 101.233895 66.504665
L 101.475597 66.675884
L 101.717299 66.528247
L 102.200704 66.505085
L 102.442406 65.911861
L 102.684109 65.784181
L 102.925811 65.341112
L 103.650918 63.177955
L 103.89262 63.114397
L 104.376025 62.321322
L 105.826239 62.315281
L 107.03475 62.454988
L 108.243262 62.532921
L 109.451773 62.400305
L 109.693476 62.655543
L 110.17688 62.898985
L 110.901987 63.882607
L 111.143689 63.713143
L 111.385392 63.819888
L 111.627094 63.602228
L 113.560713 57.601334
L 115.494331 51.217924
L 116.702843 48.387335
L 116.944545 48.919022
L 117.186247 48.796159
L 117.42795 49.202153
L 118.878163 55.4618
L 120.811782 66.317473
L 121.536889 69.468335
L 122.503698 73.595878
L 122.7454 73.743689
L 123.228805 74.734652
L 123.470507 75.250627
L 123.953912 75.894779
L 124.679019 77.824208
L 124.920721 77.95898
L 125.404126 78.804565
L 125.645828 78.651669
L 125.88753 78.855397
L 126.129233 78.763851
L 127.579447 76.582539
L 128.062851 75.088219
L 128.787958 73.385279
L 129.029661 72.875734
L 129.513065 71.308736
L 129.99647 69.46041
L 131.204981 64.764482
L 131.446684 64.396067
L 132.171791 62.188117
L 133.380302 59.403977
L 134.347111 57.964475
L 136.039028 56.357305
L 136.28073 56.149684
L 136.764134 55.967945
L 137.005837 55.870371
L 137.489241 56.099005
L 137.730944 56.381702
L 138.214348 57.6911
L 138.697753 59.271682
L 139.906265 63.726762
L 140.147967 62.958882
L 140.389669 63.114063
L 140.631371 62.778535
L 141.356478 60.689742
L 143.048395 55.780821
L 144.740311 49.2796
L 146.190525 45.205774
L 146.432227 44.714785
L 146.673929 44.789716
L 147.157334 44.458388
L 147.640739 44.742879
L 147.882441 44.869815
L 148.365845 44.765904
L 148.607548 44.770064
L 148.84925 44.41499
L 149.090952 44.319088
L 149.332655 43.604143
L 150.782869 36.444913
L 151.507976 33.534809
L 151.749678 33.71233
L 151.99138 33.41178
L 152.474785 33.340904
L 152.958189 33.562883
L 153.683296 33.332727
L 154.166701 33.466933
L 154.650106 33.606918
L 154.891808 33.782932
L 156.583724 36.693242
L 157.067129 38.193821
L 157.308831 38.868087
L 157.550533 39.135441
L 158.033938 40.040162
L 158.27564 40.021664
L 158.759045 40.189618
L 159.725854 40.083887
L 160.209259 40.152425
L 160.450961 40.346404
L 160.934366 40.402624
L 161.41777 41.372808
L 162.38458 43.259396
L 162.626282 43.414354
L 163.109687 43.961614
L 163.834793 43.467243
L 164.076496 43.530506
L 164.5599 43.390083
L 165.043305 43.738287
L 165.285007 43.825662
L 166.010114 43.620991
L 166.251817 43.305076
L 166.493519 43.262849
L 166.976923 42.501033
L 167.460328 41.514428
L 167.70203 41.429868
L 168.185435 40.926417
L 168.66884 40.626729
L 169.393947 40.19171
L 169.635649 39.965464
L 169.877351 39.936486
L 170.602458 39.558604
L 171.085863 39.58017
L 172.536077 40.665249
L 172.777779 40.314229
L 173.019481 40.278276
L 173.261184 40.085782
L 173.986291 38.542812
L 174.711397 37.321996
L 174.9531 37.574041
L 175.194802 37.650649
L 175.436504 37.945939
L 175.678207 38.004172
L 176.161611 38.455868
L 176.645016 38.528088
L 178.09523 38.301552
L 178.336932 38.219226
L 178.578634 38.716047
L 179.062039 39.29264
L 179.787146 41.238296
L 180.028848 41.630674
L 180.512253 42.58044
L 180.753955 42.207554
L 180.995658 42.079371
L 181.23736 41.706771
L 181.479062 41.693014
L 181.962467 41.201231
L 183.170978 41.337842
L 184.621192 40.970287
L 185.104597 40.695592
L 185.588002 40.367634
L 185.829704 40.483054
L 186.313108 40.411202
L 186.796513 40.765648
L 187.038215 41.029115
L 187.279918 40.916175
L 187.52162 41.040779
L 187.763322 41.037218
L 188.488429 40.245909
L 188.730132 40.225294
L 189.213536 39.916182
L 189.696941 40.520547
L 190.905452 44.718339
L 191.630559 46.924321
L 192.113964 48.076182
L 192.355666 48.122729
L 193.322475 49.048806
L 193.564178 49.176551
L 194.530987 50.986685
L 195.014392 52.210067
L 195.497796 52.942298
L 195.739499 53.426101
L 195.981201 53.158294
L 196.222903 53.273331
L 196.464606 53.197129
L 197.914819 50.016241
L 198.156522 50.439568
L 198.398224 50.313013
L 198.881629 50.473332
L 199.365033 51.16773
L 199.606736 51.021902
L 200.09014 51.004034
L 200.331843 50.833604
L 200.573545 50.416895
L 200.815247 50.367803
L 201.782056 48.889376
L 202.265461 47.745625
L 202.507163 47.579566
L 202.990568 46.904745
L 203.715675 46.472904
L 204.440782 45.35565
L 204.682484 45.104929
L 205.165889 44.328313
L 205.649293 43.901626
L 206.3744 43.032202
L 206.616103 42.713804
L 206.857805 42.742869
L 207.34121 42.282805
L 207.824614 43.191355
L 208.066317 43.652038
L 208.308019 43.824851
L 209.274828 45.411634
L 209.51653 45.708483
L 209.758233 45.616367
L 210.241637 46.010336
L 210.48334 46.103184
L 211.450149 45.972131
L 212.416958 46.114017
L 213.142065 45.065755
L 213.867172 43.12278
L 214.108874 42.825345
L 214.592279 41.866318
L 215.317386 40.910974
L 215.559088 40.973256
L 216.284195 40.689436
L 216.7676 40.929285
L 218.217814 40.698416
L 218.942921 42.069675
L 219.184623 42.468166
L 219.668028 43.608052
L 220.393134 44.756122
L 220.876539 45.945431
L 221.118241 46.382654
L 221.601646 48.253737
L 221.843348 49.179254
L 222.085051 49.415152
L 222.568455 50.723765
L 222.810158 50.78061
L 224.018669 52.154436
L 224.502074 52.977785
L 226.19399 58.820491
L 226.435692 59.18118
L 226.919097 60.132731
L 227.160799 59.358705
L 227.402501 59.28786
L 228.127608 57.97574
L 228.369311 57.454957
L 228.611013 57.325639
L 229.33612 56.488255
L 229.819525 55.980056
L 230.302929 54.976152
L 231.269738 51.791993
L 232.719952 48.622524
L 233.445059 47.885149
L 233.686762 47.994827
L 234.170166 47.852914
L 234.895273 48.560451
L 235.136975 48.616497
L 235.62038 48.974048
L 235.862082 48.648374
L 236.103785 48.524923
L 236.828892 46.698178
L 237.553999 45.245126
L 237.795701 44.806655
L 238.279106 43.594432
L 239.245915 41.515608
L 239.487617 41.752584
L 239.971022 41.468557
L 240.696129 41.664373
L 241.179533 41.694064
L 241.421236 41.717865
L 242.629747 40.885084
L 243.113152 40.603128
L 243.596556 40.343517
L 244.079961 40.431849
L 244.563366 40.569878
L 245.04677 40.915325
L 245.288473 40.632586
L 245.771877 40.563296
L 246.496984 39.900588
L 246.738686 39.85057
L 247.222091 39.56579
L 247.947198 40.591003
L 248.672305 41.891773
L 249.397412 43.37579
L 249.880817 45.159751
L 250.122519 45.85927
L 250.605923 48.443115
L 250.847626 49.75558
L 251.089328 50.143406
L 251.572733 52.243565
L 251.814435 52.217615
L 252.539542 52.8877
L 253.022947 53.19156
L 253.748053 56.210258
L 255.198267 64.410148
L 255.43997 64.834697
L 255.923374 66.245411
L 256.165077 65.519009
L 256.406779 65.505116
L 256.648481 65.141569
L 256.890184 65.419898
L 257.131886 65.027058
L 257.373588 64.974137
L 257.61529 65.976281
L 258.098695 67.240314
L 258.823802 70.712467
L 259.065504 71.258364
L 259.548909 73.548796
L 259.790611 73.476718
L 260.032314 73.894689
L 260.274016 74.061539
L 260.515718 73.508776
L 260.757421 73.271531
L 261.240825 72.337309
L 261.72423 71.284584
L 261.965932 71.936476
L 262.207634 71.914072
L 262.691039 72.54572
L 263.174444 73.572253
L 263.416146 73.090786
L 263.657848 73.169003
L 263.899551 72.950477
L 264.624658 71.158451
L 264.86636 70.883151
L 265.349764 69.69718
L 265.591467 69.554854
L 266.074871 69.039069
L 266.316574 69.230011
L 266.799978 69.285373
L 267.525085 70.124234
L 267.766788 70.033633
L 268.250192 70.148346
L 268.733597 69.441537
L 269.700406 67.794425
L 270.425513 66.331927
L 270.667215 65.998656
L 271.15062 64.824872
L 271.392322 64.822985
L 271.875727 64.37517
L 272.117429 64.118143
L 272.600834 63.84764
L 273.084238 62.990083
L 273.325941 62.608955
L 274.776155 57.063915
L 275.017857 56.842058
L 275.501262 55.956061
L 276.951475 55.193267
L 277.43488 53.917146
L 277.918285 52.342054
L 279.126796 48.338565
L 279.368499 49.035986
L 279.610201 49.177039
L 280.093606 50.764617
L 280.818712 53.635572
L 281.543819 55.86997
L 282.027224 57.137451
L 282.268926 57.237167
L 282.752331 57.797615
L 283.235736 57.923157
L 283.71914 58.124877
L 284.685949 58.516162
L 284.927652 58.560014
L 285.169354 58.064246
L 285.411056 57.949846
L 287.102973 55.472342
L 287.586377 54.99016
L 287.828079 54.739597
L 288.069782 54.69018
L 288.553186 54.369435
L 288.794889 54.616559
L 289.278293 54.827678
L 290.245103 55.882199
L 290.728507 56.37223
L 290.97021 56.278966
L 291.453614 56.360277
L 291.695316 55.91211
L 291.937019 55.768641
L 292.420423 55.054896
L 295.079149 50.753438
L 295.562553 51.191557
L 296.28766 51.987782
L 296.771065 52.603543
L 297.737874 53.933238
L 299.671493 56.493879
L 300.880004 57.475712
L 303.53873 62.572285
L 304.022134 63.621018
L 305.230646 66.274232
L 305.472348 66.340484
L 305.714051 66.674972
L 306.197455 66.603465
L 306.68086 66.392848
L 308.856181 67.040007
L 309.097883 67.63771
L 309.339585 67.913929
L 309.581288 68.361204
L 311.031501 72.552177
L 311.998311 74.840704
L 313.206822 77.634815
L 315.140441 81.135667
L 317.799166 86.927707
L 319.491082 89.704988
L 319.732785 90.033188
L 320.216189 91.081752
L 320.941296 92.781322
L 321.908105 94.98502
L 322.874915 97.45329
L 324.083426 101.310028
L 324.566831 102.001088
L 325.291938 102.881519
L 325.53364 103.118718
L 327.950663 108.029615
L 328.917473 109.827196
L 331.092793 116.092196
L 332.059603 118.396144
L 333.268114 121.335406
L 334.476626 124.750218
L 335.92684 128.177934
L 336.893649 130.445395
L 337.618756 131.764634
L 337.860458 132.147702
L 339.310672 135.598542
L 341.485993 140.412349
L 342.936207 143.130241
L 344.628123 147.195192
L 346.320039 151.26739
L 347.286848 154.349168
L 350.187276 161.374216
L 351.63749 164.617021
L 352.362597 166.718393
L 353.812811 170.48601
L 356.954941 177.067774
L 358.405155 180.364181
L 358.888559 181.587273
L 498.109091 181.587273
L 498.109091 181.587273
" style="fill:none;stroke:#2ca02c;stroke-linecap:square;stroke-width:0.8;"/>
   </g>
   <g id="patch_3">
    <path d="M 72 189
L 72 25.92
" style="fill:none;"/>
   </g>
   <g id="patch_4">
    <path d="M 518.4 189
L 518.4 25.92
" style="fill:none;"/>
   </g>
   <g id="patch_5">
    <path d="M 72 189
L 518.4 189
" style="fill:none;"/>
   </g>
   <g id="patch_6">
    <path d="M 72 25.92
L 518.4 25.92
" style="fill:none;"/>
   </g>
   <g id="line2d_18">
    <path clip-path="url(#p04a8bb5f66)" d="M 92.290909 74.841225
L 92.774314 74.04015
L 93.257718 73.771731
L 93.499421 73.846925
L 93.741123 73.050682
L 93.982825 73.185038
L 94.224528 72.923144
L 94.707932 71.596934
L 95.433039 70.152784
L 95.674741 69.997783
L 96.399848 71.07549
L 96.641551 72.377363
L 97.124955 70.445685
L 97.366658 70.537003
L 97.60836 70.271055
L 98.091765 70.026172
L 98.333467 70.567648
L 98.816872 70.835772
L 99.300276 70.761117
L 99.541978 71.327613
L 99.783681 71.5285
L 100.75049 72.967537
L 101.233895 73.312153
L 101.475597 73.335606
L 102.200704 72.266236
L 102.442406 71.472974
L 102.684109 71.345294
L 102.925811 70.902225
L 103.650918 68.739068
L 103.89262 68.67551
L 104.376025 67.882434
L 106.551345 67.617468
L 107.759857 67.550835
L 109.451773 67.364591
L 109.693476 67.619829
L 110.17688 67.863271
L 110.901987 68.846893
L 111.143689 68.677429
L 111.385392 68.784174
L 111.627094 68.566514
L 112.352201 66.367705
L 113.077308 62.536707
L 114.044117 56.489176
L 115.252629 52.082099
L 115.977736 50.509533
L 116.702843 48.787708
L 116.944545 49.319396
L 117.186247 49.196532
L 117.42795 49.602526
L 118.636461 54.965468
L 119.361568 59.509012
L 120.328377 65.704572
L 122.503698 75.440712
L 122.7454 75.588523
L 123.228805 76.579487
L 123.470507 77.095461
L 123.953912 77.681539
L 124.437317 78.637013
L 124.679019 79.025253
L 124.920721 78.859455
L 125.162424 79.053912
L 125.404126 79.082145
L 125.645828 78.651669
L 125.88753 78.855397
L 126.129233 78.763851
L 127.579447 76.582539
L 128.062851 75.088219
L 128.787958 73.385279
L 129.029661 72.875734
L 129.513065 71.308736
L 129.99647 69.46041
L 131.204981 64.764482
L 131.446684 64.396067
L 132.171791 62.188117
L 133.380302 59.403977
L 134.347111 57.964475
L 136.039028 56.357305
L 136.28073 56.149684
L 136.764134 55.967945
L 137.005837 55.870371
L 137.489241 56.099005
L 137.730944 56.381702
L 138.214348 57.6911
L 138.697753 59.271682
L 139.906265 63.726762
L 140.147967 62.958882
L 140.389669 63.114063
L 140.631371 62.778535
L 141.356478 60.689742
L 143.048395 55.780821
L 144.740311 49.2796
L 146.190525 45.205774
L 146.432227 44.714785
L 146.673929 44.789716
L 147.157334 44.458388
L 147.640739 44.742879
L 147.882441 44.869815
L 148.365845 44.765904
L 148.607548 44.770064
L 148.84925 44.41499
L 149.090952 44.319088
L 149.332655 43.604143
L 150.782869 36.444913
L 151.507976 33.534809
L 151.749678 33.71233
L 151.99138 33.41178
L 152.474785 33.340904
L 152.958189 33.562883
L 153.683296 33.332727
L 154.166701 33.466933
L 154.650106 33.606918
L 154.891808 33.782932
L 156.583724 36.693242
L 157.067129 38.193821
L 157.308831 38.868087
L 157.550533 39.135441
L 158.033938 40.040162
L 158.27564 40.021664
L 158.759045 40.189618
L 159.725854 40.083887
L 160.209259 40.152425
L 160.450961 40.346404
L 160.934366 40.402624
L 161.41777 41.372808
L 162.38458 43.259396
L 162.626282 43.414354
L 163.109687 43.961614
L 163.834793 43.467243
L 164.076496 43.530506
L 164.5599 43.390083
L 165.043305 43.738287
L 165.285007 43.825662
L 166.010114 43.620991
L 166.251817 43.305076
L 166.493519 43.262849
L 166.976923 42.501033
L 167.460328 41.514428
L 167.70203 41.429868
L 168.185435 40.926417
L 168.66884 40.626729
L 169.393947 40.19171
L 169.635649 39.965464
L 169.877351 39.936486
L 170.602458 39.558604
L 171.085863 39.58017
L 172.536077 40.665249
L 172.777779 40.314229
L 173.019481 40.278276
L 173.261184 40.085782
L 173.986291 38.542812
L 174.711397 37.321996
L 174.9531 37.574041
L 175.194802 37.650649
L 175.436504 37.945939
L 175.678207 38.004172
L 176.161611 38.455868
L 176.645016 38.528088
L 178.09523 38.301552
L 178.336932 38.219226
L 178.578634 38.716047
L 179.062039 39.29264
L 179.787146 41.238296
L 180.028848 41.630674
L 180.512253 42.58044
L 180.753955 42.207554
L 180.995658 42.079371
L 181.23736 41.706771
L 181.479062 41.693014
L 181.962467 41.201231
L 183.170978 41.337842
L 184.621192 40.970287
L 185.104597 40.695592
L 185.588002 40.367634
L 185.829704 40.483054
L 186.313108 40.411202
L 186.796513 40.765648
L 187.038215 41.029115
L 187.279918 40.916175
L 187.52162 41.040779
L 187.763322 41.037218
L 188.488429 40.245909
L 188.730132 40.225294
L 189.213536 39.916182
L 189.696941 40.520547
L 190.905452 44.718339
L 191.630559 46.924321
L 192.113964 48.076182
L 192.355666 48.122729
L 193.322475 49.048806
L 193.564178 49.176551
L 194.530987 50.986685
L 195.014392 52.210067
L 195.497796 52.942298
L 195.739499 53.426101
L 195.981201 53.158294
L 196.222903 53.273331
L 196.464606 53.197129
L 197.914819 50.016241
L 198.156522 50.439568
L 198.398224 50.313013
L 198.881629 50.473332
L 199.365033 51.16773
L 199.606736 51.021902
L 200.09014 51.004034
L 200.331843 50.833604
L 200.573545 50.416895
L 200.815247 50.367803
L 201.782056 48.889376
L 202.265461 47.745625
L 202.507163 47.579566
L 202.990568 46.904745
L 203.715675 46.472904
L 204.440782 45.35565
L 204.682484 45.104929
L 205.165889 44.328313
L 205.649293 43.901626
L 206.3744 43.032202
L 206.616103 42.713804
L 206.857805 42.742869
L 207.34121 42.282805
L 207.824614 43.191355
L 208.066317 43.652038
L 208.308019 43.824851
L 209.274828 45.411634
L 209.51653 45.708483
L 209.758233 45.616367
L 210.241637 46.010336
L 210.48334 46.103184
L 211.450149 45.972131
L 212.416958 46.114017
L 213.142065 45.065755
L 213.867172 43.12278
L 214.108874 42.825345
L 214.592279 41.866318
L 215.317386 40.910974
L 215.559088 40.973256
L 216.284195 40.689436
L 216.7676 40.929285
L 218.217814 40.698416
L 218.942921 42.069675
L 219.184623 42.468166
L 219.668028 43.608052
L 220.393134 44.756122
L 220.876539 45.945431
L 221.118241 46.382654
L 221.601646 48.253737
L 221.843348 49.179254
L 222.085051 49.415152
L 222.568455 50.723765
L 222.810158 50.78061
L 224.018669 52.154436
L 224.502074 52.977785
L 226.19399 58.820491
L 226.435692 59.18118
L 226.919097 60.132731
L 227.160799 59.358705
L 227.402501 59.28786
L 228.127608 57.97574
L 228.369311 57.454957
L 228.611013 57.325639
L 229.33612 56.488255
L 229.819525 55.980056
L 230.302929 54.976152
L 231.269738 51.791993
L 232.719952 48.622524
L 233.445059 47.885149
L 233.686762 47.994827
L 234.170166 47.852914
L 234.895273 48.560451
L 235.136975 48.616497
L 235.62038 48.974048
L 235.862082 48.648374
L 236.103785 48.524923
L 236.828892 46.698178
L 237.553999 45.245126
L 237.795701 44.806655
L 238.279106 43.594432
L 239.245915 41.515608
L 239.487617 41.752584
L 239.971022 41.468557
L 240.696129 41.664373
L 241.179533 41.694064
L 241.421236 41.717865
L 242.629747 40.885084
L 243.113152 40.603128
L 243.596556 40.343517
L 244.079961 40.431849
L 244.563366 40.569878
L 245.04677 40.915325
L 245.288473 40.632586
L 245.771877 40.563296
L 246.496984 39.900588
L 246.738686 39.85057
L 247.222091 39.56579
L 247.947198 40.591003
L 248.672305 41.891773
L 249.397412 43.37579
L 249.880817 45.159751
L 250.122519 45.85927
L 250.605923 48.443115
L 250.847626 49.75558
L 251.089328 50.143406
L 251.572733 52.243565
L 251.814435 52.217615
L 252.539542 52.8877
L 253.022947 53.19156
L 253.748053 56.210258
L 255.198267 64.410148
L 255.43997 64.834697
L 255.923374 66.245411
L 256.165077 65.519009
L 256.406779 65.505116
L 256.648481 65.141569
L 256.890184 65.419898
L 257.131886 65.027058
L 257.373588 64.974137
L 257.61529 65.976281
L 258.098695 67.240314
L 258.823802 70.712467
L 259.065504 71.258364
L 259.548909 73.548796
L 259.790611 73.476718
L 260.032314 73.894689
L 260.274016 74.061539
L 260.515718 73.508776
L 260.757421 73.271531
L 261.240825 72.337309
L 261.72423 71.284584
L 261.965932 71.936476
L 262.207634 71.914072
L 262.691039 72.54572
L 263.174444 73.572253
L 263.416146 73.090786
L 263.657848 73.169003
L 263.899551 72.950477
L 264.624658 71.158451
L 264.86636 70.883151
L 265.349764 69.69718
L 265.591467 69.554854
L 266.074871 69.039069
L 266.316574 69.230011
L 266.799978 69.285373
L 267.525085 70.124234
L 267.766788 70.033633
L 268.250192 70.148346
L 268.733597 69.441537
L 269.700406 67.794425
L 270.425513 66.331927
L 270.667215 65.998656
L 271.15062 64.824872
L 271.392322 64.822985
L 271.875727 64.37517
L 272.117429 64.118143
L 272.600834 63.84764
L 273.084238 62.990083
L 273.325941 62.608955
L 274.776155 57.063915
L 275.017857 56.842058
L 275.501262 55.956061
L 276.951475 55.193267
L 277.43488 53.917146
L 277.918285 52.342054
L 279.126796 48.338565
L 279.368499 49.035986
L 279.610201 49.177039
L 280.093606 50.764617
L 280.818712 53.635572
L 281.543819 55.86997
L 282.027224 57.137451
L 282.268926 57.237167
L 282.752331 57.797615
L 283.235736 57.923157
L 283.71914 58.124877
L 284.685949 58.516162
L 284.927652 58.560014
L 285.169354 58.064246
L 285.411056 57.949846
L 287.102973 55.472342
L 287.586377 54.99016
L 287.828079 54.739597
L 288.069782 54.69018
L 288.553186 54.369435
L 288.794889 54.616559
L 289.278293 54.827678
L 290.245103 55.932171
L 290.728507 56.445987
L 290.97021 56.366237
L 291.453614 56.471213
L 291.695316 56.038259
L 291.937019 55.909016
L 292.420423 55.225978
L 295.079149 51.09144
L 295.562553 51.635247
L 296.529363 52.869193
L 298.704684 56.554769
L 301.363409 60.062416
L 301.846814 61.064481
L 303.055325 63.349007
L 304.505539 66.309736
L 305.230646 67.892449
L 305.472348 67.957769
L 305.714051 68.287554
L 306.197455 68.217053
L 306.68086 68.009397
L 308.856181 68.647262
L 309.097883 69.236562
L 309.339585 69.508898
L 309.581288 69.949884
L 311.031501 74.081939
L 311.998311 76.338292
L 313.206822 79.093121
L 315.140441 82.540064
L 317.799166 88.250676
L 319.491082 90.988912
L 319.732785 91.312498
L 320.216189 92.346305
L 320.941296 94.02292
L 321.908105 96.192092
L 322.874915 98.620558
L 324.083426 102.423076
L 324.566831 103.104421
L 325.291938 103.972473
L 325.53364 104.206338
L 327.950663 109.046822
L 328.917473 110.81875
L 331.092793 116.995673
L 332.059603 119.268321
L 333.268114 122.166659
L 334.476626 125.528734
L 335.92684 128.908261
L 336.893649 131.143845
L 337.618756 132.44441
L 337.860458 132.822135
L 339.310672 136.227535
L 341.485993 140.979539
L 342.936207 143.659221
L 344.628123 147.668418
L 346.320039 151.684744
L 347.286848 154.723194
L 350.187276 161.650925
L 351.63749 164.848863
L 352.362597 166.920272
L 353.812811 170.634924
L 356.954941 177.129139
L 358.405155 180.381376
L 358.888559 181.587273
L 498.109091 181.587273
L 498.109091 181.587273
" style="fill:none;stroke:#d62728;stroke-linecap:square;stroke-width:0.8;"/>
   </g>
   <g id="line2d_19">
    <path clip-path="url(#p04a8bb5f66)" d="M 92.290909 74.841225
L 92.774314 74.04015
L 93.257718 73.771731
L 93.499421 73.846925
L 93.741123 73.050682
L 94.224528 73.377878
L 94.46623 73.344573
L 94.707932 73.754071
L 95.191337 75.702405
L 95.674741 79.453663
L 96.641551 90.951544
L 97.124955 89.019865
L 97.366658 89.111183
L 97.60836 88.845235
L 98.091765 88.600353
L 98.333467 89.141828
L 98.816872 89.409952
L 99.300276 89.335298
L 99.783681 90.186642
L 100.75049 92.064238
L 101.233895 92.429257
L 101.475597 92.4203
L 102.200704 91.513408
L 102.442406 90.985207
L 102.684109 90.857527
L 102.925811 90.414458
L 103.650918 88.251301
L 103.89262 88.187743
L 104.376025 87.394668
L 105.584536 87.282614
L 105.826239 87.108452
L 106.551345 86.184651
L 107.03475 85.839429
L 108.484964 85.255501
L 109.451773 85.128098
L 109.693476 85.383335
L 110.17688 85.626777
L 110.901987 86.610399
L 111.143689 86.440935
L 111.385392 86.445202
L 111.627094 86.067159
L 112.352201 83.262431
L 113.077308 78.86815
L 114.285819 70.940109
L 114.527522 69.746302
L 115.010926 68.239263
L 115.494331 67.015908
L 116.702843 64.185319
L 116.944545 64.717007
L 117.186247 64.594143
L 117.42795 64.910991
L 118.878163 70.088128
L 121.536889 84.065625
L 122.503698 88.193168
L 122.7454 88.340979
L 123.470507 90.347565
L 124.437317 91.965855
L 124.679019 92.173652
L 124.920721 91.975006
L 125.404126 91.905016
L 125.645828 91.56025
L 125.88753 91.763977
L 126.129233 91.672432
L 127.579447 89.491119
L 128.062851 87.996799
L 129.029661 85.535593
L 129.513065 83.467799
L 131.204981 76.944388
L 131.446684 76.423585
L 132.171791 74.215634
L 133.380302 71.431495
L 134.347111 69.991993
L 135.313921 68.851665
L 135.797325 67.783931
L 136.522432 65.142533
L 137.247539 62.090392
L 137.489241 62.226649
L 137.730944 62.509347
L 138.214348 63.818744
L 138.697753 65.399326
L 139.906265 69.854406
L 140.147967 69.086526
L 140.389669 69.241707
L 140.631371 68.863793
L 141.114776 67.161348
L 141.839883 63.800079
L 144.015204 52.735141
L 144.740311 50.401324
L 146.190525 46.327498
L 146.432227 45.82702
L 146.673929 45.890261
L 147.157334 45.354135
L 147.640739 45.377991
L 147.882441 45.374755
L 148.365845 45.011813
L 148.607548 44.885663
L 148.84925 44.41499
L 149.090952 44.319088
L 149.332655 43.604143
L 150.782869 36.444913
L 151.507976 33.534809
L 151.749678 33.71233
L 151.99138 33.41178
L 152.474785 33.340904
L 152.958189 33.562883
L 153.683296 33.332727
L 154.166701 33.466933
L 154.650106 33.606918
L 154.891808 33.782932
L 156.583724 36.693242
L 157.067129 38.193821
L 157.308831 38.868087
L 157.550533 39.135441
L 158.033938 40.040162
L 158.27564 40.021664
L 158.759045 40.189618
L 159.725854 40.083887
L 160.209259 40.152425
L 160.450961 40.346404
L 160.934366 40.402624
L 161.41777 41.372808
L 162.38458 43.259396
L 162.626282 43.414354
L 163.109687 43.961614
L 163.834793 43.467243
L 164.076496 43.530506
L 164.5599 43.390083
L 165.043305 43.738287
L 165.285007 43.825662
L 166.010114 43.620991
L 166.251817 43.305076
L 166.493519 43.262849
L 166.976923 42.501033
L 167.460328 41.514428
L 167.70203 41.429868
L 168.185435 40.926417
L 168.66884 40.626729
L 169.393947 40.19171
L 169.635649 39.965464
L 169.877351 39.936486
L 170.602458 39.558604
L 171.085863 39.58017
L 172.536077 40.665249
L 172.777779 40.314229
L 173.019481 40.278276
L 173.261184 40.085782
L 173.986291 38.542812
L 174.711397 37.321996
L 174.9531 37.574041
L 175.194802 37.650649
L 175.436504 37.945939
L 175.678207 38.004172
L 176.161611 38.455868
L 176.645016 38.528088
L 178.09523 38.301552
L 178.336932 38.219226
L 178.578634 38.716047
L 179.062039 39.29264
L 179.787146 41.238296
L 180.028848 41.630674
L 180.512253 42.58044
L 180.753955 42.207554
L 180.995658 42.079371
L 181.23736 41.706771
L 181.479062 41.693014
L 181.962467 41.201231
L 183.170978 41.337842
L 184.621192 40.970287
L 185.104597 40.695592
L 185.588002 40.367634
L 185.829704 40.483054
L 186.313108 40.411202
L 186.796513 40.765648
L 187.038215 41.029115
L 187.279918 40.916175
L 187.52162 41.040779
L 187.763322 41.037218
L 188.488429 40.245909
L 188.730132 40.225294
L 189.213536 39.916182
L 189.696941 40.520547
L 190.905452 44.718339
L 191.630559 46.924321
L 192.113964 48.076182
L 192.355666 48.122729
L 193.322475 49.048806
L 193.564178 49.176551
L 194.530987 50.986685
L 195.014392 52.210067
L 195.497796 52.942298
L 195.739499 53.426101
L 195.981201 53.158294
L 196.222903 53.273331
L 196.464606 53.197129
L 197.914819 50.016241
L 198.156522 50.439568
L 198.398224 50.313013
L 198.881629 50.473332
L 199.365033 51.16773
L 199.606736 51.021902
L 200.09014 51.004034
L 200.331843 50.833604
L 200.573545 50.416895
L 200.815247 50.367803
L 201.782056 48.889376
L 202.265461 47.745625
L 202.507163 47.579566
L 202.990568 46.904745
L 203.715675 46.472904
L 204.440782 45.35565
L 204.682484 45.104929
L 205.165889 44.328313
L 205.649293 43.901626
L 206.3744 43.032202
L 206.616103 42.713804
L 206.857805 42.742869
L 207.34121 42.282805
L 207.824614 43.191355
L 208.066317 43.652038
L 208.308019 43.824851
L 209.274828 45.411634
L 209.51653 45.708483
L 209.758233 45.616367
L 210.241637 46.010336
L 210.48334 46.103184
L 211.450149 45.972131
L 212.416958 46.114017
L 213.142065 45.065755
L 213.867172 43.12278
L 214.108874 42.825345
L 214.592279 41.866318
L 215.317386 40.910974
L 215.559088 40.973256
L 216.284195 40.689436
L 216.7676 40.929285
L 218.217814 40.698416
L 218.942921 42.069675
L 219.184623 42.468166
L 219.668028 43.608052
L 220.393134 44.756122
L 220.876539 45.945431
L 221.118241 46.382654
L 221.601646 48.253737
L 221.843348 49.179254
L 222.085051 49.415152
L 222.568455 50.723765
L 222.810158 50.78061
L 224.018669 52.154436
L 224.502074 52.977785
L 226.19399 58.820491
L 226.435692 59.18118
L 226.919097 60.132731
L 227.160799 59.358705
L 227.402501 59.28786
L 228.127608 57.97574
L 228.369311 57.454957
L 228.611013 57.325639
L 229.33612 56.488255
L 229.819525 55.980056
L 230.302929 54.976152
L 231.269738 51.791993
L 232.719952 48.622524
L 233.445059 47.885149
L 233.686762 47.994827
L 234.170166 47.852914
L 234.895273 48.560451
L 235.136975 48.616497
L 235.62038 48.974048
L 235.862082 48.648374
L 236.103785 48.524923
L 236.828892 46.698178
L 237.553999 45.245126
L 237.795701 44.806655
L 238.279106 43.594432
L 239.245915 41.515608
L 239.487617 41.752584
L 239.971022 41.468557
L 240.696129 41.664373
L 241.179533 41.694064
L 241.421236 41.717865
L 242.629747 40.885084
L 243.113152 40.603128
L 243.596556 40.343517
L 244.079961 40.431849
L 244.563366 40.569878
L 245.04677 40.915325
L 245.288473 40.632586
L 245.771877 40.563296
L 246.496984 39.900588
L 246.738686 39.85057
L 247.222091 39.56579
L 247.947198 40.591003
L 248.672305 41.891773
L 249.397412 43.37579
L 249.880817 45.159751
L 250.122519 45.85927
L 250.605923 48.443115
L 250.847626 49.75558
L 251.089328 50.143406
L 251.572733 52.243565
L 251.814435 52.217615
L 252.539542 52.8877
L 253.022947 53.19156
L 253.748053 56.210258
L 255.198267 64.410148
L 255.43997 64.834697
L 255.923374 66.245411
L 256.165077 65.519009
L 256.406779 65.505116
L 256.648481 65.141569
L 256.890184 65.419898
L 257.131886 65.027058
L 257.373588 64.974137
L 257.61529 65.976281
L 258.098695 67.240314
L 258.823802 70.712467
L 259.065504 71.258364
L 259.548909 73.548796
L 259.790611 73.476718
L 260.032314 73.894689
L 260.274016 74.061539
L 260.515718 73.508776
L 260.757421 73.271531
L 261.240825 72.337309
L 261.72423 71.284584
L 261.965932 71.936476
L 262.207634 71.914072
L 262.691039 72.54572
L 263.174444 73.572253
L 263.416146 73.090786
L 263.657848 73.169003
L 263.899551 72.950477
L 264.624658 71.158451
L 264.86636 70.883151
L 265.349764 69.69718
L 265.591467 69.554854
L 266.074871 69.039069
L 266.316574 69.230011
L 266.799978 69.285373
L 267.525085 70.124234
L 267.766788 70.033633
L 268.250192 70.148346
L 268.733597 69.441537
L 269.700406 67.794425
L 270.425513 66.331927
L 270.667215 65.998656
L 271.15062 64.824872
L 271.392322 64.822985
L 271.875727 64.37517
L 272.117429 64.118143
L 272.600834 63.84764
L 273.084238 62.990083
L 273.325941 62.608955
L 274.776155 57.063915
L 275.017857 56.842058
L 275.501262 55.956061
L 276.951475 55.193267
L 277.43488 53.917146
L 277.918285 52.342054
L 279.126796 48.338565
L 279.368499 49.035986
L 279.610201 49.177039
L 280.093606 50.764617
L 280.818712 53.635572
L 281.543819 55.86997
L 282.027224 57.137451
L 282.268926 57.237167
L 282.752331 57.797615
L 283.235736 57.923157
L 283.71914 58.124877
L 284.685949 58.516162
L 284.927652 58.560014
L 285.169354 58.064246
L 285.411056 57.949846
L 287.102973 55.472342
L 287.586377 54.99016
L 287.828079 54.739597
L 288.069782 54.69018
L 288.553186 54.369435
L 288.794889 54.616559
L 289.278293 54.827678
L 290.97021 57.510238
L 291.453614 57.925439
L 291.695316 57.691895
L 291.937019 57.749146
L 292.178721 57.67011
L 294.595744 55.752416
L 295.079149 55.522191
L 295.562553 56.047534
L 296.529363 57.239583
L 297.737874 59.141752
L 299.671493 62.099894
L 300.880004 63.363852
L 303.53873 68.219956
L 304.263837 69.696905
L 305.230646 71.745933
L 305.472348 71.809036
L 305.714051 72.127623
L 306.197455 72.059516
L 306.68086 71.858911
L 308.856181 72.474654
L 309.097883 73.039106
L 309.581288 73.727546
L 311.031501 77.719304
L 311.998311 79.899046
L 313.206822 82.56034
L 315.382143 86.404743
L 317.799166 91.396411
L 319.491082 94.041675
L 319.732785 94.354275
L 320.216189 95.352943
L 320.941296 96.974759
L 322.149808 99.615029
L 322.633212 100.650581
L 324.083426 105.067012
L 324.566831 105.725223
L 325.291938 106.563803
L 325.53364 106.789727
L 328.192366 111.881702
L 328.917473 113.180936
L 331.092793 119.148132
L 332.059603 121.34615
L 333.268114 124.147019
L 334.476626 127.384097
L 335.92684 130.648878
L 336.893649 132.808557
L 337.618756 134.064679
L 337.860458 134.429673
L 339.310672 137.726473
L 341.485993 142.330572
L 342.936207 144.919268
L 344.628123 148.795582
L 346.320039 152.678796
L 347.286848 155.614083
L 350.187276 162.310056
L 351.63749 165.401146
L 352.362597 167.401224
L 353.812811 170.989749
L 356.713238 176.7773
L 358.646857 181.014109
L 358.888559 181.587273
L 498.109091 181.587273
L 498.109091 181.587273
" style="fill:none;stroke:#9467bd;stroke-linecap:square;stroke-width:0.8;"/>
   </g>
   <g id="legend_1">
    <g id="patch_7">
     <path d="M 450.810937 107.310625
L 511.4 107.310625
Q 513.4 107.310625 513.4 105.310625
L 513.4 32.92
Q 513.4 30.92 511.4 30.92
L 450.810937 30.92
Q 448.810937 30.92 448.810937 32.92
L 448.810937 105.310625
Q 448.810937 107.310625 450.810937 107.310625
z
" style="fill:#ffffff;opacity:0.8;stroke:#cccccc;stroke-linejoin:miter;"/>
    </g>
    <g id="line2d_20">
     <path d="M 452.810937 39.018438
L 472.810937 39.018438
" style="fill:none;stroke:#1f77b4;stroke-linecap:square;stroke-width:0.8;"/>
    </g>
    <g id="line2d_21"/>
    <g id="text_12">
     <!-- 0% -->
     <g style="fill:#696969;" transform="translate(480.810937 42.518438)scale(0.1 -0.1)">
      <defs>
       <path d="M 72.703125 32.078125
Q 68.453125 32.078125 66.03125 28.46875
Q 63.625 24.859375 63.625 18.40625
Q 63.625 12.0625 66.03125 8.421875
Q 68.453125 4.78125 72.703125 4.78125
Q 76.859375 4.78125 79.265625 8.421875
Q 81.6875 12.0625 81.6875 18.40625
Q 81.6875 24.8125 79.265625 28.4375
Q 76.859375 32.078125 72.703125 32.078125
z
M 72.703125 38.28125
Q 80.421875 38.28125 84.953125 32.90625
Q 89.5 27.546875 89.5 18.40625
Q 89.5 9.28125 84.9375 3.921875
Q 80.375 -1.421875 72.703125 -1.421875
Q 64.890625 -1.421875 60.34375 3.921875
Q 55.8125 9.28125 55.8125 18.40625
Q 55.8125 27.59375 60.375 32.9375
Q 64.9375 38.28125 72.703125 38.28125
z
M 22.3125 68.015625
Q 18.109375 68.015625 15.6875 64.375
Q 13.28125 60.75 13.28125 54.390625
Q 13.28125 47.953125 15.671875 44.328125
Q 18.0625 40.71875 22.3125 40.71875
Q 26.5625 40.71875 28.96875 44.328125
Q 31.390625 47.953125 31.390625 54.390625
Q 31.390625 60.6875 28.953125 64.34375
Q 26.515625 68.015625 22.3125 68.015625
z
M 66.40625 74.21875
L 74.21875 74.21875
L 28.609375 -1.421875
L 20.796875 -1.421875
z
M 22.3125 74.21875
Q 30.03125 74.21875 34.609375 68.875
Q 39.203125 63.53125 39.203125 54.390625
Q 39.203125 45.171875 34.640625 39.84375
Q 30.078125 34.515625 22.3125 34.515625
Q 14.546875 34.515625 10.03125 39.859375
Q 5.515625 45.21875 5.515625 54.390625
Q 5.515625 63.484375 10.046875 68.84375
Q 14.59375 74.21875 22.3125 74.21875
z
" id="DejaVuSans-37"/>
      </defs>
      <use xlink:href="#DejaVuSans-48"/>
      <use x="63.623047" xlink:href="#DejaVuSans-37"/>
     </g>
    </g>
    <g id="line2d_22">
     <path d="M 452.810937 53.696562
L 472.810937 53.696562
" style="fill:none;stroke:#ff7f0e;stroke-linecap:square;stroke-width:0.8;"/>
    </g>
    <g id="line2d_23"/>
    <g id="text_13">
     <!-- 10% -->
     <g style="fill:#696969;" transform="translate(480.810937 57.196562)scale(0.1 -0.1)">
      <use xlink:href="#DejaVuSans-49"/>
      <use x="63.623047" xlink:href="#DejaVuSans-48"/>
      <use x="127.246094" xlink:href="#DejaVuSans-37"/>
     </g>
    </g>
    <g id="line2d_24">
     <path d="M 452.810937 68.374687
L 472.810937 68.374687
" style="fill:none;stroke:#2ca02c;stroke-linecap:square;stroke-width:0.8;"/>
    </g>
    <g id="line2d_25"/>
    <g id="text_14">
     <!-- 60% -->
     <g style="fill:#696969;" transform="translate(480.810937 71.874687)scale(0.1 -0.1)">
      <use xlink:href="#DejaVuSans-54"/>
      <use x="63.623047" xlink:href="#DejaVuSans-48"/>
      <use x="127.246094" xlink:href="#DejaVuSans-37"/>
     </g>
    </g>
    <g id="line2d_26">
     <path d="M 452.810937 83.052813
L 472.810937 83.052813
" style="fill:none;stroke:#d62728;stroke-linecap:square;stroke-width:0.8;"/>
    </g>
    <g id="line2d_27"/>
    <g id="text_15">
     <!-- 100% -->
     <g style="fill:#696969;" transform="translate(480.810937 86.552813)scale(0.1 -0.1)">
      <use xlink:href="#DejaVuSans-49"/>
      <use x="63.623047" xlink:href="#DejaVuSans-48"/>
      <use x="127.246094" xlink:href="#DejaVuSans-48"/>
      <use x="190.869141" xlink:href="#DejaVuSans-37"/>
     </g>
    </g>
    <g id="line2d_28">
     <path d="M 452.810937 97.730938
L 472.810937 97.730938
" style="fill:none;stroke:#9467bd;stroke-linecap:square;stroke-width:0.8;"/>
    </g>
    <g id="line2d_29"/>
    <g id="text_16">
     <!-- 200% -->
     <g style="fill:#696969;" transform="translate(480.810937 101.230938)scale(0.1 -0.1)">
      <use xlink:href="#DejaVuSans-50"/>
      <use x="63.623047" xlink:href="#DejaVuSans-48"/>
      <use x="127.246094" xlink:href="#DejaVuSans-48"/>
      <use x="190.869141" xlink:href="#DejaVuSans-37"/>
     </g>
    </g>
   </g>
  </g>
  <g id="text_17">
   <!-- A_c -->
   <g style="fill:#696969;" transform="translate(277.596563 13.104375)scale(0.12 -0.12)">
    <defs>
     <path d="M 34.1875 63.1875
L 20.796875 26.90625
L 47.609375 26.90625
z
M 28.609375 72.90625
L 39.796875 72.90625
L 67.578125 0
L 57.328125 0
L 50.6875 18.703125
L 17.828125 18.703125
L 11.1875 0
L 0.78125 0
z
" id="DejaVuSans-65"/>
     <path d="M 48.78125 52.59375
L 48.78125 44.1875
Q 44.96875 46.296875 41.140625 47.34375
Q 37.3125 48.390625 33.40625 48.390625
Q 24.65625 48.390625 19.8125 42.84375
Q 14.984375 37.3125 14.984375 27.296875
Q 14.984375 17.28125 19.8125 11.734375
Q 24.65625 6.203125 33.40625 6.203125
Q 37.3125 6.203125 41.140625 7.25
Q 44.96875 8.296875 48.78125 10.40625
L 48.78125 2.09375
Q 45.015625 0.34375 40.984375 -0.53125
Q 36.96875 -1.421875 32.421875 -1.421875
Q 20.0625 -1.421875 12.78125 6.34375
Q 5.515625 14.109375 5.515625 27.296875
Q 5.515625 40.671875 12.859375 48.328125
Q 20.21875 56 33.015625 56
Q 37.15625 56 41.109375 55.140625
Q 45.0625 54.296875 48.78125 52.59375
z
" id="DejaVuSans-99"/>
    </defs>
    <use xlink:href="#DejaVuSans-65"/>
    <use x="68.408203" xlink:href="#DejaVuSans-95"/>
    <use x="118.408203" xlink:href="#DejaVuSans-99"/>
   </g>
  </g>
 </g>
 <defs>
  <clipPath id="p04a8bb5f66">
   <rect height="163.08" width="446.4" x="72" y="25.92"/>
  </clipPath>
 </defs>
</svg>
