<?xml version="1.0" encoding="utf-8" standalone="no"?>
<!DOCTYPE svg PUBLIC "-//W3C//DTD SVG 1.1//EN"
  "http://www.w3.org/Graphics/SVG/1.1/DTD/svg11.dtd">
<!-- Created with matplotlib (https://matplotlib.org/) -->
<svg height="216pt" version="1.1" viewBox="0 0 576 216" width="576pt" xmlns="http://www.w3.org/2000/svg" xmlns:xlink="http://www.w3.org/1999/xlink">
 <metadata>
  <rdf:RDF xmlns:cc="http://creativecommons.org/ns#" xmlns:dc="http://purl.org/dc/elements/1.1/" xmlns:rdf="http://www.w3.org/1999/02/22-rdf-syntax-ns#">
   <cc:Work>
    <dc:type rdf:resource="http://purl.org/dc/dcmitype/StillImage"/>
    <dc:date>2020-11-03T11:22:58.984364</dc:date>
    <dc:format>image/svg+xml</dc:format>
    <dc:creator>
     <cc:Agent>
      <dc:title>Matplotlib v3.3.2, https://matplotlib.org/</dc:title>
     </cc:Agent>
    </dc:creator>
   </cc:Work>
  </rdf:RDF>
 </metadata>
 <defs>
  <style type="text/css">*{stroke-linecap:butt;stroke-linejoin:round;}</style>
 </defs>
 <g id="figure_1">
  <g id="patch_1">
   <path d="M 0 216
L 576 216
L 576 0
L 0 0
z
" style="fill:none;"/>
  </g>
  <g id="axes_1">
   <g id="patch_2">
    <path d="M 72 189
L 518.4 189
L 518.4 25.92
L 72 25.92
z
" style="fill:none;"/>
   </g>
   <g id="line2d_1">
    <path clip-path="url(#p03053142fa)" d="M 92.290909 181.559739
L 93.257718 181.587273
L 93.499421 181.254634
L 93.741123 175.059193
L 94.224528 154.299253
L 96.399848 43.859759
L 96.641551 37.780428
L 96.883253 37.059625
L 98.091765 37.096548
L 99.541978 37.106944
L 99.783681 37.193722
L 100.025383 37.468117
L 100.267085 37.211461
L 100.75049 37.306976
L 101.959002 34.544746
L 102.200704 34.169617
L 102.442406 33.483946
L 102.684109 33.341224
L 104.859429 33.388612
L 105.101132 33.332727
L 105.342834 33.620309
L 105.826239 34.802084
L 106.793048 38.542506
L 107.759857 40.71295
L 108.243262 41.131873
L 109.210071 41.05603
L 110.901987 40.939599
L 111.143689 41.448393
L 111.385392 41.631967
L 111.627094 41.540853
L 112.352201 38.468828
L 112.835606 37.744385
L 113.077308 37.386913
L 113.560713 36.416109
L 114.044117 35.778137
L 116.46114 35.834292
L 116.702843 36.02095
L 116.944545 37.532185
L 117.42795 42.958363
L 118.878163 63.081771
L 119.361568 68.987459
L 119.844973 73.35147
L 120.086675 73.633361
L 121.295187 73.431551
L 122.261996 73.321207
L 122.503698 73.065136
L 122.987103 70.511712
L 123.228805 69.452329
L 123.71221 68.50868
L 123.953912 68.432643
L 124.679019 71.572603
L 125.404126 73.332719
L 125.645828 72.366843
L 125.88753 71.966407
L 128.062851 71.94534
L 128.787958 72.082607
L 129.029661 72.277577
L 129.271363 72.215752
L 129.513065 72.452728
L 129.754767 72.408026
L 130.721577 69.011954
L 131.204981 67.342178
L 131.446684 67.071151
L 131.930088 66.983909
L 134.105409 66.951698
L 134.347111 67.136484
L 135.555623 68.615027
L 136.039028 69.778759
L 136.28073 70.306155
L 136.764134 71.741852
L 137.247539 72.529823
L 138.939455 72.371838
L 139.906265 72.302072
L 140.147967 72.41865
L 140.873074 74.344444
L 141.356478 75.168895
L 142.806692 78.839276
L 143.290097 79.103037
L 145.70712 79.228017
L 146.432227 82.015559
L 148.124143 93.266285
L 148.607548 97.818734
L 148.84925 98.279015
L 149.332655 98.354024
L 151.507976 98.381556
L 151.749678 98.884171
L 151.99138 99.711319
L 152.474785 102.57483
L 153.199892 107.362407
L 153.924999 110.61795
L 154.166701 110.982746
L 154.408403 110.757569
L 154.650106 111.518748
L 155.616915 111.460667
L 157.308831 111.366753
L 157.550533 111.959351
L 158.759045 119.061064
L 160.450961 130.293659
L 160.692663 130.415317
L 162.867984 130.283721
L 163.109687 130.371452
L 163.834793 134.656887
L 166.251817 154.080136
L 166.493519 154.34482
L 168.66884 154.241734
L 168.910542 154.373769
L 169.877351 161.493241
L 172.052672 178.62454
L 172.294374 179.091024
L 174.227993 179.028817
L 498.109091 179.028817
L 498.109091 179.028817
" style="fill:none;stroke:#1f77b4;stroke-linecap:square;stroke-width:0.8;"/>
   </g>
   <g id="line2d_2">
    <path clip-path="url(#p03053142fa)" d="M 92.290909 181.559739
L 93.257718 181.587273
L 93.499421 181.254634
L 93.741123 175.059193
L 94.224528 154.299253
L 96.399848 43.859759
L 96.641551 37.780428
L 96.883253 37.059625
L 98.091765 37.096548
L 99.541978 37.106944
L 99.783681 37.193722
L 100.025383 37.468117
L 100.267085 37.211461
L 100.75049 37.306976
L 101.959002 34.544746
L 102.200704 34.169617
L 102.442406 33.483946
L 102.684109 33.341224
L 104.859429 33.388612
L 105.101132 33.332727
L 105.342834 33.620309
L 105.826239 34.802084
L 106.793048 38.542506
L 107.759857 40.71295
L 108.243262 41.131873
L 109.210071 41.05603
L 110.901987 40.939599
L 111.143689 41.448393
L 111.385392 41.631967
L 111.627094 41.540853
L 112.352201 38.468828
L 112.835606 37.744385
L 113.077308 37.386913
L 113.560713 36.416109
L 114.044117 35.778137
L 116.46114 35.834292
L 116.702843 36.02095
L 116.944545 37.532185
L 117.42795 42.958363
L 118.878163 63.081771
L 119.361568 68.987459
L 119.844973 73.35147
L 120.086675 73.633361
L 121.295187 73.431551
L 122.261996 73.321207
L 122.503698 73.065136
L 122.987103 70.511712
L 123.228805 69.452329
L 123.71221 68.50868
L 123.953912 68.432643
L 124.679019 71.572603
L 125.404126 73.332719
L 125.645828 72.366843
L 125.88753 71.966407
L 128.062851 71.94534
L 128.787958 72.082607
L 129.029661 72.277577
L 129.271363 72.215752
L 129.513065 72.452728
L 129.754767 72.408026
L 130.721577 69.011954
L 131.204981 67.342178
L 131.446684 67.071151
L 131.930088 66.983909
L 134.105409 66.951698
L 134.347111 67.136484
L 135.555623 68.615027
L 136.039028 69.778759
L 136.28073 70.306155
L 136.764134 71.741852
L 137.247539 72.529823
L 138.939455 72.371838
L 139.906265 72.302072
L 140.147967 72.41865
L 140.873074 74.344444
L 141.356478 75.168895
L 142.806692 78.839276
L 143.290097 79.103037
L 145.70712 79.228017
L 146.432227 82.015559
L 148.124143 93.266285
L 148.607548 97.818734
L 148.84925 98.279015
L 149.332655 98.354024
L 151.507976 98.381556
L 151.749678 98.884171
L 151.99138 99.711319
L 152.474785 102.57483
L 153.199892 107.362407
L 153.924999 110.61795
L 154.166701 110.982746
L 154.408403 110.757569
L 154.650106 111.518748
L 155.616915 111.460667
L 157.308831 111.366753
L 157.550533 111.959351
L 158.759045 119.061064
L 160.450961 130.293659
L 160.692663 130.415317
L 162.867984 130.283721
L 163.109687 130.371452
L 163.834793 134.656887
L 166.251817 154.080136
L 166.493519 154.34482
L 168.66884 154.241734
L 168.910542 154.373769
L 169.877351 161.493241
L 172.052672 178.62454
L 172.294374 179.091024
L 174.227993 179.028817
L 498.109091 179.028817
L 498.109091 179.028817
" style="fill:none;stroke:#ff7f0e;stroke-linecap:square;stroke-width:0.8;"/>
   </g>
   <g id="matplotlib.axis_1">
    <g id="xtick_1">
     <g id="line2d_3">
      <defs>
       <path d="M 0 0
L 0 1.5
" id="mb481f9a55a" style="stroke:#696969;stroke-width:0.8;"/>
      </defs>
      <g>
       <use style="fill:#696969;stroke:#696969;stroke-width:0.8;" x="92.290909" xlink:href="#mb481f9a55a" y="189"/>
      </g>
     </g>
     <g id="text_1">
      <!-- 150 -->
      <g style="fill:#696969;" transform="translate(82.747159 201.598437)scale(0.1 -0.1)">
       <defs>
        <path d="M 12.40625 8.296875
L 28.515625 8.296875
L 28.515625 63.921875
L 10.984375 60.40625
L 10.984375 69.390625
L 28.421875 72.90625
L 38.28125 72.90625
L 38.28125 8.296875
L 54.390625 8.296875
L 54.390625 0
L 12.40625 0
z
" id="DejaVuSans-49"/>
        <path d="M 10.796875 72.90625
L 49.515625 72.90625
L 49.515625 64.59375
L 19.828125 64.59375
L 19.828125 46.734375
Q 21.96875 47.46875 24.109375 47.828125
Q 26.265625 48.1875 28.421875 48.1875
Q 40.625 48.1875 47.75 41.5
Q 54.890625 34.8125 54.890625 23.390625
Q 54.890625 11.625 47.5625 5.09375
Q 40.234375 -1.421875 26.90625 -1.421875
Q 22.3125 -1.421875 17.546875 -0.640625
Q 12.796875 0.140625 7.71875 1.703125
L 7.71875 11.625
Q 12.109375 9.234375 16.796875 8.0625
Q 21.484375 6.890625 26.703125 6.890625
Q 35.15625 6.890625 40.078125 11.328125
Q 45.015625 15.765625 45.015625 23.390625
Q 45.015625 31 40.078125 35.4375
Q 35.15625 39.890625 26.703125 39.890625
Q 22.75 39.890625 18.8125 39.015625
Q 14.890625 38.140625 10.796875 36.28125
z
" id="DejaVuSans-53"/>
        <path d="M 31.78125 66.40625
Q 24.171875 66.40625 20.328125 58.90625
Q 16.5 51.421875 16.5 36.375
Q 16.5 21.390625 20.328125 13.890625
Q 24.171875 6.390625 31.78125 6.390625
Q 39.453125 6.390625 43.28125 13.890625
Q 47.125 21.390625 47.125 36.375
Q 47.125 51.421875 43.28125 58.90625
Q 39.453125 66.40625 31.78125 66.40625
z
M 31.78125 74.21875
Q 44.046875 74.21875 50.515625 64.515625
Q 56.984375 54.828125 56.984375 36.375
Q 56.984375 17.96875 50.515625 8.265625
Q 44.046875 -1.421875 31.78125 -1.421875
Q 19.53125 -1.421875 13.0625 8.265625
Q 6.59375 17.96875 6.59375 36.375
Q 6.59375 54.828125 13.0625 64.515625
Q 19.53125 74.21875 31.78125 74.21875
z
" id="DejaVuSans-48"/>
       </defs>
       <use xlink:href="#DejaVuSans-49"/>
       <use x="63.623047" xlink:href="#DejaVuSans-53"/>
       <use x="127.246094" xlink:href="#DejaVuSans-48"/>
      </g>
     </g>
    </g>
    <g id="xtick_2">
     <g id="line2d_4">
      <g>
       <use style="fill:#696969;stroke:#696969;stroke-width:0.8;" x="227.644204" xlink:href="#mb481f9a55a" y="189"/>
      </g>
     </g>
     <g id="text_2">
      <!-- 173 -->
      <g style="fill:#696969;" transform="translate(218.100454 201.598437)scale(0.1 -0.1)">
       <defs>
        <path d="M 8.203125 72.90625
L 55.078125 72.90625
L 55.078125 68.703125
L 28.609375 0
L 18.3125 0
L 43.21875 64.59375
L 8.203125 64.59375
z
" id="DejaVuSans-55"/>
        <path d="M 40.578125 39.3125
Q 47.65625 37.796875 51.625 33
Q 55.609375 28.21875 55.609375 21.1875
Q 55.609375 10.40625 48.1875 4.484375
Q 40.765625 -1.421875 27.09375 -1.421875
Q 22.515625 -1.421875 17.65625 -0.515625
Q 12.796875 0.390625 7.625 2.203125
L 7.625 11.71875
Q 11.71875 9.328125 16.59375 8.109375
Q 21.484375 6.890625 26.8125 6.890625
Q 36.078125 6.890625 40.9375 10.546875
Q 45.796875 14.203125 45.796875 21.1875
Q 45.796875 27.640625 41.28125 31.265625
Q 36.765625 34.90625 28.71875 34.90625
L 20.21875 34.90625
L 20.21875 43.015625
L 29.109375 43.015625
Q 36.375 43.015625 40.234375 45.921875
Q 44.09375 48.828125 44.09375 54.296875
Q 44.09375 59.90625 40.109375 62.90625
Q 36.140625 65.921875 28.71875 65.921875
Q 24.65625 65.921875 20.015625 65.03125
Q 15.375 64.15625 9.8125 62.3125
L 9.8125 71.09375
Q 15.4375 72.65625 20.34375 73.4375
Q 25.25 74.21875 29.59375 74.21875
Q 40.828125 74.21875 47.359375 69.109375
Q 53.90625 64.015625 53.90625 55.328125
Q 53.90625 49.265625 50.4375 45.09375
Q 46.96875 40.921875 40.578125 39.3125
z
" id="DejaVuSans-51"/>
       </defs>
       <use xlink:href="#DejaVuSans-49"/>
       <use x="63.623047" xlink:href="#DejaVuSans-55"/>
       <use x="127.246094" xlink:href="#DejaVuSans-51"/>
      </g>
     </g>
    </g>
    <g id="xtick_3">
     <g id="line2d_5">
      <g>
       <use style="fill:#696969;stroke:#696969;stroke-width:0.8;" x="362.997499" xlink:href="#mb481f9a55a" y="189"/>
      </g>
     </g>
     <g id="text_3">
      <!-- 196 -->
      <g style="fill:#696969;" transform="translate(353.453749 201.598437)scale(0.1 -0.1)">
       <defs>
        <path d="M 10.984375 1.515625
L 10.984375 10.5
Q 14.703125 8.734375 18.5 7.8125
Q 22.3125 6.890625 25.984375 6.890625
Q 35.75 6.890625 40.890625 13.453125
Q 46.046875 20.015625 46.78125 33.40625
Q 43.953125 29.203125 39.59375 26.953125
Q 35.25 24.703125 29.984375 24.703125
Q 19.046875 24.703125 12.671875 31.3125
Q 6.296875 37.9375 6.296875 49.421875
Q 6.296875 60.640625 12.9375 67.421875
Q 19.578125 74.21875 30.609375 74.21875
Q 43.265625 74.21875 49.921875 64.515625
Q 56.59375 54.828125 56.59375 36.375
Q 56.59375 19.140625 48.40625 8.859375
Q 40.234375 -1.421875 26.421875 -1.421875
Q 22.703125 -1.421875 18.890625 -0.6875
Q 15.09375 0.046875 10.984375 1.515625
z
M 30.609375 32.421875
Q 37.25 32.421875 41.125 36.953125
Q 45.015625 41.5 45.015625 49.421875
Q 45.015625 57.28125 41.125 61.84375
Q 37.25 66.40625 30.609375 66.40625
Q 23.96875 66.40625 20.09375 61.84375
Q 16.21875 57.28125 16.21875 49.421875
Q 16.21875 41.5 20.09375 36.953125
Q 23.96875 32.421875 30.609375 32.421875
z
" id="DejaVuSans-57"/>
        <path d="M 33.015625 40.375
Q 26.375 40.375 22.484375 35.828125
Q 18.609375 31.296875 18.609375 23.390625
Q 18.609375 15.53125 22.484375 10.953125
Q 26.375 6.390625 33.015625 6.390625
Q 39.65625 6.390625 43.53125 10.953125
Q 47.40625 15.53125 47.40625 23.390625
Q 47.40625 31.296875 43.53125 35.828125
Q 39.65625 40.375 33.015625 40.375
z
M 52.59375 71.296875
L 52.59375 62.3125
Q 48.875 64.0625 45.09375 64.984375
Q 41.3125 65.921875 37.59375 65.921875
Q 27.828125 65.921875 22.671875 59.328125
Q 17.53125 52.734375 16.796875 39.40625
Q 19.671875 43.65625 24.015625 45.921875
Q 28.375 48.1875 33.59375 48.1875
Q 44.578125 48.1875 50.953125 41.515625
Q 57.328125 34.859375 57.328125 23.390625
Q 57.328125 12.15625 50.6875 5.359375
Q 44.046875 -1.421875 33.015625 -1.421875
Q 20.359375 -1.421875 13.671875 8.265625
Q 6.984375 17.96875 6.984375 36.375
Q 6.984375 53.65625 15.1875 63.9375
Q 23.390625 74.21875 37.203125 74.21875
Q 40.921875 74.21875 44.703125 73.484375
Q 48.484375 72.75 52.59375 71.296875
z
" id="DejaVuSans-54"/>
       </defs>
       <use xlink:href="#DejaVuSans-49"/>
       <use x="63.623047" xlink:href="#DejaVuSans-57"/>
       <use x="127.246094" xlink:href="#DejaVuSans-54"/>
      </g>
     </g>
    </g>
    <g id="xtick_4">
     <g id="line2d_6">
      <g>
       <use style="fill:#696969;stroke:#696969;stroke-width:0.8;" x="498.350793" xlink:href="#mb481f9a55a" y="189"/>
      </g>
     </g>
     <g id="text_4">
      <!-- 220 -->
      <g style="fill:#696969;" transform="translate(488.807043 201.598437)scale(0.1 -0.1)">
       <defs>
        <path d="M 19.1875 8.296875
L 53.609375 8.296875
L 53.609375 0
L 7.328125 0
L 7.328125 8.296875
Q 12.9375 14.109375 22.625 23.890625
Q 32.328125 33.6875 34.8125 36.53125
Q 39.546875 41.84375 41.421875 45.53125
Q 43.3125 49.21875 43.3125 52.78125
Q 43.3125 58.59375 39.234375 62.25
Q 35.15625 65.921875 28.609375 65.921875
Q 23.96875 65.921875 18.8125 64.3125
Q 13.671875 62.703125 7.8125 59.421875
L 7.8125 69.390625
Q 13.765625 71.78125 18.9375 73
Q 24.125 74.21875 28.421875 74.21875
Q 39.75 74.21875 46.484375 68.546875
Q 53.21875 62.890625 53.21875 53.421875
Q 53.21875 48.921875 51.53125 44.890625
Q 49.859375 40.875 45.40625 35.40625
Q 44.1875 33.984375 37.640625 27.21875
Q 31.109375 20.453125 19.1875 8.296875
z
" id="DejaVuSans-50"/>
       </defs>
       <use xlink:href="#DejaVuSans-50"/>
       <use x="63.623047" xlink:href="#DejaVuSans-50"/>
       <use x="127.246094" xlink:href="#DejaVuSans-48"/>
      </g>
     </g>
    </g>
    <g id="text_5">
     <!-- Days -->
     <g style="fill:#696969;" transform="translate(282.721875 215.276563)scale(0.1 -0.1)">
      <defs>
       <path d="M 19.671875 64.796875
L 19.671875 8.109375
L 31.59375 8.109375
Q 46.6875 8.109375 53.6875 14.9375
Q 60.6875 21.78125 60.6875 36.53125
Q 60.6875 51.171875 53.6875 57.984375
Q 46.6875 64.796875 31.59375 64.796875
z
M 9.8125 72.90625
L 30.078125 72.90625
Q 51.265625 72.90625 61.171875 64.09375
Q 71.09375 55.28125 71.09375 36.53125
Q 71.09375 17.671875 61.125 8.828125
Q 51.171875 0 30.078125 0
L 9.8125 0
z
" id="DejaVuSans-68"/>
       <path d="M 34.28125 27.484375
Q 23.390625 27.484375 19.1875 25
Q 14.984375 22.515625 14.984375 16.5
Q 14.984375 11.71875 18.140625 8.90625
Q 21.296875 6.109375 26.703125 6.109375
Q 34.1875 6.109375 38.703125 11.40625
Q 43.21875 16.703125 43.21875 25.484375
L 43.21875 27.484375
z
M 52.203125 31.203125
L 52.203125 0
L 43.21875 0
L 43.21875 8.296875
Q 40.140625 3.328125 35.546875 0.953125
Q 30.953125 -1.421875 24.3125 -1.421875
Q 15.921875 -1.421875 10.953125 3.296875
Q 6 8.015625 6 15.921875
Q 6 25.140625 12.171875 29.828125
Q 18.359375 34.515625 30.609375 34.515625
L 43.21875 34.515625
L 43.21875 35.40625
Q 43.21875 41.609375 39.140625 45
Q 35.0625 48.390625 27.6875 48.390625
Q 23 48.390625 18.546875 47.265625
Q 14.109375 46.140625 10.015625 43.890625
L 10.015625 52.203125
Q 14.9375 54.109375 19.578125 55.046875
Q 24.21875 56 28.609375 56
Q 40.484375 56 46.34375 49.84375
Q 52.203125 43.703125 52.203125 31.203125
z
" id="DejaVuSans-97"/>
       <path d="M 32.171875 -5.078125
Q 28.375 -14.84375 24.75 -17.8125
Q 21.140625 -20.796875 15.09375 -20.796875
L 7.90625 -20.796875
L 7.90625 -13.28125
L 13.1875 -13.28125
Q 16.890625 -13.28125 18.9375 -11.515625
Q 21 -9.765625 23.484375 -3.21875
L 25.09375 0.875
L 2.984375 54.6875
L 12.5 54.6875
L 29.59375 11.921875
L 46.6875 54.6875
L 56.203125 54.6875
z
" id="DejaVuSans-121"/>
       <path d="M 44.28125 53.078125
L 44.28125 44.578125
Q 40.484375 46.53125 36.375 47.5
Q 32.28125 48.484375 27.875 48.484375
Q 21.1875 48.484375 17.84375 46.4375
Q 14.5 44.390625 14.5 40.28125
Q 14.5 37.15625 16.890625 35.375
Q 19.28125 33.59375 26.515625 31.984375
L 29.59375 31.296875
Q 39.15625 29.25 43.1875 25.515625
Q 47.21875 21.78125 47.21875 15.09375
Q 47.21875 7.46875 41.1875 3.015625
Q 35.15625 -1.421875 24.609375 -1.421875
Q 20.21875 -1.421875 15.453125 -0.5625
Q 10.6875 0.296875 5.421875 2
L 5.421875 11.28125
Q 10.40625 8.6875 15.234375 7.390625
Q 20.0625 6.109375 24.8125 6.109375
Q 31.15625 6.109375 34.5625 8.28125
Q 37.984375 10.453125 37.984375 14.40625
Q 37.984375 18.0625 35.515625 20.015625
Q 33.0625 21.96875 24.703125 23.78125
L 21.578125 24.515625
Q 13.234375 26.265625 9.515625 29.90625
Q 5.8125 33.546875 5.8125 39.890625
Q 5.8125 47.609375 11.28125 51.796875
Q 16.75 56 26.8125 56
Q 31.78125 56 36.171875 55.265625
Q 40.578125 54.546875 44.28125 53.078125
z
" id="DejaVuSans-115"/>
      </defs>
      <use xlink:href="#DejaVuSans-68"/>
      <use x="77.001953" xlink:href="#DejaVuSans-97"/>
      <use x="138.28125" xlink:href="#DejaVuSans-121"/>
      <use x="197.460938" xlink:href="#DejaVuSans-115"/>
     </g>
    </g>
   </g>
   <g id="matplotlib.axis_2">
    <g id="ytick_1">
     <g id="line2d_7">
      <path clip-path="url(#p03053142fa)" d="M 72 179.028817
L 518.4 179.028817
" style="fill:none;stroke:#b0b0b0;stroke-linecap:square;stroke-width:0.8;"/>
     </g>
     <g id="line2d_8">
      <defs>
       <path d="M 0 0
L -1 0
" id="mdae43f9679" style="stroke:#696969;stroke-width:0.2;"/>
      </defs>
      <g>
       <use style="fill:#696969;stroke:#696969;stroke-width:0.2;" x="72" xlink:href="#mdae43f9679" y="179.028817"/>
      </g>
     </g>
     <g id="text_6">
      <!-- 0 -->
      <g style="fill:#696969;" transform="translate(61.1375 182.828036)scale(0.1 -0.1)">
       <use xlink:href="#DejaVuSans-48"/>
      </g>
     </g>
    </g>
    <g id="ytick_2">
     <g id="line2d_9">
      <path clip-path="url(#p03053142fa)" d="M 72 158.281963
L 518.4 158.281963
" style="fill:none;stroke:#b0b0b0;stroke-linecap:square;stroke-width:0.8;"/>
     </g>
     <g id="line2d_10">
      <g>
       <use style="fill:#696969;stroke:#696969;stroke-width:0.2;" x="72" xlink:href="#mdae43f9679" y="158.281963"/>
      </g>
     </g>
     <g id="text_7">
      <!-- 5 -->
      <g style="fill:#696969;" transform="translate(61.1375 162.081182)scale(0.1 -0.1)">
       <use xlink:href="#DejaVuSans-53"/>
      </g>
     </g>
    </g>
    <g id="ytick_3">
     <g id="line2d_11">
      <path clip-path="url(#p03053142fa)" d="M 72 137.53511
L 518.4 137.53511
" style="fill:none;stroke:#b0b0b0;stroke-linecap:square;stroke-width:0.8;"/>
     </g>
     <g id="line2d_12">
      <g>
       <use style="fill:#696969;stroke:#696969;stroke-width:0.2;" x="72" xlink:href="#mdae43f9679" y="137.53511"/>
      </g>
     </g>
     <g id="text_8">
      <!-- 10 -->
      <g style="fill:#696969;" transform="translate(54.775 141.334329)scale(0.1 -0.1)">
       <use xlink:href="#DejaVuSans-49"/>
       <use x="63.623047" xlink:href="#DejaVuSans-48"/>
      </g>
     </g>
    </g>
    <g id="ytick_4">
     <g id="line2d_13">
      <path clip-path="url(#p03053142fa)" d="M 72 116.788256
L 518.4 116.788256
" style="fill:none;stroke:#b0b0b0;stroke-linecap:square;stroke-width:0.8;"/>
     </g>
     <g id="line2d_14">
      <g>
       <use style="fill:#696969;stroke:#696969;stroke-width:0.2;" x="72" xlink:href="#mdae43f9679" y="116.788256"/>
      </g>
     </g>
     <g id="text_9">
      <!-- 15 -->
      <g style="fill:#696969;" transform="translate(54.775 120.587475)scale(0.1 -0.1)">
       <use xlink:href="#DejaVuSans-49"/>
       <use x="63.623047" xlink:href="#DejaVuSans-53"/>
      </g>
     </g>
    </g>
    <g id="ytick_5">
     <g id="line2d_15">
      <path clip-path="url(#p03053142fa)" d="M 72 96.041402
L 518.4 96.041402
" style="fill:none;stroke:#b0b0b0;stroke-linecap:square;stroke-width:0.8;"/>
     </g>
     <g id="line2d_16">
      <g>
       <use style="fill:#696969;stroke:#696969;stroke-width:0.2;" x="72" xlink:href="#mdae43f9679" y="96.041402"/>
      </g>
     </g>
     <g id="text_10">
      <!-- 20 -->
      <g style="fill:#696969;" transform="translate(54.775 99.840621)scale(0.1 -0.1)">
       <use xlink:href="#DejaVuSans-50"/>
       <use x="63.623047" xlink:href="#DejaVuSans-48"/>
      </g>
     </g>
    </g>
    <g id="ytick_6">
     <g id="line2d_17">
      <path clip-path="url(#p03053142fa)" d="M 72 75.294549
L 518.4 75.294549
" style="fill:none;stroke:#b0b0b0;stroke-linecap:square;stroke-width:0.8;"/>
     </g>
     <g id="line2d_18">
      <g>
       <use style="fill:#696969;stroke:#696969;stroke-width:0.2;" x="72" xlink:href="#mdae43f9679" y="75.294549"/>
      </g>
     </g>
     <g id="text_11">
      <!-- 25 -->
      <g style="fill:#696969;" transform="translate(54.775 79.093767)scale(0.1 -0.1)">
       <use xlink:href="#DejaVuSans-50"/>
       <use x="63.623047" xlink:href="#DejaVuSans-53"/>
      </g>
     </g>
    </g>
    <g id="ytick_7">
     <g id="line2d_19">
      <path clip-path="url(#p03053142fa)" d="M 72 54.547695
L 518.4 54.547695
" style="fill:none;stroke:#b0b0b0;stroke-linecap:square;stroke-width:0.8;"/>
     </g>
     <g id="line2d_20">
      <g>
       <use style="fill:#696969;stroke:#696969;stroke-width:0.2;" x="72" xlink:href="#mdae43f9679" y="54.547695"/>
      </g>
     </g>
     <g id="text_12">
      <!-- 30 -->
      <g style="fill:#696969;" transform="translate(54.775 58.346914)scale(0.1 -0.1)">
       <use xlink:href="#DejaVuSans-51"/>
       <use x="63.623047" xlink:href="#DejaVuSans-48"/>
      </g>
     </g>
    </g>
    <g id="ytick_8">
     <g id="line2d_21">
      <path clip-path="url(#p03053142fa)" d="M 72 33.800841
L 518.4 33.800841
" style="fill:none;stroke:#b0b0b0;stroke-linecap:square;stroke-width:0.8;"/>
     </g>
     <g id="line2d_22">
      <g>
       <use style="fill:#696969;stroke:#696969;stroke-width:0.2;" x="72" xlink:href="#mdae43f9679" y="33.800841"/>
      </g>
     </g>
     <g id="text_13">
      <!-- 35 -->
      <g style="fill:#696969;" transform="translate(54.775 37.60006)scale(0.1 -0.1)">
       <use xlink:href="#DejaVuSans-51"/>
       <use x="63.623047" xlink:href="#DejaVuSans-53"/>
      </g>
     </g>
    </g>
    <g id="text_14">
     <!--  (Unit._unknown) -->
     <g style="fill:#696969;" transform="translate(48.417187 149.935781)rotate(-90)scale(0.1 -0.1)">
      <defs>
       <path id="DejaVuSans-32"/>
       <path d="M 31 75.875
Q 24.46875 64.65625 21.28125 53.65625
Q 18.109375 42.671875 18.109375 31.390625
Q 18.109375 20.125 21.3125 9.0625
Q 24.515625 -2 31 -13.1875
L 23.1875 -13.1875
Q 15.875 -1.703125 12.234375 9.375
Q 8.59375 20.453125 8.59375 31.390625
Q 8.59375 42.28125 12.203125 53.3125
Q 15.828125 64.359375 23.1875 75.875
z
" id="DejaVuSans-40"/>
       <path d="M 8.6875 72.90625
L 18.609375 72.90625
L 18.609375 28.609375
Q 18.609375 16.890625 22.84375 11.734375
Q 27.09375 6.59375 36.625 6.59375
Q 46.09375 6.59375 50.34375 11.734375
Q 54.59375 16.890625 54.59375 28.609375
L 54.59375 72.90625
L 64.5 72.90625
L 64.5 27.390625
Q 64.5 13.140625 57.4375 5.859375
Q 50.390625 -1.421875 36.625 -1.421875
Q 22.796875 -1.421875 15.734375 5.859375
Q 8.6875 13.140625 8.6875 27.390625
z
" id="DejaVuSans-85"/>
       <path d="M 54.890625 33.015625
L 54.890625 0
L 45.90625 0
L 45.90625 32.71875
Q 45.90625 40.484375 42.875 44.328125
Q 39.84375 48.1875 33.796875 48.1875
Q 26.515625 48.1875 22.3125 43.546875
Q 18.109375 38.921875 18.109375 30.90625
L 18.109375 0
L 9.078125 0
L 9.078125 54.6875
L 18.109375 54.6875
L 18.109375 46.1875
Q 21.34375 51.125 25.703125 53.5625
Q 30.078125 56 35.796875 56
Q 45.21875 56 50.046875 50.171875
Q 54.890625 44.34375 54.890625 33.015625
z
" id="DejaVuSans-110"/>
       <path d="M 9.421875 54.6875
L 18.40625 54.6875
L 18.40625 0
L 9.421875 0
z
M 9.421875 75.984375
L 18.40625 75.984375
L 18.40625 64.59375
L 9.421875 64.59375
z
" id="DejaVuSans-105"/>
       <path d="M 18.3125 70.21875
L 18.3125 54.6875
L 36.8125 54.6875
L 36.8125 47.703125
L 18.3125 47.703125
L 18.3125 18.015625
Q 18.3125 11.328125 20.140625 9.421875
Q 21.96875 7.515625 27.59375 7.515625
L 36.8125 7.515625
L 36.8125 0
L 27.59375 0
Q 17.1875 0 13.234375 3.875
Q 9.28125 7.765625 9.28125 18.015625
L 9.28125 47.703125
L 2.6875 47.703125
L 2.6875 54.6875
L 9.28125 54.6875
L 9.28125 70.21875
z
" id="DejaVuSans-116"/>
       <path d="M 10.6875 12.40625
L 21 12.40625
L 21 0
L 10.6875 0
z
" id="DejaVuSans-46"/>
       <path d="M 50.984375 -16.609375
L 50.984375 -23.578125
L -0.984375 -23.578125
L -0.984375 -16.609375
z
" id="DejaVuSans-95"/>
       <path d="M 8.5 21.578125
L 8.5 54.6875
L 17.484375 54.6875
L 17.484375 21.921875
Q 17.484375 14.15625 20.5 10.265625
Q 23.53125 6.390625 29.59375 6.390625
Q 36.859375 6.390625 41.078125 11.03125
Q 45.3125 15.671875 45.3125 23.6875
L 45.3125 54.6875
L 54.296875 54.6875
L 54.296875 0
L 45.3125 0
L 45.3125 8.40625
Q 42.046875 3.421875 37.71875 1
Q 33.40625 -1.421875 27.6875 -1.421875
Q 18.265625 -1.421875 13.375 4.4375
Q 8.5 10.296875 8.5 21.578125
z
M 31.109375 56
z
" id="DejaVuSans-117"/>
       <path d="M 9.078125 75.984375
L 18.109375 75.984375
L 18.109375 31.109375
L 44.921875 54.6875
L 56.390625 54.6875
L 27.390625 29.109375
L 57.625 0
L 45.90625 0
L 18.109375 26.703125
L 18.109375 0
L 9.078125 0
z
" id="DejaVuSans-107"/>
       <path d="M 30.609375 48.390625
Q 23.390625 48.390625 19.1875 42.75
Q 14.984375 37.109375 14.984375 27.296875
Q 14.984375 17.484375 19.15625 11.84375
Q 23.34375 6.203125 30.609375 6.203125
Q 37.796875 6.203125 41.984375 11.859375
Q 46.1875 17.53125 46.1875 27.296875
Q 46.1875 37.015625 41.984375 42.703125
Q 37.796875 48.390625 30.609375 48.390625
z
M 30.609375 56
Q 42.328125 56 49.015625 48.375
Q 55.71875 40.765625 55.71875 27.296875
Q 55.71875 13.875 49.015625 6.21875
Q 42.328125 -1.421875 30.609375 -1.421875
Q 18.84375 -1.421875 12.171875 6.21875
Q 5.515625 13.875 5.515625 27.296875
Q 5.515625 40.765625 12.171875 48.375
Q 18.84375 56 30.609375 56
z
" id="DejaVuSans-111"/>
       <path d="M 4.203125 54.6875
L 13.1875 54.6875
L 24.421875 12.015625
L 35.59375 54.6875
L 46.1875 54.6875
L 57.421875 12.015625
L 68.609375 54.6875
L 77.59375 54.6875
L 63.28125 0
L 52.6875 0
L 40.921875 44.828125
L 29.109375 0
L 18.5 0
z
" id="DejaVuSans-119"/>
       <path d="M 8.015625 75.875
L 15.828125 75.875
Q 23.140625 64.359375 26.78125 53.3125
Q 30.421875 42.28125 30.421875 31.390625
Q 30.421875 20.453125 26.78125 9.375
Q 23.140625 -1.703125 15.828125 -13.1875
L 8.015625 -13.1875
Q 14.5 -2 17.703125 9.0625
Q 20.90625 20.125 20.90625 31.390625
Q 20.90625 42.671875 17.703125 53.65625
Q 14.5 64.65625 8.015625 75.875
z
" id="DejaVuSans-41"/>
      </defs>
      <use xlink:href="#DejaVuSans-32"/>
      <use x="31.787109" xlink:href="#DejaVuSans-40"/>
      <use x="70.800781" xlink:href="#DejaVuSans-85"/>
      <use x="143.994141" xlink:href="#DejaVuSans-110"/>
      <use x="207.373047" xlink:href="#DejaVuSans-105"/>
      <use x="235.15625" xlink:href="#DejaVuSans-116"/>
      <use x="274.365234" xlink:href="#DejaVuSans-46"/>
      <use x="306.152344" xlink:href="#DejaVuSans-95"/>
      <use x="356.152344" xlink:href="#DejaVuSans-117"/>
      <use x="419.53125" xlink:href="#DejaVuSans-110"/>
      <use x="482.910156" xlink:href="#DejaVuSans-107"/>
      <use x="540.820312" xlink:href="#DejaVuSans-110"/>
      <use x="604.199219" xlink:href="#DejaVuSans-111"/>
      <use x="665.380859" xlink:href="#DejaVuSans-119"/>
      <use x="747.167969" xlink:href="#DejaVuSans-110"/>
      <use x="810.546875" xlink:href="#DejaVuSans-41"/>
     </g>
    </g>
   </g>
   <g id="line2d_23">
    <path clip-path="url(#p03053142fa)" d="M 92.290909 181.559739
L 93.257718 181.587273
L 93.499421 181.254634
L 93.741123 175.059193
L 94.224528 154.299253
L 96.399848 44.158913
L 96.641551 38.110803
L 96.883253 37.39
L 98.091765 37.426923
L 99.541978 37.43732
L 99.783681 37.524097
L 100.025383 37.798492
L 100.267085 37.541836
L 100.75049 37.637351
L 102.442406 33.483946
L 102.684109 33.341224
L 104.859429 33.388612
L 105.101132 33.332727
L 105.342834 33.620309
L 105.826239 34.802084
L 106.793048 38.542506
L 107.759857 40.71295
L 108.243262 41.131873
L 109.210071 41.05603
L 110.901987 40.939599
L 111.143689 41.448393
L 111.385392 41.631967
L 111.627094 41.540853
L 112.352201 38.468828
L 112.835606 37.744385
L 113.077308 37.386913
L 113.560713 36.416109
L 114.044117 35.778137
L 116.46114 35.834292
L 116.702843 36.02095
L 116.944545 37.532185
L 117.42795 42.958363
L 118.878163 63.081771
L 119.361568 68.987459
L 119.844973 73.35147
L 120.086675 73.633361
L 121.295187 73.431551
L 122.261996 73.321207
L 122.503698 73.065136
L 122.987103 70.511712
L 123.228805 69.452329
L 123.71221 68.50868
L 123.953912 68.432643
L 124.679019 71.572603
L 125.404126 73.332719
L 125.645828 72.366843
L 125.88753 71.966407
L 128.062851 71.94534
L 128.787958 72.082607
L 129.029661 72.277577
L 129.271363 72.215752
L 129.513065 72.452728
L 129.754767 72.408026
L 130.721577 69.011954
L 131.204981 67.342178
L 131.446684 67.071151
L 131.930088 66.983909
L 134.105409 66.951698
L 134.347111 67.136484
L 135.555623 68.615027
L 136.039028 69.778759
L 136.28073 70.306155
L 136.764134 71.741852
L 137.247539 72.529823
L 138.939455 72.371838
L 139.906265 72.302072
L 140.147967 72.41865
L 140.873074 74.344444
L 141.356478 75.168895
L 142.806692 78.839276
L 143.290097 79.103037
L 145.70712 79.228017
L 146.432227 82.015559
L 148.124143 93.266285
L 148.607548 97.818734
L 148.84925 98.279015
L 149.332655 98.354024
L 151.507976 98.381556
L 151.749678 98.884171
L 151.99138 99.711319
L 152.474785 102.57483
L 153.199892 107.362407
L 153.924999 110.61795
L 154.166701 110.982746
L 154.408403 110.757569
L 154.650106 111.518748
L 155.616915 111.460667
L 157.308831 111.366753
L 157.550533 111.959351
L 158.759045 119.061064
L 160.450961 130.293659
L 160.692663 130.415317
L 162.867984 130.283721
L 163.109687 130.371452
L 163.834793 134.656887
L 166.251817 154.080136
L 166.493519 154.34482
L 168.66884 154.241734
L 168.910542 154.373769
L 169.877351 161.493241
L 172.052672 178.62454
L 172.294374 179.091024
L 174.227993 179.028817
L 498.109091 179.028817
L 498.109091 179.028817
" style="fill:none;stroke:#2ca02c;stroke-linecap:square;stroke-width:0.8;"/>
   </g>
   <g id="patch_3">
    <path d="M 72 189
L 72 25.92
" style="fill:none;"/>
   </g>
   <g id="patch_4">
    <path d="M 518.4 189
L 518.4 25.92
" style="fill:none;"/>
   </g>
   <g id="patch_5">
    <path d="M 72 189
L 518.4 189
" style="fill:none;"/>
   </g>
   <g id="patch_6">
    <path d="M 72 25.92
L 518.4 25.92
" style="fill:none;"/>
   </g>
   <g id="line2d_24">
    <path clip-path="url(#p03053142fa)" d="M 92.290909 181.559739
L 93.257718 181.587273
L 93.499421 181.254634
L 93.741123 175.059193
L 94.224528 154.299253
L 96.158146 61.254966
L 96.641551 47.198931
L 96.883253 46.478127
L 98.091765 46.515051
L 99.541978 46.525447
L 99.783681 46.612225
L 100.025383 46.928261
L 100.267085 46.798708
L 100.75049 47.168212
L 101.233895 45.943275
L 102.442406 41.587739
L 102.684109 41.445017
L 104.859429 41.492405
L 105.101132 41.43652
L 105.342834 41.724102
L 105.826239 42.864235
L 106.551345 45.48579
L 108.001559 48.07016
L 108.243262 48.175334
L 109.210071 48.099491
L 110.901987 47.983059
L 111.143689 48.491853
L 111.385392 48.675428
L 111.627094 48.584314
L 112.835606 42.809451
L 113.802415 37.058554
L 114.044117 36.335993
L 116.46114 36.392148
L 116.702843 36.578806
L 116.944545 38.090041
L 117.42795 43.516218
L 119.361568 70.98603
L 119.844973 75.586091
L 120.086675 75.867982
L 121.295187 75.666172
L 122.261996 75.555828
L 122.503698 75.299757
L 122.987103 72.746333
L 123.228805 71.68695
L 123.953912 70.572738
L 124.437317 72.190573
L 124.679019 72.758094
L 124.920721 72.855308
L 125.162424 73.268211
L 125.404126 73.332719
L 125.645828 72.366843
L 125.88753 71.966407
L 128.062851 71.94534
L 128.787958 72.082607
L 129.029661 72.277577
L 129.271363 72.215752
L 129.513065 72.452728
L 129.754767 72.408026
L 130.721577 69.011954
L 131.204981 67.342178
L 131.446684 67.071151
L 131.930088 66.983909
L 134.105409 66.951698
L 134.347111 67.136484
L 135.555623 68.615027
L 136.039028 69.778759
L 136.28073 70.306155
L 136.764134 71.741852
L 137.247539 72.529823
L 138.939455 72.371838
L 139.906265 72.302072
L 140.147967 72.41865
L 140.873074 74.344444
L 141.356478 75.168895
L 142.806692 78.839276
L 143.290097 79.103037
L 145.70712 79.228017
L 146.432227 82.015559
L 148.124143 93.266285
L 148.607548 97.818734
L 148.84925 98.279015
L 149.332655 98.354024
L 151.507976 98.381556
L 151.749678 98.884171
L 151.99138 99.711319
L 152.474785 102.57483
L 153.199892 107.362407
L 153.924999 110.61795
L 154.166701 110.982746
L 154.408403 110.757569
L 154.650106 111.518748
L 155.616915 111.460667
L 157.308831 111.366753
L 157.550533 111.959351
L 158.759045 119.061064
L 160.450961 130.293659
L 160.692663 130.415317
L 162.867984 130.283721
L 163.109687 130.371452
L 163.834793 134.656887
L 166.251817 154.080136
L 166.493519 154.34482
L 168.66884 154.241734
L 168.910542 154.373769
L 169.877351 161.493241
L 172.052672 178.62454
L 172.294374 179.091024
L 174.227993 179.028817
L 498.109091 179.028817
L 498.109091 179.028817
" style="fill:none;stroke:#d62728;stroke-linecap:square;stroke-width:0.8;"/>
   </g>
   <g id="line2d_25">
    <path clip-path="url(#p03053142fa)" d="M 92.290909 181.559739
L 93.257718 181.587273
L 93.499421 181.254634
L 93.741123 175.059193
L 94.46623 143.633726
L 95.191337 113.992861
L 96.158146 84.784065
L 96.641551 74.709375
L 96.883253 73.988572
L 98.091765 74.025495
L 99.541978 74.035892
L 99.783681 74.201066
L 100.025383 74.678468
L 100.267085 74.825472
L 100.75049 75.577952
L 100.992192 75.24358
L 101.475597 73.744195
L 102.442406 70.893718
L 102.684109 70.750996
L 104.859429 70.798384
L 105.101132 70.742499
L 105.584536 71.467196
L 106.551345 73.191694
L 107.03475 73.415482
L 108.001559 74.172312
L 108.484964 74.185636
L 110.901987 74.038907
L 111.143689 74.547701
L 111.385392 74.637071
L 111.627094 74.332137
L 112.593903 68.034194
L 114.044117 57.66268
L 116.46114 57.718835
L 116.702843 57.905494
L 116.944545 59.416728
L 117.42795 64.733989
L 118.394759 77.116713
L 119.60327 90.831954
L 119.844973 92.569496
L 120.086675 92.851387
L 121.295187 92.649577
L 122.261996 92.539233
L 122.503698 92.283162
L 122.987103 89.729738
L 123.228805 88.876303
L 123.470507 88.767384
L 123.71221 88.522558
L 123.953912 88.473078
L 124.195614 89.295345
L 124.679019 89.880378
L 124.920721 89.834672
L 125.162424 89.957963
L 125.404126 89.892088
L 125.88753 88.84926
L 128.062851 88.828194
L 129.029661 88.960341
L 129.271363 88.508294
L 129.513065 88.336228
L 129.754767 87.954334
L 130.479874 84.796945
L 131.446684 81.902888
L 131.930088 81.815645
L 134.105409 81.783435
L 134.347111 81.968221
L 135.072218 82.875645
L 135.313921 82.903528
L 135.555623 82.727944
L 135.797325 82.692788
L 136.522432 81.21634
L 137.005837 79.999569
L 137.247539 79.69439
L 138.939455 79.536406
L 139.906265 79.46664
L 140.147967 79.583218
L 140.631371 80.788245
L 140.873074 81.286472
L 141.356478 81.398625
L 141.598181 81.384222
L 142.081585 81.011285
L 142.323288 80.670537
L 143.290097 80.24923
L 145.70712 80.37421
L 146.432227 83.152476
L 146.915632 85.849691
L 147.399036 88.709529
L 148.365845 95.643227
L 148.607548 97.888266
L 148.84925 98.279015
L 149.332655 98.354024
L 151.507976 98.381556
L 151.749678 98.884171
L 151.99138 99.711319
L 152.474785 102.57483
L 153.199892 107.362407
L 153.924999 110.61795
L 154.166701 110.982746
L 154.408403 110.757569
L 154.650106 111.518748
L 155.616915 111.460667
L 157.308831 111.366753
L 157.550533 111.959351
L 158.759045 119.061064
L 160.450961 130.293659
L 160.692663 130.415317
L 162.867984 130.283721
L 163.109687 130.371452
L 163.834793 134.656887
L 166.251817 154.080136
L 166.493519 154.34482
L 168.66884 154.241734
L 168.910542 154.373769
L 169.877351 161.493241
L 172.052672 178.62454
L 172.294374 179.091024
L 174.227993 179.028817
L 498.109091 179.028817
L 498.109091 179.028817
" style="fill:none;stroke:#9467bd;stroke-linecap:square;stroke-width:0.8;"/>
   </g>
   <g id="legend_1">
    <g id="patch_7">
     <path d="M 450.810937 107.310625
L 511.4 107.310625
Q 513.4 107.310625 513.4 105.310625
L 513.4 32.92
Q 513.4 30.92 511.4 30.92
L 450.810937 30.92
Q 448.810937 30.92 448.810937 32.92
L 448.810937 105.310625
Q 448.810937 107.310625 450.810937 107.310625
z
" style="fill:#ffffff;opacity:0.8;stroke:#cccccc;stroke-linejoin:miter;"/>
    </g>
    <g id="line2d_26">
     <path d="M 452.810937 39.018438
L 472.810937 39.018438
" style="fill:none;stroke:#1f77b4;stroke-linecap:square;stroke-width:0.8;"/>
    </g>
    <g id="line2d_27"/>
    <g id="text_15">
     <!-- 0% -->
     <g style="fill:#696969;" transform="translate(480.810937 42.518438)scale(0.1 -0.1)">
      <defs>
       <path d="M 72.703125 32.078125
Q 68.453125 32.078125 66.03125 28.46875
Q 63.625 24.859375 63.625 18.40625
Q 63.625 12.0625 66.03125 8.421875
Q 68.453125 4.78125 72.703125 4.78125
Q 76.859375 4.78125 79.265625 8.421875
Q 81.6875 12.0625 81.6875 18.40625
Q 81.6875 24.8125 79.265625 28.4375
Q 76.859375 32.078125 72.703125 32.078125
z
M 72.703125 38.28125
Q 80.421875 38.28125 84.953125 32.90625
Q 89.5 27.546875 89.5 18.40625
Q 89.5 9.28125 84.9375 3.921875
Q 80.375 -1.421875 72.703125 -1.421875
Q 64.890625 -1.421875 60.34375 3.921875
Q 55.8125 9.28125 55.8125 18.40625
Q 55.8125 27.59375 60.375 32.9375
Q 64.9375 38.28125 72.703125 38.28125
z
M 22.3125 68.015625
Q 18.109375 68.015625 15.6875 64.375
Q 13.28125 60.75 13.28125 54.390625
Q 13.28125 47.953125 15.671875 44.328125
Q 18.0625 40.71875 22.3125 40.71875
Q 26.5625 40.71875 28.96875 44.328125
Q 31.390625 47.953125 31.390625 54.390625
Q 31.390625 60.6875 28.953125 64.34375
Q 26.515625 68.015625 22.3125 68.015625
z
M 66.40625 74.21875
L 74.21875 74.21875
L 28.609375 -1.421875
L 20.796875 -1.421875
z
M 22.3125 74.21875
Q 30.03125 74.21875 34.609375 68.875
Q 39.203125 63.53125 39.203125 54.390625
Q 39.203125 45.171875 34.640625 39.84375
Q 30.078125 34.515625 22.3125 34.515625
Q 14.546875 34.515625 10.03125 39.859375
Q 5.515625 45.21875 5.515625 54.390625
Q 5.515625 63.484375 10.046875 68.84375
Q 14.59375 74.21875 22.3125 74.21875
z
" id="DejaVuSans-37"/>
      </defs>
      <use xlink:href="#DejaVuSans-48"/>
      <use x="63.623047" xlink:href="#DejaVuSans-37"/>
     </g>
    </g>
    <g id="line2d_28">
     <path d="M 452.810937 53.696562
L 472.810937 53.696562
" style="fill:none;stroke:#ff7f0e;stroke-linecap:square;stroke-width:0.8;"/>
    </g>
    <g id="line2d_29"/>
    <g id="text_16">
     <!-- 10% -->
     <g style="fill:#696969;" transform="translate(480.810937 57.196562)scale(0.1 -0.1)">
      <use xlink:href="#DejaVuSans-49"/>
      <use x="63.623047" xlink:href="#DejaVuSans-48"/>
      <use x="127.246094" xlink:href="#DejaVuSans-37"/>
     </g>
    </g>
    <g id="line2d_30">
     <path d="M 452.810937 68.374687
L 472.810937 68.374687
" style="fill:none;stroke:#2ca02c;stroke-linecap:square;stroke-width:0.8;"/>
    </g>
    <g id="line2d_31"/>
    <g id="text_17">
     <!-- 60% -->
     <g style="fill:#696969;" transform="translate(480.810937 71.874687)scale(0.1 -0.1)">
      <use xlink:href="#DejaVuSans-54"/>
      <use x="63.623047" xlink:href="#DejaVuSans-48"/>
      <use x="127.246094" xlink:href="#DejaVuSans-37"/>
     </g>
    </g>
    <g id="line2d_32">
     <path d="M 452.810937 83.052813
L 472.810937 83.052813
" style="fill:none;stroke:#d62728;stroke-linecap:square;stroke-width:0.8;"/>
    </g>
    <g id="line2d_33"/>
    <g id="text_18">
     <!-- 100% -->
     <g style="fill:#696969;" transform="translate(480.810937 86.552813)scale(0.1 -0.1)">
      <use xlink:href="#DejaVuSans-49"/>
      <use x="63.623047" xlink:href="#DejaVuSans-48"/>
      <use x="127.246094" xlink:href="#DejaVuSans-48"/>
      <use x="190.869141" xlink:href="#DejaVuSans-37"/>
     </g>
    </g>
    <g id="line2d_34">
     <path d="M 452.810937 97.730938
L 472.810937 97.730938
" style="fill:none;stroke:#9467bd;stroke-linecap:square;stroke-width:0.8;"/>
    </g>
    <g id="line2d_35"/>
    <g id="text_19">
     <!-- 200% -->
     <g style="fill:#696969;" transform="translate(480.810937 101.230938)scale(0.1 -0.1)">
      <use xlink:href="#DejaVuSans-50"/>
      <use x="63.623047" xlink:href="#DejaVuSans-48"/>
      <use x="127.246094" xlink:href="#DejaVuSans-48"/>
      <use x="190.869141" xlink:href="#DejaVuSans-37"/>
     </g>
    </g>
   </g>
  </g>
  <g id="text_20">
   <!-- Canopy_A_n -->
   <g style="fill:#696969;" transform="translate(251.3925 13.22625)scale(0.12 -0.12)">
    <defs>
     <path d="M 64.40625 67.28125
L 64.40625 56.890625
Q 59.421875 61.53125 53.78125 63.8125
Q 48.140625 66.109375 41.796875 66.109375
Q 29.296875 66.109375 22.65625 58.46875
Q 16.015625 50.828125 16.015625 36.375
Q 16.015625 21.96875 22.65625 14.328125
Q 29.296875 6.6875 41.796875 6.6875
Q 48.140625 6.6875 53.78125 8.984375
Q 59.421875 11.28125 64.40625 15.921875
L 64.40625 5.609375
Q 59.234375 2.09375 53.4375 0.328125
Q 47.65625 -1.421875 41.21875 -1.421875
Q 24.65625 -1.421875 15.125 8.703125
Q 5.609375 18.84375 5.609375 36.375
Q 5.609375 53.953125 15.125 64.078125
Q 24.65625 74.21875 41.21875 74.21875
Q 47.75 74.21875 53.53125 72.484375
Q 59.328125 70.75 64.40625 67.28125
z
" id="DejaVuSans-67"/>
     <path d="M 18.109375 8.203125
L 18.109375 -20.796875
L 9.078125 -20.796875
L 9.078125 54.6875
L 18.109375 54.6875
L 18.109375 46.390625
Q 20.953125 51.265625 25.265625 53.625
Q 29.59375 56 35.59375 56
Q 45.5625 56 51.78125 48.09375
Q 58.015625 40.1875 58.015625 27.296875
Q 58.015625 14.40625 51.78125 6.484375
Q 45.5625 -1.421875 35.59375 -1.421875
Q 29.59375 -1.421875 25.265625 0.953125
Q 20.953125 3.328125 18.109375 8.203125
z
M 48.6875 27.296875
Q 48.6875 37.203125 44.609375 42.84375
Q 40.53125 48.484375 33.40625 48.484375
Q 26.265625 48.484375 22.1875 42.84375
Q 18.109375 37.203125 18.109375 27.296875
Q 18.109375 17.390625 22.1875 11.75
Q 26.265625 6.109375 33.40625 6.109375
Q 40.53125 6.109375 44.609375 11.75
Q 48.6875 17.390625 48.6875 27.296875
z
" id="DejaVuSans-112"/>
     <path d="M 34.1875 63.1875
L 20.796875 26.90625
L 47.609375 26.90625
z
M 28.609375 72.90625
L 39.796875 72.90625
L 67.578125 0
L 57.328125 0
L 50.6875 18.703125
L 17.828125 18.703125
L 11.1875 0
L 0.78125 0
z
" id="DejaVuSans-65"/>
    </defs>
    <use xlink:href="#DejaVuSans-67"/>
    <use x="69.824219" xlink:href="#DejaVuSans-97"/>
    <use x="131.103516" xlink:href="#DejaVuSans-110"/>
    <use x="194.482422" xlink:href="#DejaVuSans-111"/>
    <use x="255.664062" xlink:href="#DejaVuSans-112"/>
    <use x="319.140625" xlink:href="#DejaVuSans-121"/>
    <use x="378.320312" xlink:href="#DejaVuSans-95"/>
    <use x="428.320312" xlink:href="#DejaVuSans-65"/>
    <use x="496.728516" xlink:href="#DejaVuSans-95"/>
    <use x="546.728516" xlink:href="#DejaVuSans-110"/>
   </g>
  </g>
 </g>
 <defs>
  <clipPath id="p03053142fa">
   <rect height="163.08" width="446.4" x="72" y="25.92"/>
  </clipPath>
 </defs>
</svg>
