<?xml version="1.0" encoding="utf-8" standalone="no"?>
<!DOCTYPE svg PUBLIC "-//W3C//DTD SVG 1.1//EN"
  "http://www.w3.org/Graphics/SVG/1.1/DTD/svg11.dtd">
<!-- Created with matplotlib (https://matplotlib.org/) -->
<svg height="216pt" version="1.1" viewBox="0 0 576 216" width="576pt" xmlns="http://www.w3.org/2000/svg" xmlns:xlink="http://www.w3.org/1999/xlink">
 <metadata>
  <rdf:RDF xmlns:cc="http://creativecommons.org/ns#" xmlns:dc="http://purl.org/dc/elements/1.1/" xmlns:rdf="http://www.w3.org/1999/02/22-rdf-syntax-ns#">
   <cc:Work>
    <dc:type rdf:resource="http://purl.org/dc/dcmitype/StillImage"/>
    <dc:date>2020-11-03T11:22:56.493381</dc:date>
    <dc:format>image/svg+xml</dc:format>
    <dc:creator>
     <cc:Agent>
      <dc:title>Matplotlib v3.3.2, https://matplotlib.org/</dc:title>
     </cc:Agent>
    </dc:creator>
   </cc:Work>
  </rdf:RDF>
 </metadata>
 <defs>
  <style type="text/css">*{stroke-linecap:butt;stroke-linejoin:round;}</style>
 </defs>
 <g id="figure_1">
  <g id="patch_1">
   <path d="M 0 216
L 576 216
L 576 0
L 0 0
z
" style="fill:none;"/>
  </g>
  <g id="axes_1">
   <g id="patch_2">
    <path d="M 72 189
L 518.4 189
L 518.4 25.92
L 72 25.92
z
" style="fill:none;"/>
   </g>
   <g id="line2d_1">
    <path clip-path="url(#p139bea931a)" d="M 92.290909 178.907629
L 93.257718 178.919514
L 93.499421 178.788515
L 93.741123 176.992743
L 95.191337 161.665555
L 95.674741 157.684338
L 96.399848 149.882039
L 96.641551 148.311243
L 96.883253 148.05887
L 99.300276 148.065413
L 99.541978 148.053989
L 100.025383 147.679662
L 100.992192 145.473394
L 101.717299 143.509059
L 102.442406 142.329437
L 102.925811 142.277436
L 105.101132 142.28957
L 105.584536 142.202975
L 105.826239 142.260701
L 106.551345 143.444372
L 107.518155 143.44136
L 109.451773 143.294872
L 110.901987 143.243125
L 112.352201 137.570664
L 113.077308 136.97317
L 113.802415 135.48435
L 114.044117 135.158182
L 114.527522 135.131798
L 116.702843 135.306644
L 117.186247 138.988279
L 117.911354 144.750322
L 118.153056 146.353545
L 118.878163 149.133261
L 119.844973 152.694655
L 120.086675 152.8118
L 121.536889 152.682414
L 122.261996 152.646988
L 122.503698 152.476583
L 122.7454 151.029364
L 123.953912 140.021762
L 124.920721 136.67575
L 125.645828 134.943312
L 125.88753 134.742716
L 128.546256 134.808094
L 129.029661 135.063101
L 129.754767 136.658702
L 130.238172 136.036259
L 130.721577 134.992621
L 131.446684 133.256141
L 131.930088 133.195019
L 134.105409 133.183774
L 134.347111 132.910132
L 134.830516 131.79342
L 135.555623 127.802499
L 136.28073 124.750155
L 137.247539 120.583319
L 137.489241 120.39361
L 139.664562 120.371566
L 139.906265 120.274142
L 140.389669 118.325261
L 140.873074 116.542246
L 141.598181 114.900369
L 142.56499 112.745202
L 143.048395 111.610178
L 143.531799 111.562456
L 145.70712 111.696681
L 145.948822 111.925378
L 146.190525 112.488313
L 146.432227 113.354185
L 147.157334 114.563784
L 147.882441 117.900865
L 148.607548 125.161812
L 148.84925 125.337351
L 151.507976 125.420732
L 151.749678 125.226139
L 152.233082 124.322683
L 152.958189 127.628202
L 153.683296 122.512476
L 154.408403 112.983509
L 154.650106 112.385925
L 154.891808 112.200442
L 157.067129 112.114402
L 157.308831 111.96483
L 157.550533 110.963536
L 158.033938 107.184663
L 158.759045 97.399472
L 160.450961 91.859855
L 160.692663 91.675582
L 162.867984 91.680687
L 163.109687 91.494464
L 163.834793 86.587471
L 164.318198 86.147325
L 164.5599 86.045911
L 165.285007 72.988162
L 166.010114 73.759019
L 166.251817 73.001264
L 166.493519 72.746218
L 168.66884 72.807228
L 168.910542 72.660116
L 169.635649 69.197157
L 170.360756 63.580605
L 171.085863 72.31994
L 171.81097 66.552197
L 172.052672 66.119111
L 172.536077 66.006402
L 174.469695 65.976674
L 174.711397 66.106143
L 175.194802 68.378412
L 175.436504 69.109854
L 176.403314 69.71065
L 176.645016 69.538705
L 176.886718 69.131612
L 177.370123 67.5536
L 177.853528 65.717165
L 178.09523 65.542543
L 180.270551 65.568197
L 180.512253 65.460457
L 181.23736 62.618405
L 181.962467 62.004775
L 182.204169 61.830641
L 182.687574 61.926479
L 183.170978 62.284061
L 183.654383 62.633834
L 185.588002 62.659836
L 186.313108 62.695733
L 186.554811 63.243612
L 186.796513 63.451497
L 187.038215 63.470072
L 187.763322 61.583107
L 189.455239 55.141066
L 189.696941 54.89464
L 192.113964 54.782702
L 192.597369 53.864791
L 192.839071 52.122056
L 193.080773 51.73243
L 193.322475 51.750024
L 193.564178 52.109153
L 194.289285 36.628211
L 194.530987 34.477444
L 194.772689 33.332727
L 195.014392 35.418776
L 195.256094 35.796261
L 195.497796 35.907531
L 197.431415 35.864017
L 197.673117 35.865322
L 197.914819 36.001271
L 198.398224 38.531007
L 198.881629 43.351203
L 199.365033 45.804116
L 200.09014 66.817412
L 200.573545 73.129513
L 200.815247 72.393815
L 201.056949 73.726615
L 201.782056 73.802234
L 203.715675 73.833525
L 205.407591 69.750497
L 206.3744 66.422059
L 206.616103 65.774638
L 206.857805 64.773095
L 207.099507 64.640202
L 209.274828 64.645627
L 209.51653 64.645639
L 209.758233 64.97714
L 209.999935 64.672538
L 210.966744 59.690466
L 211.450149 59.036895
L 211.691851 58.967488
L 211.933554 59.071437
L 212.416958 59.610799
L 212.65866 59.578816
L 213.142065 59.673691
L 215.317386 59.752483
L 215.800791 66.239596
L 216.042493 71.466981
L 216.525897 74.722968
L 217.009302 76.134191
L 217.492707 77.04019
L 218.217814 88.075706
L 218.459516 88.131472
L 219.184623 88.045468
L 221.118241 87.967991
L 221.843348 77.788429
L 222.568455 84.300405
L 223.293562 79.589485
L 224.018669 65.049302
L 224.260371 64.181501
L 224.502074 63.871463
L 226.919097 63.835636
L 227.402501 63.38851
L 227.644204 62.634614
L 228.369311 52.178392
L 228.852715 52.490157
L 229.094418 52.423735
L 229.577822 51.77632
L 230.061227 51.374474
L 230.786334 51.467248
L 232.719952 51.600508
L 233.203357 52.610202
L 233.445059 52.980834
L 234.411869 56.112223
L 235.378678 60.603721
L 235.862082 62.639542
L 236.103785 62.892999
L 239.004212 62.937106
L 239.487617 62.500273
L 240.454426 63.33479
L 241.662938 65.151528
L 245.04677 65.073416
L 245.530175 65.7364
L 246.496984 66.366383
L 247.463793 67.692213
L 247.947198 67.727101
L 250.122519 67.628627
L 250.364221 67.054425
L 250.847626 68.580793
L 252.539542 54.28892
L 253.264649 46.870164
L 253.506351 46.209371
L 255.923374 46.126821
L 256.648481 43.355757
L 257.373588 47.804517
L 258.098695 57.259581
L 259.065504 73.310219
L 259.307207 73.689614
L 260.757421 73.61938
L 261.482527 73.616346
L 261.72423 73.841412
L 262.449337 78.288995
L 262.932741 79.953519
L 263.174444 80.410291
L 263.899551 75.794077
L 264.86636 67.509588
L 265.591467 67.477271
L 267.525085 67.430904
L 267.766788 66.79129
L 268.00849 66.878641
L 268.250192 66.464118
L 269.942108 60.338866
L 270.425513 58.005789
L 270.667215 57.506755
L 271.15062 57.449798
L 273.325941 57.524941
L 273.809345 53.734582
L 274.051048 51.339055
L 274.776155 48.242339
L 275.017857 48.788172
L 275.501262 50.698411
L 275.984666 59.412927
L 276.468071 64.237811
L 276.709773 64.578773
L 278.885094 64.588801
L 279.126796 64.693393
L 280.093606 78.843222
L 280.818712 85.961158
L 281.302117 90.172892
L 281.543819 86.884506
L 282.027224 84.654898
L 282.268926 83.308552
L 282.994033 83.254412
L 284.927652 83.285488
L 285.411056 77.125858
L 285.652759 73.23777
L 286.377866 67.932275
L 287.102973 64.457493
L 287.586377 63.644217
L 288.311484 63.16973
L 290.728507 63.200053
L 291.453614 66.038229
L 292.178721 63.763895
L 293.14553 57.711002
L 293.628935 55.759583
L 293.870637 55.421842
L 294.595744 55.395348
L 296.529363 55.461929
L 297.012767 56.178083
L 297.979577 58.240405
L 298.704684 59.2938
L 299.671493 60.417026
L 300.3966 60.467626
L 302.330218 60.497027
L 302.571921 60.310184
L 303.297027 62.306388
L 303.780432 62.46374
L 304.505539 63.061698
L 305.230646 63.613083
L 306.197455 63.797004
L 308.131074 63.87715
L 308.856181 64.79784
L 309.82299 66.787988
L 311.273204 69.744113
L 311.998311 69.805204
L 313.931929 69.849302
L 314.173631 69.244167
L 314.898738 70.402202
L 315.140441 70.274997
L 316.348952 68.058826
L 316.832357 67.829686
L 317.074059 67.282762
L 317.315762 67.162142
L 319.732785 67.253517
L 319.974487 66.723074
L 320.457892 69.233687
L 321.182999 74.648365
L 321.666403 76.284585
L 322.149808 80.017963
L 322.633212 84.314717
L 322.874915 85.597307
L 323.116617 85.838635
L 324.325129 85.773249
L 325.53364 85.788474
L 326.983854 95.613758
L 327.950663 98.621793
L 328.434068 99.555039
L 328.67577 99.619214
L 328.917473 99.447981
L 331.334496 99.45198
L 332.301305 103.769412
L 334.234923 110.947545
L 334.476626 111.495469
L 335.443435 111.503359
L 337.135351 111.549589
L 337.618756 112.753853
L 337.860458 113.554699
L 339.06897 121.888121
L 340.277481 132.989852
L 340.519183 133.272845
L 342.936207 133.311766
L 343.419611 136.213104
L 345.111527 145.198319
L 346.078337 149.652289
L 346.561741 149.573931
L 348.737062 149.612289
L 350.912383 160.30429
L 352.120894 166.971302
L 353.329406 166.876747
L 354.537918 166.867493
L 356.713238 175.629458
L 357.92175 180.267512
L 361.305582 180.330222
L 362.755796 180.239298
L 364.447712 180.10546
L 372.665591 179.837466
L 376.049423 180.344785
L 380.88347 180.667727
L 384.992409 180.865608
L 386.442623 180.845704
L 390.068157 180.880271
L 391.518371 180.828696
L 394.902204 180.777455
L 395.869013 180.747309
L 398.044334 180.19526
L 399.977952 180.026197
L 401.669868 180.039866
L 403.120082 180.204559
L 405.537105 180.276376
L 408.679235 180.130595
L 410.371152 180.119401
L 415.4469 180.412683
L 420.522649 180.896602
L 422.214565 181.150606
L 428.01542 181.368925
L 431.640955 181.291408
L 434.299681 181.137407
L 438.892024 181.228582
L 441.309048 181.271835
L 447.593308 181.218124
L 448.560117 181.109505
L 450.493735 180.836487
L 453.877568 180.785778
L 456.777996 181.54806
L 461.612042 181.486199
L 463.787363 181.495254
L 466.929493 181.486665
L 470.071623 181.33976
L 471.763539 181.190232
L 474.905669 180.707462
L 477.322692 180.594554
L 480.706524 180.264079
L 498.109091 180.294448
L 498.109091 180.294448
" style="fill:none;stroke:#1f77b4;stroke-linecap:square;stroke-width:0.8;"/>
   </g>
   <g id="line2d_2">
    <path clip-path="url(#p139bea931a)" d="M 92.290909 178.907629
L 93.257718 178.919514
L 93.499421 178.788515
L 93.741123 176.992743
L 95.191337 161.665555
L 95.674741 157.684338
L 96.399848 149.882039
L 96.641551 148.311243
L 96.883253 148.05887
L 99.300276 148.065413
L 99.541978 148.053989
L 100.025383 147.679662
L 100.992192 145.473394
L 101.717299 143.509059
L 102.442406 142.329437
L 102.925811 142.277436
L 105.101132 142.28957
L 105.584536 142.202975
L 105.826239 142.260701
L 106.551345 143.444372
L 107.518155 143.44136
L 109.451773 143.294872
L 110.901987 143.243125
L 112.352201 137.570664
L 113.077308 136.97317
L 113.802415 135.48435
L 114.044117 135.158182
L 114.527522 135.131798
L 116.702843 135.306644
L 117.186247 138.988279
L 117.911354 144.750322
L 118.153056 146.353545
L 118.878163 149.133261
L 119.844973 152.694655
L 120.086675 152.8118
L 121.536889 152.682414
L 122.261996 152.646988
L 122.503698 152.476583
L 122.7454 151.029364
L 123.953912 140.021762
L 124.920721 136.67575
L 125.645828 134.943312
L 125.88753 134.742716
L 128.546256 134.808094
L 129.029661 135.063101
L 129.754767 136.658702
L 130.238172 136.036259
L 130.721577 134.992621
L 131.446684 133.256141
L 131.930088 133.195019
L 134.105409 133.183774
L 134.347111 132.910132
L 134.830516 131.79342
L 135.555623 127.802499
L 136.28073 124.750155
L 137.247539 120.583319
L 137.489241 120.39361
L 139.664562 120.371566
L 139.906265 120.274142
L 140.389669 118.325261
L 140.873074 116.542246
L 141.598181 114.900369
L 142.56499 112.745202
L 143.048395 111.610178
L 143.531799 111.562456
L 145.70712 111.696681
L 145.948822 111.925378
L 146.190525 112.488313
L 146.432227 113.354185
L 147.157334 114.563784
L 147.882441 117.900865
L 148.607548 125.161812
L 148.84925 125.337351
L 151.507976 125.420732
L 151.749678 125.226139
L 152.233082 124.322683
L 152.958189 127.628202
L 153.683296 122.512476
L 154.408403 112.983509
L 154.650106 112.385925
L 154.891808 112.200442
L 157.067129 112.114402
L 157.308831 111.96483
L 157.550533 110.963536
L 158.033938 107.184663
L 158.759045 97.399472
L 160.450961 91.859855
L 160.692663 91.675582
L 162.867984 91.680687
L 163.109687 91.494464
L 163.834793 86.587471
L 164.318198 86.147325
L 164.5599 86.045911
L 165.285007 72.988162
L 166.010114 73.759019
L 166.251817 73.001264
L 166.493519 72.746218
L 168.66884 72.807228
L 168.910542 72.660116
L 169.635649 69.197157
L 170.360756 63.580605
L 171.085863 72.31994
L 171.81097 66.552197
L 172.052672 66.119111
L 172.536077 66.006402
L 174.469695 65.976674
L 174.711397 66.106143
L 175.194802 68.378412
L 175.436504 69.109854
L 176.403314 69.71065
L 176.645016 69.538705
L 176.886718 69.131612
L 177.370123 67.5536
L 177.853528 65.717165
L 178.09523 65.542543
L 180.270551 65.568197
L 180.512253 65.460457
L 181.23736 62.618405
L 181.962467 62.004775
L 182.204169 61.830641
L 182.687574 61.926479
L 183.170978 62.284061
L 183.654383 62.633834
L 185.588002 62.659836
L 186.313108 62.695733
L 186.554811 63.243612
L 186.796513 63.451497
L 187.038215 63.470072
L 187.763322 61.583107
L 189.455239 55.141066
L 189.696941 54.89464
L 192.113964 54.782702
L 192.597369 53.864791
L 192.839071 52.122056
L 193.080773 51.73243
L 193.322475 51.750024
L 193.564178 52.109153
L 194.289285 36.628211
L 194.530987 34.477444
L 194.772689 33.332727
L 195.014392 35.418776
L 195.256094 35.796261
L 195.497796 35.907531
L 197.431415 35.864017
L 197.673117 35.865322
L 197.914819 36.001271
L 198.398224 38.531007
L 198.881629 43.351203
L 199.365033 45.804116
L 200.09014 66.817412
L 200.573545 73.129513
L 200.815247 72.393815
L 201.056949 73.726615
L 201.782056 73.802234
L 203.715675 73.833525
L 205.407591 69.750497
L 206.3744 66.422059
L 206.616103 65.774638
L 206.857805 64.773095
L 207.099507 64.640202
L 209.274828 64.645627
L 209.51653 64.645639
L 209.758233 64.97714
L 209.999935 64.672538
L 210.966744 59.690466
L 211.450149 59.036895
L 211.691851 58.967488
L 211.933554 59.071437
L 212.416958 59.610799
L 212.65866 59.578816
L 213.142065 59.673691
L 215.317386 59.752483
L 215.800791 66.239596
L 216.042493 71.466981
L 216.525897 74.722968
L 217.009302 76.134191
L 217.492707 77.04019
L 218.217814 88.075706
L 218.459516 88.131472
L 219.184623 88.045468
L 221.118241 87.967991
L 221.843348 77.788429
L 222.568455 84.300405
L 223.293562 79.589485
L 224.018669 65.049302
L 224.260371 64.181501
L 224.502074 63.871463
L 226.919097 63.835636
L 227.402501 63.38851
L 227.644204 62.634614
L 228.369311 52.178392
L 228.852715 52.490157
L 229.094418 52.423735
L 229.577822 51.77632
L 230.061227 51.374474
L 230.786334 51.467248
L 232.719952 51.600508
L 233.203357 52.610202
L 233.445059 52.980834
L 234.411869 56.112223
L 235.378678 60.603721
L 235.862082 62.639542
L 236.103785 62.892999
L 239.004212 62.937106
L 239.487617 62.500273
L 240.454426 63.33479
L 241.662938 65.151528
L 245.04677 65.073416
L 245.530175 65.7364
L 246.496984 66.366383
L 247.463793 67.692213
L 247.947198 67.727101
L 250.122519 67.628627
L 250.364221 67.054425
L 250.847626 68.580793
L 252.539542 54.28892
L 253.264649 46.870164
L 253.506351 46.209371
L 255.923374 46.126821
L 256.648481 43.355757
L 257.373588 47.804517
L 258.098695 57.259581
L 259.065504 73.310219
L 259.307207 73.689614
L 260.757421 73.61938
L 261.482527 73.616346
L 261.72423 73.841412
L 262.449337 78.288995
L 262.932741 79.953519
L 263.174444 80.410291
L 263.899551 75.794077
L 264.86636 67.509588
L 265.591467 67.477271
L 267.525085 67.430904
L 267.766788 66.79129
L 268.00849 66.878641
L 268.250192 66.464118
L 269.942108 60.338866
L 270.425513 58.005789
L 270.667215 57.506755
L 271.15062 57.449798
L 273.325941 57.524941
L 273.809345 53.734582
L 274.051048 51.339055
L 274.776155 48.242339
L 275.017857 48.788172
L 275.501262 50.698411
L 275.984666 59.412927
L 276.468071 64.237811
L 276.709773 64.578773
L 278.885094 64.588801
L 279.126796 64.693393
L 280.093606 78.843222
L 280.818712 85.961158
L 281.302117 90.172892
L 281.543819 86.884506
L 282.027224 84.654898
L 282.268926 83.308552
L 282.994033 83.254412
L 284.927652 83.285488
L 285.411056 77.125858
L 285.652759 73.23777
L 286.377866 67.932275
L 287.102973 64.457493
L 287.586377 63.644217
L 288.311484 63.16973
L 290.728507 63.200053
L 291.453614 66.038229
L 292.178721 63.763895
L 293.14553 57.711002
L 293.628935 55.759583
L 293.870637 55.421842
L 294.595744 55.395348
L 296.529363 55.461929
L 297.012767 56.178083
L 297.737874 57.880836
L 298.704684 59.334026
L 299.671493 60.457252
L 300.3966 60.507852
L 302.330218 60.537253
L 302.571921 60.35041
L 303.055325 62.24663
L 304.505539 63.128656
L 305.230646 63.680041
L 306.197455 63.863961
L 308.131074 63.944108
L 308.856181 64.862434
L 309.82299 66.852582
L 311.273204 69.808707
L 311.998311 69.869798
L 313.931929 69.913896
L 314.173631 69.308761
L 314.657036 70.000221
L 314.898738 70.502011
L 315.140441 70.412973
L 316.348952 68.196802
L 316.832357 67.967662
L 317.074059 67.420738
L 317.315762 67.300118
L 319.732785 67.391493
L 319.974487 66.86105
L 320.457892 69.362416
L 321.182999 74.79076
L 321.666403 76.42698
L 322.149808 80.217338
L 322.633212 84.570479
L 322.874915 85.853069
L 323.116617 86.094397
L 324.325129 86.029011
L 325.53364 86.044236
L 326.983854 95.835274
L 327.950663 98.885673
L 328.434068 99.813948
L 328.67577 99.900685
L 328.917473 99.729452
L 331.334496 99.733451
L 332.301305 104.054225
L 334.234923 111.20992
L 334.476626 111.756584
L 335.443435 111.764474
L 337.135351 111.810705
L 337.618756 113.010747
L 337.860458 113.808476
L 339.06897 122.107453
L 340.277481 133.159254
L 340.519183 133.442247
L 342.936207 133.481168
L 343.419611 136.370852
L 345.111527 145.321323
L 346.078337 149.758276
L 346.561741 149.679918
L 348.737062 149.718277
L 350.670681 159.004672
L 352.120894 167.017138
L 353.329406 166.922583
L 354.537918 166.913329
L 356.713238 175.645029
L 357.92175 180.267512
L 361.305582 180.330222
L 362.755796 180.239298
L 364.447712 180.10546
L 372.665591 179.837466
L 376.049423 180.344785
L 380.88347 180.667727
L 384.992409 180.865608
L 386.442623 180.845704
L 390.068157 180.880271
L 391.518371 180.828696
L 394.902204 180.777455
L 395.869013 180.747309
L 398.044334 180.19526
L 399.977952 180.026197
L 401.669868 180.039866
L 403.120082 180.204559
L 405.537105 180.276376
L 408.679235 180.130595
L 410.371152 180.119401
L 415.4469 180.412683
L 420.522649 180.896602
L 422.214565 181.150606
L 428.01542 181.368925
L 431.640955 181.291408
L 434.299681 181.137407
L 438.892024 181.228582
L 441.309048 181.271835
L 447.593308 181.218124
L 448.560117 181.109505
L 450.493735 180.836487
L 453.877568 180.785778
L 456.777996 181.54806
L 461.612042 181.486199
L 463.787363 181.495254
L 466.929493 181.486665
L 470.071623 181.33976
L 471.763539 181.190232
L 474.905669 180.707462
L 477.322692 180.594554
L 480.706524 180.264079
L 498.109091 180.294448
L 498.109091 180.294448
" style="fill:none;stroke:#ff7f0e;stroke-linecap:square;stroke-width:0.8;"/>
   </g>
   <g id="matplotlib.axis_1">
    <g id="xtick_1">
     <g id="line2d_3">
      <defs>
       <path d="M 0 0
L 0 1.5
" id="m63f2a3b93b" style="stroke:#696969;stroke-width:0.8;"/>
      </defs>
      <g>
       <use style="fill:#696969;stroke:#696969;stroke-width:0.8;" x="92.290909" xlink:href="#m63f2a3b93b" y="189"/>
      </g>
     </g>
     <g id="text_1">
      <!-- 150 -->
      <g style="fill:#696969;" transform="translate(82.747159 201.598437)scale(0.1 -0.1)">
       <defs>
        <path d="M 12.40625 8.296875
L 28.515625 8.296875
L 28.515625 63.921875
L 10.984375 60.40625
L 10.984375 69.390625
L 28.421875 72.90625
L 38.28125 72.90625
L 38.28125 8.296875
L 54.390625 8.296875
L 54.390625 0
L 12.40625 0
z
" id="DejaVuSans-49"/>
        <path d="M 10.796875 72.90625
L 49.515625 72.90625
L 49.515625 64.59375
L 19.828125 64.59375
L 19.828125 46.734375
Q 21.96875 47.46875 24.109375 47.828125
Q 26.265625 48.1875 28.421875 48.1875
Q 40.625 48.1875 47.75 41.5
Q 54.890625 34.8125 54.890625 23.390625
Q 54.890625 11.625 47.5625 5.09375
Q 40.234375 -1.421875 26.90625 -1.421875
Q 22.3125 -1.421875 17.546875 -0.640625
Q 12.796875 0.140625 7.71875 1.703125
L 7.71875 11.625
Q 12.109375 9.234375 16.796875 8.0625
Q 21.484375 6.890625 26.703125 6.890625
Q 35.15625 6.890625 40.078125 11.328125
Q 45.015625 15.765625 45.015625 23.390625
Q 45.015625 31 40.078125 35.4375
Q 35.15625 39.890625 26.703125 39.890625
Q 22.75 39.890625 18.8125 39.015625
Q 14.890625 38.140625 10.796875 36.28125
z
" id="DejaVuSans-53"/>
        <path d="M 31.78125 66.40625
Q 24.171875 66.40625 20.328125 58.90625
Q 16.5 51.421875 16.5 36.375
Q 16.5 21.390625 20.328125 13.890625
Q 24.171875 6.390625 31.78125 6.390625
Q 39.453125 6.390625 43.28125 13.890625
Q 47.125 21.390625 47.125 36.375
Q 47.125 51.421875 43.28125 58.90625
Q 39.453125 66.40625 31.78125 66.40625
z
M 31.78125 74.21875
Q 44.046875 74.21875 50.515625 64.515625
Q 56.984375 54.828125 56.984375 36.375
Q 56.984375 17.96875 50.515625 8.265625
Q 44.046875 -1.421875 31.78125 -1.421875
Q 19.53125 -1.421875 13.0625 8.265625
Q 6.59375 17.96875 6.59375 36.375
Q 6.59375 54.828125 13.0625 64.515625
Q 19.53125 74.21875 31.78125 74.21875
z
" id="DejaVuSans-48"/>
       </defs>
       <use xlink:href="#DejaVuSans-49"/>
       <use x="63.623047" xlink:href="#DejaVuSans-53"/>
       <use x="127.246094" xlink:href="#DejaVuSans-48"/>
      </g>
     </g>
    </g>
    <g id="xtick_2">
     <g id="line2d_4">
      <g>
       <use style="fill:#696969;stroke:#696969;stroke-width:0.8;" x="227.644204" xlink:href="#m63f2a3b93b" y="189"/>
      </g>
     </g>
     <g id="text_2">
      <!-- 173 -->
      <g style="fill:#696969;" transform="translate(218.100454 201.598437)scale(0.1 -0.1)">
       <defs>
        <path d="M 8.203125 72.90625
L 55.078125 72.90625
L 55.078125 68.703125
L 28.609375 0
L 18.3125 0
L 43.21875 64.59375
L 8.203125 64.59375
z
" id="DejaVuSans-55"/>
        <path d="M 40.578125 39.3125
Q 47.65625 37.796875 51.625 33
Q 55.609375 28.21875 55.609375 21.1875
Q 55.609375 10.40625 48.1875 4.484375
Q 40.765625 -1.421875 27.09375 -1.421875
Q 22.515625 -1.421875 17.65625 -0.515625
Q 12.796875 0.390625 7.625 2.203125
L 7.625 11.71875
Q 11.71875 9.328125 16.59375 8.109375
Q 21.484375 6.890625 26.8125 6.890625
Q 36.078125 6.890625 40.9375 10.546875
Q 45.796875 14.203125 45.796875 21.1875
Q 45.796875 27.640625 41.28125 31.265625
Q 36.765625 34.90625 28.71875 34.90625
L 20.21875 34.90625
L 20.21875 43.015625
L 29.109375 43.015625
Q 36.375 43.015625 40.234375 45.921875
Q 44.09375 48.828125 44.09375 54.296875
Q 44.09375 59.90625 40.109375 62.90625
Q 36.140625 65.921875 28.71875 65.921875
Q 24.65625 65.921875 20.015625 65.03125
Q 15.375 64.15625 9.8125 62.3125
L 9.8125 71.09375
Q 15.4375 72.65625 20.34375 73.4375
Q 25.25 74.21875 29.59375 74.21875
Q 40.828125 74.21875 47.359375 69.109375
Q 53.90625 64.015625 53.90625 55.328125
Q 53.90625 49.265625 50.4375 45.09375
Q 46.96875 40.921875 40.578125 39.3125
z
" id="DejaVuSans-51"/>
       </defs>
       <use xlink:href="#DejaVuSans-49"/>
       <use x="63.623047" xlink:href="#DejaVuSans-55"/>
       <use x="127.246094" xlink:href="#DejaVuSans-51"/>
      </g>
     </g>
    </g>
    <g id="xtick_3">
     <g id="line2d_5">
      <g>
       <use style="fill:#696969;stroke:#696969;stroke-width:0.8;" x="362.997499" xlink:href="#m63f2a3b93b" y="189"/>
      </g>
     </g>
     <g id="text_3">
      <!-- 196 -->
      <g style="fill:#696969;" transform="translate(353.453749 201.598437)scale(0.1 -0.1)">
       <defs>
        <path d="M 10.984375 1.515625
L 10.984375 10.5
Q 14.703125 8.734375 18.5 7.8125
Q 22.3125 6.890625 25.984375 6.890625
Q 35.75 6.890625 40.890625 13.453125
Q 46.046875 20.015625 46.78125 33.40625
Q 43.953125 29.203125 39.59375 26.953125
Q 35.25 24.703125 29.984375 24.703125
Q 19.046875 24.703125 12.671875 31.3125
Q 6.296875 37.9375 6.296875 49.421875
Q 6.296875 60.640625 12.9375 67.421875
Q 19.578125 74.21875 30.609375 74.21875
Q 43.265625 74.21875 49.921875 64.515625
Q 56.59375 54.828125 56.59375 36.375
Q 56.59375 19.140625 48.40625 8.859375
Q 40.234375 -1.421875 26.421875 -1.421875
Q 22.703125 -1.421875 18.890625 -0.6875
Q 15.09375 0.046875 10.984375 1.515625
z
M 30.609375 32.421875
Q 37.25 32.421875 41.125 36.953125
Q 45.015625 41.5 45.015625 49.421875
Q 45.015625 57.28125 41.125 61.84375
Q 37.25 66.40625 30.609375 66.40625
Q 23.96875 66.40625 20.09375 61.84375
Q 16.21875 57.28125 16.21875 49.421875
Q 16.21875 41.5 20.09375 36.953125
Q 23.96875 32.421875 30.609375 32.421875
z
" id="DejaVuSans-57"/>
        <path d="M 33.015625 40.375
Q 26.375 40.375 22.484375 35.828125
Q 18.609375 31.296875 18.609375 23.390625
Q 18.609375 15.53125 22.484375 10.953125
Q 26.375 6.390625 33.015625 6.390625
Q 39.65625 6.390625 43.53125 10.953125
Q 47.40625 15.53125 47.40625 23.390625
Q 47.40625 31.296875 43.53125 35.828125
Q 39.65625 40.375 33.015625 40.375
z
M 52.59375 71.296875
L 52.59375 62.3125
Q 48.875 64.0625 45.09375 64.984375
Q 41.3125 65.921875 37.59375 65.921875
Q 27.828125 65.921875 22.671875 59.328125
Q 17.53125 52.734375 16.796875 39.40625
Q 19.671875 43.65625 24.015625 45.921875
Q 28.375 48.1875 33.59375 48.1875
Q 44.578125 48.1875 50.953125 41.515625
Q 57.328125 34.859375 57.328125 23.390625
Q 57.328125 12.15625 50.6875 5.359375
Q 44.046875 -1.421875 33.015625 -1.421875
Q 20.359375 -1.421875 13.671875 8.265625
Q 6.984375 17.96875 6.984375 36.375
Q 6.984375 53.65625 15.1875 63.9375
Q 23.390625 74.21875 37.203125 74.21875
Q 40.921875 74.21875 44.703125 73.484375
Q 48.484375 72.75 52.59375 71.296875
z
" id="DejaVuSans-54"/>
       </defs>
       <use xlink:href="#DejaVuSans-49"/>
       <use x="63.623047" xlink:href="#DejaVuSans-57"/>
       <use x="127.246094" xlink:href="#DejaVuSans-54"/>
      </g>
     </g>
    </g>
    <g id="xtick_4">
     <g id="line2d_6">
      <g>
       <use style="fill:#696969;stroke:#696969;stroke-width:0.8;" x="498.350793" xlink:href="#m63f2a3b93b" y="189"/>
      </g>
     </g>
     <g id="text_4">
      <!-- 220 -->
      <g style="fill:#696969;" transform="translate(488.807043 201.598437)scale(0.1 -0.1)">
       <defs>
        <path d="M 19.1875 8.296875
L 53.609375 8.296875
L 53.609375 0
L 7.328125 0
L 7.328125 8.296875
Q 12.9375 14.109375 22.625 23.890625
Q 32.328125 33.6875 34.8125 36.53125
Q 39.546875 41.84375 41.421875 45.53125
Q 43.3125 49.21875 43.3125 52.78125
Q 43.3125 58.59375 39.234375 62.25
Q 35.15625 65.921875 28.609375 65.921875
Q 23.96875 65.921875 18.8125 64.3125
Q 13.671875 62.703125 7.8125 59.421875
L 7.8125 69.390625
Q 13.765625 71.78125 18.9375 73
Q 24.125 74.21875 28.421875 74.21875
Q 39.75 74.21875 46.484375 68.546875
Q 53.21875 62.890625 53.21875 53.421875
Q 53.21875 48.921875 51.53125 44.890625
Q 49.859375 40.875 45.40625 35.40625
Q 44.1875 33.984375 37.640625 27.21875
Q 31.109375 20.453125 19.1875 8.296875
z
" id="DejaVuSans-50"/>
       </defs>
       <use xlink:href="#DejaVuSans-50"/>
       <use x="63.623047" xlink:href="#DejaVuSans-50"/>
       <use x="127.246094" xlink:href="#DejaVuSans-48"/>
      </g>
     </g>
    </g>
    <g id="text_5">
     <!-- Days -->
     <g style="fill:#696969;" transform="translate(282.721875 215.276563)scale(0.1 -0.1)">
      <defs>
       <path d="M 19.671875 64.796875
L 19.671875 8.109375
L 31.59375 8.109375
Q 46.6875 8.109375 53.6875 14.9375
Q 60.6875 21.78125 60.6875 36.53125
Q 60.6875 51.171875 53.6875 57.984375
Q 46.6875 64.796875 31.59375 64.796875
z
M 9.8125 72.90625
L 30.078125 72.90625
Q 51.265625 72.90625 61.171875 64.09375
Q 71.09375 55.28125 71.09375 36.53125
Q 71.09375 17.671875 61.125 8.828125
Q 51.171875 0 30.078125 0
L 9.8125 0
z
" id="DejaVuSans-68"/>
       <path d="M 34.28125 27.484375
Q 23.390625 27.484375 19.1875 25
Q 14.984375 22.515625 14.984375 16.5
Q 14.984375 11.71875 18.140625 8.90625
Q 21.296875 6.109375 26.703125 6.109375
Q 34.1875 6.109375 38.703125 11.40625
Q 43.21875 16.703125 43.21875 25.484375
L 43.21875 27.484375
z
M 52.203125 31.203125
L 52.203125 0
L 43.21875 0
L 43.21875 8.296875
Q 40.140625 3.328125 35.546875 0.953125
Q 30.953125 -1.421875 24.3125 -1.421875
Q 15.921875 -1.421875 10.953125 3.296875
Q 6 8.015625 6 15.921875
Q 6 25.140625 12.171875 29.828125
Q 18.359375 34.515625 30.609375 34.515625
L 43.21875 34.515625
L 43.21875 35.40625
Q 43.21875 41.609375 39.140625 45
Q 35.0625 48.390625 27.6875 48.390625
Q 23 48.390625 18.546875 47.265625
Q 14.109375 46.140625 10.015625 43.890625
L 10.015625 52.203125
Q 14.9375 54.109375 19.578125 55.046875
Q 24.21875 56 28.609375 56
Q 40.484375 56 46.34375 49.84375
Q 52.203125 43.703125 52.203125 31.203125
z
" id="DejaVuSans-97"/>
       <path d="M 32.171875 -5.078125
Q 28.375 -14.84375 24.75 -17.8125
Q 21.140625 -20.796875 15.09375 -20.796875
L 7.90625 -20.796875
L 7.90625 -13.28125
L 13.1875 -13.28125
Q 16.890625 -13.28125 18.9375 -11.515625
Q 21 -9.765625 23.484375 -3.21875
L 25.09375 0.875
L 2.984375 54.6875
L 12.5 54.6875
L 29.59375 11.921875
L 46.6875 54.6875
L 56.203125 54.6875
z
" id="DejaVuSans-121"/>
       <path d="M 44.28125 53.078125
L 44.28125 44.578125
Q 40.484375 46.53125 36.375 47.5
Q 32.28125 48.484375 27.875 48.484375
Q 21.1875 48.484375 17.84375 46.4375
Q 14.5 44.390625 14.5 40.28125
Q 14.5 37.15625 16.890625 35.375
Q 19.28125 33.59375 26.515625 31.984375
L 29.59375 31.296875
Q 39.15625 29.25 43.1875 25.515625
Q 47.21875 21.78125 47.21875 15.09375
Q 47.21875 7.46875 41.1875 3.015625
Q 35.15625 -1.421875 24.609375 -1.421875
Q 20.21875 -1.421875 15.453125 -0.5625
Q 10.6875 0.296875 5.421875 2
L 5.421875 11.28125
Q 10.40625 8.6875 15.234375 7.390625
Q 20.0625 6.109375 24.8125 6.109375
Q 31.15625 6.109375 34.5625 8.28125
Q 37.984375 10.453125 37.984375 14.40625
Q 37.984375 18.0625 35.515625 20.015625
Q 33.0625 21.96875 24.703125 23.78125
L 21.578125 24.515625
Q 13.234375 26.265625 9.515625 29.90625
Q 5.8125 33.546875 5.8125 39.890625
Q 5.8125 47.609375 11.28125 51.796875
Q 16.75 56 26.8125 56
Q 31.78125 56 36.171875 55.265625
Q 40.578125 54.546875 44.28125 53.078125
z
" id="DejaVuSans-115"/>
      </defs>
      <use xlink:href="#DejaVuSans-68"/>
      <use x="77.001953" xlink:href="#DejaVuSans-97"/>
      <use x="138.28125" xlink:href="#DejaVuSans-121"/>
      <use x="197.460938" xlink:href="#DejaVuSans-115"/>
     </g>
    </g>
   </g>
   <g id="matplotlib.axis_2">
    <g id="ytick_1">
     <g id="line2d_7">
      <path clip-path="url(#p139bea931a)" d="M 72 186.187134
L 518.4 186.187134
" style="fill:none;stroke:#b0b0b0;stroke-linecap:square;stroke-width:0.8;"/>
     </g>
     <g id="line2d_8">
      <defs>
       <path d="M 0 0
L -1 0
" id="m293a9ba765" style="stroke:#696969;stroke-width:0.2;"/>
      </defs>
      <g>
       <use style="fill:#696969;stroke:#696969;stroke-width:0.2;" x="72" xlink:href="#m293a9ba765" y="186.187134"/>
      </g>
     </g>
     <g id="text_6">
      <!-- 0 -->
      <g style="fill:#696969;" transform="translate(61.1375 189.986352)scale(0.1 -0.1)">
       <use xlink:href="#DejaVuSans-48"/>
      </g>
     </g>
    </g>
    <g id="ytick_2">
     <g id="line2d_9">
      <path clip-path="url(#p139bea931a)" d="M 72 165.52585
L 518.4 165.52585
" style="fill:none;stroke:#b0b0b0;stroke-linecap:square;stroke-width:0.8;"/>
     </g>
     <g id="line2d_10">
      <g>
       <use style="fill:#696969;stroke:#696969;stroke-width:0.2;" x="72" xlink:href="#m293a9ba765" y="165.52585"/>
      </g>
     </g>
     <g id="text_7">
      <!-- 50000 -->
      <g style="fill:#696969;" transform="translate(35.6875 169.325068)scale(0.1 -0.1)">
       <use xlink:href="#DejaVuSans-53"/>
       <use x="63.623047" xlink:href="#DejaVuSans-48"/>
       <use x="127.246094" xlink:href="#DejaVuSans-48"/>
       <use x="190.869141" xlink:href="#DejaVuSans-48"/>
       <use x="254.492188" xlink:href="#DejaVuSans-48"/>
      </g>
     </g>
    </g>
    <g id="ytick_3">
     <g id="line2d_11">
      <path clip-path="url(#p139bea931a)" d="M 72 144.864566
L 518.4 144.864566
" style="fill:none;stroke:#b0b0b0;stroke-linecap:square;stroke-width:0.8;"/>
     </g>
     <g id="line2d_12">
      <g>
       <use style="fill:#696969;stroke:#696969;stroke-width:0.2;" x="72" xlink:href="#m293a9ba765" y="144.864566"/>
      </g>
     </g>
     <g id="text_8">
      <!-- 100000 -->
      <g style="fill:#696969;" transform="translate(29.325 148.663784)scale(0.1 -0.1)">
       <use xlink:href="#DejaVuSans-49"/>
       <use x="63.623047" xlink:href="#DejaVuSans-48"/>
       <use x="127.246094" xlink:href="#DejaVuSans-48"/>
       <use x="190.869141" xlink:href="#DejaVuSans-48"/>
       <use x="254.492188" xlink:href="#DejaVuSans-48"/>
       <use x="318.115234" xlink:href="#DejaVuSans-48"/>
      </g>
     </g>
    </g>
    <g id="ytick_4">
     <g id="line2d_13">
      <path clip-path="url(#p139bea931a)" d="M 72 124.203282
L 518.4 124.203282
" style="fill:none;stroke:#b0b0b0;stroke-linecap:square;stroke-width:0.8;"/>
     </g>
     <g id="line2d_14">
      <g>
       <use style="fill:#696969;stroke:#696969;stroke-width:0.2;" x="72" xlink:href="#m293a9ba765" y="124.203282"/>
      </g>
     </g>
     <g id="text_9">
      <!-- 150000 -->
      <g style="fill:#696969;" transform="translate(29.325 128.002501)scale(0.1 -0.1)">
       <use xlink:href="#DejaVuSans-49"/>
       <use x="63.623047" xlink:href="#DejaVuSans-53"/>
       <use x="127.246094" xlink:href="#DejaVuSans-48"/>
       <use x="190.869141" xlink:href="#DejaVuSans-48"/>
       <use x="254.492188" xlink:href="#DejaVuSans-48"/>
       <use x="318.115234" xlink:href="#DejaVuSans-48"/>
      </g>
     </g>
    </g>
    <g id="ytick_5">
     <g id="line2d_15">
      <path clip-path="url(#p139bea931a)" d="M 72 103.541998
L 518.4 103.541998
" style="fill:none;stroke:#b0b0b0;stroke-linecap:square;stroke-width:0.8;"/>
     </g>
     <g id="line2d_16">
      <g>
       <use style="fill:#696969;stroke:#696969;stroke-width:0.2;" x="72" xlink:href="#m293a9ba765" y="103.541998"/>
      </g>
     </g>
     <g id="text_10">
      <!-- 200000 -->
      <g style="fill:#696969;" transform="translate(29.325 107.341217)scale(0.1 -0.1)">
       <use xlink:href="#DejaVuSans-50"/>
       <use x="63.623047" xlink:href="#DejaVuSans-48"/>
       <use x="127.246094" xlink:href="#DejaVuSans-48"/>
       <use x="190.869141" xlink:href="#DejaVuSans-48"/>
       <use x="254.492188" xlink:href="#DejaVuSans-48"/>
       <use x="318.115234" xlink:href="#DejaVuSans-48"/>
      </g>
     </g>
    </g>
    <g id="ytick_6">
     <g id="line2d_17">
      <path clip-path="url(#p139bea931a)" d="M 72 82.880714
L 518.4 82.880714
" style="fill:none;stroke:#b0b0b0;stroke-linecap:square;stroke-width:0.8;"/>
     </g>
     <g id="line2d_18">
      <g>
       <use style="fill:#696969;stroke:#696969;stroke-width:0.2;" x="72" xlink:href="#m293a9ba765" y="82.880714"/>
      </g>
     </g>
     <g id="text_11">
      <!-- 250000 -->
      <g style="fill:#696969;" transform="translate(29.325 86.679933)scale(0.1 -0.1)">
       <use xlink:href="#DejaVuSans-50"/>
       <use x="63.623047" xlink:href="#DejaVuSans-53"/>
       <use x="127.246094" xlink:href="#DejaVuSans-48"/>
       <use x="190.869141" xlink:href="#DejaVuSans-48"/>
       <use x="254.492188" xlink:href="#DejaVuSans-48"/>
       <use x="318.115234" xlink:href="#DejaVuSans-48"/>
      </g>
     </g>
    </g>
    <g id="ytick_7">
     <g id="line2d_19">
      <path clip-path="url(#p139bea931a)" d="M 72 62.21943
L 518.4 62.21943
" style="fill:none;stroke:#b0b0b0;stroke-linecap:square;stroke-width:0.8;"/>
     </g>
     <g id="line2d_20">
      <g>
       <use style="fill:#696969;stroke:#696969;stroke-width:0.2;" x="72" xlink:href="#m293a9ba765" y="62.21943"/>
      </g>
     </g>
     <g id="text_12">
      <!-- 300000 -->
      <g style="fill:#696969;" transform="translate(29.325 66.018649)scale(0.1 -0.1)">
       <use xlink:href="#DejaVuSans-51"/>
       <use x="63.623047" xlink:href="#DejaVuSans-48"/>
       <use x="127.246094" xlink:href="#DejaVuSans-48"/>
       <use x="190.869141" xlink:href="#DejaVuSans-48"/>
       <use x="254.492188" xlink:href="#DejaVuSans-48"/>
       <use x="318.115234" xlink:href="#DejaVuSans-48"/>
      </g>
     </g>
    </g>
    <g id="ytick_8">
     <g id="line2d_21">
      <path clip-path="url(#p139bea931a)" d="M 72 41.558146
L 518.4 41.558146
" style="fill:none;stroke:#b0b0b0;stroke-linecap:square;stroke-width:0.8;"/>
     </g>
     <g id="line2d_22">
      <g>
       <use style="fill:#696969;stroke:#696969;stroke-width:0.2;" x="72" xlink:href="#m293a9ba765" y="41.558146"/>
      </g>
     </g>
     <g id="text_13">
      <!-- 350000 -->
      <g style="fill:#696969;" transform="translate(29.325 45.357365)scale(0.1 -0.1)">
       <use xlink:href="#DejaVuSans-51"/>
       <use x="63.623047" xlink:href="#DejaVuSans-53"/>
       <use x="127.246094" xlink:href="#DejaVuSans-48"/>
       <use x="190.869141" xlink:href="#DejaVuSans-48"/>
       <use x="254.492188" xlink:href="#DejaVuSans-48"/>
       <use x="318.115234" xlink:href="#DejaVuSans-48"/>
      </g>
     </g>
    </g>
    <g id="text_14">
     <!--  (Unit._unknown) -->
     <g style="fill:#696969;" transform="translate(22.967187 149.935781)rotate(-90)scale(0.1 -0.1)">
      <defs>
       <path id="DejaVuSans-32"/>
       <path d="M 31 75.875
Q 24.46875 64.65625 21.28125 53.65625
Q 18.109375 42.671875 18.109375 31.390625
Q 18.109375 20.125 21.3125 9.0625
Q 24.515625 -2 31 -13.1875
L 23.1875 -13.1875
Q 15.875 -1.703125 12.234375 9.375
Q 8.59375 20.453125 8.59375 31.390625
Q 8.59375 42.28125 12.203125 53.3125
Q 15.828125 64.359375 23.1875 75.875
z
" id="DejaVuSans-40"/>
       <path d="M 8.6875 72.90625
L 18.609375 72.90625
L 18.609375 28.609375
Q 18.609375 16.890625 22.84375 11.734375
Q 27.09375 6.59375 36.625 6.59375
Q 46.09375 6.59375 50.34375 11.734375
Q 54.59375 16.890625 54.59375 28.609375
L 54.59375 72.90625
L 64.5 72.90625
L 64.5 27.390625
Q 64.5 13.140625 57.4375 5.859375
Q 50.390625 -1.421875 36.625 -1.421875
Q 22.796875 -1.421875 15.734375 5.859375
Q 8.6875 13.140625 8.6875 27.390625
z
" id="DejaVuSans-85"/>
       <path d="M 54.890625 33.015625
L 54.890625 0
L 45.90625 0
L 45.90625 32.71875
Q 45.90625 40.484375 42.875 44.328125
Q 39.84375 48.1875 33.796875 48.1875
Q 26.515625 48.1875 22.3125 43.546875
Q 18.109375 38.921875 18.109375 30.90625
L 18.109375 0
L 9.078125 0
L 9.078125 54.6875
L 18.109375 54.6875
L 18.109375 46.1875
Q 21.34375 51.125 25.703125 53.5625
Q 30.078125 56 35.796875 56
Q 45.21875 56 50.046875 50.171875
Q 54.890625 44.34375 54.890625 33.015625
z
" id="DejaVuSans-110"/>
       <path d="M 9.421875 54.6875
L 18.40625 54.6875
L 18.40625 0
L 9.421875 0
z
M 9.421875 75.984375
L 18.40625 75.984375
L 18.40625 64.59375
L 9.421875 64.59375
z
" id="DejaVuSans-105"/>
       <path d="M 18.3125 70.21875
L 18.3125 54.6875
L 36.8125 54.6875
L 36.8125 47.703125
L 18.3125 47.703125
L 18.3125 18.015625
Q 18.3125 11.328125 20.140625 9.421875
Q 21.96875 7.515625 27.59375 7.515625
L 36.8125 7.515625
L 36.8125 0
L 27.59375 0
Q 17.1875 0 13.234375 3.875
Q 9.28125 7.765625 9.28125 18.015625
L 9.28125 47.703125
L 2.6875 47.703125
L 2.6875 54.6875
L 9.28125 54.6875
L 9.28125 70.21875
z
" id="DejaVuSans-116"/>
       <path d="M 10.6875 12.40625
L 21 12.40625
L 21 0
L 10.6875 0
z
" id="DejaVuSans-46"/>
       <path d="M 50.984375 -16.609375
L 50.984375 -23.578125
L -0.984375 -23.578125
L -0.984375 -16.609375
z
" id="DejaVuSans-95"/>
       <path d="M 8.5 21.578125
L 8.5 54.6875
L 17.484375 54.6875
L 17.484375 21.921875
Q 17.484375 14.15625 20.5 10.265625
Q 23.53125 6.390625 29.59375 6.390625
Q 36.859375 6.390625 41.078125 11.03125
Q 45.3125 15.671875 45.3125 23.6875
L 45.3125 54.6875
L 54.296875 54.6875
L 54.296875 0
L 45.3125 0
L 45.3125 8.40625
Q 42.046875 3.421875 37.71875 1
Q 33.40625 -1.421875 27.6875 -1.421875
Q 18.265625 -1.421875 13.375 4.4375
Q 8.5 10.296875 8.5 21.578125
z
M 31.109375 56
z
" id="DejaVuSans-117"/>
       <path d="M 9.078125 75.984375
L 18.109375 75.984375
L 18.109375 31.109375
L 44.921875 54.6875
L 56.390625 54.6875
L 27.390625 29.109375
L 57.625 0
L 45.90625 0
L 18.109375 26.703125
L 18.109375 0
L 9.078125 0
z
" id="DejaVuSans-107"/>
       <path d="M 30.609375 48.390625
Q 23.390625 48.390625 19.1875 42.75
Q 14.984375 37.109375 14.984375 27.296875
Q 14.984375 17.484375 19.15625 11.84375
Q 23.34375 6.203125 30.609375 6.203125
Q 37.796875 6.203125 41.984375 11.859375
Q 46.1875 17.53125 46.1875 27.296875
Q 46.1875 37.015625 41.984375 42.703125
Q 37.796875 48.390625 30.609375 48.390625
z
M 30.609375 56
Q 42.328125 56 49.015625 48.375
Q 55.71875 40.765625 55.71875 27.296875
Q 55.71875 13.875 49.015625 6.21875
Q 42.328125 -1.421875 30.609375 -1.421875
Q 18.84375 -1.421875 12.171875 6.21875
Q 5.515625 13.875 5.515625 27.296875
Q 5.515625 40.765625 12.171875 48.375
Q 18.84375 56 30.609375 56
z
" id="DejaVuSans-111"/>
       <path d="M 4.203125 54.6875
L 13.1875 54.6875
L 24.421875 12.015625
L 35.59375 54.6875
L 46.1875 54.6875
L 57.421875 12.015625
L 68.609375 54.6875
L 77.59375 54.6875
L 63.28125 0
L 52.6875 0
L 40.921875 44.828125
L 29.109375 0
L 18.5 0
z
" id="DejaVuSans-119"/>
       <path d="M 8.015625 75.875
L 15.828125 75.875
Q 23.140625 64.359375 26.78125 53.3125
Q 30.421875 42.28125 30.421875 31.390625
Q 30.421875 20.453125 26.78125 9.375
Q 23.140625 -1.703125 15.828125 -13.1875
L 8.015625 -13.1875
Q 14.5 -2 17.703125 9.0625
Q 20.90625 20.125 20.90625 31.390625
Q 20.90625 42.671875 17.703125 53.65625
Q 14.5 64.65625 8.015625 75.875
z
" id="DejaVuSans-41"/>
      </defs>
      <use xlink:href="#DejaVuSans-32"/>
      <use x="31.787109" xlink:href="#DejaVuSans-40"/>
      <use x="70.800781" xlink:href="#DejaVuSans-85"/>
      <use x="143.994141" xlink:href="#DejaVuSans-110"/>
      <use x="207.373047" xlink:href="#DejaVuSans-105"/>
      <use x="235.15625" xlink:href="#DejaVuSans-116"/>
      <use x="274.365234" xlink:href="#DejaVuSans-46"/>
      <use x="306.152344" xlink:href="#DejaVuSans-95"/>
      <use x="356.152344" xlink:href="#DejaVuSans-117"/>
      <use x="419.53125" xlink:href="#DejaVuSans-110"/>
      <use x="482.910156" xlink:href="#DejaVuSans-107"/>
      <use x="540.820312" xlink:href="#DejaVuSans-110"/>
      <use x="604.199219" xlink:href="#DejaVuSans-111"/>
      <use x="665.380859" xlink:href="#DejaVuSans-119"/>
      <use x="747.167969" xlink:href="#DejaVuSans-110"/>
      <use x="810.546875" xlink:href="#DejaVuSans-41"/>
     </g>
    </g>
   </g>
   <g id="line2d_23">
    <path clip-path="url(#p139bea931a)" d="M 92.290909 178.907629
L 93.257718 178.919514
L 93.499421 178.788515
L 93.741123 176.992743
L 95.191337 161.665555
L 95.674741 157.684338
L 96.399848 149.882039
L 96.641551 148.311243
L 96.883253 148.05887
L 99.300276 148.065413
L 99.541978 148.053989
L 100.025383 147.679662
L 100.992192 145.473394
L 101.717299 143.509059
L 102.442406 142.329437
L 102.925811 142.277436
L 105.101132 142.28957
L 105.584536 142.202975
L 105.826239 142.260701
L 106.551345 143.444372
L 107.518155 143.44136
L 109.451773 143.294872
L 110.901987 143.243125
L 112.352201 137.570664
L 113.077308 136.97317
L 113.802415 135.48435
L 114.044117 135.158182
L 114.527522 135.131798
L 116.702843 135.306644
L 117.186247 138.988279
L 117.911354 144.750322
L 118.153056 146.353545
L 118.878163 149.133261
L 119.844973 152.694655
L 120.086675 152.8118
L 121.536889 152.682414
L 122.261996 152.646988
L 122.503698 152.476583
L 122.7454 151.029364
L 123.953912 140.021762
L 124.920721 136.67575
L 125.645828 134.943312
L 125.88753 134.742716
L 128.546256 134.808094
L 129.029661 135.063101
L 129.754767 136.658702
L 130.238172 136.036259
L 130.721577 134.992621
L 131.446684 133.256141
L 131.930088 133.195019
L 134.105409 133.183774
L 134.347111 132.910132
L 134.830516 131.79342
L 135.555623 127.802499
L 136.28073 124.750155
L 137.247539 120.583319
L 137.489241 120.39361
L 139.664562 120.371566
L 139.906265 120.274142
L 140.389669 118.325261
L 140.873074 116.542246
L 141.598181 114.900369
L 142.56499 112.745202
L 143.048395 111.610178
L 143.531799 111.562456
L 145.70712 111.696681
L 145.948822 111.925378
L 146.190525 112.488313
L 146.432227 113.354185
L 147.157334 114.563784
L 147.882441 117.900865
L 148.607548 125.161812
L 148.84925 125.337351
L 151.507976 125.420732
L 151.749678 125.226139
L 152.233082 124.322683
L 152.958189 127.628202
L 153.683296 122.512476
L 154.408403 112.983509
L 154.650106 112.385925
L 154.891808 112.200442
L 157.067129 112.114402
L 157.308831 111.96483
L 157.550533 110.963536
L 158.033938 107.184663
L 158.759045 97.399472
L 160.450961 91.859855
L 160.692663 91.675582
L 162.867984 91.680687
L 163.109687 91.494464
L 163.834793 86.587471
L 164.318198 86.147325
L 164.5599 86.045911
L 165.285007 72.988162
L 166.010114 73.759019
L 166.251817 73.001264
L 166.493519 72.746218
L 168.66884 72.807228
L 168.910542 72.660116
L 169.635649 69.197157
L 170.360756 63.580605
L 171.085863 72.31994
L 171.81097 66.552197
L 172.052672 66.119111
L 172.536077 66.006402
L 174.469695 65.976674
L 174.711397 66.106143
L 175.194802 68.378412
L 175.436504 69.109854
L 176.403314 69.71065
L 176.645016 69.538705
L 176.886718 69.131612
L 177.370123 67.5536
L 177.853528 65.717165
L 178.09523 65.542543
L 180.270551 65.568197
L 180.512253 65.460457
L 181.23736 62.618405
L 181.962467 62.004775
L 182.204169 61.830641
L 182.687574 61.926479
L 183.170978 62.284061
L 183.654383 62.633834
L 185.588002 62.659836
L 186.313108 62.695733
L 186.554811 63.243612
L 186.796513 63.451497
L 187.038215 63.470072
L 187.763322 61.583107
L 189.455239 55.141066
L 189.696941 54.89464
L 192.113964 54.782702
L 192.597369 53.864791
L 192.839071 52.122056
L 193.080773 51.73243
L 193.322475 51.750024
L 193.564178 52.109153
L 194.289285 36.628211
L 194.530987 34.477444
L 194.772689 33.332727
L 195.014392 35.418776
L 195.256094 35.796261
L 195.497796 35.907531
L 197.431415 35.864017
L 197.673117 35.865322
L 197.914819 36.001271
L 198.398224 38.531007
L 198.881629 43.351203
L 199.365033 45.804116
L 200.09014 66.817412
L 200.573545 73.129513
L 200.815247 72.393815
L 201.056949 73.726615
L 201.782056 73.802234
L 203.715675 73.833525
L 205.407591 69.750497
L 206.3744 66.422059
L 206.616103 65.774638
L 206.857805 64.773095
L 207.099507 64.640202
L 209.274828 64.645627
L 209.51653 64.645639
L 209.758233 64.97714
L 209.999935 64.672538
L 210.966744 59.690466
L 211.450149 59.036895
L 211.691851 58.967488
L 211.933554 59.071437
L 212.416958 59.610799
L 212.65866 59.578816
L 213.142065 59.673691
L 215.317386 59.752483
L 215.800791 66.239596
L 216.042493 71.466981
L 216.525897 74.722968
L 217.009302 76.134191
L 217.492707 77.04019
L 218.217814 88.075706
L 218.459516 88.131472
L 219.184623 88.045468
L 221.118241 87.967991
L 221.843348 77.788429
L 222.568455 84.300405
L 223.293562 79.589485
L 224.018669 65.049302
L 224.260371 64.181501
L 224.502074 63.871463
L 226.919097 63.835636
L 227.402501 63.38851
L 227.644204 62.634614
L 228.369311 52.178392
L 228.852715 52.490157
L 229.094418 52.423735
L 229.577822 51.77632
L 230.061227 51.374474
L 230.786334 51.467248
L 232.719952 51.600508
L 233.203357 52.610202
L 233.445059 52.980834
L 234.411869 56.112223
L 235.378678 60.603721
L 235.862082 62.639542
L 236.103785 62.892999
L 239.004212 62.937106
L 239.487617 62.500273
L 240.454426 63.33479
L 241.662938 65.151528
L 245.04677 65.073416
L 245.530175 65.7364
L 246.496984 66.366383
L 247.463793 67.692213
L 247.947198 67.727101
L 250.122519 67.628627
L 250.364221 67.054425
L 250.847626 68.580793
L 252.539542 54.28892
L 253.264649 46.870164
L 253.506351 46.209371
L 255.923374 46.126821
L 256.648481 43.355757
L 257.373588 47.804517
L 258.098695 57.259581
L 259.065504 73.310219
L 259.307207 73.689614
L 260.757421 73.61938
L 261.482527 73.616346
L 261.72423 73.841412
L 262.449337 78.288995
L 262.932741 79.953519
L 263.174444 80.410291
L 263.899551 75.794077
L 264.86636 67.509588
L 265.591467 67.477271
L 267.525085 67.430904
L 267.766788 66.79129
L 268.00849 66.878641
L 268.250192 66.464118
L 269.942108 60.338866
L 270.425513 58.005789
L 270.667215 57.506755
L 271.15062 57.449798
L 273.325941 57.524941
L 273.809345 53.734582
L 274.051048 51.339055
L 274.776155 48.242339
L 275.017857 48.788172
L 275.501262 50.698411
L 275.984666 59.412927
L 276.468071 64.237811
L 276.709773 64.578773
L 278.885094 64.588801
L 279.126796 64.693393
L 280.093606 78.843222
L 280.818712 85.961158
L 281.302117 90.172892
L 281.543819 86.884506
L 282.027224 84.654898
L 282.268926 83.308552
L 282.994033 83.254412
L 284.927652 83.285488
L 285.411056 77.125858
L 285.652759 73.23777
L 286.377866 67.932275
L 287.102973 64.457493
L 287.586377 63.644217
L 288.311484 63.16973
L 290.728507 63.200053
L 291.453614 66.038229
L 292.178721 63.763895
L 293.14553 57.711002
L 293.628935 55.759583
L 293.870637 55.421842
L 294.595744 55.395348
L 296.529363 55.461929
L 297.012767 56.223053
L 297.496172 57.655071
L 298.221279 58.919472
L 299.42979 60.519052
L 299.913195 60.743035
L 302.330218 60.778688
L 302.571921 60.591845
L 303.055325 62.573709
L 304.505539 63.455735
L 305.230646 64.00712
L 306.197455 64.19104
L 308.131074 64.271187
L 308.856181 65.177944
L 309.82299 67.168091
L 311.273204 70.124216
L 311.998311 70.185307
L 313.931929 70.229405
L 314.173631 69.62427
L 314.657036 70.300891
L 314.898738 70.989604
L 315.140441 71.087011
L 316.348952 68.87084
L 316.832357 68.6417
L 317.074059 68.094776
L 317.315762 67.974155
L 319.732785 68.065531
L 319.974487 67.535088
L 320.457892 69.991217
L 321.182999 75.486237
L 321.666403 77.122457
L 322.149808 81.191154
L 322.633212 85.819685
L 322.874915 87.102275
L 323.116617 87.343603
L 324.325129 87.278217
L 325.53364 87.293442
L 326.983854 96.961523
L 327.708961 99.676696
L 328.434068 101.12314
L 328.67577 101.320129
L 328.917473 101.148897
L 331.334496 101.152896
L 332.059603 104.466535
L 333.751519 110.862209
L 334.234923 112.491744
L 334.476626 113.032184
L 335.443435 113.040074
L 337.135351 113.086304
L 337.618756 114.2657
L 337.860458 115.0482
L 339.06897 123.179053
L 340.277481 133.987355
L 340.519183 134.270348
L 342.936207 134.309269
L 343.419611 137.142036
L 345.35323 147.033917
L 346.078337 150.276586
L 346.561741 150.198228
L 348.737062 150.236586
L 350.670681 159.350899
L 352.120894 167.241436
L 353.329406 167.146881
L 354.537918 167.137627
L 356.713238 175.721233
L 357.92175 180.267512
L 361.305582 180.330222
L 362.755796 180.239298
L 364.447712 180.10546
L 372.665591 179.837466
L 376.049423 180.344785
L 380.88347 180.667727
L 384.992409 180.865608
L 386.442623 180.845704
L 390.068157 180.880271
L 391.518371 180.828696
L 394.902204 180.777455
L 395.869013 180.747309
L 398.044334 180.19526
L 399.977952 180.026197
L 401.669868 180.039866
L 403.120082 180.204559
L 405.537105 180.276376
L 408.679235 180.130595
L 410.371152 180.119401
L 415.4469 180.412683
L 420.522649 180.896602
L 422.214565 181.150606
L 428.01542 181.368925
L 431.640955 181.291408
L 434.299681 181.137407
L 438.892024 181.228582
L 441.309048 181.271835
L 447.593308 181.218124
L 448.560117 181.109505
L 450.493735 180.836487
L 453.877568 180.785778
L 456.777996 181.54806
L 461.612042 181.486199
L 463.787363 181.495254
L 466.929493 181.486665
L 470.071623 181.33976
L 471.763539 181.190232
L 474.905669 180.707462
L 477.322692 180.594554
L 480.706524 180.264079
L 498.109091 180.294448
L 498.109091 180.294448
" style="fill:none;stroke:#2ca02c;stroke-linecap:square;stroke-width:0.8;"/>
   </g>
   <g id="patch_3">
    <path d="M 72 189
L 72 25.92
" style="fill:none;"/>
   </g>
   <g id="patch_4">
    <path d="M 518.4 189
L 518.4 25.92
" style="fill:none;"/>
   </g>
   <g id="patch_5">
    <path d="M 72 189
L 518.4 189
" style="fill:none;"/>
   </g>
   <g id="patch_6">
    <path d="M 72 25.92
L 518.4 25.92
" style="fill:none;"/>
   </g>
   <g id="line2d_24">
    <path clip-path="url(#p139bea931a)" d="M 92.290909 178.907629
L 93.257718 178.919514
L 93.499421 178.788515
L 93.741123 176.992743
L 95.191337 161.665555
L 95.674741 157.684338
L 96.399848 149.882039
L 96.641551 148.311243
L 96.883253 148.05887
L 99.300276 148.065413
L 99.541978 148.053989
L 100.025383 147.679662
L 100.992192 145.473393
L 101.717299 143.509058
L 102.442406 142.329435
L 102.925811 142.277435
L 105.101132 142.289568
L 105.584536 142.202974
L 105.826239 142.260699
L 106.551345 143.44437
L 107.518155 143.44136
L 109.451773 143.294872
L 110.901987 143.243125
L 112.352201 137.570664
L 113.077308 136.97317
L 113.802415 135.48435
L 114.044117 135.158182
L 114.527522 135.131798
L 116.702843 135.306644
L 117.186247 138.988279
L 117.911354 144.750322
L 118.153056 146.353545
L 118.878163 149.133261
L 119.844973 152.694655
L 120.086675 152.8118
L 121.536889 152.682414
L 122.261996 152.646988
L 122.503698 152.476583
L 122.7454 151.029364
L 123.953912 140.021762
L 124.920721 136.67575
L 125.645828 134.943312
L 125.88753 134.742716
L 128.546256 134.808094
L 129.029661 135.063101
L 129.754767 136.658702
L 130.238172 136.036259
L 130.721577 134.992621
L 131.446684 133.256141
L 131.930088 133.195019
L 134.105409 133.183774
L 134.347111 132.910132
L 134.830516 131.79342
L 135.555623 127.802499
L 136.28073 124.750155
L 137.247539 120.583319
L 137.489241 120.39361
L 139.664562 120.371566
L 139.906265 120.274142
L 140.389669 118.325261
L 140.873074 116.542246
L 141.598181 114.900369
L 142.56499 112.745202
L 143.048395 111.610178
L 143.531799 111.562456
L 145.70712 111.696681
L 145.948822 111.925378
L 146.190525 112.488313
L 146.432227 113.354185
L 147.157334 114.563784
L 147.882441 117.900865
L 148.607548 125.161812
L 148.84925 125.337351
L 151.507976 125.420732
L 151.749678 125.226139
L 152.233082 124.322683
L 152.958189 127.628202
L 153.683296 122.512476
L 154.408403 112.983509
L 154.650106 112.385925
L 154.891808 112.200442
L 157.067129 112.114402
L 157.308831 111.96483
L 157.550533 110.963536
L 158.033938 107.184663
L 158.759045 97.399472
L 160.450961 91.859855
L 160.692663 91.675582
L 162.867984 91.680687
L 163.109687 91.494464
L 163.834793 86.587471
L 164.318198 86.147325
L 164.5599 86.045911
L 165.285007 72.988162
L 166.010114 73.759019
L 166.251817 73.001264
L 166.493519 72.746218
L 168.66884 72.807228
L 168.910542 72.660116
L 169.635649 69.197157
L 170.360756 63.580605
L 171.085863 72.31994
L 171.81097 66.552197
L 172.052672 66.119111
L 172.536077 66.006402
L 174.469695 65.976674
L 174.711397 66.106143
L 175.194802 68.378412
L 175.436504 69.109854
L 176.403314 69.71065
L 176.645016 69.538705
L 176.886718 69.131612
L 177.370123 67.5536
L 177.853528 65.717165
L 178.09523 65.542543
L 180.270551 65.568197
L 180.512253 65.460457
L 181.23736 62.618405
L 181.962467 62.004775
L 182.204169 61.830641
L 182.687574 61.926479
L 183.170978 62.284061
L 183.654383 62.633834
L 185.588002 62.659836
L 186.313108 62.695733
L 186.554811 63.243612
L 186.796513 63.451497
L 187.038215 63.470072
L 187.763322 61.583107
L 189.455239 55.141066
L 189.696941 54.89464
L 192.113964 54.782702
L 192.597369 53.864791
L 192.839071 52.122056
L 193.080773 51.73243
L 193.322475 51.750024
L 193.564178 52.109153
L 194.289285 36.628211
L 194.530987 34.477444
L 194.772689 33.332727
L 195.014392 35.418776
L 195.256094 35.796261
L 195.497796 35.907531
L 197.431415 35.864017
L 197.673117 35.865322
L 197.914819 36.001271
L 198.398224 38.531007
L 198.881629 43.351203
L 199.365033 45.804116
L 200.09014 66.817412
L 200.573545 73.129513
L 200.815247 72.393815
L 201.056949 73.726615
L 201.782056 73.802234
L 203.715675 73.833525
L 205.407591 69.750497
L 206.3744 66.422059
L 206.616103 65.774638
L 206.857805 64.773095
L 207.099507 64.640202
L 209.274828 64.645627
L 209.51653 64.645639
L 209.758233 64.97714
L 209.999935 64.672538
L 210.966744 59.690466
L 211.450149 59.036895
L 211.691851 58.967488
L 211.933554 59.071437
L 212.416958 59.610799
L 212.65866 59.578816
L 213.142065 59.673691
L 215.317386 59.752483
L 215.800791 66.239596
L 216.042493 71.466981
L 216.525897 74.722968
L 217.009302 76.134191
L 217.492707 77.04019
L 218.217814 88.075706
L 218.459516 88.131472
L 219.184623 88.045468
L 221.118241 87.967991
L 221.843348 77.788429
L 222.568455 84.300405
L 223.293562 79.589485
L 224.018669 65.049302
L 224.260371 64.181501
L 224.502074 63.871463
L 226.919097 63.835636
L 227.402501 63.38851
L 227.644204 62.634614
L 228.369311 52.178392
L 228.852715 52.490157
L 229.094418 52.423735
L 229.577822 51.77632
L 230.061227 51.374474
L 230.786334 51.467248
L 232.719952 51.600508
L 233.203357 52.610202
L 233.445059 52.980834
L 234.411869 56.112223
L 235.378678 60.603721
L 235.862082 62.639542
L 236.103785 62.892999
L 239.004212 62.937106
L 239.487617 62.500273
L 240.454426 63.33479
L 241.662938 65.151528
L 245.04677 65.073416
L 245.530175 65.7364
L 246.496984 66.366383
L 247.463793 67.692213
L 247.947198 67.727101
L 250.122519 67.628627
L 250.364221 67.054425
L 250.847626 68.580793
L 252.539542 54.28892
L 253.264649 46.870164
L 253.506351 46.209371
L 255.923374 46.126821
L 256.648481 43.355757
L 257.373588 47.804517
L 258.098695 57.259581
L 259.065504 73.310219
L 259.307207 73.689614
L 260.757421 73.61938
L 261.482527 73.616346
L 261.72423 73.841412
L 262.449337 78.288995
L 262.932741 79.953519
L 263.174444 80.410291
L 263.899551 75.794077
L 264.86636 67.509588
L 265.591467 67.477271
L 267.525085 67.430904
L 267.766788 66.79129
L 268.00849 66.878641
L 268.250192 66.464118
L 269.942108 60.338866
L 270.425513 58.005789
L 270.667215 57.506755
L 271.15062 57.449798
L 273.325941 57.524941
L 273.809345 53.734582
L 274.051048 51.339055
L 274.776155 48.242339
L 275.017857 48.788172
L 275.501262 50.698411
L 275.984666 59.412927
L 276.468071 64.237811
L 276.709773 64.578773
L 278.885094 64.588801
L 279.126796 64.693393
L 280.093606 78.843222
L 280.818712 85.961158
L 281.302117 90.172892
L 281.543819 86.884506
L 282.027224 84.654898
L 282.268926 83.308552
L 282.994033 83.254412
L 284.927652 83.285488
L 285.411056 77.125858
L 285.652759 73.23777
L 286.377866 67.932275
L 287.102973 64.457493
L 287.586377 63.644217
L 288.311484 63.16973
L 290.728507 63.200053
L 291.453614 66.038229
L 292.178721 63.763895
L 293.14553 57.711002
L 293.628935 55.759583
L 293.870637 55.421842
L 294.595744 55.395348
L 296.529363 55.461929
L 296.771065 55.764438
L 297.012767 56.35664
L 297.496172 57.940445
L 298.221279 59.204846
L 299.42979 60.804425
L 299.913195 61.028408
L 302.330218 61.064062
L 302.571921 60.877219
L 303.055325 62.826468
L 304.505539 63.708494
L 305.230646 64.259878
L 306.197455 64.443799
L 308.131074 64.523945
L 308.856181 65.421731
L 309.82299 67.411879
L 311.273204 70.368003
L 311.998311 70.429094
L 313.931929 70.473192
L 314.173631 69.868058
L 314.657036 70.533265
L 314.898738 71.366446
L 315.140441 71.607941
L 316.348952 69.39177
L 316.832357 69.162629
L 317.074059 68.615705
L 317.315762 68.495085
L 319.732785 68.58646
L 319.974487 68.056017
L 320.457892 70.477108
L 321.182999 76.023566
L 321.666403 77.659786
L 322.149808 81.943574
L 322.633212 86.784864
L 322.874915 88.067453
L 323.116617 88.308781
L 324.325129 88.243395
L 325.53364 88.258621
L 326.500449 94.819612
L 327.225556 98.939008
L 327.708961 100.766943
L 328.434068 102.185047
L 328.67577 102.467283
L 328.917473 102.29605
L 331.334496 102.300049
L 332.059603 105.558558
L 333.751519 111.865969
L 334.234923 113.482479
L 334.476626 114.018034
L 335.443435 114.025924
L 337.135351 114.072154
L 337.618756 115.235562
L 337.860458 116.006297
L 339.06897 124.007378
L 340.277481 134.627974
L 340.519183 134.910967
L 342.936207 134.949888
L 343.419611 137.738688
L 345.35323 147.483014
L 346.078337 150.677785
L 346.561741 150.599426
L 348.737062 150.637785
L 350.670681 159.618989
L 352.120894 167.415223
L 353.329406 167.320668
L 354.537918 167.311414
L 356.713238 175.780282
L 357.92175 180.267512
L 361.305582 180.330222
L 362.755796 180.239298
L 364.447712 180.10546
L 372.665591 179.837466
L 376.049423 180.344785
L 380.88347 180.667727
L 384.992409 180.865608
L 386.442623 180.845704
L 390.068157 180.880271
L 391.518371 180.828696
L 394.902204 180.777455
L 395.869013 180.747309
L 398.044334 180.19526
L 399.977952 180.026197
L 401.669868 180.039866
L 403.120082 180.204559
L 405.537105 180.276376
L 408.679235 180.130595
L 410.371152 180.119401
L 415.4469 180.412683
L 420.522649 180.896602
L 422.214565 181.150606
L 428.01542 181.368925
L 431.640955 181.291408
L 434.299681 181.137407
L 438.892024 181.228582
L 441.309048 181.271835
L 447.593308 181.218124
L 448.560117 181.109505
L 450.493735 180.836487
L 453.877568 180.785778
L 456.777996 181.54806
L 461.612042 181.486199
L 463.787363 181.495254
L 466.929493 181.486665
L 470.071623 181.33976
L 471.763539 181.190232
L 474.905669 180.707462
L 477.322692 180.594554
L 480.706524 180.264079
L 498.109091 180.294448
L 498.109091 180.294448
" style="fill:none;stroke:#d62728;stroke-linecap:square;stroke-width:0.8;"/>
   </g>
   <g id="line2d_25">
    <path clip-path="url(#p139bea931a)" d="M 92.290909 178.907629
L 93.257718 178.919514
L 93.499421 178.788515
L 93.741123 176.992743
L 95.191337 161.665555
L 95.674741 157.684338
L 96.399848 149.88204
L 96.641551 148.311243
L 96.883253 148.05887
L 99.300276 148.065413
L 99.541978 148.053989
L 100.025383 147.679662
L 100.992192 145.473393
L 101.717299 143.509057
L 102.442406 142.329435
L 102.925811 142.277435
L 105.101132 142.289568
L 105.584536 142.202974
L 105.826239 142.260699
L 106.551345 143.44437
L 107.518155 143.44136
L 109.451773 143.294872
L 110.901987 143.243125
L 112.352201 137.570664
L 113.077308 136.97317
L 113.802415 135.48435
L 114.044117 135.158183
L 114.527522 135.131798
L 116.702843 135.306644
L 117.186247 138.988279
L 117.911354 144.750322
L 118.153056 146.353545
L 118.878163 149.133259
L 119.844973 152.694653
L 120.086675 152.811798
L 121.536889 152.682412
L 122.261996 152.646986
L 122.503698 152.476582
L 122.7454 151.029362
L 123.953912 140.02176
L 124.920721 136.67575
L 125.645828 134.943312
L 125.88753 134.742716
L 128.546256 134.808094
L 129.029661 135.063101
L 129.754767 136.658702
L 130.238172 136.036259
L 130.721577 134.992621
L 131.446684 133.256141
L 131.930088 133.195019
L 134.105409 133.183774
L 134.347111 132.910132
L 134.830516 131.79342
L 135.555623 127.802499
L 136.28073 124.750155
L 137.247539 120.583319
L 137.489241 120.39361
L 139.664562 120.371566
L 139.906265 120.274142
L 140.389669 118.325261
L 140.873074 116.542246
L 141.598181 114.900369
L 142.56499 112.745202
L 143.048395 111.610178
L 143.531799 111.562456
L 145.70712 111.696681
L 145.948822 111.925378
L 146.190525 112.488313
L 146.432227 113.354185
L 147.157334 114.563784
L 147.882441 117.900865
L 148.607548 125.161812
L 148.84925 125.337351
L 151.507976 125.420732
L 151.749678 125.226139
L 152.233082 124.322683
L 152.958189 127.628202
L 153.683296 122.512476
L 154.408403 112.983509
L 154.650106 112.385925
L 154.891808 112.200442
L 157.067129 112.114402
L 157.308831 111.96483
L 157.550533 110.963536
L 158.033938 107.184663
L 158.759045 97.399472
L 160.450961 91.859855
L 160.692663 91.675582
L 162.867984 91.680687
L 163.109687 91.494464
L 163.834793 86.587471
L 164.318198 86.147325
L 164.5599 86.045911
L 165.285007 72.988162
L 166.010114 73.759019
L 166.251817 73.001264
L 166.493519 72.746218
L 168.66884 72.807228
L 168.910542 72.660116
L 169.635649 69.197157
L 170.360756 63.580605
L 171.085863 72.31994
L 171.81097 66.552197
L 172.052672 66.119111
L 172.536077 66.006402
L 174.469695 65.976674
L 174.711397 66.106143
L 175.194802 68.378412
L 175.436504 69.109854
L 176.403314 69.71065
L 176.645016 69.538705
L 176.886718 69.131612
L 177.370123 67.5536
L 177.853528 65.717165
L 178.09523 65.542543
L 180.270551 65.568197
L 180.512253 65.460457
L 181.23736 62.618405
L 181.962467 62.004775
L 182.204169 61.830641
L 182.687574 61.926479
L 183.170978 62.284061
L 183.654383 62.633834
L 185.588002 62.659836
L 186.313108 62.695733
L 186.554811 63.243612
L 186.796513 63.451497
L 187.038215 63.470072
L 187.763322 61.583107
L 189.455239 55.141066
L 189.696941 54.89464
L 192.113964 54.782702
L 192.597369 53.864791
L 192.839071 52.122056
L 193.080773 51.73243
L 193.322475 51.750024
L 193.564178 52.109153
L 194.289285 36.628211
L 194.530987 34.477444
L 194.772689 33.332727
L 195.014392 35.418776
L 195.256094 35.796261
L 195.497796 35.907531
L 197.431415 35.864017
L 197.673117 35.865322
L 197.914819 36.001271
L 198.398224 38.531007
L 198.881629 43.351203
L 199.365033 45.804116
L 200.09014 66.817412
L 200.573545 73.129513
L 200.815247 72.393815
L 201.056949 73.726615
L 201.782056 73.802234
L 203.715675 73.833525
L 205.407591 69.750497
L 206.3744 66.422059
L 206.616103 65.774638
L 206.857805 64.773095
L 207.099507 64.640202
L 209.274828 64.645627
L 209.51653 64.645639
L 209.758233 64.97714
L 209.999935 64.672538
L 210.966744 59.690466
L 211.450149 59.036895
L 211.691851 58.967488
L 211.933554 59.071437
L 212.416958 59.610799
L 212.65866 59.578816
L 213.142065 59.673691
L 215.317386 59.752483
L 215.800791 66.239596
L 216.042493 71.466981
L 216.525897 74.722968
L 217.009302 76.134191
L 217.492707 77.04019
L 218.217814 88.075706
L 218.459516 88.131472
L 219.184623 88.045468
L 221.118241 87.967991
L 221.843348 77.788429
L 222.568455 84.300405
L 223.293562 79.589485
L 224.018669 65.049302
L 224.260371 64.181501
L 224.502074 63.871463
L 226.919097 63.835636
L 227.402501 63.38851
L 227.644204 62.634614
L 228.369311 52.178392
L 228.852715 52.490157
L 229.094418 52.423735
L 229.577822 51.77632
L 230.061227 51.374474
L 230.786334 51.467248
L 232.719952 51.600508
L 233.203357 52.610202
L 233.445059 52.980834
L 234.411869 56.112223
L 235.378678 60.603721
L 235.862082 62.639542
L 236.103785 62.892999
L 239.004212 62.937106
L 239.487617 62.500273
L 240.454426 63.33479
L 241.662938 65.151528
L 245.04677 65.073416
L 245.530175 65.7364
L 246.496984 66.366383
L 247.463793 67.692213
L 247.947198 67.727101
L 250.122519 67.628627
L 250.364221 67.054425
L 250.847626 68.580793
L 252.539542 54.28892
L 253.264649 46.870164
L 253.506351 46.209371
L 255.923374 46.126821
L 256.648481 43.355757
L 257.373588 47.804517
L 258.098695 57.259581
L 259.065504 73.310219
L 259.307207 73.689614
L 260.757421 73.61938
L 261.482527 73.616346
L 261.72423 73.841412
L 262.449337 78.288995
L 262.932741 79.953519
L 263.174444 80.410291
L 263.899551 75.794077
L 264.86636 67.509588
L 265.591467 67.477271
L 267.525085 67.430904
L 267.766788 66.79129
L 268.00849 66.878641
L 268.250192 66.464118
L 269.942108 60.338866
L 270.425513 58.005789
L 270.667215 57.506755
L 271.15062 57.449798
L 273.325941 57.524941
L 273.809345 53.734582
L 274.051048 51.339055
L 274.776155 48.242339
L 275.017857 48.788172
L 275.501262 50.698411
L 275.984666 59.412927
L 276.468071 64.237811
L 276.709773 64.578773
L 278.885094 64.588801
L 279.126796 64.693393
L 280.093606 78.843222
L 280.818712 85.961158
L 281.302117 90.172892
L 281.543819 86.884506
L 282.027224 84.654898
L 282.268926 83.308552
L 282.994033 83.254412
L 284.927652 83.285488
L 285.411056 77.125858
L 285.652759 73.23777
L 286.377866 67.932275
L 287.102973 64.457493
L 287.586377 63.644217
L 288.311484 63.16973
L 290.728507 63.200053
L 291.453614 66.038228
L 292.178721 63.763895
L 293.14553 57.711001
L 293.628935 55.759582
L 293.870637 55.421841
L 294.595744 55.395348
L 296.529363 55.461929
L 296.771065 55.764437
L 297.737874 59.084432
L 298.704684 60.537622
L 299.671493 61.660848
L 300.3966 61.711448
L 302.330218 61.740849
L 302.571921 61.554006
L 303.055325 63.426118
L 304.505539 64.308144
L 305.230646 64.859529
L 306.197455 65.043449
L 308.131074 65.123596
L 308.856181 65.999992
L 309.339585 67.347491
L 311.273204 71.297509
L 311.998311 71.3586
L 313.931929 71.402698
L 314.173631 70.797563
L 314.657036 71.435875
L 315.140441 72.843968
L 316.348952 70.627797
L 316.590655 70.800262
L 316.832357 70.690867
L 317.074059 70.143943
L 317.315762 70.023322
L 319.732785 70.114698
L 319.974487 69.584254
L 320.457892 71.921942
L 321.182999 77.590123
L 321.666403 79.504172
L 322.149808 84.298241
L 322.633212 89.351869
L 322.874915 90.845042
L 323.116617 91.08637
L 324.325129 91.020984
L 325.53364 91.036209
L 326.017045 94.504676
L 327.225556 101.734876
L 327.708961 103.564135
L 328.434068 104.915788
L 328.67577 105.189844
L 328.917473 105.018612
L 331.334496 105.022611
L 332.059603 108.150844
L 333.751519 114.248627
L 334.234923 115.8335
L 334.476626 116.357189
L 335.443435 116.365079
L 337.135351 116.411309
L 337.618756 117.536677
L 337.860458 118.279506
L 339.06897 125.97326
L 340.277481 136.150211
L 340.519183 136.433204
L 342.936207 136.472125
L 343.419611 139.156677
L 345.35323 148.550829
L 346.078337 151.631947
L 346.561741 151.553589
L 348.737062 151.591947
L 350.670681 160.256913
L 352.120894 167.82914
L 353.329406 167.734586
L 354.537918 167.725332
L 356.713238 175.920946
L 357.92175 180.267512
L 361.305582 180.330222
L 362.755796 180.239298
L 364.447712 180.10546
L 372.665591 179.837466
L 376.049423 180.344785
L 380.88347 180.667727
L 384.992409 180.865608
L 386.442623 180.845704
L 390.068157 180.880271
L 391.518371 180.828696
L 394.902204 180.777455
L 395.869013 180.747309
L 398.044334 180.19526
L 399.977952 180.026197
L 401.669868 180.039866
L 403.120082 180.204559
L 405.537105 180.276376
L 408.679235 180.130595
L 410.371152 180.119401
L 415.4469 180.412683
L 420.522649 180.896602
L 422.214565 181.150606
L 428.01542 181.368925
L 431.640955 181.291408
L 434.299681 181.137407
L 438.892024 181.228582
L 441.309048 181.271835
L 447.593308 181.218124
L 448.560117 181.109505
L 450.493735 180.836487
L 453.877568 180.785778
L 456.777996 181.54806
L 461.612042 181.486199
L 463.787363 181.495254
L 466.929493 181.486665
L 470.071623 181.33976
L 471.763539 181.190232
L 474.905669 180.707462
L 477.322692 180.594554
L 480.706524 180.264079
L 498.109091 180.294448
L 498.109091 180.294448
" style="fill:none;stroke:#9467bd;stroke-linecap:square;stroke-width:0.8;"/>
   </g>
   <g id="legend_1">
    <g id="patch_7">
     <path d="M 450.810937 107.310625
L 511.4 107.310625
Q 513.4 107.310625 513.4 105.310625
L 513.4 32.92
Q 513.4 30.92 511.4 30.92
L 450.810937 30.92
Q 448.810937 30.92 448.810937 32.92
L 448.810937 105.310625
Q 448.810937 107.310625 450.810937 107.310625
z
" style="fill:#ffffff;opacity:0.8;stroke:#cccccc;stroke-linejoin:miter;"/>
    </g>
    <g id="line2d_26">
     <path d="M 452.810937 39.018438
L 472.810937 39.018438
" style="fill:none;stroke:#1f77b4;stroke-linecap:square;stroke-width:0.8;"/>
    </g>
    <g id="line2d_27"/>
    <g id="text_15">
     <!-- 0% -->
     <g style="fill:#696969;" transform="translate(480.810937 42.518438)scale(0.1 -0.1)">
      <defs>
       <path d="M 72.703125 32.078125
Q 68.453125 32.078125 66.03125 28.46875
Q 63.625 24.859375 63.625 18.40625
Q 63.625 12.0625 66.03125 8.421875
Q 68.453125 4.78125 72.703125 4.78125
Q 76.859375 4.78125 79.265625 8.421875
Q 81.6875 12.0625 81.6875 18.40625
Q 81.6875 24.8125 79.265625 28.4375
Q 76.859375 32.078125 72.703125 32.078125
z
M 72.703125 38.28125
Q 80.421875 38.28125 84.953125 32.90625
Q 89.5 27.546875 89.5 18.40625
Q 89.5 9.28125 84.9375 3.921875
Q 80.375 -1.421875 72.703125 -1.421875
Q 64.890625 -1.421875 60.34375 3.921875
Q 55.8125 9.28125 55.8125 18.40625
Q 55.8125 27.59375 60.375 32.9375
Q 64.9375 38.28125 72.703125 38.28125
z
M 22.3125 68.015625
Q 18.109375 68.015625 15.6875 64.375
Q 13.28125 60.75 13.28125 54.390625
Q 13.28125 47.953125 15.671875 44.328125
Q 18.0625 40.71875 22.3125 40.71875
Q 26.5625 40.71875 28.96875 44.328125
Q 31.390625 47.953125 31.390625 54.390625
Q 31.390625 60.6875 28.953125 64.34375
Q 26.515625 68.015625 22.3125 68.015625
z
M 66.40625 74.21875
L 74.21875 74.21875
L 28.609375 -1.421875
L 20.796875 -1.421875
z
M 22.3125 74.21875
Q 30.03125 74.21875 34.609375 68.875
Q 39.203125 63.53125 39.203125 54.390625
Q 39.203125 45.171875 34.640625 39.84375
Q 30.078125 34.515625 22.3125 34.515625
Q 14.546875 34.515625 10.03125 39.859375
Q 5.515625 45.21875 5.515625 54.390625
Q 5.515625 63.484375 10.046875 68.84375
Q 14.59375 74.21875 22.3125 74.21875
z
" id="DejaVuSans-37"/>
      </defs>
      <use xlink:href="#DejaVuSans-48"/>
      <use x="63.623047" xlink:href="#DejaVuSans-37"/>
     </g>
    </g>
    <g id="line2d_28">
     <path d="M 452.810937 53.696562
L 472.810937 53.696562
" style="fill:none;stroke:#ff7f0e;stroke-linecap:square;stroke-width:0.8;"/>
    </g>
    <g id="line2d_29"/>
    <g id="text_16">
     <!-- 10% -->
     <g style="fill:#696969;" transform="translate(480.810937 57.196562)scale(0.1 -0.1)">
      <use xlink:href="#DejaVuSans-49"/>
      <use x="63.623047" xlink:href="#DejaVuSans-48"/>
      <use x="127.246094" xlink:href="#DejaVuSans-37"/>
     </g>
    </g>
    <g id="line2d_30">
     <path d="M 452.810937 68.374687
L 472.810937 68.374687
" style="fill:none;stroke:#2ca02c;stroke-linecap:square;stroke-width:0.8;"/>
    </g>
    <g id="line2d_31"/>
    <g id="text_17">
     <!-- 60% -->
     <g style="fill:#696969;" transform="translate(480.810937 71.874687)scale(0.1 -0.1)">
      <use xlink:href="#DejaVuSans-54"/>
      <use x="63.623047" xlink:href="#DejaVuSans-48"/>
      <use x="127.246094" xlink:href="#DejaVuSans-37"/>
     </g>
    </g>
    <g id="line2d_32">
     <path d="M 452.810937 83.052813
L 472.810937 83.052813
" style="fill:none;stroke:#d62728;stroke-linecap:square;stroke-width:0.8;"/>
    </g>
    <g id="line2d_33"/>
    <g id="text_18">
     <!-- 100% -->
     <g style="fill:#696969;" transform="translate(480.810937 86.552813)scale(0.1 -0.1)">
      <use xlink:href="#DejaVuSans-49"/>
      <use x="63.623047" xlink:href="#DejaVuSans-48"/>
      <use x="127.246094" xlink:href="#DejaVuSans-48"/>
      <use x="190.869141" xlink:href="#DejaVuSans-37"/>
     </g>
    </g>
    <g id="line2d_34">
     <path d="M 452.810937 97.730938
L 472.810937 97.730938
" style="fill:none;stroke:#9467bd;stroke-linecap:square;stroke-width:0.8;"/>
    </g>
    <g id="line2d_35"/>
    <g id="text_19">
     <!-- 200% -->
     <g style="fill:#696969;" transform="translate(480.810937 101.230938)scale(0.1 -0.1)">
      <use xlink:href="#DejaVuSans-50"/>
      <use x="63.623047" xlink:href="#DejaVuSans-48"/>
      <use x="127.246094" xlink:href="#DejaVuSans-48"/>
      <use x="190.869141" xlink:href="#DejaVuSans-37"/>
     </g>
    </g>
   </g>
  </g>
  <g id="text_20">
   <!-- g_sv -->
   <g style="fill:#696969;" transform="translate(274.514063 13.104375)scale(0.12 -0.12)">
    <defs>
     <path d="M 45.40625 27.984375
Q 45.40625 37.75 41.375 43.109375
Q 37.359375 48.484375 30.078125 48.484375
Q 22.859375 48.484375 18.828125 43.109375
Q 14.796875 37.75 14.796875 27.984375
Q 14.796875 18.265625 18.828125 12.890625
Q 22.859375 7.515625 30.078125 7.515625
Q 37.359375 7.515625 41.375 12.890625
Q 45.40625 18.265625 45.40625 27.984375
z
M 54.390625 6.78125
Q 54.390625 -7.171875 48.1875 -13.984375
Q 42 -20.796875 29.203125 -20.796875
Q 24.46875 -20.796875 20.265625 -20.09375
Q 16.0625 -19.390625 12.109375 -17.921875
L 12.109375 -9.1875
Q 16.0625 -11.328125 19.921875 -12.34375
Q 23.78125 -13.375 27.78125 -13.375
Q 36.625 -13.375 41.015625 -8.765625
Q 45.40625 -4.15625 45.40625 5.171875
L 45.40625 9.625
Q 42.625 4.78125 38.28125 2.390625
Q 33.9375 0 27.875 0
Q 17.828125 0 11.671875 7.65625
Q 5.515625 15.328125 5.515625 27.984375
Q 5.515625 40.671875 11.671875 48.328125
Q 17.828125 56 27.875 56
Q 33.9375 56 38.28125 53.609375
Q 42.625 51.21875 45.40625 46.390625
L 45.40625 54.6875
L 54.390625 54.6875
z
" id="DejaVuSans-103"/>
     <path d="M 2.984375 54.6875
L 12.5 54.6875
L 29.59375 8.796875
L 46.6875 54.6875
L 56.203125 54.6875
L 35.6875 0
L 23.484375 0
z
" id="DejaVuSans-118"/>
    </defs>
    <use xlink:href="#DejaVuSans-103"/>
    <use x="63.476562" xlink:href="#DejaVuSans-95"/>
    <use x="113.476562" xlink:href="#DejaVuSans-115"/>
    <use x="165.576172" xlink:href="#DejaVuSans-118"/>
   </g>
  </g>
 </g>
 <defs>
  <clipPath id="p139bea931a">
   <rect height="163.08" width="446.4" x="72" y="25.92"/>
  </clipPath>
 </defs>
</svg>
