<?xml version="1.0" encoding="utf-8" standalone="no"?>
<!DOCTYPE svg PUBLIC "-//W3C//DTD SVG 1.1//EN"
  "http://www.w3.org/Graphics/SVG/1.1/DTD/svg11.dtd">
<!-- Created with matplotlib (https://matplotlib.org/) -->
<svg height="216pt" version="1.1" viewBox="0 0 576 216" width="576pt" xmlns="http://www.w3.org/2000/svg" xmlns:xlink="http://www.w3.org/1999/xlink">
 <metadata>
  <rdf:RDF xmlns:cc="http://creativecommons.org/ns#" xmlns:dc="http://purl.org/dc/elements/1.1/" xmlns:rdf="http://www.w3.org/1999/02/22-rdf-syntax-ns#">
   <cc:Work>
    <dc:type rdf:resource="http://purl.org/dc/dcmitype/StillImage"/>
    <dc:date>2020-11-03T11:22:57.366373</dc:date>
    <dc:format>image/svg+xml</dc:format>
    <dc:creator>
     <cc:Agent>
      <dc:title>Matplotlib v3.3.2, https://matplotlib.org/</dc:title>
     </cc:Agent>
    </dc:creator>
   </cc:Work>
  </rdf:RDF>
 </metadata>
 <defs>
  <style type="text/css">*{stroke-linecap:butt;stroke-linejoin:round;}</style>
 </defs>
 <g id="figure_1">
  <g id="patch_1">
   <path d="M 0 216
L 576 216
L 576 0
L 0 0
z
" style="fill:none;"/>
  </g>
  <g id="axes_1">
   <g id="patch_2">
    <path d="M 72 189
L 518.4 189
L 518.4 25.92
L 72 25.92
z
" style="fill:none;"/>
   </g>
   <g id="line2d_1">
    <path clip-path="url(#p2c3fa62c55)" d="M 92.290909 181.587273
L 93.257718 181.587273
L 93.499421 181.390846
L 93.741123 178.899455
L 95.191337 156.898104
L 95.916444 147.175115
L 96.399848 139.97504
L 96.641551 137.666476
L 96.883253 137.265043
L 99.541978 137.17178
L 100.025383 137.023689
L 100.75049 135.82125
L 101.475597 133.519346
L 102.442406 132.51774
L 102.925811 132.457756
L 105.342834 132.361571
L 105.826239 132.280571
L 106.551345 133.287
L 107.518155 132.556622
L 108.243262 131.969412
L 108.726666 131.911275
L 110.901987 131.872994
L 111.143689 131.605139
L 111.627094 130.417621
L 112.352201 127.531242
L 113.077308 127.771093
L 114.285819 126.937959
L 116.46114 126.937959
L 116.702843 127.04925
L 116.944545 128.214891
L 118.153056 138.119654
L 119.361568 141.448839
L 120.086675 142.563526
L 122.261996 142.563526
L 122.503698 142.34133
L 122.7454 140.57007
L 123.953912 127.249331
L 124.920721 123.24235
L 125.645828 121.010528
L 125.88753 120.716256
L 128.304554 120.70696
L 128.787958 120.32702
L 129.029661 120.084228
L 129.754767 121.014466
L 130.479874 118.71236
L 131.204981 115.603254
L 131.446684 114.94439
L 131.688386 114.811716
L 134.105409 114.727052
L 134.588814 113.763508
L 134.830516 113.131436
L 135.555623 109.056665
L 137.005837 104.73176
L 137.247539 104.273869
L 137.489241 104.140951
L 139.906265 104.05745
L 140.147967 103.640727
L 140.631371 101.927956
L 141.356478 101.291117
L 141.839883 101.255586
L 142.806692 101.134492
L 143.048395 100.888841
L 143.531799 100.827639
L 145.70712 100.896977
L 146.190525 102.089978
L 146.432227 102.900607
L 146.915632 103.255528
L 147.157334 103.445726
L 147.882441 106.488583
L 148.607548 113.545033
L 149.090952 113.198301
L 151.507976 113.105647
L 152.233082 111.494969
L 152.958189 115.411798
L 153.683296 109.537705
L 154.408403 98.766061
L 154.650106 98.119251
L 154.891808 97.911942
L 157.067129 97.911942
L 157.308831 97.682958
L 157.792236 93.873802
L 158.033938 91.508453
L 158.759045 81.180551
L 159.967556 78.103549
L 160.450961 76.759786
L 160.692663 76.57221
L 162.867984 76.57221
L 163.109687 76.436767
L 163.351389 75.907246
L 163.834793 74.100303
L 164.076496 74.178589
L 164.5599 74.680298
L 165.285007 63.303075
L 166.010114 65.608723
L 166.493519 65.01299
L 168.66884 65.01299
L 168.910542 64.819395
L 169.393947 62.448119
L 169.635649 60.984575
L 170.360756 54.660229
L 170.84416 59.82797
L 171.085863 60.95656
L 171.81097 51.758073
L 172.052672 50.345917
L 172.294374 49.988656
L 174.711397 50.016793
L 174.9531 49.779917
L 175.436504 49.981109
L 176.161611 49.302601
L 176.403314 49.375591
L 176.886718 49.118719
L 177.370123 49.320111
L 177.611825 49.40555
L 178.09523 49.324454
L 180.512253 49.318717
L 180.753955 49.622032
L 181.23736 49.426268
L 181.962467 50.37448
L 182.204169 50.505396
L 182.687574 51.031464
L 184.37949 51.199646
L 186.313108 51.211967
L 186.554811 50.952563
L 187.038215 51.046867
L 187.52162 50.213556
L 188.246727 48.803117
L 189.213536 46.640818
L 189.696941 46.265773
L 192.113964 46.261062
L 192.597369 46.613033
L 192.839071 46.941611
L 193.564178 49.502444
L 194.289285 36.479339
L 194.530987 35.135441
L 194.772689 35.79811
L 195.014392 37.748319
L 195.256094 37.811519
L 195.739499 37.740739
L 197.914819 37.79321
L 198.398224 37.507282
L 198.639926 37.392298
L 199.365033 35.707971
L 200.09014 50.830672
L 200.331843 52.280272
L 200.573545 51.614017
L 200.815247 49.671735
L 201.056949 50.537013
L 202.023759 50.505106
L 203.715675 50.537346
L 203.957377 50.84027
L 204.682484 50.530905
L 205.165889 50.279201
L 205.890996 48.546051
L 206.616103 48.902373
L 206.857805 48.276185
L 207.582912 48.314776
L 209.51653 48.325655
L 209.758233 48.195942
L 210.241637 48.234216
L 210.48334 48.561596
L 210.966744 48.629828
L 212.416958 50.498591
L 212.65866 50.363365
L 213.62547 50.398142
L 215.317386 50.433889
L 215.800791 56.959359
L 216.042493 60.956887
L 216.284195 60.728191
L 216.7676 60.597574
L 217.492707 60.031282
L 218.217814 70.244985
L 218.701218 69.953053
L 221.118241 69.978258
L 221.843348 60.042105
L 222.568455 69.562753
L 223.293562 67.672238
L 224.018669 55.125651
L 224.502074 54.860516
L 226.919097 54.903626
L 227.160799 55.071626
L 227.402501 55.013211
L 227.644204 54.639815
L 228.369311 44.460298
L 229.577822 47.226769
L 229.819525 47.700448
L 230.302929 47.909311
L 232.719952 47.970793
L 232.961655 48.121192
L 233.445059 47.795408
L 233.686762 48.254089
L 234.170166 48.824968
L 235.862082 51.651961
L 236.345487 51.74141
L 238.520808 51.792192
L 238.76251 52.564665
L 239.004212 52.719808
L 239.971022 54.131275
L 241.662938 54.959244
L 244.321663 55.002775
L 244.805068 54.157379
L 245.530175 52.984685
L 246.738686 51.56718
L 247.222091 50.870992
L 247.947198 50.714813
L 250.122519 50.754986
L 250.364221 50.298907
L 250.847626 52.043441
L 251.089328 51.106963
L 251.33103 50.776659
L 253.264649 44.756668
L 253.506351 44.527065
L 255.923374 44.552511
L 256.165077 44.686518
L 256.406779 44.637785
L 256.648481 44.156714
L 257.373588 46.524701
L 258.098695 52.173108
L 258.823802 59.798917
L 259.065504 60.867396
L 259.548909 60.785756
L 261.482527 60.785756
L 261.72423 60.989795
L 262.207634 61.024332
L 262.449337 61.442749
L 263.174444 61.939449
L 263.899551 56.771026
L 264.624658 50.150078
L 264.86636 49.157792
L 265.349764 49.227703
L 268.250192 49.250855
L 268.975299 48.405932
L 269.458704 48.184658
L 269.700406 48.036725
L 270.425513 47.171743
L 270.908918 47.22258
L 273.325941 47.298714
L 273.567643 47.909689
L 274.534452 45.440383
L 274.776155 45.19266
L 275.259559 46.916724
L 275.501262 47.849218
L 275.984666 55.697535
L 276.468071 60.015146
L 276.709773 60.238931
L 279.126796 60.295976
L 279.368499 61.517494
L 280.093606 67.062586
L 280.818712 70.126772
L 281.302117 72.136738
L 281.785522 64.804738
L 282.268926 60.80782
L 282.510629 60.601469
L 284.927652 60.662106
L 285.411056 57.462316
L 285.652759 55.357472
L 287.102973 51.542386
L 287.828079 52.402599
L 290.728507 52.508761
L 290.97021 52.230962
L 291.453614 52.03166
L 292.178721 50.179923
L 293.14553 46.390511
L 293.628935 45.679707
L 296.28766 45.758537
L 298.221279 46.355973
L 298.946386 46.889019
L 299.671493 47.401465
L 303.53873 47.659261
L 303.780432 47.735283
L 305.472348 49.823345
L 305.955753 49.911915
L 308.131074 49.955237
L 308.372776 50.2613
L 308.856181 49.882918
L 309.581288 50.854259
L 311.273204 52.771199
L 311.998311 52.813001
L 313.931929 52.84795
L 314.173631 53.018809
L 314.657036 52.89009
L 315.382143 53.327781
L 315.865548 53.438829
L 316.10725 53.503542
L 316.832357 55.378134
L 317.315762 55.480112
L 319.732785 55.511606
L 319.974487 55.688641
L 320.699594 55.882946
L 321.182999 56.080025
L 321.424701 55.861863
L 321.908105 55.761368
L 322.633212 53.990084
L 323.358319 53.94286
L 326.258747 53.928547
L 326.500449 53.680785
L 326.742152 53.761782
L 327.225556 53.469713
L 327.950663 52.282901
L 328.434068 50.862382
L 328.917473 50.786507
L 331.576198 50.685243
L 332.059603 50.601467
L 332.301305 50.881228
L 332.543007 50.604106
L 332.78471 50.594188
L 333.751519 52.816137
L 334.234923 54.653684
L 334.96003 54.850146
L 337.135351 54.868258
L 337.377053 55.286954
L 337.860458 55.226955
L 338.10216 55.267408
L 338.585565 55.674127
L 338.827267 55.588719
L 339.552374 55.600924
L 339.794077 55.38787
L 340.035779 55.331803
L 340.519183 55.596611
L 343.903016 55.512088
L 344.38642 55.228018
L 345.594932 54.845717
L 346.320039 54.750997
L 348.978764 54.668617
L 349.462169 54.250637
L 349.945574 53.579144
L 350.187276 53.337894
L 350.670681 52.353212
L 351.154085 51.168739
L 351.63749 49.871952
L 352.846001 49.788143
L 354.537918 49.788143
L 355.021322 48.667397
L 355.263025 47.753322
L 355.746429 45.494026
L 356.471536 42.360939
L 357.680048 36.362342
L 357.92175 36.184367
L 360.338773 36.184367
L 361.547285 35.656167
L 361.788987 35.60662
L 362.514094 40.386088
L 363.239201 41.309663
L 363.480903 41.086566
L 364.447712 41.055412
L 366.139629 41.055412
L 366.381331 40.930583
L 366.864736 41.269289
L 367.589842 40.149749
L 368.314949 34.294734
L 369.040056 33.627673
L 370.006866 33.766146
L 372.182186 33.823373
L 372.665591 34.004397
L 372.907293 33.838011
L 373.390698 33.332727
L 374.115805 34.853463
L 374.357507 33.981362
L 374.599209 35.471575
L 374.840912 38.704554
L 375.566019 38.978163
L 377.74134 38.978163
L 377.983042 39.104631
L 378.466446 38.970177
L 378.949851 39.163751
L 379.191553 39.270441
L 379.91666 38.129795
L 380.158363 38.956627
L 380.400065 37.435143
L 380.641767 34.242242
L 381.608577 34.396906
L 383.542195 34.396906
L 383.783897 34.548454
L 384.509004 34.453428
L 385.475814 34.694274
L 386.684325 34.944017
L 387.16773 35.043671
L 389.343051 35.043671
L 389.584753 35.180766
L 392.001776 35.207264
L 393.45199 35.4111
L 395.385608 35.49314
L 395.869013 35.970931
L 396.59412 39.544632
L 396.835822 39.585966
L 397.319227 39.486902
L 398.044334 41.035629
L 398.286036 42.437436
L 398.527738 42.75397
L 400.944761 42.75397
L 401.186464 42.898617
L 401.669868 42.490614
L 402.394975 38.895972
L 402.636678 38.843556
L 403.120082 39.037192
L 403.845189 37.55748
L 404.086892 36.151664
L 404.570296 36.029618
L 407.470724 36.018309
L 407.954129 35.617359
L 408.437533 35.230522
L 409.646045 34.439503
L 410.371152 34.691284
L 412.546472 34.691284
L 413.029877 34.84807
L 413.271579 34.829994
L 413.996686 35.437939
L 414.721793 41.655515
L 415.4469 42.153901
L 415.688603 44.047332
L 415.930305 44.897821
L 418.347328 44.897821
L 418.58903 45.084116
L 419.797542 45.097825
L 420.522649 38.606873
L 421.006053 38.54866
L 421.247756 38.560052
L 421.489458 36.898131
L 421.73116 36.346476
L 424.148183 36.346476
L 424.631588 36.527412
L 426.081802 36.591803
L 426.565207 36.684716
L 427.773718 37.090986
L 430.674146 37.081201
L 431.399253 36.608362
L 431.640955 36.668464
L 433.091169 36.223492
L 433.574574 36.347226
L 435.991597 36.441167
L 437.683513 36.623721
L 438.166918 36.572853
L 438.650322 36.617702
L 439.375429 36.882171
L 441.55075 36.882171
L 442.034155 37.074852
L 442.759261 37.131282
L 443.967773 37.169246
L 444.934582 37.67731
L 448.076712 37.735693
L 448.318415 37.81072
L 448.801819 37.666418
L 449.768629 37.967032
L 450.493735 38.054141
L 450.735438 38.179362
L 453.152461 38.179362
L 453.635866 38.327829
L 454.602675 38.479971
L 455.327782 36.723964
L 455.569484 36.682606
L 455.811186 36.301252
L 456.052889 36.156026
L 457.2614 36.327533
L 459.920126 36.304005
L 460.40353 35.989922
L 460.645233 36.044165
L 461.128637 36.569764
L 461.370339 36.580715
L 462.095446 37.002711
L 462.578851 37.116423
L 464.995874 37.219042
L 465.962683 37.29594
L 466.204386 37.284277
L 466.446088 37.495009
L 467.896302 37.698524
L 468.379707 37.795137
L 471.521837 37.8143
L 472.005241 37.522705
L 472.730348 37.655618
L 472.97205 37.539967
L 473.455455 37.595813
L 474.422264 37.660916
L 476.839287 37.749381
L 477.564394 37.816197
L 478.047799 37.842749
L 478.772906 37.891063
L 479.256311 37.729809
L 479.981418 37.878185
L 482.881845 37.855149
L 483.848655 36.69713
L 484.573761 35.77493
L 485.057166 35.441423
L 485.540571 35.414759
L 487.957594 35.414759
L 488.199296 35.606166
L 488.924403 36.477261
L 489.407808 36.794992
L 490.132915 38.145481
L 491.099724 38.300994
L 492.066533 38.33122
L 494.000152 38.369831
L 495.450365 37.052614
L 495.93377 36.246487
L 496.658877 36.877708
L 496.900579 37.218225
L 498.109091 37.234439
L 498.109091 37.234439
" style="fill:none;stroke:#1f77b4;stroke-linecap:square;stroke-width:0.8;"/>
   </g>
   <g id="line2d_2">
    <path clip-path="url(#p2c3fa62c55)" d="M 92.290909 181.587273
L 93.257718 181.587273
L 93.499421 181.390846
L 93.741123 178.899455
L 95.191337 156.898104
L 95.916444 147.175115
L 96.399848 139.97504
L 96.641551 137.666476
L 96.883253 137.265043
L 99.541978 137.17178
L 100.025383 137.023689
L 100.75049 135.82125
L 101.475597 133.519346
L 102.442406 132.51774
L 102.925811 132.457756
L 105.342834 132.361571
L 105.826239 132.280571
L 106.551345 133.287
L 107.518155 132.556622
L 108.243262 131.969412
L 108.726666 131.911275
L 110.901987 131.872994
L 111.143689 131.605139
L 111.627094 130.417621
L 112.352201 127.531242
L 113.077308 127.771093
L 114.285819 126.937959
L 116.46114 126.937959
L 116.702843 127.04925
L 116.944545 128.214891
L 118.153056 138.119654
L 119.361568 141.448839
L 120.086675 142.563526
L 122.261996 142.563526
L 122.503698 142.34133
L 122.7454 140.57007
L 123.953912 127.249331
L 124.920721 123.24235
L 125.645828 121.010528
L 125.88753 120.716256
L 128.304554 120.70696
L 128.787958 120.32702
L 129.029661 120.084228
L 129.754767 121.014466
L 130.479874 118.71236
L 131.204981 115.603254
L 131.446684 114.94439
L 131.688386 114.811716
L 134.105409 114.727052
L 134.588814 113.763508
L 134.830516 113.131436
L 135.555623 109.056665
L 137.005837 104.73176
L 137.247539 104.273869
L 137.489241 104.140951
L 139.906265 104.05745
L 140.147967 103.640727
L 140.631371 101.927956
L 141.356478 101.291117
L 141.839883 101.255586
L 142.806692 101.134492
L 143.048395 100.888841
L 143.531799 100.827639
L 145.70712 100.896977
L 146.190525 102.089978
L 146.432227 102.900607
L 146.915632 103.255528
L 147.157334 103.445726
L 147.882441 106.488583
L 148.607548 113.545033
L 149.090952 113.198301
L 151.507976 113.105647
L 152.233082 111.494969
L 152.958189 115.411798
L 153.683296 109.537705
L 154.408403 98.766061
L 154.650106 98.119251
L 154.891808 97.911942
L 157.067129 97.911942
L 157.308831 97.682958
L 157.792236 93.873802
L 158.033938 91.508453
L 158.759045 81.180551
L 159.967556 78.103549
L 160.450961 76.759786
L 160.692663 76.57221
L 162.867984 76.57221
L 163.109687 76.436767
L 163.351389 75.907246
L 163.834793 74.100303
L 164.076496 74.178589
L 164.5599 74.680298
L 165.285007 63.303075
L 166.010114 65.608723
L 166.493519 65.01299
L 168.66884 65.01299
L 168.910542 64.819395
L 169.393947 62.448119
L 169.635649 60.984575
L 170.360756 54.660229
L 170.84416 59.82797
L 171.085863 60.95656
L 171.81097 51.758073
L 172.052672 50.345917
L 172.294374 49.988656
L 174.711397 50.016793
L 174.9531 49.779917
L 175.436504 49.981109
L 176.161611 49.302601
L 176.403314 49.375591
L 176.886718 49.118719
L 177.370123 49.320111
L 177.611825 49.40555
L 178.09523 49.324454
L 180.512253 49.318717
L 180.753955 49.622032
L 181.23736 49.426268
L 181.962467 50.37448
L 182.204169 50.505396
L 182.687574 51.031464
L 184.37949 51.199646
L 186.313108 51.211967
L 186.554811 50.952563
L 187.038215 51.046867
L 187.52162 50.213556
L 188.246727 48.803117
L 189.213536 46.640818
L 189.696941 46.265773
L 192.113964 46.261062
L 192.597369 46.613033
L 192.839071 46.941611
L 193.564178 49.502444
L 194.289285 36.479339
L 194.530987 35.135441
L 194.772689 35.79811
L 195.014392 37.748319
L 195.256094 37.811519
L 195.739499 37.740739
L 197.914819 37.79321
L 198.398224 37.507282
L 198.639926 37.392298
L 199.365033 35.707971
L 200.09014 50.830672
L 200.331843 52.280272
L 200.573545 51.614017
L 200.815247 49.671735
L 201.056949 50.537013
L 202.023759 50.505106
L 203.715675 50.537346
L 203.957377 50.84027
L 204.682484 50.530905
L 205.165889 50.279201
L 205.890996 48.546051
L 206.616103 48.902373
L 206.857805 48.276185
L 207.582912 48.314776
L 209.51653 48.325655
L 209.758233 48.195942
L 210.241637 48.234216
L 210.48334 48.561596
L 210.966744 48.629828
L 212.416958 50.498591
L 212.65866 50.363365
L 213.62547 50.398142
L 215.317386 50.433889
L 215.800791 56.959359
L 216.042493 60.956887
L 216.284195 60.728191
L 216.7676 60.597574
L 217.492707 60.031282
L 218.217814 70.244985
L 218.701218 69.953053
L 221.118241 69.978258
L 221.843348 60.042105
L 222.568455 69.562753
L 223.293562 67.672238
L 224.018669 55.125651
L 224.502074 54.860516
L 226.919097 54.903626
L 227.160799 55.071626
L 227.402501 55.013211
L 227.644204 54.639815
L 228.369311 44.460298
L 229.577822 47.226769
L 229.819525 47.700448
L 230.302929 47.909311
L 232.719952 47.970793
L 232.961655 48.121192
L 233.445059 47.795408
L 233.686762 48.254089
L 234.170166 48.824968
L 235.862082 51.651961
L 236.345487 51.74141
L 238.520808 51.792192
L 238.76251 52.564665
L 239.004212 52.719808
L 239.971022 54.131275
L 241.662938 54.959244
L 244.321663 55.002775
L 244.805068 54.157379
L 245.530175 52.984685
L 246.738686 51.56718
L 247.222091 50.870992
L 247.947198 50.714813
L 250.122519 50.754986
L 250.364221 50.298907
L 250.847626 52.043441
L 251.089328 51.106963
L 251.33103 50.776659
L 253.264649 44.756668
L 253.506351 44.527065
L 255.923374 44.552511
L 256.165077 44.686518
L 256.406779 44.637785
L 256.648481 44.156714
L 257.373588 46.524701
L 258.098695 52.173108
L 258.823802 59.798917
L 259.065504 60.867396
L 259.548909 60.785756
L 261.482527 60.785756
L 261.72423 60.989795
L 262.207634 61.024332
L 262.449337 61.442749
L 263.174444 61.939449
L 263.899551 56.771026
L 264.624658 50.150078
L 264.86636 49.157792
L 265.349764 49.227703
L 268.250192 49.250855
L 268.975299 48.405932
L 269.458704 48.184658
L 269.700406 48.036725
L 270.425513 47.171743
L 270.908918 47.22258
L 273.325941 47.298714
L 273.567643 47.909689
L 274.534452 45.440383
L 274.776155 45.19266
L 275.259559 46.916724
L 275.501262 47.849218
L 275.984666 55.697535
L 276.468071 60.015146
L 276.709773 60.238931
L 279.126796 60.295976
L 279.368499 61.517494
L 280.093606 67.062586
L 280.818712 70.126772
L 281.302117 72.136738
L 281.785522 64.804738
L 282.268926 60.80782
L 282.510629 60.601469
L 284.927652 60.662106
L 285.411056 57.462316
L 285.652759 55.357472
L 287.102973 51.542386
L 287.828079 52.402599
L 290.728507 52.508761
L 290.97021 52.230962
L 291.453614 52.03166
L 292.178721 50.179923
L 293.14553 46.390511
L 293.628935 45.679707
L 296.28766 45.758537
L 298.221279 46.355415
L 298.946386 46.888461
L 299.671493 47.400906
L 303.53873 47.658338
L 303.780432 47.734359
L 305.472348 49.822422
L 305.955753 49.910992
L 308.131074 49.954313
L 308.372776 50.260376
L 308.856181 49.881875
L 309.581288 50.853217
L 311.273204 52.770156
L 311.998311 52.811958
L 313.931929 52.846907
L 314.173631 53.017767
L 314.657036 52.888946
L 315.382143 53.32501
L 315.865548 53.436058
L 316.10725 53.500771
L 316.832357 55.375363
L 317.315762 55.477341
L 319.732785 55.508834
L 319.974487 55.68587
L 320.699594 55.880031
L 321.182999 56.07655
L 321.424701 55.858389
L 321.666403 55.863531
L 321.908105 55.75729
L 322.633212 53.98414
L 323.358319 53.936915
L 326.258747 53.9228
L 326.500449 53.675209
L 326.742152 53.756296
L 327.225556 53.463784
L 327.950663 52.276551
L 328.434068 50.856113
L 328.917473 50.779866
L 331.576198 50.678228
L 332.059603 50.594535
L 332.301305 50.874285
L 332.543007 50.597164
L 332.78471 50.587163
L 333.751519 52.807409
L 334.234923 54.642907
L 334.96003 54.839056
L 337.135351 54.857168
L 337.377053 55.275678
L 337.860458 55.215499
L 338.10216 55.255861
L 338.585565 55.662566
L 338.827267 55.577303
L 339.552374 55.590788
L 339.794077 55.378805
L 340.035779 55.323532
L 340.519183 55.588576
L 343.903016 55.50347
L 344.38642 55.21916
L 345.594932 54.836393
L 346.320039 54.741537
L 348.978764 54.659028
L 349.462169 54.24059
L 349.945574 53.568311
L 350.187276 53.32664
L 350.670681 52.341094
L 351.154085 51.155587
L 351.63749 49.857724
L 352.846001 49.773301
L 354.537918 49.773301
L 355.021322 48.654175
L 355.263025 47.741208
L 355.746429 45.484489
L 356.471536 42.354682
L 357.680048 36.362076
L 357.92175 36.184367
L 360.338773 36.184367
L 361.547285 35.656167
L 361.788987 35.60662
L 362.514094 40.386088
L 363.239201 41.309663
L 363.480903 41.086566
L 364.447712 41.055412
L 366.139629 41.055412
L 366.381331 40.930583
L 366.864736 41.269289
L 367.589842 40.149749
L 368.314949 34.294734
L 369.040056 33.627673
L 370.006866 33.766146
L 372.182186 33.823373
L 372.665591 34.004397
L 372.907293 33.838011
L 373.390698 33.332727
L 374.115805 34.853463
L 374.357507 33.981362
L 374.599209 35.471575
L 374.840912 38.704554
L 375.566019 38.978163
L 377.74134 38.978163
L 377.983042 39.104631
L 378.466446 38.970177
L 378.949851 39.163751
L 379.191553 39.270441
L 379.91666 38.129795
L 380.158363 38.956627
L 380.400065 37.435143
L 380.641767 34.242242
L 381.608577 34.396906
L 383.542195 34.396906
L 383.783897 34.548454
L 384.509004 34.453428
L 385.475814 34.694274
L 386.684325 34.944017
L 387.16773 35.043671
L 389.343051 35.043671
L 389.584753 35.180766
L 392.001776 35.207264
L 393.45199 35.4111
L 395.385608 35.49314
L 395.869013 35.970931
L 396.59412 39.544632
L 396.835822 39.585966
L 397.319227 39.486902
L 398.044334 41.035629
L 398.286036 42.437436
L 398.527738 42.75397
L 400.944761 42.75397
L 401.186464 42.898617
L 401.669868 42.490614
L 402.394975 38.895972
L 402.636678 38.843556
L 403.120082 39.037192
L 403.845189 37.55748
L 404.086892 36.151664
L 404.570296 36.029618
L 407.470724 36.018309
L 407.954129 35.617359
L 408.437533 35.230522
L 409.646045 34.439503
L 410.371152 34.691284
L 412.546472 34.691284
L 413.029877 34.84807
L 413.271579 34.829994
L 413.996686 35.437939
L 414.721793 41.655515
L 415.4469 42.153901
L 415.688603 44.047332
L 415.930305 44.897821
L 418.347328 44.897821
L 418.58903 45.084116
L 419.797542 45.097825
L 420.522649 38.606873
L 421.006053 38.54866
L 421.247756 38.560052
L 421.489458 36.898131
L 421.73116 36.346476
L 424.148183 36.346476
L 424.631588 36.527412
L 426.081802 36.591803
L 426.565207 36.684716
L 427.773718 37.090986
L 430.674146 37.081201
L 431.399253 36.608362
L 431.640955 36.668464
L 433.091169 36.223492
L 433.574574 36.347226
L 435.991597 36.441167
L 437.683513 36.623721
L 438.166918 36.572853
L 438.650322 36.617702
L 439.375429 36.882171
L 441.55075 36.882171
L 442.034155 37.074852
L 442.759261 37.131282
L 443.967773 37.169246
L 444.934582 37.67731
L 448.076712 37.735693
L 448.318415 37.81072
L 448.801819 37.666418
L 449.768629 37.967032
L 450.493735 38.054141
L 450.735438 38.179362
L 453.152461 38.179362
L 453.635866 38.327829
L 454.602675 38.479971
L 455.327782 36.723964
L 455.569484 36.682606
L 455.811186 36.301252
L 456.052889 36.156026
L 457.2614 36.327533
L 459.920126 36.304005
L 460.40353 35.989922
L 460.645233 36.044165
L 461.128637 36.569764
L 461.370339 36.580715
L 462.095446 37.002711
L 462.578851 37.116423
L 464.995874 37.219042
L 465.962683 37.29594
L 466.204386 37.284277
L 466.446088 37.495009
L 467.896302 37.698524
L 468.379707 37.795137
L 471.521837 37.8143
L 472.005241 37.522705
L 472.730348 37.655618
L 472.97205 37.539967
L 473.455455 37.595813
L 474.422264 37.660916
L 476.839287 37.749381
L 477.564394 37.816197
L 478.047799 37.842749
L 478.772906 37.891063
L 479.256311 37.729809
L 479.981418 37.878185
L 482.881845 37.855149
L 483.848655 36.69713
L 484.573761 35.77493
L 485.057166 35.441423
L 485.540571 35.414759
L 487.957594 35.414759
L 488.199296 35.606166
L 488.924403 36.477261
L 489.407808 36.794992
L 490.132915 38.145481
L 491.099724 38.300994
L 492.066533 38.33122
L 494.000152 38.369831
L 495.450365 37.052614
L 495.93377 36.246487
L 496.658877 36.877708
L 496.900579 37.218225
L 498.109091 37.234439
L 498.109091 37.234439
" style="fill:none;stroke:#ff7f0e;stroke-linecap:square;stroke-width:0.8;"/>
   </g>
   <g id="matplotlib.axis_1">
    <g id="xtick_1">
     <g id="line2d_3">
      <defs>
       <path d="M 0 0
L 0 1.5
" id="md3d42d8cf1" style="stroke:#696969;stroke-width:0.8;"/>
      </defs>
      <g>
       <use style="fill:#696969;stroke:#696969;stroke-width:0.8;" x="92.290909" xlink:href="#md3d42d8cf1" y="189"/>
      </g>
     </g>
     <g id="text_1">
      <!-- 150 -->
      <g style="fill:#696969;" transform="translate(82.747159 201.598437)scale(0.1 -0.1)">
       <defs>
        <path d="M 12.40625 8.296875
L 28.515625 8.296875
L 28.515625 63.921875
L 10.984375 60.40625
L 10.984375 69.390625
L 28.421875 72.90625
L 38.28125 72.90625
L 38.28125 8.296875
L 54.390625 8.296875
L 54.390625 0
L 12.40625 0
z
" id="DejaVuSans-49"/>
        <path d="M 10.796875 72.90625
L 49.515625 72.90625
L 49.515625 64.59375
L 19.828125 64.59375
L 19.828125 46.734375
Q 21.96875 47.46875 24.109375 47.828125
Q 26.265625 48.1875 28.421875 48.1875
Q 40.625 48.1875 47.75 41.5
Q 54.890625 34.8125 54.890625 23.390625
Q 54.890625 11.625 47.5625 5.09375
Q 40.234375 -1.421875 26.90625 -1.421875
Q 22.3125 -1.421875 17.546875 -0.640625
Q 12.796875 0.140625 7.71875 1.703125
L 7.71875 11.625
Q 12.109375 9.234375 16.796875 8.0625
Q 21.484375 6.890625 26.703125 6.890625
Q 35.15625 6.890625 40.078125 11.328125
Q 45.015625 15.765625 45.015625 23.390625
Q 45.015625 31 40.078125 35.4375
Q 35.15625 39.890625 26.703125 39.890625
Q 22.75 39.890625 18.8125 39.015625
Q 14.890625 38.140625 10.796875 36.28125
z
" id="DejaVuSans-53"/>
        <path d="M 31.78125 66.40625
Q 24.171875 66.40625 20.328125 58.90625
Q 16.5 51.421875 16.5 36.375
Q 16.5 21.390625 20.328125 13.890625
Q 24.171875 6.390625 31.78125 6.390625
Q 39.453125 6.390625 43.28125 13.890625
Q 47.125 21.390625 47.125 36.375
Q 47.125 51.421875 43.28125 58.90625
Q 39.453125 66.40625 31.78125 66.40625
z
M 31.78125 74.21875
Q 44.046875 74.21875 50.515625 64.515625
Q 56.984375 54.828125 56.984375 36.375
Q 56.984375 17.96875 50.515625 8.265625
Q 44.046875 -1.421875 31.78125 -1.421875
Q 19.53125 -1.421875 13.0625 8.265625
Q 6.59375 17.96875 6.59375 36.375
Q 6.59375 54.828125 13.0625 64.515625
Q 19.53125 74.21875 31.78125 74.21875
z
" id="DejaVuSans-48"/>
       </defs>
       <use xlink:href="#DejaVuSans-49"/>
       <use x="63.623047" xlink:href="#DejaVuSans-53"/>
       <use x="127.246094" xlink:href="#DejaVuSans-48"/>
      </g>
     </g>
    </g>
    <g id="xtick_2">
     <g id="line2d_4">
      <g>
       <use style="fill:#696969;stroke:#696969;stroke-width:0.8;" x="227.644204" xlink:href="#md3d42d8cf1" y="189"/>
      </g>
     </g>
     <g id="text_2">
      <!-- 173 -->
      <g style="fill:#696969;" transform="translate(218.100454 201.598437)scale(0.1 -0.1)">
       <defs>
        <path d="M 8.203125 72.90625
L 55.078125 72.90625
L 55.078125 68.703125
L 28.609375 0
L 18.3125 0
L 43.21875 64.59375
L 8.203125 64.59375
z
" id="DejaVuSans-55"/>
        <path d="M 40.578125 39.3125
Q 47.65625 37.796875 51.625 33
Q 55.609375 28.21875 55.609375 21.1875
Q 55.609375 10.40625 48.1875 4.484375
Q 40.765625 -1.421875 27.09375 -1.421875
Q 22.515625 -1.421875 17.65625 -0.515625
Q 12.796875 0.390625 7.625 2.203125
L 7.625 11.71875
Q 11.71875 9.328125 16.59375 8.109375
Q 21.484375 6.890625 26.8125 6.890625
Q 36.078125 6.890625 40.9375 10.546875
Q 45.796875 14.203125 45.796875 21.1875
Q 45.796875 27.640625 41.28125 31.265625
Q 36.765625 34.90625 28.71875 34.90625
L 20.21875 34.90625
L 20.21875 43.015625
L 29.109375 43.015625
Q 36.375 43.015625 40.234375 45.921875
Q 44.09375 48.828125 44.09375 54.296875
Q 44.09375 59.90625 40.109375 62.90625
Q 36.140625 65.921875 28.71875 65.921875
Q 24.65625 65.921875 20.015625 65.03125
Q 15.375 64.15625 9.8125 62.3125
L 9.8125 71.09375
Q 15.4375 72.65625 20.34375 73.4375
Q 25.25 74.21875 29.59375 74.21875
Q 40.828125 74.21875 47.359375 69.109375
Q 53.90625 64.015625 53.90625 55.328125
Q 53.90625 49.265625 50.4375 45.09375
Q 46.96875 40.921875 40.578125 39.3125
z
" id="DejaVuSans-51"/>
       </defs>
       <use xlink:href="#DejaVuSans-49"/>
       <use x="63.623047" xlink:href="#DejaVuSans-55"/>
       <use x="127.246094" xlink:href="#DejaVuSans-51"/>
      </g>
     </g>
    </g>
    <g id="xtick_3">
     <g id="line2d_5">
      <g>
       <use style="fill:#696969;stroke:#696969;stroke-width:0.8;" x="362.997499" xlink:href="#md3d42d8cf1" y="189"/>
      </g>
     </g>
     <g id="text_3">
      <!-- 196 -->
      <g style="fill:#696969;" transform="translate(353.453749 201.598437)scale(0.1 -0.1)">
       <defs>
        <path d="M 10.984375 1.515625
L 10.984375 10.5
Q 14.703125 8.734375 18.5 7.8125
Q 22.3125 6.890625 25.984375 6.890625
Q 35.75 6.890625 40.890625 13.453125
Q 46.046875 20.015625 46.78125 33.40625
Q 43.953125 29.203125 39.59375 26.953125
Q 35.25 24.703125 29.984375 24.703125
Q 19.046875 24.703125 12.671875 31.3125
Q 6.296875 37.9375 6.296875 49.421875
Q 6.296875 60.640625 12.9375 67.421875
Q 19.578125 74.21875 30.609375 74.21875
Q 43.265625 74.21875 49.921875 64.515625
Q 56.59375 54.828125 56.59375 36.375
Q 56.59375 19.140625 48.40625 8.859375
Q 40.234375 -1.421875 26.421875 -1.421875
Q 22.703125 -1.421875 18.890625 -0.6875
Q 15.09375 0.046875 10.984375 1.515625
z
M 30.609375 32.421875
Q 37.25 32.421875 41.125 36.953125
Q 45.015625 41.5 45.015625 49.421875
Q 45.015625 57.28125 41.125 61.84375
Q 37.25 66.40625 30.609375 66.40625
Q 23.96875 66.40625 20.09375 61.84375
Q 16.21875 57.28125 16.21875 49.421875
Q 16.21875 41.5 20.09375 36.953125
Q 23.96875 32.421875 30.609375 32.421875
z
" id="DejaVuSans-57"/>
        <path d="M 33.015625 40.375
Q 26.375 40.375 22.484375 35.828125
Q 18.609375 31.296875 18.609375 23.390625
Q 18.609375 15.53125 22.484375 10.953125
Q 26.375 6.390625 33.015625 6.390625
Q 39.65625 6.390625 43.53125 10.953125
Q 47.40625 15.53125 47.40625 23.390625
Q 47.40625 31.296875 43.53125 35.828125
Q 39.65625 40.375 33.015625 40.375
z
M 52.59375 71.296875
L 52.59375 62.3125
Q 48.875 64.0625 45.09375 64.984375
Q 41.3125 65.921875 37.59375 65.921875
Q 27.828125 65.921875 22.671875 59.328125
Q 17.53125 52.734375 16.796875 39.40625
Q 19.671875 43.65625 24.015625 45.921875
Q 28.375 48.1875 33.59375 48.1875
Q 44.578125 48.1875 50.953125 41.515625
Q 57.328125 34.859375 57.328125 23.390625
Q 57.328125 12.15625 50.6875 5.359375
Q 44.046875 -1.421875 33.015625 -1.421875
Q 20.359375 -1.421875 13.671875 8.265625
Q 6.984375 17.96875 6.984375 36.375
Q 6.984375 53.65625 15.1875 63.9375
Q 23.390625 74.21875 37.203125 74.21875
Q 40.921875 74.21875 44.703125 73.484375
Q 48.484375 72.75 52.59375 71.296875
z
" id="DejaVuSans-54"/>
       </defs>
       <use xlink:href="#DejaVuSans-49"/>
       <use x="63.623047" xlink:href="#DejaVuSans-57"/>
       <use x="127.246094" xlink:href="#DejaVuSans-54"/>
      </g>
     </g>
    </g>
    <g id="xtick_4">
     <g id="line2d_6">
      <g>
       <use style="fill:#696969;stroke:#696969;stroke-width:0.8;" x="498.350793" xlink:href="#md3d42d8cf1" y="189"/>
      </g>
     </g>
     <g id="text_4">
      <!-- 220 -->
      <g style="fill:#696969;" transform="translate(488.807043 201.598437)scale(0.1 -0.1)">
       <defs>
        <path d="M 19.1875 8.296875
L 53.609375 8.296875
L 53.609375 0
L 7.328125 0
L 7.328125 8.296875
Q 12.9375 14.109375 22.625 23.890625
Q 32.328125 33.6875 34.8125 36.53125
Q 39.546875 41.84375 41.421875 45.53125
Q 43.3125 49.21875 43.3125 52.78125
Q 43.3125 58.59375 39.234375 62.25
Q 35.15625 65.921875 28.609375 65.921875
Q 23.96875 65.921875 18.8125 64.3125
Q 13.671875 62.703125 7.8125 59.421875
L 7.8125 69.390625
Q 13.765625 71.78125 18.9375 73
Q 24.125 74.21875 28.421875 74.21875
Q 39.75 74.21875 46.484375 68.546875
Q 53.21875 62.890625 53.21875 53.421875
Q 53.21875 48.921875 51.53125 44.890625
Q 49.859375 40.875 45.40625 35.40625
Q 44.1875 33.984375 37.640625 27.21875
Q 31.109375 20.453125 19.1875 8.296875
z
" id="DejaVuSans-50"/>
       </defs>
       <use xlink:href="#DejaVuSans-50"/>
       <use x="63.623047" xlink:href="#DejaVuSans-50"/>
       <use x="127.246094" xlink:href="#DejaVuSans-48"/>
      </g>
     </g>
    </g>
    <g id="text_5">
     <!-- Days -->
     <g style="fill:#696969;" transform="translate(282.721875 215.276563)scale(0.1 -0.1)">
      <defs>
       <path d="M 19.671875 64.796875
L 19.671875 8.109375
L 31.59375 8.109375
Q 46.6875 8.109375 53.6875 14.9375
Q 60.6875 21.78125 60.6875 36.53125
Q 60.6875 51.171875 53.6875 57.984375
Q 46.6875 64.796875 31.59375 64.796875
z
M 9.8125 72.90625
L 30.078125 72.90625
Q 51.265625 72.90625 61.171875 64.09375
Q 71.09375 55.28125 71.09375 36.53125
Q 71.09375 17.671875 61.125 8.828125
Q 51.171875 0 30.078125 0
L 9.8125 0
z
" id="DejaVuSans-68"/>
       <path d="M 34.28125 27.484375
Q 23.390625 27.484375 19.1875 25
Q 14.984375 22.515625 14.984375 16.5
Q 14.984375 11.71875 18.140625 8.90625
Q 21.296875 6.109375 26.703125 6.109375
Q 34.1875 6.109375 38.703125 11.40625
Q 43.21875 16.703125 43.21875 25.484375
L 43.21875 27.484375
z
M 52.203125 31.203125
L 52.203125 0
L 43.21875 0
L 43.21875 8.296875
Q 40.140625 3.328125 35.546875 0.953125
Q 30.953125 -1.421875 24.3125 -1.421875
Q 15.921875 -1.421875 10.953125 3.296875
Q 6 8.015625 6 15.921875
Q 6 25.140625 12.171875 29.828125
Q 18.359375 34.515625 30.609375 34.515625
L 43.21875 34.515625
L 43.21875 35.40625
Q 43.21875 41.609375 39.140625 45
Q 35.0625 48.390625 27.6875 48.390625
Q 23 48.390625 18.546875 47.265625
Q 14.109375 46.140625 10.015625 43.890625
L 10.015625 52.203125
Q 14.9375 54.109375 19.578125 55.046875
Q 24.21875 56 28.609375 56
Q 40.484375 56 46.34375 49.84375
Q 52.203125 43.703125 52.203125 31.203125
z
" id="DejaVuSans-97"/>
       <path d="M 32.171875 -5.078125
Q 28.375 -14.84375 24.75 -17.8125
Q 21.140625 -20.796875 15.09375 -20.796875
L 7.90625 -20.796875
L 7.90625 -13.28125
L 13.1875 -13.28125
Q 16.890625 -13.28125 18.9375 -11.515625
Q 21 -9.765625 23.484375 -3.21875
L 25.09375 0.875
L 2.984375 54.6875
L 12.5 54.6875
L 29.59375 11.921875
L 46.6875 54.6875
L 56.203125 54.6875
z
" id="DejaVuSans-121"/>
       <path d="M 44.28125 53.078125
L 44.28125 44.578125
Q 40.484375 46.53125 36.375 47.5
Q 32.28125 48.484375 27.875 48.484375
Q 21.1875 48.484375 17.84375 46.4375
Q 14.5 44.390625 14.5 40.28125
Q 14.5 37.15625 16.890625 35.375
Q 19.28125 33.59375 26.515625 31.984375
L 29.59375 31.296875
Q 39.15625 29.25 43.1875 25.515625
Q 47.21875 21.78125 47.21875 15.09375
Q 47.21875 7.46875 41.1875 3.015625
Q 35.15625 -1.421875 24.609375 -1.421875
Q 20.21875 -1.421875 15.453125 -0.5625
Q 10.6875 0.296875 5.421875 2
L 5.421875 11.28125
Q 10.40625 8.6875 15.234375 7.390625
Q 20.0625 6.109375 24.8125 6.109375
Q 31.15625 6.109375 34.5625 8.28125
Q 37.984375 10.453125 37.984375 14.40625
Q 37.984375 18.0625 35.515625 20.015625
Q 33.0625 21.96875 24.703125 23.78125
L 21.578125 24.515625
Q 13.234375 26.265625 9.515625 29.90625
Q 5.8125 33.546875 5.8125 39.890625
Q 5.8125 47.609375 11.28125 51.796875
Q 16.75 56 26.8125 56
Q 31.78125 56 36.171875 55.265625
Q 40.578125 54.546875 44.28125 53.078125
z
" id="DejaVuSans-115"/>
      </defs>
      <use xlink:href="#DejaVuSans-68"/>
      <use x="77.001953" xlink:href="#DejaVuSans-97"/>
      <use x="138.28125" xlink:href="#DejaVuSans-121"/>
      <use x="197.460938" xlink:href="#DejaVuSans-115"/>
     </g>
    </g>
   </g>
   <g id="matplotlib.axis_2">
    <g id="ytick_1">
     <g id="line2d_7">
      <path clip-path="url(#p2c3fa62c55)" d="M 72 181.587273
L 518.4 181.587273
" style="fill:none;stroke:#b0b0b0;stroke-linecap:square;stroke-width:0.8;"/>
     </g>
     <g id="line2d_8">
      <defs>
       <path d="M 0 0
L -1 0
" id="m4dd5b63103" style="stroke:#696969;stroke-width:0.2;"/>
      </defs>
      <g>
       <use style="fill:#696969;stroke:#696969;stroke-width:0.2;" x="72" xlink:href="#m4dd5b63103" y="181.587273"/>
      </g>
     </g>
     <g id="text_6">
      <!-- 0.0 -->
      <g style="fill:#696969;" transform="translate(51.596875 185.386491)scale(0.1 -0.1)">
       <defs>
        <path d="M 10.6875 12.40625
L 21 12.40625
L 21 0
L 10.6875 0
z
" id="DejaVuSans-46"/>
       </defs>
       <use xlink:href="#DejaVuSans-48"/>
       <use x="63.623047" xlink:href="#DejaVuSans-46"/>
       <use x="95.410156" xlink:href="#DejaVuSans-48"/>
      </g>
     </g>
    </g>
    <g id="ytick_2">
     <g id="line2d_9">
      <path clip-path="url(#p2c3fa62c55)" d="M 72 160.355934
L 518.4 160.355934
" style="fill:none;stroke:#b0b0b0;stroke-linecap:square;stroke-width:0.8;"/>
     </g>
     <g id="line2d_10">
      <g>
       <use style="fill:#696969;stroke:#696969;stroke-width:0.2;" x="72" xlink:href="#m4dd5b63103" y="160.355934"/>
      </g>
     </g>
     <g id="text_7">
      <!-- 2.5 -->
      <g style="fill:#696969;" transform="translate(51.596875 164.155153)scale(0.1 -0.1)">
       <use xlink:href="#DejaVuSans-50"/>
       <use x="63.623047" xlink:href="#DejaVuSans-46"/>
       <use x="95.410156" xlink:href="#DejaVuSans-53"/>
      </g>
     </g>
    </g>
    <g id="ytick_3">
     <g id="line2d_11">
      <path clip-path="url(#p2c3fa62c55)" d="M 72 139.124596
L 518.4 139.124596
" style="fill:none;stroke:#b0b0b0;stroke-linecap:square;stroke-width:0.8;"/>
     </g>
     <g id="line2d_12">
      <g>
       <use style="fill:#696969;stroke:#696969;stroke-width:0.2;" x="72" xlink:href="#m4dd5b63103" y="139.124596"/>
      </g>
     </g>
     <g id="text_8">
      <!-- 5.0 -->
      <g style="fill:#696969;" transform="translate(51.596875 142.923814)scale(0.1 -0.1)">
       <use xlink:href="#DejaVuSans-53"/>
       <use x="63.623047" xlink:href="#DejaVuSans-46"/>
       <use x="95.410156" xlink:href="#DejaVuSans-48"/>
      </g>
     </g>
    </g>
    <g id="ytick_4">
     <g id="line2d_13">
      <path clip-path="url(#p2c3fa62c55)" d="M 72 117.893257
L 518.4 117.893257
" style="fill:none;stroke:#b0b0b0;stroke-linecap:square;stroke-width:0.8;"/>
     </g>
     <g id="line2d_14">
      <g>
       <use style="fill:#696969;stroke:#696969;stroke-width:0.2;" x="72" xlink:href="#m4dd5b63103" y="117.893257"/>
      </g>
     </g>
     <g id="text_9">
      <!-- 7.5 -->
      <g style="fill:#696969;" transform="translate(51.596875 121.692476)scale(0.1 -0.1)">
       <use xlink:href="#DejaVuSans-55"/>
       <use x="63.623047" xlink:href="#DejaVuSans-46"/>
       <use x="95.410156" xlink:href="#DejaVuSans-53"/>
      </g>
     </g>
    </g>
    <g id="ytick_5">
     <g id="line2d_15">
      <path clip-path="url(#p2c3fa62c55)" d="M 72 96.661919
L 518.4 96.661919
" style="fill:none;stroke:#b0b0b0;stroke-linecap:square;stroke-width:0.8;"/>
     </g>
     <g id="line2d_16">
      <g>
       <use style="fill:#696969;stroke:#696969;stroke-width:0.2;" x="72" xlink:href="#m4dd5b63103" y="96.661919"/>
      </g>
     </g>
     <g id="text_10">
      <!-- 10.0 -->
      <g style="fill:#696969;" transform="translate(45.234375 100.461137)scale(0.1 -0.1)">
       <use xlink:href="#DejaVuSans-49"/>
       <use x="63.623047" xlink:href="#DejaVuSans-48"/>
       <use x="127.246094" xlink:href="#DejaVuSans-46"/>
       <use x="159.033203" xlink:href="#DejaVuSans-48"/>
      </g>
     </g>
    </g>
    <g id="ytick_6">
     <g id="line2d_17">
      <path clip-path="url(#p2c3fa62c55)" d="M 72 75.43058
L 518.4 75.43058
" style="fill:none;stroke:#b0b0b0;stroke-linecap:square;stroke-width:0.8;"/>
     </g>
     <g id="line2d_18">
      <g>
       <use style="fill:#696969;stroke:#696969;stroke-width:0.2;" x="72" xlink:href="#m4dd5b63103" y="75.43058"/>
      </g>
     </g>
     <g id="text_11">
      <!-- 12.5 -->
      <g style="fill:#696969;" transform="translate(45.234375 79.229799)scale(0.1 -0.1)">
       <use xlink:href="#DejaVuSans-49"/>
       <use x="63.623047" xlink:href="#DejaVuSans-50"/>
       <use x="127.246094" xlink:href="#DejaVuSans-46"/>
       <use x="159.033203" xlink:href="#DejaVuSans-53"/>
      </g>
     </g>
    </g>
    <g id="ytick_7">
     <g id="line2d_19">
      <path clip-path="url(#p2c3fa62c55)" d="M 72 54.199242
L 518.4 54.199242
" style="fill:none;stroke:#b0b0b0;stroke-linecap:square;stroke-width:0.8;"/>
     </g>
     <g id="line2d_20">
      <g>
       <use style="fill:#696969;stroke:#696969;stroke-width:0.2;" x="72" xlink:href="#m4dd5b63103" y="54.199242"/>
      </g>
     </g>
     <g id="text_12">
      <!-- 15.0 -->
      <g style="fill:#696969;" transform="translate(45.234375 57.99846)scale(0.1 -0.1)">
       <use xlink:href="#DejaVuSans-49"/>
       <use x="63.623047" xlink:href="#DejaVuSans-53"/>
       <use x="127.246094" xlink:href="#DejaVuSans-46"/>
       <use x="159.033203" xlink:href="#DejaVuSans-48"/>
      </g>
     </g>
    </g>
    <g id="ytick_8">
     <g id="line2d_21">
      <path clip-path="url(#p2c3fa62c55)" d="M 72 32.967903
L 518.4 32.967903
" style="fill:none;stroke:#b0b0b0;stroke-linecap:square;stroke-width:0.8;"/>
     </g>
     <g id="line2d_22">
      <g>
       <use style="fill:#696969;stroke:#696969;stroke-width:0.2;" x="72" xlink:href="#m4dd5b63103" y="32.967903"/>
      </g>
     </g>
     <g id="text_13">
      <!-- 17.5 -->
      <g style="fill:#696969;" transform="translate(45.234375 36.767122)scale(0.1 -0.1)">
       <use xlink:href="#DejaVuSans-49"/>
       <use x="63.623047" xlink:href="#DejaVuSans-55"/>
       <use x="127.246094" xlink:href="#DejaVuSans-46"/>
       <use x="159.033203" xlink:href="#DejaVuSans-53"/>
      </g>
     </g>
    </g>
    <g id="text_14">
     <!--  (Unit._unknown) -->
     <g style="fill:#696969;" transform="translate(38.876562 149.935781)rotate(-90)scale(0.1 -0.1)">
      <defs>
       <path id="DejaVuSans-32"/>
       <path d="M 31 75.875
Q 24.46875 64.65625 21.28125 53.65625
Q 18.109375 42.671875 18.109375 31.390625
Q 18.109375 20.125 21.3125 9.0625
Q 24.515625 -2 31 -13.1875
L 23.1875 -13.1875
Q 15.875 -1.703125 12.234375 9.375
Q 8.59375 20.453125 8.59375 31.390625
Q 8.59375 42.28125 12.203125 53.3125
Q 15.828125 64.359375 23.1875 75.875
z
" id="DejaVuSans-40"/>
       <path d="M 8.6875 72.90625
L 18.609375 72.90625
L 18.609375 28.609375
Q 18.609375 16.890625 22.84375 11.734375
Q 27.09375 6.59375 36.625 6.59375
Q 46.09375 6.59375 50.34375 11.734375
Q 54.59375 16.890625 54.59375 28.609375
L 54.59375 72.90625
L 64.5 72.90625
L 64.5 27.390625
Q 64.5 13.140625 57.4375 5.859375
Q 50.390625 -1.421875 36.625 -1.421875
Q 22.796875 -1.421875 15.734375 5.859375
Q 8.6875 13.140625 8.6875 27.390625
z
" id="DejaVuSans-85"/>
       <path d="M 54.890625 33.015625
L 54.890625 0
L 45.90625 0
L 45.90625 32.71875
Q 45.90625 40.484375 42.875 44.328125
Q 39.84375 48.1875 33.796875 48.1875
Q 26.515625 48.1875 22.3125 43.546875
Q 18.109375 38.921875 18.109375 30.90625
L 18.109375 0
L 9.078125 0
L 9.078125 54.6875
L 18.109375 54.6875
L 18.109375 46.1875
Q 21.34375 51.125 25.703125 53.5625
Q 30.078125 56 35.796875 56
Q 45.21875 56 50.046875 50.171875
Q 54.890625 44.34375 54.890625 33.015625
z
" id="DejaVuSans-110"/>
       <path d="M 9.421875 54.6875
L 18.40625 54.6875
L 18.40625 0
L 9.421875 0
z
M 9.421875 75.984375
L 18.40625 75.984375
L 18.40625 64.59375
L 9.421875 64.59375
z
" id="DejaVuSans-105"/>
       <path d="M 18.3125 70.21875
L 18.3125 54.6875
L 36.8125 54.6875
L 36.8125 47.703125
L 18.3125 47.703125
L 18.3125 18.015625
Q 18.3125 11.328125 20.140625 9.421875
Q 21.96875 7.515625 27.59375 7.515625
L 36.8125 7.515625
L 36.8125 0
L 27.59375 0
Q 17.1875 0 13.234375 3.875
Q 9.28125 7.765625 9.28125 18.015625
L 9.28125 47.703125
L 2.6875 47.703125
L 2.6875 54.6875
L 9.28125 54.6875
L 9.28125 70.21875
z
" id="DejaVuSans-116"/>
       <path d="M 50.984375 -16.609375
L 50.984375 -23.578125
L -0.984375 -23.578125
L -0.984375 -16.609375
z
" id="DejaVuSans-95"/>
       <path d="M 8.5 21.578125
L 8.5 54.6875
L 17.484375 54.6875
L 17.484375 21.921875
Q 17.484375 14.15625 20.5 10.265625
Q 23.53125 6.390625 29.59375 6.390625
Q 36.859375 6.390625 41.078125 11.03125
Q 45.3125 15.671875 45.3125 23.6875
L 45.3125 54.6875
L 54.296875 54.6875
L 54.296875 0
L 45.3125 0
L 45.3125 8.40625
Q 42.046875 3.421875 37.71875 1
Q 33.40625 -1.421875 27.6875 -1.421875
Q 18.265625 -1.421875 13.375 4.4375
Q 8.5 10.296875 8.5 21.578125
z
M 31.109375 56
z
" id="DejaVuSans-117"/>
       <path d="M 9.078125 75.984375
L 18.109375 75.984375
L 18.109375 31.109375
L 44.921875 54.6875
L 56.390625 54.6875
L 27.390625 29.109375
L 57.625 0
L 45.90625 0
L 18.109375 26.703125
L 18.109375 0
L 9.078125 0
z
" id="DejaVuSans-107"/>
       <path d="M 30.609375 48.390625
Q 23.390625 48.390625 19.1875 42.75
Q 14.984375 37.109375 14.984375 27.296875
Q 14.984375 17.484375 19.15625 11.84375
Q 23.34375 6.203125 30.609375 6.203125
Q 37.796875 6.203125 41.984375 11.859375
Q 46.1875 17.53125 46.1875 27.296875
Q 46.1875 37.015625 41.984375 42.703125
Q 37.796875 48.390625 30.609375 48.390625
z
M 30.609375 56
Q 42.328125 56 49.015625 48.375
Q 55.71875 40.765625 55.71875 27.296875
Q 55.71875 13.875 49.015625 6.21875
Q 42.328125 -1.421875 30.609375 -1.421875
Q 18.84375 -1.421875 12.171875 6.21875
Q 5.515625 13.875 5.515625 27.296875
Q 5.515625 40.765625 12.171875 48.375
Q 18.84375 56 30.609375 56
z
" id="DejaVuSans-111"/>
       <path d="M 4.203125 54.6875
L 13.1875 54.6875
L 24.421875 12.015625
L 35.59375 54.6875
L 46.1875 54.6875
L 57.421875 12.015625
L 68.609375 54.6875
L 77.59375 54.6875
L 63.28125 0
L 52.6875 0
L 40.921875 44.828125
L 29.109375 0
L 18.5 0
z
" id="DejaVuSans-119"/>
       <path d="M 8.015625 75.875
L 15.828125 75.875
Q 23.140625 64.359375 26.78125 53.3125
Q 30.421875 42.28125 30.421875 31.390625
Q 30.421875 20.453125 26.78125 9.375
Q 23.140625 -1.703125 15.828125 -13.1875
L 8.015625 -13.1875
Q 14.5 -2 17.703125 9.0625
Q 20.90625 20.125 20.90625 31.390625
Q 20.90625 42.671875 17.703125 53.65625
Q 14.5 64.65625 8.015625 75.875
z
" id="DejaVuSans-41"/>
      </defs>
      <use xlink:href="#DejaVuSans-32"/>
      <use x="31.787109" xlink:href="#DejaVuSans-40"/>
      <use x="70.800781" xlink:href="#DejaVuSans-85"/>
      <use x="143.994141" xlink:href="#DejaVuSans-110"/>
      <use x="207.373047" xlink:href="#DejaVuSans-105"/>
      <use x="235.15625" xlink:href="#DejaVuSans-116"/>
      <use x="274.365234" xlink:href="#DejaVuSans-46"/>
      <use x="306.152344" xlink:href="#DejaVuSans-95"/>
      <use x="356.152344" xlink:href="#DejaVuSans-117"/>
      <use x="419.53125" xlink:href="#DejaVuSans-110"/>
      <use x="482.910156" xlink:href="#DejaVuSans-107"/>
      <use x="540.820312" xlink:href="#DejaVuSans-110"/>
      <use x="604.199219" xlink:href="#DejaVuSans-111"/>
      <use x="665.380859" xlink:href="#DejaVuSans-119"/>
      <use x="747.167969" xlink:href="#DejaVuSans-110"/>
      <use x="810.546875" xlink:href="#DejaVuSans-41"/>
     </g>
    </g>
   </g>
   <g id="line2d_23">
    <path clip-path="url(#p2c3fa62c55)" d="M 92.290909 181.587273
L 93.257718 181.587273
L 93.499421 181.390846
L 93.741123 178.899455
L 95.191337 156.898104
L 95.916444 147.175115
L 96.399848 139.97504
L 96.641551 137.666476
L 96.883253 137.265043
L 99.541978 137.17178
L 100.025383 137.023689
L 100.75049 135.82125
L 101.475597 133.519346
L 102.442406 132.51774
L 102.925811 132.457756
L 105.342834 132.361571
L 105.826239 132.280571
L 106.551345 133.287
L 107.518155 132.556622
L 108.243262 131.969412
L 108.726666 131.911275
L 110.901987 131.872994
L 111.143689 131.605139
L 111.627094 130.417621
L 112.352201 127.531242
L 113.077308 127.771093
L 114.285819 126.937959
L 116.46114 126.937959
L 116.702843 127.04925
L 116.944545 128.214891
L 118.153056 138.119654
L 119.361568 141.448839
L 120.086675 142.563526
L 122.261996 142.563526
L 122.503698 142.34133
L 122.7454 140.57007
L 123.953912 127.249331
L 124.920721 123.24235
L 125.645828 121.010528
L 125.88753 120.716256
L 128.304554 120.70696
L 128.787958 120.32702
L 129.029661 120.084228
L 129.754767 121.014466
L 130.479874 118.71236
L 131.204981 115.603254
L 131.446684 114.94439
L 131.688386 114.811716
L 134.105409 114.727052
L 134.588814 113.763508
L 134.830516 113.131436
L 135.555623 109.056665
L 137.005837 104.73176
L 137.247539 104.273869
L 137.489241 104.140951
L 139.906265 104.05745
L 140.147967 103.640727
L 140.631371 101.927956
L 141.356478 101.291117
L 141.839883 101.255586
L 142.806692 101.134492
L 143.048395 100.888841
L 143.531799 100.827639
L 145.70712 100.896977
L 146.190525 102.089978
L 146.432227 102.900607
L 146.915632 103.255528
L 147.157334 103.445726
L 147.882441 106.488583
L 148.607548 113.545033
L 149.090952 113.198301
L 151.507976 113.105647
L 152.233082 111.494969
L 152.958189 115.411798
L 153.683296 109.537705
L 154.408403 98.766061
L 154.650106 98.119251
L 154.891808 97.911942
L 157.067129 97.911942
L 157.308831 97.682958
L 157.792236 93.873802
L 158.033938 91.508453
L 158.759045 81.180551
L 159.967556 78.103549
L 160.450961 76.759786
L 160.692663 76.57221
L 162.867984 76.57221
L 163.109687 76.436767
L 163.351389 75.907246
L 163.834793 74.100303
L 164.076496 74.178589
L 164.5599 74.680298
L 165.285007 63.303075
L 166.010114 65.608723
L 166.493519 65.01299
L 168.66884 65.01299
L 168.910542 64.819395
L 169.393947 62.448119
L 169.635649 60.984575
L 170.360756 54.660229
L 170.84416 59.82797
L 171.085863 60.95656
L 171.81097 51.758073
L 172.052672 50.345917
L 172.294374 49.988656
L 174.711397 50.016793
L 174.9531 49.779917
L 175.436504 49.981109
L 176.161611 49.302601
L 176.403314 49.375591
L 176.886718 49.118719
L 177.370123 49.320111
L 177.611825 49.40555
L 178.09523 49.324454
L 180.512253 49.318717
L 180.753955 49.622032
L 181.23736 49.426268
L 181.962467 50.37448
L 182.204169 50.505396
L 182.687574 51.031464
L 184.37949 51.199646
L 186.313108 51.211967
L 186.554811 50.952563
L 187.038215 51.046867
L 187.52162 50.213556
L 188.246727 48.803117
L 189.213536 46.640818
L 189.696941 46.265773
L 192.113964 46.261062
L 192.597369 46.613033
L 192.839071 46.941611
L 193.564178 49.502444
L 194.289285 36.479339
L 194.530987 35.135441
L 194.772689 35.79811
L 195.014392 37.748319
L 195.256094 37.811519
L 195.739499 37.740739
L 197.914819 37.79321
L 198.398224 37.507282
L 198.639926 37.392298
L 199.365033 35.707971
L 200.09014 50.830672
L 200.331843 52.280272
L 200.573545 51.614017
L 200.815247 49.671735
L 201.056949 50.537013
L 202.023759 50.505106
L 203.715675 50.537346
L 203.957377 50.84027
L 204.682484 50.530905
L 205.165889 50.279201
L 205.890996 48.546051
L 206.616103 48.902373
L 206.857805 48.276185
L 207.582912 48.314776
L 209.51653 48.325655
L 209.758233 48.195942
L 210.241637 48.234216
L 210.48334 48.561596
L 210.966744 48.629828
L 212.416958 50.498591
L 212.65866 50.363365
L 213.62547 50.398142
L 215.317386 50.433889
L 215.800791 56.959359
L 216.042493 60.956887
L 216.284195 60.728191
L 216.7676 60.597574
L 217.492707 60.031282
L 218.217814 70.244985
L 218.701218 69.953053
L 221.118241 69.978258
L 221.843348 60.042105
L 222.568455 69.562753
L 223.293562 67.672238
L 224.018669 55.125651
L 224.502074 54.860516
L 226.919097 54.903626
L 227.160799 55.071626
L 227.402501 55.013211
L 227.644204 54.639815
L 228.369311 44.460298
L 229.577822 47.226769
L 229.819525 47.700448
L 230.302929 47.909311
L 232.719952 47.970793
L 232.961655 48.121192
L 233.445059 47.795408
L 233.686762 48.254089
L 234.170166 48.824968
L 235.862082 51.651961
L 236.345487 51.74141
L 238.520808 51.792192
L 238.76251 52.564665
L 239.004212 52.719808
L 239.971022 54.131275
L 241.662938 54.959244
L 244.321663 55.002775
L 244.805068 54.157379
L 245.530175 52.984685
L 246.738686 51.56718
L 247.222091 50.870992
L 247.947198 50.714813
L 250.122519 50.754986
L 250.364221 50.298907
L 250.847626 52.043441
L 251.089328 51.106963
L 251.33103 50.776659
L 253.264649 44.756668
L 253.506351 44.527065
L 255.923374 44.552511
L 256.165077 44.686518
L 256.406779 44.637785
L 256.648481 44.156714
L 257.373588 46.524701
L 258.098695 52.173108
L 258.823802 59.798917
L 259.065504 60.867396
L 259.548909 60.785756
L 261.482527 60.785756
L 261.72423 60.989795
L 262.207634 61.024332
L 262.449337 61.442749
L 263.174444 61.939449
L 263.899551 56.771026
L 264.624658 50.150078
L 264.86636 49.157792
L 265.349764 49.227703
L 268.250192 49.250855
L 268.975299 48.405932
L 269.458704 48.184658
L 269.700406 48.036725
L 270.425513 47.171743
L 270.908918 47.22258
L 273.325941 47.298714
L 273.567643 47.909689
L 274.534452 45.440383
L 274.776155 45.19266
L 275.259559 46.916724
L 275.501262 47.849218
L 275.984666 55.697535
L 276.468071 60.015146
L 276.709773 60.238931
L 279.126796 60.295976
L 279.368499 61.517494
L 280.093606 67.062586
L 280.818712 70.126772
L 281.302117 72.136738
L 281.785522 64.804738
L 282.268926 60.80782
L 282.510629 60.601469
L 284.927652 60.662106
L 285.411056 57.462316
L 285.652759 55.357472
L 287.102973 51.542386
L 287.828079 52.402599
L 290.728507 52.508761
L 290.97021 52.230962
L 291.453614 52.03166
L 292.178721 50.179923
L 293.14553 46.390511
L 293.628935 45.679707
L 296.28766 45.758537
L 298.221279 46.352115
L 298.946386 46.885161
L 299.671493 47.397606
L 303.53873 47.653796
L 303.780432 47.729817
L 305.472348 49.81788
L 305.955753 49.906449
L 308.131074 49.949771
L 308.372776 50.255834
L 308.856181 49.876744
L 309.581288 50.848086
L 311.273204 52.765025
L 311.998311 52.806827
L 313.931929 52.841776
L 314.173631 53.012635
L 314.657036 52.88332
L 315.382143 53.311394
L 315.865548 53.422442
L 316.10725 53.487154
L 316.832357 55.361746
L 317.315762 55.463725
L 319.732785 55.495218
L 319.974487 55.672254
L 320.699594 55.865692
L 321.182999 56.059449
L 321.424701 55.841288
L 321.666403 55.84643
L 321.908105 55.737214
L 322.633212 53.954864
L 323.358319 53.907639
L 326.258747 53.893541
L 326.500449 53.646782
L 326.742152 53.728305
L 327.225556 53.433598
L 327.950663 52.244288
L 328.434068 50.824243
L 328.917473 50.746162
L 331.576198 50.6436
L 332.059603 50.560301
L 332.301305 50.839992
L 332.543007 50.562873
L 332.78471 50.552459
L 333.751519 52.764369
L 334.234923 54.58984
L 334.96003 54.784459
L 337.135351 54.802571
L 337.377053 55.220166
L 337.860458 55.159092
L 338.10216 55.198992
L 338.585565 55.605595
L 338.827267 55.521031
L 339.552374 55.540713
L 339.794077 55.333939
L 340.035779 55.282528
L 340.519183 55.548715
L 343.903016 55.460672
L 344.38642 55.175163
L 345.594932 54.790053
L 346.320039 54.694518
L 348.978764 54.611369
L 349.462169 54.19067
L 349.945574 53.514493
L 350.187276 53.270738
L 350.670681 52.280904
L 351.154085 51.090267
L 351.63749 49.787064
L 352.846001 49.69959
L 354.537918 49.69959
L 355.021322 48.588505
L 355.263025 47.68104
L 355.746429 45.437124
L 356.471536 42.323615
L 357.680048 36.360759
L 357.92175 36.184367
L 360.338773 36.184367
L 361.547285 35.656167
L 361.788987 35.60662
L 362.514094 40.386088
L 363.239201 41.309663
L 363.480903 41.086566
L 364.447712 41.055412
L 366.139629 41.055412
L 366.381331 40.930583
L 366.864736 41.269289
L 367.589842 40.149749
L 368.314949 34.294734
L 369.040056 33.627673
L 370.006866 33.766146
L 372.182186 33.823373
L 372.665591 34.004397
L 372.907293 33.838011
L 373.390698 33.332727
L 374.115805 34.853463
L 374.357507 33.981362
L 374.599209 35.471575
L 374.840912 38.704554
L 375.566019 38.978163
L 377.74134 38.978163
L 377.983042 39.104631
L 378.466446 38.970177
L 378.949851 39.163751
L 379.191553 39.270441
L 379.91666 38.129795
L 380.158363 38.956627
L 380.400065 37.435143
L 380.641767 34.242242
L 381.608577 34.396906
L 383.542195 34.396906
L 383.783897 34.548454
L 384.509004 34.453428
L 385.475814 34.694274
L 386.684325 34.944017
L 387.16773 35.043671
L 389.343051 35.043671
L 389.584753 35.180766
L 392.001776 35.207264
L 393.45199 35.4111
L 395.385608 35.49314
L 395.869013 35.970931
L 396.59412 39.544632
L 396.835822 39.585966
L 397.319227 39.486902
L 398.044334 41.035629
L 398.286036 42.437436
L 398.527738 42.75397
L 400.944761 42.75397
L 401.186464 42.898617
L 401.669868 42.490614
L 402.394975 38.895972
L 402.636678 38.843556
L 403.120082 39.037192
L 403.845189 37.55748
L 404.086892 36.151664
L 404.570296 36.029618
L 407.470724 36.018309
L 407.954129 35.617359
L 408.437533 35.230522
L 409.646045 34.439503
L 410.371152 34.691284
L 412.546472 34.691284
L 413.029877 34.84807
L 413.271579 34.829994
L 413.996686 35.437939
L 414.721793 41.655515
L 415.4469 42.153901
L 415.688603 44.047332
L 415.930305 44.897821
L 418.347328 44.897821
L 418.58903 45.084116
L 419.797542 45.097825
L 420.522649 38.606873
L 421.006053 38.54866
L 421.247756 38.560052
L 421.489458 36.898131
L 421.73116 36.346476
L 424.148183 36.346476
L 424.631588 36.527412
L 426.081802 36.591803
L 426.565207 36.684716
L 427.773718 37.090986
L 430.674146 37.081201
L 431.399253 36.608362
L 431.640955 36.668464
L 433.091169 36.223492
L 433.574574 36.347226
L 435.991597 36.441167
L 437.683513 36.623721
L 438.166918 36.572853
L 438.650322 36.617702
L 439.375429 36.882171
L 441.55075 36.882171
L 442.034155 37.074852
L 442.759261 37.131282
L 443.967773 37.169246
L 444.934582 37.67731
L 448.076712 37.735693
L 448.318415 37.81072
L 448.801819 37.666418
L 449.768629 37.967032
L 450.493735 38.054141
L 450.735438 38.179362
L 453.152461 38.179362
L 453.635866 38.327829
L 454.602675 38.479971
L 455.327782 36.723964
L 455.569484 36.682606
L 455.811186 36.301252
L 456.052889 36.156026
L 457.2614 36.327533
L 459.920126 36.304005
L 460.40353 35.989922
L 460.645233 36.044165
L 461.128637 36.569764
L 461.370339 36.580715
L 462.095446 37.002711
L 462.578851 37.116423
L 464.995874 37.219042
L 465.962683 37.29594
L 466.204386 37.284277
L 466.446088 37.495009
L 467.896302 37.698524
L 468.379707 37.795137
L 471.521837 37.8143
L 472.005241 37.522705
L 472.730348 37.655618
L 472.97205 37.539967
L 473.455455 37.595813
L 474.422264 37.660916
L 476.839287 37.749381
L 477.564394 37.816197
L 478.047799 37.842749
L 478.772906 37.891063
L 479.256311 37.729809
L 479.981418 37.878185
L 482.881845 37.855149
L 483.848655 36.69713
L 484.573761 35.77493
L 485.057166 35.441423
L 485.540571 35.414759
L 487.957594 35.414759
L 488.199296 35.606166
L 488.924403 36.477261
L 489.407808 36.794992
L 490.132915 38.145481
L 491.099724 38.300994
L 492.066533 38.33122
L 494.000152 38.369831
L 495.450365 37.052614
L 495.93377 36.246487
L 496.658877 36.877708
L 496.900579 37.218225
L 498.109091 37.234439
L 498.109091 37.234439
" style="fill:none;stroke:#2ca02c;stroke-linecap:square;stroke-width:0.8;"/>
   </g>
   <g id="patch_3">
    <path d="M 72 189
L 72 25.92
" style="fill:none;"/>
   </g>
   <g id="patch_4">
    <path d="M 518.4 189
L 518.4 25.92
" style="fill:none;"/>
   </g>
   <g id="patch_5">
    <path d="M 72 189
L 518.4 189
" style="fill:none;"/>
   </g>
   <g id="patch_6">
    <path d="M 72 25.92
L 518.4 25.92
" style="fill:none;"/>
   </g>
   <g id="line2d_24">
    <path clip-path="url(#p2c3fa62c55)" d="M 92.290909 181.587273
L 93.257718 181.587273
L 93.499421 181.390846
L 93.741123 178.899455
L 95.191337 156.898104
L 95.916444 147.175115
L 96.399848 139.97504
L 96.641551 137.666476
L 96.883253 137.265043
L 99.541978 137.171781
L 100.025383 137.023689
L 100.75049 135.821251
L 101.475597 133.519345
L 102.442406 132.517738
L 102.925811 132.457754
L 105.342834 132.36157
L 105.826239 132.280569
L 106.551345 133.286998
L 107.518155 132.556622
L 108.243262 131.969412
L 108.726666 131.911275
L 110.901987 131.872994
L 111.143689 131.605139
L 111.627094 130.417621
L 112.352201 127.531242
L 113.077308 127.771093
L 114.285819 126.937959
L 116.46114 126.937959
L 116.702843 127.04925
L 116.944545 128.214891
L 118.153056 138.119654
L 119.361568 141.448839
L 120.086675 142.563526
L 122.261996 142.563526
L 122.503698 142.34133
L 122.7454 140.57007
L 123.953912 127.249331
L 124.920721 123.24235
L 125.645828 121.010528
L 125.88753 120.716256
L 128.304554 120.70696
L 128.787958 120.32702
L 129.029661 120.084228
L 129.754767 121.014466
L 130.479874 118.71236
L 131.204981 115.603254
L 131.446684 114.94439
L 131.688386 114.811716
L 134.105409 114.727052
L 134.588814 113.763508
L 134.830516 113.131436
L 135.555623 109.056665
L 137.005837 104.73176
L 137.247539 104.273869
L 137.489241 104.140951
L 139.906265 104.05745
L 140.147967 103.640727
L 140.631371 101.927956
L 141.356478 101.291117
L 141.839883 101.255586
L 142.806692 101.134492
L 143.048395 100.888841
L 143.531799 100.827639
L 145.70712 100.896977
L 146.190525 102.089978
L 146.432227 102.900607
L 146.915632 103.255528
L 147.157334 103.445726
L 147.882441 106.488583
L 148.607548 113.545033
L 149.090952 113.198301
L 151.507976 113.105647
L 152.233082 111.494969
L 152.958189 115.411798
L 153.683296 109.537705
L 154.408403 98.766061
L 154.650106 98.119251
L 154.891808 97.911942
L 157.067129 97.911942
L 157.308831 97.682958
L 157.792236 93.873802
L 158.033938 91.508453
L 158.759045 81.180551
L 159.967556 78.103549
L 160.450961 76.759786
L 160.692663 76.57221
L 162.867984 76.57221
L 163.109687 76.436767
L 163.351389 75.907246
L 163.834793 74.100303
L 164.076496 74.178589
L 164.5599 74.680298
L 165.285007 63.303075
L 166.010114 65.608723
L 166.493519 65.01299
L 168.66884 65.01299
L 168.910542 64.819395
L 169.393947 62.448119
L 169.635649 60.984575
L 170.360756 54.660229
L 170.84416 59.82797
L 171.085863 60.95656
L 171.81097 51.758073
L 172.052672 50.345917
L 172.294374 49.988656
L 174.711397 50.016793
L 174.9531 49.779917
L 175.436504 49.981109
L 176.161611 49.302601
L 176.403314 49.375591
L 176.886718 49.118719
L 177.370123 49.320111
L 177.611825 49.40555
L 178.09523 49.324454
L 180.512253 49.318717
L 180.753955 49.622032
L 181.23736 49.426268
L 181.962467 50.37448
L 182.204169 50.505396
L 182.687574 51.031464
L 184.37949 51.199646
L 186.313108 51.211967
L 186.554811 50.952563
L 187.038215 51.046867
L 187.52162 50.213556
L 188.246727 48.803117
L 189.213536 46.640818
L 189.696941 46.265773
L 192.113964 46.261062
L 192.597369 46.613033
L 192.839071 46.941611
L 193.564178 49.502444
L 194.289285 36.479339
L 194.530987 35.135441
L 194.772689 35.79811
L 195.014392 37.748319
L 195.256094 37.811519
L 195.739499 37.740739
L 197.914819 37.79321
L 198.398224 37.507282
L 198.639926 37.392298
L 199.365033 35.707971
L 200.09014 50.830672
L 200.331843 52.280272
L 200.573545 51.614017
L 200.815247 49.671735
L 201.056949 50.537013
L 202.023759 50.505106
L 203.715675 50.537346
L 203.957377 50.84027
L 204.682484 50.530905
L 205.165889 50.279201
L 205.890996 48.546051
L 206.616103 48.902373
L 206.857805 48.276185
L 207.582912 48.314776
L 209.51653 48.325655
L 209.758233 48.195942
L 210.241637 48.234216
L 210.48334 48.561596
L 210.966744 48.629828
L 212.416958 50.498591
L 212.65866 50.363365
L 213.62547 50.398142
L 215.317386 50.433889
L 215.800791 56.959359
L 216.042493 60.956887
L 216.284195 60.728191
L 216.7676 60.597574
L 217.492707 60.031282
L 218.217814 70.244985
L 218.701218 69.953053
L 221.118241 69.978258
L 221.843348 60.042105
L 222.568455 69.562753
L 223.293562 67.672238
L 224.018669 55.125651
L 224.502074 54.860516
L 226.919097 54.903626
L 227.160799 55.071626
L 227.402501 55.013211
L 227.644204 54.639815
L 228.369311 44.460298
L 229.577822 47.226769
L 229.819525 47.700448
L 230.302929 47.909311
L 232.719952 47.970793
L 232.961655 48.121192
L 233.445059 47.795408
L 233.686762 48.254089
L 234.170166 48.824968
L 235.862082 51.651961
L 236.345487 51.74141
L 238.520808 51.792192
L 238.76251 52.564665
L 239.004212 52.719808
L 239.971022 54.131275
L 241.662938 54.959244
L 244.321663 55.002775
L 244.805068 54.157379
L 245.530175 52.984685
L 246.738686 51.56718
L 247.222091 50.870992
L 247.947198 50.714813
L 250.122519 50.754986
L 250.364221 50.298907
L 250.847626 52.043441
L 251.089328 51.106963
L 251.33103 50.776659
L 253.264649 44.756668
L 253.506351 44.527065
L 255.923374 44.552511
L 256.165077 44.686518
L 256.406779 44.637785
L 256.648481 44.156714
L 257.373588 46.524701
L 258.098695 52.173108
L 258.823802 59.798917
L 259.065504 60.867396
L 259.548909 60.785756
L 261.482527 60.785756
L 261.72423 60.989795
L 262.207634 61.024332
L 262.449337 61.442749
L 263.174444 61.939449
L 263.899551 56.771026
L 264.624658 50.150078
L 264.86636 49.157792
L 265.349764 49.227703
L 268.250192 49.250855
L 268.975299 48.405932
L 269.458704 48.184658
L 269.700406 48.036725
L 270.425513 47.171743
L 270.908918 47.22258
L 273.325941 47.298714
L 273.567643 47.909689
L 274.534452 45.440383
L 274.776155 45.19266
L 275.259559 46.916724
L 275.501262 47.849218
L 275.984666 55.697535
L 276.468071 60.015146
L 276.709773 60.238931
L 279.126796 60.295976
L 279.368499 61.517494
L 280.093606 67.062586
L 280.818712 70.126772
L 281.302117 72.136738
L 281.785522 64.804738
L 282.268926 60.80782
L 282.510629 60.601469
L 284.927652 60.662106
L 285.411056 57.462316
L 285.652759 55.357472
L 287.102973 51.542386
L 287.828079 52.402599
L 290.728507 52.508761
L 290.97021 52.230962
L 291.453614 52.03166
L 292.178721 50.179922
L 293.14553 46.390511
L 293.628935 45.679707
L 296.28766 45.758537
L 298.221279 46.348313
L 298.946386 46.881358
L 299.671493 47.393804
L 303.53873 47.65025
L 303.780432 47.726271
L 305.472348 49.814333
L 305.955753 49.902903
L 308.131074 49.946225
L 308.372776 50.252288
L 308.856181 49.872735
L 309.581288 50.844076
L 311.273204 52.761015
L 311.998311 52.802817
L 313.931929 52.837766
L 314.173631 53.008626
L 314.657036 52.878927
L 315.382143 53.300777
L 315.865548 53.411825
L 316.10725 53.476538
L 316.832357 55.351129
L 317.315762 55.453108
L 319.732785 55.484601
L 319.974487 55.661637
L 320.699594 55.854497
L 321.182999 56.046082
L 321.424701 55.827921
L 321.666403 55.833063
L 321.908105 55.721517
L 322.633212 53.931956
L 323.358319 53.884731
L 326.258747 53.869565
L 326.500449 53.623443
L 326.742152 53.705296
L 327.225556 53.40886
L 327.950663 52.217917
L 328.434068 50.798178
L 328.917473 50.718659
L 331.576198 50.61641
L 332.059603 50.533411
L 332.301305 50.813047
L 332.543007 50.535925
L 332.78471 50.525188
L 333.751519 52.730627
L 334.234923 54.548333
L 334.96003 54.741767
L 337.135351 54.75988
L 337.377053 55.176763
L 337.860458 55.114977
L 338.10216 55.154498
L 338.585565 55.560986
L 338.827267 55.476946
L 339.552374 55.501356
L 339.794077 55.298585
L 340.035779 55.250135
L 340.519183 55.517189
L 343.903016 55.426777
L 344.38642 55.140301
L 345.594932 54.753313
L 346.320039 54.657235
L 348.978764 54.573577
L 349.462169 54.151104
L 349.945574 53.47185
L 350.187276 53.226446
L 350.670681 52.233222
L 351.154085 51.038529
L 351.63749 49.731102
L 352.846001 49.641217
L 354.537918 49.641217
L 355.021322 48.536491
L 355.263025 47.633379
L 355.746429 45.399611
L 356.471536 42.299017
L 357.680048 36.359717
L 357.92175 36.184367
L 360.338773 36.184367
L 361.547285 35.656167
L 361.788987 35.60662
L 362.514094 40.386088
L 363.239201 41.309663
L 363.480903 41.086566
L 364.447712 41.055412
L 366.139629 41.055412
L 366.381331 40.930583
L 366.864736 41.269289
L 367.589842 40.149749
L 368.314949 34.294734
L 369.040056 33.627673
L 370.006866 33.766146
L 372.182186 33.823373
L 372.665591 34.004397
L 372.907293 33.838011
L 373.390698 33.332727
L 374.115805 34.853463
L 374.357507 33.981362
L 374.599209 35.471575
L 374.840912 38.704554
L 375.566019 38.978163
L 377.74134 38.978163
L 377.983042 39.104631
L 378.466446 38.970177
L 378.949851 39.163751
L 379.191553 39.270441
L 379.91666 38.129795
L 380.158363 38.956627
L 380.400065 37.435143
L 380.641767 34.242242
L 381.608577 34.396906
L 383.542195 34.396906
L 383.783897 34.548454
L 384.509004 34.453428
L 385.475814 34.694274
L 386.684325 34.944017
L 387.16773 35.043671
L 389.343051 35.043671
L 389.584753 35.180766
L 392.001776 35.207264
L 393.45199 35.4111
L 395.385608 35.49314
L 395.869013 35.970931
L 396.59412 39.544632
L 396.835822 39.585966
L 397.319227 39.486902
L 398.044334 41.035629
L 398.286036 42.437436
L 398.527738 42.75397
L 400.944761 42.75397
L 401.186464 42.898617
L 401.669868 42.490614
L 402.394975 38.895972
L 402.636678 38.843556
L 403.120082 39.037192
L 403.845189 37.55748
L 404.086892 36.151664
L 404.570296 36.029618
L 407.470724 36.018309
L 407.954129 35.617359
L 408.437533 35.230522
L 409.646045 34.439503
L 410.371152 34.691284
L 412.546472 34.691284
L 413.029877 34.84807
L 413.271579 34.829994
L 413.996686 35.437939
L 414.721793 41.655515
L 415.4469 42.153901
L 415.688603 44.047332
L 415.930305 44.897821
L 418.347328 44.897821
L 418.58903 45.084116
L 419.797542 45.097825
L 420.522649 38.606873
L 421.006053 38.54866
L 421.247756 38.560052
L 421.489458 36.898131
L 421.73116 36.346476
L 424.148183 36.346476
L 424.631588 36.527412
L 426.081802 36.591803
L 426.565207 36.684716
L 427.773718 37.090986
L 430.674146 37.081201
L 431.399253 36.608362
L 431.640955 36.668464
L 433.091169 36.223492
L 433.574574 36.347226
L 435.991597 36.441167
L 437.683513 36.623721
L 438.166918 36.572853
L 438.650322 36.617702
L 439.375429 36.882171
L 441.55075 36.882171
L 442.034155 37.074852
L 442.759261 37.131282
L 443.967773 37.169246
L 444.934582 37.67731
L 448.076712 37.735693
L 448.318415 37.81072
L 448.801819 37.666418
L 449.768629 37.967032
L 450.493735 38.054141
L 450.735438 38.179362
L 453.152461 38.179362
L 453.635866 38.327829
L 454.602675 38.479971
L 455.327782 36.723964
L 455.569484 36.682606
L 455.811186 36.301252
L 456.052889 36.156026
L 457.2614 36.327533
L 459.920126 36.304005
L 460.40353 35.989922
L 460.645233 36.044165
L 461.128637 36.569764
L 461.370339 36.580715
L 462.095446 37.002711
L 462.578851 37.116423
L 464.995874 37.219042
L 465.962683 37.29594
L 466.204386 37.284277
L 466.446088 37.495009
L 467.896302 37.698524
L 468.379707 37.795137
L 471.521837 37.8143
L 472.005241 37.522705
L 472.730348 37.655618
L 472.97205 37.539967
L 473.455455 37.595813
L 474.422264 37.660916
L 476.839287 37.749381
L 477.564394 37.816197
L 478.047799 37.842749
L 478.772906 37.891063
L 479.256311 37.729809
L 479.981418 37.878185
L 482.881845 37.855149
L 483.848655 36.69713
L 484.573761 35.77493
L 485.057166 35.441423
L 485.540571 35.414759
L 487.957594 35.414759
L 488.199296 35.606166
L 488.924403 36.477261
L 489.407808 36.794992
L 490.132915 38.145481
L 491.099724 38.300994
L 492.066533 38.33122
L 494.000152 38.369831
L 495.450365 37.052614
L 495.93377 36.246487
L 496.658877 36.877708
L 496.900579 37.218225
L 498.109091 37.234439
L 498.109091 37.234439
" style="fill:none;stroke:#d62728;stroke-linecap:square;stroke-width:0.8;"/>
   </g>
   <g id="line2d_25">
    <path clip-path="url(#p2c3fa62c55)" d="M 92.290909 181.587273
L 93.257718 181.587273
L 93.499421 181.390846
L 93.741123 178.899455
L 95.191337 156.898104
L 95.916444 147.175116
L 96.399848 139.97504
L 96.641551 137.666476
L 96.883253 137.265043
L 99.541978 137.171781
L 100.025383 137.02369
L 100.75049 135.821251
L 101.475597 133.519345
L 102.442406 132.517738
L 102.925811 132.457754
L 105.342834 132.36157
L 105.826239 132.280569
L 106.551345 133.286998
L 107.518155 132.556622
L 108.243262 131.969412
L 108.726666 131.911275
L 110.901987 131.872994
L 111.143689 131.605139
L 111.627094 130.417621
L 112.352201 127.531242
L 113.077308 127.771093
L 114.285819 126.93796
L 116.46114 126.93796
L 116.702843 127.04925
L 116.944545 128.214891
L 118.153056 138.119654
L 119.361568 141.448837
L 120.086675 142.563523
L 122.261996 142.563523
L 122.503698 142.341328
L 122.7454 140.570068
L 123.953912 127.249329
L 124.920721 123.24235
L 125.645828 121.010528
L 125.88753 120.716256
L 128.304554 120.70696
L 128.787958 120.32702
L 129.029661 120.084228
L 129.754767 121.014466
L 130.479874 118.71236
L 131.204981 115.603254
L 131.446684 114.94439
L 131.688386 114.811716
L 134.105409 114.727052
L 134.588814 113.763508
L 134.830516 113.131436
L 135.555623 109.056665
L 137.005837 104.73176
L 137.247539 104.273869
L 137.489241 104.140951
L 139.906265 104.05745
L 140.147967 103.640727
L 140.631371 101.927956
L 141.356478 101.291117
L 141.839883 101.255586
L 142.806692 101.134492
L 143.048395 100.888841
L 143.531799 100.827639
L 145.70712 100.896977
L 146.190525 102.089978
L 146.432227 102.900607
L 146.915632 103.255528
L 147.157334 103.445726
L 147.882441 106.488583
L 148.607548 113.545033
L 149.090952 113.198301
L 151.507976 113.105647
L 152.233082 111.494969
L 152.958189 115.411798
L 153.683296 109.537705
L 154.408403 98.766061
L 154.650106 98.119251
L 154.891808 97.911942
L 157.067129 97.911942
L 157.308831 97.682958
L 157.792236 93.873802
L 158.033938 91.508453
L 158.759045 81.180551
L 159.967556 78.103549
L 160.450961 76.759786
L 160.692663 76.57221
L 162.867984 76.57221
L 163.109687 76.436767
L 163.351389 75.907246
L 163.834793 74.100303
L 164.076496 74.178589
L 164.5599 74.680298
L 165.285007 63.303075
L 166.010114 65.608723
L 166.493519 65.01299
L 168.66884 65.01299
L 168.910542 64.819395
L 169.393947 62.448119
L 169.635649 60.984575
L 170.360756 54.660229
L 170.84416 59.82797
L 171.085863 60.95656
L 171.81097 51.758073
L 172.052672 50.345917
L 172.294374 49.988656
L 174.711397 50.016793
L 174.9531 49.779917
L 175.436504 49.981109
L 176.161611 49.302601
L 176.403314 49.375591
L 176.886718 49.118719
L 177.370123 49.320111
L 177.611825 49.40555
L 178.09523 49.324454
L 180.512253 49.318717
L 180.753955 49.622032
L 181.23736 49.426268
L 181.962467 50.37448
L 182.204169 50.505396
L 182.687574 51.031464
L 184.37949 51.199646
L 186.313108 51.211967
L 186.554811 50.952563
L 187.038215 51.046867
L 187.52162 50.213556
L 188.246727 48.803117
L 189.213536 46.640818
L 189.696941 46.265773
L 192.113964 46.261062
L 192.597369 46.613033
L 192.839071 46.941611
L 193.564178 49.502444
L 194.289285 36.479339
L 194.530987 35.135441
L 194.772689 35.79811
L 195.014392 37.748319
L 195.256094 37.811519
L 195.739499 37.740739
L 197.914819 37.79321
L 198.398224 37.507282
L 198.639926 37.392298
L 199.365033 35.707971
L 200.09014 50.830672
L 200.331843 52.280272
L 200.573545 51.614017
L 200.815247 49.671735
L 201.056949 50.537013
L 202.023759 50.505106
L 203.715675 50.537346
L 203.957377 50.84027
L 204.682484 50.530905
L 205.165889 50.279201
L 205.890996 48.546051
L 206.616103 48.902373
L 206.857805 48.276185
L 207.582912 48.314776
L 209.51653 48.325655
L 209.758233 48.195942
L 210.241637 48.234216
L 210.48334 48.561596
L 210.966744 48.629828
L 212.416958 50.498591
L 212.65866 50.363365
L 213.62547 50.398142
L 215.317386 50.433889
L 215.800791 56.959359
L 216.042493 60.956887
L 216.284195 60.728191
L 216.7676 60.597574
L 217.492707 60.031282
L 218.217814 70.244985
L 218.701218 69.953053
L 221.118241 69.978258
L 221.843348 60.042105
L 222.568455 69.562753
L 223.293562 67.672238
L 224.018669 55.125651
L 224.502074 54.860516
L 226.919097 54.903626
L 227.160799 55.071626
L 227.402501 55.013211
L 227.644204 54.639815
L 228.369311 44.460298
L 229.577822 47.226769
L 229.819525 47.700448
L 230.302929 47.909311
L 232.719952 47.970793
L 232.961655 48.121192
L 233.445059 47.795408
L 233.686762 48.254089
L 234.170166 48.824968
L 235.862082 51.651961
L 236.345487 51.74141
L 238.520808 51.792192
L 238.76251 52.564665
L 239.004212 52.719808
L 239.971022 54.131275
L 241.662938 54.959244
L 244.321663 55.002775
L 244.805068 54.157379
L 245.530175 52.984685
L 246.738686 51.56718
L 247.222091 50.870992
L 247.947198 50.714813
L 250.122519 50.754986
L 250.364221 50.298907
L 250.847626 52.043441
L 251.089328 51.106963
L 251.33103 50.776659
L 253.264649 44.756668
L 253.506351 44.527065
L 255.923374 44.552511
L 256.165077 44.686518
L 256.406779 44.637785
L 256.648481 44.156714
L 257.373588 46.524701
L 258.098695 52.173108
L 258.823802 59.798917
L 259.065504 60.867396
L 259.548909 60.785756
L 261.482527 60.785756
L 261.72423 60.989795
L 262.207634 61.024332
L 262.449337 61.442749
L 263.174444 61.939449
L 263.899551 56.771026
L 264.624658 50.150078
L 264.86636 49.157792
L 265.349764 49.227703
L 268.250192 49.250855
L 268.975299 48.405932
L 269.458704 48.184658
L 269.700406 48.036725
L 270.425513 47.171743
L 270.908918 47.22258
L 273.325941 47.298714
L 273.567643 47.909689
L 274.534452 45.440383
L 274.776155 45.19266
L 275.259559 46.916724
L 275.501262 47.849218
L 275.984666 55.697535
L 276.468071 60.015146
L 276.709773 60.238931
L 279.126796 60.295976
L 279.368499 61.517494
L 280.093606 67.062586
L 280.818712 70.126772
L 281.302117 72.136738
L 281.785522 64.804738
L 282.268926 60.80782
L 282.510629 60.601469
L 284.927652 60.662106
L 285.411056 57.462316
L 285.652759 55.357472
L 287.102973 51.542386
L 287.828079 52.402599
L 290.728507 52.508761
L 290.97021 52.230962
L 291.453614 52.03166
L 292.178721 50.179922
L 293.14553 46.390511
L 293.628935 45.679707
L 296.28766 45.758537
L 298.221279 46.339166
L 298.946386 46.872212
L 299.671493 47.384657
L 303.53873 47.6417
L 303.780432 47.717721
L 305.472348 49.805783
L 305.955753 49.894353
L 308.131074 49.937675
L 308.372776 50.243738
L 308.856181 49.863058
L 309.581288 50.827607
L 311.273204 52.744546
L 311.998311 52.786348
L 313.931929 52.821297
L 314.173631 52.992156
L 314.657036 52.861548
L 315.382143 53.275236
L 315.865548 53.386285
L 316.10725 53.450997
L 316.832357 55.319001
L 317.315762 55.420979
L 319.732785 55.452472
L 319.974487 55.629508
L 320.699594 55.820923
L 321.182999 56.007216
L 321.424701 55.787263
L 321.666403 55.788761
L 321.908105 55.67157
L 322.633212 53.871114
L 323.358319 53.820111
L 326.258747 53.802222
L 326.500449 53.557588
L 326.742152 53.640205
L 327.225556 53.341331
L 327.950663 52.15005
L 328.434068 50.731054
L 328.917473 50.651817
L 331.576198 50.550299
L 332.059603 50.467992
L 332.301305 50.747466
L 332.543007 50.470318
L 332.78471 50.458799
L 333.751519 52.648785
L 334.234923 54.448006
L 334.96003 54.638624
L 337.135351 54.656737
L 337.377053 55.071918
L 337.860458 55.008358
L 338.10216 55.0469
L 338.585565 55.452979
L 338.827267 55.370128
L 339.552374 55.405527
L 339.794077 55.212165
L 340.035779 55.170657
L 340.519183 55.439709
L 343.903016 55.343319
L 344.38642 55.054408
L 345.594932 54.662702
L 346.320039 54.565269
L 348.978764 54.480362
L 349.462169 54.053583
L 349.945574 53.366782
L 350.187276 53.117331
L 350.670681 52.115789
L 351.154085 50.911141
L 351.63749 49.593343
L 352.846001 49.497536
L 354.537918 49.497536
L 355.021322 48.408432
L 355.263025 47.516028
L 355.746429 45.307263
L 356.471536 42.238487
L 357.680048 36.357156
L 357.92175 36.184367
L 360.338773 36.184367
L 361.547285 35.656167
L 361.788987 35.60662
L 362.514094 40.386088
L 363.239201 41.309663
L 363.480903 41.086566
L 364.447712 41.055412
L 366.139629 41.055412
L 366.381331 40.930583
L 366.864736 41.269289
L 367.589842 40.149749
L 368.314949 34.294734
L 369.040056 33.627673
L 370.006866 33.766146
L 372.182186 33.823373
L 372.665591 34.004397
L 372.907293 33.838011
L 373.390698 33.332727
L 374.115805 34.853463
L 374.357507 33.981362
L 374.599209 35.471575
L 374.840912 38.704554
L 375.566019 38.978163
L 377.74134 38.978163
L 377.983042 39.104631
L 378.466446 38.970177
L 378.949851 39.163751
L 379.191553 39.270441
L 379.91666 38.129795
L 380.158363 38.956627
L 380.400065 37.435143
L 380.641767 34.242242
L 381.608577 34.396906
L 383.542195 34.396906
L 383.783897 34.548454
L 384.509004 34.453428
L 385.475814 34.694274
L 386.684325 34.944017
L 387.16773 35.043671
L 389.343051 35.043671
L 389.584753 35.180766
L 392.001776 35.207264
L 393.45199 35.4111
L 395.385608 35.49314
L 395.869013 35.970931
L 396.59412 39.544632
L 396.835822 39.585966
L 397.319227 39.486902
L 398.044334 41.035629
L 398.286036 42.437436
L 398.527738 42.75397
L 400.944761 42.75397
L 401.186464 42.898617
L 401.669868 42.490614
L 402.394975 38.895972
L 402.636678 38.843556
L 403.120082 39.037192
L 403.845189 37.55748
L 404.086892 36.151664
L 404.570296 36.029618
L 407.470724 36.018309
L 407.954129 35.617359
L 408.437533 35.230522
L 409.646045 34.439503
L 410.371152 34.691284
L 412.546472 34.691284
L 413.029877 34.84807
L 413.271579 34.829994
L 413.996686 35.437939
L 414.721793 41.655515
L 415.4469 42.153901
L 415.688603 44.047332
L 415.930305 44.897821
L 418.347328 44.897821
L 418.58903 45.084116
L 419.797542 45.097825
L 420.522649 38.606873
L 421.006053 38.54866
L 421.247756 38.560052
L 421.489458 36.898131
L 421.73116 36.346476
L 424.148183 36.346476
L 424.631588 36.527412
L 426.081802 36.591803
L 426.565207 36.684716
L 427.773718 37.090986
L 430.674146 37.081201
L 431.399253 36.608362
L 431.640955 36.668464
L 433.091169 36.223492
L 433.574574 36.347226
L 435.991597 36.441167
L 437.683513 36.623721
L 438.166918 36.572853
L 438.650322 36.617702
L 439.375429 36.882171
L 441.55075 36.882171
L 442.034155 37.074852
L 442.759261 37.131282
L 443.967773 37.169246
L 444.934582 37.67731
L 448.076712 37.735693
L 448.318415 37.81072
L 448.801819 37.666418
L 449.768629 37.967032
L 450.493735 38.054141
L 450.735438 38.179362
L 453.152461 38.179362
L 453.635866 38.327829
L 454.602675 38.479971
L 455.327782 36.723964
L 455.569484 36.682606
L 455.811186 36.301252
L 456.052889 36.156026
L 457.2614 36.327533
L 459.920126 36.304005
L 460.40353 35.989922
L 460.645233 36.044165
L 461.128637 36.569764
L 461.370339 36.580715
L 462.095446 37.002711
L 462.578851 37.116423
L 464.995874 37.219042
L 465.962683 37.29594
L 466.204386 37.284277
L 466.446088 37.495009
L 467.896302 37.698524
L 468.379707 37.795137
L 471.521837 37.8143
L 472.005241 37.522705
L 472.730348 37.655618
L 472.97205 37.539967
L 473.455455 37.595813
L 474.422264 37.660916
L 476.839287 37.749381
L 477.564394 37.816197
L 478.047799 37.842749
L 478.772906 37.891063
L 479.256311 37.729809
L 479.981418 37.878185
L 482.881845 37.855149
L 483.848655 36.69713
L 484.573761 35.77493
L 485.057166 35.441423
L 485.540571 35.414759
L 487.957594 35.414759
L 488.199296 35.606166
L 488.924403 36.477261
L 489.407808 36.794992
L 490.132915 38.145481
L 491.099724 38.300994
L 492.066533 38.33122
L 494.000152 38.369831
L 495.450365 37.052614
L 495.93377 36.246487
L 496.658877 36.877708
L 496.900579 37.218225
L 498.109091 37.234439
L 498.109091 37.234439
" style="fill:none;stroke:#9467bd;stroke-linecap:square;stroke-width:0.8;"/>
   </g>
   <g id="legend_1">
    <g id="patch_7">
     <path d="M 450.810937 184
L 511.4 184
Q 513.4 184 513.4 182
L 513.4 109.609375
Q 513.4 107.609375 511.4 107.609375
L 450.810937 107.609375
Q 448.810937 107.609375 448.810937 109.609375
L 448.810937 182
Q 448.810937 184 450.810937 184
z
" style="fill:#ffffff;opacity:0.8;stroke:#cccccc;stroke-linejoin:miter;"/>
    </g>
    <g id="line2d_26">
     <path d="M 452.810937 115.707813
L 472.810937 115.707813
" style="fill:none;stroke:#1f77b4;stroke-linecap:square;stroke-width:0.8;"/>
    </g>
    <g id="line2d_27"/>
    <g id="text_15">
     <!-- 0% -->
     <g style="fill:#696969;" transform="translate(480.810937 119.207813)scale(0.1 -0.1)">
      <defs>
       <path d="M 72.703125 32.078125
Q 68.453125 32.078125 66.03125 28.46875
Q 63.625 24.859375 63.625 18.40625
Q 63.625 12.0625 66.03125 8.421875
Q 68.453125 4.78125 72.703125 4.78125
Q 76.859375 4.78125 79.265625 8.421875
Q 81.6875 12.0625 81.6875 18.40625
Q 81.6875 24.8125 79.265625 28.4375
Q 76.859375 32.078125 72.703125 32.078125
z
M 72.703125 38.28125
Q 80.421875 38.28125 84.953125 32.90625
Q 89.5 27.546875 89.5 18.40625
Q 89.5 9.28125 84.9375 3.921875
Q 80.375 -1.421875 72.703125 -1.421875
Q 64.890625 -1.421875 60.34375 3.921875
Q 55.8125 9.28125 55.8125 18.40625
Q 55.8125 27.59375 60.375 32.9375
Q 64.9375 38.28125 72.703125 38.28125
z
M 22.3125 68.015625
Q 18.109375 68.015625 15.6875 64.375
Q 13.28125 60.75 13.28125 54.390625
Q 13.28125 47.953125 15.671875 44.328125
Q 18.0625 40.71875 22.3125 40.71875
Q 26.5625 40.71875 28.96875 44.328125
Q 31.390625 47.953125 31.390625 54.390625
Q 31.390625 60.6875 28.953125 64.34375
Q 26.515625 68.015625 22.3125 68.015625
z
M 66.40625 74.21875
L 74.21875 74.21875
L 28.609375 -1.421875
L 20.796875 -1.421875
z
M 22.3125 74.21875
Q 30.03125 74.21875 34.609375 68.875
Q 39.203125 63.53125 39.203125 54.390625
Q 39.203125 45.171875 34.640625 39.84375
Q 30.078125 34.515625 22.3125 34.515625
Q 14.546875 34.515625 10.03125 39.859375
Q 5.515625 45.21875 5.515625 54.390625
Q 5.515625 63.484375 10.046875 68.84375
Q 14.59375 74.21875 22.3125 74.21875
z
" id="DejaVuSans-37"/>
      </defs>
      <use xlink:href="#DejaVuSans-48"/>
      <use x="63.623047" xlink:href="#DejaVuSans-37"/>
     </g>
    </g>
    <g id="line2d_28">
     <path d="M 452.810937 130.385938
L 472.810937 130.385938
" style="fill:none;stroke:#ff7f0e;stroke-linecap:square;stroke-width:0.8;"/>
    </g>
    <g id="line2d_29"/>
    <g id="text_16">
     <!-- 10% -->
     <g style="fill:#696969;" transform="translate(480.810937 133.885938)scale(0.1 -0.1)">
      <use xlink:href="#DejaVuSans-49"/>
      <use x="63.623047" xlink:href="#DejaVuSans-48"/>
      <use x="127.246094" xlink:href="#DejaVuSans-37"/>
     </g>
    </g>
    <g id="line2d_30">
     <path d="M 452.810937 145.064063
L 472.810937 145.064063
" style="fill:none;stroke:#2ca02c;stroke-linecap:square;stroke-width:0.8;"/>
    </g>
    <g id="line2d_31"/>
    <g id="text_17">
     <!-- 60% -->
     <g style="fill:#696969;" transform="translate(480.810937 148.564063)scale(0.1 -0.1)">
      <use xlink:href="#DejaVuSans-54"/>
      <use x="63.623047" xlink:href="#DejaVuSans-48"/>
      <use x="127.246094" xlink:href="#DejaVuSans-37"/>
     </g>
    </g>
    <g id="line2d_32">
     <path d="M 452.810937 159.742188
L 472.810937 159.742188
" style="fill:none;stroke:#d62728;stroke-linecap:square;stroke-width:0.8;"/>
    </g>
    <g id="line2d_33"/>
    <g id="text_18">
     <!-- 100% -->
     <g style="fill:#696969;" transform="translate(480.810937 163.242188)scale(0.1 -0.1)">
      <use xlink:href="#DejaVuSans-49"/>
      <use x="63.623047" xlink:href="#DejaVuSans-48"/>
      <use x="127.246094" xlink:href="#DejaVuSans-48"/>
      <use x="190.869141" xlink:href="#DejaVuSans-37"/>
     </g>
    </g>
    <g id="line2d_34">
     <path d="M 452.810937 174.420313
L 472.810937 174.420313
" style="fill:none;stroke:#9467bd;stroke-linecap:square;stroke-width:0.8;"/>
    </g>
    <g id="line2d_35"/>
    <g id="text_19">
     <!-- 200% -->
     <g style="fill:#696969;" transform="translate(480.810937 177.920313)scale(0.1 -0.1)">
      <use xlink:href="#DejaVuSans-50"/>
      <use x="63.623047" xlink:href="#DejaVuSans-48"/>
      <use x="127.246094" xlink:href="#DejaVuSans-48"/>
      <use x="190.869141" xlink:href="#DejaVuSans-37"/>
     </g>
    </g>
   </g>
  </g>
  <g id="text_20">
   <!-- A_j -->
   <g style="fill:#696969;" transform="translate(279.22875 13.438125)scale(0.12 -0.12)">
    <defs>
     <path d="M 34.1875 63.1875
L 20.796875 26.90625
L 47.609375 26.90625
z
M 28.609375 72.90625
L 39.796875 72.90625
L 67.578125 0
L 57.328125 0
L 50.6875 18.703125
L 17.828125 18.703125
L 11.1875 0
L 0.78125 0
z
" id="DejaVuSans-65"/>
     <path d="M 9.421875 54.6875
L 18.40625 54.6875
L 18.40625 -0.984375
Q 18.40625 -11.421875 14.421875 -16.109375
Q 10.453125 -20.796875 1.609375 -20.796875
L -1.8125 -20.796875
L -1.8125 -13.1875
L 0.59375 -13.1875
Q 5.71875 -13.1875 7.5625 -10.8125
Q 9.421875 -8.453125 9.421875 -0.984375
z
M 9.421875 75.984375
L 18.40625 75.984375
L 18.40625 64.59375
L 9.421875 64.59375
z
" id="DejaVuSans-106"/>
    </defs>
    <use xlink:href="#DejaVuSans-65"/>
    <use x="68.408203" xlink:href="#DejaVuSans-95"/>
    <use x="118.408203" xlink:href="#DejaVuSans-106"/>
   </g>
  </g>
 </g>
 <defs>
  <clipPath id="p2c3fa62c55">
   <rect height="163.08" width="446.4" x="72" y="25.92"/>
  </clipPath>
 </defs>
</svg>
