<?xml version="1.0" encoding="utf-8" standalone="no"?>
<!DOCTYPE svg PUBLIC "-//W3C//DTD SVG 1.1//EN"
  "http://www.w3.org/Graphics/SVG/1.1/DTD/svg11.dtd">
<!-- Created with matplotlib (https://matplotlib.org/) -->
<svg height="216pt" version="1.1" viewBox="0 0 576 216" width="576pt" xmlns="http://www.w3.org/2000/svg" xmlns:xlink="http://www.w3.org/1999/xlink">
 <metadata>
  <rdf:RDF xmlns:cc="http://creativecommons.org/ns#" xmlns:dc="http://purl.org/dc/elements/1.1/" xmlns:rdf="http://www.w3.org/1999/02/22-rdf-syntax-ns#">
   <cc:Work>
    <dc:type rdf:resource="http://purl.org/dc/dcmitype/StillImage"/>
    <dc:date>2020-11-03T11:22:56.966372</dc:date>
    <dc:format>image/svg+xml</dc:format>
    <dc:creator>
     <cc:Agent>
      <dc:title>Matplotlib v3.3.2, https://matplotlib.org/</dc:title>
     </cc:Agent>
    </dc:creator>
   </cc:Work>
  </rdf:RDF>
 </metadata>
 <defs>
  <style type="text/css">*{stroke-linecap:butt;stroke-linejoin:round;}</style>
 </defs>
 <g id="figure_1">
  <g id="patch_1">
   <path d="M 0 216
L 576 216
L 576 0
L 0 0
z
" style="fill:none;"/>
  </g>
  <g id="axes_1">
   <g id="patch_2">
    <path d="M 72 189
L 518.4 189
L 518.4 25.92
L 72 25.92
z
" style="fill:none;"/>
   </g>
   <g id="line2d_1">
    <path clip-path="url(#p1e30806596)" d="M 92.290909 178.42065
L 93.257718 178.436718
L 93.499421 178.2427
L 93.741123 175.792123
L 95.191337 154.034434
L 95.674741 148.355836
L 96.399848 137.357279
L 96.641551 135.060173
L 96.883253 134.684386
L 98.575169 134.694914
L 99.541978 134.585463
L 100.025383 134.421955
L 100.75049 133.18893
L 101.475597 130.861692
L 102.442406 129.860371
L 102.925811 129.811768
L 105.101132 129.811114
L 105.826239 129.681861
L 106.551345 130.685788
L 107.518155 129.960011
L 108.243262 129.377161
L 108.726666 129.321547
L 110.901987 129.262476
L 111.143689 129.008489
L 111.627094 127.828724
L 112.352201 125.016176
L 113.077308 125.362297
L 114.285819 124.698336
L 116.219438 124.795424
L 116.46114 124.803103
L 116.702843 124.922572
L 116.944545 126.062716
L 118.153056 135.842224
L 119.361568 138.922529
L 119.60327 139.277921
L 119.844973 139.834012
L 120.328377 139.876503
L 122.261996 139.74093
L 122.503698 139.50392
L 122.7454 137.734456
L 123.953912 124.39612
L 124.920721 120.342829
L 125.645828 118.096448
L 125.88753 117.8014
L 128.546256 117.718672
L 129.029661 117.274896
L 129.754767 118.272162
L 130.479874 116.076264
L 131.204981 113.067171
L 131.446684 112.420883
L 131.688386 112.310835
L 133.863707 112.394526
L 134.105409 112.317224
L 134.588814 111.366566
L 134.830516 110.741263
L 135.555623 106.696674
L 137.005837 102.381558
L 137.247539 101.91863
L 137.489241 101.781007
L 139.664562 101.674075
L 139.906265 101.576645
L 140.147967 101.187353
L 140.631371 99.483092
L 141.356478 98.956676
L 141.839883 99.028896
L 142.806692 99.122953
L 143.048395 98.900854
L 143.773502 98.922335
L 145.70712 99.095588
L 146.190525 100.320045
L 146.432227 101.146054
L 146.915632 101.563871
L 147.157334 101.785044
L 147.882441 104.92307
L 148.607548 112.043173
L 148.84925 111.817326
L 149.332655 111.767468
L 151.266273 111.938374
L 151.507976 111.863567
L 152.233082 110.259299
L 152.958189 114.07441
L 153.683296 108.119928
L 154.408403 97.296792
L 154.650106 96.640699
L 154.891808 96.414345
L 157.067129 96.323646
L 157.308831 96.082197
L 157.792236 92.2529
L 158.033938 89.878214
L 158.759045 79.57508
L 159.967556 76.537366
L 160.450961 75.197569
L 160.692663 75.01417
L 162.867984 74.949913
L 163.109687 74.810935
L 163.351389 74.300426
L 163.834793 72.50872
L 164.076496 72.58201
L 164.5599 73.098197
L 165.285007 61.745935
L 166.010114 64.050798
L 166.493519 63.475475
L 168.66884 63.529166
L 168.910542 63.338377
L 169.393947 60.98702
L 169.635649 59.53357
L 170.360756 53.299166
L 170.84416 58.48434
L 171.085863 59.624976
L 171.81097 50.437023
L 172.052672 49.025696
L 172.294374 48.665025
L 174.469695 48.717676
L 174.711397 48.753264
L 174.9531 48.496052
L 175.436504 48.687828
L 176.161611 47.941127
L 176.403314 48.017301
L 176.886718 47.739089
L 177.370123 47.962177
L 177.611825 48.058644
L 178.09523 47.982512
L 180.512253 47.896321
L 180.753955 48.22635
L 181.23736 48.044849
L 181.962467 49.082124
L 182.204169 49.22823
L 182.687574 49.801419
L 184.37949 50.001702
L 186.313108 50.024947
L 186.554811 49.746059
L 187.038215 49.822233
L 187.52162 48.932148
L 188.246727 47.42117
L 189.213536 45.119337
L 189.696941 44.698776
L 192.113964 44.553546
L 192.597369 44.900257
L 192.839071 45.225071
L 193.564178 47.770094
L 194.289285 34.697456
L 194.530987 33.332727
L 194.772689 33.963219
L 195.014392 35.882246
L 195.256094 35.93928
L 195.739499 35.841031
L 197.914819 35.949229
L 198.156522 35.719118
L 198.639926 35.527008
L 199.365033 33.779302
L 200.09014 48.862589
L 200.331843 50.31697
L 200.573545 49.6595
L 200.815247 47.728885
L 201.056949 48.605527
L 202.023759 48.615211
L 203.715675 48.678661
L 203.957377 49.004947
L 205.165889 48.543749
L 205.890996 46.896996
L 206.616103 47.32701
L 206.857805 46.69773
L 207.582912 46.74198
L 209.51653 46.702563
L 209.758233 46.570501
L 210.241637 46.596238
L 210.48334 46.943092
L 210.966744 47.026637
L 212.416958 49.036231
L 212.65866 48.916303
L 213.383767 48.998898
L 215.317386 49.098209
L 215.800791 55.607258
L 216.042493 59.595754
L 216.284195 59.356822
L 216.7676 59.210019
L 217.492707 58.583964
L 218.217814 68.693788
L 218.701218 68.361415
L 220.876539 68.273173
L 221.118241 68.289031
L 221.843348 58.676668
L 222.568455 68.037228
L 223.293562 66.019453
L 224.018669 53.405995
L 224.502074 53.103502
L 226.919097 53.025141
L 227.160799 53.215811
L 227.402501 53.127707
L 227.644204 52.405263
L 228.369311 42.353479
L 229.577822 45.322892
L 229.819525 45.832819
L 230.544632 46.102288
L 232.719952 46.251174
L 232.961655 46.411605
L 233.445059 46.103183
L 233.686762 46.589225
L 234.170166 47.195132
L 235.862082 50.203552
L 236.345487 50.337528
L 238.520808 50.471035
L 238.76251 51.280021
L 239.004212 51.452246
L 239.971022 52.968507
L 241.662938 53.893322
L 243.838259 53.93537
L 244.321663 53.970652
L 244.805068 53.10238
L 245.530175 51.880178
L 246.738686 50.340078
L 247.222091 49.588999
L 247.947198 49.379412
L 250.122519 49.328151
L 250.364221 48.813143
L 250.847626 51.817276
L 251.089328 50.807727
L 251.33103 50.413246
L 253.022947 44.349729
L 253.506351 43.684443
L 255.198267 43.516296
L 255.923374 43.514409
L 256.165077 43.670155
L 256.406779 43.416184
L 256.648481 42.4859
L 257.373588 44.861777
L 258.098695 50.414872
L 258.823802 57.906729
L 259.065504 58.96234
L 259.548909 58.833608
L 261.482527 58.857835
L 261.72423 59.069058
L 261.965932 59.050287
L 262.207634 58.901788
L 262.449337 59.712936
L 263.174444 60.167314
L 263.899551 55.035306
L 264.624658 48.484087
L 264.86636 47.499696
L 265.349764 47.593038
L 267.766788 47.553899
L 268.00849 48.046338
L 268.250192 48.03888
L 268.975299 47.230653
L 269.458704 47.045425
L 269.700406 46.915679
L 270.425513 46.11325
L 270.908918 46.187166
L 273.325941 46.306935
L 273.567643 46.963258
L 274.051048 44.139129
L 274.776155 43.130722
L 275.259559 44.899082
L 275.501262 45.853648
L 275.984666 53.694761
L 276.468071 58.012206
L 276.709773 58.238039
L 278.885094 58.338054
L 279.126796 58.406826
L 279.368499 59.584331
L 280.093606 65.042866
L 280.818712 67.974734
L 281.302117 69.89562
L 281.785522 62.536683
L 282.268926 58.527593
L 282.510629 58.312103
L 284.927652 58.355083
L 285.169354 57.082427
L 285.652759 53.112217
L 287.102973 49.411212
L 287.828079 50.299511
L 290.728507 50.381154
L 290.97021 50.093893
L 291.453614 49.880036
L 292.178721 48.05081
L 293.14553 44.351221
L 293.628935 43.685088
L 296.28766 43.818861
L 297.979577 44.310978
L 299.671493 45.651208
L 301.121707 45.693742
L 302.571921 45.730756
L 303.055325 47.882541
L 303.297027 48.04377
L 303.780432 48.146885
L 305.472348 50.392788
L 305.955753 50.525555
L 308.131074 50.658043
L 308.614478 51.208371
L 308.856181 51.399318
L 309.581288 52.44305
L 311.273204 54.481164
L 311.998311 54.538169
L 313.931929 54.575895
L 314.173631 54.757989
L 315.140441 58.176035
L 315.382143 58.335478
L 315.865548 58.460651
L 316.10725 58.532567
L 316.832357 60.407849
L 317.315762 60.526553
L 319.732785 60.604959
L 319.974487 60.784627
L 320.457892 63.187482
L 320.941296 66.36033
L 321.182999 66.853126
L 321.424701 66.608757
L 321.666403 66.605127
L 321.908105 66.932701
L 322.633212 68.811301
L 323.116617 68.722879
L 324.566831 68.712669
L 325.775342 68.651577
L 326.500449 72.344927
L 326.983854 75.339465
L 327.708961 77.995312
L 328.67577 82.312029
L 331.334496 82.28167
L 332.78471 90.707387
L 334.234923 102.464934
L 334.476626 103.762926
L 334.96003 103.917629
L 337.135351 103.939211
L 338.343863 110.321268
L 339.552374 117.837123
L 340.277481 121.794143
L 340.760886 121.91462
L 342.936207 122.053858
L 344.628123 132.794908
L 346.078337 141.91075
L 347.045146 141.952852
L 348.737062 141.975186
L 351.395788 157.715144
L 352.120894 161.436111
L 353.571108 161.43695
L 354.537918 161.485116
L 357.92175 180.495183
L 361.305582 180.463502
L 362.755796 180.25392
L 364.447712 180.028363
L 368.073247 179.745794
L 373.6324 179.850643
L 375.807721 180.196391
L 385.959218 180.650189
L 388.134539 180.69907
L 396.110715 180.729803
L 397.802631 180.329124
L 399.011143 180.170213
L 400.944761 180.104928
L 403.361785 180.408148
L 406.745617 180.420835
L 408.437533 180.265145
L 410.371152 180.232578
L 415.205198 180.413251
L 416.897114 180.604303
L 419.797542 180.883407
L 421.489458 181.187154
L 422.69797 181.203507
L 425.356695 181.269278
L 427.290313 181.379251
L 430.915848 181.314823
L 432.366062 181.101216
L 433.574574 180.969867
L 437.200108 180.945523
L 439.133727 181.108097
L 444.209475 181.265776
L 445.659689 181.25536
L 448.318415 181.228165
L 451.218842 181.039005
L 454.11927 181.072262
L 454.844377 181.224215
L 456.052889 181.546689
L 460.645233 181.450711
L 461.853744 181.378741
L 466.68779 181.437224
L 470.79673 181.292412
L 471.763539 181.197543
L 474.905669 180.740671
L 477.322692 180.653258
L 481.189929 180.30961
L 485.782273 180.066084
L 490.858022 179.839354
L 494.966961 179.881195
L 497.625686 180.203242
L 498.109091 180.269947
L 498.109091 180.269947
" style="fill:none;stroke:#1f77b4;stroke-linecap:square;stroke-width:0.8;"/>
   </g>
   <g id="line2d_2">
    <path clip-path="url(#p1e30806596)" d="M 92.290909 178.42065
L 93.257718 178.436718
L 93.499421 178.2427
L 93.741123 175.792123
L 95.191337 154.034434
L 95.674741 148.355836
L 96.399848 137.357279
L 96.641551 135.060173
L 96.883253 134.684386
L 98.575169 134.694914
L 99.541978 134.585463
L 100.025383 134.421955
L 100.75049 133.18893
L 101.475597 130.861692
L 102.442406 129.860371
L 102.925811 129.811768
L 105.101132 129.811114
L 105.826239 129.681861
L 106.551345 130.685788
L 107.518155 129.960011
L 108.243262 129.377161
L 108.726666 129.321547
L 110.901987 129.262476
L 111.143689 129.008489
L 111.627094 127.828724
L 112.352201 125.016176
L 113.077308 125.362297
L 114.285819 124.698336
L 116.219438 124.795424
L 116.46114 124.803103
L 116.702843 124.922572
L 116.944545 126.062716
L 118.153056 135.842224
L 119.361568 138.922529
L 119.60327 139.277921
L 119.844973 139.834012
L 120.328377 139.876503
L 122.261996 139.74093
L 122.503698 139.50392
L 122.7454 137.734456
L 123.953912 124.39612
L 124.920721 120.342829
L 125.645828 118.096448
L 125.88753 117.8014
L 128.546256 117.718672
L 129.029661 117.274896
L 129.754767 118.272162
L 130.479874 116.076264
L 131.204981 113.067171
L 131.446684 112.420883
L 131.688386 112.310835
L 133.863707 112.394526
L 134.105409 112.317224
L 134.588814 111.366566
L 134.830516 110.741263
L 135.555623 106.696674
L 137.005837 102.381558
L 137.247539 101.91863
L 137.489241 101.781007
L 139.664562 101.674075
L 139.906265 101.576645
L 140.147967 101.187353
L 140.631371 99.483092
L 141.356478 98.956676
L 141.839883 99.028896
L 142.806692 99.122953
L 143.048395 98.900854
L 143.773502 98.922335
L 145.70712 99.095588
L 146.190525 100.320045
L 146.432227 101.146054
L 146.915632 101.563871
L 147.157334 101.785044
L 147.882441 104.92307
L 148.607548 112.043173
L 148.84925 111.817326
L 149.332655 111.767468
L 151.266273 111.938374
L 151.507976 111.863567
L 152.233082 110.259299
L 152.958189 114.07441
L 153.683296 108.119928
L 154.408403 97.296792
L 154.650106 96.640699
L 154.891808 96.414345
L 157.067129 96.323646
L 157.308831 96.082197
L 157.792236 92.2529
L 158.033938 89.878214
L 158.759045 79.57508
L 159.967556 76.537366
L 160.450961 75.197569
L 160.692663 75.01417
L 162.867984 74.949913
L 163.109687 74.810935
L 163.351389 74.300426
L 163.834793 72.50872
L 164.076496 72.58201
L 164.5599 73.098197
L 165.285007 61.745935
L 166.010114 64.050798
L 166.493519 63.475475
L 168.66884 63.529166
L 168.910542 63.338377
L 169.393947 60.98702
L 169.635649 59.53357
L 170.360756 53.299166
L 170.84416 58.48434
L 171.085863 59.624976
L 171.81097 50.437023
L 172.052672 49.025696
L 172.294374 48.665025
L 174.469695 48.717676
L 174.711397 48.753264
L 174.9531 48.496052
L 175.436504 48.687828
L 176.161611 47.941127
L 176.403314 48.017301
L 176.886718 47.739089
L 177.370123 47.962177
L 177.611825 48.058644
L 178.09523 47.982512
L 180.512253 47.896321
L 180.753955 48.22635
L 181.23736 48.044849
L 181.962467 49.082124
L 182.204169 49.22823
L 182.687574 49.801419
L 184.37949 50.001702
L 186.313108 50.024947
L 186.554811 49.746059
L 187.038215 49.822233
L 187.52162 48.932148
L 188.246727 47.42117
L 189.213536 45.119337
L 189.696941 44.698776
L 192.113964 44.553546
L 192.597369 44.900257
L 192.839071 45.225071
L 193.564178 47.770094
L 194.289285 34.697456
L 194.530987 33.332727
L 194.772689 33.963219
L 195.014392 35.882246
L 195.256094 35.93928
L 195.739499 35.841031
L 197.914819 35.949229
L 198.156522 35.719118
L 198.639926 35.527008
L 199.365033 33.779302
L 200.09014 48.862589
L 200.331843 50.31697
L 200.573545 49.6595
L 200.815247 47.728885
L 201.056949 48.605527
L 202.023759 48.615211
L 203.715675 48.678661
L 203.957377 49.004947
L 205.165889 48.543749
L 205.890996 46.896996
L 206.616103 47.32701
L 206.857805 46.69773
L 207.582912 46.74198
L 209.51653 46.702563
L 209.758233 46.570501
L 210.241637 46.596238
L 210.48334 46.943092
L 210.966744 47.026637
L 212.416958 49.036231
L 212.65866 48.916303
L 213.383767 48.998898
L 215.317386 49.098209
L 215.800791 55.607258
L 216.042493 59.595754
L 216.284195 59.356822
L 216.7676 59.210019
L 217.492707 58.583964
L 218.217814 68.693788
L 218.701218 68.361415
L 220.876539 68.273173
L 221.118241 68.289031
L 221.843348 58.676668
L 222.568455 68.037228
L 223.293562 66.019453
L 224.018669 53.405995
L 224.502074 53.103502
L 226.919097 53.025141
L 227.160799 53.215811
L 227.402501 53.127707
L 227.644204 52.405263
L 228.369311 42.353479
L 229.577822 45.322892
L 229.819525 45.832819
L 230.544632 46.102288
L 232.719952 46.251174
L 232.961655 46.411605
L 233.445059 46.103183
L 233.686762 46.589225
L 234.170166 47.195132
L 235.862082 50.203552
L 236.345487 50.337528
L 238.520808 50.471035
L 238.76251 51.280021
L 239.004212 51.452246
L 239.971022 52.968507
L 241.662938 53.893322
L 243.838259 53.93537
L 244.321663 53.970652
L 244.805068 53.10238
L 245.530175 51.880178
L 246.738686 50.340078
L 247.222091 49.588999
L 247.947198 49.379412
L 250.122519 49.328151
L 250.364221 48.813143
L 250.847626 51.817276
L 251.089328 50.807727
L 251.33103 50.413246
L 253.022947 44.349729
L 253.506351 43.684443
L 255.198267 43.516296
L 255.923374 43.514409
L 256.165077 43.670155
L 256.406779 43.416184
L 256.648481 42.4859
L 257.373588 44.861777
L 258.098695 50.414872
L 258.823802 57.906729
L 259.065504 58.96234
L 259.548909 58.833608
L 261.482527 58.857835
L 261.72423 59.069058
L 261.965932 59.050287
L 262.207634 58.901788
L 262.449337 59.712936
L 263.174444 60.167314
L 263.899551 55.035306
L 264.624658 48.484087
L 264.86636 47.499696
L 265.349764 47.593038
L 267.766788 47.553899
L 268.00849 48.046338
L 268.250192 48.03888
L 268.975299 47.230653
L 269.458704 47.045425
L 269.700406 46.915679
L 270.425513 46.11325
L 270.908918 46.187166
L 273.325941 46.306935
L 273.567643 46.963258
L 274.051048 44.139129
L 274.776155 43.130722
L 275.259559 44.899082
L 275.501262 45.853648
L 275.984666 53.694761
L 276.468071 58.012206
L 276.709773 58.238039
L 278.885094 58.338054
L 279.126796 58.406826
L 279.368499 59.584331
L 280.093606 65.042866
L 280.818712 67.974734
L 281.302117 69.89562
L 281.785522 62.536683
L 282.268926 58.527593
L 282.510629 58.312103
L 284.927652 58.355083
L 285.169354 57.082427
L 285.652759 53.112217
L 287.102973 49.411212
L 287.828079 50.299511
L 290.728507 50.381154
L 290.97021 50.093893
L 291.453614 49.880036
L 292.178721 48.05081
L 293.14553 44.351221
L 293.628935 43.685088
L 296.28766 43.818861
L 297.25447 44.133776
L 297.737874 44.284729
L 297.979577 44.352399
L 299.671493 45.69263
L 301.121707 45.735164
L 302.571921 45.772178
L 303.055325 47.953829
L 303.297027 48.115059
L 303.780432 48.218173
L 305.472348 50.464077
L 305.955753 50.596843
L 308.131074 50.729331
L 308.614478 51.27884
L 308.856181 51.469085
L 309.581288 52.512818
L 311.273204 54.550931
L 311.998311 54.607936
L 313.931929 54.645663
L 314.173631 54.827756
L 315.140441 58.311334
L 315.382143 58.470777
L 315.865548 58.59595
L 316.10725 58.667866
L 316.832357 60.543148
L 317.315762 60.661852
L 319.732785 60.740258
L 319.974487 60.919926
L 320.457892 63.314139
L 320.941296 66.476088
L 321.182999 66.999998
L 321.424701 66.755629
L 321.666403 66.751999
L 321.908105 67.110208
L 322.633212 69.081351
L 323.116617 68.992929
L 324.566831 68.982719
L 325.775342 68.921628
L 326.500449 72.602436
L 326.983854 75.586538
L 327.708961 78.291556
L 328.67577 82.620987
L 331.334496 82.590627
L 332.78471 91.011519
L 334.234923 102.724417
L 334.476626 104.017352
L 334.96003 104.172055
L 337.135351 104.193637
L 338.343863 110.553184
L 339.552374 118.044862
L 340.277481 121.990741
L 340.760886 122.111218
L 342.936207 122.250456
L 344.628123 132.953492
L 346.078337 142.037289
L 347.045146 142.079391
L 348.737062 142.101725
L 351.395788 157.785158
L 352.120894 161.499805
L 353.571108 161.500644
L 354.537918 161.54881
L 357.92175 180.495183
L 361.305582 180.463502
L 362.755796 180.25392
L 364.447712 180.028363
L 368.073247 179.745794
L 373.6324 179.850643
L 375.807721 180.196391
L 385.959218 180.650189
L 388.134539 180.69907
L 396.110715 180.729803
L 397.802631 180.329124
L 399.011143 180.170213
L 400.944761 180.104928
L 403.361785 180.408148
L 406.745617 180.420835
L 408.437533 180.265145
L 410.371152 180.232578
L 415.205198 180.413251
L 416.897114 180.604303
L 419.797542 180.883407
L 421.489458 181.187154
L 422.69797 181.203507
L 425.356695 181.269278
L 427.290313 181.379251
L 430.915848 181.314823
L 432.366062 181.101216
L 433.574574 180.969867
L 437.200108 180.945523
L 439.133727 181.108097
L 444.209475 181.265776
L 445.659689 181.25536
L 448.318415 181.228165
L 451.218842 181.039005
L 454.11927 181.072262
L 454.844377 181.224215
L 456.052889 181.546689
L 460.645233 181.450711
L 461.853744 181.378741
L 466.68779 181.437224
L 470.79673 181.292412
L 471.763539 181.197543
L 474.905669 180.740671
L 477.322692 180.653258
L 481.189929 180.30961
L 485.782273 180.066084
L 490.858022 179.839354
L 494.966961 179.881195
L 497.625686 180.203242
L 498.109091 180.269947
L 498.109091 180.269947
" style="fill:none;stroke:#ff7f0e;stroke-linecap:square;stroke-width:0.8;"/>
   </g>
   <g id="matplotlib.axis_1">
    <g id="xtick_1">
     <g id="line2d_3">
      <defs>
       <path d="M 0 0
L 0 1.5
" id="m4cd77e1a52" style="stroke:#696969;stroke-width:0.8;"/>
      </defs>
      <g>
       <use style="fill:#696969;stroke:#696969;stroke-width:0.8;" x="92.290909" xlink:href="#m4cd77e1a52" y="189"/>
      </g>
     </g>
     <g id="text_1">
      <!-- 150 -->
      <g style="fill:#696969;" transform="translate(82.747159 201.598437)scale(0.1 -0.1)">
       <defs>
        <path d="M 12.40625 8.296875
L 28.515625 8.296875
L 28.515625 63.921875
L 10.984375 60.40625
L 10.984375 69.390625
L 28.421875 72.90625
L 38.28125 72.90625
L 38.28125 8.296875
L 54.390625 8.296875
L 54.390625 0
L 12.40625 0
z
" id="DejaVuSans-49"/>
        <path d="M 10.796875 72.90625
L 49.515625 72.90625
L 49.515625 64.59375
L 19.828125 64.59375
L 19.828125 46.734375
Q 21.96875 47.46875 24.109375 47.828125
Q 26.265625 48.1875 28.421875 48.1875
Q 40.625 48.1875 47.75 41.5
Q 54.890625 34.8125 54.890625 23.390625
Q 54.890625 11.625 47.5625 5.09375
Q 40.234375 -1.421875 26.90625 -1.421875
Q 22.3125 -1.421875 17.546875 -0.640625
Q 12.796875 0.140625 7.71875 1.703125
L 7.71875 11.625
Q 12.109375 9.234375 16.796875 8.0625
Q 21.484375 6.890625 26.703125 6.890625
Q 35.15625 6.890625 40.078125 11.328125
Q 45.015625 15.765625 45.015625 23.390625
Q 45.015625 31 40.078125 35.4375
Q 35.15625 39.890625 26.703125 39.890625
Q 22.75 39.890625 18.8125 39.015625
Q 14.890625 38.140625 10.796875 36.28125
z
" id="DejaVuSans-53"/>
        <path d="M 31.78125 66.40625
Q 24.171875 66.40625 20.328125 58.90625
Q 16.5 51.421875 16.5 36.375
Q 16.5 21.390625 20.328125 13.890625
Q 24.171875 6.390625 31.78125 6.390625
Q 39.453125 6.390625 43.28125 13.890625
Q 47.125 21.390625 47.125 36.375
Q 47.125 51.421875 43.28125 58.90625
Q 39.453125 66.40625 31.78125 66.40625
z
M 31.78125 74.21875
Q 44.046875 74.21875 50.515625 64.515625
Q 56.984375 54.828125 56.984375 36.375
Q 56.984375 17.96875 50.515625 8.265625
Q 44.046875 -1.421875 31.78125 -1.421875
Q 19.53125 -1.421875 13.0625 8.265625
Q 6.59375 17.96875 6.59375 36.375
Q 6.59375 54.828125 13.0625 64.515625
Q 19.53125 74.21875 31.78125 74.21875
z
" id="DejaVuSans-48"/>
       </defs>
       <use xlink:href="#DejaVuSans-49"/>
       <use x="63.623047" xlink:href="#DejaVuSans-53"/>
       <use x="127.246094" xlink:href="#DejaVuSans-48"/>
      </g>
     </g>
    </g>
    <g id="xtick_2">
     <g id="line2d_4">
      <g>
       <use style="fill:#696969;stroke:#696969;stroke-width:0.8;" x="227.644204" xlink:href="#m4cd77e1a52" y="189"/>
      </g>
     </g>
     <g id="text_2">
      <!-- 173 -->
      <g style="fill:#696969;" transform="translate(218.100454 201.598437)scale(0.1 -0.1)">
       <defs>
        <path d="M 8.203125 72.90625
L 55.078125 72.90625
L 55.078125 68.703125
L 28.609375 0
L 18.3125 0
L 43.21875 64.59375
L 8.203125 64.59375
z
" id="DejaVuSans-55"/>
        <path d="M 40.578125 39.3125
Q 47.65625 37.796875 51.625 33
Q 55.609375 28.21875 55.609375 21.1875
Q 55.609375 10.40625 48.1875 4.484375
Q 40.765625 -1.421875 27.09375 -1.421875
Q 22.515625 -1.421875 17.65625 -0.515625
Q 12.796875 0.390625 7.625 2.203125
L 7.625 11.71875
Q 11.71875 9.328125 16.59375 8.109375
Q 21.484375 6.890625 26.8125 6.890625
Q 36.078125 6.890625 40.9375 10.546875
Q 45.796875 14.203125 45.796875 21.1875
Q 45.796875 27.640625 41.28125 31.265625
Q 36.765625 34.90625 28.71875 34.90625
L 20.21875 34.90625
L 20.21875 43.015625
L 29.109375 43.015625
Q 36.375 43.015625 40.234375 45.921875
Q 44.09375 48.828125 44.09375 54.296875
Q 44.09375 59.90625 40.109375 62.90625
Q 36.140625 65.921875 28.71875 65.921875
Q 24.65625 65.921875 20.015625 65.03125
Q 15.375 64.15625 9.8125 62.3125
L 9.8125 71.09375
Q 15.4375 72.65625 20.34375 73.4375
Q 25.25 74.21875 29.59375 74.21875
Q 40.828125 74.21875 47.359375 69.109375
Q 53.90625 64.015625 53.90625 55.328125
Q 53.90625 49.265625 50.4375 45.09375
Q 46.96875 40.921875 40.578125 39.3125
z
" id="DejaVuSans-51"/>
       </defs>
       <use xlink:href="#DejaVuSans-49"/>
       <use x="63.623047" xlink:href="#DejaVuSans-55"/>
       <use x="127.246094" xlink:href="#DejaVuSans-51"/>
      </g>
     </g>
    </g>
    <g id="xtick_3">
     <g id="line2d_5">
      <g>
       <use style="fill:#696969;stroke:#696969;stroke-width:0.8;" x="362.997499" xlink:href="#m4cd77e1a52" y="189"/>
      </g>
     </g>
     <g id="text_3">
      <!-- 196 -->
      <g style="fill:#696969;" transform="translate(353.453749 201.598437)scale(0.1 -0.1)">
       <defs>
        <path d="M 10.984375 1.515625
L 10.984375 10.5
Q 14.703125 8.734375 18.5 7.8125
Q 22.3125 6.890625 25.984375 6.890625
Q 35.75 6.890625 40.890625 13.453125
Q 46.046875 20.015625 46.78125 33.40625
Q 43.953125 29.203125 39.59375 26.953125
Q 35.25 24.703125 29.984375 24.703125
Q 19.046875 24.703125 12.671875 31.3125
Q 6.296875 37.9375 6.296875 49.421875
Q 6.296875 60.640625 12.9375 67.421875
Q 19.578125 74.21875 30.609375 74.21875
Q 43.265625 74.21875 49.921875 64.515625
Q 56.59375 54.828125 56.59375 36.375
Q 56.59375 19.140625 48.40625 8.859375
Q 40.234375 -1.421875 26.421875 -1.421875
Q 22.703125 -1.421875 18.890625 -0.6875
Q 15.09375 0.046875 10.984375 1.515625
z
M 30.609375 32.421875
Q 37.25 32.421875 41.125 36.953125
Q 45.015625 41.5 45.015625 49.421875
Q 45.015625 57.28125 41.125 61.84375
Q 37.25 66.40625 30.609375 66.40625
Q 23.96875 66.40625 20.09375 61.84375
Q 16.21875 57.28125 16.21875 49.421875
Q 16.21875 41.5 20.09375 36.953125
Q 23.96875 32.421875 30.609375 32.421875
z
" id="DejaVuSans-57"/>
        <path d="M 33.015625 40.375
Q 26.375 40.375 22.484375 35.828125
Q 18.609375 31.296875 18.609375 23.390625
Q 18.609375 15.53125 22.484375 10.953125
Q 26.375 6.390625 33.015625 6.390625
Q 39.65625 6.390625 43.53125 10.953125
Q 47.40625 15.53125 47.40625 23.390625
Q 47.40625 31.296875 43.53125 35.828125
Q 39.65625 40.375 33.015625 40.375
z
M 52.59375 71.296875
L 52.59375 62.3125
Q 48.875 64.0625 45.09375 64.984375
Q 41.3125 65.921875 37.59375 65.921875
Q 27.828125 65.921875 22.671875 59.328125
Q 17.53125 52.734375 16.796875 39.40625
Q 19.671875 43.65625 24.015625 45.921875
Q 28.375 48.1875 33.59375 48.1875
Q 44.578125 48.1875 50.953125 41.515625
Q 57.328125 34.859375 57.328125 23.390625
Q 57.328125 12.15625 50.6875 5.359375
Q 44.046875 -1.421875 33.015625 -1.421875
Q 20.359375 -1.421875 13.671875 8.265625
Q 6.984375 17.96875 6.984375 36.375
Q 6.984375 53.65625 15.1875 63.9375
Q 23.390625 74.21875 37.203125 74.21875
Q 40.921875 74.21875 44.703125 73.484375
Q 48.484375 72.75 52.59375 71.296875
z
" id="DejaVuSans-54"/>
       </defs>
       <use xlink:href="#DejaVuSans-49"/>
       <use x="63.623047" xlink:href="#DejaVuSans-57"/>
       <use x="127.246094" xlink:href="#DejaVuSans-54"/>
      </g>
     </g>
    </g>
    <g id="xtick_4">
     <g id="line2d_6">
      <g>
       <use style="fill:#696969;stroke:#696969;stroke-width:0.8;" x="498.350793" xlink:href="#m4cd77e1a52" y="189"/>
      </g>
     </g>
     <g id="text_4">
      <!-- 220 -->
      <g style="fill:#696969;" transform="translate(488.807043 201.598437)scale(0.1 -0.1)">
       <defs>
        <path d="M 19.1875 8.296875
L 53.609375 8.296875
L 53.609375 0
L 7.328125 0
L 7.328125 8.296875
Q 12.9375 14.109375 22.625 23.890625
Q 32.328125 33.6875 34.8125 36.53125
Q 39.546875 41.84375 41.421875 45.53125
Q 43.3125 49.21875 43.3125 52.78125
Q 43.3125 58.59375 39.234375 62.25
Q 35.15625 65.921875 28.609375 65.921875
Q 23.96875 65.921875 18.8125 64.3125
Q 13.671875 62.703125 7.8125 59.421875
L 7.8125 69.390625
Q 13.765625 71.78125 18.9375 73
Q 24.125 74.21875 28.421875 74.21875
Q 39.75 74.21875 46.484375 68.546875
Q 53.21875 62.890625 53.21875 53.421875
Q 53.21875 48.921875 51.53125 44.890625
Q 49.859375 40.875 45.40625 35.40625
Q 44.1875 33.984375 37.640625 27.21875
Q 31.109375 20.453125 19.1875 8.296875
z
" id="DejaVuSans-50"/>
       </defs>
       <use xlink:href="#DejaVuSans-50"/>
       <use x="63.623047" xlink:href="#DejaVuSans-50"/>
       <use x="127.246094" xlink:href="#DejaVuSans-48"/>
      </g>
     </g>
    </g>
    <g id="text_5">
     <!-- Days -->
     <g style="fill:#696969;" transform="translate(282.721875 215.276563)scale(0.1 -0.1)">
      <defs>
       <path d="M 19.671875 64.796875
L 19.671875 8.109375
L 31.59375 8.109375
Q 46.6875 8.109375 53.6875 14.9375
Q 60.6875 21.78125 60.6875 36.53125
Q 60.6875 51.171875 53.6875 57.984375
Q 46.6875 64.796875 31.59375 64.796875
z
M 9.8125 72.90625
L 30.078125 72.90625
Q 51.265625 72.90625 61.171875 64.09375
Q 71.09375 55.28125 71.09375 36.53125
Q 71.09375 17.671875 61.125 8.828125
Q 51.171875 0 30.078125 0
L 9.8125 0
z
" id="DejaVuSans-68"/>
       <path d="M 34.28125 27.484375
Q 23.390625 27.484375 19.1875 25
Q 14.984375 22.515625 14.984375 16.5
Q 14.984375 11.71875 18.140625 8.90625
Q 21.296875 6.109375 26.703125 6.109375
Q 34.1875 6.109375 38.703125 11.40625
Q 43.21875 16.703125 43.21875 25.484375
L 43.21875 27.484375
z
M 52.203125 31.203125
L 52.203125 0
L 43.21875 0
L 43.21875 8.296875
Q 40.140625 3.328125 35.546875 0.953125
Q 30.953125 -1.421875 24.3125 -1.421875
Q 15.921875 -1.421875 10.953125 3.296875
Q 6 8.015625 6 15.921875
Q 6 25.140625 12.171875 29.828125
Q 18.359375 34.515625 30.609375 34.515625
L 43.21875 34.515625
L 43.21875 35.40625
Q 43.21875 41.609375 39.140625 45
Q 35.0625 48.390625 27.6875 48.390625
Q 23 48.390625 18.546875 47.265625
Q 14.109375 46.140625 10.015625 43.890625
L 10.015625 52.203125
Q 14.9375 54.109375 19.578125 55.046875
Q 24.21875 56 28.609375 56
Q 40.484375 56 46.34375 49.84375
Q 52.203125 43.703125 52.203125 31.203125
z
" id="DejaVuSans-97"/>
       <path d="M 32.171875 -5.078125
Q 28.375 -14.84375 24.75 -17.8125
Q 21.140625 -20.796875 15.09375 -20.796875
L 7.90625 -20.796875
L 7.90625 -13.28125
L 13.1875 -13.28125
Q 16.890625 -13.28125 18.9375 -11.515625
Q 21 -9.765625 23.484375 -3.21875
L 25.09375 0.875
L 2.984375 54.6875
L 12.5 54.6875
L 29.59375 11.921875
L 46.6875 54.6875
L 56.203125 54.6875
z
" id="DejaVuSans-121"/>
       <path d="M 44.28125 53.078125
L 44.28125 44.578125
Q 40.484375 46.53125 36.375 47.5
Q 32.28125 48.484375 27.875 48.484375
Q 21.1875 48.484375 17.84375 46.4375
Q 14.5 44.390625 14.5 40.28125
Q 14.5 37.15625 16.890625 35.375
Q 19.28125 33.59375 26.515625 31.984375
L 29.59375 31.296875
Q 39.15625 29.25 43.1875 25.515625
Q 47.21875 21.78125 47.21875 15.09375
Q 47.21875 7.46875 41.1875 3.015625
Q 35.15625 -1.421875 24.609375 -1.421875
Q 20.21875 -1.421875 15.453125 -0.5625
Q 10.6875 0.296875 5.421875 2
L 5.421875 11.28125
Q 10.40625 8.6875 15.234375 7.390625
Q 20.0625 6.109375 24.8125 6.109375
Q 31.15625 6.109375 34.5625 8.28125
Q 37.984375 10.453125 37.984375 14.40625
Q 37.984375 18.0625 35.515625 20.015625
Q 33.0625 21.96875 24.703125 23.78125
L 21.578125 24.515625
Q 13.234375 26.265625 9.515625 29.90625
Q 5.8125 33.546875 5.8125 39.890625
Q 5.8125 47.609375 11.28125 51.796875
Q 16.75 56 26.8125 56
Q 31.78125 56 36.171875 55.265625
Q 40.578125 54.546875 44.28125 53.078125
z
" id="DejaVuSans-115"/>
      </defs>
      <use xlink:href="#DejaVuSans-68"/>
      <use x="77.001953" xlink:href="#DejaVuSans-97"/>
      <use x="138.28125" xlink:href="#DejaVuSans-121"/>
      <use x="197.460938" xlink:href="#DejaVuSans-115"/>
     </g>
    </g>
   </g>
   <g id="matplotlib.axis_2">
    <g id="ytick_1">
     <g id="line2d_7">
      <path clip-path="url(#p1e30806596)" d="M 72 176.943668
L 518.4 176.943668
" style="fill:none;stroke:#b0b0b0;stroke-linecap:square;stroke-width:0.8;"/>
     </g>
     <g id="line2d_8">
      <defs>
       <path d="M 0 0
L -1 0
" id="me3e41fc7eb" style="stroke:#696969;stroke-width:0.2;"/>
      </defs>
      <g>
       <use style="fill:#696969;stroke:#696969;stroke-width:0.2;" x="72" xlink:href="#me3e41fc7eb" y="176.943668"/>
      </g>
     </g>
     <g id="text_6">
      <!-- 0.0 -->
      <g style="fill:#696969;" transform="translate(51.596875 180.742887)scale(0.1 -0.1)">
       <defs>
        <path d="M 10.6875 12.40625
L 21 12.40625
L 21 0
L 10.6875 0
z
" id="DejaVuSans-46"/>
       </defs>
       <use xlink:href="#DejaVuSans-48"/>
       <use x="63.623047" xlink:href="#DejaVuSans-46"/>
       <use x="95.410156" xlink:href="#DejaVuSans-48"/>
      </g>
     </g>
    </g>
    <g id="ytick_2">
     <g id="line2d_9">
      <path clip-path="url(#p1e30806596)" d="M 72 155.755831
L 518.4 155.755831
" style="fill:none;stroke:#b0b0b0;stroke-linecap:square;stroke-width:0.8;"/>
     </g>
     <g id="line2d_10">
      <g>
       <use style="fill:#696969;stroke:#696969;stroke-width:0.2;" x="72" xlink:href="#me3e41fc7eb" y="155.755831"/>
      </g>
     </g>
     <g id="text_7">
      <!-- 2.5 -->
      <g style="fill:#696969;" transform="translate(51.596875 159.555049)scale(0.1 -0.1)">
       <use xlink:href="#DejaVuSans-50"/>
       <use x="63.623047" xlink:href="#DejaVuSans-46"/>
       <use x="95.410156" xlink:href="#DejaVuSans-53"/>
      </g>
     </g>
    </g>
    <g id="ytick_3">
     <g id="line2d_11">
      <path clip-path="url(#p1e30806596)" d="M 72 134.567993
L 518.4 134.567993
" style="fill:none;stroke:#b0b0b0;stroke-linecap:square;stroke-width:0.8;"/>
     </g>
     <g id="line2d_12">
      <g>
       <use style="fill:#696969;stroke:#696969;stroke-width:0.2;" x="72" xlink:href="#me3e41fc7eb" y="134.567993"/>
      </g>
     </g>
     <g id="text_8">
      <!-- 5.0 -->
      <g style="fill:#696969;" transform="translate(51.596875 138.367211)scale(0.1 -0.1)">
       <use xlink:href="#DejaVuSans-53"/>
       <use x="63.623047" xlink:href="#DejaVuSans-46"/>
       <use x="95.410156" xlink:href="#DejaVuSans-48"/>
      </g>
     </g>
    </g>
    <g id="ytick_4">
     <g id="line2d_13">
      <path clip-path="url(#p1e30806596)" d="M 72 113.380155
L 518.4 113.380155
" style="fill:none;stroke:#b0b0b0;stroke-linecap:square;stroke-width:0.8;"/>
     </g>
     <g id="line2d_14">
      <g>
       <use style="fill:#696969;stroke:#696969;stroke-width:0.2;" x="72" xlink:href="#me3e41fc7eb" y="113.380155"/>
      </g>
     </g>
     <g id="text_9">
      <!-- 7.5 -->
      <g style="fill:#696969;" transform="translate(51.596875 117.179374)scale(0.1 -0.1)">
       <use xlink:href="#DejaVuSans-55"/>
       <use x="63.623047" xlink:href="#DejaVuSans-46"/>
       <use x="95.410156" xlink:href="#DejaVuSans-53"/>
      </g>
     </g>
    </g>
    <g id="ytick_5">
     <g id="line2d_15">
      <path clip-path="url(#p1e30806596)" d="M 72 92.192317
L 518.4 92.192317
" style="fill:none;stroke:#b0b0b0;stroke-linecap:square;stroke-width:0.8;"/>
     </g>
     <g id="line2d_16">
      <g>
       <use style="fill:#696969;stroke:#696969;stroke-width:0.2;" x="72" xlink:href="#me3e41fc7eb" y="92.192317"/>
      </g>
     </g>
     <g id="text_10">
      <!-- 10.0 -->
      <g style="fill:#696969;" transform="translate(45.234375 95.991536)scale(0.1 -0.1)">
       <use xlink:href="#DejaVuSans-49"/>
       <use x="63.623047" xlink:href="#DejaVuSans-48"/>
       <use x="127.246094" xlink:href="#DejaVuSans-46"/>
       <use x="159.033203" xlink:href="#DejaVuSans-48"/>
      </g>
     </g>
    </g>
    <g id="ytick_6">
     <g id="line2d_17">
      <path clip-path="url(#p1e30806596)" d="M 72 71.004479
L 518.4 71.004479
" style="fill:none;stroke:#b0b0b0;stroke-linecap:square;stroke-width:0.8;"/>
     </g>
     <g id="line2d_18">
      <g>
       <use style="fill:#696969;stroke:#696969;stroke-width:0.2;" x="72" xlink:href="#me3e41fc7eb" y="71.004479"/>
      </g>
     </g>
     <g id="text_11">
      <!-- 12.5 -->
      <g style="fill:#696969;" transform="translate(45.234375 74.803698)scale(0.1 -0.1)">
       <use xlink:href="#DejaVuSans-49"/>
       <use x="63.623047" xlink:href="#DejaVuSans-50"/>
       <use x="127.246094" xlink:href="#DejaVuSans-46"/>
       <use x="159.033203" xlink:href="#DejaVuSans-53"/>
      </g>
     </g>
    </g>
    <g id="ytick_7">
     <g id="line2d_19">
      <path clip-path="url(#p1e30806596)" d="M 72 49.816641
L 518.4 49.816641
" style="fill:none;stroke:#b0b0b0;stroke-linecap:square;stroke-width:0.8;"/>
     </g>
     <g id="line2d_20">
      <g>
       <use style="fill:#696969;stroke:#696969;stroke-width:0.2;" x="72" xlink:href="#me3e41fc7eb" y="49.816641"/>
      </g>
     </g>
     <g id="text_12">
      <!-- 15.0 -->
      <g style="fill:#696969;" transform="translate(45.234375 53.61586)scale(0.1 -0.1)">
       <use xlink:href="#DejaVuSans-49"/>
       <use x="63.623047" xlink:href="#DejaVuSans-53"/>
       <use x="127.246094" xlink:href="#DejaVuSans-46"/>
       <use x="159.033203" xlink:href="#DejaVuSans-48"/>
      </g>
     </g>
    </g>
    <g id="ytick_8">
     <g id="line2d_21">
      <path clip-path="url(#p1e30806596)" d="M 72 28.628803
L 518.4 28.628803
" style="fill:none;stroke:#b0b0b0;stroke-linecap:square;stroke-width:0.8;"/>
     </g>
     <g id="line2d_22">
      <g>
       <use style="fill:#696969;stroke:#696969;stroke-width:0.2;" x="72" xlink:href="#me3e41fc7eb" y="28.628803"/>
      </g>
     </g>
     <g id="text_13">
      <!-- 17.5 -->
      <g style="fill:#696969;" transform="translate(45.234375 32.428022)scale(0.1 -0.1)">
       <use xlink:href="#DejaVuSans-49"/>
       <use x="63.623047" xlink:href="#DejaVuSans-55"/>
       <use x="127.246094" xlink:href="#DejaVuSans-46"/>
       <use x="159.033203" xlink:href="#DejaVuSans-53"/>
      </g>
     </g>
    </g>
    <g id="text_14">
     <!--  (Unit._unknown) -->
     <g style="fill:#696969;" transform="translate(38.876562 149.935781)rotate(-90)scale(0.1 -0.1)">
      <defs>
       <path id="DejaVuSans-32"/>
       <path d="M 31 75.875
Q 24.46875 64.65625 21.28125 53.65625
Q 18.109375 42.671875 18.109375 31.390625
Q 18.109375 20.125 21.3125 9.0625
Q 24.515625 -2 31 -13.1875
L 23.1875 -13.1875
Q 15.875 -1.703125 12.234375 9.375
Q 8.59375 20.453125 8.59375 31.390625
Q 8.59375 42.28125 12.203125 53.3125
Q 15.828125 64.359375 23.1875 75.875
z
" id="DejaVuSans-40"/>
       <path d="M 8.6875 72.90625
L 18.609375 72.90625
L 18.609375 28.609375
Q 18.609375 16.890625 22.84375 11.734375
Q 27.09375 6.59375 36.625 6.59375
Q 46.09375 6.59375 50.34375 11.734375
Q 54.59375 16.890625 54.59375 28.609375
L 54.59375 72.90625
L 64.5 72.90625
L 64.5 27.390625
Q 64.5 13.140625 57.4375 5.859375
Q 50.390625 -1.421875 36.625 -1.421875
Q 22.796875 -1.421875 15.734375 5.859375
Q 8.6875 13.140625 8.6875 27.390625
z
" id="DejaVuSans-85"/>
       <path d="M 54.890625 33.015625
L 54.890625 0
L 45.90625 0
L 45.90625 32.71875
Q 45.90625 40.484375 42.875 44.328125
Q 39.84375 48.1875 33.796875 48.1875
Q 26.515625 48.1875 22.3125 43.546875
Q 18.109375 38.921875 18.109375 30.90625
L 18.109375 0
L 9.078125 0
L 9.078125 54.6875
L 18.109375 54.6875
L 18.109375 46.1875
Q 21.34375 51.125 25.703125 53.5625
Q 30.078125 56 35.796875 56
Q 45.21875 56 50.046875 50.171875
Q 54.890625 44.34375 54.890625 33.015625
z
" id="DejaVuSans-110"/>
       <path d="M 9.421875 54.6875
L 18.40625 54.6875
L 18.40625 0
L 9.421875 0
z
M 9.421875 75.984375
L 18.40625 75.984375
L 18.40625 64.59375
L 9.421875 64.59375
z
" id="DejaVuSans-105"/>
       <path d="M 18.3125 70.21875
L 18.3125 54.6875
L 36.8125 54.6875
L 36.8125 47.703125
L 18.3125 47.703125
L 18.3125 18.015625
Q 18.3125 11.328125 20.140625 9.421875
Q 21.96875 7.515625 27.59375 7.515625
L 36.8125 7.515625
L 36.8125 0
L 27.59375 0
Q 17.1875 0 13.234375 3.875
Q 9.28125 7.765625 9.28125 18.015625
L 9.28125 47.703125
L 2.6875 47.703125
L 2.6875 54.6875
L 9.28125 54.6875
L 9.28125 70.21875
z
" id="DejaVuSans-116"/>
       <path d="M 50.984375 -16.609375
L 50.984375 -23.578125
L -0.984375 -23.578125
L -0.984375 -16.609375
z
" id="DejaVuSans-95"/>
       <path d="M 8.5 21.578125
L 8.5 54.6875
L 17.484375 54.6875
L 17.484375 21.921875
Q 17.484375 14.15625 20.5 10.265625
Q 23.53125 6.390625 29.59375 6.390625
Q 36.859375 6.390625 41.078125 11.03125
Q 45.3125 15.671875 45.3125 23.6875
L 45.3125 54.6875
L 54.296875 54.6875
L 54.296875 0
L 45.3125 0
L 45.3125 8.40625
Q 42.046875 3.421875 37.71875 1
Q 33.40625 -1.421875 27.6875 -1.421875
Q 18.265625 -1.421875 13.375 4.4375
Q 8.5 10.296875 8.5 21.578125
z
M 31.109375 56
z
" id="DejaVuSans-117"/>
       <path d="M 9.078125 75.984375
L 18.109375 75.984375
L 18.109375 31.109375
L 44.921875 54.6875
L 56.390625 54.6875
L 27.390625 29.109375
L 57.625 0
L 45.90625 0
L 18.109375 26.703125
L 18.109375 0
L 9.078125 0
z
" id="DejaVuSans-107"/>
       <path d="M 30.609375 48.390625
Q 23.390625 48.390625 19.1875 42.75
Q 14.984375 37.109375 14.984375 27.296875
Q 14.984375 17.484375 19.15625 11.84375
Q 23.34375 6.203125 30.609375 6.203125
Q 37.796875 6.203125 41.984375 11.859375
Q 46.1875 17.53125 46.1875 27.296875
Q 46.1875 37.015625 41.984375 42.703125
Q 37.796875 48.390625 30.609375 48.390625
z
M 30.609375 56
Q 42.328125 56 49.015625 48.375
Q 55.71875 40.765625 55.71875 27.296875
Q 55.71875 13.875 49.015625 6.21875
Q 42.328125 -1.421875 30.609375 -1.421875
Q 18.84375 -1.421875 12.171875 6.21875
Q 5.515625 13.875 5.515625 27.296875
Q 5.515625 40.765625 12.171875 48.375
Q 18.84375 56 30.609375 56
z
" id="DejaVuSans-111"/>
       <path d="M 4.203125 54.6875
L 13.1875 54.6875
L 24.421875 12.015625
L 35.59375 54.6875
L 46.1875 54.6875
L 57.421875 12.015625
L 68.609375 54.6875
L 77.59375 54.6875
L 63.28125 0
L 52.6875 0
L 40.921875 44.828125
L 29.109375 0
L 18.5 0
z
" id="DejaVuSans-119"/>
       <path d="M 8.015625 75.875
L 15.828125 75.875
Q 23.140625 64.359375 26.78125 53.3125
Q 30.421875 42.28125 30.421875 31.390625
Q 30.421875 20.453125 26.78125 9.375
Q 23.140625 -1.703125 15.828125 -13.1875
L 8.015625 -13.1875
Q 14.5 -2 17.703125 9.0625
Q 20.90625 20.125 20.90625 31.390625
Q 20.90625 42.671875 17.703125 53.65625
Q 14.5 64.65625 8.015625 75.875
z
" id="DejaVuSans-41"/>
      </defs>
      <use xlink:href="#DejaVuSans-32"/>
      <use x="31.787109" xlink:href="#DejaVuSans-40"/>
      <use x="70.800781" xlink:href="#DejaVuSans-85"/>
      <use x="143.994141" xlink:href="#DejaVuSans-110"/>
      <use x="207.373047" xlink:href="#DejaVuSans-105"/>
      <use x="235.15625" xlink:href="#DejaVuSans-116"/>
      <use x="274.365234" xlink:href="#DejaVuSans-46"/>
      <use x="306.152344" xlink:href="#DejaVuSans-95"/>
      <use x="356.152344" xlink:href="#DejaVuSans-117"/>
      <use x="419.53125" xlink:href="#DejaVuSans-110"/>
      <use x="482.910156" xlink:href="#DejaVuSans-107"/>
      <use x="540.820312" xlink:href="#DejaVuSans-110"/>
      <use x="604.199219" xlink:href="#DejaVuSans-111"/>
      <use x="665.380859" xlink:href="#DejaVuSans-119"/>
      <use x="747.167969" xlink:href="#DejaVuSans-110"/>
      <use x="810.546875" xlink:href="#DejaVuSans-41"/>
     </g>
    </g>
   </g>
   <g id="line2d_23">
    <path clip-path="url(#p1e30806596)" d="M 92.290909 178.42065
L 93.257718 178.436718
L 93.499421 178.2427
L 93.741123 175.792123
L 95.191337 154.034434
L 95.674741 148.355836
L 96.399848 137.357279
L 96.641551 135.060173
L 96.883253 134.684386
L 98.575169 134.694914
L 99.541978 134.585463
L 100.025383 134.421955
L 100.75049 133.18893
L 101.475597 130.861692
L 102.442406 129.860371
L 102.925811 129.811768
L 105.101132 129.811114
L 105.826239 129.681861
L 106.551345 130.685788
L 107.518155 129.960011
L 108.243262 129.377161
L 108.726666 129.321547
L 110.901987 129.262476
L 111.143689 129.008489
L 111.627094 127.828724
L 112.352201 125.016176
L 113.077308 125.362297
L 114.285819 124.698336
L 116.219438 124.795424
L 116.46114 124.803103
L 116.702843 124.922572
L 116.944545 126.062716
L 118.153056 135.842224
L 119.361568 138.922529
L 119.60327 139.277921
L 119.844973 139.834012
L 120.328377 139.876503
L 122.261996 139.74093
L 122.503698 139.50392
L 122.7454 137.734456
L 123.953912 124.39612
L 124.920721 120.342829
L 125.645828 118.096448
L 125.88753 117.8014
L 128.546256 117.718672
L 129.029661 117.274896
L 129.754767 118.272162
L 130.479874 116.076264
L 131.204981 113.067171
L 131.446684 112.420883
L 131.688386 112.310835
L 133.863707 112.394526
L 134.105409 112.317224
L 134.588814 111.366566
L 134.830516 110.741263
L 135.555623 106.696674
L 137.005837 102.381558
L 137.247539 101.91863
L 137.489241 101.781007
L 139.664562 101.674075
L 139.906265 101.576645
L 140.147967 101.187353
L 140.631371 99.483092
L 141.356478 98.956676
L 141.839883 99.028896
L 142.806692 99.122953
L 143.048395 98.900854
L 143.773502 98.922335
L 145.70712 99.095588
L 146.190525 100.320045
L 146.432227 101.146054
L 146.915632 101.563871
L 147.157334 101.785044
L 147.882441 104.92307
L 148.607548 112.043173
L 148.84925 111.817326
L 149.332655 111.767468
L 151.266273 111.938374
L 151.507976 111.863567
L 152.233082 110.259299
L 152.958189 114.07441
L 153.683296 108.119928
L 154.408403 97.296792
L 154.650106 96.640699
L 154.891808 96.414345
L 157.067129 96.323646
L 157.308831 96.082197
L 157.792236 92.2529
L 158.033938 89.878214
L 158.759045 79.57508
L 159.967556 76.537366
L 160.450961 75.197569
L 160.692663 75.01417
L 162.867984 74.949913
L 163.109687 74.810935
L 163.351389 74.300426
L 163.834793 72.50872
L 164.076496 72.58201
L 164.5599 73.098197
L 165.285007 61.745935
L 166.010114 64.050798
L 166.493519 63.475475
L 168.66884 63.529166
L 168.910542 63.338377
L 169.393947 60.98702
L 169.635649 59.53357
L 170.360756 53.299166
L 170.84416 58.48434
L 171.085863 59.624976
L 171.81097 50.437023
L 172.052672 49.025696
L 172.294374 48.665025
L 174.469695 48.717676
L 174.711397 48.753264
L 174.9531 48.496052
L 175.436504 48.687828
L 176.161611 47.941127
L 176.403314 48.017301
L 176.886718 47.739089
L 177.370123 47.962177
L 177.611825 48.058644
L 178.09523 47.982512
L 180.512253 47.896321
L 180.753955 48.22635
L 181.23736 48.044849
L 181.962467 49.082124
L 182.204169 49.22823
L 182.687574 49.801419
L 184.37949 50.001702
L 186.313108 50.024947
L 186.554811 49.746059
L 187.038215 49.822233
L 187.52162 48.932148
L 188.246727 47.42117
L 189.213536 45.119337
L 189.696941 44.698776
L 192.113964 44.553546
L 192.597369 44.900257
L 192.839071 45.225071
L 193.564178 47.770094
L 194.289285 34.697456
L 194.530987 33.332727
L 194.772689 33.963219
L 195.014392 35.882246
L 195.256094 35.93928
L 195.739499 35.841031
L 197.914819 35.949229
L 198.156522 35.719118
L 198.639926 35.527008
L 199.365033 33.779302
L 200.09014 48.862589
L 200.331843 50.31697
L 200.573545 49.6595
L 200.815247 47.728885
L 201.056949 48.605527
L 202.023759 48.615211
L 203.715675 48.678661
L 203.957377 49.004947
L 205.165889 48.543749
L 205.890996 46.896996
L 206.616103 47.32701
L 206.857805 46.69773
L 207.582912 46.74198
L 209.51653 46.702563
L 209.758233 46.570501
L 210.241637 46.596238
L 210.48334 46.943092
L 210.966744 47.026637
L 212.416958 49.036231
L 212.65866 48.916303
L 213.383767 48.998898
L 215.317386 49.098209
L 215.800791 55.607258
L 216.042493 59.595754
L 216.284195 59.356822
L 216.7676 59.210019
L 217.492707 58.583964
L 218.217814 68.693788
L 218.701218 68.361415
L 220.876539 68.273173
L 221.118241 68.289031
L 221.843348 58.676668
L 222.568455 68.037228
L 223.293562 66.019453
L 224.018669 53.405995
L 224.502074 53.103502
L 226.919097 53.025141
L 227.160799 53.215811
L 227.402501 53.127707
L 227.644204 52.405263
L 228.369311 42.353479
L 229.577822 45.322892
L 229.819525 45.832819
L 230.544632 46.102288
L 232.719952 46.251174
L 232.961655 46.411605
L 233.445059 46.103183
L 233.686762 46.589225
L 234.170166 47.195132
L 235.862082 50.203552
L 236.345487 50.337528
L 238.520808 50.471035
L 238.76251 51.280021
L 239.004212 51.452246
L 239.971022 52.968507
L 241.662938 53.893322
L 243.838259 53.93537
L 244.321663 53.970652
L 244.805068 53.10238
L 245.530175 51.880178
L 246.738686 50.340078
L 247.222091 49.588999
L 247.947198 49.379412
L 250.122519 49.328151
L 250.364221 48.813143
L 250.847626 51.817276
L 251.089328 50.807727
L 251.33103 50.413246
L 253.022947 44.349729
L 253.506351 43.684443
L 255.198267 43.516296
L 255.923374 43.514409
L 256.165077 43.670155
L 256.406779 43.416184
L 256.648481 42.4859
L 257.373588 44.861777
L 258.098695 50.414872
L 258.823802 57.906729
L 259.065504 58.96234
L 259.548909 58.833608
L 261.482527 58.857835
L 261.72423 59.069058
L 261.965932 59.050287
L 262.207634 58.901788
L 262.449337 59.712936
L 263.174444 60.167314
L 263.899551 55.035306
L 264.624658 48.484087
L 264.86636 47.499696
L 265.349764 47.593038
L 267.766788 47.553899
L 268.00849 48.046338
L 268.250192 48.03888
L 268.975299 47.230653
L 269.458704 47.045425
L 269.700406 46.915679
L 270.425513 46.11325
L 270.908918 46.187166
L 273.325941 46.306935
L 273.567643 46.963258
L 274.051048 44.139129
L 274.776155 43.130722
L 275.259559 44.899082
L 275.501262 45.853648
L 275.984666 53.694761
L 276.468071 58.012206
L 276.709773 58.238039
L 278.885094 58.338054
L 279.126796 58.406826
L 279.368499 59.584331
L 280.093606 65.042866
L 280.818712 67.974734
L 281.302117 69.89562
L 281.785522 62.536683
L 282.268926 58.527593
L 282.510629 58.312103
L 284.927652 58.355083
L 285.169354 57.082427
L 285.652759 53.112217
L 287.102973 49.411212
L 287.828079 50.299511
L 290.728507 50.381154
L 290.97021 50.093893
L 291.453614 49.880036
L 292.178721 48.05081
L 293.14553 44.351221
L 293.628935 43.685088
L 296.28766 43.818861
L 297.012767 44.039903
L 297.25447 44.384941
L 297.737874 44.535893
L 297.979577 44.603563
L 299.671493 45.943794
L 301.121707 45.986328
L 302.571921 46.023342
L 303.055325 48.302806
L 303.297027 48.464036
L 303.780432 48.567151
L 305.472348 50.813054
L 305.955753 50.945821
L 308.131074 51.078308
L 308.614478 51.623814
L 308.856181 51.810626
L 309.581288 52.854359
L 311.273204 54.892472
L 311.998311 54.949477
L 313.931929 54.987204
L 314.173631 55.169297
L 314.657036 56.950944
L 315.140441 58.973807
L 315.382143 59.13325
L 315.865548 59.258423
L 316.10725 59.330339
L 316.832357 61.205621
L 317.315762 61.324325
L 319.732785 61.402731
L 319.974487 61.582399
L 320.457892 63.934316
L 320.941296 67.042856
L 321.182999 67.719099
L 321.424701 67.47473
L 321.666403 67.4711
L 321.908105 67.979293
L 322.633212 70.403487
L 323.116617 70.315065
L 324.566831 70.304855
L 325.775342 70.292998
L 326.500449 73.912313
L 327.225556 77.776257
L 327.950663 80.963971
L 328.67577 84.182632
L 331.334496 84.152272
L 333.268114 96.217667
L 334.476626 105.263295
L 334.96003 105.417998
L 337.135351 105.43958
L 338.343863 111.68896
L 339.552374 119.061995
L 340.277481 122.952999
L 340.760886 123.073476
L 342.936207 123.212714
L 344.628123 133.729662
L 346.078337 142.656615
L 347.045146 142.698717
L 348.737062 142.721051
L 351.395788 158.127878
L 352.120894 161.811606
L 353.571108 161.812445
L 354.537918 161.860611
L 357.92175 180.495183
L 361.305582 180.463502
L 362.755796 180.25392
L 364.447712 180.028363
L 368.073247 179.745794
L 373.6324 179.850643
L 375.807721 180.196391
L 385.959218 180.650189
L 388.134539 180.69907
L 396.110715 180.729803
L 397.802631 180.329124
L 399.011143 180.170213
L 400.944761 180.104928
L 403.361785 180.408148
L 406.745617 180.420835
L 408.437533 180.265145
L 410.371152 180.232578
L 415.205198 180.413251
L 416.897114 180.604303
L 419.797542 180.883407
L 421.489458 181.187154
L 422.69797 181.203507
L 425.356695 181.269278
L 427.290313 181.379251
L 430.915848 181.314823
L 432.366062 181.101216
L 433.574574 180.969867
L 437.200108 180.945523
L 439.133727 181.108097
L 444.209475 181.265776
L 445.659689 181.25536
L 448.318415 181.228165
L 451.218842 181.039005
L 454.11927 181.072262
L 454.844377 181.224215
L 456.052889 181.546689
L 460.645233 181.450711
L 461.853744 181.378741
L 466.68779 181.437224
L 470.79673 181.292412
L 471.763539 181.197543
L 474.905669 180.740671
L 477.322692 180.653258
L 481.189929 180.30961
L 485.782273 180.066084
L 490.858022 179.839354
L 494.966961 179.881195
L 497.625686 180.203242
L 498.109091 180.269947
L 498.109091 180.269947
" style="fill:none;stroke:#2ca02c;stroke-linecap:square;stroke-width:0.8;"/>
   </g>
   <g id="patch_3">
    <path d="M 72 189
L 72 25.92
" style="fill:none;"/>
   </g>
   <g id="patch_4">
    <path d="M 518.4 189
L 518.4 25.92
" style="fill:none;"/>
   </g>
   <g id="patch_5">
    <path d="M 72 189
L 518.4 189
" style="fill:none;"/>
   </g>
   <g id="patch_6">
    <path d="M 72 25.92
L 518.4 25.92
" style="fill:none;"/>
   </g>
   <g id="line2d_24">
    <path clip-path="url(#p1e30806596)" d="M 92.290909 178.42065
L 93.257718 178.436718
L 93.499421 178.2427
L 93.741123 175.792123
L 95.191337 154.034434
L 95.674741 148.355836
L 96.399848 137.357279
L 96.641551 135.060173
L 96.883253 134.684386
L 98.575169 134.694915
L 99.541978 134.585463
L 100.025383 134.421955
L 100.75049 133.188931
L 101.475597 130.861691
L 102.442406 129.86037
L 102.925811 129.811766
L 105.101132 129.811112
L 105.826239 129.68186
L 106.551345 130.685786
L 107.518155 129.960011
L 108.243262 129.377161
L 108.726666 129.321547
L 110.901987 129.262477
L 111.143689 129.008489
L 111.627094 127.828724
L 112.352201 125.016176
L 113.077308 125.362297
L 114.285819 124.698336
L 116.219438 124.795424
L 116.46114 124.803104
L 116.702843 124.922572
L 116.944545 126.062716
L 118.153056 135.842224
L 119.361568 138.922529
L 119.60327 139.277921
L 119.844973 139.834012
L 120.328377 139.876503
L 122.261996 139.74093
L 122.503698 139.50392
L 122.7454 137.734456
L 123.953912 124.39612
L 124.920721 120.342829
L 125.645828 118.096448
L 125.88753 117.8014
L 128.546256 117.718672
L 129.029661 117.274896
L 129.754767 118.272162
L 130.479874 116.076264
L 131.204981 113.067171
L 131.446684 112.420883
L 131.688386 112.310835
L 133.863707 112.394526
L 134.105409 112.317224
L 134.588814 111.366566
L 134.830516 110.741263
L 135.555623 106.696674
L 137.005837 102.381558
L 137.247539 101.91863
L 137.489241 101.781007
L 139.664562 101.674075
L 139.906265 101.576645
L 140.147967 101.187353
L 140.631371 99.483092
L 141.356478 98.956676
L 141.839883 99.028896
L 142.806692 99.122953
L 143.048395 98.900854
L 143.773502 98.922335
L 145.70712 99.095588
L 146.190525 100.320045
L 146.432227 101.146054
L 146.915632 101.563871
L 147.157334 101.785044
L 147.882441 104.92307
L 148.607548 112.043173
L 148.84925 111.817326
L 149.332655 111.767468
L 151.266273 111.938374
L 151.507976 111.863567
L 152.233082 110.259299
L 152.958189 114.07441
L 153.683296 108.119928
L 154.408403 97.296792
L 154.650106 96.640699
L 154.891808 96.414345
L 157.067129 96.323646
L 157.308831 96.082197
L 157.792236 92.2529
L 158.033938 89.878214
L 158.759045 79.57508
L 159.967556 76.537366
L 160.450961 75.197569
L 160.692663 75.01417
L 162.867984 74.949913
L 163.109687 74.810935
L 163.351389 74.300426
L 163.834793 72.50872
L 164.076496 72.58201
L 164.5599 73.098197
L 165.285007 61.745935
L 166.010114 64.050798
L 166.493519 63.475475
L 168.66884 63.529166
L 168.910542 63.338377
L 169.393947 60.98702
L 169.635649 59.53357
L 170.360756 53.299166
L 170.84416 58.48434
L 171.085863 59.624976
L 171.81097 50.437023
L 172.052672 49.025696
L 172.294374 48.665025
L 174.469695 48.717676
L 174.711397 48.753264
L 174.9531 48.496052
L 175.436504 48.687828
L 176.161611 47.941127
L 176.403314 48.017301
L 176.886718 47.739089
L 177.370123 47.962177
L 177.611825 48.058644
L 178.09523 47.982512
L 180.512253 47.896321
L 180.753955 48.22635
L 181.23736 48.044849
L 181.962467 49.082124
L 182.204169 49.22823
L 182.687574 49.801419
L 184.37949 50.001702
L 186.313108 50.024947
L 186.554811 49.746059
L 187.038215 49.822233
L 187.52162 48.932148
L 188.246727 47.42117
L 189.213536 45.119337
L 189.696941 44.698776
L 192.113964 44.553546
L 192.597369 44.900257
L 192.839071 45.225071
L 193.564178 47.770094
L 194.289285 34.697456
L 194.530987 33.332727
L 194.772689 33.963219
L 195.014392 35.882246
L 195.256094 35.93928
L 195.739499 35.841031
L 197.914819 35.949229
L 198.156522 35.719118
L 198.639926 35.527008
L 199.365033 33.779302
L 200.09014 48.862589
L 200.331843 50.31697
L 200.573545 49.6595
L 200.815247 47.728885
L 201.056949 48.605527
L 202.023759 48.615211
L 203.715675 48.678661
L 203.957377 49.004947
L 205.165889 48.543749
L 205.890996 46.896996
L 206.616103 47.32701
L 206.857805 46.69773
L 207.582912 46.74198
L 209.51653 46.702563
L 209.758233 46.570501
L 210.241637 46.596238
L 210.48334 46.943092
L 210.966744 47.026637
L 212.416958 49.036231
L 212.65866 48.916303
L 213.383767 48.998898
L 215.317386 49.098209
L 215.800791 55.607258
L 216.042493 59.595754
L 216.284195 59.356822
L 216.7676 59.210019
L 217.492707 58.583964
L 218.217814 68.693788
L 218.701218 68.361415
L 220.876539 68.273173
L 221.118241 68.289031
L 221.843348 58.676668
L 222.568455 68.037228
L 223.293562 66.019453
L 224.018669 53.405995
L 224.502074 53.103502
L 226.919097 53.025141
L 227.160799 53.215811
L 227.402501 53.127707
L 227.644204 52.405263
L 228.369311 42.353479
L 229.577822 45.322892
L 229.819525 45.832819
L 230.544632 46.102288
L 232.719952 46.251174
L 232.961655 46.411605
L 233.445059 46.103183
L 233.686762 46.589225
L 234.170166 47.195132
L 235.862082 50.203552
L 236.345487 50.337528
L 238.520808 50.471035
L 238.76251 51.280021
L 239.004212 51.452246
L 239.971022 52.968507
L 241.662938 53.893322
L 243.838259 53.93537
L 244.321663 53.970652
L 244.805068 53.10238
L 245.530175 51.880178
L 246.738686 50.340078
L 247.222091 49.588999
L 247.947198 49.379412
L 250.122519 49.328151
L 250.364221 48.813143
L 250.847626 51.817276
L 251.089328 50.807727
L 251.33103 50.413246
L 253.022947 44.349729
L 253.506351 43.684443
L 255.198267 43.516296
L 255.923374 43.514409
L 256.165077 43.670155
L 256.406779 43.416184
L 256.648481 42.4859
L 257.373588 44.861777
L 258.098695 50.414872
L 258.823802 57.906729
L 259.065504 58.96234
L 259.548909 58.833608
L 261.482527 58.857835
L 261.72423 59.069058
L 261.965932 59.050287
L 262.207634 58.901788
L 262.449337 59.712936
L 263.174444 60.167314
L 263.899551 55.035306
L 264.624658 48.484087
L 264.86636 47.499696
L 265.349764 47.593038
L 267.766788 47.553899
L 268.00849 48.046338
L 268.250192 48.03888
L 268.975299 47.230653
L 269.458704 47.045425
L 269.700406 46.915679
L 270.425513 46.11325
L 270.908918 46.187166
L 273.325941 46.306935
L 273.567643 46.963258
L 274.051048 44.139129
L 274.776155 43.130722
L 275.259559 44.899082
L 275.501262 45.853648
L 275.984666 53.694761
L 276.468071 58.012206
L 276.709773 58.238039
L 278.885094 58.338054
L 279.126796 58.406826
L 279.368499 59.584331
L 280.093606 65.042866
L 280.818712 67.974734
L 281.302117 69.89562
L 281.785522 62.536683
L 282.268926 58.527593
L 282.510629 58.312103
L 284.927652 58.355083
L 285.169354 57.082427
L 285.652759 53.112217
L 287.102973 49.411212
L 287.828079 50.299511
L 290.728507 50.381154
L 290.97021 50.093893
L 291.453614 49.880036
L 292.178721 48.05081
L 293.14553 44.351221
L 293.628935 43.685088
L 296.28766 43.818861
L 296.771065 43.958775
L 297.012767 44.183884
L 297.25447 44.686154
L 297.737874 44.837106
L 297.979577 44.904777
L 299.671493 46.245007
L 301.121707 46.287541
L 302.571921 46.324555
L 303.055325 48.573339
L 303.297027 48.734569
L 303.780432 48.837684
L 305.472348 51.083587
L 305.955753 51.216353
L 308.131074 51.348841
L 308.614478 51.891248
L 308.856181 52.075404
L 309.581288 53.119136
L 311.273204 55.157249
L 311.998311 55.214254
L 313.931929 55.251981
L 314.173631 55.434074
L 314.657036 57.190911
L 315.140441 59.487534
L 315.382143 59.646977
L 315.865548 59.77215
L 316.10725 59.844066
L 316.832357 61.719347
L 317.315762 61.838051
L 319.732785 61.916457
L 319.974487 62.096125
L 320.457892 64.415263
L 320.941296 67.482336
L 321.182999 68.276694
L 321.424701 68.032325
L 321.666403 68.028696
L 321.908105 68.653173
L 322.633212 71.428609
L 323.116617 71.340186
L 324.566831 71.329976
L 325.775342 71.411994
L 326.500449 74.983523
L 327.225556 78.908245
L 328.67577 85.448921
L 331.334496 85.418562
L 333.268114 97.320505
L 334.476626 106.229689
L 334.96003 106.384391
L 337.135351 106.405974
L 338.343863 112.569977
L 339.552374 119.850708
L 340.277481 123.69879
L 340.760886 123.819267
L 342.936207 123.958506
L 344.628123 134.331199
L 346.078337 143.136593
L 347.045146 143.178695
L 348.737062 143.201029
L 351.395788 158.39354
L 352.120894 162.053323
L 353.571108 162.054162
L 354.537918 162.102328
L 357.92175 180.495183
L 361.305582 180.463502
L 362.755796 180.25392
L 364.447712 180.028363
L 368.073247 179.745794
L 373.6324 179.850643
L 375.807721 180.196391
L 385.959218 180.650189
L 388.134539 180.69907
L 396.110715 180.729803
L 397.802631 180.329124
L 399.011143 180.170213
L 400.944761 180.104928
L 403.361785 180.408148
L 406.745617 180.420835
L 408.437533 180.265145
L 410.371152 180.232578
L 415.205198 180.413251
L 416.897114 180.604303
L 419.797542 180.883407
L 421.489458 181.187154
L 422.69797 181.203507
L 425.356695 181.269278
L 427.290313 181.379251
L 430.915848 181.314823
L 432.366062 181.101216
L 433.574574 180.969867
L 437.200108 180.945523
L 439.133727 181.108097
L 444.209475 181.265776
L 445.659689 181.25536
L 448.318415 181.228165
L 451.218842 181.039005
L 454.11927 181.072262
L 454.844377 181.224215
L 456.052889 181.546689
L 460.645233 181.450711
L 461.853744 181.378741
L 466.68779 181.437224
L 470.79673 181.292412
L 471.763539 181.197543
L 474.905669 180.740671
L 477.322692 180.653258
L 481.189929 180.30961
L 485.782273 180.066084
L 490.858022 179.839354
L 494.966961 179.881195
L 497.625686 180.203242
L 498.109091 180.269947
L 498.109091 180.269947
" style="fill:none;stroke:#d62728;stroke-linecap:square;stroke-width:0.8;"/>
   </g>
   <g id="line2d_25">
    <path clip-path="url(#p1e30806596)" d="M 92.290909 178.42065
L 93.257718 178.436718
L 93.499421 178.2427
L 93.741123 175.792123
L 95.191337 154.034434
L 95.674741 148.355836
L 96.399848 137.357279
L 96.641551 135.060174
L 96.883253 134.684386
L 98.575169 134.694915
L 99.541978 134.585463
L 100.025383 134.421955
L 100.75049 133.188931
L 101.475597 130.86169
L 102.442406 129.86037
L 102.925811 129.811766
L 105.101132 129.811112
L 105.826239 129.68186
L 106.551345 130.685786
L 107.518155 129.960011
L 108.243262 129.377161
L 108.726666 129.321547
L 110.901987 129.262477
L 111.143689 129.008489
L 111.627094 127.828724
L 112.352201 125.016176
L 113.077308 125.362297
L 114.285819 124.698336
L 116.219438 124.795425
L 116.46114 124.803104
L 116.702843 124.922572
L 116.944545 126.062716
L 118.153056 135.842225
L 119.361568 138.922526
L 119.60327 139.277919
L 119.844973 139.83401
L 120.328377 139.876501
L 122.261996 139.740927
L 122.503698 139.503918
L 122.7454 137.734454
L 123.953912 124.396118
L 124.920721 120.342829
L 125.645828 118.096448
L 125.88753 117.8014
L 128.546256 117.718672
L 129.029661 117.274896
L 129.754767 118.272162
L 130.479874 116.076264
L 131.204981 113.067171
L 131.446684 112.420883
L 131.688386 112.310835
L 133.863707 112.394526
L 134.105409 112.317224
L 134.588814 111.366566
L 134.830516 110.741263
L 135.555623 106.696674
L 137.005837 102.381558
L 137.247539 101.91863
L 137.489241 101.781007
L 139.664562 101.674075
L 139.906265 101.576645
L 140.147967 101.187353
L 140.631371 99.483092
L 141.356478 98.956676
L 141.839883 99.028896
L 142.806692 99.122953
L 143.048395 98.900854
L 143.773502 98.922335
L 145.70712 99.095588
L 146.190525 100.320045
L 146.432227 101.146054
L 146.915632 101.563871
L 147.157334 101.785044
L 147.882441 104.92307
L 148.607548 112.043173
L 148.84925 111.817326
L 149.332655 111.767468
L 151.266273 111.938374
L 151.507976 111.863567
L 152.233082 110.259299
L 152.958189 114.07441
L 153.683296 108.119928
L 154.408403 97.296792
L 154.650106 96.640699
L 154.891808 96.414345
L 157.067129 96.323646
L 157.308831 96.082197
L 157.792236 92.2529
L 158.033938 89.878214
L 158.759045 79.57508
L 159.967556 76.537366
L 160.450961 75.197569
L 160.692663 75.01417
L 162.867984 74.949913
L 163.109687 74.810935
L 163.351389 74.300426
L 163.834793 72.50872
L 164.076496 72.58201
L 164.5599 73.098197
L 165.285007 61.745935
L 166.010114 64.050798
L 166.493519 63.475475
L 168.66884 63.529166
L 168.910542 63.338377
L 169.393947 60.98702
L 169.635649 59.53357
L 170.360756 53.299166
L 170.84416 58.48434
L 171.085863 59.624976
L 171.81097 50.437023
L 172.052672 49.025696
L 172.294374 48.665025
L 174.469695 48.717676
L 174.711397 48.753264
L 174.9531 48.496052
L 175.436504 48.687828
L 176.161611 47.941127
L 176.403314 48.017301
L 176.886718 47.739089
L 177.370123 47.962177
L 177.611825 48.058644
L 178.09523 47.982512
L 180.512253 47.896321
L 180.753955 48.22635
L 181.23736 48.044849
L 181.962467 49.082124
L 182.204169 49.22823
L 182.687574 49.801419
L 184.37949 50.001702
L 186.313108 50.024947
L 186.554811 49.746059
L 187.038215 49.822233
L 187.52162 48.932148
L 188.246727 47.42117
L 189.213536 45.119337
L 189.696941 44.698776
L 192.113964 44.553546
L 192.597369 44.900257
L 192.839071 45.225071
L 193.564178 47.770094
L 194.289285 34.697456
L 194.530987 33.332727
L 194.772689 33.963219
L 195.014392 35.882246
L 195.256094 35.93928
L 195.739499 35.841031
L 197.914819 35.949229
L 198.156522 35.719118
L 198.639926 35.527008
L 199.365033 33.779302
L 200.09014 48.862589
L 200.331843 50.31697
L 200.573545 49.6595
L 200.815247 47.728885
L 201.056949 48.605527
L 202.023759 48.615211
L 203.715675 48.678661
L 203.957377 49.004947
L 205.165889 48.543749
L 205.890996 46.896996
L 206.616103 47.32701
L 206.857805 46.69773
L 207.582912 46.74198
L 209.51653 46.702563
L 209.758233 46.570501
L 210.241637 46.596238
L 210.48334 46.943092
L 210.966744 47.026637
L 212.416958 49.036231
L 212.65866 48.916303
L 213.383767 48.998898
L 215.317386 49.098209
L 215.800791 55.607258
L 216.042493 59.595754
L 216.284195 59.356822
L 216.7676 59.210019
L 217.492707 58.583964
L 218.217814 68.693788
L 218.701218 68.361415
L 220.876539 68.273173
L 221.118241 68.289031
L 221.843348 58.676668
L 222.568455 68.037228
L 223.293562 66.019453
L 224.018669 53.405995
L 224.502074 53.103502
L 226.919097 53.025141
L 227.160799 53.215811
L 227.402501 53.127707
L 227.644204 52.405263
L 228.369311 42.353479
L 229.577822 45.322892
L 229.819525 45.832819
L 230.544632 46.102288
L 232.719952 46.251174
L 232.961655 46.411605
L 233.445059 46.103183
L 233.686762 46.589225
L 234.170166 47.195132
L 235.862082 50.203552
L 236.345487 50.337528
L 238.520808 50.471035
L 238.76251 51.280021
L 239.004212 51.452246
L 239.971022 52.968507
L 241.662938 53.893322
L 243.838259 53.93537
L 244.321663 53.970652
L 244.805068 53.10238
L 245.530175 51.880178
L 246.738686 50.340078
L 247.222091 49.588999
L 247.947198 49.379412
L 250.122519 49.328151
L 250.364221 48.813143
L 250.847626 51.817276
L 251.089328 50.807727
L 251.33103 50.413246
L 253.022947 44.349729
L 253.506351 43.684443
L 255.198267 43.516296
L 255.923374 43.514409
L 256.165077 43.670155
L 256.406779 43.416184
L 256.648481 42.4859
L 257.373588 44.861777
L 258.098695 50.414872
L 258.823802 57.906729
L 259.065504 58.96234
L 259.548909 58.833608
L 261.482527 58.857835
L 261.72423 59.069058
L 261.965932 59.050287
L 262.207634 58.901788
L 262.449337 59.712936
L 263.174444 60.167314
L 263.899551 55.035306
L 264.624658 48.484087
L 264.86636 47.499696
L 265.349764 47.593038
L 267.766788 47.553899
L 268.00849 48.046338
L 268.250192 48.03888
L 268.975299 47.230653
L 269.458704 47.045425
L 269.700406 46.915679
L 270.425513 46.11325
L 270.908918 46.187166
L 273.325941 46.306935
L 273.567643 46.963258
L 274.051048 44.139129
L 274.776155 43.130722
L 275.259559 44.899082
L 275.501262 45.853648
L 275.984666 53.694761
L 276.468071 58.012206
L 276.709773 58.238039
L 278.885094 58.338054
L 279.126796 58.406826
L 279.368499 59.584331
L 280.093606 65.042866
L 280.818712 67.974734
L 281.302117 69.89562
L 281.785522 62.536683
L 282.268926 58.527593
L 282.510629 58.312103
L 284.927652 58.355083
L 285.169354 57.082427
L 285.652759 53.112217
L 287.102973 49.411212
L 287.828079 50.299511
L 290.728507 50.381154
L 290.97021 50.093893
L 291.453614 49.880036
L 292.178721 48.05081
L 293.14553 44.35122
L 293.628935 43.685087
L 296.28766 43.81886
L 296.771065 43.958775
L 297.012767 44.527071
L 297.25447 45.404196
L 297.737874 45.555148
L 297.979577 45.622819
L 299.671493 46.963049
L 301.121707 47.005583
L 302.571921 47.042597
L 303.055325 49.21816
L 303.297027 49.37939
L 303.780432 49.482504
L 305.472348 51.728407
L 305.955753 51.861174
L 308.131074 51.993662
L 308.614478 52.528697
L 308.856181 52.706538
L 309.097883 53.409097
L 311.031501 56.077709
L 311.756608 56.193706
L 313.931929 56.23096
L 314.173631 56.413054
L 314.657036 58.110829
L 315.140441 60.712598
L 315.382143 60.872041
L 315.865548 60.997214
L 316.10725 61.06913
L 317.074059 63.303495
L 319.24938 63.362765
L 319.732785 63.400599
L 319.974487 63.580268
L 320.457892 65.821304
L 321.182999 69.865292
L 321.424701 69.720163
L 321.666403 69.911242
L 322.149808 72.126062
L 322.633212 74.16659
L 322.874915 74.42488
L 323.358319 74.308389
L 325.53364 74.379775
L 325.775342 74.624027
L 326.500449 78.081256
L 327.225556 82.051437
L 328.67577 88.467096
L 331.334496 88.436736
L 333.268114 99.949164
L 334.476626 108.534937
L 334.96003 108.689639
L 337.135351 108.711222
L 338.343863 114.671821
L 339.552374 121.73139
L 340.277481 125.475832
L 340.760886 125.596309
L 342.936207 125.735548
L 344.628123 135.76443
L 346.078337 144.280184
L 347.045146 144.322286
L 348.737062 144.34462
L 351.395788 159.026704
L 352.120894 162.6295
L 353.571108 162.630339
L 354.537918 162.678506
L 357.92175 180.495183
L 361.305582 180.463502
L 362.755796 180.25392
L 364.447712 180.028363
L 368.073247 179.745794
L 373.6324 179.850643
L 375.807721 180.196391
L 385.959218 180.650189
L 388.134539 180.69907
L 396.110715 180.729803
L 397.802631 180.329124
L 399.011143 180.170213
L 400.944761 180.104928
L 403.361785 180.408148
L 406.745617 180.420835
L 408.437533 180.265145
L 410.371152 180.232578
L 415.205198 180.413251
L 416.897114 180.604303
L 419.797542 180.883407
L 421.489458 181.187154
L 422.69797 181.203507
L 425.356695 181.269278
L 427.290313 181.379251
L 430.915848 181.314823
L 432.366062 181.101216
L 433.574574 180.969867
L 437.200108 180.945523
L 439.133727 181.108097
L 444.209475 181.265776
L 445.659689 181.25536
L 448.318415 181.228165
L 451.218842 181.039005
L 454.11927 181.072262
L 454.844377 181.224215
L 456.052889 181.546689
L 460.645233 181.450711
L 461.853744 181.378741
L 466.68779 181.437224
L 470.79673 181.292412
L 471.763539 181.197543
L 474.905669 180.740671
L 477.322692 180.653258
L 481.189929 180.30961
L 485.782273 180.066084
L 490.858022 179.839354
L 494.966961 179.881195
L 497.625686 180.203242
L 498.109091 180.269947
L 498.109091 180.269947
" style="fill:none;stroke:#9467bd;stroke-linecap:square;stroke-width:0.8;"/>
   </g>
   <g id="legend_1">
    <g id="patch_7">
     <path d="M 450.810937 107.310625
L 511.4 107.310625
Q 513.4 107.310625 513.4 105.310625
L 513.4 32.92
Q 513.4 30.92 511.4 30.92
L 450.810937 30.92
Q 448.810937 30.92 448.810937 32.92
L 448.810937 105.310625
Q 448.810937 107.310625 450.810937 107.310625
z
" style="fill:#ffffff;opacity:0.8;stroke:#cccccc;stroke-linejoin:miter;"/>
    </g>
    <g id="line2d_26">
     <path d="M 452.810937 39.018438
L 472.810937 39.018438
" style="fill:none;stroke:#1f77b4;stroke-linecap:square;stroke-width:0.8;"/>
    </g>
    <g id="line2d_27"/>
    <g id="text_15">
     <!-- 0% -->
     <g style="fill:#696969;" transform="translate(480.810937 42.518438)scale(0.1 -0.1)">
      <defs>
       <path d="M 72.703125 32.078125
Q 68.453125 32.078125 66.03125 28.46875
Q 63.625 24.859375 63.625 18.40625
Q 63.625 12.0625 66.03125 8.421875
Q 68.453125 4.78125 72.703125 4.78125
Q 76.859375 4.78125 79.265625 8.421875
Q 81.6875 12.0625 81.6875 18.40625
Q 81.6875 24.8125 79.265625 28.4375
Q 76.859375 32.078125 72.703125 32.078125
z
M 72.703125 38.28125
Q 80.421875 38.28125 84.953125 32.90625
Q 89.5 27.546875 89.5 18.40625
Q 89.5 9.28125 84.9375 3.921875
Q 80.375 -1.421875 72.703125 -1.421875
Q 64.890625 -1.421875 60.34375 3.921875
Q 55.8125 9.28125 55.8125 18.40625
Q 55.8125 27.59375 60.375 32.9375
Q 64.9375 38.28125 72.703125 38.28125
z
M 22.3125 68.015625
Q 18.109375 68.015625 15.6875 64.375
Q 13.28125 60.75 13.28125 54.390625
Q 13.28125 47.953125 15.671875 44.328125
Q 18.0625 40.71875 22.3125 40.71875
Q 26.5625 40.71875 28.96875 44.328125
Q 31.390625 47.953125 31.390625 54.390625
Q 31.390625 60.6875 28.953125 64.34375
Q 26.515625 68.015625 22.3125 68.015625
z
M 66.40625 74.21875
L 74.21875 74.21875
L 28.609375 -1.421875
L 20.796875 -1.421875
z
M 22.3125 74.21875
Q 30.03125 74.21875 34.609375 68.875
Q 39.203125 63.53125 39.203125 54.390625
Q 39.203125 45.171875 34.640625 39.84375
Q 30.078125 34.515625 22.3125 34.515625
Q 14.546875 34.515625 10.03125 39.859375
Q 5.515625 45.21875 5.515625 54.390625
Q 5.515625 63.484375 10.046875 68.84375
Q 14.59375 74.21875 22.3125 74.21875
z
" id="DejaVuSans-37"/>
      </defs>
      <use xlink:href="#DejaVuSans-48"/>
      <use x="63.623047" xlink:href="#DejaVuSans-37"/>
     </g>
    </g>
    <g id="line2d_28">
     <path d="M 452.810937 53.696562
L 472.810937 53.696562
" style="fill:none;stroke:#ff7f0e;stroke-linecap:square;stroke-width:0.8;"/>
    </g>
    <g id="line2d_29"/>
    <g id="text_16">
     <!-- 10% -->
     <g style="fill:#696969;" transform="translate(480.810937 57.196562)scale(0.1 -0.1)">
      <use xlink:href="#DejaVuSans-49"/>
      <use x="63.623047" xlink:href="#DejaVuSans-48"/>
      <use x="127.246094" xlink:href="#DejaVuSans-37"/>
     </g>
    </g>
    <g id="line2d_30">
     <path d="M 452.810937 68.374687
L 472.810937 68.374687
" style="fill:none;stroke:#2ca02c;stroke-linecap:square;stroke-width:0.8;"/>
    </g>
    <g id="line2d_31"/>
    <g id="text_17">
     <!-- 60% -->
     <g style="fill:#696969;" transform="translate(480.810937 71.874687)scale(0.1 -0.1)">
      <use xlink:href="#DejaVuSans-54"/>
      <use x="63.623047" xlink:href="#DejaVuSans-48"/>
      <use x="127.246094" xlink:href="#DejaVuSans-37"/>
     </g>
    </g>
    <g id="line2d_32">
     <path d="M 452.810937 83.052813
L 472.810937 83.052813
" style="fill:none;stroke:#d62728;stroke-linecap:square;stroke-width:0.8;"/>
    </g>
    <g id="line2d_33"/>
    <g id="text_18">
     <!-- 100% -->
     <g style="fill:#696969;" transform="translate(480.810937 86.552813)scale(0.1 -0.1)">
      <use xlink:href="#DejaVuSans-49"/>
      <use x="63.623047" xlink:href="#DejaVuSans-48"/>
      <use x="127.246094" xlink:href="#DejaVuSans-48"/>
      <use x="190.869141" xlink:href="#DejaVuSans-37"/>
     </g>
    </g>
    <g id="line2d_34">
     <path d="M 452.810937 97.730938
L 472.810937 97.730938
" style="fill:none;stroke:#9467bd;stroke-linecap:square;stroke-width:0.8;"/>
    </g>
    <g id="line2d_35"/>
    <g id="text_19">
     <!-- 200% -->
     <g style="fill:#696969;" transform="translate(480.810937 101.230938)scale(0.1 -0.1)">
      <use xlink:href="#DejaVuSans-50"/>
      <use x="63.623047" xlink:href="#DejaVuSans-48"/>
      <use x="127.246094" xlink:href="#DejaVuSans-48"/>
      <use x="190.869141" xlink:href="#DejaVuSans-37"/>
     </g>
    </g>
   </g>
  </g>
  <g id="text_20">
   <!-- A_n -->
   <g style="fill:#696969;" transform="translate(277.093125 13.104375)scale(0.12 -0.12)">
    <defs>
     <path d="M 34.1875 63.1875
L 20.796875 26.90625
L 47.609375 26.90625
z
M 28.609375 72.90625
L 39.796875 72.90625
L 67.578125 0
L 57.328125 0
L 50.6875 18.703125
L 17.828125 18.703125
L 11.1875 0
L 0.78125 0
z
" id="DejaVuSans-65"/>
    </defs>
    <use xlink:href="#DejaVuSans-65"/>
    <use x="68.408203" xlink:href="#DejaVuSans-95"/>
    <use x="118.408203" xlink:href="#DejaVuSans-110"/>
   </g>
  </g>
 </g>
 <defs>
  <clipPath id="p1e30806596">
   <rect height="163.08" width="446.4" x="72" y="25.92"/>
  </clipPath>
 </defs>
</svg>
